G75*
%MOIN*%
%OFA0B0*%
%FSLAX24Y24*%
%IPPOS*%
%LPD*%
%AMOC8*
5,1,8,0,0,1.08239X$1,22.5*
%
%ADD10C,0.0000*%
%ADD11C,0.0060*%
%ADD12R,0.1240X0.1240*%
%ADD13C,0.0940*%
%ADD14OC8,0.0600*%
%ADD15R,0.0556X0.0556*%
%ADD16C,0.0556*%
%ADD17C,0.0600*%
%ADD18C,0.0780*%
%ADD19R,0.0730X0.0730*%
%ADD20R,0.0713X0.0713*%
%ADD21OC8,0.0713*%
%ADD22R,0.1267X0.1267*%
%ADD23C,0.0580*%
%ADD24C,0.0900*%
%ADD25C,0.0700*%
%ADD26R,0.0091X0.0004*%
%ADD27R,0.0061X0.0004*%
%ADD28R,0.0156X0.0004*%
%ADD29R,0.0103X0.0004*%
%ADD30R,0.0198X0.0004*%
%ADD31R,0.0129X0.0004*%
%ADD32R,0.0065X0.0004*%
%ADD33R,0.0068X0.0004*%
%ADD34R,0.0228X0.0004*%
%ADD35R,0.0152X0.0004*%
%ADD36R,0.0110X0.0004*%
%ADD37R,0.0114X0.0004*%
%ADD38R,0.0255X0.0004*%
%ADD39R,0.0171X0.0004*%
%ADD40R,0.0137X0.0004*%
%ADD41R,0.0148X0.0004*%
%ADD42R,0.0277X0.0004*%
%ADD43R,0.0186X0.0004*%
%ADD44R,0.0160X0.0004*%
%ADD45R,0.0251X0.0004*%
%ADD46R,0.0205X0.0004*%
%ADD47R,0.0296X0.0004*%
%ADD48R,0.0201X0.0004*%
%ADD49R,0.0220X0.0004*%
%ADD50R,0.0179X0.0004*%
%ADD51R,0.0224X0.0004*%
%ADD52R,0.0239X0.0004*%
%ADD53R,0.0194X0.0004*%
%ADD54R,0.0315X0.0004*%
%ADD55R,0.0217X0.0004*%
%ADD56R,0.0213X0.0004*%
%ADD57R,0.0247X0.0004*%
%ADD58R,0.0334X0.0004*%
%ADD59R,0.0232X0.0004*%
%ADD60R,0.0209X0.0004*%
%ADD61R,0.0346X0.0004*%
%ADD62R,0.0224X0.0004*%
%ADD63R,0.0243X0.0004*%
%ADD64R,0.0247X0.0004*%
%ADD65R,0.0361X0.0004*%
%ADD66R,0.0236X0.0004*%
%ADD67R,0.0372X0.0004*%
%ADD68R,0.0262X0.0004*%
%ADD69R,0.0270X0.0004*%
%ADD70R,0.0388X0.0004*%
%ADD71R,0.0270X0.0004*%
%ADD72R,0.0220X0.0004*%
%ADD73R,0.0395X0.0004*%
%ADD74R,0.0266X0.0004*%
%ADD75R,0.0293X0.0004*%
%ADD76R,0.0407X0.0004*%
%ADD77R,0.0289X0.0004*%
%ADD78R,0.0274X0.0004*%
%ADD79R,0.0304X0.0004*%
%ADD80R,0.0418X0.0004*%
%ADD81R,0.0312X0.0004*%
%ADD82R,0.0426X0.0004*%
%ADD83R,0.0304X0.0004*%
%ADD84R,0.0323X0.0004*%
%ADD85R,0.0433X0.0004*%
%ADD86R,0.0331X0.0004*%
%ADD87R,0.0441X0.0004*%
%ADD88R,0.0319X0.0004*%
%ADD89R,0.0338X0.0004*%
%ADD90R,0.0448X0.0004*%
%ADD91R,0.0456X0.0004*%
%ADD92R,0.0327X0.0004*%
%ADD93R,0.0357X0.0004*%
%ADD94R,0.0464X0.0004*%
%ADD95R,0.0365X0.0004*%
%ADD96R,0.0471X0.0004*%
%ADD97R,0.0342X0.0004*%
%ADD98R,0.0369X0.0004*%
%ADD99R,0.0479X0.0004*%
%ADD100R,0.0331X0.0004*%
%ADD101R,0.0376X0.0004*%
%ADD102R,0.0486X0.0004*%
%ADD103R,0.0350X0.0004*%
%ADD104R,0.0384X0.0004*%
%ADD105R,0.0490X0.0004*%
%ADD106R,0.0391X0.0004*%
%ADD107R,0.0494X0.0004*%
%ADD108R,0.0638X0.0004*%
%ADD109R,0.0502X0.0004*%
%ADD110R,0.0353X0.0004*%
%ADD111R,0.0642X0.0004*%
%ADD112R,0.0505X0.0004*%
%ADD113R,0.0509X0.0004*%
%ADD114R,0.0646X0.0004*%
%ADD115R,0.0517X0.0004*%
%ADD116R,0.0600X0.0004*%
%ADD117R,0.0650X0.0004*%
%ADD118R,0.0524X0.0004*%
%ADD119R,0.0604X0.0004*%
%ADD120R,0.0528X0.0004*%
%ADD121R,0.0650X0.0004*%
%ADD122R,0.0532X0.0004*%
%ADD123R,0.0536X0.0004*%
%ADD124R,0.0608X0.0004*%
%ADD125R,0.0654X0.0004*%
%ADD126R,0.0540X0.0004*%
%ADD127R,0.0258X0.0004*%
%ADD128R,0.0543X0.0004*%
%ADD129R,0.0657X0.0004*%
%ADD130R,0.0547X0.0004*%
%ADD131R,0.0612X0.0004*%
%ADD132R,0.0555X0.0004*%
%ADD133R,0.0661X0.0004*%
%ADD134R,0.0616X0.0004*%
%ADD135R,0.0559X0.0004*%
%ADD136R,0.0562X0.0004*%
%ADD137R,0.0665X0.0004*%
%ADD138R,0.0570X0.0004*%
%ADD139R,0.0661X0.0004*%
%ADD140R,0.0619X0.0004*%
%ADD141R,0.0296X0.0004*%
%ADD142R,0.0327X0.0004*%
%ADD143R,0.0281X0.0004*%
%ADD144R,0.0315X0.0004*%
%ADD145R,0.0281X0.0004*%
%ADD146R,0.0300X0.0004*%
%ADD147R,0.0308X0.0004*%
%ADD148R,0.0258X0.0004*%
%ADD149R,0.0285X0.0004*%
%ADD150R,0.0236X0.0004*%
%ADD151R,0.0182X0.0004*%
%ADD152R,0.0593X0.0004*%
%ADD153R,0.0589X0.0004*%
%ADD154R,0.0581X0.0004*%
%ADD155R,0.0578X0.0004*%
%ADD156R,0.0574X0.0004*%
%ADD157R,0.0186X0.0004*%
%ADD158R,0.0551X0.0004*%
%ADD159R,0.0190X0.0004*%
%ADD160R,0.0521X0.0004*%
%ADD161R,0.0513X0.0004*%
%ADD162R,0.0505X0.0004*%
%ADD163R,0.0498X0.0004*%
%ADD164R,0.0483X0.0004*%
%ADD165R,0.0475X0.0004*%
%ADD166R,0.0445X0.0004*%
%ADD167R,0.0414X0.0004*%
%ADD168R,0.0403X0.0004*%
%ADD169R,0.0353X0.0004*%
%ADD170R,0.0198X0.0004*%
%ADD171R,0.0011X0.0004*%
%ADD172R,0.0038X0.0004*%
%ADD173R,0.0293X0.0004*%
%ADD174R,0.0566X0.0004*%
%ADD175R,0.0597X0.0004*%
%ADD176R,0.0578X0.0004*%
%ADD177R,0.0175X0.0004*%
%ADD178R,0.0585X0.0004*%
%ADD179R,0.0167X0.0004*%
%ADD180R,0.0163X0.0004*%
%ADD181R,0.0543X0.0004*%
%ADD182R,0.0201X0.0004*%
%ADD183R,0.0144X0.0004*%
%ADD184R,0.0141X0.0004*%
%ADD185R,0.0133X0.0004*%
%ADD186R,0.0467X0.0004*%
%ADD187R,0.0122X0.0004*%
%ADD188R,0.0118X0.0004*%
%ADD189R,0.0114X0.0004*%
%ADD190R,0.0429X0.0004*%
%ADD191R,0.0106X0.0004*%
%ADD192R,0.0422X0.0004*%
%ADD193R,0.0103X0.0004*%
%ADD194R,0.0095X0.0004*%
%ADD195R,0.0084X0.0004*%
%ADD196R,0.0076X0.0004*%
%ADD197R,0.0057X0.0004*%
%ADD198R,0.0046X0.0004*%
%ADD199R,0.0034X0.0004*%
%ADD200R,0.0015X0.0004*%
%ADD201R,0.0426X0.0004*%
%ADD202R,0.0175X0.0004*%
%ADD203R,0.0414X0.0004*%
%ADD204R,0.0410X0.0004*%
%ADD205R,0.0099X0.0004*%
%ADD206R,0.0403X0.0004*%
%ADD207R,0.0399X0.0004*%
%ADD208R,0.0437X0.0004*%
%ADD209R,0.0448X0.0004*%
%ADD210R,0.0460X0.0004*%
%ADD211R,0.0380X0.0004*%
%ADD212R,0.0566X0.0004*%
%ADD213R,0.0589X0.0004*%
%ADD214R,0.0053X0.0004*%
%ADD215R,0.0604X0.0004*%
%ADD216R,0.0616X0.0004*%
%ADD217R,0.0365X0.0004*%
%ADD218R,0.0308X0.0004*%
%ADD219R,0.0125X0.0004*%
%ADD220R,0.0057X0.0004*%
%ADD221R,0.0707X0.0004*%
%ADD222R,0.0091X0.0004*%
%ADD223R,0.0152X0.0004*%
%ADD224R,0.0342X0.0004*%
%ADD225R,0.0452X0.0004*%
%ADD226R,0.0471X0.0004*%
%ADD227R,0.0509X0.0004*%
%ADD228R,0.0532X0.0004*%
%ADD229R,0.0555X0.0004*%
%ADD230R,0.0388X0.0004*%
%ADD231R,0.0437X0.0004*%
%ADD232R,0.0399X0.0004*%
%ADD233R,0.0209X0.0004*%
%ADD234R,0.0483X0.0004*%
%ADD235R,0.0460X0.0004*%
D10*
X006701Y001180D02*
X039656Y001180D01*
X039656Y013385D01*
X006982Y013385D01*
X018930Y011680D02*
X018932Y011722D01*
X018938Y011764D01*
X018948Y011805D01*
X018961Y011845D01*
X018979Y011883D01*
X018999Y011920D01*
X019024Y011955D01*
X019051Y011987D01*
X019081Y012016D01*
X019114Y012043D01*
X019149Y012066D01*
X019186Y012086D01*
X019225Y012102D01*
X019265Y012115D01*
X019306Y012124D01*
X019348Y012129D01*
X019391Y012130D01*
X019433Y012127D01*
X019474Y012120D01*
X019515Y012109D01*
X019555Y012095D01*
X019593Y012077D01*
X019629Y012055D01*
X019663Y012030D01*
X019694Y012002D01*
X019723Y011971D01*
X019749Y011938D01*
X019771Y011902D01*
X019791Y011864D01*
X019806Y011825D01*
X019818Y011785D01*
X019826Y011743D01*
X019830Y011701D01*
X019830Y011659D01*
X019826Y011617D01*
X019818Y011575D01*
X019806Y011535D01*
X019791Y011496D01*
X019771Y011458D01*
X019749Y011422D01*
X019723Y011389D01*
X019694Y011358D01*
X019663Y011330D01*
X019629Y011305D01*
X019593Y011283D01*
X019555Y011265D01*
X019515Y011251D01*
X019474Y011240D01*
X019433Y011233D01*
X019391Y011230D01*
X019348Y011231D01*
X019306Y011236D01*
X019265Y011245D01*
X019225Y011258D01*
X019186Y011274D01*
X019149Y011294D01*
X019114Y011317D01*
X019081Y011344D01*
X019051Y011373D01*
X019024Y011405D01*
X018999Y011440D01*
X018979Y011477D01*
X018961Y011515D01*
X018948Y011555D01*
X018938Y011596D01*
X018932Y011638D01*
X018930Y011680D01*
X006983Y013384D02*
X006828Y013385D01*
X006673Y013381D01*
X006518Y013373D01*
X006363Y013362D01*
X006209Y013346D01*
X006055Y013327D01*
X005901Y013304D01*
X005749Y013278D01*
X005597Y013247D01*
X005445Y013213D01*
X005295Y013174D01*
X005146Y013133D01*
X004998Y013087D01*
X004851Y013038D01*
X004705Y012985D01*
X004560Y012928D01*
X004417Y012868D01*
X004276Y012804D01*
X004136Y012737D01*
X003998Y012667D01*
X003862Y012593D01*
X003728Y012515D01*
X003595Y012434D01*
X003465Y012350D01*
X003337Y012263D01*
X003211Y012173D01*
X003087Y012079D01*
X002966Y011983D01*
X002847Y011883D01*
X002730Y011780D01*
X002617Y011675D01*
X002505Y011567D01*
X002397Y011456D01*
X002291Y011342D01*
X002189Y011226D01*
X002089Y011107D01*
X001992Y010986D01*
X001898Y010863D01*
X001808Y010737D01*
X001720Y010609D01*
X001636Y010479D01*
X001555Y010346D01*
X001477Y010212D01*
X001403Y010076D01*
X001332Y009938D01*
X001265Y009798D01*
X001201Y009657D01*
X001141Y009514D01*
X001084Y009370D01*
X001031Y009224D01*
X000981Y009077D01*
X000935Y008929D01*
X000893Y008780D01*
X000855Y008630D01*
X000820Y008478D01*
X000789Y008326D01*
X000762Y008174D01*
X000739Y008020D01*
X000720Y007867D01*
X000704Y007712D01*
X000692Y007558D01*
X000685Y007403D01*
X000681Y007248D01*
X000680Y007248D02*
X000680Y007201D01*
X000682Y007048D01*
X000688Y006896D01*
X000697Y006744D01*
X000711Y006592D01*
X000728Y006440D01*
X000749Y006289D01*
X000774Y006139D01*
X000803Y005989D01*
X000836Y005840D01*
X000872Y005692D01*
X000912Y005545D01*
X000956Y005399D01*
X001004Y005254D01*
X001055Y005110D01*
X001110Y004968D01*
X001168Y004827D01*
X001230Y004687D01*
X001295Y004549D01*
X001364Y004413D01*
X001437Y004279D01*
X001512Y004147D01*
X001591Y004016D01*
X001674Y003888D01*
X001759Y003761D01*
X001848Y003637D01*
X001940Y003516D01*
X002035Y003396D01*
X002133Y003279D01*
X002233Y003165D01*
X002337Y003053D01*
X002444Y002944D01*
X002553Y002837D01*
X002665Y002733D01*
X002779Y002633D01*
X002896Y002535D01*
X003016Y002440D01*
X003137Y002348D01*
X003261Y002259D01*
X003388Y002174D01*
X003516Y002091D01*
X003647Y002012D01*
X003779Y001937D01*
X003913Y001864D01*
X004049Y001795D01*
X004187Y001730D01*
X004327Y001668D01*
X004468Y001610D01*
X004610Y001555D01*
X004754Y001504D01*
X004899Y001456D01*
X005045Y001412D01*
X005192Y001372D01*
X005340Y001336D01*
X005489Y001303D01*
X005639Y001274D01*
X005789Y001249D01*
X005940Y001228D01*
X006092Y001211D01*
X006244Y001197D01*
X006396Y001188D01*
X006548Y001182D01*
X006701Y001180D01*
X013630Y002880D02*
X013632Y002922D01*
X013638Y002964D01*
X013648Y003005D01*
X013661Y003045D01*
X013679Y003083D01*
X013699Y003120D01*
X013724Y003155D01*
X013751Y003187D01*
X013781Y003216D01*
X013814Y003243D01*
X013849Y003266D01*
X013886Y003286D01*
X013925Y003302D01*
X013965Y003315D01*
X014006Y003324D01*
X014048Y003329D01*
X014091Y003330D01*
X014133Y003327D01*
X014174Y003320D01*
X014215Y003309D01*
X014255Y003295D01*
X014293Y003277D01*
X014329Y003255D01*
X014363Y003230D01*
X014394Y003202D01*
X014423Y003171D01*
X014449Y003138D01*
X014471Y003102D01*
X014491Y003064D01*
X014506Y003025D01*
X014518Y002985D01*
X014526Y002943D01*
X014530Y002901D01*
X014530Y002859D01*
X014526Y002817D01*
X014518Y002775D01*
X014506Y002735D01*
X014491Y002696D01*
X014471Y002658D01*
X014449Y002622D01*
X014423Y002589D01*
X014394Y002558D01*
X014363Y002530D01*
X014329Y002505D01*
X014293Y002483D01*
X014255Y002465D01*
X014215Y002451D01*
X014174Y002440D01*
X014133Y002433D01*
X014091Y002430D01*
X014048Y002431D01*
X014006Y002436D01*
X013965Y002445D01*
X013925Y002458D01*
X013886Y002474D01*
X013849Y002494D01*
X013814Y002517D01*
X013781Y002544D01*
X013751Y002573D01*
X013724Y002605D01*
X013699Y002640D01*
X013679Y002677D01*
X013661Y002715D01*
X013648Y002755D01*
X013638Y002796D01*
X013632Y002838D01*
X013630Y002880D01*
X024230Y002880D02*
X024232Y002922D01*
X024238Y002964D01*
X024248Y003005D01*
X024261Y003045D01*
X024279Y003083D01*
X024299Y003120D01*
X024324Y003155D01*
X024351Y003187D01*
X024381Y003216D01*
X024414Y003243D01*
X024449Y003266D01*
X024486Y003286D01*
X024525Y003302D01*
X024565Y003315D01*
X024606Y003324D01*
X024648Y003329D01*
X024691Y003330D01*
X024733Y003327D01*
X024774Y003320D01*
X024815Y003309D01*
X024855Y003295D01*
X024893Y003277D01*
X024929Y003255D01*
X024963Y003230D01*
X024994Y003202D01*
X025023Y003171D01*
X025049Y003138D01*
X025071Y003102D01*
X025091Y003064D01*
X025106Y003025D01*
X025118Y002985D01*
X025126Y002943D01*
X025130Y002901D01*
X025130Y002859D01*
X025126Y002817D01*
X025118Y002775D01*
X025106Y002735D01*
X025091Y002696D01*
X025071Y002658D01*
X025049Y002622D01*
X025023Y002589D01*
X024994Y002558D01*
X024963Y002530D01*
X024929Y002505D01*
X024893Y002483D01*
X024855Y002465D01*
X024815Y002451D01*
X024774Y002440D01*
X024733Y002433D01*
X024691Y002430D01*
X024648Y002431D01*
X024606Y002436D01*
X024565Y002445D01*
X024525Y002458D01*
X024486Y002474D01*
X024449Y002494D01*
X024414Y002517D01*
X024381Y002544D01*
X024351Y002573D01*
X024324Y002605D01*
X024299Y002640D01*
X024279Y002677D01*
X024261Y002715D01*
X024248Y002755D01*
X024238Y002796D01*
X024232Y002838D01*
X024230Y002880D01*
D11*
X024469Y002165D02*
X024469Y001524D01*
X024042Y001524D01*
X023824Y001631D02*
X023717Y001524D01*
X023504Y001524D01*
X023397Y001631D01*
X023397Y001844D01*
X023504Y001951D01*
X023717Y001951D01*
X023824Y001844D01*
X023824Y001631D01*
X023180Y001524D02*
X023180Y001951D01*
X022859Y001951D01*
X022753Y001844D01*
X022753Y001524D01*
X022535Y001631D02*
X022535Y001844D01*
X022428Y001951D01*
X022108Y001951D01*
X021890Y001844D02*
X021890Y001631D01*
X021784Y001524D01*
X021570Y001524D01*
X021463Y001631D01*
X021463Y001844D01*
X021570Y001951D01*
X021784Y001951D01*
X021890Y001844D01*
X022108Y001524D02*
X022108Y002165D01*
X021246Y001951D02*
X020926Y001951D01*
X020819Y001844D01*
X020819Y001524D01*
X020601Y001310D02*
X020388Y001524D01*
X020495Y001524D01*
X020495Y001631D01*
X020388Y001631D01*
X020388Y001524D01*
X021246Y001524D02*
X021246Y001951D01*
X022108Y001524D02*
X022428Y001524D01*
X022535Y001631D01*
X019527Y001524D02*
X019527Y002165D01*
X019314Y001951D01*
X019100Y002165D01*
X019100Y001524D01*
X018883Y001631D02*
X018776Y001738D01*
X018456Y001738D01*
X018456Y001844D02*
X018456Y001524D01*
X018776Y001524D01*
X018883Y001631D01*
X018238Y001631D02*
X018131Y001524D01*
X017811Y001524D01*
X017811Y001417D02*
X017918Y001310D01*
X018024Y001310D01*
X017811Y001417D02*
X017811Y001951D01*
X018238Y001951D02*
X018238Y001631D01*
X018456Y001844D02*
X018562Y001951D01*
X018776Y001951D01*
X016949Y002058D02*
X016842Y002165D01*
X016629Y002165D01*
X016522Y002058D01*
X016522Y001951D01*
X016949Y001524D01*
X016522Y001524D01*
X016304Y001631D02*
X015877Y002058D01*
X015877Y001631D01*
X015984Y001524D01*
X016198Y001524D01*
X016304Y001631D01*
X016304Y002058D01*
X016198Y002165D01*
X015984Y002165D01*
X015877Y002058D01*
X015660Y001951D02*
X015446Y002165D01*
X015446Y001524D01*
X015233Y001524D02*
X015660Y001524D01*
X015015Y001631D02*
X014908Y001524D01*
X014695Y001524D01*
X014588Y001631D01*
X014588Y001844D01*
X014695Y001951D01*
X014802Y001951D01*
X015015Y001844D01*
X015015Y002165D01*
X014588Y002165D01*
X032207Y012103D02*
X032207Y012637D01*
X032527Y012637D01*
X032634Y012530D01*
X032634Y012317D01*
X032527Y012210D01*
X032207Y012210D01*
X032207Y012103D02*
X032314Y011996D01*
X032421Y011996D01*
X032852Y012210D02*
X032852Y012530D01*
X032958Y012637D01*
X033279Y012637D01*
X033279Y012210D01*
X033495Y012210D02*
X033708Y012210D01*
X033602Y012210D02*
X033602Y012637D01*
X033708Y012637D01*
X033602Y012851D02*
X033602Y012957D01*
X034033Y012637D02*
X033926Y012530D01*
X033926Y012210D01*
X034353Y012210D02*
X034353Y012851D01*
X034571Y012851D02*
X034998Y012851D01*
X034784Y012851D02*
X034784Y012210D01*
X034353Y012530D02*
X034246Y012637D01*
X034033Y012637D01*
X035860Y012637D02*
X036180Y012637D01*
X036287Y012530D01*
X036287Y012317D01*
X036180Y012210D01*
X035860Y012210D01*
X036503Y012210D02*
X036716Y012210D01*
X036610Y012210D02*
X036610Y012637D01*
X036716Y012637D01*
X036934Y012637D02*
X037254Y012637D01*
X037361Y012530D01*
X037254Y012424D01*
X037041Y012424D01*
X036934Y012317D01*
X037041Y012210D01*
X037361Y012210D01*
X037578Y012210D02*
X037578Y012637D01*
X038005Y012637D02*
X038005Y012317D01*
X037899Y012210D01*
X037578Y012210D01*
X038223Y012210D02*
X038223Y012851D01*
X038436Y012637D01*
X038650Y012851D01*
X038650Y012210D01*
X036610Y012851D02*
X036610Y012957D01*
X031345Y012851D02*
X031345Y012210D01*
X030918Y012210D02*
X030918Y012851D01*
X031132Y012637D01*
X031345Y012851D01*
X030701Y012530D02*
X030594Y012637D01*
X030380Y012637D01*
X030274Y012530D01*
X030274Y012317D01*
X030380Y012210D01*
X030594Y012210D01*
X030701Y012317D01*
X030701Y012530D01*
X030056Y012530D02*
X030056Y012317D01*
X029949Y012210D01*
X029629Y012210D01*
X029629Y012851D01*
X029629Y012637D02*
X029949Y012637D01*
X030056Y012530D01*
X029411Y012637D02*
X029411Y012317D01*
X029305Y012210D01*
X028984Y012210D01*
X028984Y012637D01*
X028767Y012851D02*
X028660Y012851D01*
X028660Y012210D01*
X028767Y012210D02*
X028553Y012210D01*
X028337Y012317D02*
X028230Y012424D01*
X027910Y012424D01*
X027910Y012530D02*
X027910Y012210D01*
X028230Y012210D01*
X028337Y012317D01*
X028017Y012637D02*
X027910Y012530D01*
X028017Y012637D02*
X028230Y012637D01*
X027693Y012637D02*
X027693Y012210D01*
X027693Y012424D02*
X027479Y012637D01*
X027372Y012637D01*
X026511Y012530D02*
X026084Y012530D01*
X026297Y012744D02*
X026297Y012317D01*
X025222Y012210D02*
X025222Y012851D01*
X024902Y012851D01*
X024795Y012744D01*
X024795Y012317D01*
X024902Y012210D01*
X025222Y012210D01*
X024577Y012317D02*
X024471Y012210D01*
X024150Y012210D01*
X024150Y012637D01*
X023933Y012851D02*
X023826Y012851D01*
X023826Y012210D01*
X023933Y012210D02*
X023719Y012210D01*
X023503Y012317D02*
X023396Y012210D01*
X023290Y012317D01*
X023183Y012210D01*
X023076Y012317D01*
X023076Y012637D01*
X022859Y012637D02*
X022752Y012637D01*
X022752Y012210D01*
X022859Y012210D02*
X022645Y012210D01*
X022429Y012317D02*
X022322Y012210D01*
X022002Y012210D01*
X021784Y012210D02*
X021784Y012851D01*
X021678Y012637D02*
X021464Y012637D01*
X021357Y012530D01*
X021357Y012210D01*
X021784Y012530D02*
X021678Y012637D01*
X022002Y012637D02*
X022322Y012637D01*
X022429Y012530D01*
X022429Y012317D01*
X022752Y012851D02*
X022752Y012957D01*
X023503Y012637D02*
X023503Y012317D01*
X024577Y012317D02*
X024577Y012637D01*
X020495Y012530D02*
X020068Y012530D01*
X019851Y012317D02*
X019744Y012424D01*
X019424Y012424D01*
X019424Y012530D02*
X019424Y012210D01*
X019744Y012210D01*
X019851Y012317D01*
X020068Y012210D02*
X020068Y012851D01*
X019744Y012637D02*
X019530Y012637D01*
X019424Y012530D01*
X019206Y012637D02*
X019099Y012637D01*
X018993Y012530D01*
X018886Y012637D01*
X018779Y012530D01*
X018779Y012210D01*
X018993Y012210D02*
X018993Y012530D01*
X019206Y012637D02*
X019206Y012210D01*
X018562Y012210D02*
X018348Y012210D01*
X018455Y012210D02*
X018455Y012851D01*
X018562Y012851D01*
X018132Y012530D02*
X018025Y012637D01*
X017812Y012637D01*
X017705Y012530D01*
X017705Y012424D01*
X018132Y012424D01*
X018132Y012530D02*
X018132Y012317D01*
X018025Y012210D01*
X017812Y012210D01*
X017381Y012317D02*
X017274Y012210D01*
X017381Y012317D02*
X017381Y012744D01*
X017487Y012637D02*
X017274Y012637D01*
X016413Y012317D02*
X016306Y012210D01*
X016200Y012210D01*
X016093Y012317D01*
X016093Y012851D01*
X016200Y012851D02*
X015986Y012851D01*
X015768Y012637D02*
X015768Y012317D01*
X015662Y012210D01*
X015341Y012210D01*
X015341Y012637D01*
X015124Y012637D02*
X014804Y012637D01*
X014697Y012530D01*
X014697Y012210D01*
X014479Y012210D02*
X014266Y012210D01*
X014373Y012210D02*
X014373Y012637D01*
X014479Y012637D01*
X014373Y012851D02*
X014373Y012957D01*
X014050Y012530D02*
X013943Y012637D01*
X013729Y012637D01*
X013623Y012530D01*
X013623Y012317D01*
X013729Y012210D01*
X013943Y012210D01*
X014050Y012317D01*
X014050Y012530D01*
X013405Y012424D02*
X013192Y012637D01*
X013085Y012637D01*
X013405Y012637D02*
X013405Y012210D01*
X012223Y012317D02*
X012117Y012210D01*
X011903Y012210D01*
X011796Y012317D01*
X011796Y012424D01*
X011903Y012530D01*
X012117Y012530D01*
X012223Y012637D01*
X012223Y012744D01*
X012117Y012851D01*
X011903Y012851D01*
X011796Y012744D01*
X011579Y012530D02*
X011579Y012317D01*
X011472Y012210D01*
X011152Y012210D01*
X010934Y012210D02*
X010934Y012851D01*
X010828Y012637D02*
X010614Y012637D01*
X010507Y012530D01*
X010507Y012210D01*
X010290Y012317D02*
X010183Y012210D01*
X009970Y012210D01*
X009863Y012317D01*
X009863Y012530D01*
X009970Y012637D01*
X010183Y012637D01*
X010290Y012530D01*
X010290Y012317D01*
X010828Y012637D02*
X010934Y012530D01*
X011152Y012637D02*
X011472Y012637D01*
X011579Y012530D01*
X009645Y012530D02*
X009645Y012317D01*
X009539Y012210D01*
X009325Y012210D01*
X009218Y012317D01*
X009218Y012530D01*
X009325Y012637D01*
X009539Y012637D01*
X009645Y012530D01*
X009001Y012210D02*
X008787Y012210D01*
X008894Y012210D02*
X008894Y012851D01*
X009001Y012851D01*
X015124Y012637D02*
X015124Y012210D01*
X020495Y012210D02*
X020495Y012851D01*
D12*
X029580Y009880D03*
X029580Y004780D03*
D13*
X024680Y002880D03*
X014080Y002880D03*
X019380Y011680D03*
D14*
X014180Y011180D03*
X010680Y011180D03*
X012680Y009180D03*
X012680Y007180D03*
X014180Y007180D03*
X010680Y007180D03*
X009180Y003180D03*
X007180Y003180D03*
D15*
X026074Y011180D03*
D16*
X025286Y011180D03*
D17*
X023460Y010180D02*
X022900Y010180D01*
X020460Y010180D02*
X019900Y010180D01*
X019900Y009180D02*
X020460Y009180D01*
X022900Y009180D02*
X023460Y009180D01*
X023460Y008180D02*
X022900Y008180D01*
X020460Y008180D02*
X019900Y008180D01*
X019900Y007180D02*
X020460Y007180D01*
X022900Y007180D02*
X023460Y007180D01*
X023460Y006180D02*
X022900Y006180D01*
X020460Y006180D02*
X019900Y006180D01*
X019900Y005180D02*
X020460Y005180D01*
X022900Y005180D02*
X023460Y005180D01*
X023460Y004180D02*
X022900Y004180D01*
X020460Y004180D02*
X019900Y004180D01*
D18*
X031180Y002180D03*
X032180Y002180D03*
X033180Y002180D03*
D19*
X038426Y004282D03*
X038426Y010282D03*
D20*
X025696Y004526D03*
X006196Y004526D03*
D21*
X007180Y004526D03*
X008164Y004526D03*
X026680Y004526D03*
X027664Y004526D03*
D22*
X028452Y007282D03*
X024908Y007282D03*
X008952Y007282D03*
X005408Y007282D03*
D23*
X015670Y007322D02*
X015670Y006782D01*
X016420Y006782D02*
X016420Y006242D01*
X017920Y006242D02*
X017920Y006782D01*
X017170Y006782D02*
X017170Y007322D01*
D24*
X026802Y003164D03*
X029558Y003164D03*
D25*
X029164Y002180D03*
X027196Y002180D03*
D26*
X035230Y005710D03*
X035230Y006611D03*
X032076Y006577D03*
X034535Y008218D03*
D27*
X034672Y005710D03*
D28*
X035232Y005714D03*
X032109Y006520D03*
X032109Y006524D03*
X033507Y008222D03*
X033507Y009115D03*
D29*
X034674Y005714D03*
D30*
X035230Y005718D03*
X036230Y006296D03*
X036230Y006299D03*
X036237Y006330D03*
X036237Y006334D03*
X036237Y006337D03*
X036237Y006341D03*
X036237Y006345D03*
X036241Y006360D03*
X036241Y006364D03*
X036271Y006512D03*
X036275Y006531D03*
X036279Y006550D03*
X036290Y006603D03*
X035945Y006512D03*
X035945Y006508D03*
X035945Y006505D03*
X035945Y006501D03*
X035945Y006497D03*
X035941Y006516D03*
X035941Y006520D03*
X035941Y006524D03*
X035941Y006527D03*
X035937Y006535D03*
X035937Y006539D03*
X035937Y006543D03*
X035937Y006546D03*
X035933Y006554D03*
X035933Y006558D03*
X035933Y006562D03*
X035933Y006565D03*
X035926Y006588D03*
X035926Y006592D03*
X035926Y006596D03*
X035926Y006600D03*
X035952Y006474D03*
X035952Y006470D03*
X035952Y006467D03*
X035952Y006463D03*
X035952Y006459D03*
X035956Y006455D03*
X035956Y006451D03*
X035956Y006448D03*
X035956Y006444D03*
X035964Y006421D03*
X035964Y006417D03*
X035964Y006413D03*
X035964Y006410D03*
X035964Y006406D03*
X035968Y006402D03*
X035968Y006398D03*
X035968Y006394D03*
X035968Y006391D03*
X035968Y006387D03*
X035975Y006360D03*
X035975Y006356D03*
X035975Y006353D03*
X035975Y006349D03*
X035979Y006334D03*
X035979Y006330D03*
X035230Y006603D03*
X035511Y007838D03*
X034421Y007838D03*
X035979Y008838D03*
X035979Y008842D03*
X035975Y008857D03*
X035975Y008861D03*
X035975Y008864D03*
X035975Y008868D03*
X035968Y008895D03*
X035968Y008899D03*
X035968Y008902D03*
X035968Y008906D03*
X035968Y008910D03*
X035964Y008914D03*
X035964Y008918D03*
X035964Y008921D03*
X035964Y008925D03*
X035964Y008929D03*
X035956Y008952D03*
X035956Y008956D03*
X035956Y008959D03*
X035956Y008963D03*
X035952Y008967D03*
X035952Y008971D03*
X035952Y008975D03*
X035952Y008978D03*
X035952Y008982D03*
X035945Y009005D03*
X035945Y009009D03*
X035945Y009013D03*
X035945Y009016D03*
X035945Y009020D03*
X035941Y009024D03*
X035941Y009028D03*
X035941Y009032D03*
X035941Y009035D03*
X035937Y009043D03*
X035937Y009047D03*
X035937Y009051D03*
X035937Y009054D03*
X035933Y009062D03*
X035933Y009066D03*
X035933Y009070D03*
X035933Y009073D03*
X035926Y009096D03*
X035926Y009100D03*
X035926Y009104D03*
X035926Y009108D03*
X036275Y009039D03*
X036271Y009020D03*
X036279Y009058D03*
X036290Y009111D03*
X036241Y008872D03*
X036241Y008868D03*
X036237Y008853D03*
X036237Y008849D03*
X036237Y008845D03*
X036237Y008842D03*
X036237Y008838D03*
X036230Y008807D03*
X036230Y008804D03*
X033505Y009111D03*
D31*
X032095Y006550D03*
X034672Y005718D03*
D32*
X034012Y005718D03*
X034666Y006607D03*
X034419Y007857D03*
X035339Y008226D03*
X035510Y007857D03*
D33*
X032065Y006588D03*
X032973Y005718D03*
D34*
X032969Y005741D03*
X034672Y006577D03*
X035230Y006600D03*
X035709Y006600D03*
X035709Y006603D03*
X035709Y006596D03*
X035709Y006592D03*
X035709Y006588D03*
X035709Y006584D03*
X035709Y006581D03*
X035709Y006577D03*
X035709Y006573D03*
X035709Y006569D03*
X035709Y006565D03*
X035709Y006562D03*
X035709Y006558D03*
X035709Y006554D03*
X035709Y006550D03*
X035709Y006546D03*
X035709Y006543D03*
X036507Y006543D03*
X036507Y006546D03*
X036507Y006550D03*
X036507Y006554D03*
X036507Y006558D03*
X036507Y006562D03*
X036507Y006565D03*
X036507Y006569D03*
X036507Y006573D03*
X036507Y006577D03*
X036507Y006581D03*
X036507Y006584D03*
X036507Y006588D03*
X036507Y006592D03*
X036507Y006596D03*
X036507Y006600D03*
X036507Y006603D03*
X036108Y005794D03*
X036108Y005790D03*
X036108Y005786D03*
X036108Y005783D03*
X036108Y005779D03*
X035230Y005722D03*
X036108Y008287D03*
X036108Y008291D03*
X036108Y008294D03*
X036108Y008298D03*
X036108Y008302D03*
X034713Y008427D03*
X034710Y008420D03*
X034353Y008405D03*
X034349Y008408D03*
X034341Y008500D03*
X034341Y008503D03*
X034710Y008864D03*
X034710Y008868D03*
X034698Y008944D03*
X035709Y009051D03*
X035709Y009054D03*
X035709Y009058D03*
X035709Y009062D03*
X035709Y009066D03*
X035709Y009070D03*
X035709Y009073D03*
X035709Y009077D03*
X035709Y009081D03*
X035709Y009085D03*
X035709Y009089D03*
X035709Y009092D03*
X035709Y009096D03*
X035709Y009100D03*
X035709Y009104D03*
X035709Y009108D03*
X035709Y009111D03*
X036507Y009111D03*
X036507Y009108D03*
X036507Y009104D03*
X036507Y009100D03*
X036507Y009096D03*
X036507Y009092D03*
X036507Y009089D03*
X036507Y009085D03*
X036507Y009081D03*
X036507Y009077D03*
X036507Y009073D03*
X036507Y009070D03*
X036507Y009066D03*
X036507Y009062D03*
X036507Y009058D03*
X036507Y009054D03*
X036507Y009051D03*
X033505Y009108D03*
X033319Y008845D03*
X033505Y008230D03*
D35*
X035230Y006607D03*
X034672Y005722D03*
X032107Y006527D03*
D36*
X034012Y005722D03*
X034419Y007854D03*
X035339Y008230D03*
X035510Y007854D03*
D37*
X032973Y005722D03*
D38*
X032967Y005748D03*
X033066Y005927D03*
X033040Y006079D03*
X033036Y006083D03*
X032652Y006003D03*
X032652Y005999D03*
X032652Y005995D03*
X032652Y005992D03*
X032652Y005988D03*
X032652Y005984D03*
X032652Y005980D03*
X032318Y006280D03*
X032318Y006284D03*
X032318Y006288D03*
X032652Y006330D03*
X032652Y006334D03*
X032656Y006410D03*
X032660Y006413D03*
X033032Y006417D03*
X033036Y006413D03*
X033686Y006866D03*
X034031Y006869D03*
X034031Y007234D03*
X034031Y007238D03*
X033663Y007249D03*
X033663Y007253D03*
X033663Y007618D03*
X033663Y007622D03*
X033663Y007626D03*
X034028Y007641D03*
X034358Y007652D03*
X034723Y007618D03*
X034723Y007614D03*
X035449Y007652D03*
X035814Y007618D03*
X035814Y007614D03*
X035331Y008264D03*
X035399Y008435D03*
X035035Y008469D03*
X035035Y008473D03*
X034689Y008389D03*
X034354Y008526D03*
X034696Y008834D03*
X034377Y008963D03*
X033667Y008933D03*
X033507Y009104D03*
X033347Y008937D03*
X033344Y008933D03*
X033344Y008401D03*
X033507Y008234D03*
X033667Y008401D03*
X034385Y006372D03*
X034385Y006368D03*
X034750Y006372D03*
X035069Y006425D03*
X035392Y006425D03*
X035392Y005897D03*
X035232Y005726D03*
X035069Y005897D03*
X034757Y005946D03*
X034757Y005950D03*
X034753Y005942D03*
X034753Y005938D03*
X034674Y005748D03*
X034385Y005946D03*
X034385Y005950D03*
X034073Y005927D03*
X034005Y005756D03*
X033708Y005961D03*
X033708Y005965D03*
D39*
X032971Y005729D03*
X034674Y005726D03*
X032116Y006501D03*
X032116Y006505D03*
D40*
X032099Y006543D03*
X034010Y005726D03*
X034421Y007850D03*
X035337Y008234D03*
X035511Y007850D03*
D41*
X034525Y009115D03*
X032105Y006531D03*
X032971Y005726D03*
D42*
X032967Y005756D03*
X032663Y005927D03*
X033013Y006106D03*
X032671Y006432D03*
X032306Y006322D03*
X033720Y005927D03*
X034005Y005767D03*
X034062Y005912D03*
X034396Y005919D03*
X034674Y005760D03*
X035232Y005729D03*
X034734Y006398D03*
X034396Y006394D03*
X033868Y006714D03*
X034016Y006858D03*
X034016Y007211D03*
X033674Y007219D03*
X033674Y007652D03*
X033952Y007808D03*
X034370Y007667D03*
X034427Y007812D03*
X034712Y007652D03*
X035460Y007667D03*
X035802Y007652D03*
X035331Y008275D03*
X035388Y008420D03*
X035046Y008435D03*
X034370Y008541D03*
X033507Y008237D03*
D43*
X036004Y008693D03*
X036004Y008697D03*
X036004Y008701D03*
X036004Y008705D03*
X036004Y008709D03*
X036000Y008720D03*
X036000Y008724D03*
X036011Y008667D03*
X036011Y008663D03*
X036011Y008659D03*
X036011Y008655D03*
X036205Y008655D03*
X036205Y008659D03*
X036205Y008663D03*
X036205Y008667D03*
X036213Y008697D03*
X036213Y008701D03*
X036213Y008705D03*
X036213Y008709D03*
X036216Y008724D03*
X036216Y006216D03*
X036213Y006201D03*
X036213Y006197D03*
X036213Y006193D03*
X036213Y006189D03*
X036205Y006159D03*
X036205Y006155D03*
X036205Y006151D03*
X036205Y006147D03*
X036011Y006147D03*
X036011Y006151D03*
X036011Y006155D03*
X036011Y006159D03*
X036004Y006185D03*
X036004Y006189D03*
X036004Y006193D03*
X036004Y006197D03*
X036004Y006201D03*
X036000Y006212D03*
X036000Y006216D03*
X034674Y005729D03*
D44*
X034010Y005729D03*
X034672Y006596D03*
X032110Y006516D03*
X033954Y007846D03*
X034421Y007846D03*
X035337Y008237D03*
D45*
X035401Y008439D03*
X035405Y008450D03*
X035720Y008310D03*
X035720Y008306D03*
X035720Y008302D03*
X035720Y008298D03*
X035720Y008294D03*
X035720Y008291D03*
X035720Y008287D03*
X035720Y008283D03*
X035720Y008279D03*
X035720Y008275D03*
X035720Y008272D03*
X035720Y008268D03*
X035720Y008264D03*
X035720Y008260D03*
X035720Y008256D03*
X035720Y008253D03*
X035720Y008249D03*
X035720Y008245D03*
X035720Y008241D03*
X036108Y008344D03*
X036108Y008348D03*
X036108Y008351D03*
X036108Y008355D03*
X036496Y008310D03*
X036496Y008306D03*
X036496Y008302D03*
X036496Y008298D03*
X036496Y008294D03*
X036496Y008291D03*
X036496Y008287D03*
X036496Y008283D03*
X036496Y008279D03*
X036496Y008275D03*
X036496Y008272D03*
X036496Y008268D03*
X036496Y008264D03*
X036496Y008260D03*
X036496Y008256D03*
X036496Y008253D03*
X036496Y008249D03*
X036496Y008245D03*
X036496Y008241D03*
X035033Y008477D03*
X035033Y008481D03*
X035033Y008484D03*
X034698Y008838D03*
X034683Y008959D03*
X034352Y008522D03*
X034368Y008389D03*
X034531Y008234D03*
X033668Y008405D03*
X033342Y008405D03*
X033338Y008408D03*
X033950Y007819D03*
X034029Y007637D03*
X034033Y007633D03*
X034033Y007629D03*
X034352Y007637D03*
X034356Y007645D03*
X034356Y007648D03*
X034425Y007823D03*
X034725Y007610D03*
X034725Y007607D03*
X034725Y007603D03*
X035443Y007637D03*
X035447Y007645D03*
X035447Y007648D03*
X035815Y007610D03*
X035815Y007607D03*
X035815Y007603D03*
X034037Y007261D03*
X034037Y007257D03*
X034037Y007253D03*
X034033Y007246D03*
X034033Y007242D03*
X033661Y007257D03*
X033661Y007261D03*
X033661Y007265D03*
X033661Y007268D03*
X033661Y007603D03*
X033661Y007607D03*
X033661Y007610D03*
X033661Y007614D03*
X033950Y007059D03*
X034033Y006873D03*
X033684Y006869D03*
X034672Y006569D03*
X034751Y006368D03*
X034751Y006364D03*
X034751Y006360D03*
X034755Y006353D03*
X034755Y006349D03*
X035067Y006421D03*
X035230Y006596D03*
X035394Y006421D03*
X034383Y006364D03*
X034383Y006360D03*
X034383Y005965D03*
X034383Y005961D03*
X034383Y005957D03*
X034383Y005954D03*
X034079Y005942D03*
X034075Y005931D03*
X033706Y005969D03*
X033706Y005973D03*
X033706Y005976D03*
X033068Y005935D03*
X033068Y005931D03*
X033045Y006071D03*
X033041Y006075D03*
X032650Y006075D03*
X032650Y006071D03*
X032650Y006068D03*
X032650Y006064D03*
X032650Y006060D03*
X032650Y006056D03*
X032650Y006052D03*
X032650Y006049D03*
X032650Y006045D03*
X032650Y006041D03*
X032650Y006037D03*
X032650Y006033D03*
X032650Y006030D03*
X032650Y006026D03*
X032650Y006022D03*
X032650Y006018D03*
X032650Y006014D03*
X032650Y006011D03*
X032650Y006007D03*
X032650Y006079D03*
X032650Y006083D03*
X032650Y006087D03*
X032650Y006090D03*
X032650Y006094D03*
X032650Y006098D03*
X032650Y006102D03*
X032650Y006106D03*
X032650Y006109D03*
X032650Y006113D03*
X032650Y006117D03*
X032650Y006121D03*
X032650Y006125D03*
X032650Y006128D03*
X032650Y006132D03*
X032650Y006136D03*
X032650Y006140D03*
X032319Y006265D03*
X032319Y006269D03*
X032319Y006273D03*
X032319Y006277D03*
X032650Y006337D03*
X032650Y006341D03*
X032650Y006345D03*
X032654Y006402D03*
X032654Y006406D03*
X033038Y006410D03*
X032620Y005733D03*
X034759Y005954D03*
X034759Y005957D03*
X034759Y005961D03*
X034759Y005965D03*
X034759Y005969D03*
X035394Y005900D03*
X035397Y005904D03*
X035720Y005802D03*
X035720Y005798D03*
X035720Y005794D03*
X035720Y005790D03*
X035720Y005786D03*
X035720Y005783D03*
X035720Y005779D03*
X035720Y005775D03*
X035720Y005771D03*
X035720Y005767D03*
X035720Y005764D03*
X035720Y005760D03*
X035720Y005756D03*
X035720Y005752D03*
X035720Y005748D03*
X035720Y005745D03*
X035720Y005741D03*
X035720Y005737D03*
X035720Y005733D03*
X036108Y005836D03*
X036108Y005840D03*
X036108Y005843D03*
X036108Y005847D03*
X036496Y005802D03*
X036496Y005798D03*
X036496Y005794D03*
X036496Y005790D03*
X036496Y005786D03*
X036496Y005783D03*
X036496Y005779D03*
X036496Y005775D03*
X036496Y005771D03*
X036496Y005767D03*
X036496Y005764D03*
X036496Y005760D03*
X036496Y005756D03*
X036496Y005752D03*
X036496Y005748D03*
X036496Y005745D03*
X036496Y005741D03*
X036496Y005737D03*
X036496Y005733D03*
D46*
X036108Y005733D03*
X036108Y005737D03*
X034672Y006584D03*
X033953Y007835D03*
X036108Y008241D03*
X036108Y008245D03*
D47*
X036108Y008454D03*
X036108Y008458D03*
X036108Y008462D03*
X036108Y008465D03*
X036108Y008469D03*
X035329Y008283D03*
X035055Y008424D03*
X034531Y008241D03*
X033505Y008241D03*
X033684Y007660D03*
X034702Y007664D03*
X035515Y007800D03*
X035793Y007664D03*
X035230Y006588D03*
X034672Y006546D03*
X033729Y005916D03*
X034003Y005775D03*
X034672Y005767D03*
X035230Y005733D03*
X036108Y005946D03*
X036108Y005950D03*
X036108Y005954D03*
X036108Y005957D03*
X036108Y005961D03*
X032673Y005908D03*
X032673Y006292D03*
X032297Y006334D03*
X034668Y008804D03*
X033505Y009096D03*
D48*
X035958Y008948D03*
X036243Y008891D03*
X036243Y008887D03*
X036243Y008883D03*
X036243Y008880D03*
X036243Y008876D03*
X036239Y008864D03*
X036239Y008861D03*
X036239Y008857D03*
X036247Y008895D03*
X036247Y008899D03*
X036247Y008902D03*
X036247Y008906D03*
X036247Y008910D03*
X036251Y008914D03*
X036251Y008918D03*
X036251Y008921D03*
X036251Y008925D03*
X036251Y008929D03*
X036254Y008933D03*
X036254Y008937D03*
X036254Y008940D03*
X036254Y008944D03*
X036258Y008948D03*
X036258Y008952D03*
X036258Y008956D03*
X036258Y008959D03*
X036258Y008963D03*
X036262Y008967D03*
X036262Y008971D03*
X036262Y008975D03*
X036262Y008978D03*
X036262Y008982D03*
X036266Y008986D03*
X036266Y008990D03*
X036266Y008994D03*
X036266Y008997D03*
X036266Y009001D03*
X036270Y009005D03*
X036270Y009009D03*
X036270Y009013D03*
X036270Y009016D03*
X036273Y009024D03*
X036273Y009028D03*
X036273Y009032D03*
X036273Y009035D03*
X036281Y009062D03*
X036281Y009066D03*
X036281Y009070D03*
X036281Y009073D03*
X036285Y009077D03*
X036285Y009081D03*
X036285Y009085D03*
X036285Y009089D03*
X036289Y009096D03*
X036289Y009100D03*
X036289Y009104D03*
X036289Y009108D03*
X036289Y006600D03*
X036289Y006596D03*
X036289Y006592D03*
X036289Y006588D03*
X036285Y006581D03*
X036285Y006577D03*
X036285Y006573D03*
X036285Y006569D03*
X036281Y006565D03*
X036281Y006562D03*
X036281Y006558D03*
X036281Y006554D03*
X036273Y006527D03*
X036273Y006524D03*
X036273Y006520D03*
X036273Y006516D03*
X036270Y006508D03*
X036270Y006505D03*
X036270Y006501D03*
X036270Y006497D03*
X036266Y006493D03*
X036266Y006489D03*
X036266Y006486D03*
X036266Y006482D03*
X036266Y006478D03*
X036262Y006474D03*
X036262Y006470D03*
X036262Y006467D03*
X036262Y006463D03*
X036262Y006459D03*
X036258Y006455D03*
X036258Y006451D03*
X036258Y006448D03*
X036258Y006444D03*
X036258Y006440D03*
X036254Y006436D03*
X036254Y006432D03*
X036254Y006429D03*
X036254Y006425D03*
X036251Y006421D03*
X036251Y006417D03*
X036251Y006413D03*
X036251Y006410D03*
X036251Y006406D03*
X036247Y006402D03*
X036247Y006398D03*
X036247Y006394D03*
X036247Y006391D03*
X036247Y006387D03*
X036243Y006383D03*
X036243Y006379D03*
X036243Y006375D03*
X036243Y006372D03*
X036243Y006368D03*
X036239Y006356D03*
X036239Y006353D03*
X036239Y006349D03*
X035958Y006440D03*
X034674Y005733D03*
D49*
X034368Y005733D03*
X034368Y005737D03*
X034368Y005741D03*
X034368Y005745D03*
X034368Y005748D03*
X034368Y005752D03*
X034368Y005756D03*
X034368Y005760D03*
X034368Y005764D03*
X034368Y005767D03*
X034368Y005771D03*
X034368Y005775D03*
X034368Y005779D03*
X034368Y005783D03*
X034368Y005786D03*
X034368Y005790D03*
X034368Y005794D03*
X034368Y005798D03*
X034368Y005802D03*
X034368Y005805D03*
X034368Y005809D03*
X034368Y005813D03*
X034368Y005817D03*
X034368Y005821D03*
X034368Y005824D03*
X034672Y006581D03*
X032844Y006603D03*
X032335Y006588D03*
X032335Y006584D03*
X032335Y006581D03*
X032335Y006577D03*
X032335Y006573D03*
X032335Y006569D03*
X032335Y006565D03*
X032335Y006562D03*
X032335Y006558D03*
X032335Y006554D03*
X032335Y006550D03*
X032335Y006546D03*
X032335Y006543D03*
X032335Y006539D03*
X032335Y006535D03*
X032335Y006531D03*
X032335Y006527D03*
X032335Y006524D03*
X032335Y006520D03*
X032335Y006516D03*
X032335Y006512D03*
X032335Y006508D03*
X032335Y006505D03*
X032335Y006501D03*
X032335Y006497D03*
X032335Y006493D03*
X032335Y006489D03*
X032335Y006486D03*
X032335Y006482D03*
X032335Y006478D03*
X032335Y006474D03*
X034341Y008427D03*
X034337Y008481D03*
X034337Y008484D03*
X034337Y008488D03*
X034717Y008450D03*
X034717Y008446D03*
X034717Y008443D03*
X034721Y008454D03*
X034721Y008458D03*
X034721Y008462D03*
X034721Y008465D03*
X034714Y008883D03*
X034714Y008887D03*
X034714Y008891D03*
X034714Y008895D03*
X034714Y008899D03*
X034710Y008914D03*
X034710Y008918D03*
X034710Y008921D03*
X034706Y008925D03*
X034706Y008929D03*
X034527Y009108D03*
X034353Y008937D03*
D50*
X035335Y008241D03*
X033952Y007842D03*
X033952Y007037D03*
X032120Y006493D03*
X034009Y005733D03*
D51*
X033693Y005733D03*
X033693Y005737D03*
X033693Y005741D03*
X033693Y005745D03*
X033693Y005748D03*
X033693Y005752D03*
X033693Y005756D03*
X033693Y005760D03*
X033693Y005764D03*
X033693Y005767D03*
X033693Y005771D03*
X033693Y005775D03*
X033693Y005779D03*
X033693Y005783D03*
X033693Y005786D03*
X033693Y005790D03*
X033693Y005794D03*
X033693Y005798D03*
X033693Y005802D03*
X033693Y005805D03*
X033693Y005809D03*
X033693Y005813D03*
X033693Y005817D03*
X033693Y005821D03*
X033693Y005824D03*
X033693Y005828D03*
X033693Y005832D03*
X034423Y007831D03*
X034738Y007831D03*
X034738Y007835D03*
X034738Y007838D03*
X034738Y007842D03*
X034738Y007827D03*
X034738Y007823D03*
X034738Y007819D03*
X034738Y007816D03*
X034738Y007812D03*
X034738Y007808D03*
X034738Y007804D03*
X034738Y007800D03*
X034738Y007797D03*
X034738Y007793D03*
X034738Y007789D03*
X034738Y007785D03*
X034738Y007781D03*
X034738Y007778D03*
X034738Y007774D03*
X034738Y007770D03*
X034738Y007766D03*
X034738Y007762D03*
X034738Y007759D03*
X034738Y007755D03*
X034738Y007751D03*
X034738Y007747D03*
X035513Y007831D03*
X035335Y008253D03*
X035019Y008253D03*
X035019Y008256D03*
X035019Y008260D03*
X035019Y008264D03*
X035019Y008268D03*
X035019Y008272D03*
X035019Y008275D03*
X035019Y008279D03*
X035019Y008283D03*
X035019Y008287D03*
X035019Y008291D03*
X035019Y008294D03*
X035019Y008298D03*
X035019Y008302D03*
X035019Y008306D03*
X035019Y008310D03*
X035019Y008313D03*
X035019Y008317D03*
X035019Y008321D03*
X035019Y008325D03*
X035019Y008329D03*
X035019Y008332D03*
X035019Y008336D03*
X035019Y008340D03*
X035019Y008249D03*
X035019Y008245D03*
X035019Y008241D03*
X034712Y008424D03*
X034533Y008230D03*
X034347Y008412D03*
X034339Y008492D03*
X034339Y008496D03*
X034712Y008872D03*
X034712Y008876D03*
X034712Y008880D03*
X034700Y008940D03*
X034358Y008948D03*
X034354Y008940D03*
D52*
X034370Y008959D03*
X034693Y008952D03*
X034704Y008849D03*
X035027Y008849D03*
X035027Y008845D03*
X035027Y008842D03*
X035027Y008838D03*
X035027Y008834D03*
X035027Y008830D03*
X035027Y008826D03*
X035027Y008823D03*
X035027Y008819D03*
X035027Y008815D03*
X035027Y008811D03*
X035027Y008807D03*
X035027Y008804D03*
X035027Y008800D03*
X035027Y008796D03*
X035027Y008792D03*
X035027Y008788D03*
X035027Y008785D03*
X035027Y008781D03*
X035027Y008777D03*
X035027Y008773D03*
X035027Y008769D03*
X035027Y008766D03*
X035027Y008762D03*
X035027Y008758D03*
X035027Y008754D03*
X035027Y008750D03*
X035027Y008747D03*
X035027Y008743D03*
X035027Y008739D03*
X035027Y008735D03*
X035027Y008731D03*
X035027Y008728D03*
X035027Y008724D03*
X035027Y008720D03*
X035027Y008716D03*
X035027Y008712D03*
X035027Y008709D03*
X035027Y008705D03*
X035027Y008701D03*
X035027Y008697D03*
X035027Y008693D03*
X035027Y008690D03*
X035027Y008686D03*
X035027Y008682D03*
X035027Y008678D03*
X035027Y008674D03*
X035027Y008671D03*
X035027Y008667D03*
X035027Y008663D03*
X035027Y008659D03*
X035027Y008655D03*
X035027Y008652D03*
X035027Y008648D03*
X035027Y008644D03*
X035027Y008640D03*
X035027Y008636D03*
X035027Y008633D03*
X035027Y008629D03*
X035027Y008625D03*
X035027Y008621D03*
X035027Y008617D03*
X035027Y008614D03*
X035027Y008610D03*
X035027Y008606D03*
X035027Y008602D03*
X035027Y008598D03*
X035027Y008595D03*
X035027Y008591D03*
X035027Y008587D03*
X035027Y008583D03*
X035027Y008579D03*
X035027Y008576D03*
X035027Y008572D03*
X035027Y008568D03*
X035027Y008564D03*
X035027Y008560D03*
X035027Y008557D03*
X035027Y008553D03*
X035027Y008549D03*
X035027Y008545D03*
X035027Y008541D03*
X035027Y008538D03*
X035027Y008534D03*
X035027Y008530D03*
X034700Y008401D03*
X034362Y008393D03*
X034358Y008397D03*
X034347Y008515D03*
X034039Y008515D03*
X034039Y008519D03*
X034039Y008522D03*
X034039Y008526D03*
X034039Y008530D03*
X034039Y008534D03*
X034039Y008538D03*
X034039Y008541D03*
X034039Y008545D03*
X034039Y008549D03*
X034039Y008553D03*
X034039Y008557D03*
X034039Y008560D03*
X034039Y008564D03*
X034039Y008568D03*
X034039Y008572D03*
X034039Y008576D03*
X034039Y008579D03*
X034039Y008583D03*
X034039Y008587D03*
X034039Y008591D03*
X034039Y008595D03*
X034039Y008598D03*
X034039Y008602D03*
X034039Y008606D03*
X034039Y008610D03*
X034039Y008614D03*
X034039Y008617D03*
X034039Y008621D03*
X034039Y008625D03*
X034039Y008629D03*
X034039Y008633D03*
X034039Y008636D03*
X034039Y008640D03*
X034039Y008644D03*
X034039Y008648D03*
X034039Y008652D03*
X034039Y008655D03*
X034039Y008659D03*
X034039Y008663D03*
X034039Y008667D03*
X034039Y008671D03*
X034039Y008674D03*
X034039Y008678D03*
X034039Y008682D03*
X034039Y008686D03*
X034039Y008690D03*
X034039Y008693D03*
X034039Y008697D03*
X034039Y008701D03*
X034039Y008705D03*
X034039Y008709D03*
X034039Y008712D03*
X034039Y008716D03*
X034039Y008720D03*
X034039Y008724D03*
X034039Y008728D03*
X034039Y008731D03*
X034039Y008735D03*
X034039Y008739D03*
X034039Y008743D03*
X034039Y008747D03*
X034039Y008750D03*
X034039Y008754D03*
X034039Y008758D03*
X034039Y008762D03*
X034039Y008766D03*
X034039Y008769D03*
X034039Y008773D03*
X034039Y008777D03*
X034039Y008781D03*
X034039Y008785D03*
X034039Y008788D03*
X034039Y008792D03*
X034039Y008796D03*
X034039Y008800D03*
X034039Y008804D03*
X034039Y008807D03*
X034039Y008811D03*
X034039Y008815D03*
X034039Y008819D03*
X034039Y008823D03*
X034039Y008826D03*
X034039Y008830D03*
X034039Y008834D03*
X034039Y008838D03*
X034039Y008842D03*
X034039Y008845D03*
X034039Y008849D03*
X034039Y008853D03*
X034039Y008857D03*
X034039Y008861D03*
X034039Y008864D03*
X034039Y008868D03*
X034039Y008872D03*
X034039Y008876D03*
X034039Y008880D03*
X034039Y008883D03*
X034039Y008887D03*
X034039Y008891D03*
X034039Y008895D03*
X034039Y008899D03*
X034039Y008902D03*
X034039Y008906D03*
X034039Y008910D03*
X034039Y008914D03*
X034039Y008918D03*
X034039Y008921D03*
X034039Y008925D03*
X034039Y008929D03*
X034039Y008933D03*
X034039Y008937D03*
X034039Y008940D03*
X034039Y008944D03*
X034039Y008948D03*
X034039Y008952D03*
X034039Y008956D03*
X034039Y008959D03*
X034039Y008963D03*
X034039Y008967D03*
X034039Y008971D03*
X034039Y008975D03*
X034039Y008978D03*
X034039Y008982D03*
X034039Y008986D03*
X034039Y008990D03*
X034039Y008994D03*
X034039Y008997D03*
X034039Y009001D03*
X034039Y009005D03*
X034039Y009009D03*
X034039Y009013D03*
X034039Y009016D03*
X034039Y009020D03*
X034039Y009024D03*
X034039Y009028D03*
X034039Y009032D03*
X034039Y009035D03*
X034039Y009039D03*
X034039Y009043D03*
X034039Y009047D03*
X034039Y009051D03*
X034039Y009054D03*
X034039Y009058D03*
X034039Y009062D03*
X034039Y009066D03*
X034039Y009070D03*
X034039Y009073D03*
X034039Y009077D03*
X034039Y009081D03*
X034039Y009085D03*
X034039Y009089D03*
X034039Y009092D03*
X034039Y009096D03*
X034039Y009184D03*
X034039Y009187D03*
X034039Y009191D03*
X034039Y009195D03*
X034039Y009199D03*
X034039Y009203D03*
X034039Y009206D03*
X034039Y009210D03*
X034039Y009214D03*
X034039Y009218D03*
X034039Y009222D03*
X034039Y009225D03*
X034039Y009229D03*
X034039Y009233D03*
X034039Y009237D03*
X034039Y009241D03*
X034039Y009244D03*
X034039Y009248D03*
X034039Y009252D03*
X034039Y009256D03*
X034039Y009260D03*
X034039Y009263D03*
X034039Y009267D03*
X034039Y009271D03*
X034039Y009275D03*
X034039Y009279D03*
X034039Y009282D03*
X034039Y009286D03*
X034039Y009290D03*
X034039Y009294D03*
X034039Y009298D03*
X034039Y009301D03*
X034039Y009305D03*
X034039Y009309D03*
X034039Y009313D03*
X034039Y009317D03*
X034039Y009320D03*
X034039Y009324D03*
X034039Y009328D03*
X034039Y009332D03*
X034039Y009336D03*
X034039Y009339D03*
X034039Y009343D03*
X034039Y009347D03*
X034039Y009351D03*
X034039Y009355D03*
X034039Y009358D03*
X034039Y009362D03*
X034039Y009366D03*
X034039Y009370D03*
X034039Y009374D03*
X034039Y009377D03*
X034039Y009381D03*
X034039Y009385D03*
X034039Y009389D03*
X033678Y008914D03*
X033682Y008906D03*
X033682Y008902D03*
X033686Y008895D03*
X033686Y008891D03*
X033689Y008876D03*
X033689Y008872D03*
X033693Y008857D03*
X033693Y008853D03*
X033693Y008849D03*
X033693Y008845D03*
X033693Y008842D03*
X033697Y008830D03*
X033697Y008826D03*
X033697Y008823D03*
X033697Y008819D03*
X033697Y008815D03*
X033697Y008811D03*
X033697Y008807D03*
X033697Y008804D03*
X033697Y008800D03*
X033701Y008777D03*
X033701Y008773D03*
X033701Y008769D03*
X033701Y008766D03*
X033701Y008762D03*
X033701Y008758D03*
X033701Y008754D03*
X033701Y008750D03*
X033701Y008587D03*
X033701Y008583D03*
X033701Y008579D03*
X033701Y008576D03*
X033701Y008572D03*
X033701Y008568D03*
X033701Y008564D03*
X033697Y008538D03*
X033697Y008534D03*
X033697Y008530D03*
X033697Y008526D03*
X033697Y008522D03*
X033697Y008519D03*
X033697Y008515D03*
X033697Y008511D03*
X033697Y008507D03*
X033693Y008500D03*
X033693Y008496D03*
X033693Y008492D03*
X033693Y008488D03*
X033693Y008484D03*
X033693Y008481D03*
X033689Y008465D03*
X033689Y008462D03*
X033686Y008446D03*
X033686Y008443D03*
X033682Y008435D03*
X033682Y008431D03*
X033678Y008424D03*
X033328Y008427D03*
X033328Y008431D03*
X033328Y008435D03*
X033325Y008439D03*
X033325Y008443D03*
X033325Y008446D03*
X033321Y008462D03*
X034039Y008462D03*
X034039Y008465D03*
X034039Y008469D03*
X034039Y008473D03*
X034039Y008477D03*
X034039Y008481D03*
X034039Y008484D03*
X034039Y008488D03*
X034039Y008492D03*
X034039Y008496D03*
X034039Y008500D03*
X034039Y008503D03*
X034039Y008507D03*
X034039Y008511D03*
X034039Y008458D03*
X034039Y008454D03*
X034039Y008450D03*
X034039Y008446D03*
X034039Y008443D03*
X034039Y008439D03*
X034039Y008435D03*
X034039Y008431D03*
X034039Y008427D03*
X034039Y008424D03*
X034039Y008420D03*
X034039Y008416D03*
X034039Y008412D03*
X034039Y008408D03*
X034039Y008405D03*
X034039Y008401D03*
X034039Y008397D03*
X034039Y008393D03*
X034039Y008389D03*
X034039Y008386D03*
X034039Y008382D03*
X034039Y008378D03*
X034039Y008374D03*
X034039Y008370D03*
X034039Y008367D03*
X034039Y008363D03*
X034039Y008359D03*
X034039Y008355D03*
X034039Y008351D03*
X034039Y008348D03*
X034039Y008344D03*
X034039Y008340D03*
X034039Y008336D03*
X034039Y008332D03*
X034039Y008329D03*
X034039Y008325D03*
X034039Y008321D03*
X034039Y008317D03*
X034039Y008313D03*
X034039Y008310D03*
X034039Y008306D03*
X034039Y008302D03*
X034039Y008298D03*
X034039Y008294D03*
X034039Y008291D03*
X034039Y008287D03*
X034039Y008283D03*
X034039Y008279D03*
X034039Y008275D03*
X034039Y008272D03*
X034039Y008268D03*
X034039Y008264D03*
X034039Y008260D03*
X034039Y008256D03*
X034039Y008253D03*
X034039Y008249D03*
X034039Y008245D03*
X034039Y008241D03*
X033952Y007823D03*
X034039Y007607D03*
X034039Y007603D03*
X034039Y007599D03*
X034039Y007595D03*
X034043Y007588D03*
X034043Y007584D03*
X034043Y007580D03*
X034043Y007576D03*
X034043Y007572D03*
X034043Y007569D03*
X034047Y007515D03*
X034047Y007512D03*
X034047Y007508D03*
X034047Y007504D03*
X034047Y007500D03*
X034047Y007496D03*
X034047Y007493D03*
X034047Y007489D03*
X034047Y007485D03*
X034047Y007481D03*
X034047Y007477D03*
X034047Y007474D03*
X034047Y007470D03*
X034047Y007466D03*
X034047Y007462D03*
X034047Y007458D03*
X034047Y007455D03*
X034047Y007451D03*
X034047Y007447D03*
X034047Y007443D03*
X034047Y007439D03*
X034047Y007436D03*
X034047Y007432D03*
X034047Y007428D03*
X034047Y007424D03*
X034047Y007420D03*
X034047Y007417D03*
X034047Y007413D03*
X034047Y007409D03*
X034047Y007405D03*
X034047Y007401D03*
X034047Y007398D03*
X034047Y007394D03*
X034047Y007390D03*
X034047Y007386D03*
X034047Y007382D03*
X034047Y007379D03*
X034047Y007375D03*
X034047Y007371D03*
X034047Y007367D03*
X034047Y007363D03*
X034347Y007363D03*
X034347Y007360D03*
X034347Y007356D03*
X034347Y007352D03*
X034347Y007348D03*
X034347Y007344D03*
X034347Y007341D03*
X034347Y007337D03*
X034347Y007333D03*
X034347Y007329D03*
X034347Y007325D03*
X034347Y007322D03*
X034347Y007318D03*
X034347Y007314D03*
X034347Y007310D03*
X034347Y007306D03*
X034347Y007303D03*
X034347Y007299D03*
X034347Y007295D03*
X034347Y007291D03*
X034347Y007287D03*
X034347Y007284D03*
X034347Y007280D03*
X034347Y007276D03*
X034347Y007272D03*
X034347Y007268D03*
X034347Y007265D03*
X034347Y007261D03*
X034347Y007257D03*
X034347Y007253D03*
X034347Y007249D03*
X034347Y007246D03*
X034347Y007242D03*
X034347Y007238D03*
X034347Y007234D03*
X034347Y007230D03*
X034347Y007227D03*
X034347Y007223D03*
X034347Y007219D03*
X034347Y007215D03*
X034347Y007211D03*
X034347Y007208D03*
X034347Y007204D03*
X034347Y007200D03*
X034347Y007196D03*
X034347Y007192D03*
X034347Y007189D03*
X034347Y007185D03*
X034347Y007181D03*
X034347Y007177D03*
X034347Y007173D03*
X034347Y007170D03*
X034347Y007166D03*
X034347Y007162D03*
X034347Y007158D03*
X034347Y007154D03*
X034347Y007151D03*
X034347Y007147D03*
X034347Y007143D03*
X034347Y007139D03*
X034347Y007135D03*
X034347Y007132D03*
X034347Y007128D03*
X034347Y007124D03*
X034347Y007120D03*
X034347Y007116D03*
X034347Y007113D03*
X034347Y007109D03*
X034347Y007105D03*
X034347Y007101D03*
X034347Y007097D03*
X034347Y007094D03*
X034347Y007090D03*
X034347Y007086D03*
X034347Y007082D03*
X034347Y007078D03*
X034347Y007075D03*
X034347Y007071D03*
X034347Y007067D03*
X034347Y007063D03*
X034347Y007059D03*
X034347Y007056D03*
X034347Y007052D03*
X034347Y007048D03*
X034347Y007044D03*
X034347Y007040D03*
X034347Y007037D03*
X034347Y007033D03*
X034347Y007029D03*
X034347Y007025D03*
X034347Y007021D03*
X034347Y007018D03*
X034347Y007014D03*
X034347Y007010D03*
X034347Y007006D03*
X034347Y007002D03*
X034347Y006999D03*
X034347Y006995D03*
X034347Y006991D03*
X034347Y006987D03*
X034377Y006873D03*
X034377Y006869D03*
X034377Y006866D03*
X034377Y006862D03*
X034377Y006858D03*
X034377Y006854D03*
X034377Y006850D03*
X034377Y006847D03*
X034377Y006843D03*
X034377Y006839D03*
X034377Y006835D03*
X034377Y006831D03*
X034377Y006828D03*
X034377Y006824D03*
X034377Y006820D03*
X034377Y006816D03*
X034377Y006812D03*
X034377Y006809D03*
X034377Y006805D03*
X034377Y006801D03*
X034377Y006797D03*
X034377Y006793D03*
X034377Y006790D03*
X034377Y006786D03*
X034377Y006782D03*
X034377Y006778D03*
X034377Y006774D03*
X034377Y006771D03*
X034377Y006767D03*
X034377Y006763D03*
X034377Y006759D03*
X034377Y006755D03*
X034377Y006752D03*
X034377Y006748D03*
X034377Y006744D03*
X034377Y006740D03*
X034377Y006736D03*
X034377Y006733D03*
X034377Y006729D03*
X034377Y006725D03*
X034377Y006721D03*
X034377Y006717D03*
X034377Y006714D03*
X034377Y006710D03*
X034377Y006706D03*
X034377Y006702D03*
X034377Y006698D03*
X034377Y006695D03*
X034377Y006691D03*
X034377Y006687D03*
X034377Y006683D03*
X034377Y006679D03*
X034377Y006676D03*
X034377Y006672D03*
X034377Y006668D03*
X034377Y006664D03*
X034377Y006660D03*
X034377Y006657D03*
X034377Y006653D03*
X034377Y006649D03*
X034377Y006645D03*
X034377Y006641D03*
X034377Y006638D03*
X034377Y006634D03*
X034377Y006630D03*
X034377Y006626D03*
X034377Y006622D03*
X034377Y006619D03*
X034377Y006615D03*
X034377Y006611D03*
X034377Y006607D03*
X034377Y006603D03*
X034377Y006600D03*
X034377Y006596D03*
X034377Y006592D03*
X034377Y006588D03*
X034377Y006584D03*
X034377Y006581D03*
X034377Y006577D03*
X034377Y006573D03*
X034377Y006569D03*
X034377Y006565D03*
X034377Y006562D03*
X034377Y006558D03*
X034377Y006554D03*
X034377Y006550D03*
X034377Y006546D03*
X034377Y006543D03*
X034377Y006539D03*
X034377Y006535D03*
X034377Y006531D03*
X034377Y006527D03*
X034377Y006524D03*
X034377Y006520D03*
X034377Y006516D03*
X034377Y006322D03*
X034377Y006318D03*
X034377Y006315D03*
X034377Y006311D03*
X034377Y006307D03*
X034377Y006303D03*
X034377Y006299D03*
X034085Y006299D03*
X034085Y006296D03*
X034085Y006292D03*
X034085Y006288D03*
X034085Y006284D03*
X034085Y006280D03*
X034085Y006277D03*
X034085Y006273D03*
X034085Y006269D03*
X034085Y006265D03*
X034085Y006261D03*
X034085Y006258D03*
X034085Y006254D03*
X034085Y006250D03*
X034085Y006246D03*
X034085Y006242D03*
X034085Y006239D03*
X034085Y006235D03*
X034085Y006231D03*
X034085Y006227D03*
X034085Y006223D03*
X034085Y006220D03*
X034085Y006216D03*
X034085Y006212D03*
X034085Y006208D03*
X034085Y006204D03*
X034085Y006201D03*
X034085Y006197D03*
X034085Y006193D03*
X034085Y006189D03*
X034085Y006185D03*
X034085Y006182D03*
X034085Y006178D03*
X034085Y006174D03*
X034085Y006170D03*
X034085Y006166D03*
X034085Y006163D03*
X034085Y006159D03*
X034085Y006155D03*
X034085Y006151D03*
X034085Y006147D03*
X034085Y006144D03*
X034085Y006140D03*
X034085Y006136D03*
X034085Y006132D03*
X034085Y006128D03*
X034085Y006125D03*
X034085Y006121D03*
X034085Y006117D03*
X034085Y006113D03*
X034085Y006109D03*
X034085Y006106D03*
X034085Y006102D03*
X034085Y006098D03*
X034085Y006094D03*
X034085Y006090D03*
X034085Y006087D03*
X034085Y006083D03*
X034085Y006079D03*
X034085Y006075D03*
X034085Y006071D03*
X034085Y006068D03*
X034085Y006064D03*
X034085Y006060D03*
X034085Y006056D03*
X034085Y006052D03*
X034085Y006049D03*
X034085Y006045D03*
X034085Y006041D03*
X034085Y006037D03*
X034085Y006033D03*
X034085Y006030D03*
X034085Y006026D03*
X034085Y006022D03*
X034085Y006018D03*
X034085Y006014D03*
X034085Y006011D03*
X034085Y006007D03*
X034085Y006003D03*
X034085Y005999D03*
X034085Y005995D03*
X034377Y006014D03*
X034377Y006018D03*
X034377Y006022D03*
X034377Y006026D03*
X034377Y006030D03*
X034377Y006033D03*
X034377Y006037D03*
X034377Y006041D03*
X034377Y006045D03*
X034377Y006049D03*
X034377Y006052D03*
X034377Y006056D03*
X034377Y006060D03*
X034377Y006064D03*
X034765Y006246D03*
X035035Y006246D03*
X035035Y006242D03*
X035035Y006239D03*
X035035Y006250D03*
X035035Y006254D03*
X035035Y006258D03*
X035035Y006261D03*
X035035Y006265D03*
X035035Y006269D03*
X035038Y006292D03*
X035038Y006296D03*
X035038Y006299D03*
X035038Y006303D03*
X035038Y006307D03*
X035038Y006311D03*
X035038Y006315D03*
X035038Y006318D03*
X035038Y006322D03*
X035042Y006334D03*
X035042Y006337D03*
X035042Y006341D03*
X035042Y006345D03*
X035042Y006349D03*
X035046Y006364D03*
X035046Y006368D03*
X035050Y006383D03*
X035050Y006387D03*
X035054Y006394D03*
X035054Y006398D03*
X035057Y006406D03*
X035403Y006406D03*
X035407Y006398D03*
X035407Y006394D03*
X035411Y006383D03*
X035411Y006379D03*
X035415Y006368D03*
X035415Y006364D03*
X035415Y006360D03*
X035418Y006345D03*
X035418Y006341D03*
X035418Y006337D03*
X035418Y006334D03*
X035418Y006330D03*
X035422Y006322D03*
X035422Y006318D03*
X035422Y006315D03*
X035422Y006311D03*
X035422Y006307D03*
X035422Y006303D03*
X035422Y006299D03*
X035422Y006296D03*
X035422Y006292D03*
X035426Y006265D03*
X035426Y006261D03*
X035426Y006258D03*
X035426Y006254D03*
X035426Y006250D03*
X035426Y006246D03*
X035426Y006242D03*
X035426Y006239D03*
X035426Y006079D03*
X035426Y006075D03*
X035426Y006071D03*
X035426Y006068D03*
X035426Y006064D03*
X035426Y006060D03*
X035426Y006056D03*
X035426Y006052D03*
X035422Y006030D03*
X035422Y006026D03*
X035422Y006022D03*
X035422Y006018D03*
X035422Y006014D03*
X035422Y006011D03*
X035422Y006007D03*
X035422Y006003D03*
X035422Y005999D03*
X035418Y005992D03*
X035418Y005988D03*
X035418Y005984D03*
X035418Y005980D03*
X035418Y005976D03*
X035418Y005973D03*
X035415Y005957D03*
X035415Y005954D03*
X035411Y005938D03*
X035411Y005935D03*
X035407Y005927D03*
X035407Y005923D03*
X035403Y005916D03*
X035057Y005916D03*
X035054Y005923D03*
X035054Y005927D03*
X035050Y005935D03*
X035050Y005938D03*
X035046Y005954D03*
X035046Y005957D03*
X035042Y005973D03*
X035042Y005976D03*
X035042Y005980D03*
X035042Y005984D03*
X035042Y005988D03*
X035038Y005999D03*
X035038Y006003D03*
X035038Y006007D03*
X035038Y006011D03*
X035038Y006014D03*
X035038Y006018D03*
X035038Y006022D03*
X035038Y006026D03*
X035038Y006030D03*
X035035Y006052D03*
X035035Y006056D03*
X035035Y006060D03*
X035035Y006064D03*
X035035Y006068D03*
X035035Y006071D03*
X035035Y006075D03*
X035035Y006079D03*
X035035Y006083D03*
X035715Y006102D03*
X035715Y006106D03*
X035715Y006109D03*
X035715Y006113D03*
X035715Y006117D03*
X035715Y006121D03*
X035715Y006125D03*
X035715Y006128D03*
X035715Y006132D03*
X035715Y006136D03*
X035715Y006140D03*
X035715Y006144D03*
X035715Y006147D03*
X035715Y006151D03*
X035715Y006155D03*
X035715Y006159D03*
X035715Y006163D03*
X035715Y006166D03*
X035715Y006170D03*
X035715Y006174D03*
X035715Y006178D03*
X035715Y006182D03*
X035715Y006185D03*
X035715Y006189D03*
X035715Y006193D03*
X035715Y006197D03*
X035715Y006201D03*
X035715Y006204D03*
X035715Y006208D03*
X035715Y006212D03*
X035715Y006216D03*
X035715Y006220D03*
X035715Y006223D03*
X035715Y006227D03*
X035715Y006231D03*
X035715Y006235D03*
X035715Y006239D03*
X035715Y006242D03*
X036501Y006242D03*
X036501Y006239D03*
X036501Y006235D03*
X036501Y006231D03*
X036501Y006227D03*
X036501Y006223D03*
X036501Y006220D03*
X036501Y006216D03*
X036501Y006212D03*
X036501Y006208D03*
X036501Y006204D03*
X036501Y006201D03*
X036501Y006197D03*
X036501Y006193D03*
X036501Y006189D03*
X036501Y006185D03*
X036501Y006182D03*
X036501Y006178D03*
X036501Y006174D03*
X036501Y006170D03*
X036501Y006166D03*
X036501Y006163D03*
X036501Y006159D03*
X036501Y006155D03*
X036501Y006151D03*
X036501Y006147D03*
X036501Y006144D03*
X036501Y006140D03*
X036501Y006136D03*
X036501Y006132D03*
X036501Y006128D03*
X036501Y006125D03*
X036501Y006121D03*
X036501Y006117D03*
X036501Y006113D03*
X036501Y006109D03*
X036501Y006106D03*
X036501Y006102D03*
X034674Y005745D03*
X033701Y006022D03*
X033701Y006026D03*
X033701Y006030D03*
X033701Y006033D03*
X033701Y006037D03*
X033701Y006041D03*
X033701Y006045D03*
X033701Y006049D03*
X033701Y006052D03*
X033701Y006056D03*
X033701Y006060D03*
X033701Y006064D03*
X033701Y006068D03*
X033701Y006071D03*
X033701Y006075D03*
X033701Y006079D03*
X033701Y006083D03*
X033701Y006087D03*
X033701Y006090D03*
X033701Y006094D03*
X033701Y006098D03*
X033701Y006102D03*
X033701Y006106D03*
X033701Y006109D03*
X033701Y006113D03*
X033701Y006117D03*
X033701Y006121D03*
X033701Y006125D03*
X033701Y006128D03*
X033701Y006132D03*
X033701Y006136D03*
X033701Y006140D03*
X033701Y006144D03*
X033701Y006147D03*
X033701Y006151D03*
X033701Y006155D03*
X033701Y006159D03*
X033701Y006163D03*
X033701Y006166D03*
X033701Y006170D03*
X033701Y006174D03*
X033701Y006178D03*
X033701Y006182D03*
X033701Y006185D03*
X033701Y006189D03*
X033701Y006193D03*
X033701Y006197D03*
X033701Y006201D03*
X033701Y006204D03*
X033701Y006208D03*
X033701Y006212D03*
X033701Y006216D03*
X033701Y006220D03*
X033701Y006223D03*
X033701Y006227D03*
X033701Y006231D03*
X033701Y006235D03*
X033701Y006239D03*
X033701Y006242D03*
X033701Y006246D03*
X033701Y006250D03*
X033701Y006254D03*
X033701Y006258D03*
X033701Y006261D03*
X033701Y006265D03*
X033701Y006269D03*
X033701Y006273D03*
X033701Y006277D03*
X033701Y006280D03*
X033701Y006284D03*
X033701Y006288D03*
X033701Y006292D03*
X033701Y006296D03*
X033701Y006299D03*
X033701Y006303D03*
X033701Y006307D03*
X033701Y006311D03*
X033701Y006315D03*
X033701Y006318D03*
X033701Y006322D03*
X033701Y006326D03*
X033701Y006330D03*
X033701Y006334D03*
X033701Y006337D03*
X033701Y006341D03*
X033701Y006345D03*
X033701Y006349D03*
X033701Y006353D03*
X033701Y006356D03*
X033701Y006360D03*
X033701Y006364D03*
X033701Y006368D03*
X033701Y006372D03*
X033701Y006375D03*
X033701Y006379D03*
X033701Y006383D03*
X033701Y006387D03*
X033701Y006391D03*
X033701Y006394D03*
X033701Y006398D03*
X033701Y006402D03*
X033701Y006406D03*
X033701Y006410D03*
X033701Y006413D03*
X033701Y006417D03*
X033701Y006421D03*
X033701Y006425D03*
X033701Y006429D03*
X033701Y006432D03*
X033701Y006436D03*
X033701Y006440D03*
X033701Y006444D03*
X033701Y006448D03*
X033701Y006451D03*
X033701Y006455D03*
X033701Y006459D03*
X033701Y006463D03*
X033701Y006467D03*
X033701Y006470D03*
X033701Y006474D03*
X033701Y006478D03*
X033701Y006482D03*
X033701Y006486D03*
X033701Y006489D03*
X033701Y006493D03*
X033701Y006497D03*
X033701Y006501D03*
X033701Y006505D03*
X033701Y006508D03*
X033701Y006512D03*
X033701Y006516D03*
X033701Y006520D03*
X033701Y006524D03*
X033701Y006527D03*
X033701Y006531D03*
X033701Y006535D03*
X033701Y006539D03*
X033701Y006543D03*
X033701Y006546D03*
X033701Y006550D03*
X033701Y006554D03*
X033701Y006558D03*
X033701Y006562D03*
X033701Y006565D03*
X033701Y006569D03*
X033701Y006573D03*
X033701Y006577D03*
X033701Y006581D03*
X033701Y006584D03*
X033701Y006588D03*
X033366Y006588D03*
X033366Y006584D03*
X033366Y006581D03*
X033366Y006577D03*
X033366Y006573D03*
X033366Y006569D03*
X033366Y006565D03*
X033366Y006562D03*
X033366Y006558D03*
X033366Y006554D03*
X033366Y006550D03*
X033366Y006546D03*
X033366Y006543D03*
X033366Y006539D03*
X033366Y006535D03*
X033366Y006531D03*
X033366Y006527D03*
X033366Y006524D03*
X033366Y006520D03*
X033366Y006516D03*
X033366Y006512D03*
X033366Y006508D03*
X033366Y006505D03*
X033366Y006501D03*
X033366Y006497D03*
X033366Y006493D03*
X033366Y006489D03*
X033366Y006486D03*
X033366Y006482D03*
X033366Y006478D03*
X033366Y006474D03*
X033366Y006470D03*
X033366Y006467D03*
X033366Y006463D03*
X033366Y006459D03*
X033366Y006455D03*
X033366Y006451D03*
X033366Y006448D03*
X033366Y006444D03*
X033366Y006440D03*
X033366Y006436D03*
X033366Y006432D03*
X033366Y006429D03*
X033366Y006425D03*
X033366Y006421D03*
X033366Y006417D03*
X033366Y006413D03*
X033366Y006410D03*
X033366Y006406D03*
X033366Y006402D03*
X033366Y006398D03*
X033366Y006394D03*
X033366Y006391D03*
X033366Y006387D03*
X033366Y006383D03*
X033366Y006379D03*
X033366Y006375D03*
X033366Y006372D03*
X033366Y006368D03*
X033366Y006364D03*
X033366Y006360D03*
X033366Y006356D03*
X033366Y006353D03*
X033366Y006349D03*
X033366Y006345D03*
X033366Y006341D03*
X033366Y006337D03*
X033366Y006334D03*
X033366Y006330D03*
X033366Y006326D03*
X033366Y006322D03*
X033366Y006318D03*
X033366Y006315D03*
X033366Y006311D03*
X033366Y006307D03*
X033366Y006303D03*
X033366Y006299D03*
X033366Y006296D03*
X033366Y006292D03*
X033366Y006288D03*
X033366Y006284D03*
X033366Y006280D03*
X033366Y006277D03*
X033366Y006273D03*
X033366Y006269D03*
X033366Y006265D03*
X033366Y006261D03*
X033366Y006258D03*
X033366Y006254D03*
X033366Y006250D03*
X033366Y006246D03*
X033366Y006242D03*
X033366Y006239D03*
X033366Y006235D03*
X033366Y006231D03*
X033366Y006227D03*
X033366Y006223D03*
X033366Y006220D03*
X033366Y006216D03*
X033366Y006212D03*
X033366Y006208D03*
X033366Y006204D03*
X033366Y006201D03*
X033366Y006197D03*
X033366Y006193D03*
X033366Y006189D03*
X033366Y006185D03*
X033366Y006182D03*
X033366Y006178D03*
X033366Y006174D03*
X033366Y006170D03*
X033366Y006166D03*
X033366Y006163D03*
X033366Y006159D03*
X033366Y006155D03*
X033366Y006151D03*
X033366Y006147D03*
X033366Y006144D03*
X033366Y006140D03*
X033366Y006136D03*
X033366Y006132D03*
X033366Y006128D03*
X033366Y006125D03*
X033366Y006121D03*
X033366Y006117D03*
X033366Y006113D03*
X033366Y006109D03*
X033366Y006106D03*
X033366Y006102D03*
X033366Y006098D03*
X033366Y006094D03*
X033366Y006090D03*
X033366Y006087D03*
X033366Y006083D03*
X033366Y006079D03*
X033366Y006075D03*
X033366Y006071D03*
X033366Y006068D03*
X033366Y006064D03*
X033366Y006060D03*
X033366Y006056D03*
X033366Y006052D03*
X033366Y006049D03*
X033366Y006045D03*
X033366Y006041D03*
X033366Y006037D03*
X033366Y006033D03*
X033366Y006030D03*
X033366Y006026D03*
X033366Y006022D03*
X033366Y006018D03*
X033366Y006014D03*
X033366Y006011D03*
X033366Y006007D03*
X033366Y006003D03*
X033366Y005999D03*
X033366Y005995D03*
X033366Y005992D03*
X033366Y005988D03*
X033366Y005984D03*
X033366Y005980D03*
X033366Y005976D03*
X033366Y005973D03*
X033366Y005969D03*
X033366Y005965D03*
X033366Y005961D03*
X033366Y005957D03*
X033366Y005954D03*
X033366Y005950D03*
X033366Y005946D03*
X033366Y005942D03*
X033366Y005938D03*
X033366Y005935D03*
X033366Y005931D03*
X033366Y005927D03*
X033366Y005923D03*
X033366Y005919D03*
X033366Y005916D03*
X033366Y005912D03*
X033366Y005908D03*
X033366Y005904D03*
X033366Y005900D03*
X033366Y005897D03*
X033366Y005893D03*
X033366Y005889D03*
X033366Y005885D03*
X033366Y005881D03*
X033366Y005878D03*
X033366Y005874D03*
X033366Y005870D03*
X033366Y005866D03*
X033366Y005862D03*
X033366Y005859D03*
X033366Y005855D03*
X033366Y005851D03*
X033366Y005847D03*
X033366Y005843D03*
X033366Y005840D03*
X033366Y005836D03*
X033366Y005832D03*
X033366Y005828D03*
X033366Y005824D03*
X033366Y005821D03*
X033366Y005817D03*
X033366Y005813D03*
X033366Y005809D03*
X033366Y005805D03*
X033366Y005802D03*
X033366Y005798D03*
X033366Y005794D03*
X033366Y005790D03*
X033366Y005786D03*
X033366Y005783D03*
X033366Y005779D03*
X033366Y005775D03*
X033366Y005771D03*
X033366Y005767D03*
X033366Y005764D03*
X033366Y005760D03*
X033366Y005756D03*
X033366Y005752D03*
X033366Y005748D03*
X033366Y005745D03*
X033366Y005741D03*
X033366Y005737D03*
X033366Y005733D03*
X033074Y005961D03*
X033074Y005965D03*
X033074Y005969D03*
X033074Y005973D03*
X033074Y005976D03*
X033074Y005980D03*
X033074Y005984D03*
X033074Y005988D03*
X033074Y005992D03*
X033070Y006011D03*
X033070Y006014D03*
X033066Y006026D03*
X033066Y006030D03*
X033066Y006033D03*
X033062Y006037D03*
X033062Y006041D03*
X033051Y006326D03*
X033051Y006330D03*
X033051Y006334D03*
X033051Y006337D03*
X033051Y006341D03*
X033051Y006345D03*
X033051Y006349D03*
X033051Y006353D03*
X033051Y006356D03*
X033051Y006360D03*
X033047Y006368D03*
X033047Y006372D03*
X033047Y006375D03*
X033047Y006379D03*
X033366Y006592D03*
X033366Y006596D03*
X033366Y006600D03*
X033366Y006603D03*
X033366Y006607D03*
X033366Y006611D03*
X033366Y006615D03*
X033366Y006619D03*
X033366Y006622D03*
X033366Y006626D03*
X033366Y006630D03*
X033366Y006634D03*
X033366Y006638D03*
X033366Y006641D03*
X033366Y006645D03*
X033366Y006649D03*
X033366Y006653D03*
X033366Y006657D03*
X033366Y006660D03*
X033366Y006664D03*
X033366Y006668D03*
X033366Y006672D03*
X033366Y006676D03*
X033366Y006679D03*
X033366Y006683D03*
X033366Y006687D03*
X033366Y006691D03*
X033366Y006695D03*
X033366Y006698D03*
X033366Y006702D03*
X033366Y006706D03*
X033366Y006710D03*
X033366Y006714D03*
X033366Y006717D03*
X033366Y006721D03*
X033366Y006725D03*
X033366Y006729D03*
X033366Y006733D03*
X033366Y006736D03*
X033366Y006740D03*
X033366Y006744D03*
X033366Y006748D03*
X033366Y006752D03*
X033366Y006755D03*
X033366Y006759D03*
X033366Y006763D03*
X033366Y006767D03*
X033366Y006771D03*
X033366Y006774D03*
X033366Y006778D03*
X033366Y006782D03*
X033366Y006786D03*
X033366Y006790D03*
X033366Y006793D03*
X033366Y006797D03*
X033366Y006801D03*
X033366Y006805D03*
X033366Y006809D03*
X033366Y006812D03*
X033366Y006816D03*
X033366Y006820D03*
X033366Y006824D03*
X033366Y006828D03*
X033366Y006831D03*
X033366Y006835D03*
X033366Y006839D03*
X033366Y006843D03*
X033366Y006847D03*
X033366Y006850D03*
X033366Y006854D03*
X033366Y006858D03*
X033366Y006862D03*
X033366Y006866D03*
X033366Y006869D03*
X033366Y006873D03*
X033663Y006919D03*
X033667Y006904D03*
X033667Y006900D03*
X033670Y006892D03*
X033670Y006888D03*
X033659Y006945D03*
X033655Y006995D03*
X033655Y006999D03*
X033655Y007002D03*
X033655Y007006D03*
X033655Y007010D03*
X033655Y007014D03*
X033655Y007018D03*
X033655Y007021D03*
X033655Y007025D03*
X033655Y007029D03*
X033655Y007033D03*
X033655Y007037D03*
X033655Y007040D03*
X033655Y007044D03*
X033655Y007048D03*
X033655Y007052D03*
X033655Y007056D03*
X033655Y007059D03*
X033655Y007063D03*
X033655Y007067D03*
X033655Y007071D03*
X033655Y007075D03*
X033655Y007078D03*
X033655Y007082D03*
X033655Y007086D03*
X033655Y007090D03*
X033655Y007094D03*
X033655Y007341D03*
X033655Y007344D03*
X033655Y007348D03*
X033655Y007352D03*
X033655Y007356D03*
X033655Y007360D03*
X033655Y007363D03*
X033655Y007367D03*
X033655Y007371D03*
X033655Y007375D03*
X033655Y007379D03*
X033655Y007382D03*
X033655Y007386D03*
X033655Y007390D03*
X033655Y007394D03*
X033655Y007398D03*
X033655Y007401D03*
X033655Y007405D03*
X033655Y007409D03*
X033655Y007413D03*
X033655Y007417D03*
X033655Y007420D03*
X033655Y007424D03*
X033655Y007428D03*
X033655Y007432D03*
X033655Y007436D03*
X033655Y007439D03*
X033655Y007443D03*
X033655Y007447D03*
X033655Y007451D03*
X033655Y007455D03*
X033655Y007458D03*
X033655Y007462D03*
X033655Y007466D03*
X033655Y007470D03*
X033655Y007474D03*
X033655Y007477D03*
X033655Y007481D03*
X033655Y007485D03*
X033655Y007489D03*
X033655Y007493D03*
X033655Y007496D03*
X033655Y007500D03*
X033655Y007504D03*
X033655Y007508D03*
X033655Y007512D03*
X033655Y007515D03*
X033655Y007519D03*
X033655Y007523D03*
X033655Y007527D03*
X033655Y007531D03*
X034347Y007531D03*
X034347Y007534D03*
X034347Y007538D03*
X034347Y007542D03*
X034347Y007546D03*
X034347Y007550D03*
X034347Y007553D03*
X034347Y007557D03*
X034347Y007561D03*
X034347Y007565D03*
X034347Y007569D03*
X034347Y007572D03*
X034347Y007576D03*
X034347Y007580D03*
X034347Y007527D03*
X034347Y007523D03*
X034347Y007519D03*
X034347Y007515D03*
X034347Y007512D03*
X034347Y007508D03*
X034347Y007504D03*
X034347Y007500D03*
X034347Y007496D03*
X034347Y007493D03*
X034347Y007489D03*
X034347Y007485D03*
X034347Y007481D03*
X034347Y007477D03*
X034347Y007474D03*
X034347Y007470D03*
X034347Y007466D03*
X034347Y007462D03*
X034347Y007458D03*
X034347Y007455D03*
X034347Y007451D03*
X034347Y007447D03*
X034347Y007443D03*
X034347Y007439D03*
X034347Y007436D03*
X034347Y007432D03*
X034347Y007428D03*
X034347Y007424D03*
X034347Y007420D03*
X034347Y007417D03*
X034347Y007413D03*
X034347Y007409D03*
X034347Y007405D03*
X034347Y007401D03*
X034347Y007398D03*
X034347Y007394D03*
X034347Y007390D03*
X034347Y007386D03*
X034347Y007382D03*
X034347Y007379D03*
X034347Y007375D03*
X034347Y007371D03*
X034347Y007367D03*
X034731Y007367D03*
X034731Y007363D03*
X034731Y007360D03*
X034731Y007356D03*
X034731Y007352D03*
X034731Y007348D03*
X034731Y007344D03*
X034731Y007341D03*
X034731Y007337D03*
X034731Y007333D03*
X034731Y007329D03*
X034731Y007325D03*
X034731Y007322D03*
X034731Y007318D03*
X034731Y007314D03*
X034731Y007310D03*
X034731Y007306D03*
X034731Y007303D03*
X034731Y007299D03*
X034731Y007295D03*
X034731Y007291D03*
X034731Y007287D03*
X034731Y007284D03*
X034731Y007280D03*
X034731Y007276D03*
X034731Y007272D03*
X034731Y007268D03*
X034731Y007265D03*
X034731Y007261D03*
X034731Y007257D03*
X034731Y007253D03*
X034731Y007249D03*
X034731Y007246D03*
X034731Y007242D03*
X034731Y007238D03*
X034731Y007234D03*
X034731Y007230D03*
X034731Y007227D03*
X034731Y007223D03*
X034731Y007219D03*
X034731Y007215D03*
X034731Y007211D03*
X034731Y007208D03*
X034731Y007204D03*
X034731Y007200D03*
X034731Y007196D03*
X034731Y007192D03*
X034731Y007189D03*
X034731Y007185D03*
X034731Y007181D03*
X034731Y007177D03*
X034731Y007173D03*
X034731Y007170D03*
X034731Y007166D03*
X034731Y007162D03*
X034731Y007158D03*
X034731Y007154D03*
X034731Y007151D03*
X034731Y007147D03*
X034731Y007143D03*
X034731Y007139D03*
X034731Y007135D03*
X034731Y007132D03*
X034731Y007128D03*
X034731Y007124D03*
X034731Y007120D03*
X034731Y007116D03*
X034731Y007113D03*
X034731Y007109D03*
X034731Y007105D03*
X034731Y007101D03*
X034731Y007097D03*
X034731Y007094D03*
X034731Y007090D03*
X034731Y007086D03*
X034731Y007082D03*
X034731Y007078D03*
X034731Y007075D03*
X034731Y007071D03*
X034731Y007067D03*
X034731Y007063D03*
X034731Y007059D03*
X034731Y007056D03*
X034731Y007052D03*
X034731Y007048D03*
X034731Y007044D03*
X034731Y007040D03*
X034731Y007037D03*
X034731Y007033D03*
X034731Y007029D03*
X034731Y007025D03*
X034731Y007021D03*
X034731Y007018D03*
X034731Y007014D03*
X034731Y007010D03*
X034731Y007006D03*
X034731Y007002D03*
X034731Y006999D03*
X034731Y006995D03*
X034731Y006991D03*
X034731Y006987D03*
X035092Y006987D03*
X035092Y006991D03*
X035092Y006995D03*
X035092Y006999D03*
X035092Y007002D03*
X035092Y007006D03*
X035092Y007010D03*
X035092Y007014D03*
X035092Y007018D03*
X035092Y007021D03*
X035092Y007025D03*
X035092Y007029D03*
X035092Y007033D03*
X035092Y007037D03*
X035092Y007040D03*
X035092Y007044D03*
X035092Y007048D03*
X035092Y007052D03*
X035092Y007056D03*
X035092Y007059D03*
X035092Y007063D03*
X035092Y007067D03*
X035092Y007071D03*
X035092Y007075D03*
X035092Y007078D03*
X035092Y007082D03*
X035092Y007086D03*
X035092Y007090D03*
X035092Y007094D03*
X035092Y007097D03*
X035092Y007101D03*
X035092Y007105D03*
X035092Y007109D03*
X035092Y007113D03*
X035092Y007116D03*
X035092Y007120D03*
X035092Y007124D03*
X035092Y007128D03*
X035092Y007132D03*
X035092Y007135D03*
X035092Y007139D03*
X035092Y007143D03*
X035092Y007147D03*
X035092Y007151D03*
X035092Y007154D03*
X035092Y007158D03*
X035092Y007162D03*
X035092Y007166D03*
X035092Y007170D03*
X035092Y007173D03*
X035092Y007177D03*
X035092Y007181D03*
X035092Y007185D03*
X035092Y007189D03*
X035092Y007192D03*
X035092Y007196D03*
X035092Y007200D03*
X035092Y007204D03*
X035092Y007208D03*
X035092Y007211D03*
X035092Y007215D03*
X035092Y007219D03*
X035092Y007223D03*
X035092Y007227D03*
X035092Y007230D03*
X035092Y007234D03*
X035092Y007238D03*
X035092Y007242D03*
X035092Y007246D03*
X035092Y007249D03*
X035092Y007253D03*
X035092Y007257D03*
X035092Y007261D03*
X035092Y007265D03*
X035092Y007268D03*
X035092Y007272D03*
X035092Y007276D03*
X035092Y007280D03*
X035092Y007284D03*
X035092Y007287D03*
X035092Y007291D03*
X035092Y007295D03*
X035092Y007299D03*
X035092Y007303D03*
X035092Y007306D03*
X035092Y007310D03*
X035092Y007314D03*
X035092Y007318D03*
X035092Y007322D03*
X035092Y007325D03*
X035092Y007329D03*
X035092Y007333D03*
X035092Y007337D03*
X035092Y007341D03*
X035092Y007344D03*
X035092Y007348D03*
X035092Y007352D03*
X035092Y007356D03*
X035092Y007360D03*
X035092Y007363D03*
X035092Y007367D03*
X035092Y007371D03*
X035092Y007375D03*
X035092Y007379D03*
X035092Y007382D03*
X035092Y007386D03*
X035092Y007390D03*
X035092Y007394D03*
X035092Y007398D03*
X035092Y007401D03*
X035092Y007405D03*
X035092Y007409D03*
X035092Y007413D03*
X035092Y007417D03*
X035092Y007420D03*
X035092Y007424D03*
X035092Y007428D03*
X035092Y007432D03*
X035092Y007436D03*
X035092Y007439D03*
X035092Y007443D03*
X035092Y007447D03*
X035092Y007451D03*
X035092Y007455D03*
X035092Y007458D03*
X035092Y007462D03*
X035092Y007466D03*
X035092Y007470D03*
X035092Y007474D03*
X035092Y007477D03*
X035092Y007481D03*
X035092Y007485D03*
X035092Y007489D03*
X035092Y007493D03*
X035092Y007496D03*
X035092Y007500D03*
X035092Y007504D03*
X035092Y007508D03*
X035092Y007512D03*
X035092Y007515D03*
X035092Y007519D03*
X035092Y007523D03*
X035092Y007527D03*
X035092Y007531D03*
X035092Y007534D03*
X035092Y007538D03*
X035092Y007542D03*
X035092Y007546D03*
X035092Y007550D03*
X035092Y007553D03*
X035092Y007557D03*
X035092Y007561D03*
X035092Y007565D03*
X035092Y007569D03*
X035092Y007572D03*
X035092Y007576D03*
X035092Y007580D03*
X035092Y007584D03*
X035092Y007588D03*
X035092Y007591D03*
X035092Y007595D03*
X035092Y007599D03*
X035092Y007603D03*
X035092Y007607D03*
X035092Y007610D03*
X035092Y007614D03*
X035092Y007618D03*
X035092Y007622D03*
X035092Y007626D03*
X035092Y007629D03*
X035092Y007633D03*
X035092Y007637D03*
X035092Y007641D03*
X035092Y007645D03*
X035092Y007648D03*
X035092Y007652D03*
X035092Y007656D03*
X035092Y007660D03*
X035092Y007664D03*
X035092Y007667D03*
X035092Y007671D03*
X035092Y007675D03*
X035092Y007679D03*
X035092Y007683D03*
X035092Y007686D03*
X035092Y007690D03*
X035092Y007694D03*
X035092Y007698D03*
X035092Y007702D03*
X035092Y007705D03*
X035092Y007709D03*
X035092Y007713D03*
X035092Y007717D03*
X035092Y007721D03*
X035092Y007724D03*
X035092Y007728D03*
X035092Y007732D03*
X035092Y007736D03*
X035092Y007740D03*
X035092Y007743D03*
X035092Y007747D03*
X035092Y007751D03*
X035092Y007755D03*
X035092Y007759D03*
X035092Y007762D03*
X035092Y007766D03*
X035092Y007770D03*
X035092Y007774D03*
X035092Y007778D03*
X035092Y007781D03*
X035092Y007785D03*
X035092Y007789D03*
X035092Y007793D03*
X035092Y007797D03*
X035092Y007800D03*
X035092Y007804D03*
X035092Y007808D03*
X035092Y007812D03*
X035092Y007816D03*
X035092Y007819D03*
X035092Y007823D03*
X035092Y007827D03*
X035092Y007831D03*
X035092Y007835D03*
X035092Y007838D03*
X035092Y007842D03*
X035092Y007930D03*
X035092Y007933D03*
X035092Y007937D03*
X035092Y007941D03*
X035092Y007945D03*
X035092Y007949D03*
X035092Y007952D03*
X035092Y007956D03*
X035092Y007960D03*
X035092Y007964D03*
X035092Y007968D03*
X035092Y007971D03*
X035092Y007975D03*
X035092Y007979D03*
X035092Y007983D03*
X035092Y007987D03*
X035092Y007990D03*
X035092Y007994D03*
X035092Y007998D03*
X035092Y008002D03*
X035092Y008006D03*
X035092Y008009D03*
X035092Y008013D03*
X035092Y008017D03*
X035092Y008021D03*
X035092Y008025D03*
X035092Y008028D03*
X035092Y008032D03*
X035092Y008036D03*
X035092Y008040D03*
X035092Y008044D03*
X035092Y008047D03*
X035092Y008051D03*
X035092Y008055D03*
X035092Y008059D03*
X035092Y008063D03*
X035092Y008066D03*
X035092Y008070D03*
X035092Y008074D03*
X035092Y008078D03*
X035092Y008082D03*
X035092Y008085D03*
X035092Y008089D03*
X035092Y008093D03*
X035092Y008097D03*
X035092Y008101D03*
X035092Y008104D03*
X035092Y008108D03*
X035092Y008112D03*
X035092Y008116D03*
X035092Y008120D03*
X035092Y008123D03*
X035092Y008127D03*
X035092Y008131D03*
X035092Y008135D03*
X035821Y008127D03*
X035821Y008123D03*
X035821Y008120D03*
X035821Y008116D03*
X035821Y008112D03*
X035821Y008108D03*
X035821Y008104D03*
X035821Y008101D03*
X035821Y008097D03*
X035821Y008093D03*
X035821Y008089D03*
X035821Y008085D03*
X035821Y008082D03*
X035821Y008078D03*
X035821Y008074D03*
X035821Y008070D03*
X035821Y008066D03*
X035821Y008063D03*
X035821Y008059D03*
X035821Y008055D03*
X035821Y008051D03*
X035821Y008047D03*
X035821Y008044D03*
X035821Y008040D03*
X035821Y008036D03*
X035821Y008032D03*
X035821Y008028D03*
X035821Y008025D03*
X035821Y008021D03*
X035821Y008017D03*
X035821Y008013D03*
X035821Y008009D03*
X035821Y008006D03*
X035821Y008002D03*
X035821Y007998D03*
X035821Y007994D03*
X035821Y007990D03*
X035821Y007987D03*
X035821Y007983D03*
X035821Y007979D03*
X035821Y007975D03*
X035821Y007971D03*
X035821Y007968D03*
X035821Y007964D03*
X035821Y007960D03*
X035821Y007956D03*
X035821Y007952D03*
X035821Y007949D03*
X035821Y007945D03*
X035821Y007941D03*
X035821Y007937D03*
X035821Y007933D03*
X035821Y007930D03*
X035821Y007926D03*
X035821Y007922D03*
X035821Y007918D03*
X035821Y007914D03*
X035821Y007911D03*
X035821Y007907D03*
X035821Y007903D03*
X035821Y007899D03*
X035821Y007895D03*
X035821Y007892D03*
X035821Y007888D03*
X035821Y007884D03*
X035821Y007880D03*
X035821Y007876D03*
X035821Y007873D03*
X035821Y007869D03*
X035821Y007865D03*
X035821Y007861D03*
X035821Y007857D03*
X035821Y007854D03*
X035821Y007850D03*
X035821Y007846D03*
X035821Y007842D03*
X035821Y007838D03*
X035821Y007835D03*
X035821Y007831D03*
X035821Y007827D03*
X035821Y007823D03*
X035821Y007819D03*
X035821Y007816D03*
X035821Y007812D03*
X035821Y007808D03*
X035821Y007804D03*
X035821Y007800D03*
X035821Y007797D03*
X035821Y007793D03*
X035821Y007789D03*
X035821Y007785D03*
X035821Y007781D03*
X035821Y007778D03*
X035821Y007774D03*
X035821Y007770D03*
X035821Y007766D03*
X035821Y007762D03*
X035821Y007759D03*
X035821Y007557D03*
X035821Y007553D03*
X035821Y007550D03*
X035821Y007546D03*
X035821Y007542D03*
X035821Y007538D03*
X035821Y007534D03*
X035821Y007531D03*
X035821Y007527D03*
X035821Y007523D03*
X035821Y007519D03*
X035821Y007515D03*
X035821Y007512D03*
X035821Y007508D03*
X035821Y007504D03*
X035821Y007500D03*
X035821Y007496D03*
X035821Y007493D03*
X035821Y007489D03*
X035821Y007485D03*
X035821Y007481D03*
X035821Y007477D03*
X035821Y007474D03*
X035821Y007470D03*
X035821Y007466D03*
X035821Y007462D03*
X035821Y007458D03*
X035821Y007455D03*
X035821Y007451D03*
X035821Y007447D03*
X035821Y007443D03*
X035821Y007439D03*
X035821Y007436D03*
X035821Y007432D03*
X035821Y007428D03*
X035821Y007424D03*
X035821Y007420D03*
X035821Y007417D03*
X035821Y007413D03*
X035821Y007409D03*
X035821Y007405D03*
X035821Y007401D03*
X035821Y007398D03*
X035821Y007394D03*
X035821Y007390D03*
X035821Y007386D03*
X035821Y007382D03*
X035821Y007379D03*
X035821Y007375D03*
X035821Y007371D03*
X035821Y007367D03*
X035821Y007363D03*
X035821Y007360D03*
X035821Y007356D03*
X035821Y007352D03*
X035821Y007348D03*
X035821Y007344D03*
X035821Y007341D03*
X035821Y007337D03*
X035821Y007333D03*
X035821Y007329D03*
X035821Y007325D03*
X035821Y007322D03*
X035821Y007318D03*
X035821Y007314D03*
X035821Y007310D03*
X035821Y007306D03*
X035821Y007303D03*
X035821Y007299D03*
X035821Y007295D03*
X035821Y007291D03*
X035821Y007287D03*
X035821Y007284D03*
X035821Y007280D03*
X035821Y007276D03*
X035821Y007272D03*
X035821Y007268D03*
X035821Y007265D03*
X035821Y007261D03*
X035821Y007257D03*
X035821Y007253D03*
X035821Y007249D03*
X035821Y007246D03*
X035821Y007242D03*
X035821Y007238D03*
X035821Y007234D03*
X035821Y007230D03*
X035821Y007227D03*
X035821Y007223D03*
X035821Y007219D03*
X035821Y007215D03*
X035821Y007211D03*
X035821Y007208D03*
X035821Y007204D03*
X035821Y007200D03*
X035821Y007196D03*
X035821Y007192D03*
X035821Y007189D03*
X035821Y007185D03*
X035821Y007181D03*
X035821Y007177D03*
X035821Y007173D03*
X035821Y007170D03*
X035821Y007166D03*
X035821Y007162D03*
X035821Y007158D03*
X035821Y007154D03*
X035821Y007151D03*
X035821Y007147D03*
X035821Y007143D03*
X035821Y007139D03*
X035821Y007135D03*
X035821Y007132D03*
X035821Y007128D03*
X035821Y007124D03*
X035821Y007120D03*
X035821Y007116D03*
X035821Y007113D03*
X035821Y007109D03*
X035821Y007105D03*
X035821Y007101D03*
X035821Y007097D03*
X035821Y007094D03*
X035821Y007090D03*
X035821Y007086D03*
X035821Y007082D03*
X035821Y007078D03*
X035821Y007075D03*
X035821Y007071D03*
X035821Y007067D03*
X035821Y007063D03*
X035821Y007059D03*
X035821Y007056D03*
X035821Y007052D03*
X035821Y007048D03*
X035821Y007044D03*
X035821Y007040D03*
X035821Y007037D03*
X035821Y007033D03*
X035821Y007029D03*
X035821Y007025D03*
X035821Y007021D03*
X035821Y007018D03*
X035821Y007014D03*
X035821Y007010D03*
X035821Y007006D03*
X035821Y007002D03*
X035821Y006999D03*
X035821Y006995D03*
X035821Y006991D03*
X035821Y006987D03*
X035437Y006987D03*
X035437Y006991D03*
X035437Y006995D03*
X035437Y006999D03*
X035437Y007002D03*
X035437Y007006D03*
X035437Y007010D03*
X035437Y007014D03*
X035437Y007018D03*
X035437Y007021D03*
X035437Y007025D03*
X035437Y007029D03*
X035437Y007033D03*
X035437Y007037D03*
X035437Y007040D03*
X035437Y007044D03*
X035437Y007048D03*
X035437Y007052D03*
X035437Y007056D03*
X035437Y007059D03*
X035437Y007063D03*
X035437Y007067D03*
X035437Y007071D03*
X035437Y007075D03*
X035437Y007078D03*
X035437Y007082D03*
X035437Y007086D03*
X035437Y007090D03*
X035437Y007094D03*
X035437Y007097D03*
X035437Y007101D03*
X035437Y007105D03*
X035437Y007109D03*
X035437Y007113D03*
X035437Y007116D03*
X035437Y007120D03*
X035437Y007124D03*
X035437Y007128D03*
X035437Y007132D03*
X035437Y007135D03*
X035437Y007139D03*
X035437Y007143D03*
X035437Y007147D03*
X035437Y007151D03*
X035437Y007154D03*
X035437Y007158D03*
X035437Y007162D03*
X035437Y007166D03*
X035437Y007170D03*
X035437Y007173D03*
X035437Y007177D03*
X035437Y007181D03*
X035437Y007185D03*
X035437Y007189D03*
X035437Y007192D03*
X035437Y007196D03*
X035437Y007200D03*
X035437Y007204D03*
X035437Y007208D03*
X035437Y007211D03*
X035437Y007215D03*
X035437Y007219D03*
X035437Y007223D03*
X035437Y007227D03*
X035437Y007230D03*
X035437Y007234D03*
X035437Y007238D03*
X035437Y007242D03*
X035437Y007246D03*
X035437Y007249D03*
X035437Y007253D03*
X035437Y007257D03*
X035437Y007261D03*
X035437Y007265D03*
X035437Y007268D03*
X035437Y007272D03*
X035437Y007276D03*
X035437Y007280D03*
X035437Y007284D03*
X035437Y007287D03*
X035437Y007291D03*
X035437Y007295D03*
X035437Y007299D03*
X035437Y007303D03*
X035437Y007306D03*
X035437Y007310D03*
X035437Y007314D03*
X035437Y007318D03*
X035437Y007322D03*
X035437Y007325D03*
X035437Y007329D03*
X035437Y007333D03*
X035437Y007337D03*
X035437Y007341D03*
X035437Y007344D03*
X035437Y007348D03*
X035437Y007352D03*
X035437Y007356D03*
X035437Y007360D03*
X035437Y007363D03*
X035437Y007367D03*
X035437Y007371D03*
X035437Y007375D03*
X035437Y007379D03*
X035437Y007382D03*
X035437Y007386D03*
X035437Y007390D03*
X035437Y007394D03*
X035437Y007398D03*
X035437Y007401D03*
X035437Y007405D03*
X035437Y007409D03*
X035437Y007413D03*
X035437Y007417D03*
X035437Y007420D03*
X035437Y007424D03*
X035437Y007428D03*
X035437Y007432D03*
X035437Y007436D03*
X035437Y007439D03*
X035437Y007443D03*
X035437Y007447D03*
X035437Y007451D03*
X035437Y007455D03*
X035437Y007458D03*
X035437Y007462D03*
X035437Y007466D03*
X035437Y007470D03*
X035437Y007474D03*
X035437Y007477D03*
X035437Y007481D03*
X035437Y007485D03*
X035437Y007489D03*
X035437Y007493D03*
X035437Y007496D03*
X035437Y007500D03*
X035437Y007504D03*
X035437Y007508D03*
X035437Y007512D03*
X035437Y007515D03*
X035437Y007519D03*
X035437Y007523D03*
X035437Y007527D03*
X035437Y007531D03*
X035437Y007534D03*
X035437Y007538D03*
X035437Y007542D03*
X035437Y007546D03*
X035437Y007550D03*
X035437Y007553D03*
X035437Y007557D03*
X035437Y007561D03*
X035437Y007565D03*
X035437Y007569D03*
X035437Y007572D03*
X035437Y007576D03*
X035437Y007580D03*
X034731Y007557D03*
X034731Y007553D03*
X034731Y007550D03*
X034731Y007546D03*
X034731Y007542D03*
X034731Y007538D03*
X034731Y007534D03*
X034731Y007531D03*
X034731Y007527D03*
X034731Y007523D03*
X034731Y007519D03*
X034731Y007515D03*
X034731Y007512D03*
X034731Y007508D03*
X034731Y007504D03*
X034731Y007500D03*
X034731Y007496D03*
X034731Y007493D03*
X034731Y007489D03*
X034731Y007485D03*
X034731Y007481D03*
X034731Y007477D03*
X034731Y007474D03*
X034731Y007470D03*
X034731Y007466D03*
X034731Y007462D03*
X034731Y007458D03*
X034731Y007455D03*
X034731Y007451D03*
X034731Y007447D03*
X034731Y007443D03*
X034731Y007439D03*
X034731Y007436D03*
X034731Y007432D03*
X034731Y007428D03*
X034731Y007424D03*
X034731Y007420D03*
X034731Y007417D03*
X034731Y007413D03*
X034731Y007409D03*
X034731Y007405D03*
X034731Y007401D03*
X034731Y007398D03*
X034731Y007394D03*
X034731Y007390D03*
X034731Y007386D03*
X034731Y007382D03*
X034731Y007379D03*
X034731Y007375D03*
X034731Y007371D03*
X034047Y006915D03*
X034047Y006911D03*
X034043Y006900D03*
X034043Y006896D03*
X034043Y006892D03*
X034085Y006588D03*
X034085Y006584D03*
X034085Y006581D03*
X034085Y006577D03*
X034085Y006573D03*
X034085Y006569D03*
X034085Y006565D03*
X034085Y006562D03*
X034085Y006558D03*
X034085Y006554D03*
X034085Y006550D03*
X034085Y006546D03*
X034085Y006543D03*
X034085Y006539D03*
X034085Y006535D03*
X034085Y006531D03*
X034085Y006527D03*
X034085Y006524D03*
X034085Y006520D03*
X034085Y006516D03*
X034085Y006512D03*
X034085Y006508D03*
X034085Y006505D03*
X034085Y006501D03*
X034085Y006497D03*
X034085Y006493D03*
X034085Y006489D03*
X034085Y006486D03*
X034085Y006482D03*
X034085Y006478D03*
X034085Y006474D03*
X034085Y006470D03*
X034085Y006467D03*
X034085Y006463D03*
X034085Y006459D03*
X034085Y006455D03*
X034085Y006451D03*
X034085Y006448D03*
X034085Y006444D03*
X034085Y006440D03*
X034085Y006436D03*
X034085Y006432D03*
X034085Y006429D03*
X034085Y006425D03*
X034085Y006421D03*
X034085Y006417D03*
X034085Y006413D03*
X034085Y006410D03*
X034085Y006406D03*
X034085Y006402D03*
X034085Y006398D03*
X034085Y006394D03*
X034085Y006391D03*
X034085Y006387D03*
X034085Y006383D03*
X034085Y006379D03*
X034085Y006375D03*
X034085Y006372D03*
X034085Y006368D03*
X034085Y006364D03*
X034085Y006360D03*
X034085Y006356D03*
X034085Y006353D03*
X034085Y006349D03*
X034085Y006345D03*
X034085Y006341D03*
X034085Y006337D03*
X034085Y006334D03*
X034085Y006330D03*
X034085Y006326D03*
X034085Y006322D03*
X034085Y006318D03*
X034085Y006315D03*
X034085Y006311D03*
X034085Y006307D03*
X034085Y006303D03*
X034674Y006573D03*
X032637Y005805D03*
X032637Y005802D03*
X032633Y005783D03*
X032325Y005783D03*
X032325Y005786D03*
X032325Y005790D03*
X032325Y005794D03*
X032325Y005798D03*
X032325Y005802D03*
X032325Y005805D03*
X032325Y005809D03*
X032325Y005813D03*
X032325Y005817D03*
X032325Y005821D03*
X032325Y005824D03*
X032325Y005828D03*
X032325Y005832D03*
X032325Y005836D03*
X032325Y005840D03*
X032325Y005843D03*
X032325Y005847D03*
X032325Y005851D03*
X032325Y005855D03*
X032325Y005859D03*
X032325Y005862D03*
X032325Y005866D03*
X032325Y005870D03*
X032325Y005874D03*
X032325Y005878D03*
X032325Y005881D03*
X032325Y005885D03*
X032325Y005889D03*
X032325Y005893D03*
X032325Y005897D03*
X032325Y005900D03*
X032325Y005904D03*
X032325Y005908D03*
X032325Y005912D03*
X032325Y005916D03*
X032325Y005919D03*
X032325Y005923D03*
X032325Y005927D03*
X032325Y005931D03*
X032325Y005935D03*
X032325Y005938D03*
X032325Y005942D03*
X032325Y005946D03*
X032325Y005950D03*
X032325Y005954D03*
X032325Y005957D03*
X032325Y005961D03*
X032325Y005965D03*
X032325Y005969D03*
X032325Y005973D03*
X032325Y005976D03*
X032325Y005980D03*
X032325Y005984D03*
X032325Y005988D03*
X032325Y005992D03*
X032325Y005995D03*
X032325Y005999D03*
X032325Y006003D03*
X032325Y006007D03*
X032325Y006011D03*
X032325Y006014D03*
X032325Y006018D03*
X032325Y006022D03*
X032325Y006026D03*
X032325Y006030D03*
X032325Y006033D03*
X032325Y006037D03*
X032325Y006041D03*
X032325Y006045D03*
X032325Y006049D03*
X032325Y006052D03*
X032325Y006056D03*
X032325Y006060D03*
X032325Y006064D03*
X032325Y006068D03*
X032325Y006071D03*
X032325Y006075D03*
X032325Y006079D03*
X032325Y006083D03*
X032325Y006087D03*
X032325Y006090D03*
X032325Y006094D03*
X032325Y006098D03*
X032325Y006102D03*
X032325Y006106D03*
X032325Y006109D03*
X032325Y006113D03*
X032325Y006117D03*
X032325Y006121D03*
X032325Y006125D03*
X032325Y006128D03*
X032325Y006132D03*
X032325Y006136D03*
X032325Y006140D03*
X032325Y006144D03*
X032325Y006147D03*
X032325Y006151D03*
X032325Y006155D03*
X032325Y006159D03*
X032325Y006163D03*
X032325Y006166D03*
X032325Y006170D03*
X032325Y006174D03*
X032325Y006178D03*
X032325Y006182D03*
X032325Y006185D03*
X032325Y006189D03*
X032325Y006193D03*
X032325Y006197D03*
X032325Y006201D03*
X032325Y006204D03*
X032325Y005779D03*
X032325Y005775D03*
X032325Y005771D03*
X032325Y005767D03*
X032325Y005764D03*
X032325Y005760D03*
X032325Y005756D03*
X032325Y005752D03*
X032325Y005748D03*
X032325Y005745D03*
X032325Y005741D03*
X032325Y005737D03*
X032325Y005733D03*
X035411Y008503D03*
X035411Y008507D03*
X035411Y008511D03*
X035411Y008515D03*
X035411Y008519D03*
X035411Y008522D03*
X035411Y008526D03*
X035411Y008530D03*
X035411Y008534D03*
X035411Y008538D03*
X035411Y008541D03*
X035411Y008545D03*
X035411Y008549D03*
X035411Y008553D03*
X035411Y008557D03*
X035411Y008560D03*
X035411Y008564D03*
X035411Y008568D03*
X035411Y008572D03*
X035411Y008576D03*
X035411Y008579D03*
X035411Y008583D03*
X035411Y008587D03*
X035411Y008591D03*
X035411Y008595D03*
X035411Y008598D03*
X035411Y008602D03*
X035411Y008606D03*
X035411Y008610D03*
X035411Y008614D03*
X035411Y008617D03*
X035411Y008621D03*
X035411Y008625D03*
X035411Y008629D03*
X035411Y008633D03*
X035411Y008636D03*
X035411Y008640D03*
X035411Y008644D03*
X035411Y008648D03*
X035411Y008652D03*
X035411Y008655D03*
X035411Y008659D03*
X035411Y008663D03*
X035411Y008667D03*
X035411Y008671D03*
X035411Y008674D03*
X035411Y008678D03*
X035411Y008682D03*
X035411Y008686D03*
X035411Y008690D03*
X035411Y008693D03*
X035411Y008697D03*
X035411Y008701D03*
X035411Y008705D03*
X035411Y008709D03*
X035411Y008712D03*
X035411Y008716D03*
X035411Y008720D03*
X035411Y008724D03*
X035411Y008728D03*
X035411Y008731D03*
X035411Y008735D03*
X035411Y008739D03*
X035411Y008743D03*
X035411Y008747D03*
X035411Y008750D03*
X035411Y008754D03*
X035411Y008758D03*
X035411Y008762D03*
X035411Y008766D03*
X035411Y008769D03*
X035411Y008773D03*
X035411Y008777D03*
X035411Y008781D03*
X035411Y008785D03*
X035411Y008788D03*
X035411Y008792D03*
X035411Y008796D03*
X035411Y008800D03*
X035411Y008804D03*
X035411Y008807D03*
X035411Y008811D03*
X035411Y008815D03*
X035411Y008819D03*
X035411Y008823D03*
X035411Y008826D03*
X035411Y008830D03*
X035411Y008834D03*
X035411Y008838D03*
X035411Y008842D03*
X035411Y008845D03*
X035411Y008849D03*
X035411Y008853D03*
X035411Y008857D03*
X035411Y008861D03*
X035411Y008864D03*
X035411Y008868D03*
X035411Y008872D03*
X035411Y008876D03*
X035411Y008880D03*
X035411Y008883D03*
X035411Y008887D03*
X035411Y008891D03*
X035411Y008895D03*
X035411Y008899D03*
X035411Y008902D03*
X035411Y008906D03*
X035411Y008910D03*
X035411Y008914D03*
X035411Y008918D03*
X035411Y008921D03*
X035411Y008925D03*
X035411Y008929D03*
X035411Y008933D03*
X035411Y008937D03*
X035411Y008940D03*
X035411Y008944D03*
X035411Y008948D03*
X035411Y008952D03*
X035411Y008956D03*
X035411Y008959D03*
X035411Y008963D03*
X035411Y008967D03*
X035411Y008971D03*
X035411Y008975D03*
X035411Y008978D03*
X035411Y008982D03*
X035411Y008986D03*
X035411Y008990D03*
X035411Y008994D03*
X035411Y008997D03*
X035411Y009001D03*
X035411Y009005D03*
X035411Y009009D03*
X035411Y009013D03*
X035411Y009016D03*
X035411Y009020D03*
X035411Y009024D03*
X035411Y009028D03*
X035411Y009032D03*
X035411Y009035D03*
X035411Y009039D03*
X035411Y009043D03*
X035411Y009047D03*
X035411Y009051D03*
X035411Y009054D03*
X035411Y009058D03*
X035411Y009062D03*
X035411Y009066D03*
X035411Y009070D03*
X035411Y009073D03*
X035411Y009077D03*
X035411Y009081D03*
X035411Y009085D03*
X035411Y009089D03*
X035411Y009092D03*
X035411Y009096D03*
X035027Y009096D03*
X035027Y009092D03*
X035027Y009089D03*
X035027Y009085D03*
X035027Y009081D03*
X035027Y009077D03*
X035027Y009073D03*
X035027Y009070D03*
X035027Y009066D03*
X035027Y009062D03*
X035027Y009058D03*
X035027Y009054D03*
X035027Y009051D03*
X035027Y009047D03*
X035027Y009043D03*
X035027Y009039D03*
X035027Y009035D03*
X035027Y009032D03*
X035027Y009028D03*
X035027Y009024D03*
X035027Y009020D03*
X035027Y009016D03*
X035027Y009013D03*
X035027Y009009D03*
X035027Y009005D03*
X035027Y009001D03*
X035027Y008997D03*
X035027Y008994D03*
X035027Y008990D03*
X035027Y008986D03*
X035027Y008982D03*
X035027Y008978D03*
X035027Y008975D03*
X035027Y008971D03*
X035027Y008967D03*
X035027Y008963D03*
X035027Y008959D03*
X035027Y008956D03*
X035027Y008952D03*
X035027Y008948D03*
X035027Y008944D03*
X035027Y008940D03*
X035027Y008937D03*
X035027Y008933D03*
X035027Y008929D03*
X035027Y008925D03*
X035027Y008921D03*
X035027Y008918D03*
X035027Y008914D03*
X035027Y008910D03*
X035027Y008906D03*
X035027Y008902D03*
X035027Y008899D03*
X035027Y008895D03*
X035027Y008891D03*
X035027Y008887D03*
X035027Y008883D03*
X035027Y008880D03*
X035027Y008876D03*
X035027Y008872D03*
X035027Y008868D03*
X035027Y008864D03*
X035027Y008861D03*
X035027Y008857D03*
X035027Y008853D03*
X035715Y008750D03*
X035715Y008747D03*
X035715Y008743D03*
X035715Y008739D03*
X035715Y008735D03*
X035715Y008731D03*
X035715Y008728D03*
X035715Y008724D03*
X035715Y008720D03*
X035715Y008716D03*
X035715Y008712D03*
X035715Y008709D03*
X035715Y008705D03*
X035715Y008701D03*
X035715Y008697D03*
X035715Y008693D03*
X035715Y008690D03*
X035715Y008686D03*
X035715Y008682D03*
X035715Y008678D03*
X035715Y008674D03*
X035715Y008671D03*
X035715Y008667D03*
X035715Y008663D03*
X035715Y008659D03*
X035715Y008655D03*
X035715Y008652D03*
X035715Y008648D03*
X035715Y008644D03*
X035715Y008640D03*
X035715Y008636D03*
X035715Y008633D03*
X035715Y008629D03*
X035715Y008625D03*
X035715Y008621D03*
X035715Y008617D03*
X035715Y008614D03*
X035715Y008610D03*
X036501Y008610D03*
X036501Y008614D03*
X036501Y008617D03*
X036501Y008621D03*
X036501Y008625D03*
X036501Y008629D03*
X036501Y008633D03*
X036501Y008636D03*
X036501Y008640D03*
X036501Y008644D03*
X036501Y008648D03*
X036501Y008652D03*
X036501Y008655D03*
X036501Y008659D03*
X036501Y008663D03*
X036501Y008667D03*
X036501Y008671D03*
X036501Y008674D03*
X036501Y008678D03*
X036501Y008682D03*
X036501Y008686D03*
X036501Y008690D03*
X036501Y008693D03*
X036501Y008697D03*
X036501Y008701D03*
X036501Y008705D03*
X036501Y008709D03*
X036501Y008712D03*
X036501Y008716D03*
X036501Y008720D03*
X036501Y008724D03*
X036501Y008728D03*
X036501Y008731D03*
X036501Y008735D03*
X036501Y008739D03*
X036501Y008743D03*
X036501Y008747D03*
X036501Y008750D03*
X033336Y008921D03*
X033332Y008914D03*
D53*
X033507Y008226D03*
X033952Y007838D03*
X034533Y008226D03*
X035335Y008245D03*
X036220Y008747D03*
X036220Y008750D03*
X036224Y008766D03*
X036224Y008769D03*
X036224Y008773D03*
X036224Y008777D03*
X036228Y008785D03*
X036228Y008788D03*
X036228Y008792D03*
X036228Y008796D03*
X036228Y008800D03*
X036232Y008811D03*
X036232Y008815D03*
X036232Y008819D03*
X035988Y008792D03*
X035988Y008788D03*
X035988Y008785D03*
X035985Y008804D03*
X035985Y008807D03*
X035985Y008811D03*
X035985Y008815D03*
X035985Y008819D03*
X035981Y008823D03*
X035981Y008826D03*
X035981Y008830D03*
X035981Y008834D03*
X035977Y008845D03*
X035977Y008849D03*
X035977Y008853D03*
X035973Y008872D03*
X035992Y008766D03*
X035939Y009039D03*
X035935Y009058D03*
X035928Y009092D03*
X035924Y009111D03*
X033952Y007040D03*
X035924Y006603D03*
X035928Y006584D03*
X035935Y006550D03*
X035939Y006531D03*
X035973Y006364D03*
X035977Y006345D03*
X035977Y006341D03*
X035977Y006337D03*
X035981Y006326D03*
X035981Y006322D03*
X035981Y006318D03*
X035981Y006315D03*
X035985Y006311D03*
X035985Y006307D03*
X035985Y006303D03*
X035985Y006299D03*
X035985Y006296D03*
X035988Y006284D03*
X035988Y006280D03*
X035988Y006277D03*
X035992Y006258D03*
X036220Y006242D03*
X036220Y006239D03*
X036224Y006258D03*
X036224Y006261D03*
X036224Y006265D03*
X036224Y006269D03*
X036228Y006277D03*
X036228Y006280D03*
X036228Y006284D03*
X036228Y006288D03*
X036228Y006292D03*
X036232Y006303D03*
X036232Y006307D03*
X036232Y006311D03*
X034009Y005737D03*
X032971Y005733D03*
D54*
X032971Y006132D03*
X034001Y005786D03*
X035232Y005737D03*
X035517Y007789D03*
X035327Y008294D03*
X033948Y007789D03*
X033507Y008245D03*
X033507Y009092D03*
D55*
X034347Y008925D03*
X034347Y008921D03*
X034347Y008918D03*
X034351Y008929D03*
X034351Y008933D03*
X034712Y008910D03*
X034712Y008906D03*
X034712Y008902D03*
X034723Y008488D03*
X034723Y008484D03*
X034723Y008481D03*
X034723Y008477D03*
X034723Y008473D03*
X034723Y008469D03*
X034343Y008424D03*
X034339Y008431D03*
X034339Y008435D03*
X034339Y008439D03*
X034335Y008454D03*
X034335Y008458D03*
X034335Y008462D03*
X034335Y008465D03*
X034335Y008469D03*
X034335Y008473D03*
X034335Y008477D03*
X033644Y007842D03*
X033644Y007838D03*
X033644Y007835D03*
X033644Y007831D03*
X033644Y007827D03*
X033644Y007823D03*
X033644Y007819D03*
X033644Y007816D03*
X033644Y007812D03*
X033644Y007808D03*
X033644Y007804D03*
X033644Y007800D03*
X033644Y007797D03*
X033644Y007793D03*
X033644Y007789D03*
X033644Y007785D03*
X033644Y007781D03*
X033644Y007778D03*
X033644Y007774D03*
X033644Y007770D03*
X033644Y007766D03*
X033644Y007762D03*
X033644Y007759D03*
X033644Y007755D03*
X033644Y007751D03*
X033952Y007831D03*
X033952Y007048D03*
X034674Y005737D03*
D56*
X036108Y005741D03*
X036108Y005745D03*
X036108Y005748D03*
X036108Y005752D03*
X036108Y005756D03*
X033870Y006706D03*
X032969Y005737D03*
X036108Y008249D03*
X036108Y008253D03*
X036108Y008256D03*
X036108Y008260D03*
X036108Y008264D03*
X034725Y008492D03*
X034725Y008496D03*
X034725Y008500D03*
X034725Y008503D03*
X034725Y008507D03*
X034725Y008511D03*
X034337Y008450D03*
X034337Y008446D03*
X034337Y008443D03*
X034341Y008880D03*
X034341Y008883D03*
X034341Y008887D03*
X034341Y008891D03*
X034341Y008895D03*
X034341Y008899D03*
X034345Y008902D03*
X034345Y008906D03*
X034345Y008910D03*
X034345Y008914D03*
D57*
X034700Y008842D03*
X035407Y008465D03*
X035407Y008462D03*
X035407Y008458D03*
X035407Y008454D03*
X035403Y008446D03*
X035403Y008443D03*
X034696Y008397D03*
X033674Y008412D03*
X033336Y008412D03*
X033340Y008929D03*
X033674Y008925D03*
X035513Y007823D03*
X035817Y007599D03*
X035817Y007595D03*
X035817Y007591D03*
X035817Y007588D03*
X034351Y007618D03*
X034351Y007622D03*
X034351Y007626D03*
X034351Y007629D03*
X034351Y007633D03*
X034035Y007626D03*
X034035Y007622D03*
X034035Y007249D03*
X034035Y006877D03*
X033868Y006710D03*
X033678Y006873D03*
X033040Y006406D03*
X033040Y006402D03*
X033043Y006394D03*
X032652Y006394D03*
X032652Y006391D03*
X032652Y006387D03*
X032652Y006398D03*
X032648Y006368D03*
X032648Y006364D03*
X032648Y006360D03*
X032648Y006356D03*
X032648Y006353D03*
X032648Y006349D03*
X032321Y006261D03*
X032321Y006258D03*
X032321Y006254D03*
X032321Y006250D03*
X032321Y006246D03*
X033051Y006064D03*
X033051Y006060D03*
X033055Y006056D03*
X032629Y005764D03*
X032622Y005741D03*
X032622Y005737D03*
X033705Y005980D03*
X033705Y005984D03*
X033705Y005988D03*
X033705Y005992D03*
X034077Y005938D03*
X034077Y005935D03*
X034381Y005969D03*
X034381Y005973D03*
X034381Y005976D03*
X034381Y005980D03*
X034381Y005984D03*
X034761Y005984D03*
X034761Y005988D03*
X034761Y005992D03*
X034761Y005995D03*
X034761Y005980D03*
X034761Y005976D03*
X034761Y005973D03*
X034765Y006014D03*
X034765Y006018D03*
X034765Y006022D03*
X034765Y006026D03*
X034765Y006030D03*
X034765Y006033D03*
X034765Y006037D03*
X034765Y006041D03*
X034765Y006045D03*
X034765Y006049D03*
X034761Y006303D03*
X034761Y006307D03*
X034761Y006311D03*
X034753Y006356D03*
X034381Y006356D03*
X034381Y006353D03*
X034381Y006349D03*
X034381Y006345D03*
X035396Y006417D03*
D58*
X034672Y006520D03*
X036108Y006052D03*
X036108Y006049D03*
X036108Y006045D03*
X036108Y006041D03*
X036108Y006037D03*
X035230Y005741D03*
X034672Y005790D03*
X032954Y006140D03*
X032844Y006588D03*
X034432Y007778D03*
X035519Y007774D03*
X036108Y008545D03*
X036108Y008549D03*
X036108Y008553D03*
X036108Y008557D03*
X036108Y008560D03*
X034645Y008785D03*
X034406Y008572D03*
D59*
X034343Y008507D03*
X034354Y008401D03*
X034708Y008412D03*
X034708Y008416D03*
X034708Y008861D03*
X034696Y008948D03*
X034362Y008952D03*
X033328Y008902D03*
X033325Y008891D03*
X033325Y008887D03*
X033325Y008883D03*
X033325Y008880D03*
X033321Y008872D03*
X033321Y008868D03*
X033321Y008864D03*
X033321Y008861D03*
X033321Y008857D03*
X033321Y008853D03*
X033321Y008849D03*
X033317Y008842D03*
X033317Y008838D03*
X033317Y008834D03*
X033317Y008830D03*
X033317Y008826D03*
X033317Y008823D03*
X033317Y008819D03*
X033317Y008815D03*
X033317Y008811D03*
X033317Y008807D03*
X033317Y008804D03*
X033317Y008800D03*
X033317Y008796D03*
X033317Y008792D03*
X033317Y008788D03*
X033317Y008785D03*
X033317Y008781D03*
X033317Y008777D03*
X033317Y008492D03*
X033952Y007827D03*
X033952Y007052D03*
X035711Y006539D03*
X035711Y006535D03*
X035711Y006531D03*
X035711Y006527D03*
X035711Y006524D03*
X035711Y006520D03*
X035711Y006516D03*
X035711Y006512D03*
X035711Y006508D03*
X035711Y006505D03*
X035711Y006501D03*
X035711Y006497D03*
X035711Y006493D03*
X035711Y006489D03*
X035711Y006486D03*
X035711Y006482D03*
X035711Y006478D03*
X035711Y006474D03*
X035711Y006470D03*
X035711Y006467D03*
X035711Y006463D03*
X035711Y006459D03*
X035711Y006455D03*
X035711Y006451D03*
X035711Y006448D03*
X035711Y006444D03*
X035711Y006440D03*
X035711Y006436D03*
X035711Y006432D03*
X035711Y006429D03*
X035711Y006425D03*
X035711Y006421D03*
X035711Y006417D03*
X035711Y006413D03*
X035711Y006410D03*
X035711Y006406D03*
X035711Y006402D03*
X035711Y006398D03*
X035711Y006394D03*
X036505Y006394D03*
X036505Y006398D03*
X036505Y006402D03*
X036505Y006406D03*
X036505Y006410D03*
X036505Y006413D03*
X036505Y006417D03*
X036505Y006421D03*
X036505Y006425D03*
X036505Y006429D03*
X036505Y006432D03*
X036505Y006436D03*
X036505Y006440D03*
X036505Y006444D03*
X036505Y006448D03*
X036505Y006451D03*
X036505Y006455D03*
X036505Y006459D03*
X036505Y006463D03*
X036505Y006467D03*
X036505Y006470D03*
X036505Y006474D03*
X036505Y006478D03*
X036505Y006482D03*
X036505Y006486D03*
X036505Y006489D03*
X036505Y006493D03*
X036505Y006497D03*
X036505Y006501D03*
X036505Y006505D03*
X036505Y006508D03*
X036505Y006512D03*
X036505Y006516D03*
X036505Y006520D03*
X036505Y006524D03*
X036505Y006527D03*
X036505Y006531D03*
X036505Y006535D03*
X036505Y006539D03*
X034674Y005741D03*
X035711Y008902D03*
X035711Y008906D03*
X035711Y008910D03*
X035711Y008914D03*
X035711Y008918D03*
X035711Y008921D03*
X035711Y008925D03*
X035711Y008929D03*
X035711Y008933D03*
X035711Y008937D03*
X035711Y008940D03*
X035711Y008944D03*
X035711Y008948D03*
X035711Y008952D03*
X035711Y008956D03*
X035711Y008959D03*
X035711Y008963D03*
X035711Y008967D03*
X035711Y008971D03*
X035711Y008975D03*
X035711Y008978D03*
X035711Y008982D03*
X035711Y008986D03*
X035711Y008990D03*
X035711Y008994D03*
X035711Y008997D03*
X035711Y009001D03*
X035711Y009005D03*
X035711Y009009D03*
X035711Y009013D03*
X035711Y009016D03*
X035711Y009020D03*
X035711Y009024D03*
X035711Y009028D03*
X035711Y009032D03*
X035711Y009035D03*
X035711Y009039D03*
X035711Y009043D03*
X035711Y009047D03*
X036505Y009047D03*
X036505Y009043D03*
X036505Y009039D03*
X036505Y009035D03*
X036505Y009032D03*
X036505Y009028D03*
X036505Y009024D03*
X036505Y009020D03*
X036505Y009016D03*
X036505Y009013D03*
X036505Y009009D03*
X036505Y009005D03*
X036505Y009001D03*
X036505Y008997D03*
X036505Y008994D03*
X036505Y008990D03*
X036505Y008986D03*
X036505Y008982D03*
X036505Y008978D03*
X036505Y008975D03*
X036505Y008971D03*
X036505Y008967D03*
X036505Y008963D03*
X036505Y008959D03*
X036505Y008956D03*
X036505Y008952D03*
X036505Y008948D03*
X036505Y008944D03*
X036505Y008940D03*
X036505Y008937D03*
X036505Y008933D03*
X036505Y008929D03*
X036505Y008925D03*
X036505Y008921D03*
X036505Y008918D03*
X036505Y008914D03*
X036505Y008910D03*
X036505Y008906D03*
X036505Y008902D03*
D60*
X035335Y008249D03*
X035513Y007835D03*
X034423Y007835D03*
X033952Y007044D03*
X034009Y005741D03*
D61*
X034670Y005798D03*
X035232Y005745D03*
X035228Y006577D03*
X032964Y005783D03*
X032698Y006265D03*
X034434Y007770D03*
X033507Y008253D03*
X035521Y007766D03*
X035521Y007762D03*
X033507Y009085D03*
D62*
X034704Y008937D03*
X034704Y008933D03*
X034715Y008439D03*
X034715Y008435D03*
X034715Y008431D03*
X034009Y005745D03*
D63*
X034007Y005752D03*
X034083Y005961D03*
X034083Y005965D03*
X034083Y005969D03*
X034083Y005973D03*
X034083Y005976D03*
X034083Y005980D03*
X034083Y005984D03*
X034083Y005988D03*
X034083Y005992D03*
X034379Y005992D03*
X034379Y005995D03*
X034379Y005999D03*
X034379Y006003D03*
X034379Y006007D03*
X034379Y006011D03*
X034379Y005988D03*
X034763Y005999D03*
X034763Y006003D03*
X034763Y006007D03*
X034763Y006011D03*
X034767Y006052D03*
X034767Y006056D03*
X034767Y006060D03*
X034767Y006064D03*
X034767Y006068D03*
X034767Y006071D03*
X034767Y006075D03*
X034767Y006079D03*
X034767Y006083D03*
X034767Y006087D03*
X034767Y006090D03*
X034767Y006094D03*
X034767Y006098D03*
X034767Y006102D03*
X034767Y006106D03*
X034767Y006109D03*
X034767Y006113D03*
X034767Y006117D03*
X034767Y006121D03*
X034767Y006125D03*
X034767Y006128D03*
X034767Y006132D03*
X034767Y006136D03*
X034767Y006140D03*
X034767Y006144D03*
X034767Y006147D03*
X034767Y006151D03*
X034767Y006155D03*
X034767Y006159D03*
X034767Y006163D03*
X034767Y006166D03*
X034767Y006170D03*
X034767Y006174D03*
X034767Y006178D03*
X034767Y006182D03*
X034767Y006185D03*
X034767Y006189D03*
X034767Y006193D03*
X034767Y006197D03*
X034767Y006201D03*
X034767Y006204D03*
X034767Y006208D03*
X034767Y006212D03*
X034767Y006216D03*
X034767Y006220D03*
X034767Y006223D03*
X034767Y006227D03*
X034767Y006231D03*
X034767Y006235D03*
X034767Y006239D03*
X034767Y006242D03*
X034763Y006250D03*
X034763Y006254D03*
X034763Y006258D03*
X034763Y006261D03*
X034763Y006265D03*
X034763Y006269D03*
X034763Y006273D03*
X034763Y006277D03*
X034763Y006280D03*
X034763Y006284D03*
X034763Y006288D03*
X034763Y006292D03*
X034763Y006296D03*
X034763Y006299D03*
X034759Y006315D03*
X034759Y006318D03*
X034759Y006322D03*
X034759Y006326D03*
X035036Y006288D03*
X035036Y006284D03*
X035036Y006280D03*
X035036Y006277D03*
X035036Y006273D03*
X035033Y006235D03*
X035033Y006231D03*
X035033Y006227D03*
X035033Y006223D03*
X035033Y006220D03*
X035033Y006216D03*
X035033Y006212D03*
X035033Y006208D03*
X035033Y006204D03*
X035033Y006201D03*
X035033Y006197D03*
X035033Y006193D03*
X035033Y006189D03*
X035033Y006185D03*
X035033Y006182D03*
X035033Y006178D03*
X035033Y006174D03*
X035033Y006170D03*
X035033Y006166D03*
X035033Y006163D03*
X035033Y006159D03*
X035033Y006155D03*
X035033Y006151D03*
X035033Y006147D03*
X035033Y006144D03*
X035033Y006140D03*
X035033Y006136D03*
X035033Y006132D03*
X035033Y006128D03*
X035033Y006125D03*
X035033Y006121D03*
X035033Y006117D03*
X035033Y006113D03*
X035033Y006109D03*
X035033Y006106D03*
X035033Y006102D03*
X035033Y006098D03*
X035033Y006094D03*
X035033Y006090D03*
X035033Y006087D03*
X035036Y006049D03*
X035036Y006045D03*
X035036Y006041D03*
X035036Y006037D03*
X035036Y006033D03*
X035055Y005919D03*
X035059Y005912D03*
X035063Y005904D03*
X035401Y005912D03*
X035405Y005919D03*
X035424Y006033D03*
X035424Y006037D03*
X035424Y006041D03*
X035424Y006045D03*
X035424Y006049D03*
X035428Y006083D03*
X035428Y006087D03*
X035428Y006090D03*
X035428Y006094D03*
X035428Y006098D03*
X035428Y006102D03*
X035428Y006106D03*
X035428Y006109D03*
X035428Y006113D03*
X035428Y006117D03*
X035428Y006121D03*
X035428Y006125D03*
X035428Y006128D03*
X035428Y006132D03*
X035428Y006136D03*
X035428Y006140D03*
X035428Y006144D03*
X035428Y006147D03*
X035428Y006151D03*
X035428Y006155D03*
X035428Y006159D03*
X035428Y006163D03*
X035428Y006166D03*
X035428Y006170D03*
X035428Y006174D03*
X035428Y006178D03*
X035428Y006182D03*
X035428Y006185D03*
X035428Y006189D03*
X035428Y006193D03*
X035428Y006197D03*
X035428Y006201D03*
X035428Y006204D03*
X035428Y006208D03*
X035428Y006212D03*
X035428Y006216D03*
X035428Y006220D03*
X035428Y006223D03*
X035428Y006227D03*
X035428Y006231D03*
X035428Y006235D03*
X035424Y006269D03*
X035424Y006273D03*
X035424Y006277D03*
X035424Y006280D03*
X035424Y006284D03*
X035424Y006288D03*
X035405Y006402D03*
X035401Y006410D03*
X035059Y006410D03*
X035055Y006402D03*
X034379Y006341D03*
X034379Y006337D03*
X034379Y006334D03*
X034379Y006330D03*
X034379Y006326D03*
X033703Y006018D03*
X033703Y006014D03*
X033703Y006011D03*
X033703Y006007D03*
X033703Y006003D03*
X033703Y005999D03*
X033703Y005995D03*
X033072Y005957D03*
X033072Y005954D03*
X033072Y005950D03*
X033060Y006045D03*
X033057Y006049D03*
X033057Y006052D03*
X033049Y006364D03*
X033045Y006383D03*
X033045Y006387D03*
X033045Y006391D03*
X033041Y006398D03*
X032650Y006383D03*
X032650Y006379D03*
X032650Y006375D03*
X032650Y006372D03*
X032323Y006242D03*
X032323Y006239D03*
X032323Y006235D03*
X032323Y006231D03*
X032323Y006227D03*
X032323Y006223D03*
X032323Y006220D03*
X032323Y006216D03*
X032323Y006212D03*
X032323Y006208D03*
X032635Y005798D03*
X032635Y005794D03*
X032635Y005790D03*
X032635Y005786D03*
X032631Y005779D03*
X032631Y005775D03*
X032631Y005771D03*
X032631Y005767D03*
X032627Y005760D03*
X032627Y005756D03*
X032969Y005745D03*
X035717Y005954D03*
X035717Y005957D03*
X035717Y005961D03*
X035717Y005965D03*
X035717Y005969D03*
X035717Y005973D03*
X035717Y005976D03*
X035717Y005980D03*
X035717Y005984D03*
X035717Y005988D03*
X035717Y005992D03*
X035717Y005995D03*
X035717Y005999D03*
X035717Y006003D03*
X035717Y006007D03*
X035717Y006011D03*
X035717Y006014D03*
X035717Y006018D03*
X035717Y006022D03*
X035717Y006026D03*
X035717Y006030D03*
X035717Y006033D03*
X035717Y006037D03*
X035717Y006041D03*
X035717Y006045D03*
X035717Y006049D03*
X035717Y006052D03*
X035717Y006056D03*
X035717Y006060D03*
X035717Y006064D03*
X035717Y006068D03*
X035717Y006071D03*
X035717Y006075D03*
X035717Y006079D03*
X035717Y006083D03*
X035717Y006087D03*
X035717Y006090D03*
X035717Y006094D03*
X035717Y006098D03*
X036108Y005832D03*
X036108Y005828D03*
X036108Y005824D03*
X036108Y005821D03*
X036108Y005817D03*
X036499Y005954D03*
X036499Y005957D03*
X036499Y005961D03*
X036499Y005965D03*
X036499Y005969D03*
X036499Y005973D03*
X036499Y005976D03*
X036499Y005980D03*
X036499Y005984D03*
X036499Y005988D03*
X036499Y005992D03*
X036499Y005995D03*
X036499Y005999D03*
X036499Y006003D03*
X036499Y006007D03*
X036499Y006011D03*
X036499Y006014D03*
X036499Y006018D03*
X036499Y006022D03*
X036499Y006026D03*
X036499Y006030D03*
X036499Y006033D03*
X036499Y006037D03*
X036499Y006041D03*
X036499Y006045D03*
X036499Y006049D03*
X036499Y006052D03*
X036499Y006056D03*
X036499Y006060D03*
X036499Y006064D03*
X036499Y006068D03*
X036499Y006071D03*
X036499Y006075D03*
X036499Y006079D03*
X036499Y006083D03*
X036499Y006087D03*
X036499Y006090D03*
X036499Y006094D03*
X036499Y006098D03*
X034041Y006885D03*
X034041Y006888D03*
X034037Y006881D03*
X033950Y007056D03*
X033676Y006881D03*
X033676Y006877D03*
X033672Y006885D03*
X033657Y007299D03*
X033657Y007303D03*
X033657Y007306D03*
X033657Y007310D03*
X033657Y007314D03*
X033657Y007318D03*
X033657Y007322D03*
X033657Y007325D03*
X033657Y007329D03*
X033657Y007333D03*
X033657Y007337D03*
X034041Y007306D03*
X034041Y007303D03*
X034041Y007299D03*
X034041Y007295D03*
X034041Y007291D03*
X034041Y007287D03*
X034041Y007284D03*
X034041Y007280D03*
X034045Y007310D03*
X034045Y007314D03*
X034045Y007318D03*
X034045Y007322D03*
X034045Y007325D03*
X034045Y007329D03*
X034045Y007333D03*
X034045Y007337D03*
X034045Y007341D03*
X034045Y007344D03*
X034045Y007348D03*
X034045Y007352D03*
X034045Y007356D03*
X034045Y007360D03*
X034037Y007610D03*
X034037Y007614D03*
X034037Y007618D03*
X034349Y007614D03*
X034349Y007610D03*
X034349Y007607D03*
X034349Y007603D03*
X034349Y007599D03*
X034349Y007595D03*
X034349Y007591D03*
X034349Y007588D03*
X034349Y007584D03*
X034729Y007584D03*
X034729Y007580D03*
X034729Y007576D03*
X034729Y007572D03*
X034729Y007569D03*
X034729Y007565D03*
X034729Y007561D03*
X035439Y007584D03*
X035439Y007588D03*
X035439Y007591D03*
X035439Y007595D03*
X035439Y007599D03*
X035439Y007603D03*
X035439Y007607D03*
X035439Y007610D03*
X035439Y007614D03*
X035819Y007584D03*
X035819Y007580D03*
X035819Y007576D03*
X035819Y007572D03*
X035819Y007569D03*
X035819Y007565D03*
X035819Y007561D03*
X035333Y008260D03*
X035409Y008469D03*
X035409Y008473D03*
X035409Y008477D03*
X035409Y008481D03*
X035409Y008484D03*
X035409Y008488D03*
X035409Y008492D03*
X035409Y008496D03*
X035409Y008500D03*
X035717Y008500D03*
X035717Y008503D03*
X035717Y008507D03*
X035717Y008511D03*
X035717Y008515D03*
X035717Y008519D03*
X035717Y008522D03*
X035717Y008526D03*
X035717Y008530D03*
X035717Y008534D03*
X035717Y008538D03*
X035717Y008541D03*
X035717Y008545D03*
X035717Y008549D03*
X035717Y008553D03*
X035717Y008557D03*
X035717Y008560D03*
X035717Y008564D03*
X035717Y008568D03*
X035717Y008572D03*
X035717Y008576D03*
X035717Y008579D03*
X035717Y008583D03*
X035717Y008587D03*
X035717Y008591D03*
X035717Y008595D03*
X035717Y008598D03*
X035717Y008602D03*
X035717Y008606D03*
X035717Y008496D03*
X035717Y008492D03*
X035717Y008488D03*
X035717Y008484D03*
X035717Y008481D03*
X035717Y008477D03*
X035717Y008473D03*
X035717Y008469D03*
X035717Y008465D03*
X035717Y008462D03*
X036108Y008340D03*
X036108Y008336D03*
X036108Y008332D03*
X036108Y008329D03*
X036108Y008325D03*
X036499Y008462D03*
X036499Y008465D03*
X036499Y008469D03*
X036499Y008473D03*
X036499Y008477D03*
X036499Y008481D03*
X036499Y008484D03*
X036499Y008488D03*
X036499Y008492D03*
X036499Y008496D03*
X036499Y008500D03*
X036499Y008503D03*
X036499Y008507D03*
X036499Y008511D03*
X036499Y008515D03*
X036499Y008519D03*
X036499Y008522D03*
X036499Y008526D03*
X036499Y008530D03*
X036499Y008534D03*
X036499Y008538D03*
X036499Y008541D03*
X036499Y008545D03*
X036499Y008549D03*
X036499Y008553D03*
X036499Y008557D03*
X036499Y008560D03*
X036499Y008564D03*
X036499Y008568D03*
X036499Y008572D03*
X036499Y008576D03*
X036499Y008579D03*
X036499Y008583D03*
X036499Y008587D03*
X036499Y008591D03*
X036499Y008595D03*
X036499Y008598D03*
X036499Y008602D03*
X036499Y008606D03*
X035029Y008526D03*
X035029Y008522D03*
X035029Y008519D03*
X035029Y008515D03*
X035029Y008511D03*
X035029Y008507D03*
X035029Y008503D03*
X034702Y008845D03*
X034687Y008956D03*
X033699Y008796D03*
X033699Y008792D03*
X033699Y008788D03*
X033699Y008785D03*
X033699Y008781D03*
X033703Y008747D03*
X033703Y008743D03*
X033703Y008739D03*
X033703Y008735D03*
X033703Y008731D03*
X033703Y008728D03*
X033703Y008724D03*
X033703Y008720D03*
X033703Y008716D03*
X033703Y008712D03*
X033703Y008709D03*
X033703Y008705D03*
X033703Y008701D03*
X033703Y008697D03*
X033703Y008693D03*
X033703Y008690D03*
X033703Y008686D03*
X033703Y008682D03*
X033703Y008678D03*
X033703Y008674D03*
X033703Y008671D03*
X033703Y008667D03*
X033703Y008663D03*
X033703Y008659D03*
X033703Y008655D03*
X033703Y008652D03*
X033703Y008648D03*
X033703Y008644D03*
X033703Y008640D03*
X033703Y008636D03*
X033703Y008633D03*
X033703Y008629D03*
X033703Y008625D03*
X033703Y008621D03*
X033703Y008617D03*
X033703Y008614D03*
X033703Y008610D03*
X033703Y008606D03*
X033703Y008602D03*
X033703Y008598D03*
X033703Y008595D03*
X033703Y008591D03*
X033699Y008560D03*
X033699Y008557D03*
X033699Y008553D03*
X033699Y008549D03*
X033699Y008545D03*
X033699Y008541D03*
X033680Y008427D03*
X033676Y008420D03*
X033676Y008416D03*
X033334Y008416D03*
X033334Y008420D03*
X033330Y008424D03*
X034349Y008519D03*
X033680Y008910D03*
X033676Y008918D03*
X033676Y008921D03*
X033338Y008925D03*
X033334Y008918D03*
X033657Y007576D03*
X033657Y007572D03*
X033657Y007569D03*
X033657Y007565D03*
X033657Y007561D03*
X033657Y007557D03*
X033657Y007553D03*
X033657Y007550D03*
X033657Y007546D03*
X033657Y007542D03*
X033657Y007538D03*
X033657Y007534D03*
D64*
X033659Y007580D03*
X033659Y007584D03*
X033659Y007588D03*
X033659Y007591D03*
X033659Y007595D03*
X033659Y007599D03*
X033659Y007295D03*
X033659Y007291D03*
X033659Y007287D03*
X033659Y007284D03*
X033659Y007280D03*
X033659Y007276D03*
X033659Y007272D03*
X034039Y007272D03*
X034039Y007268D03*
X034039Y007265D03*
X034039Y007276D03*
X034354Y007641D03*
X034727Y007599D03*
X034727Y007595D03*
X034727Y007591D03*
X034727Y007588D03*
X035441Y007618D03*
X035441Y007622D03*
X035441Y007626D03*
X035441Y007629D03*
X035441Y007633D03*
X035445Y007641D03*
X035719Y008313D03*
X035719Y008317D03*
X035719Y008321D03*
X035719Y008325D03*
X035719Y008329D03*
X035719Y008332D03*
X035719Y008336D03*
X035719Y008340D03*
X035719Y008344D03*
X035719Y008348D03*
X035719Y008351D03*
X035719Y008355D03*
X035719Y008359D03*
X035719Y008363D03*
X035719Y008367D03*
X035719Y008370D03*
X035719Y008374D03*
X035719Y008378D03*
X035719Y008382D03*
X035719Y008386D03*
X035719Y008389D03*
X035719Y008393D03*
X035719Y008397D03*
X035719Y008401D03*
X035719Y008405D03*
X035719Y008408D03*
X035719Y008412D03*
X035719Y008416D03*
X035719Y008420D03*
X035719Y008424D03*
X035719Y008427D03*
X035719Y008431D03*
X035719Y008435D03*
X035719Y008439D03*
X035719Y008443D03*
X035719Y008446D03*
X035719Y008450D03*
X035719Y008454D03*
X035719Y008458D03*
X035031Y008488D03*
X035031Y008492D03*
X035031Y008496D03*
X035031Y008500D03*
X034693Y008393D03*
X033670Y008408D03*
X033670Y008929D03*
X034525Y009104D03*
X036498Y008458D03*
X036498Y008454D03*
X036498Y008450D03*
X036498Y008446D03*
X036498Y008443D03*
X036498Y008439D03*
X036498Y008435D03*
X036498Y008431D03*
X036498Y008427D03*
X036498Y008424D03*
X036498Y008420D03*
X036498Y008416D03*
X036498Y008412D03*
X036498Y008408D03*
X036498Y008405D03*
X036498Y008401D03*
X036498Y008397D03*
X036498Y008393D03*
X036498Y008389D03*
X036498Y008386D03*
X036498Y008382D03*
X036498Y008378D03*
X036498Y008374D03*
X036498Y008370D03*
X036498Y008367D03*
X036498Y008363D03*
X036498Y008359D03*
X036498Y008355D03*
X036498Y008351D03*
X036498Y008348D03*
X036498Y008344D03*
X036498Y008340D03*
X036498Y008336D03*
X036498Y008332D03*
X036498Y008329D03*
X036498Y008325D03*
X036498Y008321D03*
X036498Y008317D03*
X036498Y008313D03*
X035399Y006413D03*
X035061Y006413D03*
X035061Y006417D03*
X034757Y006345D03*
X034757Y006341D03*
X034757Y006337D03*
X034757Y006334D03*
X034757Y006330D03*
X035061Y005908D03*
X035065Y005900D03*
X035399Y005908D03*
X035719Y005908D03*
X035719Y005912D03*
X035719Y005916D03*
X035719Y005919D03*
X035719Y005923D03*
X035719Y005927D03*
X035719Y005931D03*
X035719Y005935D03*
X035719Y005938D03*
X035719Y005942D03*
X035719Y005946D03*
X035719Y005950D03*
X035719Y005904D03*
X035719Y005900D03*
X035719Y005897D03*
X035719Y005893D03*
X035719Y005889D03*
X035719Y005885D03*
X035719Y005881D03*
X035719Y005878D03*
X035719Y005874D03*
X035719Y005870D03*
X035719Y005866D03*
X035719Y005862D03*
X035719Y005859D03*
X035719Y005855D03*
X035719Y005851D03*
X035719Y005847D03*
X035719Y005843D03*
X035719Y005840D03*
X035719Y005836D03*
X035719Y005832D03*
X035719Y005828D03*
X035719Y005824D03*
X035719Y005821D03*
X035719Y005817D03*
X035719Y005813D03*
X035719Y005809D03*
X035719Y005805D03*
X036498Y005805D03*
X036498Y005809D03*
X036498Y005813D03*
X036498Y005817D03*
X036498Y005821D03*
X036498Y005824D03*
X036498Y005828D03*
X036498Y005832D03*
X036498Y005836D03*
X036498Y005840D03*
X036498Y005843D03*
X036498Y005847D03*
X036498Y005851D03*
X036498Y005855D03*
X036498Y005859D03*
X036498Y005862D03*
X036498Y005866D03*
X036498Y005870D03*
X036498Y005874D03*
X036498Y005878D03*
X036498Y005881D03*
X036498Y005885D03*
X036498Y005889D03*
X036498Y005893D03*
X036498Y005897D03*
X036498Y005900D03*
X036498Y005904D03*
X036498Y005908D03*
X036498Y005912D03*
X036498Y005916D03*
X036498Y005919D03*
X036498Y005923D03*
X036498Y005927D03*
X036498Y005931D03*
X036498Y005935D03*
X036498Y005938D03*
X036498Y005942D03*
X036498Y005946D03*
X036498Y005950D03*
X034081Y005950D03*
X034081Y005954D03*
X034081Y005957D03*
X034081Y005946D03*
X033070Y005946D03*
X033070Y005942D03*
X033070Y005938D03*
X033047Y006068D03*
X032625Y005752D03*
X032625Y005748D03*
X032625Y005745D03*
D65*
X032705Y006258D03*
X033997Y005821D03*
X034670Y005809D03*
X035232Y005748D03*
X034434Y007759D03*
X033507Y008256D03*
X034423Y008587D03*
X034624Y008769D03*
X035323Y008329D03*
D66*
X034706Y008408D03*
X034702Y008405D03*
X034345Y008511D03*
X033691Y008477D03*
X033691Y008473D03*
X033691Y008469D03*
X033687Y008458D03*
X033687Y008454D03*
X033687Y008450D03*
X033684Y008439D03*
X033323Y008450D03*
X033323Y008454D03*
X033323Y008458D03*
X033319Y008465D03*
X033319Y008469D03*
X033319Y008473D03*
X033319Y008477D03*
X033319Y008481D03*
X033319Y008484D03*
X033319Y008488D03*
X033323Y008876D03*
X033330Y008906D03*
X033330Y008910D03*
X033684Y008899D03*
X033687Y008887D03*
X033687Y008883D03*
X033687Y008880D03*
X033691Y008868D03*
X033691Y008864D03*
X033691Y008861D03*
X034364Y008956D03*
X034706Y008857D03*
X034706Y008853D03*
X036108Y008321D03*
X036108Y008317D03*
X036108Y008313D03*
X036108Y008310D03*
X036108Y008306D03*
X035515Y007827D03*
X034041Y007591D03*
X034048Y006945D03*
X034048Y006942D03*
X034048Y006938D03*
X034048Y006934D03*
X034048Y006930D03*
X034048Y006926D03*
X034048Y006923D03*
X034048Y006919D03*
X033668Y006896D03*
X033661Y006923D03*
X033661Y006926D03*
X033661Y006930D03*
X033661Y006934D03*
X033661Y006938D03*
X033661Y006942D03*
X033657Y006949D03*
X033657Y006953D03*
X033657Y006957D03*
X033657Y006961D03*
X033657Y006964D03*
X033657Y006968D03*
X033657Y006972D03*
X033657Y006976D03*
X033657Y006980D03*
X033657Y006983D03*
X033657Y006987D03*
X033657Y006991D03*
X035052Y006391D03*
X035044Y006360D03*
X035044Y006356D03*
X035044Y006353D03*
X035040Y006330D03*
X035040Y006326D03*
X035409Y006387D03*
X035409Y006391D03*
X035413Y006375D03*
X035413Y006372D03*
X035420Y006326D03*
X035420Y005995D03*
X035413Y005950D03*
X035413Y005946D03*
X035413Y005942D03*
X035409Y005931D03*
X035052Y005931D03*
X035044Y005961D03*
X035044Y005965D03*
X035044Y005969D03*
X035040Y005992D03*
X035040Y005995D03*
X034375Y006068D03*
X034375Y006071D03*
X034375Y006075D03*
X034375Y006079D03*
X034375Y006083D03*
X034375Y006087D03*
X034375Y006090D03*
X034375Y006094D03*
X034375Y006098D03*
X034375Y006102D03*
X034375Y006106D03*
X034375Y006109D03*
X034375Y006113D03*
X034375Y006117D03*
X034375Y006121D03*
X034375Y006125D03*
X034375Y006128D03*
X034375Y006132D03*
X034375Y006136D03*
X034375Y006140D03*
X034375Y006144D03*
X034375Y006147D03*
X034375Y006151D03*
X034375Y006155D03*
X034375Y006159D03*
X034375Y006163D03*
X034375Y006166D03*
X034375Y006170D03*
X034375Y006174D03*
X034375Y006178D03*
X034375Y006182D03*
X034375Y006185D03*
X034375Y006189D03*
X034375Y006193D03*
X034375Y006197D03*
X034375Y006201D03*
X034375Y006204D03*
X034375Y006208D03*
X034375Y006212D03*
X034375Y006216D03*
X034375Y006220D03*
X034375Y006223D03*
X034375Y006227D03*
X034375Y006231D03*
X034375Y006235D03*
X034375Y006239D03*
X034375Y006242D03*
X034375Y006246D03*
X034375Y006250D03*
X034375Y006254D03*
X034375Y006258D03*
X034375Y006261D03*
X034375Y006265D03*
X034375Y006269D03*
X034375Y006273D03*
X034375Y006277D03*
X034375Y006280D03*
X034375Y006284D03*
X034375Y006288D03*
X034375Y006292D03*
X034375Y006296D03*
X034007Y005748D03*
X033068Y006018D03*
X033068Y006022D03*
X036108Y005813D03*
X036108Y005809D03*
X036108Y005805D03*
X036108Y005802D03*
X036108Y005798D03*
D67*
X036108Y006128D03*
X036108Y006132D03*
X035230Y005752D03*
X034668Y005821D03*
X033995Y005832D03*
X032711Y006254D03*
X032844Y006581D03*
X033866Y006733D03*
X035230Y006569D03*
X035781Y006858D03*
X035781Y006862D03*
X035781Y006866D03*
X035781Y006869D03*
X036435Y006873D03*
X034436Y007747D03*
X034531Y008260D03*
X035321Y008340D03*
X036108Y008636D03*
X036108Y008640D03*
X035781Y009366D03*
X035781Y009370D03*
X035781Y009374D03*
X035781Y009377D03*
X036435Y009381D03*
X033505Y009077D03*
X033505Y008260D03*
D68*
X033347Y008397D03*
X034362Y008534D03*
X034373Y008386D03*
X035038Y008454D03*
X035038Y008458D03*
X035396Y008427D03*
X034689Y008826D03*
X033663Y008937D03*
X033952Y007816D03*
X034024Y007648D03*
X034362Y007660D03*
X034719Y007633D03*
X034719Y007629D03*
X035453Y007660D03*
X035810Y007633D03*
X035810Y007629D03*
X034028Y007227D03*
X033667Y007234D03*
X033667Y007637D03*
X033689Y006862D03*
X034024Y006862D03*
X034389Y006383D03*
X034742Y006387D03*
X034746Y006383D03*
X035073Y006429D03*
X035388Y006429D03*
X035388Y005893D03*
X035073Y005893D03*
X034750Y005927D03*
X034674Y005752D03*
X034389Y005935D03*
X034069Y005919D03*
X033712Y005946D03*
X033712Y005950D03*
X033062Y005919D03*
X033059Y005912D03*
X033028Y006090D03*
X032656Y005961D03*
X032656Y005957D03*
X032656Y005954D03*
X032656Y006318D03*
X032656Y006322D03*
X032663Y006421D03*
X033028Y006425D03*
X032314Y006303D03*
X032314Y006299D03*
D69*
X032660Y006311D03*
X033021Y006098D03*
X032660Y005938D03*
X032967Y005752D03*
X033716Y005935D03*
X033716Y005938D03*
X034066Y005916D03*
X034392Y005923D03*
X034392Y005927D03*
X035080Y005889D03*
X035080Y006432D03*
X034392Y006391D03*
X036346Y006987D03*
X036346Y006991D03*
X036346Y006995D03*
X036346Y006999D03*
X036346Y007002D03*
X036346Y007006D03*
X036346Y007010D03*
X036346Y007014D03*
X036346Y007018D03*
X036346Y007021D03*
X036346Y007025D03*
X036346Y007029D03*
X036346Y007033D03*
X036346Y007037D03*
X036346Y007040D03*
X036346Y007044D03*
X036346Y007048D03*
X036346Y007052D03*
X036346Y007056D03*
X036346Y007059D03*
X036346Y007063D03*
X036346Y007067D03*
X036346Y007071D03*
X036346Y007075D03*
X036346Y007078D03*
X036346Y007082D03*
X036346Y007086D03*
X036346Y007090D03*
X036346Y007094D03*
X036346Y007097D03*
X036346Y007101D03*
X036346Y007105D03*
X036346Y007109D03*
X036346Y007113D03*
X036346Y007116D03*
X036346Y007120D03*
X036346Y007124D03*
X036346Y007128D03*
X036346Y007132D03*
X036346Y007135D03*
X036346Y007139D03*
X036346Y007143D03*
X036346Y007147D03*
X036346Y007151D03*
X036346Y007154D03*
X036346Y007158D03*
X036346Y007162D03*
X036346Y007166D03*
X036346Y007170D03*
X036346Y007173D03*
X036346Y007177D03*
X036346Y007181D03*
X036346Y007185D03*
X036346Y007189D03*
X036346Y007192D03*
X036346Y007196D03*
X036346Y007200D03*
X036346Y007204D03*
X036346Y007208D03*
X036346Y007211D03*
X036346Y007215D03*
X036346Y007219D03*
X036346Y007223D03*
X036346Y007227D03*
X036346Y007230D03*
X036346Y007234D03*
X036346Y007238D03*
X036346Y007242D03*
X036346Y007246D03*
X036346Y007249D03*
X036346Y007253D03*
X036346Y007257D03*
X036346Y007261D03*
X036346Y007265D03*
X036346Y007268D03*
X036346Y007272D03*
X036346Y007276D03*
X036346Y007280D03*
X036346Y007284D03*
X036346Y007287D03*
X036346Y007291D03*
X036346Y007295D03*
X036346Y007299D03*
X036346Y007303D03*
X036346Y007306D03*
X036346Y007310D03*
X036346Y007314D03*
X036346Y007318D03*
X036346Y007322D03*
X036346Y007325D03*
X036346Y007329D03*
X036346Y007333D03*
X036346Y007337D03*
X036346Y007341D03*
X036346Y007344D03*
X036346Y007348D03*
X036346Y007352D03*
X036346Y007356D03*
X036346Y007360D03*
X036346Y007363D03*
X036346Y007367D03*
X036346Y007371D03*
X036346Y007375D03*
X036346Y007379D03*
X036346Y007382D03*
X036346Y007386D03*
X036346Y007390D03*
X036346Y007394D03*
X036346Y007398D03*
X036346Y007401D03*
X036346Y007405D03*
X036346Y007409D03*
X036346Y007413D03*
X036346Y007417D03*
X036346Y007420D03*
X036346Y007424D03*
X036346Y007428D03*
X036346Y007432D03*
X036346Y007436D03*
X036346Y007439D03*
X036346Y007443D03*
X036346Y007447D03*
X036346Y007451D03*
X036346Y007455D03*
X036346Y007458D03*
X036346Y007462D03*
X036346Y007466D03*
X036346Y007470D03*
X036346Y007474D03*
X036346Y007477D03*
X036346Y007481D03*
X036346Y007485D03*
X036346Y007489D03*
X036346Y007493D03*
X036346Y007496D03*
X036346Y007500D03*
X036346Y007504D03*
X036346Y007508D03*
X036346Y007512D03*
X036346Y007515D03*
X036346Y007519D03*
X036346Y007523D03*
X036346Y007527D03*
X036346Y007531D03*
X036346Y007534D03*
X036346Y007538D03*
X036346Y007542D03*
X036346Y007546D03*
X036346Y007550D03*
X036346Y007553D03*
X036346Y007557D03*
X036346Y007561D03*
X036346Y007565D03*
X036346Y007569D03*
X036346Y007572D03*
X036346Y007576D03*
X036346Y007580D03*
X036346Y007584D03*
X036346Y007588D03*
X036346Y007591D03*
X036346Y007595D03*
X036346Y007599D03*
X036346Y007603D03*
X036346Y007607D03*
X036346Y007610D03*
X036346Y007614D03*
X036346Y007618D03*
X036346Y007622D03*
X036346Y007626D03*
X036346Y007629D03*
X036346Y007633D03*
X036346Y007637D03*
X036346Y007641D03*
X036346Y007645D03*
X036346Y007648D03*
X036346Y007652D03*
X036346Y007656D03*
X036346Y007660D03*
X036346Y007664D03*
X036346Y007667D03*
X036346Y007671D03*
X036346Y007675D03*
X036346Y007679D03*
X036346Y007683D03*
X036346Y007686D03*
X036346Y007690D03*
X036346Y007694D03*
X036346Y007698D03*
X036346Y007702D03*
X036346Y007705D03*
X036346Y007709D03*
X036346Y007713D03*
X036346Y007717D03*
X036346Y007721D03*
X036346Y007724D03*
X036346Y007728D03*
X036346Y007732D03*
X036346Y007736D03*
X036346Y007740D03*
X036346Y007743D03*
X036346Y007747D03*
X036346Y007751D03*
X036346Y007755D03*
X036346Y007759D03*
X036346Y007762D03*
X036346Y007766D03*
X036346Y007770D03*
X036346Y007774D03*
X036346Y007778D03*
X036346Y007781D03*
X036346Y007785D03*
X036346Y007789D03*
X036346Y007793D03*
X036346Y007797D03*
X036346Y007800D03*
X036346Y007804D03*
X036346Y007808D03*
X036346Y007812D03*
X036346Y007816D03*
X036346Y007819D03*
X036346Y007823D03*
X036346Y007827D03*
X036346Y007831D03*
X036346Y007835D03*
X036346Y007838D03*
X036346Y007842D03*
X036346Y007846D03*
X036346Y007850D03*
X036346Y007854D03*
X036346Y007857D03*
X036346Y007861D03*
X036346Y007865D03*
X036346Y007869D03*
X036346Y007873D03*
X036346Y007876D03*
X036346Y007880D03*
X036346Y007884D03*
X036346Y007888D03*
X036346Y007892D03*
X036346Y007895D03*
X036346Y007899D03*
X036346Y007903D03*
X036346Y007907D03*
X035806Y007645D03*
X035806Y007641D03*
X033952Y007812D03*
X033655Y008393D03*
X033655Y008940D03*
D70*
X034444Y008606D03*
X034607Y008754D03*
X035789Y009294D03*
X035789Y009298D03*
X035789Y009301D03*
X035789Y009305D03*
X036427Y009309D03*
X036427Y009313D03*
X036427Y009317D03*
X036427Y009320D03*
X036427Y009324D03*
X036427Y006816D03*
X036427Y006812D03*
X036427Y006809D03*
X036427Y006805D03*
X036427Y006801D03*
X035789Y006797D03*
X035789Y006793D03*
X035789Y006790D03*
X035789Y006786D03*
X033866Y006736D03*
X035230Y005756D03*
D71*
X035380Y005889D03*
X034746Y005919D03*
X034674Y005756D03*
X034738Y006394D03*
X035380Y006432D03*
X034020Y007215D03*
X033670Y007223D03*
X033670Y007227D03*
X033670Y007645D03*
X034366Y007664D03*
X034715Y007645D03*
X034715Y007641D03*
X035456Y007664D03*
X035392Y008424D03*
X035042Y008443D03*
X035042Y008446D03*
X034681Y008386D03*
X034366Y008538D03*
X033355Y008393D03*
X034525Y009100D03*
X033024Y006429D03*
X032667Y006429D03*
X032310Y006315D03*
X033017Y006102D03*
X033055Y005908D03*
D72*
X036108Y005775D03*
X036108Y005771D03*
X036108Y005767D03*
X036108Y005764D03*
X036108Y005760D03*
X036108Y008268D03*
X036108Y008272D03*
X036108Y008275D03*
X036108Y008279D03*
X036108Y008283D03*
X034345Y008416D03*
X034345Y008420D03*
X034356Y008944D03*
D73*
X034599Y008747D03*
X034448Y008610D03*
X034531Y008268D03*
X033505Y008268D03*
X033505Y009070D03*
X035793Y009256D03*
X035793Y009260D03*
X035793Y009263D03*
X035793Y009267D03*
X035793Y009271D03*
X036423Y009275D03*
X036423Y009279D03*
X036423Y009282D03*
X036423Y009286D03*
X036423Y009290D03*
X036423Y006782D03*
X036423Y006778D03*
X036423Y006774D03*
X036423Y006771D03*
X036423Y006767D03*
X035793Y006763D03*
X035793Y006759D03*
X035793Y006755D03*
X035793Y006752D03*
X035793Y006748D03*
X035230Y006562D03*
X035230Y005760D03*
D74*
X034748Y005923D03*
X034390Y005931D03*
X034007Y005760D03*
X033714Y005942D03*
X033026Y006094D03*
X032658Y005950D03*
X032658Y005946D03*
X032658Y005942D03*
X032658Y006315D03*
X032665Y006425D03*
X032312Y006311D03*
X032312Y006307D03*
X033950Y007063D03*
X034022Y007219D03*
X034026Y007223D03*
X033669Y007230D03*
X033669Y007641D03*
X034022Y007652D03*
X034425Y007816D03*
X034717Y007637D03*
X035515Y007816D03*
X035808Y007637D03*
X035333Y008268D03*
X035040Y008450D03*
X034687Y008823D03*
X033353Y008940D03*
X036108Y008393D03*
X036108Y008389D03*
X036108Y008386D03*
X036108Y008382D03*
X036108Y008378D03*
X034672Y006562D03*
X034740Y006391D03*
X034390Y006387D03*
X036108Y005885D03*
X036108Y005881D03*
X036108Y005878D03*
X036108Y005874D03*
X036108Y005870D03*
D75*
X034404Y006402D03*
X032967Y005760D03*
X032671Y005912D03*
D76*
X032842Y006573D03*
X035232Y005764D03*
X035798Y006695D03*
X035798Y006698D03*
X035798Y006702D03*
X035798Y006706D03*
X035798Y006710D03*
X036418Y006714D03*
X036418Y006717D03*
X036418Y006721D03*
X036418Y006725D03*
X034529Y008272D03*
X033507Y008272D03*
X034457Y008617D03*
X034590Y008739D03*
X033507Y009066D03*
X035798Y009203D03*
X035798Y009206D03*
X035798Y009210D03*
X035798Y009214D03*
X035798Y009218D03*
X036418Y009222D03*
X036418Y009225D03*
X036418Y009229D03*
X036418Y009233D03*
D77*
X034672Y008807D03*
X035052Y008427D03*
X035329Y008279D03*
X036108Y008435D03*
X036108Y008439D03*
X036108Y008443D03*
X036108Y008446D03*
X036108Y008450D03*
X035515Y007804D03*
X035796Y007660D03*
X034706Y007660D03*
X033680Y007211D03*
X034672Y006550D03*
X034729Y006402D03*
X034736Y005908D03*
X034672Y005764D03*
X034402Y005912D03*
X034003Y005771D03*
X033725Y005919D03*
X032996Y006117D03*
X032669Y006296D03*
X033011Y006436D03*
X032300Y006330D03*
X032669Y005916D03*
X036108Y005927D03*
X036108Y005931D03*
X036108Y005935D03*
X036108Y005938D03*
X036108Y005942D03*
D78*
X036108Y005904D03*
X036108Y005900D03*
X036108Y005897D03*
X036108Y005893D03*
X036108Y005889D03*
X034744Y005916D03*
X034007Y005764D03*
X033718Y005931D03*
X033053Y005904D03*
X032661Y005931D03*
X032661Y005935D03*
X032661Y006307D03*
X032308Y006318D03*
X033019Y006432D03*
X033699Y006858D03*
X033950Y007067D03*
X034018Y007656D03*
X033672Y007648D03*
X034713Y007648D03*
X035515Y007812D03*
X035804Y007648D03*
X035333Y008272D03*
X035044Y008439D03*
X034531Y008237D03*
X034683Y008819D03*
X033505Y009100D03*
X036108Y008412D03*
X036108Y008408D03*
X036108Y008405D03*
X036108Y008401D03*
X036108Y008397D03*
X035230Y006592D03*
X034672Y006558D03*
D79*
X033946Y007082D03*
X033950Y007797D03*
X034429Y007797D03*
X035329Y008287D03*
X034664Y008800D03*
X032293Y006337D03*
X032965Y005764D03*
X034003Y005779D03*
D80*
X035230Y005767D03*
X035230Y006554D03*
X035804Y006641D03*
X035804Y006645D03*
X035804Y006649D03*
X035804Y006653D03*
X036412Y006657D03*
X036412Y006660D03*
X036412Y006664D03*
X036412Y006668D03*
X036412Y006672D03*
X033866Y006744D03*
X034470Y008629D03*
X034577Y008728D03*
X035804Y009149D03*
X035804Y009153D03*
X035804Y009157D03*
X035804Y009161D03*
X036412Y009165D03*
X036412Y009168D03*
X036412Y009172D03*
X036412Y009176D03*
X036412Y009180D03*
D81*
X036108Y008503D03*
X036108Y008500D03*
X036108Y008496D03*
X036108Y008492D03*
X036108Y008488D03*
X035329Y008291D03*
X034531Y008245D03*
X034390Y008560D03*
X034660Y008796D03*
X034428Y007793D03*
X033950Y007793D03*
X033946Y007086D03*
X034672Y006535D03*
X035230Y006584D03*
X036108Y005995D03*
X036108Y005992D03*
X036108Y005988D03*
X036108Y005984D03*
X036108Y005980D03*
X034672Y005775D03*
X034003Y005783D03*
X032965Y005767D03*
X032977Y006128D03*
X032844Y006592D03*
D82*
X032737Y006235D03*
X035230Y006550D03*
X035230Y005771D03*
D83*
X034672Y005771D03*
X036108Y005965D03*
X036108Y005969D03*
X036108Y005973D03*
X036108Y005976D03*
X034672Y006543D03*
X032984Y006125D03*
X032677Y005904D03*
X034387Y008557D03*
X036108Y008484D03*
X036108Y008481D03*
X036108Y008477D03*
X036108Y008473D03*
D84*
X035327Y008298D03*
X034430Y007785D03*
X033948Y007785D03*
X033868Y006721D03*
X032964Y006136D03*
X032964Y005771D03*
X034001Y005790D03*
X034674Y005783D03*
X034525Y009089D03*
D85*
X033505Y009054D03*
X034485Y008644D03*
X034489Y008648D03*
X034554Y008709D03*
X034531Y008283D03*
X033505Y008283D03*
X035230Y006546D03*
X035230Y005775D03*
X032741Y006231D03*
D86*
X032964Y005775D03*
X033944Y007094D03*
X034430Y007781D03*
X035327Y008306D03*
D87*
X034546Y008701D03*
X034542Y008697D03*
X034539Y008693D03*
X034535Y008690D03*
X034501Y008659D03*
X034497Y008655D03*
X033505Y009051D03*
X033505Y008287D03*
X035230Y006543D03*
X035230Y005779D03*
D88*
X034672Y005779D03*
X036108Y005999D03*
X036108Y006003D03*
X036108Y006007D03*
X036108Y006011D03*
X036108Y006014D03*
X034672Y006531D03*
X033946Y007090D03*
X034428Y007789D03*
X035519Y007785D03*
X036108Y008507D03*
X036108Y008511D03*
X036108Y008515D03*
X036108Y008519D03*
X036108Y008522D03*
X034653Y008792D03*
X034394Y008564D03*
X032285Y006341D03*
X032684Y006277D03*
D89*
X032694Y006269D03*
X032964Y005779D03*
X034001Y005802D03*
X034670Y006516D03*
X033868Y006725D03*
X033948Y007778D03*
X035327Y008310D03*
X034639Y008781D03*
X034525Y009085D03*
X035521Y007770D03*
D90*
X035230Y006539D03*
X035230Y005783D03*
D91*
X035230Y005786D03*
X035230Y006535D03*
X032840Y006558D03*
X032753Y006223D03*
X033505Y008294D03*
X033505Y009043D03*
D92*
X034649Y008788D03*
X035329Y008302D03*
X034531Y008249D03*
X035519Y007781D03*
X034672Y006527D03*
X034672Y005786D03*
X034003Y005794D03*
D93*
X033999Y005817D03*
X034672Y005805D03*
X036108Y006090D03*
X036108Y006094D03*
X036108Y006098D03*
X036108Y006102D03*
X036108Y006106D03*
X035230Y006573D03*
X033866Y006729D03*
X032962Y005786D03*
X033946Y007762D03*
X034531Y008256D03*
X034417Y008583D03*
X034630Y008773D03*
X035325Y008325D03*
X036108Y008598D03*
X036108Y008602D03*
X036108Y008606D03*
X036108Y008610D03*
X036108Y008614D03*
X033505Y009081D03*
D94*
X033505Y009039D03*
X033505Y008298D03*
X035230Y006531D03*
X035230Y005790D03*
X032756Y006220D03*
D95*
X032962Y005790D03*
X033995Y005824D03*
X036108Y006109D03*
X036108Y006113D03*
X036108Y006117D03*
X036108Y006121D03*
X036108Y006125D03*
X033946Y007759D03*
X036108Y008617D03*
X036108Y008621D03*
X036108Y008625D03*
X036108Y008629D03*
X036108Y008633D03*
D96*
X035230Y006527D03*
X035230Y005794D03*
D97*
X034672Y005794D03*
X033999Y005805D03*
X036108Y006056D03*
X036108Y006060D03*
X036108Y006064D03*
X036108Y006068D03*
X036108Y006071D03*
X034432Y007774D03*
X033946Y007774D03*
X035325Y008313D03*
X036108Y008564D03*
X036108Y008568D03*
X036108Y008572D03*
X036108Y008576D03*
X036108Y008579D03*
X034409Y008576D03*
D98*
X034427Y008591D03*
X034620Y008766D03*
X034525Y009077D03*
X035779Y009381D03*
X035323Y008336D03*
X034434Y007751D03*
X033944Y007755D03*
X035779Y006873D03*
X034670Y005817D03*
X034670Y005813D03*
X033997Y005828D03*
X032960Y005794D03*
D99*
X035230Y005798D03*
X035230Y006524D03*
X033505Y008306D03*
X033505Y009032D03*
D100*
X033507Y009089D03*
X033507Y008249D03*
X033948Y007781D03*
X035521Y007778D03*
X035228Y006581D03*
X034670Y006524D03*
X034001Y005798D03*
D101*
X034670Y005824D03*
X032960Y005798D03*
X035783Y006839D03*
X035783Y006843D03*
X035783Y006847D03*
X035783Y006850D03*
X035783Y006854D03*
X036433Y006858D03*
X036433Y006862D03*
X036433Y006866D03*
X036433Y006869D03*
X033944Y007751D03*
X034430Y008595D03*
X034617Y008762D03*
X034525Y009073D03*
X035783Y009347D03*
X035783Y009351D03*
X035783Y009355D03*
X035783Y009358D03*
X035783Y009362D03*
X036433Y009366D03*
X036433Y009370D03*
X036433Y009374D03*
X036433Y009377D03*
D102*
X034527Y009024D03*
X033505Y009024D03*
X033505Y008310D03*
X032840Y006546D03*
X035230Y006520D03*
X035230Y006516D03*
X035230Y005802D03*
D103*
X034672Y005802D03*
X033999Y005809D03*
X036108Y006075D03*
X036108Y006079D03*
X036108Y006083D03*
X036108Y006087D03*
X034432Y007766D03*
X033946Y007770D03*
X035325Y008317D03*
X036108Y008583D03*
X036108Y008587D03*
X036108Y008591D03*
X036108Y008595D03*
X034634Y008777D03*
X034413Y008579D03*
D104*
X034529Y008264D03*
X033507Y008264D03*
X033507Y009073D03*
X035787Y009309D03*
X035787Y009313D03*
X035787Y009317D03*
X035787Y009320D03*
X035787Y009324D03*
X036429Y009328D03*
X036429Y009332D03*
X036429Y009336D03*
X036429Y009339D03*
X036429Y009343D03*
X036429Y006835D03*
X036429Y006831D03*
X036429Y006828D03*
X036429Y006824D03*
X036429Y006820D03*
X035787Y006816D03*
X035787Y006812D03*
X035787Y006809D03*
X035787Y006805D03*
X035787Y006801D03*
X035228Y006565D03*
X032960Y005802D03*
X032717Y006250D03*
D105*
X032770Y006208D03*
X033864Y006774D03*
X035232Y005805D03*
X034529Y008310D03*
X033507Y008313D03*
D106*
X034601Y008750D03*
X034525Y009070D03*
X035791Y009275D03*
X035791Y009279D03*
X035791Y009282D03*
X035791Y009286D03*
X035791Y009290D03*
X036425Y009294D03*
X036425Y009298D03*
X036425Y009301D03*
X036425Y009305D03*
X036425Y006797D03*
X036425Y006793D03*
X036425Y006790D03*
X036425Y006786D03*
X035791Y006782D03*
X035791Y006778D03*
X035791Y006774D03*
X035791Y006771D03*
X035791Y006767D03*
X032842Y006577D03*
X032720Y006246D03*
X032960Y005805D03*
D107*
X032840Y006543D03*
X035230Y006512D03*
X035230Y005809D03*
X034531Y008313D03*
X033505Y008317D03*
X033505Y009020D03*
X034527Y009020D03*
D108*
X032836Y005809D03*
D109*
X035230Y005813D03*
X035230Y006508D03*
X033505Y008321D03*
X033505Y009016D03*
X034527Y009016D03*
D110*
X034525Y009081D03*
X033997Y005813D03*
D111*
X032838Y005813D03*
X032838Y005817D03*
D112*
X032842Y006539D03*
X033864Y006782D03*
X035228Y006505D03*
X035232Y005817D03*
X034529Y008321D03*
X034525Y009013D03*
X033507Y009013D03*
D113*
X034527Y009009D03*
X035230Y006501D03*
X035230Y005821D03*
D114*
X032844Y005832D03*
X032840Y005824D03*
X032840Y005821D03*
D115*
X035230Y005824D03*
X035230Y005828D03*
X035230Y006493D03*
X035230Y006497D03*
X033862Y006790D03*
X033505Y008332D03*
X033505Y009001D03*
X033505Y009005D03*
X034527Y009005D03*
X034527Y009001D03*
D116*
X034550Y007743D03*
X033836Y007743D03*
X033836Y007740D03*
X033836Y007736D03*
X033836Y007143D03*
X033836Y007139D03*
X034558Y006474D03*
X034558Y006470D03*
X034558Y006467D03*
X032844Y006470D03*
X034558Y005828D03*
X035641Y007743D03*
X035641Y007747D03*
X035641Y007751D03*
D117*
X032842Y005828D03*
D118*
X035230Y005832D03*
X035230Y006486D03*
X035230Y006489D03*
X033862Y006793D03*
X033505Y008336D03*
X033505Y008340D03*
X033505Y008997D03*
X034527Y008997D03*
D119*
X035209Y008355D03*
X035209Y008351D03*
X035209Y008348D03*
X035209Y008344D03*
X035639Y007740D03*
X035639Y007736D03*
X035639Y007732D03*
X034548Y007732D03*
X034548Y007736D03*
X034548Y007740D03*
X034560Y006463D03*
X034560Y006459D03*
X034560Y006455D03*
X034560Y006451D03*
X034560Y005840D03*
X034560Y005836D03*
X034560Y005832D03*
X033883Y005836D03*
X033883Y005840D03*
X033883Y005843D03*
X033883Y005847D03*
X032842Y006467D03*
D120*
X032842Y006527D03*
X032789Y006189D03*
X035232Y005836D03*
X034529Y008336D03*
X034529Y008340D03*
X034529Y008994D03*
X033507Y008994D03*
D121*
X032846Y005840D03*
X032846Y005836D03*
D122*
X035230Y005840D03*
X035230Y006478D03*
X035230Y006482D03*
X033862Y006797D03*
X034527Y008990D03*
D123*
X034529Y008986D03*
X033507Y008986D03*
X034529Y008344D03*
X032842Y006524D03*
X032793Y006185D03*
X035232Y005843D03*
D124*
X034561Y005843D03*
X034561Y005847D03*
X034561Y005851D03*
X033885Y005851D03*
X033885Y005855D03*
X033885Y005859D03*
X034561Y006432D03*
X034561Y006436D03*
X034561Y006440D03*
X034561Y006444D03*
X034561Y006448D03*
X032844Y006455D03*
X032844Y006459D03*
X032844Y006463D03*
X033839Y007154D03*
X033839Y007158D03*
X033839Y007162D03*
X033839Y007713D03*
X033839Y007717D03*
X033839Y007721D03*
X034546Y007721D03*
X034546Y007724D03*
X034546Y007728D03*
X034546Y007717D03*
X035637Y007717D03*
X035637Y007721D03*
X035637Y007724D03*
X035637Y007728D03*
X035211Y008359D03*
X035211Y008363D03*
X035211Y008367D03*
D125*
X032848Y005847D03*
X032848Y005843D03*
D126*
X032794Y006182D03*
X032840Y006520D03*
X033862Y006801D03*
X035230Y006474D03*
X035230Y006470D03*
X035230Y005847D03*
X034531Y008348D03*
X033505Y008351D03*
X033505Y008355D03*
X033505Y008978D03*
X033505Y008982D03*
X034527Y008982D03*
D127*
X033661Y008397D03*
X035515Y007819D03*
X035812Y007626D03*
X035812Y007622D03*
X034029Y007230D03*
X034029Y006866D03*
X034672Y006565D03*
X034748Y006379D03*
X034748Y006375D03*
X034387Y006375D03*
X034387Y006379D03*
X034387Y005942D03*
X034387Y005938D03*
X034071Y005923D03*
X033710Y005954D03*
X033710Y005957D03*
X033034Y006087D03*
X032654Y005976D03*
X032654Y005973D03*
X032654Y005969D03*
X032654Y005965D03*
X032654Y006326D03*
X032844Y006600D03*
X036108Y005866D03*
X036108Y005862D03*
X036108Y005859D03*
X036108Y005855D03*
X036108Y005851D03*
X036108Y008359D03*
X036108Y008363D03*
X036108Y008367D03*
X036108Y008370D03*
X036108Y008374D03*
D128*
X033860Y006805D03*
X035232Y005851D03*
D129*
X032850Y005851D03*
X032850Y005855D03*
X032850Y005859D03*
D130*
X032798Y006178D03*
X033862Y006809D03*
X035230Y006467D03*
X035230Y006463D03*
X035230Y005859D03*
X035230Y005855D03*
X033505Y008359D03*
X033505Y008363D03*
X033505Y008971D03*
X033505Y008975D03*
X034527Y008975D03*
D131*
X035213Y008386D03*
X035213Y008382D03*
X035213Y008378D03*
X035213Y008374D03*
X035213Y008370D03*
X035635Y007713D03*
X035635Y007709D03*
X035635Y007705D03*
X035635Y007702D03*
X034544Y007702D03*
X034544Y007705D03*
X034544Y007709D03*
X034544Y007713D03*
X033841Y007709D03*
X033841Y007705D03*
X033841Y007702D03*
X033841Y007698D03*
X033841Y007694D03*
X033841Y007177D03*
X033841Y007173D03*
X033841Y007170D03*
X033841Y007166D03*
X034563Y006429D03*
X034563Y006425D03*
X034563Y006421D03*
X034563Y006417D03*
X034563Y006413D03*
X034563Y005862D03*
X034563Y005859D03*
X034563Y005855D03*
X033887Y005862D03*
X033887Y005866D03*
X033887Y005870D03*
X033887Y005874D03*
X033887Y005878D03*
D132*
X035230Y005866D03*
X035230Y005862D03*
X035230Y006455D03*
X035230Y006459D03*
D133*
X032851Y005874D03*
X032851Y005870D03*
X032851Y005866D03*
X032851Y005862D03*
D134*
X033889Y005881D03*
X033889Y005885D03*
X033889Y005889D03*
X033889Y005893D03*
X033889Y005897D03*
X033889Y005900D03*
X034565Y005881D03*
X034565Y005878D03*
X034565Y005874D03*
X034565Y005870D03*
X034565Y005866D03*
X034565Y006406D03*
X034565Y006410D03*
X032844Y006444D03*
X032844Y006448D03*
X032844Y006451D03*
X034542Y007679D03*
X034542Y007683D03*
X034542Y007686D03*
X034542Y007690D03*
X034542Y007694D03*
X034542Y007698D03*
X035633Y007698D03*
X035633Y007694D03*
X035633Y007690D03*
X035633Y007686D03*
X035633Y007683D03*
X035633Y007679D03*
D135*
X034529Y008367D03*
X034529Y008370D03*
X033503Y008374D03*
X033507Y008959D03*
X033860Y006820D03*
X033860Y006816D03*
X032842Y006508D03*
X032804Y006170D03*
X035228Y006451D03*
X035232Y005870D03*
D136*
X035230Y005874D03*
X035230Y005878D03*
X035230Y006444D03*
X035230Y006448D03*
X032840Y006505D03*
X032806Y006166D03*
X033505Y008378D03*
X033505Y008382D03*
X033505Y008952D03*
X033505Y008956D03*
D137*
X032857Y005893D03*
X032853Y005878D03*
D138*
X032810Y006163D03*
X033858Y006828D03*
X035230Y006436D03*
X035230Y005885D03*
X035230Y005881D03*
X033505Y008389D03*
X033505Y008944D03*
D139*
X032855Y005889D03*
X032855Y005885D03*
X032855Y005881D03*
D140*
X033891Y005904D03*
X033891Y005908D03*
X034567Y005904D03*
X034567Y005900D03*
X034567Y005897D03*
X034567Y005893D03*
X034567Y005889D03*
X034567Y005885D03*
X032846Y006440D03*
X033845Y007200D03*
X033845Y007204D03*
X033845Y007664D03*
X034541Y007671D03*
X034541Y007675D03*
X035631Y007675D03*
X035631Y007671D03*
X035217Y008412D03*
X035217Y008416D03*
D141*
X033950Y007800D03*
X033041Y005897D03*
D142*
X032688Y005897D03*
X032688Y006273D03*
X036108Y006033D03*
X036108Y006030D03*
X036108Y006026D03*
X036108Y006022D03*
X036108Y006018D03*
X036108Y008526D03*
X036108Y008530D03*
X036108Y008534D03*
X036108Y008538D03*
X036108Y008541D03*
X034398Y008568D03*
D143*
X034679Y008815D03*
X035048Y008431D03*
X033950Y007071D03*
X033676Y007215D03*
X032304Y006326D03*
X033007Y006109D03*
X033049Y005900D03*
X034740Y005912D03*
D144*
X032682Y005900D03*
X032682Y006280D03*
D145*
X032665Y006303D03*
X032665Y005923D03*
X033722Y005923D03*
X034398Y005916D03*
X034398Y006398D03*
X034672Y006554D03*
X036108Y005923D03*
X036108Y005919D03*
X036108Y005916D03*
X036108Y005912D03*
X036108Y005908D03*
X035515Y007808D03*
X036108Y008416D03*
X036108Y008420D03*
X036108Y008424D03*
X036108Y008427D03*
X036108Y008431D03*
D146*
X035517Y007797D03*
X034427Y007800D03*
X033948Y007078D03*
X033686Y007208D03*
X033868Y006717D03*
X032675Y006288D03*
X032990Y006121D03*
X034408Y005908D03*
X034381Y008553D03*
D147*
X035061Y008420D03*
X034696Y007667D03*
X035787Y007667D03*
X034674Y006539D03*
X033735Y005912D03*
X032679Y006284D03*
D148*
X032661Y006417D03*
X032316Y006296D03*
X032316Y006292D03*
X033030Y006421D03*
X033064Y005923D03*
X033060Y005916D03*
X034751Y005931D03*
X034751Y005935D03*
X033665Y007238D03*
X033665Y007242D03*
X033665Y007246D03*
X033665Y007629D03*
X033665Y007633D03*
X034026Y007645D03*
X034360Y007656D03*
X034425Y007819D03*
X034721Y007626D03*
X034721Y007622D03*
X035451Y007656D03*
X035398Y008431D03*
X035036Y008462D03*
X035036Y008465D03*
X034691Y008830D03*
X034675Y008963D03*
X034360Y008530D03*
D149*
X034373Y008545D03*
X034677Y008811D03*
X034427Y007808D03*
X034708Y007656D03*
X034012Y007660D03*
X033952Y007804D03*
X033678Y007656D03*
X034012Y007208D03*
X032842Y006596D03*
X032667Y006299D03*
X033002Y006113D03*
X032667Y005919D03*
X035798Y007656D03*
D150*
X034425Y007827D03*
X034045Y007565D03*
X034045Y007561D03*
X034045Y007557D03*
X034045Y007553D03*
X034045Y007550D03*
X034045Y007546D03*
X034045Y007542D03*
X034045Y007538D03*
X034045Y007534D03*
X034045Y007531D03*
X034045Y007527D03*
X034045Y007523D03*
X034045Y007519D03*
X033665Y006915D03*
X033665Y006911D03*
X033665Y006907D03*
X034045Y006907D03*
X034045Y006904D03*
X035048Y006379D03*
X035048Y006375D03*
X035048Y006372D03*
X035416Y006356D03*
X035416Y006353D03*
X035416Y006349D03*
X035713Y006349D03*
X035713Y006353D03*
X035713Y006356D03*
X035713Y006360D03*
X035713Y006364D03*
X035713Y006368D03*
X035713Y006372D03*
X035713Y006375D03*
X035713Y006379D03*
X035713Y006383D03*
X035713Y006387D03*
X035713Y006391D03*
X035713Y006345D03*
X035713Y006341D03*
X035713Y006337D03*
X035713Y006334D03*
X035713Y006330D03*
X035713Y006326D03*
X035713Y006322D03*
X035713Y006318D03*
X035713Y006315D03*
X035713Y006311D03*
X035713Y006307D03*
X035713Y006303D03*
X035713Y006299D03*
X035713Y006296D03*
X035713Y006292D03*
X035713Y006288D03*
X035713Y006284D03*
X035713Y006280D03*
X035713Y006277D03*
X035713Y006273D03*
X035713Y006269D03*
X035713Y006265D03*
X035713Y006261D03*
X035713Y006258D03*
X035713Y006254D03*
X035713Y006250D03*
X035713Y006246D03*
X035416Y005969D03*
X035416Y005965D03*
X035416Y005961D03*
X035048Y005950D03*
X035048Y005946D03*
X035048Y005942D03*
X036503Y006246D03*
X036503Y006250D03*
X036503Y006254D03*
X036503Y006258D03*
X036503Y006261D03*
X036503Y006265D03*
X036503Y006269D03*
X036503Y006273D03*
X036503Y006277D03*
X036503Y006280D03*
X036503Y006284D03*
X036503Y006288D03*
X036503Y006292D03*
X036503Y006296D03*
X036503Y006299D03*
X036503Y006303D03*
X036503Y006307D03*
X036503Y006311D03*
X036503Y006315D03*
X036503Y006318D03*
X036503Y006322D03*
X036503Y006326D03*
X036503Y006330D03*
X036503Y006334D03*
X036503Y006337D03*
X036503Y006341D03*
X036503Y006345D03*
X036503Y006349D03*
X036503Y006353D03*
X036503Y006356D03*
X036503Y006360D03*
X036503Y006364D03*
X036503Y006368D03*
X036503Y006372D03*
X036503Y006375D03*
X036503Y006379D03*
X036503Y006383D03*
X036503Y006387D03*
X036503Y006391D03*
X033072Y006007D03*
X033072Y006003D03*
X033072Y005999D03*
X033072Y005995D03*
X035333Y008256D03*
X035713Y008754D03*
X035713Y008758D03*
X035713Y008762D03*
X035713Y008766D03*
X035713Y008769D03*
X035713Y008773D03*
X035713Y008777D03*
X035713Y008781D03*
X035713Y008785D03*
X035713Y008788D03*
X035713Y008792D03*
X035713Y008796D03*
X035713Y008800D03*
X035713Y008804D03*
X035713Y008807D03*
X035713Y008811D03*
X035713Y008815D03*
X035713Y008819D03*
X035713Y008823D03*
X035713Y008826D03*
X035713Y008830D03*
X035713Y008834D03*
X035713Y008838D03*
X035713Y008842D03*
X035713Y008845D03*
X035713Y008849D03*
X035713Y008853D03*
X035713Y008857D03*
X035713Y008861D03*
X035713Y008864D03*
X035713Y008868D03*
X035713Y008872D03*
X035713Y008876D03*
X035713Y008880D03*
X035713Y008883D03*
X035713Y008887D03*
X035713Y008891D03*
X035713Y008895D03*
X035713Y008899D03*
X036503Y008899D03*
X036503Y008895D03*
X036503Y008891D03*
X036503Y008887D03*
X036503Y008883D03*
X036503Y008880D03*
X036503Y008876D03*
X036503Y008872D03*
X036503Y008868D03*
X036503Y008864D03*
X036503Y008861D03*
X036503Y008857D03*
X036503Y008853D03*
X036503Y008849D03*
X036503Y008845D03*
X036503Y008842D03*
X036503Y008838D03*
X036503Y008834D03*
X036503Y008830D03*
X036503Y008826D03*
X036503Y008823D03*
X036503Y008819D03*
X036503Y008815D03*
X036503Y008811D03*
X036503Y008807D03*
X036503Y008804D03*
X036503Y008800D03*
X036503Y008796D03*
X036503Y008792D03*
X036503Y008788D03*
X036503Y008785D03*
X036503Y008781D03*
X036503Y008777D03*
X036503Y008773D03*
X036503Y008769D03*
X036503Y008766D03*
X036503Y008762D03*
X036503Y008758D03*
X036503Y008754D03*
X033695Y008834D03*
X033695Y008838D03*
X033326Y008895D03*
X033326Y008899D03*
X033315Y008576D03*
X033315Y008572D03*
X033315Y008568D03*
X033315Y008564D03*
X033315Y008560D03*
X033315Y008557D03*
X033315Y008553D03*
X033315Y008549D03*
X033315Y008545D03*
X033315Y008541D03*
X033315Y008538D03*
X033315Y008534D03*
X033315Y008530D03*
X033315Y008526D03*
X033315Y008522D03*
X033315Y008519D03*
X033315Y008515D03*
X033315Y008511D03*
X033315Y008507D03*
X033315Y008503D03*
X033315Y008500D03*
X033315Y008496D03*
X033695Y008503D03*
D151*
X034421Y007842D03*
X035511Y007842D03*
X036013Y008644D03*
X036013Y008648D03*
X036013Y008652D03*
X036009Y008671D03*
X036203Y008652D03*
X036203Y008648D03*
X036203Y008644D03*
X036207Y008671D03*
X032122Y006489D03*
X032122Y006486D03*
X036009Y006163D03*
X036013Y006144D03*
X036013Y006140D03*
X036013Y006136D03*
X036203Y006136D03*
X036203Y006140D03*
X036203Y006144D03*
X036207Y006163D03*
D152*
X034554Y006489D03*
X034554Y006493D03*
X034554Y006497D03*
X033858Y006854D03*
X033832Y007124D03*
X033832Y007128D03*
X032844Y006478D03*
X032821Y006144D03*
D153*
X032819Y006147D03*
X032842Y006482D03*
X032842Y006486D03*
X034552Y006501D03*
X034552Y006505D03*
D154*
X032842Y006489D03*
X032815Y006151D03*
X033826Y007105D03*
D155*
X033858Y006839D03*
X033858Y006835D03*
X032813Y006155D03*
D156*
X032812Y006159D03*
X032842Y006497D03*
X033860Y006831D03*
D157*
X032124Y006482D03*
X036007Y006182D03*
X036007Y006178D03*
X036007Y006174D03*
X036007Y006170D03*
X036007Y006166D03*
X036209Y006166D03*
X036209Y006170D03*
X036209Y006174D03*
X036209Y006178D03*
X036209Y006182D03*
X036209Y008674D03*
X036209Y008678D03*
X036209Y008682D03*
X036209Y008686D03*
X036209Y008690D03*
X036007Y008690D03*
X036007Y008686D03*
X036007Y008682D03*
X036007Y008678D03*
X036007Y008674D03*
D158*
X034529Y008971D03*
X033507Y008967D03*
X033503Y008367D03*
X034529Y008363D03*
X034529Y008359D03*
X034529Y008355D03*
X033860Y006812D03*
X032842Y006512D03*
X032800Y006174D03*
D159*
X032126Y006474D03*
X032126Y006478D03*
X034672Y006588D03*
X035986Y006292D03*
X035986Y006288D03*
X035990Y006273D03*
X035990Y006269D03*
X035990Y006265D03*
X035990Y006261D03*
X035994Y006254D03*
X035994Y006250D03*
X035994Y006246D03*
X035994Y006242D03*
X035994Y006239D03*
X035998Y006235D03*
X035998Y006231D03*
X035998Y006227D03*
X035998Y006223D03*
X035998Y006220D03*
X036002Y006208D03*
X036002Y006204D03*
X036211Y006185D03*
X036214Y006204D03*
X036214Y006208D03*
X036214Y006212D03*
X036218Y006220D03*
X036218Y006223D03*
X036218Y006227D03*
X036218Y006231D03*
X036218Y006235D03*
X036222Y006246D03*
X036222Y006250D03*
X036222Y006254D03*
X036226Y006273D03*
X036211Y008693D03*
X036214Y008712D03*
X036214Y008716D03*
X036214Y008720D03*
X036218Y008728D03*
X036218Y008731D03*
X036218Y008735D03*
X036218Y008739D03*
X036218Y008743D03*
X036222Y008754D03*
X036222Y008758D03*
X036222Y008762D03*
X036226Y008781D03*
X035998Y008743D03*
X035998Y008739D03*
X035998Y008735D03*
X035998Y008731D03*
X035998Y008728D03*
X036002Y008716D03*
X036002Y008712D03*
X035994Y008747D03*
X035994Y008750D03*
X035994Y008754D03*
X035994Y008758D03*
X035994Y008762D03*
X035990Y008769D03*
X035990Y008773D03*
X035990Y008777D03*
X035990Y008781D03*
X035986Y008796D03*
X035986Y008800D03*
X034527Y009111D03*
D160*
X034529Y008332D03*
X032842Y006531D03*
X032785Y006193D03*
D161*
X032781Y006197D03*
X032842Y006535D03*
X033864Y006786D03*
X034529Y008325D03*
X034529Y008329D03*
D162*
X032777Y006201D03*
D163*
X032774Y006204D03*
X033864Y006778D03*
X034529Y008317D03*
D164*
X034529Y008306D03*
X033507Y009028D03*
X033864Y006771D03*
X032766Y006212D03*
D165*
X032762Y006216D03*
X032842Y006550D03*
X033864Y006767D03*
X034529Y008302D03*
X034525Y009032D03*
D166*
X034525Y009047D03*
X034529Y008686D03*
X034525Y008682D03*
X034522Y008678D03*
X034518Y008674D03*
X034514Y008671D03*
X034510Y008667D03*
X034506Y008663D03*
X034529Y008287D03*
X032842Y006562D03*
X032747Y006227D03*
D167*
X032732Y006239D03*
X032238Y006345D03*
X032238Y006349D03*
X032238Y006353D03*
X032238Y006356D03*
X032238Y006360D03*
X032238Y006364D03*
X032238Y006368D03*
X032238Y006372D03*
X032238Y006375D03*
X032238Y006379D03*
X032238Y006383D03*
X032238Y006387D03*
X032238Y006391D03*
X032238Y006394D03*
X032238Y006398D03*
X032238Y006402D03*
X032238Y006406D03*
X032238Y006410D03*
X032238Y006413D03*
X032238Y006417D03*
X032238Y006421D03*
X032238Y006425D03*
X032238Y006429D03*
X032238Y006432D03*
X032238Y006436D03*
X032238Y006440D03*
X032238Y006444D03*
X032238Y006448D03*
X032238Y006451D03*
X032238Y006455D03*
X032238Y006459D03*
X032238Y006463D03*
X032238Y006467D03*
X032238Y006470D03*
X033507Y008275D03*
X034529Y008275D03*
X034465Y008625D03*
X033507Y009062D03*
D168*
X033866Y006740D03*
X032726Y006242D03*
X035230Y006558D03*
D169*
X032842Y006584D03*
X032701Y006261D03*
X033948Y007766D03*
X034434Y007762D03*
X035521Y007759D03*
X035323Y008321D03*
D170*
X035971Y008876D03*
X035971Y008880D03*
X035971Y008883D03*
X035971Y008887D03*
X035971Y008891D03*
X035960Y008933D03*
X035960Y008937D03*
X035960Y008940D03*
X035960Y008944D03*
X035948Y008986D03*
X035948Y008990D03*
X035948Y008994D03*
X035948Y008997D03*
X035948Y009001D03*
X035929Y009077D03*
X035929Y009081D03*
X035929Y009085D03*
X035929Y009089D03*
X036287Y009092D03*
X036233Y008834D03*
X036233Y008830D03*
X036233Y008826D03*
X036233Y008823D03*
X036287Y006584D03*
X036233Y006326D03*
X036233Y006322D03*
X036233Y006318D03*
X036233Y006315D03*
X035971Y006368D03*
X035971Y006372D03*
X035971Y006375D03*
X035971Y006379D03*
X035971Y006383D03*
X035960Y006425D03*
X035960Y006429D03*
X035960Y006432D03*
X035960Y006436D03*
X035948Y006478D03*
X035948Y006482D03*
X035948Y006486D03*
X035948Y006489D03*
X035948Y006493D03*
X035929Y006569D03*
X035929Y006573D03*
X035929Y006577D03*
X035929Y006581D03*
D171*
X032036Y006337D03*
D172*
X032050Y006341D03*
D173*
X032679Y006436D03*
X033948Y007075D03*
X034427Y007804D03*
X034377Y008549D03*
X034525Y009096D03*
D174*
X033507Y008948D03*
X034529Y008382D03*
X034529Y008378D03*
X034529Y008374D03*
X032842Y006501D03*
X035228Y006440D03*
D175*
X034556Y006478D03*
X034556Y006482D03*
X034556Y006486D03*
X033834Y007132D03*
X033834Y007135D03*
X033834Y007747D03*
X035643Y007755D03*
X032842Y006474D03*
D176*
X032840Y006493D03*
X033824Y007097D03*
X033824Y007101D03*
D177*
X034672Y006592D03*
X032118Y006497D03*
D178*
X033858Y006843D03*
X033858Y006847D03*
X033828Y007109D03*
X033828Y007113D03*
X034550Y006512D03*
X034550Y006508D03*
D179*
X033870Y006702D03*
X032114Y006508D03*
D180*
X032112Y006512D03*
X033952Y007033D03*
X035513Y007846D03*
D181*
X034529Y008351D03*
X034529Y008978D03*
X032842Y006516D03*
D182*
X036277Y006535D03*
X036277Y006539D03*
X036277Y006543D03*
X036277Y006546D03*
X036277Y009043D03*
X036277Y009047D03*
X036277Y009051D03*
X036277Y009054D03*
D183*
X033953Y007850D03*
X033953Y007029D03*
X032103Y006535D03*
D184*
X032101Y006539D03*
D185*
X032097Y006546D03*
X034670Y006600D03*
D186*
X033864Y006763D03*
X032842Y006554D03*
X034529Y008298D03*
X034525Y009035D03*
D187*
X033953Y007025D03*
X032091Y006554D03*
D188*
X032090Y006558D03*
D189*
X032088Y006562D03*
D190*
X032842Y006565D03*
X036406Y006607D03*
X036406Y006611D03*
X036406Y006615D03*
X036406Y006619D03*
X034560Y008712D03*
X034563Y008716D03*
X034480Y008640D03*
X034525Y009054D03*
X036406Y009115D03*
X036406Y009119D03*
X036406Y009123D03*
X036406Y009127D03*
D191*
X032844Y006611D03*
X032084Y006565D03*
X034668Y006603D03*
D192*
X035806Y006622D03*
X035806Y006626D03*
X035806Y006630D03*
X035806Y006634D03*
X035806Y006638D03*
X036410Y006641D03*
X036410Y006645D03*
X036410Y006649D03*
X036410Y006653D03*
X032842Y006569D03*
X034472Y008633D03*
X034567Y008720D03*
X034571Y008724D03*
X034525Y009058D03*
X035806Y009130D03*
X035806Y009134D03*
X035806Y009138D03*
X035806Y009142D03*
X035806Y009146D03*
X036410Y009149D03*
X036410Y009153D03*
X036410Y009157D03*
X036410Y009161D03*
D193*
X032082Y006569D03*
D194*
X032078Y006573D03*
X033955Y007857D03*
D195*
X032072Y006581D03*
D196*
X032069Y006584D03*
D197*
X032059Y006592D03*
D198*
X032053Y006596D03*
D199*
X032048Y006600D03*
D200*
X032038Y006603D03*
D201*
X033866Y006748D03*
X035808Y006619D03*
X035808Y006615D03*
X035808Y006611D03*
X035808Y006607D03*
X036408Y006622D03*
X036408Y006626D03*
X036408Y006630D03*
X036408Y006634D03*
X036408Y006638D03*
X034531Y008279D03*
X033505Y008279D03*
X034478Y008636D03*
X033505Y009058D03*
X035808Y009115D03*
X035808Y009119D03*
X035808Y009123D03*
X035808Y009127D03*
X036408Y009130D03*
X036408Y009134D03*
X036408Y009138D03*
X036408Y009142D03*
X036408Y009146D03*
D202*
X032844Y006607D03*
D203*
X035802Y006657D03*
X035802Y006660D03*
X035802Y006664D03*
X035802Y006668D03*
X035802Y006672D03*
X036414Y006676D03*
X036414Y006679D03*
X036414Y006683D03*
X036414Y006687D03*
X036414Y006691D03*
X034579Y008731D03*
X035802Y009165D03*
X035802Y009168D03*
X035802Y009172D03*
X035802Y009176D03*
X035802Y009180D03*
X036414Y009184D03*
X036414Y009187D03*
X036414Y009191D03*
X036414Y009195D03*
X036414Y009199D03*
D204*
X036416Y009203D03*
X036416Y009206D03*
X036416Y009210D03*
X036416Y009214D03*
X036416Y009218D03*
X035800Y009199D03*
X035800Y009195D03*
X035800Y009191D03*
X035800Y009187D03*
X035800Y009184D03*
X034527Y009062D03*
X034584Y008735D03*
X034463Y008621D03*
X035800Y006691D03*
X035800Y006687D03*
X035800Y006683D03*
X035800Y006679D03*
X035800Y006676D03*
X036416Y006695D03*
X036416Y006698D03*
X036416Y006702D03*
X036416Y006706D03*
X036416Y006710D03*
D205*
X033953Y007021D03*
X033870Y006698D03*
D206*
X035796Y006714D03*
X035796Y006717D03*
X035796Y006721D03*
X035796Y006725D03*
X036420Y006729D03*
X036420Y006733D03*
X036420Y006736D03*
X036420Y006740D03*
X036420Y006744D03*
X036420Y009237D03*
X036420Y009241D03*
X036420Y009244D03*
X036420Y009248D03*
X036420Y009252D03*
X035796Y009233D03*
X035796Y009229D03*
X035796Y009225D03*
X035796Y009222D03*
D207*
X035795Y009237D03*
X035795Y009241D03*
X035795Y009244D03*
X035795Y009248D03*
X035795Y009252D03*
X036422Y009256D03*
X036422Y009260D03*
X036422Y009263D03*
X036422Y009267D03*
X036422Y009271D03*
X034525Y009066D03*
X034453Y008614D03*
X036422Y006763D03*
X036422Y006759D03*
X036422Y006755D03*
X036422Y006752D03*
X036422Y006748D03*
X035795Y006744D03*
X035795Y006740D03*
X035795Y006736D03*
X035795Y006733D03*
X035795Y006729D03*
D208*
X033864Y006752D03*
X034552Y008705D03*
D209*
X033505Y009047D03*
X033505Y008291D03*
X033866Y006755D03*
D210*
X033864Y006759D03*
X034529Y008294D03*
D211*
X034436Y008598D03*
X034611Y008758D03*
X035785Y009328D03*
X035785Y009332D03*
X035785Y009336D03*
X035785Y009339D03*
X035785Y009343D03*
X036431Y009347D03*
X036431Y009351D03*
X036431Y009355D03*
X036431Y009358D03*
X036431Y009362D03*
X036431Y006854D03*
X036431Y006850D03*
X036431Y006847D03*
X036431Y006843D03*
X036431Y006839D03*
X035785Y006835D03*
X035785Y006831D03*
X035785Y006828D03*
X035785Y006824D03*
X035785Y006820D03*
D212*
X033860Y006824D03*
X033503Y008386D03*
D213*
X033830Y007120D03*
X033830Y007116D03*
X033857Y006850D03*
D214*
X033954Y007018D03*
D215*
X033838Y007147D03*
X033838Y007151D03*
X033838Y007724D03*
X033838Y007728D03*
X033838Y007732D03*
D216*
X033843Y007690D03*
X033843Y007686D03*
X033843Y007683D03*
X033843Y007679D03*
X033843Y007675D03*
X033843Y007671D03*
X033843Y007667D03*
X033843Y007196D03*
X033843Y007192D03*
X033843Y007189D03*
X033843Y007185D03*
X033843Y007181D03*
X035215Y008389D03*
X035215Y008393D03*
X035215Y008397D03*
X035215Y008401D03*
X035215Y008405D03*
X035215Y008408D03*
D217*
X035321Y008332D03*
X034436Y007755D03*
D218*
X035517Y007793D03*
X034525Y009092D03*
D219*
X033955Y007854D03*
D220*
X033955Y007861D03*
D221*
X036340Y007911D03*
X036340Y007914D03*
X036340Y007918D03*
X036340Y007922D03*
X036340Y007926D03*
X036340Y007930D03*
X036340Y007933D03*
X036340Y007937D03*
X036340Y007941D03*
X036340Y007945D03*
X036340Y007949D03*
X036340Y007952D03*
X036340Y007956D03*
X036340Y007960D03*
X036340Y007964D03*
X036340Y007968D03*
X036340Y007971D03*
X036340Y007975D03*
X036340Y007979D03*
X036340Y007983D03*
X036340Y007987D03*
X036340Y007990D03*
X036340Y007994D03*
X036340Y007998D03*
X036340Y008002D03*
X036340Y008006D03*
X036340Y008009D03*
X036340Y008013D03*
X036340Y008017D03*
X036340Y008021D03*
X036340Y008025D03*
X036340Y008028D03*
X036340Y008032D03*
X036340Y008036D03*
X036340Y008040D03*
X036340Y008044D03*
X036340Y008047D03*
X036340Y008051D03*
X036340Y008055D03*
X036340Y008059D03*
X036340Y008063D03*
X036340Y008066D03*
X036340Y008070D03*
X036340Y008074D03*
X036340Y008078D03*
X036340Y008082D03*
X036340Y008085D03*
X036340Y008089D03*
X036340Y008093D03*
X036340Y008097D03*
X036340Y008101D03*
X036340Y008104D03*
X036340Y008108D03*
X036340Y008112D03*
X036340Y008116D03*
X036340Y008120D03*
X036340Y008123D03*
X036340Y008127D03*
D222*
X034527Y009119D03*
X033505Y009119D03*
X033505Y008218D03*
D223*
X034531Y008222D03*
D224*
X034531Y008253D03*
D225*
X034529Y008291D03*
X034525Y009043D03*
D226*
X033505Y009035D03*
X033505Y008302D03*
D227*
X033505Y008325D03*
X033505Y008329D03*
X033505Y009009D03*
D228*
X033505Y008990D03*
X033505Y008348D03*
X033505Y008344D03*
D229*
X033505Y008370D03*
X033505Y008963D03*
X034527Y008967D03*
D230*
X034440Y008602D03*
D231*
X034495Y008652D03*
X034525Y009051D03*
D232*
X034594Y008743D03*
D233*
X034339Y008849D03*
X034339Y008853D03*
X034339Y008857D03*
X034339Y008861D03*
X034339Y008864D03*
X034339Y008868D03*
X034339Y008872D03*
X034339Y008876D03*
D234*
X034525Y009028D03*
D235*
X034525Y009039D03*
M02*
