G75*
%MOIN*%
%OFA0B0*%
%FSLAX24Y24*%
%IPPOS*%
%LPD*%
%AMOC8*
5,1,8,0,0,1.08239X$1,22.5*
%
%ADD10C,0.0000*%
%ADD11C,0.1240*%
%ADD12C,0.0940*%
%ADD13C,0.0600*%
%ADD14C,0.0556*%
%ADD15C,0.0730*%
%ADD16C,0.0713*%
%ADD17C,0.1267*%
%ADD18C,0.0580*%
%ADD19C,0.0350*%
%ADD20C,0.0500*%
%ADD21C,0.0780*%
D10*
X006701Y001180D02*
X039656Y001180D01*
X039656Y013385D01*
X006982Y013385D01*
X018930Y011680D02*
X018932Y011722D01*
X018938Y011764D01*
X018948Y011805D01*
X018961Y011845D01*
X018979Y011883D01*
X018999Y011920D01*
X019024Y011955D01*
X019051Y011987D01*
X019081Y012016D01*
X019114Y012043D01*
X019149Y012066D01*
X019186Y012086D01*
X019225Y012102D01*
X019265Y012115D01*
X019306Y012124D01*
X019348Y012129D01*
X019391Y012130D01*
X019433Y012127D01*
X019474Y012120D01*
X019515Y012109D01*
X019555Y012095D01*
X019593Y012077D01*
X019629Y012055D01*
X019663Y012030D01*
X019694Y012002D01*
X019723Y011971D01*
X019749Y011938D01*
X019771Y011902D01*
X019791Y011864D01*
X019806Y011825D01*
X019818Y011785D01*
X019826Y011743D01*
X019830Y011701D01*
X019830Y011659D01*
X019826Y011617D01*
X019818Y011575D01*
X019806Y011535D01*
X019791Y011496D01*
X019771Y011458D01*
X019749Y011422D01*
X019723Y011389D01*
X019694Y011358D01*
X019663Y011330D01*
X019629Y011305D01*
X019593Y011283D01*
X019555Y011265D01*
X019515Y011251D01*
X019474Y011240D01*
X019433Y011233D01*
X019391Y011230D01*
X019348Y011231D01*
X019306Y011236D01*
X019265Y011245D01*
X019225Y011258D01*
X019186Y011274D01*
X019149Y011294D01*
X019114Y011317D01*
X019081Y011344D01*
X019051Y011373D01*
X019024Y011405D01*
X018999Y011440D01*
X018979Y011477D01*
X018961Y011515D01*
X018948Y011555D01*
X018938Y011596D01*
X018932Y011638D01*
X018930Y011680D01*
X006983Y013384D02*
X006828Y013385D01*
X006673Y013381D01*
X006518Y013373D01*
X006363Y013362D01*
X006209Y013346D01*
X006055Y013327D01*
X005901Y013304D01*
X005749Y013278D01*
X005597Y013247D01*
X005445Y013213D01*
X005295Y013174D01*
X005146Y013133D01*
X004998Y013087D01*
X004851Y013038D01*
X004705Y012985D01*
X004560Y012928D01*
X004417Y012868D01*
X004276Y012804D01*
X004136Y012737D01*
X003998Y012667D01*
X003862Y012593D01*
X003728Y012515D01*
X003595Y012434D01*
X003465Y012350D01*
X003337Y012263D01*
X003211Y012173D01*
X003087Y012079D01*
X002966Y011983D01*
X002847Y011883D01*
X002730Y011780D01*
X002617Y011675D01*
X002505Y011567D01*
X002397Y011456D01*
X002291Y011342D01*
X002189Y011226D01*
X002089Y011107D01*
X001992Y010986D01*
X001898Y010863D01*
X001808Y010737D01*
X001720Y010609D01*
X001636Y010479D01*
X001555Y010346D01*
X001477Y010212D01*
X001403Y010076D01*
X001332Y009938D01*
X001265Y009798D01*
X001201Y009657D01*
X001141Y009514D01*
X001084Y009370D01*
X001031Y009224D01*
X000981Y009077D01*
X000935Y008929D01*
X000893Y008780D01*
X000855Y008630D01*
X000820Y008478D01*
X000789Y008326D01*
X000762Y008174D01*
X000739Y008020D01*
X000720Y007867D01*
X000704Y007712D01*
X000692Y007558D01*
X000685Y007403D01*
X000681Y007248D01*
X000680Y007248D02*
X000680Y007201D01*
X000682Y007048D01*
X000688Y006896D01*
X000697Y006744D01*
X000711Y006592D01*
X000728Y006440D01*
X000749Y006289D01*
X000774Y006139D01*
X000803Y005989D01*
X000836Y005840D01*
X000872Y005692D01*
X000912Y005545D01*
X000956Y005399D01*
X001004Y005254D01*
X001055Y005110D01*
X001110Y004968D01*
X001168Y004827D01*
X001230Y004687D01*
X001295Y004549D01*
X001364Y004413D01*
X001437Y004279D01*
X001512Y004147D01*
X001591Y004016D01*
X001674Y003888D01*
X001759Y003761D01*
X001848Y003637D01*
X001940Y003516D01*
X002035Y003396D01*
X002133Y003279D01*
X002233Y003165D01*
X002337Y003053D01*
X002444Y002944D01*
X002553Y002837D01*
X002665Y002733D01*
X002779Y002633D01*
X002896Y002535D01*
X003016Y002440D01*
X003137Y002348D01*
X003261Y002259D01*
X003388Y002174D01*
X003516Y002091D01*
X003647Y002012D01*
X003779Y001937D01*
X003913Y001864D01*
X004049Y001795D01*
X004187Y001730D01*
X004327Y001668D01*
X004468Y001610D01*
X004610Y001555D01*
X004754Y001504D01*
X004899Y001456D01*
X005045Y001412D01*
X005192Y001372D01*
X005340Y001336D01*
X005489Y001303D01*
X005639Y001274D01*
X005789Y001249D01*
X005940Y001228D01*
X006092Y001211D01*
X006244Y001197D01*
X006396Y001188D01*
X006548Y001182D01*
X006701Y001180D01*
X013630Y002880D02*
X013632Y002922D01*
X013638Y002964D01*
X013648Y003005D01*
X013661Y003045D01*
X013679Y003083D01*
X013699Y003120D01*
X013724Y003155D01*
X013751Y003187D01*
X013781Y003216D01*
X013814Y003243D01*
X013849Y003266D01*
X013886Y003286D01*
X013925Y003302D01*
X013965Y003315D01*
X014006Y003324D01*
X014048Y003329D01*
X014091Y003330D01*
X014133Y003327D01*
X014174Y003320D01*
X014215Y003309D01*
X014255Y003295D01*
X014293Y003277D01*
X014329Y003255D01*
X014363Y003230D01*
X014394Y003202D01*
X014423Y003171D01*
X014449Y003138D01*
X014471Y003102D01*
X014491Y003064D01*
X014506Y003025D01*
X014518Y002985D01*
X014526Y002943D01*
X014530Y002901D01*
X014530Y002859D01*
X014526Y002817D01*
X014518Y002775D01*
X014506Y002735D01*
X014491Y002696D01*
X014471Y002658D01*
X014449Y002622D01*
X014423Y002589D01*
X014394Y002558D01*
X014363Y002530D01*
X014329Y002505D01*
X014293Y002483D01*
X014255Y002465D01*
X014215Y002451D01*
X014174Y002440D01*
X014133Y002433D01*
X014091Y002430D01*
X014048Y002431D01*
X014006Y002436D01*
X013965Y002445D01*
X013925Y002458D01*
X013886Y002474D01*
X013849Y002494D01*
X013814Y002517D01*
X013781Y002544D01*
X013751Y002573D01*
X013724Y002605D01*
X013699Y002640D01*
X013679Y002677D01*
X013661Y002715D01*
X013648Y002755D01*
X013638Y002796D01*
X013632Y002838D01*
X013630Y002880D01*
X024230Y002880D02*
X024232Y002922D01*
X024238Y002964D01*
X024248Y003005D01*
X024261Y003045D01*
X024279Y003083D01*
X024299Y003120D01*
X024324Y003155D01*
X024351Y003187D01*
X024381Y003216D01*
X024414Y003243D01*
X024449Y003266D01*
X024486Y003286D01*
X024525Y003302D01*
X024565Y003315D01*
X024606Y003324D01*
X024648Y003329D01*
X024691Y003330D01*
X024733Y003327D01*
X024774Y003320D01*
X024815Y003309D01*
X024855Y003295D01*
X024893Y003277D01*
X024929Y003255D01*
X024963Y003230D01*
X024994Y003202D01*
X025023Y003171D01*
X025049Y003138D01*
X025071Y003102D01*
X025091Y003064D01*
X025106Y003025D01*
X025118Y002985D01*
X025126Y002943D01*
X025130Y002901D01*
X025130Y002859D01*
X025126Y002817D01*
X025118Y002775D01*
X025106Y002735D01*
X025091Y002696D01*
X025071Y002658D01*
X025049Y002622D01*
X025023Y002589D01*
X024994Y002558D01*
X024963Y002530D01*
X024929Y002505D01*
X024893Y002483D01*
X024855Y002465D01*
X024815Y002451D01*
X024774Y002440D01*
X024733Y002433D01*
X024691Y002430D01*
X024648Y002431D01*
X024606Y002436D01*
X024565Y002445D01*
X024525Y002458D01*
X024486Y002474D01*
X024449Y002494D01*
X024414Y002517D01*
X024381Y002544D01*
X024351Y002573D01*
X024324Y002605D01*
X024299Y002640D01*
X024279Y002677D01*
X024261Y002715D01*
X024248Y002755D01*
X024238Y002796D01*
X024232Y002838D01*
X024230Y002880D01*
D11*
X029580Y004780D03*
X029580Y009880D03*
D12*
X019380Y011680D03*
X014080Y002880D03*
X024680Y002880D03*
D13*
X023180Y004180D03*
X023180Y005180D03*
X023180Y006180D03*
X023180Y007180D03*
X023180Y008180D03*
X023180Y009180D03*
X023180Y010180D03*
X020180Y010180D03*
X020180Y009180D03*
X020180Y008180D03*
X020180Y007180D03*
X020180Y006180D03*
X020180Y005180D03*
X020180Y004180D03*
X014680Y004230D03*
X010680Y004230D03*
X011180Y006280D03*
X013180Y006280D03*
X013180Y008280D03*
X011180Y008280D03*
X010680Y010330D03*
X014680Y010330D03*
D14*
X031036Y007130D03*
X031824Y007130D03*
D15*
X038426Y004282D03*
X038426Y010282D03*
D16*
X027664Y004526D03*
X026680Y004526D03*
X025696Y004526D03*
X008164Y004526D03*
X007180Y004526D03*
X006196Y004526D03*
D17*
X005408Y007282D03*
X008952Y007282D03*
X024908Y007282D03*
X028452Y007282D03*
D18*
X017920Y006782D03*
X017170Y006782D03*
X016420Y006782D03*
X015670Y006782D03*
D19*
X031196Y001980D03*
X033164Y001980D03*
D20*
X033558Y002964D03*
X030802Y002964D03*
D21*
X031180Y012341D03*
X032180Y012419D03*
X033180Y012341D03*
M02*
