G75*
%MOIN*%
%OFA0B0*%
%FSLAX24Y24*%
%IPPOS*%
%LPD*%
%AMOC8*
5,1,8,0,0,1.08239X$1,22.5*
%
%ADD10C,0.0000*%
%ADD11C,0.0030*%
%ADD12C,0.0070*%
%ADD13C,0.0060*%
%ADD14C,0.0040*%
%ADD15C,0.0080*%
%ADD16C,0.0050*%
%ADD17C,0.0010*%
%ADD18C,0.0020*%
%ADD19C,0.0039*%
D10*
X006701Y001180D02*
X039656Y001180D01*
X039656Y013385D01*
X006982Y013385D01*
X018930Y011680D02*
X018932Y011722D01*
X018938Y011764D01*
X018948Y011805D01*
X018961Y011845D01*
X018979Y011883D01*
X018999Y011920D01*
X019024Y011955D01*
X019051Y011987D01*
X019081Y012016D01*
X019114Y012043D01*
X019149Y012066D01*
X019186Y012086D01*
X019225Y012102D01*
X019265Y012115D01*
X019306Y012124D01*
X019348Y012129D01*
X019391Y012130D01*
X019433Y012127D01*
X019474Y012120D01*
X019515Y012109D01*
X019555Y012095D01*
X019593Y012077D01*
X019629Y012055D01*
X019663Y012030D01*
X019694Y012002D01*
X019723Y011971D01*
X019749Y011938D01*
X019771Y011902D01*
X019791Y011864D01*
X019806Y011825D01*
X019818Y011785D01*
X019826Y011743D01*
X019830Y011701D01*
X019830Y011659D01*
X019826Y011617D01*
X019818Y011575D01*
X019806Y011535D01*
X019791Y011496D01*
X019771Y011458D01*
X019749Y011422D01*
X019723Y011389D01*
X019694Y011358D01*
X019663Y011330D01*
X019629Y011305D01*
X019593Y011283D01*
X019555Y011265D01*
X019515Y011251D01*
X019474Y011240D01*
X019433Y011233D01*
X019391Y011230D01*
X019348Y011231D01*
X019306Y011236D01*
X019265Y011245D01*
X019225Y011258D01*
X019186Y011274D01*
X019149Y011294D01*
X019114Y011317D01*
X019081Y011344D01*
X019051Y011373D01*
X019024Y011405D01*
X018999Y011440D01*
X018979Y011477D01*
X018961Y011515D01*
X018948Y011555D01*
X018938Y011596D01*
X018932Y011638D01*
X018930Y011680D01*
X006983Y013384D02*
X006828Y013385D01*
X006673Y013381D01*
X006518Y013373D01*
X006363Y013362D01*
X006209Y013346D01*
X006055Y013327D01*
X005901Y013304D01*
X005749Y013278D01*
X005597Y013247D01*
X005445Y013213D01*
X005295Y013174D01*
X005146Y013133D01*
X004998Y013087D01*
X004851Y013038D01*
X004705Y012985D01*
X004560Y012928D01*
X004417Y012868D01*
X004276Y012804D01*
X004136Y012737D01*
X003998Y012667D01*
X003862Y012593D01*
X003728Y012515D01*
X003595Y012434D01*
X003465Y012350D01*
X003337Y012263D01*
X003211Y012173D01*
X003087Y012079D01*
X002966Y011983D01*
X002847Y011883D01*
X002730Y011780D01*
X002617Y011675D01*
X002505Y011567D01*
X002397Y011456D01*
X002291Y011342D01*
X002189Y011226D01*
X002089Y011107D01*
X001992Y010986D01*
X001898Y010863D01*
X001808Y010737D01*
X001720Y010609D01*
X001636Y010479D01*
X001555Y010346D01*
X001477Y010212D01*
X001403Y010076D01*
X001332Y009938D01*
X001265Y009798D01*
X001201Y009657D01*
X001141Y009514D01*
X001084Y009370D01*
X001031Y009224D01*
X000981Y009077D01*
X000935Y008929D01*
X000893Y008780D01*
X000855Y008630D01*
X000820Y008478D01*
X000789Y008326D01*
X000762Y008174D01*
X000739Y008020D01*
X000720Y007867D01*
X000704Y007712D01*
X000692Y007558D01*
X000685Y007403D01*
X000681Y007248D01*
X000680Y007248D02*
X000680Y007201D01*
X000682Y007048D01*
X000688Y006896D01*
X000697Y006744D01*
X000711Y006592D01*
X000728Y006440D01*
X000749Y006289D01*
X000774Y006139D01*
X000803Y005989D01*
X000836Y005840D01*
X000872Y005692D01*
X000912Y005545D01*
X000956Y005399D01*
X001004Y005254D01*
X001055Y005110D01*
X001110Y004968D01*
X001168Y004827D01*
X001230Y004687D01*
X001295Y004549D01*
X001364Y004413D01*
X001437Y004279D01*
X001512Y004147D01*
X001591Y004016D01*
X001674Y003888D01*
X001759Y003761D01*
X001848Y003637D01*
X001940Y003516D01*
X002035Y003396D01*
X002133Y003279D01*
X002233Y003165D01*
X002337Y003053D01*
X002444Y002944D01*
X002553Y002837D01*
X002665Y002733D01*
X002779Y002633D01*
X002896Y002535D01*
X003016Y002440D01*
X003137Y002348D01*
X003261Y002259D01*
X003388Y002174D01*
X003516Y002091D01*
X003647Y002012D01*
X003779Y001937D01*
X003913Y001864D01*
X004049Y001795D01*
X004187Y001730D01*
X004327Y001668D01*
X004468Y001610D01*
X004610Y001555D01*
X004754Y001504D01*
X004899Y001456D01*
X005045Y001412D01*
X005192Y001372D01*
X005340Y001336D01*
X005489Y001303D01*
X005639Y001274D01*
X005789Y001249D01*
X005940Y001228D01*
X006092Y001211D01*
X006244Y001197D01*
X006396Y001188D01*
X006548Y001182D01*
X006701Y001180D01*
X013630Y002880D02*
X013632Y002922D01*
X013638Y002964D01*
X013648Y003005D01*
X013661Y003045D01*
X013679Y003083D01*
X013699Y003120D01*
X013724Y003155D01*
X013751Y003187D01*
X013781Y003216D01*
X013814Y003243D01*
X013849Y003266D01*
X013886Y003286D01*
X013925Y003302D01*
X013965Y003315D01*
X014006Y003324D01*
X014048Y003329D01*
X014091Y003330D01*
X014133Y003327D01*
X014174Y003320D01*
X014215Y003309D01*
X014255Y003295D01*
X014293Y003277D01*
X014329Y003255D01*
X014363Y003230D01*
X014394Y003202D01*
X014423Y003171D01*
X014449Y003138D01*
X014471Y003102D01*
X014491Y003064D01*
X014506Y003025D01*
X014518Y002985D01*
X014526Y002943D01*
X014530Y002901D01*
X014530Y002859D01*
X014526Y002817D01*
X014518Y002775D01*
X014506Y002735D01*
X014491Y002696D01*
X014471Y002658D01*
X014449Y002622D01*
X014423Y002589D01*
X014394Y002558D01*
X014363Y002530D01*
X014329Y002505D01*
X014293Y002483D01*
X014255Y002465D01*
X014215Y002451D01*
X014174Y002440D01*
X014133Y002433D01*
X014091Y002430D01*
X014048Y002431D01*
X014006Y002436D01*
X013965Y002445D01*
X013925Y002458D01*
X013886Y002474D01*
X013849Y002494D01*
X013814Y002517D01*
X013781Y002544D01*
X013751Y002573D01*
X013724Y002605D01*
X013699Y002640D01*
X013679Y002677D01*
X013661Y002715D01*
X013648Y002755D01*
X013638Y002796D01*
X013632Y002838D01*
X013630Y002880D01*
X024230Y002880D02*
X024232Y002922D01*
X024238Y002964D01*
X024248Y003005D01*
X024261Y003045D01*
X024279Y003083D01*
X024299Y003120D01*
X024324Y003155D01*
X024351Y003187D01*
X024381Y003216D01*
X024414Y003243D01*
X024449Y003266D01*
X024486Y003286D01*
X024525Y003302D01*
X024565Y003315D01*
X024606Y003324D01*
X024648Y003329D01*
X024691Y003330D01*
X024733Y003327D01*
X024774Y003320D01*
X024815Y003309D01*
X024855Y003295D01*
X024893Y003277D01*
X024929Y003255D01*
X024963Y003230D01*
X024994Y003202D01*
X025023Y003171D01*
X025049Y003138D01*
X025071Y003102D01*
X025091Y003064D01*
X025106Y003025D01*
X025118Y002985D01*
X025126Y002943D01*
X025130Y002901D01*
X025130Y002859D01*
X025126Y002817D01*
X025118Y002775D01*
X025106Y002735D01*
X025091Y002696D01*
X025071Y002658D01*
X025049Y002622D01*
X025023Y002589D01*
X024994Y002558D01*
X024963Y002530D01*
X024929Y002505D01*
X024893Y002483D01*
X024855Y002465D01*
X024815Y002451D01*
X024774Y002440D01*
X024733Y002433D01*
X024691Y002430D01*
X024648Y002431D01*
X024606Y002436D01*
X024565Y002445D01*
X024525Y002458D01*
X024486Y002474D01*
X024449Y002494D01*
X024414Y002517D01*
X024381Y002544D01*
X024351Y002573D01*
X024324Y002605D01*
X024299Y002640D01*
X024279Y002677D01*
X024261Y002715D01*
X024248Y002755D01*
X024238Y002796D01*
X024232Y002838D01*
X024230Y002880D01*
D11*
X011707Y004414D02*
X011514Y004414D01*
X011707Y004607D01*
X011707Y004656D01*
X011659Y004704D01*
X011562Y004704D01*
X011514Y004656D01*
X011413Y004656D02*
X011413Y004559D01*
X011364Y004511D01*
X011219Y004511D01*
X011316Y004511D02*
X011413Y004414D01*
X011219Y004414D02*
X011219Y004704D01*
X011364Y004704D01*
X011413Y004656D01*
X016309Y007281D02*
X016556Y007281D01*
X015920Y007695D02*
X016105Y007942D01*
X015920Y008063D02*
X015920Y008310D01*
X015920Y008432D02*
X015920Y008555D01*
X016105Y008432D02*
X015735Y008432D01*
X015735Y008679D01*
X015735Y008800D02*
X015735Y008862D01*
X016105Y008862D01*
X016105Y008923D02*
X016105Y008800D01*
X016295Y008800D02*
X016665Y008800D01*
X016480Y008800D02*
X016418Y008862D01*
X016418Y008985D01*
X016480Y009047D01*
X016665Y009047D01*
X016665Y009168D02*
X016665Y009292D01*
X016665Y009230D02*
X016418Y009230D01*
X016418Y009168D01*
X016295Y009230D02*
X016233Y009230D01*
X016105Y009292D02*
X016105Y009107D01*
X016043Y009045D01*
X015982Y009107D01*
X015982Y009292D01*
X015920Y009292D02*
X016105Y009292D01*
X015920Y009292D02*
X015858Y009231D01*
X015858Y009107D01*
X015858Y009414D02*
X015858Y009537D01*
X015796Y009476D02*
X016043Y009476D01*
X016105Y009537D01*
X016418Y009476D02*
X016418Y009661D01*
X016542Y009599D02*
X016542Y009476D01*
X016480Y009414D01*
X016418Y009476D01*
X016542Y009599D02*
X016603Y009661D01*
X016665Y009599D01*
X016665Y009414D01*
X016043Y010028D02*
X016105Y010089D01*
X016105Y010213D01*
X016043Y010275D01*
X015982Y010275D01*
X015920Y010213D01*
X015920Y010089D01*
X015858Y010028D01*
X015796Y010028D01*
X015735Y010089D01*
X015735Y010213D01*
X015796Y010275D01*
X015858Y010396D02*
X015858Y010458D01*
X016105Y010458D01*
X016105Y010519D02*
X016105Y010396D01*
X016295Y010336D02*
X016295Y010212D01*
X016356Y010150D01*
X016418Y010150D01*
X016480Y010212D01*
X016480Y010336D01*
X016542Y010397D01*
X016603Y010397D01*
X016665Y010336D01*
X016665Y010212D01*
X016603Y010150D01*
X016356Y010397D02*
X016295Y010336D01*
X016418Y010519D02*
X016418Y010580D01*
X016665Y010580D01*
X016665Y010519D02*
X016665Y010642D01*
X016603Y010764D02*
X016480Y010764D01*
X016418Y010826D01*
X016418Y011011D01*
X016295Y011011D02*
X016665Y011011D01*
X016665Y010826D01*
X016603Y010764D01*
X016105Y010703D02*
X016043Y010642D01*
X015920Y010642D01*
X015858Y010703D01*
X015858Y010888D01*
X015735Y010888D02*
X016105Y010888D01*
X016105Y010703D01*
X016233Y010580D02*
X016295Y010580D01*
X015735Y010458D02*
X015673Y010458D01*
X015920Y011010D02*
X015858Y011072D01*
X015858Y011195D01*
X015920Y011257D01*
X015982Y011257D01*
X015982Y011010D01*
X016043Y011010D02*
X015920Y011010D01*
X016043Y011010D02*
X016105Y011072D01*
X016105Y011195D01*
X016418Y011194D02*
X016418Y011318D01*
X016480Y011379D01*
X016542Y011379D01*
X016542Y011133D01*
X016603Y011133D02*
X016480Y011133D01*
X016418Y011194D01*
X016603Y011133D02*
X016665Y011194D01*
X016665Y011318D01*
X011707Y010514D02*
X011514Y010514D01*
X011611Y010514D02*
X011611Y010804D01*
X011514Y010707D01*
X011413Y010659D02*
X011364Y010611D01*
X011219Y010611D01*
X011316Y010611D02*
X011413Y010514D01*
X011413Y010659D02*
X011413Y010756D01*
X011364Y010804D01*
X011219Y010804D01*
X011219Y010514D01*
X006729Y008623D02*
X006664Y008688D01*
X006534Y008688D01*
X006468Y008623D01*
X006342Y008623D02*
X006342Y008493D01*
X006277Y008427D01*
X006082Y008427D01*
X005955Y008427D02*
X005955Y008688D01*
X006082Y008688D02*
X006277Y008688D01*
X006342Y008623D01*
X006082Y008688D02*
X006082Y008297D01*
X005955Y008427D02*
X005825Y008297D01*
X005695Y008427D01*
X005695Y008688D01*
X006212Y008427D02*
X006342Y008297D01*
X006468Y008297D02*
X006729Y008558D01*
X006729Y008623D01*
X006729Y008297D02*
X006468Y008297D01*
X015735Y007942D02*
X015920Y007695D01*
X016295Y008432D02*
X016295Y008679D01*
X016295Y008555D02*
X016665Y008555D01*
X025195Y008427D02*
X025325Y008297D01*
X025455Y008427D01*
X025455Y008688D01*
X025582Y008688D02*
X025777Y008688D01*
X025842Y008623D01*
X025842Y008493D01*
X025777Y008427D01*
X025582Y008427D01*
X025582Y008297D02*
X025582Y008688D01*
X025195Y008688D02*
X025195Y008427D01*
X025712Y008427D02*
X025842Y008297D01*
X025968Y008297D02*
X026229Y008297D01*
X026099Y008297D02*
X026099Y008688D01*
X025968Y008558D01*
X025510Y012072D02*
X025633Y012195D01*
X025572Y012195D01*
X025572Y012257D01*
X025633Y012257D01*
X025633Y012195D01*
X025388Y012195D02*
X025142Y012195D01*
X025388Y012442D01*
X025388Y012504D01*
X025327Y012565D01*
X025203Y012565D01*
X025142Y012504D01*
X024652Y012442D02*
X024528Y012195D01*
X024405Y012442D01*
X024283Y012380D02*
X024283Y012318D01*
X024037Y012318D01*
X024037Y012257D02*
X024037Y012380D01*
X024098Y012442D01*
X024222Y012442D01*
X024283Y012380D01*
X024222Y012195D02*
X024098Y012195D01*
X024037Y012257D01*
X023915Y012195D02*
X023792Y012318D01*
X023853Y012318D02*
X023668Y012318D01*
X023668Y012195D02*
X023668Y012565D01*
X023853Y012565D01*
X023915Y012504D01*
X023915Y012380D01*
X023853Y012318D01*
X023179Y012318D02*
X023179Y012257D01*
X023117Y012195D01*
X022932Y012195D01*
X022932Y012565D01*
X023117Y012565D01*
X023179Y012504D01*
X023179Y012442D01*
X023117Y012380D01*
X022932Y012380D01*
X022810Y012257D02*
X022748Y012195D01*
X022625Y012195D01*
X022563Y012257D01*
X022563Y012504D01*
X022625Y012565D01*
X022748Y012565D01*
X022810Y012504D01*
X023117Y012380D02*
X023179Y012318D01*
X022442Y012380D02*
X022380Y012318D01*
X022195Y012318D01*
X022195Y012195D02*
X022195Y012565D01*
X022380Y012565D01*
X022442Y012504D01*
X022442Y012380D01*
X026124Y012257D02*
X026185Y012195D01*
X026247Y012195D01*
X026309Y012257D01*
X026309Y012565D01*
X026247Y012565D02*
X026371Y012565D01*
X026492Y012442D02*
X026492Y012257D01*
X026554Y012195D01*
X026739Y012195D01*
X026739Y012442D01*
X026860Y012442D02*
X027045Y012442D01*
X027107Y012380D01*
X027107Y012195D01*
X027229Y012257D02*
X027229Y012380D01*
X027290Y012442D01*
X027414Y012442D01*
X027476Y012380D01*
X027476Y012318D01*
X027229Y012318D01*
X027229Y012257D02*
X027290Y012195D01*
X027414Y012195D01*
X026860Y012195D02*
X026860Y012442D01*
X027965Y012504D02*
X028027Y012565D01*
X028150Y012565D01*
X028212Y012504D01*
X028212Y012442D01*
X027965Y012195D01*
X028212Y012195D01*
X028334Y012257D02*
X028580Y012504D01*
X028580Y012257D01*
X028519Y012195D01*
X028395Y012195D01*
X028334Y012257D01*
X028334Y012504D01*
X028395Y012565D01*
X028519Y012565D01*
X028580Y012504D01*
X028702Y012442D02*
X028825Y012565D01*
X028825Y012195D01*
X028702Y012195D02*
X028949Y012195D01*
X029070Y012257D02*
X029132Y012195D01*
X029255Y012195D01*
X029317Y012257D01*
X029317Y012380D01*
X029255Y012442D01*
X029194Y012442D01*
X029070Y012380D01*
X029070Y012565D01*
X029317Y012565D01*
D12*
X004534Y009792D02*
X004534Y009632D01*
X004454Y009552D01*
X004294Y009552D02*
X004213Y009712D01*
X004213Y009792D01*
X004294Y009872D01*
X004454Y009872D01*
X004534Y009792D01*
X004294Y009552D02*
X004053Y009552D01*
X004053Y009872D01*
X003791Y009792D02*
X003711Y009872D01*
X003551Y009872D01*
X003471Y009792D01*
X003471Y009632D01*
X003551Y009552D01*
X003711Y009552D01*
X003791Y009632D01*
X003791Y009792D01*
X003791Y010058D02*
X003791Y010218D01*
X003791Y010138D02*
X003311Y010138D01*
X003311Y010058D01*
X003049Y009919D02*
X003049Y009758D01*
X002969Y009678D01*
X002809Y009678D01*
X002728Y009758D01*
X002728Y009919D01*
X002809Y009999D01*
X002889Y009999D01*
X002889Y009678D01*
X002306Y009678D02*
X002306Y009838D01*
X002306Y009758D02*
X001826Y009758D01*
X001826Y009678D02*
X001826Y009838D01*
X001906Y010016D02*
X002226Y010016D01*
X002306Y010096D01*
X002306Y010256D01*
X002226Y010336D01*
X001906Y010336D02*
X001826Y010256D01*
X001826Y010096D01*
X001906Y010016D01*
X002648Y010265D02*
X002969Y010265D01*
X003049Y010345D01*
X002728Y010345D02*
X002728Y010185D01*
X003049Y009501D02*
X003049Y009341D01*
X003049Y009421D02*
X002568Y009421D01*
X002568Y009341D01*
X002306Y009332D02*
X001826Y009332D01*
X001826Y009172D02*
X001826Y009492D01*
X002728Y009074D02*
X002809Y009155D01*
X003049Y009155D01*
X003049Y008994D02*
X002809Y008994D01*
X002728Y009074D01*
X002809Y008994D02*
X002728Y008914D01*
X002728Y008834D01*
X003049Y008834D01*
X003049Y008648D02*
X003049Y008408D01*
X002969Y008328D01*
X002889Y008408D01*
X002889Y008648D01*
X002809Y008648D02*
X003049Y008648D01*
X002809Y008648D02*
X002728Y008568D01*
X002728Y008408D01*
X002809Y008142D02*
X002809Y007821D01*
X003049Y007821D02*
X002568Y007821D01*
X002066Y007973D02*
X002066Y007653D01*
X001906Y007466D02*
X001826Y007386D01*
X001826Y007226D01*
X001906Y007146D01*
X002226Y007146D01*
X002306Y007226D01*
X002306Y007386D01*
X002226Y007466D01*
X001906Y007466D01*
X002728Y007049D02*
X002809Y007129D01*
X003049Y007129D01*
X002728Y007049D02*
X002728Y006889D01*
X002809Y006809D01*
X002728Y006622D02*
X002728Y006382D01*
X002809Y006302D01*
X002969Y006302D01*
X003049Y006382D01*
X003049Y006622D01*
X003049Y006809D02*
X002568Y006809D01*
X002066Y006960D02*
X002066Y006640D01*
X002066Y006454D02*
X002146Y006374D01*
X002146Y006133D01*
X002306Y006133D02*
X001826Y006133D01*
X001826Y006374D01*
X001906Y006454D01*
X002066Y006454D01*
X002488Y006045D02*
X002568Y006045D01*
X002728Y006045D02*
X002728Y005965D01*
X002728Y006045D02*
X003049Y006045D01*
X003049Y005965D02*
X003049Y006125D01*
X003471Y006171D02*
X003551Y006091D01*
X003711Y006091D01*
X003791Y006171D01*
X003791Y006331D01*
X003711Y006411D01*
X003551Y006411D01*
X003471Y006331D01*
X003471Y006171D01*
X003791Y005914D02*
X003791Y005753D01*
X003791Y005834D02*
X003471Y005834D01*
X003471Y005753D01*
X003311Y005834D02*
X003231Y005834D01*
X003049Y005698D02*
X002969Y005618D01*
X003049Y005538D01*
X002969Y005458D01*
X002728Y005458D01*
X003049Y005281D02*
X003049Y005120D01*
X003049Y005201D02*
X002568Y005201D01*
X002568Y005120D01*
X002728Y004934D02*
X003049Y004934D01*
X003049Y004694D01*
X002969Y004614D01*
X002728Y004614D01*
X002306Y004614D02*
X002306Y004934D01*
X002306Y005120D02*
X001826Y005120D01*
X001826Y005441D01*
X001826Y005627D02*
X002306Y005627D01*
X002306Y005947D01*
X002066Y005787D02*
X002066Y005627D01*
X001826Y005627D02*
X001826Y005947D01*
X002728Y005778D02*
X002969Y005778D01*
X003049Y005698D01*
X003471Y005487D02*
X003551Y005567D01*
X003791Y005567D01*
X003471Y005487D02*
X003471Y005247D01*
X003791Y005247D01*
X004213Y005399D02*
X004534Y005399D01*
X004534Y005158D01*
X004454Y005078D01*
X004213Y005078D01*
X003791Y005061D02*
X003471Y005061D01*
X003791Y005061D02*
X003791Y004821D01*
X003711Y004741D01*
X003471Y004741D01*
X003311Y004554D02*
X003311Y004394D01*
X003311Y004474D02*
X003711Y004474D01*
X003791Y004394D01*
X003791Y004314D01*
X003711Y004234D01*
X004053Y004652D02*
X004133Y004572D01*
X004213Y004572D01*
X004294Y004652D01*
X004294Y004812D01*
X004374Y004892D01*
X004454Y004892D01*
X004534Y004812D01*
X004534Y004652D01*
X004454Y004572D01*
X004053Y004652D02*
X004053Y004812D01*
X004133Y004892D01*
X003049Y004348D02*
X002969Y004428D01*
X002648Y004428D01*
X002568Y004348D01*
X002568Y004108D01*
X003049Y004108D01*
X003049Y004348D01*
X002306Y004348D02*
X002306Y004108D01*
X001826Y004108D01*
X001826Y004348D01*
X001906Y004428D01*
X001986Y004428D01*
X002066Y004348D01*
X002066Y004108D01*
X002066Y004348D02*
X002146Y004428D01*
X002226Y004428D01*
X002306Y004348D01*
X002306Y004614D02*
X001826Y004614D01*
X002066Y005120D02*
X002066Y005281D01*
X002306Y005441D02*
X002306Y005120D01*
X004213Y005585D02*
X004213Y005665D01*
X004294Y005745D01*
X004213Y005825D01*
X004294Y005905D01*
X004534Y005905D01*
X004534Y005745D02*
X004294Y005745D01*
X004213Y005585D02*
X004534Y005585D01*
X004534Y006091D02*
X004213Y006091D01*
X004213Y006171D01*
X004294Y006251D01*
X004213Y006331D01*
X004294Y006411D01*
X004534Y006411D01*
X004534Y006251D02*
X004294Y006251D01*
X004294Y006598D02*
X004213Y006678D01*
X004213Y006838D01*
X004294Y006918D01*
X004374Y006918D01*
X004374Y006598D01*
X004454Y006598D02*
X004294Y006598D01*
X004454Y006598D02*
X004534Y006678D01*
X004534Y006838D01*
X004534Y007104D02*
X004213Y007104D01*
X004213Y007264D02*
X004374Y007104D01*
X004213Y007264D02*
X004213Y007344D01*
X003791Y007606D02*
X003711Y007526D01*
X003791Y007606D02*
X003791Y007766D01*
X003711Y007846D01*
X003631Y007846D01*
X003551Y007766D01*
X003551Y007606D01*
X003471Y007526D01*
X003391Y007526D01*
X003311Y007606D01*
X003311Y007766D01*
X003391Y007846D01*
X003551Y008032D02*
X003471Y008113D01*
X003471Y008353D01*
X003551Y008539D02*
X003471Y008619D01*
X003471Y008779D01*
X003551Y008859D01*
X003791Y008859D01*
X003711Y009045D02*
X003791Y009125D01*
X003791Y009286D01*
X003711Y009366D01*
X003551Y009366D01*
X003471Y009286D01*
X003471Y009125D01*
X003551Y009045D01*
X003711Y009045D01*
X004053Y009205D02*
X004534Y009205D01*
X004534Y009045D02*
X004534Y009366D01*
X004213Y009045D02*
X004053Y009205D01*
X004133Y008859D02*
X004454Y008539D01*
X004534Y008619D01*
X004534Y008779D01*
X004454Y008859D01*
X004133Y008859D01*
X004053Y008779D01*
X004053Y008619D01*
X004133Y008539D01*
X004454Y008539D01*
X004534Y008353D02*
X004534Y008032D01*
X004213Y008353D01*
X004133Y008353D01*
X004053Y008273D01*
X004053Y008113D01*
X004133Y008032D01*
X003791Y008113D02*
X003791Y008353D01*
X003791Y008539D02*
X003311Y008539D01*
X003049Y008142D02*
X002568Y008142D01*
X002306Y008159D02*
X001826Y008159D01*
X001986Y008319D01*
X001826Y008479D01*
X002306Y008479D01*
X002306Y008665D02*
X001986Y008665D01*
X001826Y008826D01*
X001986Y008986D01*
X002306Y008986D01*
X002066Y008986D02*
X002066Y008665D01*
X003551Y008032D02*
X003711Y008032D01*
X003791Y008113D01*
X003471Y006838D02*
X003471Y006758D01*
X003631Y006598D01*
X003791Y006598D02*
X003471Y006598D01*
D13*
X010737Y006285D02*
X010739Y006259D01*
X010744Y006233D01*
X010752Y006208D01*
X010764Y006185D01*
X010778Y006163D01*
X010796Y006144D01*
X010815Y006126D01*
X010837Y006112D01*
X010860Y006100D01*
X010885Y006092D01*
X010911Y006087D01*
X010937Y006085D01*
X011410Y006070D02*
X011436Y006072D01*
X011462Y006077D01*
X011487Y006085D01*
X011510Y006097D01*
X011532Y006111D01*
X011551Y006129D01*
X011569Y006148D01*
X011583Y006170D01*
X011595Y006193D01*
X011603Y006218D01*
X011608Y006244D01*
X011610Y006270D01*
X012737Y006285D02*
X012739Y006259D01*
X012744Y006233D01*
X012752Y006208D01*
X012764Y006185D01*
X012778Y006163D01*
X012796Y006144D01*
X012815Y006126D01*
X012837Y006112D01*
X012860Y006100D01*
X012885Y006092D01*
X012911Y006087D01*
X012937Y006085D01*
X013410Y006070D02*
X013436Y006072D01*
X013462Y006077D01*
X013487Y006085D01*
X013510Y006097D01*
X013532Y006111D01*
X013551Y006129D01*
X013569Y006148D01*
X013583Y006170D01*
X013595Y006193D01*
X013603Y006218D01*
X013608Y006244D01*
X013610Y006270D01*
X014263Y004641D02*
X014280Y004639D01*
X014297Y004635D01*
X014313Y004628D01*
X014327Y004618D01*
X014340Y004605D01*
X014350Y004591D01*
X014357Y004575D01*
X014361Y004558D01*
X014363Y004541D01*
X014363Y003880D01*
X014361Y003863D01*
X014357Y003846D01*
X014350Y003830D01*
X014340Y003816D01*
X014327Y003803D01*
X014313Y003793D01*
X014297Y003786D01*
X014280Y003782D01*
X014263Y003780D01*
X012183Y003777D02*
X011932Y003944D01*
X012183Y004110D01*
X011932Y004277D02*
X011932Y003777D01*
X011750Y003777D02*
X011417Y003777D01*
X011584Y003777D02*
X011584Y004277D01*
X011417Y004110D01*
X011123Y003780D02*
X011106Y003782D01*
X011089Y003786D01*
X011073Y003793D01*
X011059Y003803D01*
X011046Y003816D01*
X011036Y003830D01*
X011029Y003846D01*
X011025Y003863D01*
X011023Y003880D01*
X011023Y004580D01*
X011025Y004597D01*
X011029Y004614D01*
X011036Y004630D01*
X011046Y004644D01*
X011059Y004657D01*
X011073Y004667D01*
X011089Y004674D01*
X011106Y004678D01*
X011123Y004680D01*
X010747Y008287D02*
X010749Y008313D01*
X010754Y008339D01*
X010762Y008364D01*
X010774Y008387D01*
X010788Y008409D01*
X010806Y008428D01*
X010825Y008446D01*
X010847Y008460D01*
X010870Y008472D01*
X010895Y008480D01*
X010921Y008485D01*
X010947Y008487D01*
X011417Y008480D02*
X011443Y008478D01*
X011469Y008473D01*
X011494Y008465D01*
X011517Y008453D01*
X011539Y008439D01*
X011558Y008421D01*
X011576Y008402D01*
X011590Y008380D01*
X011602Y008357D01*
X011610Y008332D01*
X011615Y008306D01*
X011617Y008280D01*
X012747Y008287D02*
X012749Y008313D01*
X012754Y008339D01*
X012762Y008364D01*
X012774Y008387D01*
X012788Y008409D01*
X012806Y008428D01*
X012825Y008446D01*
X012847Y008460D01*
X012870Y008472D01*
X012895Y008480D01*
X012921Y008485D01*
X012947Y008487D01*
X013417Y008480D02*
X013443Y008478D01*
X013469Y008473D01*
X013494Y008465D01*
X013517Y008453D01*
X013539Y008439D01*
X013558Y008421D01*
X013576Y008402D01*
X013590Y008380D01*
X013602Y008357D01*
X013610Y008332D01*
X013615Y008306D01*
X013617Y008280D01*
X014263Y009880D02*
X014280Y009882D01*
X014297Y009886D01*
X014313Y009893D01*
X014327Y009903D01*
X014340Y009916D01*
X014350Y009930D01*
X014357Y009946D01*
X014361Y009963D01*
X014363Y009980D01*
X014363Y010641D01*
X014361Y010658D01*
X014357Y010675D01*
X014350Y010691D01*
X014340Y010705D01*
X014327Y010718D01*
X014313Y010728D01*
X014297Y010735D01*
X014280Y010739D01*
X014263Y010741D01*
X012183Y010210D02*
X011932Y010044D01*
X012183Y009877D01*
X011932Y009877D02*
X011932Y010377D01*
X011584Y010377D02*
X011584Y009877D01*
X011750Y009877D02*
X011417Y009877D01*
X011123Y009880D02*
X011106Y009882D01*
X011089Y009886D01*
X011073Y009893D01*
X011059Y009903D01*
X011046Y009916D01*
X011036Y009930D01*
X011029Y009946D01*
X011025Y009963D01*
X011023Y009980D01*
X011023Y010680D01*
X011025Y010697D01*
X011029Y010714D01*
X011036Y010730D01*
X011046Y010744D01*
X011059Y010757D01*
X011073Y010767D01*
X011089Y010774D01*
X011106Y010778D01*
X011123Y010780D01*
X011584Y010377D02*
X011417Y010210D01*
X030272Y008504D02*
X030419Y008650D01*
X030419Y008210D01*
X030565Y008210D02*
X030272Y008210D01*
X030732Y008283D02*
X031026Y008577D01*
X031026Y008283D01*
X030952Y008210D01*
X030806Y008210D01*
X030732Y008283D01*
X030732Y008577D01*
X030806Y008650D01*
X030952Y008650D01*
X031026Y008577D01*
X031193Y008504D02*
X031193Y008283D01*
X031266Y008210D01*
X031486Y008210D01*
X031486Y008504D01*
X031653Y008430D02*
X031800Y008430D01*
X031726Y008577D02*
X031726Y008210D01*
X031670Y007900D02*
X031523Y007900D01*
X031450Y007827D01*
X031283Y007827D02*
X031209Y007900D01*
X031063Y007900D01*
X030989Y007827D01*
X030989Y007533D01*
X031063Y007460D01*
X031209Y007460D01*
X031283Y007533D01*
X031450Y007460D02*
X031743Y007754D01*
X031743Y007827D01*
X031670Y007900D01*
X031743Y007460D02*
X031450Y007460D01*
X030446Y007130D02*
X030448Y007192D01*
X030454Y007255D01*
X030464Y007316D01*
X030478Y007377D01*
X030495Y007437D01*
X030516Y007496D01*
X030542Y007553D01*
X030570Y007608D01*
X030602Y007662D01*
X030638Y007713D01*
X030676Y007763D01*
X030718Y007809D01*
X030762Y007853D01*
X030810Y007894D01*
X030859Y007932D01*
X030911Y007966D01*
X030965Y007997D01*
X031021Y008025D01*
X031079Y008049D01*
X031138Y008070D01*
X031198Y008086D01*
X031259Y008099D01*
X031321Y008108D01*
X031383Y008113D01*
X031446Y008114D01*
X031508Y008111D01*
X031570Y008104D01*
X031632Y008093D01*
X031692Y008078D01*
X031752Y008060D01*
X031810Y008038D01*
X031867Y008012D01*
X031922Y007982D01*
X031975Y007949D01*
X032026Y007913D01*
X032074Y007874D01*
X032120Y007831D01*
X032163Y007786D01*
X032203Y007738D01*
X032240Y007688D01*
X032274Y007635D01*
X032305Y007581D01*
X032331Y007525D01*
X032355Y007467D01*
X032374Y007407D01*
X032390Y007347D01*
X032402Y007285D01*
X032410Y007224D01*
X032414Y007161D01*
X032414Y007099D01*
X032410Y007036D01*
X032402Y006975D01*
X032390Y006913D01*
X032374Y006853D01*
X032355Y006793D01*
X032331Y006735D01*
X032305Y006679D01*
X032274Y006625D01*
X032240Y006572D01*
X032203Y006522D01*
X032163Y006474D01*
X032120Y006429D01*
X032074Y006386D01*
X032026Y006347D01*
X031975Y006311D01*
X031922Y006278D01*
X031867Y006248D01*
X031810Y006222D01*
X031752Y006200D01*
X031692Y006182D01*
X031632Y006167D01*
X031570Y006156D01*
X031508Y006149D01*
X031446Y006146D01*
X031383Y006147D01*
X031321Y006152D01*
X031259Y006161D01*
X031198Y006174D01*
X031138Y006190D01*
X031079Y006211D01*
X031021Y006235D01*
X030965Y006263D01*
X030911Y006294D01*
X030859Y006328D01*
X030810Y006366D01*
X030762Y006407D01*
X030718Y006451D01*
X030676Y006497D01*
X030638Y006547D01*
X030602Y006598D01*
X030570Y006652D01*
X030542Y006707D01*
X030516Y006764D01*
X030495Y006823D01*
X030478Y006883D01*
X030464Y006944D01*
X030454Y007005D01*
X030448Y007068D01*
X030446Y007130D01*
X031880Y006720D02*
X031880Y006470D01*
X031750Y006590D02*
X032010Y006590D01*
X031726Y008577D02*
X031800Y008650D01*
D14*
X026581Y006263D02*
X026581Y005802D01*
X026581Y005956D02*
X026811Y005802D01*
X026581Y005956D02*
X026811Y006109D01*
X026428Y006186D02*
X026428Y005879D01*
X026351Y005802D01*
X026198Y005802D01*
X026121Y005879D01*
X026428Y006186D01*
X026351Y006263D01*
X026198Y006263D01*
X026121Y006186D01*
X026121Y005879D01*
X025967Y005879D02*
X025891Y005802D01*
X025737Y005802D01*
X025660Y005879D01*
X025967Y006186D01*
X025967Y005879D01*
X025660Y005879D02*
X025660Y006186D01*
X025737Y006263D01*
X025891Y006263D01*
X025967Y006186D01*
X025353Y006263D02*
X025353Y005802D01*
X025200Y005802D02*
X025507Y005802D01*
X025200Y006109D02*
X025353Y006263D01*
X013563Y006575D02*
X013563Y006815D01*
X013563Y006695D02*
X013202Y006695D01*
X013323Y006575D01*
X013041Y006641D02*
X013041Y006761D01*
X012981Y006821D01*
X012981Y006950D02*
X013041Y007010D01*
X013041Y007130D01*
X012981Y007190D01*
X012921Y007190D01*
X012861Y007130D01*
X012861Y007070D01*
X012861Y007130D02*
X012801Y007190D01*
X012741Y007190D01*
X012681Y007130D01*
X012681Y007010D01*
X012741Y006950D01*
X012741Y006821D02*
X012681Y006761D01*
X012681Y006641D01*
X012741Y006581D01*
X012981Y006581D01*
X013041Y006641D01*
X013263Y006943D02*
X013202Y007003D01*
X013202Y007123D01*
X013263Y007183D01*
X013503Y006943D01*
X013563Y007003D01*
X013563Y007123D01*
X013503Y007183D01*
X013263Y007183D01*
X013263Y007311D02*
X013202Y007371D01*
X013202Y007491D01*
X013263Y007551D01*
X013503Y007311D01*
X013563Y007371D01*
X013563Y007491D01*
X013503Y007551D01*
X013263Y007551D01*
X013323Y007680D02*
X013323Y007860D01*
X013383Y007920D01*
X013563Y007920D01*
X013563Y007680D02*
X013323Y007680D01*
X013263Y007311D02*
X013503Y007311D01*
X013503Y006943D02*
X013263Y006943D01*
X011563Y007003D02*
X011503Y006943D01*
X011263Y007183D01*
X011503Y007183D01*
X011563Y007123D01*
X011563Y007003D01*
X011503Y006943D02*
X011263Y006943D01*
X011202Y007003D01*
X011202Y007123D01*
X011263Y007183D01*
X011263Y007311D02*
X011202Y007371D01*
X011202Y007491D01*
X011263Y007551D01*
X011503Y007311D01*
X011563Y007371D01*
X011563Y007491D01*
X011503Y007551D01*
X011263Y007551D01*
X011323Y007680D02*
X011323Y007860D01*
X011383Y007920D01*
X011563Y007920D01*
X011563Y007680D02*
X011323Y007680D01*
X011263Y007311D02*
X011503Y007311D01*
X011041Y007190D02*
X011041Y006950D01*
X011041Y007070D02*
X010681Y007070D01*
X010801Y006950D01*
X010741Y006821D02*
X010681Y006761D01*
X010681Y006641D01*
X010741Y006581D01*
X010981Y006581D01*
X011041Y006641D01*
X011041Y006761D01*
X010981Y006821D01*
X011202Y006695D02*
X011563Y006695D01*
X011563Y006575D02*
X011563Y006815D01*
X011323Y006575D02*
X011202Y006695D01*
X007311Y006109D02*
X007081Y005956D01*
X007311Y005802D01*
X007081Y005802D02*
X007081Y006263D01*
X006928Y006186D02*
X006621Y005879D01*
X006698Y005802D01*
X006851Y005802D01*
X006928Y005879D01*
X006928Y006186D01*
X006851Y006263D01*
X006698Y006263D01*
X006621Y006186D01*
X006621Y005879D01*
X006467Y005879D02*
X006391Y005802D01*
X006237Y005802D01*
X006160Y005879D01*
X006467Y006186D01*
X006467Y005879D01*
X006160Y005879D02*
X006160Y006186D01*
X006237Y006263D01*
X006391Y006263D01*
X006467Y006186D01*
X005853Y006263D02*
X005853Y005802D01*
X005700Y005802D02*
X006007Y005802D01*
X005700Y006109D02*
X005853Y006263D01*
D15*
X005349Y006436D02*
X005349Y005176D01*
X005566Y005176D01*
X005566Y004960D01*
X008794Y004960D01*
X008794Y005176D01*
X009011Y005176D01*
X009011Y006436D01*
X009011Y008326D02*
X009011Y009192D01*
X008794Y009192D01*
X008794Y009408D01*
X005566Y009408D01*
X005566Y009192D01*
X005349Y009192D01*
X005349Y008326D01*
X020530Y008550D02*
X020530Y008810D01*
X020530Y009550D02*
X020530Y009810D01*
X020530Y010580D02*
X020530Y010680D01*
X021280Y010680D01*
X021282Y010641D01*
X021288Y010602D01*
X021297Y010564D01*
X021310Y010527D01*
X021327Y010491D01*
X021347Y010458D01*
X021371Y010426D01*
X021397Y010397D01*
X021426Y010371D01*
X021458Y010347D01*
X021491Y010327D01*
X021527Y010310D01*
X021564Y010297D01*
X021602Y010288D01*
X021641Y010282D01*
X021680Y010280D01*
X021719Y010282D01*
X021758Y010288D01*
X021796Y010297D01*
X021833Y010310D01*
X021869Y010327D01*
X021902Y010347D01*
X021934Y010371D01*
X021963Y010397D01*
X021989Y010426D01*
X022013Y010458D01*
X022033Y010491D01*
X022050Y010527D01*
X022063Y010564D01*
X022072Y010602D01*
X022078Y010641D01*
X022080Y010680D01*
X022830Y010680D01*
X022830Y010580D01*
X022830Y009810D02*
X022830Y009550D01*
X022830Y008810D02*
X022830Y008550D01*
X022830Y007810D02*
X022830Y007550D01*
X022830Y006810D02*
X022830Y006550D01*
X022830Y005810D02*
X022830Y005550D01*
X022830Y004810D02*
X022830Y004550D01*
X022830Y003780D02*
X022830Y003680D01*
X020530Y003680D01*
X020530Y003780D01*
X020530Y004550D02*
X020530Y004810D01*
X020530Y005550D02*
X020530Y005810D01*
X020530Y006550D02*
X020530Y006810D01*
X020530Y007550D02*
X020530Y007810D01*
X024849Y008326D02*
X024849Y009192D01*
X025066Y009192D01*
X025066Y009408D01*
X028294Y009408D01*
X028294Y009192D01*
X028511Y009192D01*
X028511Y008326D01*
X028511Y006436D02*
X028511Y005176D01*
X028294Y005176D01*
X028294Y004960D01*
X025066Y004960D01*
X025066Y005176D01*
X024849Y005176D01*
X024849Y006436D01*
X031393Y002767D02*
X032967Y002767D01*
X033617Y002374D02*
X033617Y001193D01*
X030743Y001193D01*
X030743Y002374D01*
D16*
X031280Y003505D02*
X031205Y003580D01*
X031280Y003505D02*
X031430Y003505D01*
X031505Y003580D01*
X031505Y003655D01*
X031430Y003730D01*
X031280Y003730D01*
X031205Y003805D01*
X031205Y003880D01*
X031280Y003955D01*
X031430Y003955D01*
X031505Y003880D01*
X031665Y003880D02*
X031740Y003955D01*
X031891Y003955D01*
X031966Y003880D01*
X031966Y003805D01*
X031665Y003505D01*
X031966Y003505D01*
X022405Y006443D02*
X021955Y006443D01*
X022405Y006743D01*
X021955Y006743D01*
X021955Y006903D02*
X022405Y006903D01*
X022405Y007203D01*
X022180Y007053D02*
X022180Y006903D01*
X021955Y006903D02*
X021955Y007203D01*
X022180Y007363D02*
X022180Y007664D01*
X022180Y007824D02*
X021955Y007824D01*
X021955Y008124D01*
X021955Y008284D02*
X022180Y008284D01*
X022105Y008434D01*
X022105Y008509D01*
X022180Y008584D01*
X022330Y008584D01*
X022405Y008509D01*
X022405Y008359D01*
X022330Y008284D01*
X022330Y008124D02*
X022405Y008049D01*
X022405Y007899D01*
X022330Y007824D01*
X022180Y007824D02*
X022105Y007974D01*
X022105Y008049D01*
X022180Y008124D01*
X022330Y008124D01*
X021955Y008284D02*
X021955Y008584D01*
X022180Y008745D02*
X022180Y008970D01*
X022255Y009045D01*
X022330Y009045D01*
X022405Y008970D01*
X022405Y008820D01*
X022330Y008745D01*
X022180Y008745D01*
X022030Y008895D01*
X021955Y009045D01*
X015936Y007176D02*
X015962Y007235D01*
X015991Y007292D01*
X016023Y007347D01*
X016059Y007401D01*
X016098Y007452D01*
X016141Y007500D01*
X016186Y007546D01*
X016233Y007589D01*
X016283Y007630D01*
X016336Y007667D01*
X016391Y007700D01*
X016447Y007731D01*
X016506Y007758D01*
X016566Y007781D01*
X016627Y007801D01*
X016689Y007817D01*
X016753Y007829D01*
X016816Y007837D01*
X016880Y007841D01*
X016945Y007842D01*
X017009Y007838D01*
X017073Y007831D01*
X017136Y007820D01*
X017199Y007805D01*
X017260Y007786D01*
X017321Y007763D01*
X017379Y007737D01*
X017436Y007708D01*
X017492Y007675D01*
X017545Y007638D01*
X017595Y007599D01*
X017644Y007556D01*
X017689Y007511D01*
X017732Y007463D01*
X017772Y007413D01*
X017809Y007360D01*
X017842Y007305D01*
X017872Y007248D01*
X017899Y007189D01*
X017922Y007129D01*
X017941Y007068D01*
X017956Y007005D01*
X017968Y006942D01*
X017976Y006878D01*
X017980Y006814D01*
X017980Y006750D01*
X017976Y006686D01*
X017968Y006622D01*
X017956Y006559D01*
X017941Y006496D01*
X017922Y006435D01*
X017899Y006375D01*
X017872Y006316D01*
X017842Y006259D01*
X017809Y006204D01*
X017772Y006151D01*
X017732Y006101D01*
X017689Y006053D01*
X017644Y006008D01*
X017595Y005965D01*
X017545Y005926D01*
X017492Y005889D01*
X017436Y005856D01*
X017379Y005827D01*
X017321Y005801D01*
X017260Y005778D01*
X017199Y005759D01*
X017136Y005744D01*
X017073Y005733D01*
X017009Y005726D01*
X016945Y005722D01*
X016880Y005723D01*
X016816Y005727D01*
X016753Y005735D01*
X016689Y005747D01*
X016627Y005763D01*
X016566Y005783D01*
X016506Y005806D01*
X016447Y005833D01*
X016391Y005864D01*
X016336Y005897D01*
X016283Y005934D01*
X016233Y005975D01*
X016186Y006018D01*
X016141Y006064D01*
X016098Y006112D01*
X016059Y006163D01*
X016023Y006217D01*
X015991Y006272D01*
X015962Y006329D01*
X015936Y006388D01*
X015936Y006389D02*
X015936Y007176D01*
X032676Y007282D02*
X032678Y007433D01*
X032684Y007584D01*
X032694Y007735D01*
X032708Y007886D01*
X032726Y008036D01*
X032747Y008185D01*
X032773Y008334D01*
X032803Y008482D01*
X032836Y008630D01*
X032874Y008776D01*
X032915Y008922D01*
X032960Y009066D01*
X033009Y009209D01*
X033061Y009351D01*
X033117Y009491D01*
X033177Y009630D01*
X033241Y009767D01*
X033308Y009903D01*
X033379Y010036D01*
X033453Y010168D01*
X033530Y010298D01*
X033611Y010425D01*
X033695Y010551D01*
X033783Y010674D01*
X033874Y010795D01*
X033968Y010913D01*
X034065Y011029D01*
X034165Y011143D01*
X034268Y011253D01*
X034374Y011361D01*
X034482Y011466D01*
X034594Y011569D01*
X034708Y011668D01*
X034824Y011764D01*
X034943Y011857D01*
X035065Y011947D01*
X035188Y012034D01*
X035314Y012117D01*
X035443Y012197D01*
X035573Y012274D01*
X035705Y012347D01*
X035839Y012417D01*
X035975Y012483D01*
X036113Y012546D01*
X036252Y012605D01*
X036392Y012660D01*
X036535Y012712D01*
X036678Y012760D01*
X036823Y012804D01*
X036968Y012844D01*
X037115Y012881D01*
X037263Y012913D01*
X037411Y012942D01*
X037560Y012966D01*
X037710Y012987D01*
X037860Y013004D01*
X038011Y013017D01*
X038162Y013026D01*
X038313Y013031D01*
X038464Y013032D01*
X038615Y013029D01*
X038766Y013022D01*
X038917Y013011D01*
X039067Y012996D01*
X039217Y012977D01*
X039367Y012955D01*
X039515Y012928D01*
X039663Y012897D01*
X039811Y012863D01*
X039957Y012824D01*
X040102Y012782D01*
X040246Y012736D01*
X040389Y012687D01*
X040530Y012633D01*
X040670Y012576D01*
X040808Y012515D01*
X040945Y012451D01*
X041080Y012383D01*
X041213Y012311D01*
X041345Y012236D01*
X041474Y012158D01*
X041601Y012076D01*
X041726Y011991D01*
X041848Y011903D01*
X041969Y011811D01*
X042087Y011716D01*
X042202Y011619D01*
X042315Y011518D01*
X042425Y011414D01*
X042532Y011308D01*
X042636Y011198D01*
X042738Y011086D01*
X042836Y010972D01*
X042932Y010854D01*
X043024Y010735D01*
X043113Y010613D01*
X043199Y010488D01*
X043282Y010362D01*
X043361Y010233D01*
X043437Y010102D01*
X043509Y009970D01*
X043578Y009835D01*
X043643Y009699D01*
X043705Y009561D01*
X043763Y009421D01*
X043818Y009280D01*
X043868Y009138D01*
X043915Y008994D01*
X043958Y008849D01*
X043998Y008703D01*
X044033Y008556D01*
X044065Y008408D01*
X044092Y008260D01*
X044116Y008111D01*
X044136Y007961D01*
X044152Y007810D01*
X044164Y007660D01*
X044172Y007509D01*
X044176Y007358D01*
X044176Y007206D01*
X044172Y007055D01*
X044164Y006904D01*
X044152Y006754D01*
X044136Y006603D01*
X044116Y006453D01*
X044092Y006304D01*
X044065Y006156D01*
X044033Y006008D01*
X043998Y005861D01*
X043958Y005715D01*
X043915Y005570D01*
X043868Y005426D01*
X043818Y005284D01*
X043763Y005143D01*
X043705Y005003D01*
X043643Y004865D01*
X043578Y004729D01*
X043509Y004594D01*
X043437Y004462D01*
X043361Y004331D01*
X043282Y004202D01*
X043199Y004076D01*
X043113Y003951D01*
X043024Y003829D01*
X042932Y003710D01*
X042836Y003592D01*
X042738Y003478D01*
X042636Y003366D01*
X042532Y003256D01*
X042425Y003150D01*
X042315Y003046D01*
X042202Y002945D01*
X042087Y002848D01*
X041969Y002753D01*
X041848Y002661D01*
X041726Y002573D01*
X041601Y002488D01*
X041474Y002406D01*
X041345Y002328D01*
X041213Y002253D01*
X041080Y002181D01*
X040945Y002113D01*
X040808Y002049D01*
X040670Y001988D01*
X040530Y001931D01*
X040389Y001877D01*
X040246Y001828D01*
X040102Y001782D01*
X039957Y001740D01*
X039811Y001701D01*
X039663Y001667D01*
X039515Y001636D01*
X039367Y001609D01*
X039217Y001587D01*
X039067Y001568D01*
X038917Y001553D01*
X038766Y001542D01*
X038615Y001535D01*
X038464Y001532D01*
X038313Y001533D01*
X038162Y001538D01*
X038011Y001547D01*
X037860Y001560D01*
X037710Y001577D01*
X037560Y001598D01*
X037411Y001622D01*
X037263Y001651D01*
X037115Y001683D01*
X036968Y001720D01*
X036823Y001760D01*
X036678Y001804D01*
X036535Y001852D01*
X036392Y001904D01*
X036252Y001959D01*
X036113Y002018D01*
X035975Y002081D01*
X035839Y002147D01*
X035705Y002217D01*
X035573Y002290D01*
X035443Y002367D01*
X035314Y002447D01*
X035188Y002530D01*
X035065Y002617D01*
X034943Y002707D01*
X034824Y002800D01*
X034708Y002896D01*
X034594Y002995D01*
X034482Y003098D01*
X034374Y003203D01*
X034268Y003311D01*
X034165Y003421D01*
X034065Y003535D01*
X033968Y003651D01*
X033874Y003769D01*
X033783Y003890D01*
X033695Y004013D01*
X033611Y004139D01*
X033530Y004266D01*
X033453Y004396D01*
X033379Y004528D01*
X033308Y004661D01*
X033241Y004797D01*
X033177Y004934D01*
X033117Y005073D01*
X033061Y005213D01*
X033009Y005355D01*
X032960Y005498D01*
X032915Y005642D01*
X032874Y005788D01*
X032836Y005934D01*
X032803Y006082D01*
X032773Y006230D01*
X032747Y006379D01*
X032726Y006528D01*
X032708Y006678D01*
X032694Y006829D01*
X032684Y006980D01*
X032678Y007131D01*
X032676Y007282D01*
D17*
X037931Y008870D02*
X037956Y008845D01*
X037981Y008845D01*
X038006Y008870D01*
X038006Y008920D01*
X038031Y008945D01*
X038056Y008945D01*
X038081Y008920D01*
X038081Y008870D01*
X038056Y008845D01*
X037931Y008870D02*
X037931Y008920D01*
X037956Y008945D01*
X037931Y008993D02*
X037931Y009068D01*
X037956Y009093D01*
X038006Y009093D01*
X038031Y009068D01*
X038031Y008993D01*
X038081Y008993D02*
X037931Y008993D01*
X037981Y009140D02*
X037931Y009190D01*
X038081Y009190D01*
X038081Y009140D02*
X038081Y009240D01*
X038431Y009240D02*
X038431Y009140D01*
X038431Y009093D02*
X038581Y009093D01*
X038431Y008993D01*
X038581Y008993D01*
X038556Y008945D02*
X038431Y008945D01*
X038431Y008845D02*
X038556Y008845D01*
X038581Y008870D01*
X038581Y008920D01*
X038556Y008945D01*
X038556Y008798D02*
X038456Y008798D01*
X038431Y008773D01*
X038431Y008723D01*
X038456Y008698D01*
X038556Y008698D01*
X038581Y008723D01*
X038581Y008773D01*
X038556Y008798D01*
X038581Y008651D02*
X038431Y008651D01*
X038481Y008601D01*
X038431Y008551D01*
X038581Y008551D01*
X038606Y008503D02*
X038606Y008403D01*
X038556Y008356D02*
X038581Y008331D01*
X038581Y008256D01*
X038431Y008256D01*
X038431Y008331D01*
X038456Y008356D01*
X038481Y008356D01*
X038506Y008331D01*
X038506Y008256D01*
X038556Y008209D02*
X038581Y008184D01*
X038581Y008134D01*
X038556Y008109D01*
X038456Y008109D01*
X038431Y008134D01*
X038431Y008184D01*
X038456Y008209D01*
X038506Y008331D02*
X038531Y008356D01*
X038556Y008356D01*
X038506Y008062D02*
X038531Y008036D01*
X038531Y007961D01*
X038581Y007961D02*
X038431Y007961D01*
X038431Y008036D01*
X038456Y008062D01*
X038506Y008062D01*
X038506Y007914D02*
X038531Y007889D01*
X038531Y007814D01*
X038581Y007814D02*
X038431Y007814D01*
X038431Y007889D01*
X038456Y007914D01*
X038506Y007914D01*
X038531Y007864D02*
X038581Y007914D01*
X038581Y007767D02*
X038581Y007667D01*
X038431Y007667D01*
X038431Y007767D01*
X038506Y007717D02*
X038506Y007667D01*
X038581Y007620D02*
X038506Y007544D01*
X038531Y007519D02*
X038431Y007620D01*
X038431Y007519D02*
X038581Y007519D01*
X038581Y007472D02*
X038481Y007472D01*
X038431Y007422D01*
X038481Y007372D01*
X038581Y007372D01*
X038581Y007325D02*
X038581Y007225D01*
X038431Y007225D01*
X038431Y007325D01*
X038506Y007372D02*
X038506Y007472D01*
X038506Y007275D02*
X038506Y007225D01*
X038506Y007178D02*
X038531Y007153D01*
X038531Y007077D01*
X038531Y007030D02*
X038556Y007030D01*
X038581Y007005D01*
X038581Y006955D01*
X038556Y006930D01*
X038506Y006955D02*
X038506Y007005D01*
X038531Y007030D01*
X038581Y007077D02*
X038431Y007077D01*
X038431Y007153D01*
X038456Y007178D01*
X038506Y007178D01*
X038456Y007030D02*
X038431Y007005D01*
X038431Y006955D01*
X038456Y006930D01*
X038481Y006930D01*
X038506Y006955D01*
X038581Y009190D02*
X038431Y009190D01*
D18*
X026280Y007282D02*
X026282Y007322D01*
X026288Y007361D01*
X026298Y007400D01*
X026311Y007437D01*
X026329Y007473D01*
X026350Y007507D01*
X026374Y007539D01*
X026401Y007568D01*
X026431Y007595D01*
X026463Y007618D01*
X026498Y007638D01*
X026534Y007654D01*
X026572Y007667D01*
X026611Y007676D01*
X026650Y007681D01*
X026690Y007682D01*
X026730Y007679D01*
X026769Y007672D01*
X026807Y007661D01*
X026845Y007647D01*
X026880Y007628D01*
X026913Y007607D01*
X026945Y007582D01*
X026973Y007554D01*
X026999Y007524D01*
X027021Y007491D01*
X027040Y007456D01*
X027056Y007419D01*
X027068Y007381D01*
X027076Y007342D01*
X027080Y007302D01*
X027080Y007262D01*
X027076Y007222D01*
X027068Y007183D01*
X027056Y007145D01*
X027040Y007108D01*
X027021Y007073D01*
X026999Y007040D01*
X026973Y007010D01*
X026945Y006982D01*
X026913Y006957D01*
X026880Y006936D01*
X026845Y006917D01*
X026807Y006903D01*
X026769Y006892D01*
X026730Y006885D01*
X026690Y006882D01*
X026650Y006883D01*
X026611Y006888D01*
X026572Y006897D01*
X026534Y006910D01*
X026498Y006926D01*
X026463Y006946D01*
X026431Y006969D01*
X026401Y006996D01*
X026374Y007025D01*
X026350Y007057D01*
X026329Y007091D01*
X026311Y007127D01*
X026298Y007164D01*
X026288Y007203D01*
X026282Y007242D01*
X026280Y007282D01*
X026130Y007282D02*
X026132Y007329D01*
X026138Y007375D01*
X026148Y007421D01*
X026161Y007465D01*
X026179Y007509D01*
X026200Y007550D01*
X026224Y007590D01*
X026252Y007628D01*
X026283Y007663D01*
X026317Y007695D01*
X026353Y007724D01*
X026392Y007750D01*
X026432Y007773D01*
X026475Y007792D01*
X026519Y007808D01*
X026564Y007820D01*
X026610Y007828D01*
X026657Y007832D01*
X026703Y007832D01*
X026750Y007828D01*
X026796Y007820D01*
X026841Y007808D01*
X026885Y007792D01*
X026928Y007773D01*
X026968Y007750D01*
X027007Y007724D01*
X027043Y007695D01*
X027077Y007663D01*
X027108Y007628D01*
X027136Y007590D01*
X027160Y007550D01*
X027181Y007509D01*
X027199Y007465D01*
X027212Y007421D01*
X027222Y007375D01*
X027228Y007329D01*
X027230Y007282D01*
X027228Y007235D01*
X027222Y007189D01*
X027212Y007143D01*
X027199Y007099D01*
X027181Y007055D01*
X027160Y007014D01*
X027136Y006974D01*
X027108Y006936D01*
X027077Y006901D01*
X027043Y006869D01*
X027007Y006840D01*
X026968Y006814D01*
X026928Y006791D01*
X026885Y006772D01*
X026841Y006756D01*
X026796Y006744D01*
X026750Y006736D01*
X026703Y006732D01*
X026657Y006732D01*
X026610Y006736D01*
X026564Y006744D01*
X026519Y006756D01*
X026475Y006772D01*
X026432Y006791D01*
X026392Y006814D01*
X026353Y006840D01*
X026317Y006869D01*
X026283Y006901D01*
X026252Y006936D01*
X026224Y006974D01*
X026200Y007014D01*
X026179Y007055D01*
X026161Y007099D01*
X026148Y007143D01*
X026138Y007189D01*
X026132Y007235D01*
X026130Y007282D01*
X006780Y007282D02*
X006782Y007322D01*
X006788Y007361D01*
X006798Y007400D01*
X006811Y007437D01*
X006829Y007473D01*
X006850Y007507D01*
X006874Y007539D01*
X006901Y007568D01*
X006931Y007595D01*
X006963Y007618D01*
X006998Y007638D01*
X007034Y007654D01*
X007072Y007667D01*
X007111Y007676D01*
X007150Y007681D01*
X007190Y007682D01*
X007230Y007679D01*
X007269Y007672D01*
X007307Y007661D01*
X007345Y007647D01*
X007380Y007628D01*
X007413Y007607D01*
X007445Y007582D01*
X007473Y007554D01*
X007499Y007524D01*
X007521Y007491D01*
X007540Y007456D01*
X007556Y007419D01*
X007568Y007381D01*
X007576Y007342D01*
X007580Y007302D01*
X007580Y007262D01*
X007576Y007222D01*
X007568Y007183D01*
X007556Y007145D01*
X007540Y007108D01*
X007521Y007073D01*
X007499Y007040D01*
X007473Y007010D01*
X007445Y006982D01*
X007413Y006957D01*
X007380Y006936D01*
X007345Y006917D01*
X007307Y006903D01*
X007269Y006892D01*
X007230Y006885D01*
X007190Y006882D01*
X007150Y006883D01*
X007111Y006888D01*
X007072Y006897D01*
X007034Y006910D01*
X006998Y006926D01*
X006963Y006946D01*
X006931Y006969D01*
X006901Y006996D01*
X006874Y007025D01*
X006850Y007057D01*
X006829Y007091D01*
X006811Y007127D01*
X006798Y007164D01*
X006788Y007203D01*
X006782Y007242D01*
X006780Y007282D01*
X006630Y007282D02*
X006632Y007329D01*
X006638Y007375D01*
X006648Y007421D01*
X006661Y007465D01*
X006679Y007509D01*
X006700Y007550D01*
X006724Y007590D01*
X006752Y007628D01*
X006783Y007663D01*
X006817Y007695D01*
X006853Y007724D01*
X006892Y007750D01*
X006932Y007773D01*
X006975Y007792D01*
X007019Y007808D01*
X007064Y007820D01*
X007110Y007828D01*
X007157Y007832D01*
X007203Y007832D01*
X007250Y007828D01*
X007296Y007820D01*
X007341Y007808D01*
X007385Y007792D01*
X007428Y007773D01*
X007468Y007750D01*
X007507Y007724D01*
X007543Y007695D01*
X007577Y007663D01*
X007608Y007628D01*
X007636Y007590D01*
X007660Y007550D01*
X007681Y007509D01*
X007699Y007465D01*
X007712Y007421D01*
X007722Y007375D01*
X007728Y007329D01*
X007730Y007282D01*
X007728Y007235D01*
X007722Y007189D01*
X007712Y007143D01*
X007699Y007099D01*
X007681Y007055D01*
X007660Y007014D01*
X007636Y006974D01*
X007608Y006936D01*
X007577Y006901D01*
X007543Y006869D01*
X007507Y006840D01*
X007468Y006814D01*
X007428Y006791D01*
X007385Y006772D01*
X007341Y006756D01*
X007296Y006744D01*
X007250Y006736D01*
X007203Y006732D01*
X007157Y006732D01*
X007110Y006736D01*
X007064Y006744D01*
X007019Y006756D01*
X006975Y006772D01*
X006932Y006791D01*
X006892Y006814D01*
X006853Y006840D01*
X006817Y006869D01*
X006783Y006901D01*
X006752Y006936D01*
X006724Y006974D01*
X006700Y007014D01*
X006679Y007055D01*
X006661Y007099D01*
X006648Y007143D01*
X006638Y007189D01*
X006632Y007235D01*
X006630Y007282D01*
D19*
X030507Y011986D02*
X033853Y011986D01*
X033853Y013364D01*
X030507Y013364D01*
X030507Y011986D01*
M02*
