G75*
%MOIN*%
%OFA0B0*%
%FSLAX24Y24*%
%IPPOS*%
%LPD*%
%AMOC8*
5,1,8,0,0,1.08239X$1,22.5*
%
%ADD10C,0.0000*%
%ADD11C,0.1200*%
%ADD12C,0.0560*%
%ADD13C,0.0516*%
%ADD14C,0.0690*%
%ADD15C,0.0673*%
%ADD16C,0.1227*%
%ADD17C,0.0540*%
%ADD18C,0.0866*%
%ADD19C,0.0669*%
%ADD20C,0.0740*%
%ADD21C,0.0240*%
%ADD22C,0.0320*%
D10*
X006701Y001180D02*
X039656Y001180D01*
X039656Y013385D01*
X006982Y013385D01*
X018930Y011680D02*
X018932Y011722D01*
X018938Y011764D01*
X018948Y011805D01*
X018961Y011845D01*
X018979Y011883D01*
X018999Y011920D01*
X019024Y011955D01*
X019051Y011987D01*
X019081Y012016D01*
X019114Y012043D01*
X019149Y012066D01*
X019186Y012086D01*
X019225Y012102D01*
X019265Y012115D01*
X019306Y012124D01*
X019348Y012129D01*
X019391Y012130D01*
X019433Y012127D01*
X019474Y012120D01*
X019515Y012109D01*
X019555Y012095D01*
X019593Y012077D01*
X019629Y012055D01*
X019663Y012030D01*
X019694Y012002D01*
X019723Y011971D01*
X019749Y011938D01*
X019771Y011902D01*
X019791Y011864D01*
X019806Y011825D01*
X019818Y011785D01*
X019826Y011743D01*
X019830Y011701D01*
X019830Y011659D01*
X019826Y011617D01*
X019818Y011575D01*
X019806Y011535D01*
X019791Y011496D01*
X019771Y011458D01*
X019749Y011422D01*
X019723Y011389D01*
X019694Y011358D01*
X019663Y011330D01*
X019629Y011305D01*
X019593Y011283D01*
X019555Y011265D01*
X019515Y011251D01*
X019474Y011240D01*
X019433Y011233D01*
X019391Y011230D01*
X019348Y011231D01*
X019306Y011236D01*
X019265Y011245D01*
X019225Y011258D01*
X019186Y011274D01*
X019149Y011294D01*
X019114Y011317D01*
X019081Y011344D01*
X019051Y011373D01*
X019024Y011405D01*
X018999Y011440D01*
X018979Y011477D01*
X018961Y011515D01*
X018948Y011555D01*
X018938Y011596D01*
X018932Y011638D01*
X018930Y011680D01*
X006983Y013384D02*
X006828Y013385D01*
X006673Y013381D01*
X006518Y013373D01*
X006363Y013362D01*
X006209Y013346D01*
X006055Y013327D01*
X005901Y013304D01*
X005749Y013278D01*
X005597Y013247D01*
X005445Y013213D01*
X005295Y013174D01*
X005146Y013133D01*
X004998Y013087D01*
X004851Y013038D01*
X004705Y012985D01*
X004560Y012928D01*
X004417Y012868D01*
X004276Y012804D01*
X004136Y012737D01*
X003998Y012667D01*
X003862Y012593D01*
X003728Y012515D01*
X003595Y012434D01*
X003465Y012350D01*
X003337Y012263D01*
X003211Y012173D01*
X003087Y012079D01*
X002966Y011983D01*
X002847Y011883D01*
X002730Y011780D01*
X002617Y011675D01*
X002505Y011567D01*
X002397Y011456D01*
X002291Y011342D01*
X002189Y011226D01*
X002089Y011107D01*
X001992Y010986D01*
X001898Y010863D01*
X001808Y010737D01*
X001720Y010609D01*
X001636Y010479D01*
X001555Y010346D01*
X001477Y010212D01*
X001403Y010076D01*
X001332Y009938D01*
X001265Y009798D01*
X001201Y009657D01*
X001141Y009514D01*
X001084Y009370D01*
X001031Y009224D01*
X000981Y009077D01*
X000935Y008929D01*
X000893Y008780D01*
X000855Y008630D01*
X000820Y008478D01*
X000789Y008326D01*
X000762Y008174D01*
X000739Y008020D01*
X000720Y007867D01*
X000704Y007712D01*
X000692Y007558D01*
X000685Y007403D01*
X000681Y007248D01*
X000680Y007248D02*
X000680Y007201D01*
X000682Y007048D01*
X000688Y006896D01*
X000697Y006744D01*
X000711Y006592D01*
X000728Y006440D01*
X000749Y006289D01*
X000774Y006139D01*
X000803Y005989D01*
X000836Y005840D01*
X000872Y005692D01*
X000912Y005545D01*
X000956Y005399D01*
X001004Y005254D01*
X001055Y005110D01*
X001110Y004968D01*
X001168Y004827D01*
X001230Y004687D01*
X001295Y004549D01*
X001364Y004413D01*
X001437Y004279D01*
X001512Y004147D01*
X001591Y004016D01*
X001674Y003888D01*
X001759Y003761D01*
X001848Y003637D01*
X001940Y003516D01*
X002035Y003396D01*
X002133Y003279D01*
X002233Y003165D01*
X002337Y003053D01*
X002444Y002944D01*
X002553Y002837D01*
X002665Y002733D01*
X002779Y002633D01*
X002896Y002535D01*
X003016Y002440D01*
X003137Y002348D01*
X003261Y002259D01*
X003388Y002174D01*
X003516Y002091D01*
X003647Y002012D01*
X003779Y001937D01*
X003913Y001864D01*
X004049Y001795D01*
X004187Y001730D01*
X004327Y001668D01*
X004468Y001610D01*
X004610Y001555D01*
X004754Y001504D01*
X004899Y001456D01*
X005045Y001412D01*
X005192Y001372D01*
X005340Y001336D01*
X005489Y001303D01*
X005639Y001274D01*
X005789Y001249D01*
X005940Y001228D01*
X006092Y001211D01*
X006244Y001197D01*
X006396Y001188D01*
X006548Y001182D01*
X006701Y001180D01*
X013630Y002880D02*
X013632Y002922D01*
X013638Y002964D01*
X013648Y003005D01*
X013661Y003045D01*
X013679Y003083D01*
X013699Y003120D01*
X013724Y003155D01*
X013751Y003187D01*
X013781Y003216D01*
X013814Y003243D01*
X013849Y003266D01*
X013886Y003286D01*
X013925Y003302D01*
X013965Y003315D01*
X014006Y003324D01*
X014048Y003329D01*
X014091Y003330D01*
X014133Y003327D01*
X014174Y003320D01*
X014215Y003309D01*
X014255Y003295D01*
X014293Y003277D01*
X014329Y003255D01*
X014363Y003230D01*
X014394Y003202D01*
X014423Y003171D01*
X014449Y003138D01*
X014471Y003102D01*
X014491Y003064D01*
X014506Y003025D01*
X014518Y002985D01*
X014526Y002943D01*
X014530Y002901D01*
X014530Y002859D01*
X014526Y002817D01*
X014518Y002775D01*
X014506Y002735D01*
X014491Y002696D01*
X014471Y002658D01*
X014449Y002622D01*
X014423Y002589D01*
X014394Y002558D01*
X014363Y002530D01*
X014329Y002505D01*
X014293Y002483D01*
X014255Y002465D01*
X014215Y002451D01*
X014174Y002440D01*
X014133Y002433D01*
X014091Y002430D01*
X014048Y002431D01*
X014006Y002436D01*
X013965Y002445D01*
X013925Y002458D01*
X013886Y002474D01*
X013849Y002494D01*
X013814Y002517D01*
X013781Y002544D01*
X013751Y002573D01*
X013724Y002605D01*
X013699Y002640D01*
X013679Y002677D01*
X013661Y002715D01*
X013648Y002755D01*
X013638Y002796D01*
X013632Y002838D01*
X013630Y002880D01*
X024230Y002880D02*
X024232Y002922D01*
X024238Y002964D01*
X024248Y003005D01*
X024261Y003045D01*
X024279Y003083D01*
X024299Y003120D01*
X024324Y003155D01*
X024351Y003187D01*
X024381Y003216D01*
X024414Y003243D01*
X024449Y003266D01*
X024486Y003286D01*
X024525Y003302D01*
X024565Y003315D01*
X024606Y003324D01*
X024648Y003329D01*
X024691Y003330D01*
X024733Y003327D01*
X024774Y003320D01*
X024815Y003309D01*
X024855Y003295D01*
X024893Y003277D01*
X024929Y003255D01*
X024963Y003230D01*
X024994Y003202D01*
X025023Y003171D01*
X025049Y003138D01*
X025071Y003102D01*
X025091Y003064D01*
X025106Y003025D01*
X025118Y002985D01*
X025126Y002943D01*
X025130Y002901D01*
X025130Y002859D01*
X025126Y002817D01*
X025118Y002775D01*
X025106Y002735D01*
X025091Y002696D01*
X025071Y002658D01*
X025049Y002622D01*
X025023Y002589D01*
X024994Y002558D01*
X024963Y002530D01*
X024929Y002505D01*
X024893Y002483D01*
X024855Y002465D01*
X024815Y002451D01*
X024774Y002440D01*
X024733Y002433D01*
X024691Y002430D01*
X024648Y002431D01*
X024606Y002436D01*
X024565Y002445D01*
X024525Y002458D01*
X024486Y002474D01*
X024449Y002494D01*
X024414Y002517D01*
X024381Y002544D01*
X024351Y002573D01*
X024324Y002605D01*
X024299Y002640D01*
X024279Y002677D01*
X024261Y002715D01*
X024248Y002755D01*
X024238Y002796D01*
X024232Y002838D01*
X024230Y002880D01*
D11*
X029580Y004780D03*
X029580Y009880D03*
D12*
X023180Y010180D03*
X023180Y009180D03*
X023180Y008180D03*
X023180Y007180D03*
X023180Y006180D03*
X023180Y005180D03*
X023180Y004180D03*
X020180Y004180D03*
X020180Y005180D03*
X020180Y006180D03*
X020180Y007180D03*
X020180Y008180D03*
X020180Y009180D03*
X020180Y010180D03*
X014680Y010330D03*
X010680Y010330D03*
X011180Y008280D03*
X013180Y008280D03*
X013180Y006280D03*
X011180Y006280D03*
X010680Y004230D03*
X014680Y004230D03*
D13*
X031036Y007130D03*
X031824Y007130D03*
D14*
X038426Y004282D03*
X038426Y010282D03*
D15*
X027664Y004526D03*
X026680Y004526D03*
X025696Y004526D03*
X008164Y004526D03*
X007180Y004526D03*
X006196Y004526D03*
D16*
X005408Y007282D03*
X008952Y007282D03*
X024908Y007282D03*
X028452Y007282D03*
D17*
X017920Y006782D03*
X017170Y006782D03*
X016420Y006782D03*
X015670Y006782D03*
D18*
X030802Y002964D03*
X033558Y002964D03*
D19*
X033164Y001980D03*
X031196Y001980D03*
D20*
X031180Y012341D03*
X032180Y012419D03*
X033180Y012341D03*
D21*
X033080Y012520D01*
X032651Y012949D01*
X032383Y013060D02*
X031111Y013060D01*
X030785Y012925D02*
X028299Y010439D01*
X026014Y008342D02*
X024013Y010669D01*
X023180Y010180D02*
X020180Y007180D01*
X020300Y007120D01*
X020750Y006670D01*
X020120Y006220D02*
X019894Y006446D01*
X020120Y006220D02*
X020180Y006180D01*
X020300Y006040D01*
X021824Y004516D01*
X022491Y004240D02*
X023180Y004240D01*
X023180Y004180D01*
X024220Y003880D02*
X026960Y003880D01*
X027500Y004420D01*
X027664Y004526D01*
X027500Y004600D01*
X027500Y008510D01*
X027502Y008612D01*
X027508Y008714D01*
X027517Y008815D01*
X027530Y008917D01*
X027548Y009017D01*
X027568Y009117D01*
X027593Y009216D01*
X027621Y009314D01*
X027653Y009411D01*
X027689Y009507D01*
X027728Y009601D01*
X027770Y009694D01*
X027816Y009785D01*
X027865Y009874D01*
X027918Y009961D01*
X027974Y010047D01*
X028033Y010130D01*
X028095Y010211D01*
X028160Y010289D01*
X028228Y010366D01*
X028299Y010439D01*
X023180Y009180D02*
X023180Y008180D01*
X021837Y006220D02*
X021762Y006222D01*
X021686Y006227D01*
X021611Y006237D01*
X021537Y006250D01*
X021464Y006266D01*
X021391Y006286D01*
X021319Y006310D01*
X021249Y006337D01*
X021180Y006368D01*
X021112Y006401D01*
X021047Y006439D01*
X020983Y006479D01*
X020921Y006522D01*
X020862Y006569D01*
X020805Y006618D01*
X020750Y006670D01*
X021837Y006220D02*
X023180Y006220D01*
X023180Y006180D01*
X023180Y006040D01*
X024046Y005590D01*
X024077Y005572D01*
X024105Y005551D01*
X024130Y005527D01*
X024153Y005500D01*
X024173Y005471D01*
X024190Y005440D01*
X024203Y005408D01*
X024212Y005374D01*
X024218Y005339D01*
X024220Y005304D01*
X024220Y003880D01*
X022280Y002362D01*
X021463Y002080D02*
X012686Y002080D01*
X011549Y002551D02*
X010560Y003540D01*
X011549Y002551D02*
X011606Y002497D01*
X011666Y002445D01*
X011728Y002396D01*
X011793Y002351D01*
X011859Y002309D01*
X011928Y002270D01*
X011998Y002234D01*
X012071Y002202D01*
X012144Y002174D01*
X012219Y002149D01*
X012295Y002128D01*
X012372Y002111D01*
X012450Y002097D01*
X012528Y002088D01*
X012607Y002082D01*
X012686Y002080D01*
X010559Y003540D02*
X010482Y003615D01*
X010403Y003687D01*
X010320Y003755D01*
X010236Y003821D01*
X010149Y003884D01*
X010060Y003943D01*
X009968Y004000D01*
X009875Y004053D01*
X009780Y004102D01*
X009683Y004149D01*
X009585Y004191D01*
X009485Y004231D01*
X009384Y004266D01*
X009282Y004298D01*
X009179Y004327D01*
X009074Y004351D01*
X008969Y004372D01*
X008863Y004389D01*
X008757Y004403D01*
X008650Y004412D01*
X008543Y004418D01*
X008436Y004420D01*
X008240Y004420D01*
X008164Y004526D01*
X012121Y005939D02*
X013100Y004960D01*
X015110Y008112D01*
X016912Y009100D02*
X020120Y009100D01*
X020180Y009180D01*
X020465Y010499D02*
X020501Y010563D01*
X020540Y010625D01*
X020582Y010684D01*
X020627Y010742D01*
X020675Y010796D01*
X020727Y010848D01*
X020781Y010897D01*
X020837Y010943D01*
X020896Y010986D01*
X020958Y011026D01*
X021021Y011062D01*
X021086Y011094D01*
X021153Y011124D01*
X021222Y011149D01*
X021292Y011170D01*
X021362Y011188D01*
X021434Y011202D01*
X021506Y011212D01*
X021579Y011218D01*
X021652Y011220D01*
X022814Y011220D01*
X020466Y010499D02*
X020300Y010180D01*
X020180Y010180D01*
X014720Y010180D01*
X014680Y010330D01*
X010884Y008616D02*
X010859Y008643D01*
X010837Y008673D01*
X010817Y008704D01*
X010800Y008737D01*
X010786Y008771D01*
X010774Y008806D01*
X010766Y008842D01*
X010762Y008879D01*
X010760Y008916D01*
X010760Y010180D01*
X010680Y010330D01*
X010884Y008616D02*
X011120Y008380D01*
X011180Y008280D01*
X011300Y008200D01*
X011472Y008028D01*
X011840Y007140D02*
X011840Y006617D01*
X011842Y006559D01*
X011847Y006502D01*
X011856Y006444D01*
X011868Y006388D01*
X011883Y006332D01*
X011902Y006277D01*
X011924Y006224D01*
X011950Y006172D01*
X011978Y006121D01*
X012010Y006073D01*
X012044Y006026D01*
X012081Y005982D01*
X012121Y005940D01*
X013100Y004960D02*
X014148Y003825D01*
X014549Y003650D02*
X014850Y003650D01*
X015096Y003765D02*
X015757Y004557D01*
X014720Y004240D02*
X014680Y004230D01*
X014720Y004240D02*
X016125Y005645D01*
X017164Y005140D02*
X020120Y005140D01*
X020180Y005180D01*
X019894Y006446D02*
X019847Y006491D01*
X019798Y006532D01*
X019745Y006570D01*
X019691Y006606D01*
X019635Y006637D01*
X019577Y006666D01*
X019517Y006690D01*
X019456Y006712D01*
X019393Y006729D01*
X019330Y006742D01*
X019266Y006752D01*
X019202Y006758D01*
X019137Y006760D01*
X017960Y006760D01*
X017920Y006782D01*
X016912Y009100D02*
X016823Y009098D01*
X016733Y009093D01*
X016645Y009083D01*
X016556Y009070D01*
X016468Y009053D01*
X016381Y009033D01*
X016295Y009009D01*
X016210Y008982D01*
X016127Y008951D01*
X016044Y008916D01*
X015963Y008878D01*
X015884Y008837D01*
X015807Y008792D01*
X015731Y008744D01*
X015658Y008693D01*
X015586Y008639D01*
X015517Y008583D01*
X015451Y008523D01*
X015387Y008461D01*
X015326Y008395D01*
X015267Y008328D01*
X015212Y008258D01*
X015159Y008186D01*
X015109Y008112D01*
X016340Y006760D02*
X016420Y006782D01*
X016340Y006760D02*
X016340Y006164D01*
X016338Y006112D01*
X016333Y006060D01*
X016323Y006008D01*
X016310Y005957D01*
X016294Y005908D01*
X016274Y005860D01*
X016250Y005813D01*
X016224Y005768D01*
X016194Y005725D01*
X016161Y005684D01*
X016125Y005646D01*
X014549Y003650D02*
X014504Y003652D01*
X014459Y003657D01*
X014415Y003667D01*
X014372Y003679D01*
X014330Y003696D01*
X014290Y003716D01*
X014251Y003739D01*
X014214Y003765D01*
X014180Y003794D01*
X014148Y003826D01*
X014850Y003650D02*
X014885Y003652D01*
X014920Y003658D01*
X014953Y003667D01*
X014986Y003680D01*
X015017Y003697D01*
X015046Y003717D01*
X015073Y003740D01*
X015096Y003765D01*
X015758Y004557D02*
X015820Y004617D01*
X015885Y004675D01*
X015953Y004729D01*
X016023Y004780D01*
X016095Y004829D01*
X016169Y004874D01*
X016246Y004915D01*
X016323Y004954D01*
X016403Y004989D01*
X016484Y005020D01*
X016566Y005048D01*
X016649Y005072D01*
X016734Y005093D01*
X016819Y005110D01*
X016904Y005123D01*
X016991Y005132D01*
X017077Y005138D01*
X017164Y005140D01*
X021463Y002080D02*
X021531Y002082D01*
X021598Y002087D01*
X021665Y002096D01*
X021732Y002108D01*
X021798Y002123D01*
X021863Y002142D01*
X021927Y002164D01*
X021990Y002189D01*
X022051Y002218D01*
X022111Y002249D01*
X022169Y002284D01*
X022226Y002321D01*
X022280Y002362D01*
X027680Y004420D02*
X027664Y004526D01*
X027680Y004420D02*
X029694Y002406D01*
X030480Y002080D02*
X031100Y002080D01*
X031196Y001980D01*
X030480Y002080D02*
X030418Y002082D01*
X030355Y002087D01*
X030294Y002096D01*
X030233Y002108D01*
X030172Y002123D01*
X030113Y002142D01*
X030054Y002165D01*
X029998Y002190D01*
X029942Y002219D01*
X029888Y002250D01*
X029837Y002285D01*
X029787Y002323D01*
X029739Y002363D01*
X029694Y002406D01*
X026680Y004526D02*
X026600Y004600D01*
X026600Y006761D01*
X026598Y006857D01*
X026592Y006952D01*
X026583Y007047D01*
X026570Y007142D01*
X026553Y007236D01*
X026532Y007329D01*
X026508Y007422D01*
X026480Y007513D01*
X026449Y007604D01*
X026414Y007693D01*
X026375Y007780D01*
X026333Y007866D01*
X026288Y007950D01*
X026240Y008033D01*
X026188Y008113D01*
X026133Y008191D01*
X026075Y008267D01*
X026014Y008341D01*
X024014Y010669D02*
X023963Y010725D01*
X023910Y010779D01*
X023854Y010830D01*
X023796Y010878D01*
X023735Y010924D01*
X023673Y010967D01*
X023608Y011006D01*
X023542Y011043D01*
X023474Y011076D01*
X023405Y011106D01*
X023334Y011132D01*
X023262Y011155D01*
X023189Y011175D01*
X023115Y011191D01*
X023040Y011204D01*
X022965Y011213D01*
X022890Y011218D01*
X022814Y011220D01*
X030786Y012925D02*
X030815Y012952D01*
X030847Y012977D01*
X030881Y012998D01*
X030917Y013017D01*
X030954Y013032D01*
X030992Y013044D01*
X031031Y013053D01*
X031071Y013058D01*
X031111Y013060D01*
X032383Y013060D02*
X032420Y013058D01*
X032457Y013053D01*
X032493Y013044D01*
X032528Y013031D01*
X032562Y013015D01*
X032594Y012996D01*
X032623Y012974D01*
X032651Y012949D01*
X034199Y007300D02*
X034304Y007302D01*
X034409Y007308D01*
X034514Y007317D01*
X034619Y007330D01*
X034722Y007347D01*
X034826Y007367D01*
X034928Y007392D01*
X035030Y007419D01*
X035130Y007451D01*
X035229Y007486D01*
X035327Y007524D01*
X035424Y007566D01*
X035519Y007612D01*
X035612Y007661D01*
X035703Y007713D01*
X035793Y007768D01*
X035880Y007826D01*
X035966Y007888D01*
X036049Y007953D01*
X036130Y008020D01*
X036208Y008090D01*
X036284Y008163D01*
X036284Y008164D02*
X038300Y010180D01*
X038426Y010282D01*
X034199Y007300D02*
X032000Y007300D01*
X031824Y007130D01*
X022491Y004240D02*
X022434Y004242D01*
X022377Y004247D01*
X022321Y004255D01*
X022265Y004267D01*
X022210Y004283D01*
X022157Y004301D01*
X022104Y004323D01*
X022053Y004348D01*
X022003Y004376D01*
X021955Y004407D01*
X021909Y004441D01*
X021866Y004477D01*
X021824Y004516D01*
X011840Y007140D02*
X011838Y007206D01*
X011833Y007271D01*
X011825Y007336D01*
X011813Y007401D01*
X011797Y007465D01*
X011779Y007528D01*
X011757Y007590D01*
X011731Y007650D01*
X011703Y007710D01*
X011672Y007767D01*
X011638Y007824D01*
X011600Y007878D01*
X011560Y007930D01*
X011518Y007980D01*
X011472Y008027D01*
D22*
X029580Y009880D02*
X029680Y009780D01*
X029680Y009680D01*
X030717Y009680D01*
X031507Y010007D02*
X031853Y010353D01*
X031508Y010007D02*
X031462Y009964D01*
X031414Y009924D01*
X031364Y009886D01*
X031312Y009851D01*
X031258Y009820D01*
X031202Y009791D01*
X031145Y009765D01*
X031086Y009743D01*
X031027Y009724D01*
X030966Y009708D01*
X030904Y009696D01*
X030842Y009687D01*
X030780Y009682D01*
X030717Y009680D01*
X029680Y009680D02*
X029680Y007094D01*
X029682Y007034D01*
X029687Y006973D01*
X029696Y006914D01*
X029709Y006855D01*
X029725Y006796D01*
X029745Y006739D01*
X029768Y006684D01*
X029795Y006629D01*
X029824Y006577D01*
X029857Y006526D01*
X029893Y006477D01*
X029931Y006431D01*
X029973Y006387D01*
X031717Y004643D01*
X032180Y003525D02*
X032180Y003094D01*
X032182Y003034D01*
X032187Y002973D01*
X032196Y002914D01*
X032209Y002855D01*
X032225Y002796D01*
X032245Y002739D01*
X032268Y002684D01*
X032295Y002629D01*
X032324Y002577D01*
X032357Y002526D01*
X032393Y002477D01*
X032431Y002431D01*
X032473Y002387D01*
X032880Y001980D01*
X033164Y001980D01*
X032180Y003525D02*
X032178Y003603D01*
X032172Y003680D01*
X032163Y003757D01*
X032150Y003833D01*
X032133Y003909D01*
X032112Y003984D01*
X032088Y004058D01*
X032060Y004130D01*
X032028Y004201D01*
X031993Y004270D01*
X031955Y004338D01*
X031914Y004403D01*
X031869Y004467D01*
X031821Y004528D01*
X031770Y004587D01*
X031717Y004643D01*
X032180Y011143D02*
X032180Y012419D01*
X032180Y011143D02*
X032178Y011080D01*
X032173Y011018D01*
X032164Y010956D01*
X032152Y010894D01*
X032136Y010833D01*
X032117Y010774D01*
X032095Y010715D01*
X032069Y010658D01*
X032040Y010602D01*
X032009Y010548D01*
X031974Y010496D01*
X031936Y010446D01*
X031896Y010398D01*
X031853Y010352D01*
M02*
