G75*
%MOIN*%
%OFA0B0*%
%FSLAX24Y24*%
%IPPOS*%
%LPD*%
%AMOC8*
5,1,8,0,0,1.08239X$1,22.5*
%
%ADD10C,0.0000*%
%ADD11R,0.1200X0.1200*%
%ADD12OC8,0.0560*%
%ADD13R,0.0516X0.0516*%
%ADD14C,0.0516*%
%ADD15C,0.0560*%
%ADD16R,0.0690X0.0690*%
%ADD17R,0.0673X0.0673*%
%ADD18OC8,0.0673*%
%ADD19R,0.1227X0.1227*%
%ADD20C,0.0540*%
%ADD21C,0.0866*%
%ADD22C,0.0669*%
%ADD23C,0.0740*%
%ADD24C,0.0160*%
%ADD25C,0.0240*%
D10*
X006701Y001180D02*
X039656Y001180D01*
X039656Y013385D01*
X006982Y013385D01*
X018930Y011680D02*
X018932Y011722D01*
X018938Y011764D01*
X018948Y011805D01*
X018961Y011845D01*
X018979Y011883D01*
X018999Y011920D01*
X019024Y011955D01*
X019051Y011987D01*
X019081Y012016D01*
X019114Y012043D01*
X019149Y012066D01*
X019186Y012086D01*
X019225Y012102D01*
X019265Y012115D01*
X019306Y012124D01*
X019348Y012129D01*
X019391Y012130D01*
X019433Y012127D01*
X019474Y012120D01*
X019515Y012109D01*
X019555Y012095D01*
X019593Y012077D01*
X019629Y012055D01*
X019663Y012030D01*
X019694Y012002D01*
X019723Y011971D01*
X019749Y011938D01*
X019771Y011902D01*
X019791Y011864D01*
X019806Y011825D01*
X019818Y011785D01*
X019826Y011743D01*
X019830Y011701D01*
X019830Y011659D01*
X019826Y011617D01*
X019818Y011575D01*
X019806Y011535D01*
X019791Y011496D01*
X019771Y011458D01*
X019749Y011422D01*
X019723Y011389D01*
X019694Y011358D01*
X019663Y011330D01*
X019629Y011305D01*
X019593Y011283D01*
X019555Y011265D01*
X019515Y011251D01*
X019474Y011240D01*
X019433Y011233D01*
X019391Y011230D01*
X019348Y011231D01*
X019306Y011236D01*
X019265Y011245D01*
X019225Y011258D01*
X019186Y011274D01*
X019149Y011294D01*
X019114Y011317D01*
X019081Y011344D01*
X019051Y011373D01*
X019024Y011405D01*
X018999Y011440D01*
X018979Y011477D01*
X018961Y011515D01*
X018948Y011555D01*
X018938Y011596D01*
X018932Y011638D01*
X018930Y011680D01*
X006983Y013384D02*
X006828Y013385D01*
X006673Y013381D01*
X006518Y013373D01*
X006363Y013362D01*
X006209Y013346D01*
X006055Y013327D01*
X005901Y013304D01*
X005749Y013278D01*
X005597Y013247D01*
X005445Y013213D01*
X005295Y013174D01*
X005146Y013133D01*
X004998Y013087D01*
X004851Y013038D01*
X004705Y012985D01*
X004560Y012928D01*
X004417Y012868D01*
X004276Y012804D01*
X004136Y012737D01*
X003998Y012667D01*
X003862Y012593D01*
X003728Y012515D01*
X003595Y012434D01*
X003465Y012350D01*
X003337Y012263D01*
X003211Y012173D01*
X003087Y012079D01*
X002966Y011983D01*
X002847Y011883D01*
X002730Y011780D01*
X002617Y011675D01*
X002505Y011567D01*
X002397Y011456D01*
X002291Y011342D01*
X002189Y011226D01*
X002089Y011107D01*
X001992Y010986D01*
X001898Y010863D01*
X001808Y010737D01*
X001720Y010609D01*
X001636Y010479D01*
X001555Y010346D01*
X001477Y010212D01*
X001403Y010076D01*
X001332Y009938D01*
X001265Y009798D01*
X001201Y009657D01*
X001141Y009514D01*
X001084Y009370D01*
X001031Y009224D01*
X000981Y009077D01*
X000935Y008929D01*
X000893Y008780D01*
X000855Y008630D01*
X000820Y008478D01*
X000789Y008326D01*
X000762Y008174D01*
X000739Y008020D01*
X000720Y007867D01*
X000704Y007712D01*
X000692Y007558D01*
X000685Y007403D01*
X000681Y007248D01*
X000680Y007248D02*
X000680Y007201D01*
X000682Y007048D01*
X000688Y006896D01*
X000697Y006744D01*
X000711Y006592D01*
X000728Y006440D01*
X000749Y006289D01*
X000774Y006139D01*
X000803Y005989D01*
X000836Y005840D01*
X000872Y005692D01*
X000912Y005545D01*
X000956Y005399D01*
X001004Y005254D01*
X001055Y005110D01*
X001110Y004968D01*
X001168Y004827D01*
X001230Y004687D01*
X001295Y004549D01*
X001364Y004413D01*
X001437Y004279D01*
X001512Y004147D01*
X001591Y004016D01*
X001674Y003888D01*
X001759Y003761D01*
X001848Y003637D01*
X001940Y003516D01*
X002035Y003396D01*
X002133Y003279D01*
X002233Y003165D01*
X002337Y003053D01*
X002444Y002944D01*
X002553Y002837D01*
X002665Y002733D01*
X002779Y002633D01*
X002896Y002535D01*
X003016Y002440D01*
X003137Y002348D01*
X003261Y002259D01*
X003388Y002174D01*
X003516Y002091D01*
X003647Y002012D01*
X003779Y001937D01*
X003913Y001864D01*
X004049Y001795D01*
X004187Y001730D01*
X004327Y001668D01*
X004468Y001610D01*
X004610Y001555D01*
X004754Y001504D01*
X004899Y001456D01*
X005045Y001412D01*
X005192Y001372D01*
X005340Y001336D01*
X005489Y001303D01*
X005639Y001274D01*
X005789Y001249D01*
X005940Y001228D01*
X006092Y001211D01*
X006244Y001197D01*
X006396Y001188D01*
X006548Y001182D01*
X006701Y001180D01*
X013630Y002880D02*
X013632Y002922D01*
X013638Y002964D01*
X013648Y003005D01*
X013661Y003045D01*
X013679Y003083D01*
X013699Y003120D01*
X013724Y003155D01*
X013751Y003187D01*
X013781Y003216D01*
X013814Y003243D01*
X013849Y003266D01*
X013886Y003286D01*
X013925Y003302D01*
X013965Y003315D01*
X014006Y003324D01*
X014048Y003329D01*
X014091Y003330D01*
X014133Y003327D01*
X014174Y003320D01*
X014215Y003309D01*
X014255Y003295D01*
X014293Y003277D01*
X014329Y003255D01*
X014363Y003230D01*
X014394Y003202D01*
X014423Y003171D01*
X014449Y003138D01*
X014471Y003102D01*
X014491Y003064D01*
X014506Y003025D01*
X014518Y002985D01*
X014526Y002943D01*
X014530Y002901D01*
X014530Y002859D01*
X014526Y002817D01*
X014518Y002775D01*
X014506Y002735D01*
X014491Y002696D01*
X014471Y002658D01*
X014449Y002622D01*
X014423Y002589D01*
X014394Y002558D01*
X014363Y002530D01*
X014329Y002505D01*
X014293Y002483D01*
X014255Y002465D01*
X014215Y002451D01*
X014174Y002440D01*
X014133Y002433D01*
X014091Y002430D01*
X014048Y002431D01*
X014006Y002436D01*
X013965Y002445D01*
X013925Y002458D01*
X013886Y002474D01*
X013849Y002494D01*
X013814Y002517D01*
X013781Y002544D01*
X013751Y002573D01*
X013724Y002605D01*
X013699Y002640D01*
X013679Y002677D01*
X013661Y002715D01*
X013648Y002755D01*
X013638Y002796D01*
X013632Y002838D01*
X013630Y002880D01*
X024230Y002880D02*
X024232Y002922D01*
X024238Y002964D01*
X024248Y003005D01*
X024261Y003045D01*
X024279Y003083D01*
X024299Y003120D01*
X024324Y003155D01*
X024351Y003187D01*
X024381Y003216D01*
X024414Y003243D01*
X024449Y003266D01*
X024486Y003286D01*
X024525Y003302D01*
X024565Y003315D01*
X024606Y003324D01*
X024648Y003329D01*
X024691Y003330D01*
X024733Y003327D01*
X024774Y003320D01*
X024815Y003309D01*
X024855Y003295D01*
X024893Y003277D01*
X024929Y003255D01*
X024963Y003230D01*
X024994Y003202D01*
X025023Y003171D01*
X025049Y003138D01*
X025071Y003102D01*
X025091Y003064D01*
X025106Y003025D01*
X025118Y002985D01*
X025126Y002943D01*
X025130Y002901D01*
X025130Y002859D01*
X025126Y002817D01*
X025118Y002775D01*
X025106Y002735D01*
X025091Y002696D01*
X025071Y002658D01*
X025049Y002622D01*
X025023Y002589D01*
X024994Y002558D01*
X024963Y002530D01*
X024929Y002505D01*
X024893Y002483D01*
X024855Y002465D01*
X024815Y002451D01*
X024774Y002440D01*
X024733Y002433D01*
X024691Y002430D01*
X024648Y002431D01*
X024606Y002436D01*
X024565Y002445D01*
X024525Y002458D01*
X024486Y002474D01*
X024449Y002494D01*
X024414Y002517D01*
X024381Y002544D01*
X024351Y002573D01*
X024324Y002605D01*
X024299Y002640D01*
X024279Y002677D01*
X024261Y002715D01*
X024248Y002755D01*
X024238Y002796D01*
X024232Y002838D01*
X024230Y002880D01*
D11*
X029580Y004780D03*
X029580Y009880D03*
D12*
X014680Y010330D03*
X010680Y010330D03*
X011180Y008280D03*
X013180Y008280D03*
X013180Y006280D03*
X011180Y006280D03*
X010680Y004230D03*
X014680Y004230D03*
D13*
X031824Y007130D03*
D14*
X031036Y007130D03*
D15*
X023460Y007180D02*
X022900Y007180D01*
X020460Y007180D02*
X019900Y007180D01*
X019900Y006180D02*
X020460Y006180D01*
X022900Y006180D02*
X023460Y006180D01*
X023460Y005180D02*
X022900Y005180D01*
X020460Y005180D02*
X019900Y005180D01*
X019900Y004180D02*
X020460Y004180D01*
X022900Y004180D02*
X023460Y004180D01*
X023460Y008180D02*
X022900Y008180D01*
X020460Y008180D02*
X019900Y008180D01*
X019900Y009180D02*
X020460Y009180D01*
X022900Y009180D02*
X023460Y009180D01*
X023460Y010180D02*
X022900Y010180D01*
X020460Y010180D02*
X019900Y010180D01*
D16*
X038426Y010282D03*
X038426Y004282D03*
D17*
X025696Y004526D03*
X006196Y004526D03*
D18*
X007180Y004526D03*
X008164Y004526D03*
X026680Y004526D03*
X027664Y004526D03*
D19*
X028452Y007282D03*
X024908Y007282D03*
X008952Y007282D03*
X005408Y007282D03*
D20*
X015670Y007322D02*
X015670Y006782D01*
X016420Y006782D02*
X016420Y006242D01*
X017920Y006242D02*
X017920Y006782D01*
X017170Y006782D02*
X017170Y007322D01*
D21*
X030802Y002964D03*
X033558Y002964D03*
D22*
X033164Y001980D03*
X031196Y001980D03*
D23*
X031180Y012341D03*
X032180Y012419D03*
X033180Y012341D03*
D24*
X004677Y001775D02*
X003926Y002118D01*
X003231Y002565D01*
X002606Y003106D01*
X002065Y003731D01*
X001618Y004426D01*
X001275Y005177D01*
X001042Y005970D01*
X000925Y006788D01*
X000910Y007201D01*
X000910Y007245D01*
X000931Y007672D01*
X001064Y008516D01*
X001315Y009333D01*
X001681Y010106D01*
X002152Y010818D01*
X002721Y011457D01*
X003374Y012008D01*
X004099Y012460D01*
X004881Y012805D01*
X005704Y013035D01*
X006552Y013145D01*
X006978Y013155D01*
X006981Y013155D01*
X007074Y013153D01*
X007076Y013155D01*
X039426Y013155D01*
X039426Y001410D01*
X006701Y001410D01*
X006288Y001425D01*
X005470Y001542D01*
X004677Y001775D01*
X004592Y001814D02*
X030686Y001814D01*
X030661Y001874D02*
X030742Y001677D01*
X030893Y001527D01*
X031089Y001445D01*
X031302Y001445D01*
X031499Y001527D01*
X031649Y001677D01*
X031730Y001874D01*
X031730Y002086D01*
X031649Y002283D01*
X031499Y002433D01*
X031302Y002515D01*
X031248Y002515D01*
X031339Y002606D01*
X031435Y002838D01*
X031435Y003090D01*
X031339Y003323D01*
X031161Y003501D01*
X030928Y003597D01*
X030676Y003597D01*
X030443Y003501D01*
X030265Y003323D01*
X030169Y003090D01*
X030169Y002838D01*
X030265Y002606D01*
X030265Y002607D02*
X025303Y002607D01*
X025256Y002495D02*
X025360Y002745D01*
X025360Y003015D01*
X025256Y003265D01*
X025065Y003456D01*
X024815Y003560D01*
X024545Y003560D01*
X024295Y003456D01*
X024104Y003265D01*
X024000Y003015D01*
X024000Y002745D01*
X024104Y002495D01*
X024295Y002304D01*
X024545Y002200D01*
X024815Y002200D01*
X025065Y002304D01*
X025256Y002495D01*
X025210Y002448D02*
X030423Y002448D01*
X030443Y002428D02*
X030676Y002331D01*
X030791Y002331D01*
X030742Y002283D01*
X030661Y002086D01*
X030661Y001874D01*
X030661Y001973D02*
X004245Y001973D01*
X003906Y002131D02*
X030680Y002131D01*
X030749Y002290D02*
X025031Y002290D01*
X024329Y002290D02*
X014431Y002290D01*
X014465Y002304D02*
X014656Y002495D01*
X014760Y002745D01*
X014760Y003015D01*
X014656Y003265D01*
X014465Y003456D01*
X014215Y003560D01*
X013945Y003560D01*
X013695Y003456D01*
X013504Y003265D01*
X013400Y003015D01*
X013400Y002745D01*
X013504Y002495D01*
X013695Y002304D01*
X013945Y002200D01*
X014215Y002200D01*
X014465Y002304D01*
X014610Y002448D02*
X024150Y002448D01*
X024057Y002607D02*
X014703Y002607D01*
X014760Y002765D02*
X024000Y002765D01*
X024000Y002924D02*
X020759Y002924D01*
X020784Y002930D02*
X020784Y002930D01*
X021018Y003065D01*
X021068Y003116D01*
X021068Y003116D01*
X021112Y003159D01*
X021113Y003161D01*
X021113Y003161D01*
X021158Y003206D01*
X022697Y004745D01*
X022805Y004700D01*
X023555Y004700D01*
X023732Y004773D01*
X023779Y004820D01*
X023784Y004820D01*
X023901Y004869D01*
X024501Y005468D01*
X024534Y005501D01*
X024546Y005513D01*
X024615Y005574D01*
X024775Y005666D01*
X024953Y005714D01*
X025045Y005720D01*
X029658Y005720D01*
X030037Y005822D01*
X030377Y006018D01*
X030470Y006112D01*
X030470Y006112D01*
X031031Y006672D01*
X031127Y006672D01*
X031296Y006742D01*
X031366Y006812D01*
X031366Y006789D01*
X031483Y006672D01*
X032164Y006672D01*
X032281Y006789D01*
X032281Y007471D01*
X032164Y007588D01*
X031483Y007588D01*
X031366Y007471D01*
X031366Y007448D01*
X031296Y007518D01*
X031127Y007588D01*
X030945Y007588D01*
X030777Y007518D01*
X030648Y007389D01*
X030579Y007221D01*
X030579Y007125D01*
X030063Y006609D01*
X029979Y006536D01*
X029787Y006425D01*
X029572Y006367D01*
X029461Y006360D01*
X024868Y006360D01*
X024525Y006268D01*
X024218Y006091D01*
X024138Y006011D01*
X024081Y005953D01*
X024048Y005921D01*
X023720Y005592D01*
X023555Y005660D01*
X022805Y005660D01*
X022628Y005587D01*
X022493Y005452D01*
X022480Y005420D01*
X022459Y005411D01*
X022369Y005321D01*
X020706Y003658D01*
X020661Y003613D01*
X020623Y003580D01*
X020535Y003529D01*
X020438Y003503D01*
X020387Y003500D01*
X018792Y003500D01*
X018625Y003511D01*
X018303Y003597D01*
X018014Y003764D01*
X017888Y003874D01*
X015990Y005772D01*
X015990Y006052D01*
X016022Y005976D01*
X016154Y005844D01*
X016327Y005772D01*
X016514Y005772D01*
X016686Y005844D01*
X016819Y005976D01*
X016890Y006149D01*
X016890Y006398D01*
X016904Y006384D01*
X017077Y006312D01*
X017264Y006312D01*
X017436Y006384D01*
X017450Y006398D01*
X017450Y006149D01*
X017522Y005976D01*
X017654Y005844D01*
X017827Y005772D01*
X018014Y005772D01*
X018186Y005844D01*
X018319Y005976D01*
X018390Y006149D01*
X018390Y006876D01*
X018319Y007049D01*
X018186Y007181D01*
X018014Y007252D01*
X017827Y007252D01*
X017654Y007181D01*
X017640Y007167D01*
X017640Y007416D01*
X017569Y007589D01*
X017436Y007721D01*
X017264Y007792D01*
X017077Y007792D01*
X016904Y007721D01*
X016772Y007589D01*
X016700Y007416D01*
X016700Y007167D01*
X016686Y007181D01*
X016514Y007252D01*
X016327Y007252D01*
X016154Y007181D01*
X016140Y007167D01*
X016140Y007416D01*
X016069Y007589D01*
X015936Y007721D01*
X015764Y007792D01*
X015577Y007792D01*
X015404Y007721D01*
X015272Y007589D01*
X015200Y007416D01*
X015200Y006689D01*
X015272Y006516D01*
X015350Y006438D01*
X015350Y005626D01*
X015360Y005602D01*
X015360Y005592D01*
X015427Y005430D01*
X015444Y005413D01*
X015489Y005368D01*
X015534Y005323D01*
X015534Y005323D01*
X017481Y003377D01*
X017614Y003243D01*
X017614Y003243D01*
X018052Y002991D01*
X018539Y002860D01*
X020522Y002860D01*
X020784Y002930D01*
X021018Y003065D02*
X021018Y003065D01*
X021035Y003082D02*
X024028Y003082D01*
X024093Y003241D02*
X021193Y003241D01*
X021158Y003206D02*
X021158Y003206D01*
X021352Y003399D02*
X024237Y003399D01*
X024539Y003558D02*
X021510Y003558D01*
X021669Y003716D02*
X022766Y003716D01*
X022805Y003700D02*
X023555Y003700D01*
X023732Y003773D01*
X023867Y003908D01*
X023940Y004085D01*
X023940Y004275D01*
X023867Y004452D01*
X023732Y004587D01*
X023555Y004660D01*
X022805Y004660D01*
X022628Y004587D01*
X022493Y004452D01*
X022420Y004275D01*
X022420Y004085D01*
X022493Y003908D01*
X022628Y003773D01*
X022805Y003700D01*
X022527Y003875D02*
X021827Y003875D01*
X021986Y004033D02*
X022441Y004033D01*
X022420Y004192D02*
X022144Y004192D01*
X022303Y004350D02*
X022451Y004350D01*
X022461Y004509D02*
X022550Y004509D01*
X022620Y004667D02*
X025159Y004667D01*
X025159Y004509D02*
X023810Y004509D01*
X023909Y004350D02*
X025159Y004350D01*
X025159Y004192D02*
X023940Y004192D01*
X023919Y004033D02*
X025233Y004033D01*
X025276Y003990D02*
X025159Y004107D01*
X025159Y004946D01*
X025276Y005063D01*
X026115Y005063D01*
X026232Y004946D01*
X026232Y004838D01*
X026458Y005063D01*
X026902Y005063D01*
X027172Y004793D01*
X027442Y005063D01*
X027886Y005063D01*
X028201Y004749D01*
X028201Y004304D01*
X027886Y003990D01*
X027442Y003990D01*
X027172Y004260D01*
X026902Y003990D01*
X026458Y003990D01*
X026232Y004215D01*
X026232Y004107D01*
X026115Y003990D01*
X025276Y003990D01*
X024821Y003558D02*
X030580Y003558D01*
X030342Y003399D02*
X025123Y003399D01*
X025267Y003241D02*
X030231Y003241D01*
X030169Y003082D02*
X025332Y003082D01*
X025360Y002924D02*
X030169Y002924D01*
X030199Y002765D02*
X025360Y002765D01*
X023594Y003716D02*
X039426Y003716D01*
X039426Y003558D02*
X033780Y003558D01*
X033684Y003597D02*
X033432Y003597D01*
X033199Y003501D01*
X033021Y003323D01*
X032925Y003090D01*
X032925Y002838D01*
X033021Y002606D01*
X033112Y002515D01*
X033058Y002515D01*
X032861Y002433D01*
X032711Y002283D01*
X032630Y002086D01*
X032630Y001874D01*
X032711Y001677D01*
X032861Y001527D01*
X033058Y001445D01*
X033271Y001445D01*
X033467Y001527D01*
X033618Y001677D01*
X033699Y001874D01*
X033699Y002086D01*
X033618Y002283D01*
X033569Y002331D01*
X033684Y002331D01*
X033917Y002428D01*
X034095Y002606D01*
X034095Y002607D02*
X039426Y002607D01*
X039426Y002448D02*
X033937Y002448D01*
X034095Y002606D02*
X034191Y002838D01*
X034191Y003090D01*
X034095Y003323D01*
X033917Y003501D01*
X033684Y003597D01*
X033336Y003558D02*
X031024Y003558D01*
X031263Y003399D02*
X033097Y003399D01*
X032987Y003241D02*
X031373Y003241D01*
X031435Y003082D02*
X032925Y003082D01*
X032925Y002924D02*
X031435Y002924D01*
X031405Y002765D02*
X032955Y002765D01*
X033021Y002607D02*
X031339Y002607D01*
X031463Y002448D02*
X032897Y002448D01*
X032718Y002290D02*
X031642Y002290D01*
X031712Y002131D02*
X032648Y002131D01*
X032630Y001973D02*
X031730Y001973D01*
X031706Y001814D02*
X032654Y001814D01*
X032733Y001656D02*
X031627Y001656D01*
X031427Y001497D02*
X032933Y001497D01*
X033395Y001497D02*
X039426Y001497D01*
X039426Y001656D02*
X033596Y001656D01*
X033674Y001814D02*
X039426Y001814D01*
X039426Y001973D02*
X033699Y001973D01*
X033680Y002131D02*
X039426Y002131D01*
X039426Y002290D02*
X033611Y002290D01*
X034161Y002765D02*
X039426Y002765D01*
X039426Y002924D02*
X034191Y002924D01*
X034191Y003082D02*
X039426Y003082D01*
X039426Y003241D02*
X034129Y003241D01*
X034018Y003399D02*
X039426Y003399D01*
X038915Y003827D02*
X038939Y003868D01*
X038951Y003914D01*
X038951Y004250D01*
X038459Y004250D01*
X038459Y004315D01*
X038951Y004315D01*
X038951Y004651D01*
X038939Y004697D01*
X038915Y004738D01*
X038882Y004771D01*
X038841Y004795D01*
X038795Y004807D01*
X038459Y004807D01*
X038459Y004315D01*
X038394Y004315D01*
X038394Y004807D01*
X038057Y004807D01*
X038012Y004795D01*
X037971Y004771D01*
X037937Y004738D01*
X037913Y004697D01*
X037901Y004651D01*
X037901Y004315D01*
X038394Y004315D01*
X038394Y004250D01*
X038459Y004250D01*
X038459Y003757D01*
X038795Y003757D01*
X038841Y003770D01*
X038882Y003793D01*
X038915Y003827D01*
X038941Y003875D02*
X039426Y003875D01*
X039426Y004033D02*
X038951Y004033D01*
X038951Y004192D02*
X039426Y004192D01*
X039426Y004350D02*
X038951Y004350D01*
X038951Y004509D02*
X039426Y004509D01*
X039426Y004667D02*
X038947Y004667D01*
X038459Y004667D02*
X038394Y004667D01*
X038394Y004509D02*
X038459Y004509D01*
X038459Y004350D02*
X038394Y004350D01*
X038394Y004250D02*
X037901Y004250D01*
X037901Y003914D01*
X037913Y003868D01*
X037937Y003827D01*
X037971Y003793D01*
X038012Y003770D01*
X038057Y003757D01*
X038394Y003757D01*
X038394Y004250D01*
X038394Y004192D02*
X038459Y004192D01*
X038459Y004033D02*
X038394Y004033D01*
X038394Y003875D02*
X038459Y003875D01*
X037912Y003875D02*
X023833Y003875D01*
X021714Y004667D02*
X017096Y004667D01*
X017254Y004509D02*
X019578Y004509D01*
X019600Y004531D02*
X019549Y004480D01*
X019507Y004421D01*
X019474Y004357D01*
X019451Y004288D01*
X019440Y004216D01*
X019440Y004180D01*
X020180Y004180D01*
X020180Y004180D01*
X020180Y004640D01*
X020496Y004640D01*
X020568Y004629D01*
X020637Y004606D01*
X020701Y004573D01*
X020760Y004531D01*
X020811Y004480D01*
X020853Y004421D01*
X020886Y004357D01*
X020909Y004288D01*
X020920Y004216D01*
X020920Y004180D01*
X020180Y004180D01*
X020180Y004180D01*
X020180Y003720D01*
X020496Y003720D01*
X020568Y003731D01*
X020637Y003754D01*
X020701Y003787D01*
X020760Y003829D01*
X020811Y003880D01*
X020853Y003939D01*
X020886Y004003D01*
X020909Y004072D01*
X020920Y004144D01*
X020920Y004180D01*
X020180Y004180D01*
X020180Y004180D01*
X020180Y004180D01*
X020180Y004640D01*
X019864Y004640D01*
X019792Y004629D01*
X019723Y004606D01*
X019659Y004573D01*
X019600Y004531D01*
X019472Y004350D02*
X017413Y004350D01*
X017571Y004192D02*
X019440Y004192D01*
X019440Y004180D02*
X019440Y004144D01*
X019451Y004072D01*
X019474Y004003D01*
X019507Y003939D01*
X019549Y003880D01*
X019600Y003829D01*
X019659Y003787D01*
X019723Y003754D01*
X019792Y003731D01*
X019864Y003720D01*
X020180Y003720D01*
X020180Y004180D01*
X019440Y004180D01*
X019464Y004033D02*
X017730Y004033D01*
X017888Y003875D02*
X019555Y003875D01*
X020180Y003875D02*
X020180Y003875D01*
X020180Y004033D02*
X020180Y004033D01*
X020180Y004192D02*
X020180Y004192D01*
X020180Y004350D02*
X020180Y004350D01*
X020180Y004509D02*
X020180Y004509D01*
X019805Y004700D02*
X020555Y004700D01*
X020732Y004773D01*
X020867Y004908D01*
X020940Y005085D01*
X020940Y005275D01*
X020867Y005452D01*
X020732Y005587D01*
X020555Y005660D01*
X019805Y005660D01*
X019628Y005587D01*
X019493Y005452D01*
X019420Y005275D01*
X019420Y005085D01*
X019493Y004908D01*
X019628Y004773D01*
X019805Y004700D01*
X019576Y004826D02*
X016937Y004826D01*
X016779Y004984D02*
X019462Y004984D01*
X019420Y005143D02*
X016620Y005143D01*
X016462Y005301D02*
X019431Y005301D01*
X019501Y005460D02*
X016303Y005460D01*
X016145Y005618D02*
X019703Y005618D01*
X019805Y005700D02*
X020555Y005700D01*
X020732Y005773D01*
X020867Y005908D01*
X020940Y006085D01*
X020940Y006275D01*
X020867Y006452D01*
X020732Y006587D01*
X020555Y006660D01*
X019805Y006660D01*
X019628Y006587D01*
X019493Y006452D01*
X019420Y006275D01*
X019420Y006085D01*
X019493Y005908D01*
X019628Y005773D01*
X019805Y005700D01*
X019625Y005777D02*
X018024Y005777D01*
X017817Y005777D02*
X016524Y005777D01*
X016317Y005777D02*
X015990Y005777D01*
X015990Y005935D02*
X016063Y005935D01*
X016777Y005935D02*
X017563Y005935D01*
X017473Y006094D02*
X016867Y006094D01*
X016890Y006252D02*
X017450Y006252D01*
X018277Y005935D02*
X019482Y005935D01*
X019420Y006094D02*
X018367Y006094D01*
X018390Y006252D02*
X019420Y006252D01*
X019476Y006411D02*
X018390Y006411D01*
X018390Y006569D02*
X019610Y006569D01*
X019738Y006728D02*
X018390Y006728D01*
X018386Y006886D02*
X019515Y006886D01*
X019493Y006908D02*
X019628Y006773D01*
X019805Y006700D01*
X020555Y006700D01*
X020732Y006773D01*
X020867Y006908D01*
X020940Y007085D01*
X020940Y007275D01*
X020867Y007452D01*
X020732Y007587D01*
X020555Y007660D01*
X019805Y007660D01*
X019628Y007587D01*
X019493Y007452D01*
X019420Y007275D01*
X019420Y007085D01*
X019493Y006908D01*
X019437Y007045D02*
X018320Y007045D01*
X018133Y007203D02*
X019420Y007203D01*
X019456Y007362D02*
X017640Y007362D01*
X017640Y007203D02*
X017708Y007203D01*
X017597Y007520D02*
X019561Y007520D01*
X019628Y007773D02*
X019805Y007700D01*
X020555Y007700D01*
X020732Y007773D01*
X020867Y007908D01*
X020940Y008085D01*
X020940Y008275D01*
X020867Y008452D01*
X020732Y008587D01*
X020555Y008660D01*
X019805Y008660D01*
X019628Y008587D01*
X019493Y008452D01*
X019420Y008275D01*
X019420Y008085D01*
X019493Y007908D01*
X019628Y007773D01*
X019564Y007837D02*
X013416Y007837D01*
X013379Y007800D02*
X012981Y007800D01*
X012700Y008081D01*
X012700Y008307D01*
X012395Y008612D01*
X012312Y008685D01*
X012121Y008796D01*
X011907Y008853D01*
X011797Y008860D01*
X009335Y008860D01*
X009170Y008849D01*
X008852Y008764D01*
X008567Y008599D01*
X008443Y008491D01*
X008398Y008446D01*
X008398Y008446D01*
X007934Y007982D01*
X007806Y007836D01*
X007613Y007501D01*
X007513Y007127D01*
X007500Y006933D01*
X007500Y004965D01*
X007672Y004793D01*
X007942Y005063D01*
X008386Y005063D01*
X008701Y004749D01*
X008701Y004304D01*
X008386Y003990D01*
X007942Y003990D01*
X007672Y004260D01*
X007402Y003990D01*
X006958Y003990D01*
X006732Y004215D01*
X006732Y004107D01*
X006615Y003990D01*
X005776Y003990D01*
X005659Y004107D01*
X005659Y004946D01*
X005776Y005063D01*
X006615Y005063D01*
X006732Y004946D01*
X006732Y004838D01*
X006860Y004965D01*
X006860Y007213D01*
X007005Y007753D01*
X007284Y008237D01*
X007284Y008237D01*
X007437Y008389D01*
X007437Y008389D01*
X007946Y008898D01*
X007946Y008898D01*
X007991Y008943D01*
X007991Y008943D01*
X007995Y008948D01*
X008036Y008988D01*
X008036Y008988D01*
X008168Y009120D01*
X008168Y009120D01*
X008601Y009370D01*
X008601Y009370D01*
X009085Y009500D01*
X011993Y009500D01*
X012371Y009399D01*
X012371Y009399D01*
X012709Y009203D01*
X012709Y009203D01*
X012803Y009110D01*
X012803Y009110D01*
X012860Y009053D01*
X012860Y010823D01*
X012978Y011264D01*
X012978Y011264D01*
X013206Y011659D01*
X013206Y011659D01*
X013323Y011775D01*
X013323Y011775D01*
X013662Y012115D01*
X013699Y012152D01*
X013752Y012205D01*
X013907Y012359D01*
X013907Y012359D01*
X014377Y012673D01*
X014377Y012673D01*
X014899Y012890D01*
X014899Y012890D01*
X015453Y013000D01*
X020440Y013000D01*
X020775Y012910D01*
X020775Y012910D01*
X021076Y012736D01*
X021076Y012736D01*
X021154Y012658D01*
X021154Y012658D01*
X021398Y012414D01*
X021398Y012414D01*
X021443Y012369D01*
X021443Y012369D01*
X021447Y012366D01*
X021488Y012324D01*
X021488Y012324D01*
X021620Y012192D01*
X021620Y012192D01*
X021870Y011759D01*
X021870Y011759D01*
X022000Y011275D01*
X022000Y011089D01*
X022000Y010143D01*
X022007Y010039D01*
X022061Y009838D01*
X022165Y009657D01*
X022234Y009579D01*
X022234Y009579D01*
X022260Y009556D01*
X022321Y009520D01*
X022389Y009502D01*
X022424Y009500D01*
X022541Y009500D01*
X022628Y009587D01*
X022805Y009660D01*
X023555Y009660D01*
X023732Y009587D01*
X023867Y009452D01*
X023940Y009275D01*
X023940Y009085D01*
X023867Y008908D01*
X023732Y008773D01*
X023555Y008700D01*
X022805Y008700D01*
X022628Y008773D01*
X022541Y008860D01*
X022304Y008860D01*
X022073Y008922D01*
X022073Y008922D01*
X021866Y009042D01*
X021866Y009042D01*
X021826Y009081D01*
X021826Y009081D01*
X021786Y009122D01*
X021781Y009126D01*
X021736Y009171D01*
X021736Y009171D01*
X021647Y009260D01*
X021647Y009260D01*
X021458Y009588D01*
X021458Y009588D01*
X021360Y009954D01*
X021360Y011025D01*
X021349Y011190D01*
X021264Y011508D01*
X021099Y011793D01*
X020991Y011917D01*
X020946Y011962D01*
X020946Y011962D01*
X020747Y012161D01*
X020680Y012219D01*
X020526Y012308D01*
X020355Y012354D01*
X020266Y012360D01*
X015736Y012360D01*
X015518Y012349D01*
X015089Y012264D01*
X014685Y012097D01*
X014322Y011854D01*
X014160Y011707D01*
X014152Y011699D01*
X014115Y011662D01*
X013820Y011368D01*
X013726Y011260D01*
X013583Y011013D01*
X013509Y010737D01*
X013500Y010594D01*
X013500Y008639D01*
X013660Y008479D01*
X013660Y008081D01*
X013379Y007800D01*
X012944Y007837D02*
X011416Y007837D01*
X011379Y007800D02*
X010981Y007800D01*
X010700Y008081D01*
X010700Y008479D01*
X010981Y008760D01*
X011379Y008760D01*
X011660Y008479D01*
X011660Y008081D01*
X011379Y007800D01*
X010944Y007837D02*
X009765Y007837D01*
X009765Y007979D02*
X009648Y008096D01*
X008255Y008096D01*
X008138Y007979D01*
X008138Y006586D01*
X008255Y006469D01*
X009648Y006469D01*
X009765Y006586D01*
X009765Y007979D01*
X009748Y007996D02*
X010786Y007996D01*
X010700Y008154D02*
X008107Y008154D01*
X008155Y007996D02*
X007948Y007996D01*
X007807Y007837D02*
X008138Y007837D01*
X008138Y007679D02*
X007716Y007679D01*
X007624Y007520D02*
X008138Y007520D01*
X008138Y007362D02*
X007576Y007362D01*
X007533Y007203D02*
X008138Y007203D01*
X008138Y007045D02*
X007507Y007045D01*
X007500Y006886D02*
X008138Y006886D01*
X008138Y006728D02*
X007500Y006728D01*
X007500Y006569D02*
X008155Y006569D01*
X007500Y006411D02*
X010720Y006411D01*
X010720Y006471D02*
X010720Y006280D01*
X011180Y006280D01*
X011180Y006280D01*
X011180Y006740D01*
X011371Y006740D01*
X011640Y006471D01*
X011640Y006280D01*
X011180Y006280D01*
X011180Y006280D01*
X011180Y006280D01*
X011180Y006740D01*
X010989Y006740D01*
X010720Y006471D01*
X010818Y006569D02*
X009748Y006569D01*
X009765Y006728D02*
X010977Y006728D01*
X011180Y006728D02*
X011180Y006728D01*
X011180Y006569D02*
X011180Y006569D01*
X011180Y006411D02*
X011180Y006411D01*
X011180Y006280D02*
X010720Y006280D01*
X010720Y006089D01*
X010989Y005820D01*
X011180Y005820D01*
X011371Y005820D01*
X011640Y006089D01*
X011640Y006280D01*
X011180Y006280D01*
X011180Y005820D01*
X011180Y006280D01*
X011180Y006280D01*
X011180Y006252D02*
X011180Y006252D01*
X011180Y006094D02*
X011180Y006094D01*
X011180Y005935D02*
X011180Y005935D01*
X011486Y005935D02*
X012874Y005935D01*
X012989Y005820D02*
X012720Y006089D01*
X012720Y006280D01*
X013180Y006280D01*
X013180Y006280D01*
X013180Y006740D01*
X013371Y006740D01*
X013640Y006471D01*
X013640Y006280D01*
X013180Y006280D01*
X013180Y006280D01*
X013180Y006280D01*
X013180Y006740D01*
X012989Y006740D01*
X012720Y006471D01*
X012720Y006280D01*
X013180Y006280D01*
X013640Y006280D01*
X013640Y006089D01*
X013371Y005820D01*
X013180Y005820D01*
X013180Y006280D01*
X013180Y006280D01*
X013180Y005820D01*
X012989Y005820D01*
X013180Y005935D02*
X013180Y005935D01*
X013180Y006094D02*
X013180Y006094D01*
X013180Y006252D02*
X013180Y006252D01*
X013180Y006411D02*
X013180Y006411D01*
X013180Y006569D02*
X013180Y006569D01*
X013180Y006728D02*
X013180Y006728D01*
X013383Y006728D02*
X015200Y006728D01*
X015200Y006886D02*
X009765Y006886D01*
X009765Y007045D02*
X015200Y007045D01*
X015200Y007203D02*
X009765Y007203D01*
X009765Y007362D02*
X015200Y007362D01*
X015243Y007520D02*
X009765Y007520D01*
X009765Y007679D02*
X015362Y007679D01*
X015979Y007679D02*
X016862Y007679D01*
X016743Y007520D02*
X016097Y007520D01*
X016140Y007362D02*
X016700Y007362D01*
X016700Y007203D02*
X016633Y007203D01*
X016208Y007203D02*
X016140Y007203D01*
X017479Y007679D02*
X024095Y007679D01*
X024095Y007520D02*
X023799Y007520D01*
X023732Y007587D02*
X023867Y007452D01*
X023940Y007275D01*
X023940Y007085D01*
X023867Y006908D01*
X023732Y006773D01*
X023555Y006700D01*
X022805Y006700D01*
X022628Y006773D01*
X022493Y006908D01*
X022420Y007085D01*
X022420Y007275D01*
X022493Y007452D01*
X022628Y007587D01*
X022805Y007660D01*
X023555Y007660D01*
X023732Y007587D01*
X023732Y007773D02*
X023867Y007908D01*
X023940Y008085D01*
X023940Y008275D01*
X023867Y008452D01*
X023732Y008587D01*
X023555Y008660D01*
X022805Y008660D01*
X022628Y008587D01*
X022493Y008452D01*
X022420Y008275D01*
X022420Y008085D01*
X022493Y007908D01*
X022628Y007773D01*
X022805Y007700D01*
X023555Y007700D01*
X023732Y007773D01*
X023796Y007837D02*
X024095Y007837D01*
X024095Y007979D02*
X024095Y006586D01*
X024212Y006469D01*
X025605Y006469D01*
X025722Y006586D01*
X025722Y007979D01*
X025605Y008096D01*
X024212Y008096D01*
X024095Y007979D01*
X024112Y007996D02*
X023903Y007996D01*
X023940Y008154D02*
X039426Y008154D01*
X039426Y007996D02*
X029248Y007996D01*
X029265Y007979D02*
X029148Y008096D01*
X027755Y008096D01*
X027638Y007979D01*
X027638Y006586D01*
X027755Y006469D01*
X029148Y006469D01*
X029265Y006586D01*
X029265Y007979D01*
X029265Y007837D02*
X039426Y007837D01*
X039426Y007679D02*
X029265Y007679D01*
X029265Y007520D02*
X030782Y007520D01*
X030637Y007362D02*
X029265Y007362D01*
X029265Y007203D02*
X030579Y007203D01*
X030498Y007045D02*
X029265Y007045D01*
X029265Y006886D02*
X030340Y006886D01*
X030181Y006728D02*
X029265Y006728D01*
X029248Y006569D02*
X030017Y006569D01*
X029734Y006411D02*
X023884Y006411D01*
X023867Y006452D02*
X023732Y006587D01*
X023555Y006660D01*
X022805Y006660D01*
X022628Y006587D01*
X022493Y006452D01*
X022420Y006275D01*
X022420Y006085D01*
X022493Y005908D01*
X022628Y005773D01*
X022805Y005700D01*
X023555Y005700D01*
X023732Y005773D01*
X023867Y005908D01*
X023940Y006085D01*
X023940Y006275D01*
X023867Y006452D01*
X023750Y006569D02*
X024112Y006569D01*
X024095Y006728D02*
X023622Y006728D01*
X023845Y006886D02*
X024095Y006886D01*
X024095Y007045D02*
X023923Y007045D01*
X023940Y007203D02*
X024095Y007203D01*
X024095Y007362D02*
X023904Y007362D01*
X022561Y007520D02*
X020799Y007520D01*
X020904Y007362D02*
X022456Y007362D01*
X022420Y007203D02*
X020940Y007203D01*
X020923Y007045D02*
X022437Y007045D01*
X022515Y006886D02*
X020845Y006886D01*
X020622Y006728D02*
X022738Y006728D01*
X022610Y006569D02*
X020750Y006569D01*
X020884Y006411D02*
X022476Y006411D01*
X022420Y006252D02*
X020940Y006252D01*
X020940Y006094D02*
X022420Y006094D01*
X022482Y005935D02*
X020878Y005935D01*
X020735Y005777D02*
X022625Y005777D01*
X022703Y005618D02*
X020657Y005618D01*
X020859Y005460D02*
X022501Y005460D01*
X022369Y005321D02*
X022369Y005321D01*
X022348Y005301D02*
X020929Y005301D01*
X020940Y005143D02*
X022190Y005143D01*
X022031Y004984D02*
X020898Y004984D01*
X020784Y004826D02*
X021873Y004826D01*
X021556Y004509D02*
X020782Y004509D01*
X020888Y004350D02*
X021397Y004350D01*
X021239Y004192D02*
X020920Y004192D01*
X020896Y004033D02*
X021080Y004033D01*
X020922Y003875D02*
X020805Y003875D01*
X020763Y003716D02*
X018097Y003716D01*
X018451Y003558D02*
X020584Y003558D01*
X020706Y003658D02*
X020706Y003658D01*
X018302Y002924D02*
X014760Y002924D01*
X014732Y003082D02*
X017893Y003082D01*
X018052Y002991D02*
X018052Y002991D01*
X017619Y003241D02*
X014667Y003241D01*
X014523Y003399D02*
X017458Y003399D01*
X017481Y003377D02*
X017481Y003377D01*
X017300Y003558D02*
X014221Y003558D01*
X013939Y003558D02*
X002215Y003558D01*
X002078Y003716D02*
X017141Y003716D01*
X016983Y003875D02*
X015003Y003875D01*
X014879Y003750D02*
X014481Y003750D01*
X014200Y004031D01*
X014200Y004429D01*
X014481Y004710D01*
X014879Y004710D01*
X015160Y004429D01*
X015160Y004031D01*
X014879Y003750D01*
X014357Y003875D02*
X010975Y003875D01*
X010871Y003770D02*
X011140Y004039D01*
X011140Y004230D01*
X011140Y004421D01*
X010871Y004690D01*
X010680Y004690D01*
X010680Y004230D01*
X011140Y004230D01*
X010680Y004230D01*
X010680Y004230D01*
X010680Y004230D01*
X010680Y003770D01*
X010871Y003770D01*
X010680Y003770D02*
X010680Y004230D01*
X010680Y004230D01*
X010680Y004230D01*
X010220Y004230D01*
X010220Y004421D01*
X010489Y004690D01*
X010680Y004690D01*
X010680Y004230D01*
X010220Y004230D01*
X010220Y004039D01*
X010489Y003770D01*
X010680Y003770D01*
X010680Y003875D02*
X010680Y003875D01*
X010680Y004033D02*
X010680Y004033D01*
X010680Y004192D02*
X010680Y004192D01*
X010680Y004350D02*
X010680Y004350D01*
X010680Y004509D02*
X010680Y004509D01*
X010680Y004667D02*
X010680Y004667D01*
X010894Y004667D02*
X014438Y004667D01*
X014280Y004509D02*
X011052Y004509D01*
X011140Y004350D02*
X014200Y004350D01*
X014200Y004192D02*
X011140Y004192D01*
X011134Y004033D02*
X014200Y004033D01*
X015160Y004033D02*
X016824Y004033D01*
X016666Y004192D02*
X015160Y004192D01*
X015160Y004350D02*
X016507Y004350D01*
X016349Y004509D02*
X015080Y004509D01*
X014922Y004667D02*
X016190Y004667D01*
X016032Y004826D02*
X008624Y004826D01*
X008701Y004667D02*
X010466Y004667D01*
X010308Y004509D02*
X008701Y004509D01*
X008701Y004350D02*
X010220Y004350D01*
X010220Y004192D02*
X008588Y004192D01*
X008430Y004033D02*
X010226Y004033D01*
X010385Y003875D02*
X001972Y003875D01*
X001871Y004033D02*
X005733Y004033D01*
X005659Y004192D02*
X001769Y004192D01*
X001667Y004350D02*
X005659Y004350D01*
X005659Y004509D02*
X001580Y004509D01*
X001508Y004667D02*
X005659Y004667D01*
X005659Y004826D02*
X001436Y004826D01*
X001363Y004984D02*
X005697Y004984D01*
X006694Y004984D02*
X006860Y004984D01*
X006860Y005143D02*
X001291Y005143D01*
X001239Y005301D02*
X006860Y005301D01*
X006860Y005460D02*
X001192Y005460D01*
X001146Y005618D02*
X006860Y005618D01*
X006860Y005777D02*
X001099Y005777D01*
X001053Y005935D02*
X006860Y005935D01*
X006860Y006094D02*
X001025Y006094D01*
X001002Y006252D02*
X006860Y006252D01*
X006860Y006411D02*
X000979Y006411D01*
X000956Y006569D02*
X004612Y006569D01*
X004595Y006586D02*
X004712Y006469D01*
X006105Y006469D01*
X006222Y006586D01*
X006222Y007979D01*
X006105Y008096D01*
X004712Y008096D01*
X004595Y007979D01*
X004595Y006586D01*
X004595Y006728D02*
X000933Y006728D01*
X000921Y006886D02*
X004595Y006886D01*
X004595Y007045D02*
X000916Y007045D01*
X000910Y007203D02*
X004595Y007203D01*
X004595Y007362D02*
X000916Y007362D01*
X000923Y007520D02*
X004595Y007520D01*
X004595Y007679D02*
X000932Y007679D01*
X000957Y007837D02*
X004595Y007837D01*
X004612Y007996D02*
X000982Y007996D01*
X001007Y008154D02*
X007236Y008154D01*
X007145Y007996D02*
X006205Y007996D01*
X006222Y007837D02*
X007053Y007837D01*
X006985Y007679D02*
X006222Y007679D01*
X006222Y007520D02*
X006942Y007520D01*
X006900Y007362D02*
X006222Y007362D01*
X006222Y007203D02*
X006860Y007203D01*
X006860Y007045D02*
X006222Y007045D01*
X006222Y006886D02*
X006860Y006886D01*
X006860Y006728D02*
X006222Y006728D01*
X006205Y006569D02*
X006860Y006569D01*
X007500Y006252D02*
X010720Y006252D01*
X010720Y006094D02*
X007500Y006094D01*
X007500Y005935D02*
X010874Y005935D01*
X011640Y006094D02*
X012720Y006094D01*
X012720Y006252D02*
X011640Y006252D01*
X011640Y006411D02*
X012720Y006411D01*
X012818Y006569D02*
X011542Y006569D01*
X011383Y006728D02*
X012977Y006728D01*
X013542Y006569D02*
X015250Y006569D01*
X015350Y006411D02*
X013640Y006411D01*
X013640Y006252D02*
X015350Y006252D01*
X015350Y006094D02*
X013640Y006094D01*
X013486Y005935D02*
X015350Y005935D01*
X015350Y005777D02*
X007500Y005777D01*
X007500Y005618D02*
X015354Y005618D01*
X015415Y005460D02*
X007500Y005460D01*
X007500Y005301D02*
X015556Y005301D01*
X015427Y005430D02*
X015427Y005430D01*
X015715Y005143D02*
X007500Y005143D01*
X007500Y004984D02*
X007863Y004984D01*
X007705Y004826D02*
X007640Y004826D01*
X008465Y004984D02*
X015873Y004984D01*
X013637Y003399D02*
X002352Y003399D01*
X002490Y003241D02*
X013493Y003241D01*
X013428Y003082D02*
X002634Y003082D01*
X002817Y002924D02*
X013400Y002924D01*
X013400Y002765D02*
X003000Y002765D01*
X003183Y002607D02*
X013457Y002607D01*
X013550Y002448D02*
X003413Y002448D01*
X003659Y002290D02*
X013729Y002290D01*
X007899Y004033D02*
X007445Y004033D01*
X007604Y004192D02*
X007740Y004192D01*
X006915Y004033D02*
X006658Y004033D01*
X006732Y004192D02*
X006756Y004192D01*
X005084Y001656D02*
X030764Y001656D01*
X030965Y001497D02*
X005785Y001497D01*
X023797Y004826D02*
X025159Y004826D01*
X025197Y004984D02*
X024017Y004984D01*
X024175Y005143D02*
X028800Y005143D01*
X028800Y005301D02*
X024334Y005301D01*
X024492Y005460D02*
X028818Y005460D01*
X028812Y005449D02*
X028800Y005404D01*
X028800Y004860D01*
X029500Y004860D01*
X029500Y005560D01*
X028956Y005560D01*
X028911Y005548D01*
X028869Y005524D01*
X028836Y005491D01*
X028812Y005449D01*
X029500Y005460D02*
X029660Y005460D01*
X029660Y005560D02*
X030204Y005560D01*
X030249Y005548D01*
X030291Y005524D01*
X030324Y005491D01*
X030348Y005449D01*
X030360Y005404D01*
X030360Y004860D01*
X029660Y004860D01*
X029660Y004700D01*
X030360Y004700D01*
X030360Y004156D01*
X030348Y004111D01*
X030324Y004069D01*
X030291Y004036D01*
X030249Y004012D01*
X030204Y004000D01*
X029660Y004000D01*
X029660Y004700D01*
X029500Y004700D01*
X029500Y004000D01*
X028956Y004000D01*
X028911Y004012D01*
X028869Y004036D01*
X028836Y004069D01*
X028812Y004111D01*
X028800Y004156D01*
X028800Y004700D01*
X029500Y004700D01*
X029500Y004860D01*
X029660Y004860D01*
X029660Y005560D01*
X029869Y005777D02*
X039426Y005777D01*
X039426Y005935D02*
X030233Y005935D01*
X030377Y006018D02*
X030377Y006018D01*
X030452Y006094D02*
X039426Y006094D01*
X039426Y006252D02*
X030611Y006252D01*
X030769Y006411D02*
X039426Y006411D01*
X039426Y006569D02*
X030928Y006569D01*
X031261Y006728D02*
X031428Y006728D01*
X032220Y006728D02*
X039426Y006728D01*
X039426Y006886D02*
X032281Y006886D01*
X032281Y007045D02*
X039426Y007045D01*
X039426Y007203D02*
X032281Y007203D01*
X032281Y007362D02*
X039426Y007362D01*
X039426Y007520D02*
X032232Y007520D01*
X031415Y007520D02*
X031291Y007520D01*
X027638Y007520D02*
X025722Y007520D01*
X025722Y007362D02*
X027638Y007362D01*
X027638Y007203D02*
X025722Y007203D01*
X025722Y007045D02*
X027638Y007045D01*
X027638Y006886D02*
X025722Y006886D01*
X025722Y006728D02*
X027638Y006728D01*
X027655Y006569D02*
X025705Y006569D01*
X024525Y006268D02*
X024525Y006268D01*
X024497Y006252D02*
X023940Y006252D01*
X023940Y006094D02*
X024223Y006094D01*
X024218Y006091D02*
X024218Y006091D01*
X024062Y005935D02*
X023878Y005935D01*
X023904Y005777D02*
X023735Y005777D01*
X023745Y005618D02*
X023657Y005618D01*
X024691Y005618D02*
X039426Y005618D01*
X039426Y005460D02*
X030342Y005460D01*
X030360Y005301D02*
X039426Y005301D01*
X039426Y005143D02*
X030360Y005143D01*
X030360Y004984D02*
X039426Y004984D01*
X039426Y004826D02*
X029660Y004826D01*
X029660Y004984D02*
X029500Y004984D01*
X029500Y004826D02*
X028124Y004826D01*
X028201Y004667D02*
X028800Y004667D01*
X028800Y004509D02*
X028201Y004509D01*
X028201Y004350D02*
X028800Y004350D01*
X028800Y004192D02*
X028088Y004192D01*
X027930Y004033D02*
X028875Y004033D01*
X029500Y004033D02*
X029660Y004033D01*
X029660Y004192D02*
X029500Y004192D01*
X029500Y004350D02*
X029660Y004350D01*
X029660Y004509D02*
X029500Y004509D01*
X029500Y004667D02*
X029660Y004667D01*
X030360Y004667D02*
X037905Y004667D01*
X037901Y004509D02*
X030360Y004509D01*
X030360Y004350D02*
X037901Y004350D01*
X037901Y004192D02*
X030360Y004192D01*
X030285Y004033D02*
X037901Y004033D01*
X030443Y002428D02*
X030265Y002606D01*
X027399Y004033D02*
X026945Y004033D01*
X027104Y004192D02*
X027240Y004192D01*
X026415Y004033D02*
X026158Y004033D01*
X026232Y004192D02*
X026256Y004192D01*
X027140Y004826D02*
X027205Y004826D01*
X027363Y004984D02*
X026981Y004984D01*
X026379Y004984D02*
X026194Y004984D01*
X027965Y004984D02*
X028800Y004984D01*
X029500Y005143D02*
X029660Y005143D01*
X029660Y005301D02*
X029500Y005301D01*
X027638Y007679D02*
X025722Y007679D01*
X025722Y007837D02*
X027638Y007837D01*
X027655Y007996D02*
X025705Y007996D01*
X023925Y008313D02*
X039426Y008313D01*
X039426Y008471D02*
X023848Y008471D01*
X023629Y008630D02*
X039426Y008630D01*
X039426Y008788D02*
X023747Y008788D01*
X023883Y008947D02*
X039426Y008947D01*
X039426Y009105D02*
X030288Y009105D01*
X030263Y009080D02*
X030380Y009197D01*
X030380Y010563D01*
X030263Y010680D01*
X028897Y010680D01*
X028780Y010563D01*
X028780Y009197D01*
X028897Y009080D01*
X030263Y009080D01*
X030380Y009264D02*
X039426Y009264D01*
X039426Y009422D02*
X030380Y009422D01*
X030380Y009581D02*
X039426Y009581D01*
X039426Y009739D02*
X038856Y009739D01*
X038854Y009737D02*
X038971Y009855D01*
X038971Y010710D01*
X038854Y010827D01*
X037998Y010827D01*
X037881Y010710D01*
X037881Y009855D01*
X037998Y009737D01*
X038854Y009737D01*
X038971Y009898D02*
X039426Y009898D01*
X039426Y010056D02*
X038971Y010056D01*
X038971Y010215D02*
X039426Y010215D01*
X039426Y010373D02*
X038971Y010373D01*
X038971Y010532D02*
X039426Y010532D01*
X039426Y010690D02*
X038971Y010690D01*
X039426Y010849D02*
X022000Y010849D01*
X022000Y011007D02*
X039426Y011007D01*
X039426Y011166D02*
X022000Y011166D01*
X022000Y011275D02*
X022000Y011275D01*
X021987Y011324D02*
X039426Y011324D01*
X039426Y011483D02*
X021944Y011483D01*
X021902Y011641D02*
X039426Y011641D01*
X039426Y011800D02*
X033363Y011800D01*
X033293Y011771D02*
X033503Y011857D01*
X033663Y012018D01*
X033750Y012227D01*
X033750Y012454D01*
X033663Y012664D01*
X033503Y012824D01*
X033293Y012911D01*
X033067Y012911D01*
X032857Y012824D01*
X032697Y012664D01*
X032696Y012662D01*
X032663Y012742D01*
X032503Y012903D01*
X032293Y012989D01*
X032067Y012989D01*
X031857Y012903D01*
X031697Y012742D01*
X031664Y012662D01*
X031663Y012664D01*
X031503Y012824D01*
X031293Y012911D01*
X031067Y012911D01*
X030857Y012824D01*
X030697Y012664D01*
X030610Y012454D01*
X030610Y012227D01*
X030697Y012018D01*
X030857Y011857D01*
X031067Y011771D01*
X031293Y011771D01*
X031503Y011857D01*
X031663Y012018D01*
X031696Y012098D01*
X031697Y012096D01*
X031857Y011936D01*
X032067Y011849D01*
X032293Y011849D01*
X032503Y011936D01*
X032663Y012096D01*
X032664Y012098D01*
X032697Y012018D01*
X032857Y011857D01*
X033067Y011771D01*
X033293Y011771D01*
X032997Y011800D02*
X031363Y011800D01*
X031603Y011958D02*
X031835Y011958D01*
X032525Y011958D02*
X032757Y011958D01*
X033603Y011958D02*
X039426Y011958D01*
X039426Y012117D02*
X033704Y012117D01*
X033750Y012275D02*
X039426Y012275D01*
X039426Y012434D02*
X033750Y012434D01*
X033693Y012592D02*
X039426Y012592D01*
X039426Y012751D02*
X033576Y012751D01*
X033297Y012909D02*
X039426Y012909D01*
X039426Y013068D02*
X005955Y013068D01*
X005254Y012909D02*
X014996Y012909D01*
X014563Y012751D02*
X004758Y012751D01*
X004398Y012592D02*
X014255Y012592D01*
X014018Y012434D02*
X004056Y012434D01*
X003802Y012275D02*
X013822Y012275D01*
X013664Y012117D02*
X003548Y012117D01*
X003315Y011958D02*
X013505Y011958D01*
X013347Y011800D02*
X003127Y011800D01*
X002939Y011641D02*
X013196Y011641D01*
X013105Y011483D02*
X002751Y011483D01*
X002602Y011324D02*
X013013Y011324D01*
X012952Y011166D02*
X002461Y011166D01*
X002320Y011007D02*
X012909Y011007D01*
X012867Y010849D02*
X002179Y010849D01*
X002067Y010690D02*
X010361Y010690D01*
X010481Y010810D02*
X010200Y010529D01*
X010200Y010131D01*
X010481Y009850D01*
X010879Y009850D01*
X011160Y010131D01*
X011160Y010529D01*
X010879Y010810D01*
X010481Y010810D01*
X010999Y010690D02*
X012860Y010690D01*
X012860Y010532D02*
X011157Y010532D01*
X011160Y010373D02*
X012860Y010373D01*
X012860Y010215D02*
X011160Y010215D01*
X011085Y010056D02*
X012860Y010056D01*
X012860Y009898D02*
X010926Y009898D01*
X010434Y009898D02*
X001582Y009898D01*
X001657Y010056D02*
X010275Y010056D01*
X010200Y010215D02*
X001753Y010215D01*
X001858Y010373D02*
X010200Y010373D01*
X010203Y010532D02*
X001963Y010532D01*
X001507Y009739D02*
X012860Y009739D01*
X012860Y009581D02*
X001433Y009581D01*
X001358Y009422D02*
X008794Y009422D01*
X008416Y009264D02*
X001294Y009264D01*
X001245Y009105D02*
X008152Y009105D01*
X007994Y008947D02*
X001196Y008947D01*
X001148Y008788D02*
X007835Y008788D01*
X007677Y008630D02*
X001099Y008630D01*
X001057Y008471D02*
X007518Y008471D01*
X007360Y008313D02*
X001032Y008313D01*
X008265Y008313D02*
X010700Y008313D01*
X010700Y008471D02*
X008424Y008471D01*
X008619Y008630D02*
X010851Y008630D01*
X011509Y008630D02*
X012376Y008630D01*
X012536Y008471D02*
X011660Y008471D01*
X011660Y008313D02*
X012695Y008313D01*
X012700Y008154D02*
X011660Y008154D01*
X011574Y007996D02*
X012786Y007996D01*
X013574Y007996D02*
X019457Y007996D01*
X019420Y008154D02*
X013660Y008154D01*
X013660Y008313D02*
X019435Y008313D01*
X019512Y008471D02*
X013660Y008471D01*
X013509Y008630D02*
X019731Y008630D01*
X019805Y008700D02*
X020555Y008700D01*
X020732Y008773D01*
X020867Y008908D01*
X020940Y009085D01*
X020940Y009275D01*
X020867Y009452D01*
X020732Y009587D01*
X020555Y009660D01*
X019805Y009660D01*
X019628Y009587D01*
X019493Y009452D01*
X019420Y009275D01*
X019420Y009085D01*
X019493Y008908D01*
X019628Y008773D01*
X019805Y008700D01*
X019613Y008788D02*
X013500Y008788D01*
X013500Y008947D02*
X019477Y008947D01*
X019420Y009105D02*
X013500Y009105D01*
X013500Y009264D02*
X019420Y009264D01*
X019481Y009422D02*
X013500Y009422D01*
X013500Y009581D02*
X019622Y009581D01*
X019710Y009739D02*
X013500Y009739D01*
X013500Y009898D02*
X014434Y009898D01*
X014481Y009850D02*
X014879Y009850D01*
X015160Y010131D01*
X015160Y010529D01*
X014879Y010810D01*
X014481Y010810D01*
X014200Y010529D01*
X014200Y010131D01*
X014481Y009850D01*
X014275Y010056D02*
X013500Y010056D01*
X013500Y010215D02*
X014200Y010215D01*
X014200Y010373D02*
X013500Y010373D01*
X013500Y010532D02*
X014203Y010532D01*
X014361Y010690D02*
X013506Y010690D01*
X013539Y010849D02*
X021360Y010849D01*
X021360Y011007D02*
X019532Y011007D01*
X019515Y011000D02*
X019765Y011104D01*
X019956Y011295D01*
X020060Y011545D01*
X020060Y011815D01*
X019956Y012065D01*
X019765Y012256D01*
X019515Y012360D01*
X019245Y012360D01*
X018995Y012256D01*
X018804Y012065D01*
X018700Y011815D01*
X018700Y011545D01*
X018804Y011295D01*
X018995Y011104D01*
X019245Y011000D01*
X019515Y011000D01*
X019228Y011007D02*
X013582Y011007D01*
X013671Y011166D02*
X018933Y011166D01*
X018791Y011324D02*
X013782Y011324D01*
X013935Y011483D02*
X018726Y011483D01*
X018700Y011641D02*
X014094Y011641D01*
X014262Y011800D02*
X018700Y011800D01*
X018759Y011958D02*
X014477Y011958D01*
X014733Y012117D02*
X018855Y012117D01*
X019040Y012275D02*
X015144Y012275D01*
X014999Y010690D02*
X021360Y010690D01*
X021360Y010532D02*
X020787Y010532D01*
X020732Y010587D02*
X020555Y010660D01*
X019805Y010660D01*
X019628Y010587D01*
X019493Y010452D01*
X019420Y010275D01*
X019420Y010085D01*
X019493Y009908D01*
X019628Y009773D01*
X019805Y009700D01*
X020555Y009700D01*
X020732Y009773D01*
X020867Y009908D01*
X020940Y010085D01*
X020940Y010275D01*
X020867Y010452D01*
X020732Y010587D01*
X020900Y010373D02*
X021360Y010373D01*
X021360Y010215D02*
X020940Y010215D01*
X020928Y010056D02*
X021360Y010056D01*
X021375Y009898D02*
X020856Y009898D01*
X020650Y009739D02*
X021418Y009739D01*
X021462Y009581D02*
X020738Y009581D01*
X020879Y009422D02*
X021554Y009422D01*
X021645Y009264D02*
X020940Y009264D01*
X020940Y009105D02*
X021802Y009105D01*
X022031Y008947D02*
X020883Y008947D01*
X020747Y008788D02*
X022613Y008788D01*
X022731Y008630D02*
X020629Y008630D01*
X020848Y008471D02*
X022512Y008471D01*
X022435Y008313D02*
X020925Y008313D01*
X020940Y008154D02*
X022420Y008154D01*
X022457Y007996D02*
X020903Y007996D01*
X020796Y007837D02*
X022564Y007837D01*
X023940Y009105D02*
X028872Y009105D01*
X028780Y009264D02*
X023940Y009264D01*
X023879Y009422D02*
X028780Y009422D01*
X028780Y009581D02*
X023738Y009581D01*
X023650Y009739D02*
X028780Y009739D01*
X028780Y009898D02*
X023856Y009898D01*
X023867Y009908D02*
X023940Y010085D01*
X023940Y010275D01*
X023867Y010452D01*
X023732Y010587D01*
X023555Y010660D01*
X022805Y010660D01*
X022628Y010587D01*
X022493Y010452D01*
X022420Y010275D01*
X022420Y010085D01*
X022493Y009908D01*
X022628Y009773D01*
X022805Y009700D01*
X023555Y009700D01*
X023732Y009773D01*
X023867Y009908D01*
X023928Y010056D02*
X028780Y010056D01*
X028780Y010215D02*
X023940Y010215D01*
X023900Y010373D02*
X028780Y010373D01*
X028780Y010532D02*
X023787Y010532D01*
X022573Y010532D02*
X022000Y010532D01*
X022000Y010690D02*
X037881Y010690D01*
X037881Y010532D02*
X030380Y010532D01*
X030380Y010373D02*
X037881Y010373D01*
X037881Y010215D02*
X030380Y010215D01*
X030380Y010056D02*
X037881Y010056D01*
X037881Y009898D02*
X030380Y009898D01*
X030380Y009739D02*
X037997Y009739D01*
X030997Y011800D02*
X021847Y011800D01*
X021755Y011958D02*
X030757Y011958D01*
X030656Y012117D02*
X021664Y012117D01*
X021538Y012275D02*
X030610Y012275D01*
X030610Y012434D02*
X021379Y012434D01*
X021221Y012592D02*
X030667Y012592D01*
X030784Y012751D02*
X021052Y012751D01*
X020777Y012909D02*
X031063Y012909D01*
X031297Y012909D02*
X031873Y012909D01*
X031705Y012751D02*
X031576Y012751D01*
X032487Y012909D02*
X033063Y012909D01*
X032784Y012751D02*
X032655Y012751D01*
X022710Y009739D02*
X022118Y009739D01*
X022045Y009898D02*
X022504Y009898D01*
X022432Y010056D02*
X022006Y010056D01*
X022000Y010215D02*
X022420Y010215D01*
X022460Y010373D02*
X022000Y010373D01*
X022232Y009581D02*
X022622Y009581D01*
X019504Y009898D02*
X014926Y009898D01*
X015085Y010056D02*
X019432Y010056D01*
X019420Y010215D02*
X015160Y010215D01*
X015160Y010373D02*
X019460Y010373D01*
X019573Y010532D02*
X015157Y010532D01*
X012860Y009422D02*
X012284Y009422D01*
X012605Y009264D02*
X012860Y009264D01*
X012860Y009105D02*
X012808Y009105D01*
X012134Y008788D02*
X008942Y008788D01*
X019827Y011166D02*
X021351Y011166D01*
X021313Y011324D02*
X019969Y011324D01*
X020034Y011483D02*
X021271Y011483D01*
X021187Y011641D02*
X020060Y011641D01*
X020060Y011800D02*
X021094Y011800D01*
X020949Y011958D02*
X020001Y011958D01*
X019905Y012117D02*
X020791Y012117D01*
X020584Y012275D02*
X019720Y012275D01*
D25*
X020266Y012680D02*
X015736Y012680D01*
X013933Y011933D02*
X013594Y011594D01*
X013180Y010594D02*
X013180Y008280D01*
X012622Y008838D01*
X011797Y009180D02*
X009335Y009180D01*
X008217Y008717D02*
X007708Y008208D01*
X008217Y008717D02*
X008273Y008770D01*
X008332Y008821D01*
X008393Y008869D01*
X008457Y008914D01*
X008522Y008955D01*
X008590Y008993D01*
X008659Y009028D01*
X008730Y009060D01*
X008802Y009088D01*
X008876Y009112D01*
X008951Y009133D01*
X009027Y009150D01*
X009103Y009163D01*
X009180Y009172D01*
X009257Y009178D01*
X009335Y009180D01*
X011797Y009180D02*
X011862Y009178D01*
X011928Y009173D01*
X011992Y009164D01*
X012056Y009151D01*
X012120Y009134D01*
X012182Y009115D01*
X012243Y009091D01*
X012303Y009065D01*
X012361Y009035D01*
X012417Y009001D01*
X012472Y008965D01*
X012524Y008926D01*
X012574Y008883D01*
X012621Y008838D01*
X013933Y011933D02*
X014005Y012003D01*
X014080Y012069D01*
X014157Y012133D01*
X014237Y012193D01*
X014319Y012250D01*
X014404Y012304D01*
X014490Y012355D01*
X014578Y012402D01*
X014668Y012446D01*
X014760Y012486D01*
X014853Y012522D01*
X014948Y012555D01*
X015044Y012584D01*
X015141Y012610D01*
X015239Y012631D01*
X015337Y012649D01*
X015436Y012662D01*
X015536Y012672D01*
X015636Y012678D01*
X015736Y012680D01*
X020266Y012680D02*
X020326Y012678D01*
X020387Y012673D01*
X020446Y012664D01*
X020505Y012651D01*
X020564Y012635D01*
X020621Y012615D01*
X020676Y012592D01*
X020731Y012565D01*
X020783Y012536D01*
X020834Y012503D01*
X020883Y012467D01*
X020929Y012429D01*
X020973Y012387D01*
X021217Y012143D01*
X021680Y011025D02*
X021680Y010143D01*
X022008Y009353D02*
X022041Y009321D01*
X022078Y009292D01*
X022116Y009267D01*
X022157Y009244D01*
X022199Y009225D01*
X022242Y009209D01*
X022287Y009196D01*
X022332Y009187D01*
X022378Y009182D01*
X022424Y009180D01*
X023180Y009180D01*
X022007Y009352D02*
X021964Y009398D01*
X021924Y009446D01*
X021886Y009496D01*
X021851Y009548D01*
X021820Y009602D01*
X021791Y009658D01*
X021765Y009715D01*
X021743Y009774D01*
X021724Y009833D01*
X021708Y009894D01*
X021696Y009956D01*
X021687Y010018D01*
X021682Y010080D01*
X021680Y010143D01*
X021680Y011025D02*
X021678Y011103D01*
X021672Y011180D01*
X021663Y011257D01*
X021650Y011333D01*
X021633Y011409D01*
X021612Y011484D01*
X021588Y011558D01*
X021560Y011630D01*
X021528Y011701D01*
X021493Y011770D01*
X021455Y011838D01*
X021414Y011903D01*
X021369Y011967D01*
X021321Y012028D01*
X021270Y012087D01*
X021217Y012143D01*
X013594Y011594D02*
X013543Y011540D01*
X013495Y011484D01*
X013450Y011425D01*
X013408Y011364D01*
X013369Y011301D01*
X013334Y011236D01*
X013302Y011169D01*
X013274Y011101D01*
X013249Y011031D01*
X013228Y010960D01*
X013211Y010888D01*
X013197Y010815D01*
X013188Y010742D01*
X013182Y010668D01*
X013180Y010594D01*
X007708Y008208D02*
X007651Y008148D01*
X007596Y008085D01*
X007544Y008020D01*
X007496Y007952D01*
X007450Y007882D01*
X007408Y007810D01*
X007369Y007737D01*
X007334Y007661D01*
X007302Y007584D01*
X007273Y007506D01*
X007249Y007426D01*
X007228Y007346D01*
X007211Y007264D01*
X007197Y007182D01*
X007188Y007099D01*
X007182Y007016D01*
X007180Y006933D01*
X007180Y004526D01*
X015670Y005690D02*
X015680Y005680D01*
X015670Y005690D02*
X015670Y006782D01*
X015680Y005680D02*
X015681Y005661D01*
X015686Y005643D01*
X015693Y005625D01*
X015703Y005609D01*
X015715Y005594D01*
X015715Y005595D02*
X017662Y003648D01*
X018792Y003180D02*
X020387Y003180D01*
X020887Y003387D02*
X022640Y005140D01*
X023180Y005140D01*
X023180Y005180D01*
X023180Y005140D02*
X023720Y005140D01*
X024319Y005739D01*
X025045Y006040D02*
X029461Y006040D01*
X030289Y006383D02*
X031036Y007130D01*
X030289Y006383D02*
X030241Y006338D01*
X030191Y006295D01*
X030139Y006256D01*
X030084Y006219D01*
X030027Y006186D01*
X029969Y006156D01*
X029909Y006129D01*
X029848Y006106D01*
X029785Y006086D01*
X029722Y006069D01*
X029657Y006057D01*
X029592Y006047D01*
X029527Y006042D01*
X029461Y006040D01*
X025045Y006040D02*
X024983Y006038D01*
X024921Y006033D01*
X024860Y006023D01*
X024799Y006010D01*
X024740Y005994D01*
X024681Y005973D01*
X024624Y005950D01*
X024568Y005922D01*
X024514Y005892D01*
X024462Y005858D01*
X024412Y005822D01*
X024365Y005782D01*
X024320Y005739D01*
X020887Y003387D02*
X020850Y003353D01*
X020811Y003321D01*
X020769Y003292D01*
X020726Y003266D01*
X020681Y003244D01*
X020634Y003225D01*
X020586Y003209D01*
X020537Y003196D01*
X020488Y003187D01*
X020437Y003182D01*
X020387Y003180D01*
X018792Y003180D02*
X018714Y003182D01*
X018635Y003188D01*
X018558Y003197D01*
X018480Y003211D01*
X018404Y003228D01*
X018328Y003249D01*
X018254Y003273D01*
X018180Y003302D01*
X018109Y003333D01*
X018039Y003369D01*
X017970Y003407D01*
X017904Y003449D01*
X017840Y003494D01*
X017778Y003543D01*
X017719Y003594D01*
X017662Y003648D01*
M02*
