%
M48
M72
T01C0.0276
T02C0.0300
T03C0.0315
T04C0.0320
T05C0.0433
T06C0.0450
T07C0.0472
T08C0.0800
T09C0.0827
T10C0.0900
%
T01
X31036Y7130
X31824Y7130
T02
X17920Y6782
X17170Y6782
X16420Y6782
X15670Y6782
T03
X31180Y12341
X32180Y12419
X33180Y12341
X31196Y1980
X33164Y1980
T04
X14680Y4230
X10680Y4230
X11180Y6280
X13180Y6280
X13180Y8280
X11180Y8280
X20180Y4180
X20180Y5180
X20180Y6180
X20180Y7180
X20180Y8180
X20180Y9180
X20180Y10180
X23180Y10180
X23180Y9180
X23180Y8180
X23180Y7180
X23180Y6180
X23180Y5180
X23180Y4180
X10680Y10330
X14680Y10330
T05
X8164Y4526
X7180Y4526
X6196Y4526
X25696Y4526
X26680Y4526
X27664Y4526
T06
X38426Y4282
X38426Y10282
T07
X30802Y2964
X33558Y2964
T08
X29580Y9880
X29580Y4780
T09
X24908Y7282
X28452Y7282
X5408Y7282
X8952Y7282
T10
X19380Y11680
X14080Y2880
X24680Y2880
M30
