G75*
%MOIN*%
%OFA0B0*%
%FSLAX25Y25*%
%IPPOS*%
%LPD*%
%AMOC8*
5,1,8,0,0,1.08239X$1,22.5*
%
%ADD10C,0.00000*%
%ADD11R,0.12000X0.12000*%
%ADD12OC8,0.05600*%
%ADD13R,0.05156X0.05156*%
%ADD14C,0.05156*%
%ADD15C,0.05600*%
%ADD16R,0.06900X0.06900*%
%ADD17R,0.06731X0.06731*%
%ADD18OC8,0.06731*%
%ADD19R,0.12268X0.12268*%
%ADD20C,0.05400*%
%ADD21C,0.08661*%
%ADD22C,0.06693*%
%ADD23C,0.07400*%
%ADD24C,0.01600*%
%ADD25C,0.02400*%
D10*
X0067008Y0011800D02*
X0396564Y0011800D01*
X0396564Y0133847D01*
X0069822Y0133847D01*
X0189300Y0116800D02*
X0189302Y0116934D01*
X0189308Y0117068D01*
X0189318Y0117201D01*
X0189332Y0117335D01*
X0189350Y0117468D01*
X0189372Y0117600D01*
X0189397Y0117731D01*
X0189427Y0117862D01*
X0189461Y0117992D01*
X0189498Y0118120D01*
X0189539Y0118248D01*
X0189584Y0118374D01*
X0189633Y0118499D01*
X0189685Y0118622D01*
X0189741Y0118744D01*
X0189801Y0118864D01*
X0189864Y0118982D01*
X0189931Y0119098D01*
X0190001Y0119212D01*
X0190075Y0119324D01*
X0190152Y0119434D01*
X0190232Y0119542D01*
X0190315Y0119647D01*
X0190401Y0119749D01*
X0190490Y0119849D01*
X0190583Y0119946D01*
X0190678Y0120041D01*
X0190776Y0120132D01*
X0190876Y0120221D01*
X0190979Y0120306D01*
X0191085Y0120389D01*
X0191193Y0120468D01*
X0191303Y0120544D01*
X0191416Y0120617D01*
X0191531Y0120686D01*
X0191647Y0120752D01*
X0191766Y0120814D01*
X0191886Y0120873D01*
X0192009Y0120928D01*
X0192132Y0120980D01*
X0192257Y0121027D01*
X0192384Y0121071D01*
X0192512Y0121112D01*
X0192641Y0121148D01*
X0192771Y0121181D01*
X0192902Y0121209D01*
X0193033Y0121234D01*
X0193166Y0121255D01*
X0193299Y0121272D01*
X0193432Y0121285D01*
X0193566Y0121294D01*
X0193700Y0121299D01*
X0193834Y0121300D01*
X0193967Y0121297D01*
X0194101Y0121290D01*
X0194235Y0121279D01*
X0194368Y0121264D01*
X0194501Y0121245D01*
X0194633Y0121222D01*
X0194764Y0121196D01*
X0194894Y0121165D01*
X0195024Y0121130D01*
X0195152Y0121092D01*
X0195279Y0121050D01*
X0195405Y0121004D01*
X0195530Y0120954D01*
X0195653Y0120901D01*
X0195774Y0120844D01*
X0195894Y0120783D01*
X0196011Y0120719D01*
X0196127Y0120652D01*
X0196241Y0120581D01*
X0196352Y0120506D01*
X0196461Y0120429D01*
X0196568Y0120348D01*
X0196673Y0120264D01*
X0196774Y0120177D01*
X0196874Y0120087D01*
X0196970Y0119994D01*
X0197064Y0119898D01*
X0197155Y0119799D01*
X0197242Y0119698D01*
X0197327Y0119594D01*
X0197409Y0119488D01*
X0197487Y0119380D01*
X0197562Y0119269D01*
X0197634Y0119156D01*
X0197703Y0119040D01*
X0197768Y0118923D01*
X0197829Y0118804D01*
X0197887Y0118683D01*
X0197941Y0118561D01*
X0197992Y0118437D01*
X0198039Y0118311D01*
X0198082Y0118184D01*
X0198121Y0118056D01*
X0198157Y0117927D01*
X0198188Y0117797D01*
X0198216Y0117666D01*
X0198240Y0117534D01*
X0198260Y0117401D01*
X0198276Y0117268D01*
X0198288Y0117135D01*
X0198296Y0117001D01*
X0198300Y0116867D01*
X0198300Y0116733D01*
X0198296Y0116599D01*
X0198288Y0116465D01*
X0198276Y0116332D01*
X0198260Y0116199D01*
X0198240Y0116066D01*
X0198216Y0115934D01*
X0198188Y0115803D01*
X0198157Y0115673D01*
X0198121Y0115544D01*
X0198082Y0115416D01*
X0198039Y0115289D01*
X0197992Y0115163D01*
X0197941Y0115039D01*
X0197887Y0114917D01*
X0197829Y0114796D01*
X0197768Y0114677D01*
X0197703Y0114560D01*
X0197634Y0114444D01*
X0197562Y0114331D01*
X0197487Y0114220D01*
X0197409Y0114112D01*
X0197327Y0114006D01*
X0197242Y0113902D01*
X0197155Y0113801D01*
X0197064Y0113702D01*
X0196970Y0113606D01*
X0196874Y0113513D01*
X0196774Y0113423D01*
X0196673Y0113336D01*
X0196568Y0113252D01*
X0196461Y0113171D01*
X0196352Y0113094D01*
X0196241Y0113019D01*
X0196127Y0112948D01*
X0196011Y0112881D01*
X0195894Y0112817D01*
X0195774Y0112756D01*
X0195653Y0112699D01*
X0195530Y0112646D01*
X0195405Y0112596D01*
X0195279Y0112550D01*
X0195152Y0112508D01*
X0195024Y0112470D01*
X0194894Y0112435D01*
X0194764Y0112404D01*
X0194633Y0112378D01*
X0194501Y0112355D01*
X0194368Y0112336D01*
X0194235Y0112321D01*
X0194101Y0112310D01*
X0193967Y0112303D01*
X0193834Y0112300D01*
X0193700Y0112301D01*
X0193566Y0112306D01*
X0193432Y0112315D01*
X0193299Y0112328D01*
X0193166Y0112345D01*
X0193033Y0112366D01*
X0192902Y0112391D01*
X0192771Y0112419D01*
X0192641Y0112452D01*
X0192512Y0112488D01*
X0192384Y0112529D01*
X0192257Y0112573D01*
X0192132Y0112620D01*
X0192009Y0112672D01*
X0191886Y0112727D01*
X0191766Y0112786D01*
X0191647Y0112848D01*
X0191531Y0112914D01*
X0191416Y0112983D01*
X0191303Y0113056D01*
X0191193Y0113132D01*
X0191085Y0113211D01*
X0190979Y0113294D01*
X0190876Y0113379D01*
X0190776Y0113468D01*
X0190678Y0113559D01*
X0190583Y0113654D01*
X0190490Y0113751D01*
X0190401Y0113851D01*
X0190315Y0113953D01*
X0190232Y0114058D01*
X0190152Y0114166D01*
X0190075Y0114276D01*
X0190001Y0114388D01*
X0189931Y0114502D01*
X0189864Y0114618D01*
X0189801Y0114736D01*
X0189741Y0114856D01*
X0189685Y0114978D01*
X0189633Y0115101D01*
X0189584Y0115226D01*
X0189539Y0115352D01*
X0189498Y0115480D01*
X0189461Y0115608D01*
X0189427Y0115738D01*
X0189397Y0115869D01*
X0189372Y0116000D01*
X0189350Y0116132D01*
X0189332Y0116265D01*
X0189318Y0116399D01*
X0189308Y0116532D01*
X0189302Y0116666D01*
X0189300Y0116800D01*
X0069822Y0133848D02*
X0068319Y0133849D01*
X0066816Y0133815D01*
X0065314Y0133744D01*
X0063815Y0133637D01*
X0062319Y0133494D01*
X0060827Y0133314D01*
X0059339Y0133099D01*
X0057857Y0132848D01*
X0056381Y0132561D01*
X0054913Y0132238D01*
X0053454Y0131880D01*
X0052003Y0131487D01*
X0050562Y0131059D01*
X0049132Y0130596D01*
X0047713Y0130099D01*
X0046307Y0129568D01*
X0044914Y0129003D01*
X0043536Y0128404D01*
X0042172Y0127772D01*
X0040823Y0127108D01*
X0039492Y0126411D01*
X0038177Y0125682D01*
X0036880Y0124921D01*
X0035603Y0124130D01*
X0034344Y0123308D01*
X0033106Y0122455D01*
X0031889Y0121573D01*
X0030694Y0120662D01*
X0029521Y0119722D01*
X0028371Y0118754D01*
X0027244Y0117759D01*
X0026142Y0116737D01*
X0025065Y0115688D01*
X0024014Y0114614D01*
X0022989Y0113514D01*
X0021991Y0112390D01*
X0021020Y0111243D01*
X0020078Y0110072D01*
X0019164Y0108878D01*
X0018279Y0107663D01*
X0017423Y0106427D01*
X0016598Y0105171D01*
X0015804Y0103895D01*
X0015040Y0102601D01*
X0014308Y0101288D01*
X0013608Y0099958D01*
X0012940Y0098611D01*
X0012305Y0097249D01*
X0011703Y0095871D01*
X0011134Y0094480D01*
X0010600Y0093075D01*
X0010099Y0091658D01*
X0009633Y0090229D01*
X0009201Y0088789D01*
X0008805Y0087339D01*
X0008443Y0085880D01*
X0008117Y0084413D01*
X0007826Y0082938D01*
X0007572Y0081457D01*
X0007353Y0079970D01*
X0007170Y0078478D01*
X0007023Y0076982D01*
X0006912Y0075483D01*
X0006838Y0073981D01*
X0006799Y0072479D01*
X0006800Y0072479D02*
X0006800Y0072008D01*
X0006818Y0070553D01*
X0006870Y0069099D01*
X0006958Y0067647D01*
X0007081Y0066197D01*
X0007239Y0064751D01*
X0007432Y0063309D01*
X0007659Y0061872D01*
X0007922Y0060440D01*
X0008218Y0059016D01*
X0008550Y0057599D01*
X0008915Y0056191D01*
X0009314Y0054792D01*
X0009747Y0053403D01*
X0010213Y0052024D01*
X0010713Y0050658D01*
X0011245Y0049304D01*
X0011810Y0047963D01*
X0012407Y0046636D01*
X0013036Y0045324D01*
X0013696Y0044028D01*
X0014388Y0042748D01*
X0015111Y0041485D01*
X0015863Y0040240D01*
X0016646Y0039013D01*
X0017458Y0037806D01*
X0018299Y0036619D01*
X0019168Y0035452D01*
X0020065Y0034307D01*
X0020990Y0033183D01*
X0021942Y0032083D01*
X0022920Y0031005D01*
X0023923Y0029952D01*
X0024952Y0028923D01*
X0026005Y0027920D01*
X0027083Y0026942D01*
X0028183Y0025990D01*
X0029307Y0025065D01*
X0030452Y0024168D01*
X0031619Y0023299D01*
X0032806Y0022458D01*
X0034013Y0021646D01*
X0035240Y0020863D01*
X0036485Y0020111D01*
X0037748Y0019388D01*
X0039028Y0018696D01*
X0040324Y0018036D01*
X0041636Y0017407D01*
X0042963Y0016810D01*
X0044304Y0016245D01*
X0045658Y0015713D01*
X0047024Y0015213D01*
X0048403Y0014747D01*
X0049792Y0014314D01*
X0051191Y0013915D01*
X0052599Y0013550D01*
X0054016Y0013218D01*
X0055440Y0012922D01*
X0056872Y0012659D01*
X0058309Y0012432D01*
X0059751Y0012239D01*
X0061197Y0012081D01*
X0062647Y0011958D01*
X0064099Y0011870D01*
X0065553Y0011818D01*
X0067008Y0011800D01*
X0136300Y0028800D02*
X0136302Y0028934D01*
X0136308Y0029068D01*
X0136318Y0029201D01*
X0136332Y0029335D01*
X0136350Y0029468D01*
X0136372Y0029600D01*
X0136397Y0029731D01*
X0136427Y0029862D01*
X0136461Y0029992D01*
X0136498Y0030120D01*
X0136539Y0030248D01*
X0136584Y0030374D01*
X0136633Y0030499D01*
X0136685Y0030622D01*
X0136741Y0030744D01*
X0136801Y0030864D01*
X0136864Y0030982D01*
X0136931Y0031098D01*
X0137001Y0031212D01*
X0137075Y0031324D01*
X0137152Y0031434D01*
X0137232Y0031542D01*
X0137315Y0031647D01*
X0137401Y0031749D01*
X0137490Y0031849D01*
X0137583Y0031946D01*
X0137678Y0032041D01*
X0137776Y0032132D01*
X0137876Y0032221D01*
X0137979Y0032306D01*
X0138085Y0032389D01*
X0138193Y0032468D01*
X0138303Y0032544D01*
X0138416Y0032617D01*
X0138531Y0032686D01*
X0138647Y0032752D01*
X0138766Y0032814D01*
X0138886Y0032873D01*
X0139009Y0032928D01*
X0139132Y0032980D01*
X0139257Y0033027D01*
X0139384Y0033071D01*
X0139512Y0033112D01*
X0139641Y0033148D01*
X0139771Y0033181D01*
X0139902Y0033209D01*
X0140033Y0033234D01*
X0140166Y0033255D01*
X0140299Y0033272D01*
X0140432Y0033285D01*
X0140566Y0033294D01*
X0140700Y0033299D01*
X0140834Y0033300D01*
X0140967Y0033297D01*
X0141101Y0033290D01*
X0141235Y0033279D01*
X0141368Y0033264D01*
X0141501Y0033245D01*
X0141633Y0033222D01*
X0141764Y0033196D01*
X0141894Y0033165D01*
X0142024Y0033130D01*
X0142152Y0033092D01*
X0142279Y0033050D01*
X0142405Y0033004D01*
X0142530Y0032954D01*
X0142653Y0032901D01*
X0142774Y0032844D01*
X0142894Y0032783D01*
X0143011Y0032719D01*
X0143127Y0032652D01*
X0143241Y0032581D01*
X0143352Y0032506D01*
X0143461Y0032429D01*
X0143568Y0032348D01*
X0143673Y0032264D01*
X0143774Y0032177D01*
X0143874Y0032087D01*
X0143970Y0031994D01*
X0144064Y0031898D01*
X0144155Y0031799D01*
X0144242Y0031698D01*
X0144327Y0031594D01*
X0144409Y0031488D01*
X0144487Y0031380D01*
X0144562Y0031269D01*
X0144634Y0031156D01*
X0144703Y0031040D01*
X0144768Y0030923D01*
X0144829Y0030804D01*
X0144887Y0030683D01*
X0144941Y0030561D01*
X0144992Y0030437D01*
X0145039Y0030311D01*
X0145082Y0030184D01*
X0145121Y0030056D01*
X0145157Y0029927D01*
X0145188Y0029797D01*
X0145216Y0029666D01*
X0145240Y0029534D01*
X0145260Y0029401D01*
X0145276Y0029268D01*
X0145288Y0029135D01*
X0145296Y0029001D01*
X0145300Y0028867D01*
X0145300Y0028733D01*
X0145296Y0028599D01*
X0145288Y0028465D01*
X0145276Y0028332D01*
X0145260Y0028199D01*
X0145240Y0028066D01*
X0145216Y0027934D01*
X0145188Y0027803D01*
X0145157Y0027673D01*
X0145121Y0027544D01*
X0145082Y0027416D01*
X0145039Y0027289D01*
X0144992Y0027163D01*
X0144941Y0027039D01*
X0144887Y0026917D01*
X0144829Y0026796D01*
X0144768Y0026677D01*
X0144703Y0026560D01*
X0144634Y0026444D01*
X0144562Y0026331D01*
X0144487Y0026220D01*
X0144409Y0026112D01*
X0144327Y0026006D01*
X0144242Y0025902D01*
X0144155Y0025801D01*
X0144064Y0025702D01*
X0143970Y0025606D01*
X0143874Y0025513D01*
X0143774Y0025423D01*
X0143673Y0025336D01*
X0143568Y0025252D01*
X0143461Y0025171D01*
X0143352Y0025094D01*
X0143241Y0025019D01*
X0143127Y0024948D01*
X0143011Y0024881D01*
X0142894Y0024817D01*
X0142774Y0024756D01*
X0142653Y0024699D01*
X0142530Y0024646D01*
X0142405Y0024596D01*
X0142279Y0024550D01*
X0142152Y0024508D01*
X0142024Y0024470D01*
X0141894Y0024435D01*
X0141764Y0024404D01*
X0141633Y0024378D01*
X0141501Y0024355D01*
X0141368Y0024336D01*
X0141235Y0024321D01*
X0141101Y0024310D01*
X0140967Y0024303D01*
X0140834Y0024300D01*
X0140700Y0024301D01*
X0140566Y0024306D01*
X0140432Y0024315D01*
X0140299Y0024328D01*
X0140166Y0024345D01*
X0140033Y0024366D01*
X0139902Y0024391D01*
X0139771Y0024419D01*
X0139641Y0024452D01*
X0139512Y0024488D01*
X0139384Y0024529D01*
X0139257Y0024573D01*
X0139132Y0024620D01*
X0139009Y0024672D01*
X0138886Y0024727D01*
X0138766Y0024786D01*
X0138647Y0024848D01*
X0138531Y0024914D01*
X0138416Y0024983D01*
X0138303Y0025056D01*
X0138193Y0025132D01*
X0138085Y0025211D01*
X0137979Y0025294D01*
X0137876Y0025379D01*
X0137776Y0025468D01*
X0137678Y0025559D01*
X0137583Y0025654D01*
X0137490Y0025751D01*
X0137401Y0025851D01*
X0137315Y0025953D01*
X0137232Y0026058D01*
X0137152Y0026166D01*
X0137075Y0026276D01*
X0137001Y0026388D01*
X0136931Y0026502D01*
X0136864Y0026618D01*
X0136801Y0026736D01*
X0136741Y0026856D01*
X0136685Y0026978D01*
X0136633Y0027101D01*
X0136584Y0027226D01*
X0136539Y0027352D01*
X0136498Y0027480D01*
X0136461Y0027608D01*
X0136427Y0027738D01*
X0136397Y0027869D01*
X0136372Y0028000D01*
X0136350Y0028132D01*
X0136332Y0028265D01*
X0136318Y0028399D01*
X0136308Y0028532D01*
X0136302Y0028666D01*
X0136300Y0028800D01*
X0242300Y0028800D02*
X0242302Y0028934D01*
X0242308Y0029068D01*
X0242318Y0029201D01*
X0242332Y0029335D01*
X0242350Y0029468D01*
X0242372Y0029600D01*
X0242397Y0029731D01*
X0242427Y0029862D01*
X0242461Y0029992D01*
X0242498Y0030120D01*
X0242539Y0030248D01*
X0242584Y0030374D01*
X0242633Y0030499D01*
X0242685Y0030622D01*
X0242741Y0030744D01*
X0242801Y0030864D01*
X0242864Y0030982D01*
X0242931Y0031098D01*
X0243001Y0031212D01*
X0243075Y0031324D01*
X0243152Y0031434D01*
X0243232Y0031542D01*
X0243315Y0031647D01*
X0243401Y0031749D01*
X0243490Y0031849D01*
X0243583Y0031946D01*
X0243678Y0032041D01*
X0243776Y0032132D01*
X0243876Y0032221D01*
X0243979Y0032306D01*
X0244085Y0032389D01*
X0244193Y0032468D01*
X0244303Y0032544D01*
X0244416Y0032617D01*
X0244531Y0032686D01*
X0244647Y0032752D01*
X0244766Y0032814D01*
X0244886Y0032873D01*
X0245009Y0032928D01*
X0245132Y0032980D01*
X0245257Y0033027D01*
X0245384Y0033071D01*
X0245512Y0033112D01*
X0245641Y0033148D01*
X0245771Y0033181D01*
X0245902Y0033209D01*
X0246033Y0033234D01*
X0246166Y0033255D01*
X0246299Y0033272D01*
X0246432Y0033285D01*
X0246566Y0033294D01*
X0246700Y0033299D01*
X0246834Y0033300D01*
X0246967Y0033297D01*
X0247101Y0033290D01*
X0247235Y0033279D01*
X0247368Y0033264D01*
X0247501Y0033245D01*
X0247633Y0033222D01*
X0247764Y0033196D01*
X0247894Y0033165D01*
X0248024Y0033130D01*
X0248152Y0033092D01*
X0248279Y0033050D01*
X0248405Y0033004D01*
X0248530Y0032954D01*
X0248653Y0032901D01*
X0248774Y0032844D01*
X0248894Y0032783D01*
X0249011Y0032719D01*
X0249127Y0032652D01*
X0249241Y0032581D01*
X0249352Y0032506D01*
X0249461Y0032429D01*
X0249568Y0032348D01*
X0249673Y0032264D01*
X0249774Y0032177D01*
X0249874Y0032087D01*
X0249970Y0031994D01*
X0250064Y0031898D01*
X0250155Y0031799D01*
X0250242Y0031698D01*
X0250327Y0031594D01*
X0250409Y0031488D01*
X0250487Y0031380D01*
X0250562Y0031269D01*
X0250634Y0031156D01*
X0250703Y0031040D01*
X0250768Y0030923D01*
X0250829Y0030804D01*
X0250887Y0030683D01*
X0250941Y0030561D01*
X0250992Y0030437D01*
X0251039Y0030311D01*
X0251082Y0030184D01*
X0251121Y0030056D01*
X0251157Y0029927D01*
X0251188Y0029797D01*
X0251216Y0029666D01*
X0251240Y0029534D01*
X0251260Y0029401D01*
X0251276Y0029268D01*
X0251288Y0029135D01*
X0251296Y0029001D01*
X0251300Y0028867D01*
X0251300Y0028733D01*
X0251296Y0028599D01*
X0251288Y0028465D01*
X0251276Y0028332D01*
X0251260Y0028199D01*
X0251240Y0028066D01*
X0251216Y0027934D01*
X0251188Y0027803D01*
X0251157Y0027673D01*
X0251121Y0027544D01*
X0251082Y0027416D01*
X0251039Y0027289D01*
X0250992Y0027163D01*
X0250941Y0027039D01*
X0250887Y0026917D01*
X0250829Y0026796D01*
X0250768Y0026677D01*
X0250703Y0026560D01*
X0250634Y0026444D01*
X0250562Y0026331D01*
X0250487Y0026220D01*
X0250409Y0026112D01*
X0250327Y0026006D01*
X0250242Y0025902D01*
X0250155Y0025801D01*
X0250064Y0025702D01*
X0249970Y0025606D01*
X0249874Y0025513D01*
X0249774Y0025423D01*
X0249673Y0025336D01*
X0249568Y0025252D01*
X0249461Y0025171D01*
X0249352Y0025094D01*
X0249241Y0025019D01*
X0249127Y0024948D01*
X0249011Y0024881D01*
X0248894Y0024817D01*
X0248774Y0024756D01*
X0248653Y0024699D01*
X0248530Y0024646D01*
X0248405Y0024596D01*
X0248279Y0024550D01*
X0248152Y0024508D01*
X0248024Y0024470D01*
X0247894Y0024435D01*
X0247764Y0024404D01*
X0247633Y0024378D01*
X0247501Y0024355D01*
X0247368Y0024336D01*
X0247235Y0024321D01*
X0247101Y0024310D01*
X0246967Y0024303D01*
X0246834Y0024300D01*
X0246700Y0024301D01*
X0246566Y0024306D01*
X0246432Y0024315D01*
X0246299Y0024328D01*
X0246166Y0024345D01*
X0246033Y0024366D01*
X0245902Y0024391D01*
X0245771Y0024419D01*
X0245641Y0024452D01*
X0245512Y0024488D01*
X0245384Y0024529D01*
X0245257Y0024573D01*
X0245132Y0024620D01*
X0245009Y0024672D01*
X0244886Y0024727D01*
X0244766Y0024786D01*
X0244647Y0024848D01*
X0244531Y0024914D01*
X0244416Y0024983D01*
X0244303Y0025056D01*
X0244193Y0025132D01*
X0244085Y0025211D01*
X0243979Y0025294D01*
X0243876Y0025379D01*
X0243776Y0025468D01*
X0243678Y0025559D01*
X0243583Y0025654D01*
X0243490Y0025751D01*
X0243401Y0025851D01*
X0243315Y0025953D01*
X0243232Y0026058D01*
X0243152Y0026166D01*
X0243075Y0026276D01*
X0243001Y0026388D01*
X0242931Y0026502D01*
X0242864Y0026618D01*
X0242801Y0026736D01*
X0242741Y0026856D01*
X0242685Y0026978D01*
X0242633Y0027101D01*
X0242584Y0027226D01*
X0242539Y0027352D01*
X0242498Y0027480D01*
X0242461Y0027608D01*
X0242427Y0027738D01*
X0242397Y0027869D01*
X0242372Y0028000D01*
X0242350Y0028132D01*
X0242332Y0028265D01*
X0242318Y0028399D01*
X0242308Y0028532D01*
X0242302Y0028666D01*
X0242300Y0028800D01*
D11*
X0295800Y0047800D03*
X0295800Y0098800D03*
D12*
X0146800Y0103300D03*
X0106800Y0103300D03*
X0111800Y0082800D03*
X0131800Y0082800D03*
X0131800Y0062800D03*
X0111800Y0062800D03*
X0106800Y0042300D03*
X0146800Y0042300D03*
D13*
X0318237Y0071300D03*
D14*
X0310363Y0071300D03*
D15*
X0234600Y0071800D02*
X0229000Y0071800D01*
X0204600Y0071800D02*
X0199000Y0071800D01*
X0199000Y0061800D02*
X0204600Y0061800D01*
X0229000Y0061800D02*
X0234600Y0061800D01*
X0234600Y0051800D02*
X0229000Y0051800D01*
X0204600Y0051800D02*
X0199000Y0051800D01*
X0199000Y0041800D02*
X0204600Y0041800D01*
X0229000Y0041800D02*
X0234600Y0041800D01*
X0234600Y0081800D02*
X0229000Y0081800D01*
X0204600Y0081800D02*
X0199000Y0081800D01*
X0199000Y0091800D02*
X0204600Y0091800D01*
X0229000Y0091800D02*
X0234600Y0091800D01*
X0234600Y0101800D02*
X0229000Y0101800D01*
X0204600Y0101800D02*
X0199000Y0101800D01*
D16*
X0384261Y0102824D03*
X0384261Y0042824D03*
D17*
X0256957Y0045265D03*
X0061957Y0045265D03*
D18*
X0071800Y0045265D03*
X0081643Y0045265D03*
X0266800Y0045265D03*
X0276643Y0045265D03*
D19*
X0284517Y0072824D03*
X0249083Y0072824D03*
X0089517Y0072824D03*
X0054083Y0072824D03*
D20*
X0156702Y0073224D02*
X0156702Y0067824D01*
X0164202Y0067824D02*
X0164202Y0062424D01*
X0179202Y0062424D02*
X0179202Y0067824D01*
X0171702Y0067824D02*
X0171702Y0073224D01*
D21*
X0308020Y0029643D03*
X0335580Y0029643D03*
D22*
X0331643Y0019800D03*
X0311957Y0019800D03*
D23*
X0311800Y0123406D03*
X0321800Y0124194D03*
X0331800Y0123406D03*
D24*
X0046771Y0017751D02*
X0039256Y0021183D01*
X0032305Y0025650D01*
X0026061Y0031061D01*
X0020650Y0037305D01*
X0016183Y0044256D01*
X0012751Y0051771D01*
X0010423Y0059699D01*
X0009248Y0067877D01*
X0009100Y0072008D01*
X0009100Y0072453D01*
X0009309Y0076719D01*
X0010638Y0085162D01*
X0013154Y0093329D01*
X0016808Y0101056D01*
X0021524Y0108183D01*
X0027206Y0114567D01*
X0033739Y0120078D01*
X0040989Y0124603D01*
X0048810Y0128049D01*
X0057041Y0130348D01*
X0065516Y0131452D01*
X0069782Y0131547D01*
X0069807Y0131547D01*
X0070744Y0131535D01*
X0070757Y0131547D01*
X0394264Y0131547D01*
X0394264Y0014100D01*
X0067008Y0014100D01*
X0062877Y0014248D01*
X0054699Y0015423D01*
X0046771Y0017751D01*
X0045801Y0018194D02*
X0306836Y0018194D01*
X0306611Y0018737D02*
X0307425Y0016771D01*
X0308929Y0015267D01*
X0310894Y0014454D01*
X0313021Y0014454D01*
X0314986Y0015267D01*
X0316490Y0016771D01*
X0317304Y0018737D01*
X0317304Y0020863D01*
X0316490Y0022829D01*
X0314986Y0024332D01*
X0313021Y0025146D01*
X0312477Y0025146D01*
X0313387Y0026056D01*
X0314351Y0028383D01*
X0314351Y0030902D01*
X0313387Y0033229D01*
X0311607Y0035009D01*
X0309280Y0035973D01*
X0306761Y0035973D01*
X0304434Y0035009D01*
X0302654Y0033229D01*
X0301690Y0030902D01*
X0301690Y0028383D01*
X0302654Y0026056D01*
X0304434Y0024276D01*
X0306761Y0023312D01*
X0307908Y0023312D01*
X0307425Y0022829D01*
X0306611Y0020863D01*
X0306611Y0018737D01*
X0306611Y0019793D02*
X0042301Y0019793D01*
X0038932Y0021391D02*
X0306830Y0021391D01*
X0307586Y0022990D02*
X0250542Y0022990D01*
X0250652Y0023035D02*
X0252565Y0024948D01*
X0253600Y0027447D01*
X0253600Y0030153D01*
X0252565Y0032652D01*
X0250652Y0034565D01*
X0248153Y0035600D01*
X0245447Y0035600D01*
X0242948Y0034565D01*
X0241035Y0032652D01*
X0240000Y0030153D01*
X0240000Y0027447D01*
X0241035Y0024948D01*
X0242948Y0023035D01*
X0245447Y0022000D01*
X0248153Y0022000D01*
X0250652Y0023035D01*
X0252205Y0024588D02*
X0304122Y0024588D01*
X0302600Y0026187D02*
X0253078Y0026187D01*
X0253600Y0027785D02*
X0301938Y0027785D01*
X0301690Y0029384D02*
X0253600Y0029384D01*
X0253256Y0030982D02*
X0301723Y0030982D01*
X0302385Y0032581D02*
X0252594Y0032581D01*
X0251037Y0034179D02*
X0303604Y0034179D01*
X0306289Y0035778D02*
X0215303Y0035778D01*
X0216902Y0037376D02*
X0227137Y0037376D01*
X0226281Y0037731D02*
X0228045Y0037000D01*
X0235555Y0037000D01*
X0237319Y0037731D01*
X0238669Y0039081D01*
X0239400Y0040845D01*
X0239400Y0042755D01*
X0238669Y0044519D01*
X0237319Y0045869D01*
X0235555Y0046600D01*
X0228045Y0046600D01*
X0226281Y0045869D01*
X0224931Y0044519D01*
X0224200Y0042755D01*
X0224200Y0040845D01*
X0224931Y0039081D01*
X0226281Y0037731D01*
X0225037Y0038975D02*
X0218500Y0038975D01*
X0220099Y0040573D02*
X0224313Y0040573D01*
X0224200Y0042172D02*
X0221697Y0042172D01*
X0223296Y0043770D02*
X0224621Y0043770D01*
X0224894Y0045369D02*
X0225781Y0045369D01*
X0226493Y0046967D02*
X0251592Y0046967D01*
X0251592Y0045369D02*
X0237819Y0045369D01*
X0238979Y0043770D02*
X0251592Y0043770D01*
X0251592Y0042172D02*
X0239400Y0042172D01*
X0239287Y0040573D02*
X0252090Y0040573D01*
X0251592Y0041071D02*
X0252764Y0039899D01*
X0261151Y0039899D01*
X0262323Y0041071D01*
X0262323Y0042154D01*
X0264578Y0039899D01*
X0269022Y0039899D01*
X0271721Y0042598D01*
X0274420Y0039899D01*
X0278865Y0039899D01*
X0282008Y0043042D01*
X0282008Y0047487D01*
X0278865Y0050630D01*
X0274420Y0050630D01*
X0271721Y0047931D01*
X0269022Y0050630D01*
X0264578Y0050630D01*
X0262323Y0048375D01*
X0262323Y0049458D01*
X0261151Y0050630D01*
X0252764Y0050630D01*
X0251592Y0049458D01*
X0251592Y0041071D01*
X0261825Y0040573D02*
X0263904Y0040573D01*
X0269696Y0040573D02*
X0273746Y0040573D01*
X0272148Y0042172D02*
X0271295Y0042172D01*
X0279539Y0040573D02*
X0288198Y0040573D01*
X0287800Y0040972D02*
X0288972Y0039800D01*
X0302628Y0039800D01*
X0303800Y0040972D01*
X0303800Y0054628D01*
X0302628Y0055800D01*
X0288972Y0055800D01*
X0287800Y0054628D01*
X0287800Y0040972D01*
X0287800Y0042172D02*
X0281137Y0042172D01*
X0282008Y0043770D02*
X0287800Y0043770D01*
X0287800Y0045369D02*
X0282008Y0045369D01*
X0282008Y0046967D02*
X0287800Y0046967D01*
X0287800Y0048566D02*
X0280929Y0048566D01*
X0279331Y0050164D02*
X0287800Y0050164D01*
X0287800Y0051763D02*
X0242088Y0051763D01*
X0240490Y0050164D02*
X0252298Y0050164D01*
X0251592Y0048566D02*
X0238720Y0048566D01*
X0239013Y0048687D02*
X0245007Y0054681D01*
X0245336Y0055010D01*
X0245457Y0055131D01*
X0246151Y0055741D01*
X0247748Y0056662D01*
X0249529Y0057140D01*
X0250451Y0057200D01*
X0296576Y0057200D01*
X0300368Y0058216D01*
X0303767Y0060178D01*
X0304704Y0061116D01*
X0304705Y0061116D01*
X0310311Y0066722D01*
X0311274Y0066722D01*
X0312956Y0067419D01*
X0313659Y0068122D01*
X0313659Y0067894D01*
X0314831Y0066722D01*
X0321643Y0066722D01*
X0322815Y0067894D01*
X0322815Y0074706D01*
X0321643Y0075878D01*
X0314831Y0075878D01*
X0313659Y0074706D01*
X0313659Y0074478D01*
X0312956Y0075181D01*
X0311274Y0075878D01*
X0309452Y0075878D01*
X0307770Y0075181D01*
X0306482Y0073893D01*
X0305785Y0072211D01*
X0305785Y0071248D01*
X0300629Y0066092D01*
X0299792Y0065358D01*
X0297869Y0064248D01*
X0295724Y0063673D01*
X0294614Y0063600D01*
X0248678Y0063600D01*
X0245255Y0062683D01*
X0245255Y0062683D01*
X0242185Y0060910D01*
X0242185Y0060910D01*
X0241382Y0060107D01*
X0240808Y0059533D01*
X0240481Y0059207D01*
X0237195Y0055921D01*
X0235555Y0056600D01*
X0228045Y0056600D01*
X0226281Y0055869D01*
X0224931Y0054519D01*
X0224799Y0054200D01*
X0224587Y0054113D01*
X0223687Y0053213D01*
X0223687Y0053213D01*
X0207058Y0036584D01*
X0206608Y0036134D01*
X0206228Y0035800D01*
X0205352Y0035295D01*
X0204376Y0035033D01*
X0203871Y0035000D01*
X0187918Y0035000D01*
X0186250Y0035109D01*
X0183028Y0035973D01*
X0180140Y0037640D01*
X0178883Y0038742D01*
X0159902Y0057724D01*
X0159902Y0060523D01*
X0160217Y0059761D01*
X0161539Y0058439D01*
X0163267Y0057724D01*
X0165136Y0057724D01*
X0166864Y0058439D01*
X0168186Y0059761D01*
X0168902Y0061489D01*
X0168902Y0063977D01*
X0169039Y0063839D01*
X0170767Y0063124D01*
X0172636Y0063124D01*
X0174364Y0063839D01*
X0174502Y0063977D01*
X0174502Y0061489D01*
X0175217Y0059761D01*
X0176539Y0058439D01*
X0178267Y0057724D01*
X0180136Y0057724D01*
X0181864Y0058439D01*
X0183186Y0059761D01*
X0183902Y0061489D01*
X0183902Y0068759D01*
X0183186Y0070486D01*
X0181864Y0071808D01*
X0180136Y0072524D01*
X0178267Y0072524D01*
X0176539Y0071808D01*
X0176402Y0071670D01*
X0176402Y0074159D01*
X0175686Y0075886D01*
X0174364Y0077208D01*
X0172636Y0077924D01*
X0170767Y0077924D01*
X0169039Y0077208D01*
X0167717Y0075886D01*
X0167002Y0074159D01*
X0167002Y0071670D01*
X0166864Y0071808D01*
X0165136Y0072524D01*
X0163267Y0072524D01*
X0161539Y0071808D01*
X0161402Y0071670D01*
X0161402Y0074159D01*
X0160686Y0075886D01*
X0159364Y0077208D01*
X0157636Y0077924D01*
X0155767Y0077924D01*
X0154039Y0077208D01*
X0152717Y0075886D01*
X0152002Y0074159D01*
X0152002Y0066889D01*
X0152717Y0065161D01*
X0153502Y0064377D01*
X0153502Y0056262D01*
X0153600Y0056024D01*
X0153600Y0055923D01*
X0154271Y0054304D01*
X0154271Y0054304D01*
X0154441Y0054134D01*
X0154891Y0053684D01*
X0155341Y0053234D01*
X0174808Y0033767D01*
X0176143Y0032431D01*
X0180516Y0029907D01*
X0185393Y0028600D01*
X0205223Y0028600D01*
X0207836Y0029300D01*
X0210178Y0030652D01*
X0210684Y0031158D01*
X0211118Y0031592D01*
X0211134Y0031608D01*
X0211584Y0032058D01*
X0211584Y0032058D01*
X0226971Y0047445D01*
X0228045Y0047000D01*
X0235555Y0047000D01*
X0237319Y0047731D01*
X0237788Y0048200D01*
X0237837Y0048200D01*
X0239013Y0048687D01*
X0243687Y0053361D02*
X0287800Y0053361D01*
X0288131Y0054960D02*
X0245285Y0054960D01*
X0247568Y0056558D02*
X0394264Y0056558D01*
X0394264Y0054960D02*
X0303469Y0054960D01*
X0303800Y0053361D02*
X0394264Y0053361D01*
X0394264Y0051763D02*
X0303800Y0051763D01*
X0303800Y0050164D02*
X0394264Y0050164D01*
X0394264Y0048566D02*
X0303800Y0048566D01*
X0303800Y0046967D02*
X0379133Y0046967D01*
X0379133Y0046968D02*
X0379011Y0046511D01*
X0379011Y0043149D01*
X0383936Y0043149D01*
X0383936Y0048074D01*
X0380574Y0048074D01*
X0380116Y0047951D01*
X0379705Y0047714D01*
X0379370Y0047379D01*
X0379133Y0046968D01*
X0379011Y0045369D02*
X0303800Y0045369D01*
X0303800Y0043770D02*
X0379011Y0043770D01*
X0379011Y0042499D02*
X0379011Y0039137D01*
X0379133Y0038679D01*
X0379370Y0038268D01*
X0379705Y0037933D01*
X0380116Y0037696D01*
X0380574Y0037574D01*
X0383936Y0037574D01*
X0383936Y0042499D01*
X0384586Y0042499D01*
X0384586Y0043149D01*
X0389511Y0043149D01*
X0389511Y0046511D01*
X0389388Y0046968D01*
X0389151Y0047379D01*
X0388816Y0047714D01*
X0388405Y0047951D01*
X0387948Y0048074D01*
X0384586Y0048074D01*
X0384586Y0043149D01*
X0383936Y0043149D01*
X0383936Y0042499D01*
X0379011Y0042499D01*
X0379011Y0042172D02*
X0303800Y0042172D01*
X0303402Y0040573D02*
X0379011Y0040573D01*
X0379054Y0038975D02*
X0238563Y0038975D01*
X0236463Y0037376D02*
X0394264Y0037376D01*
X0394264Y0035778D02*
X0337311Y0035778D01*
X0336839Y0035973D02*
X0334320Y0035973D01*
X0331993Y0035009D01*
X0330213Y0033229D01*
X0329249Y0030902D01*
X0329249Y0028383D01*
X0330213Y0026056D01*
X0331123Y0025146D01*
X0330579Y0025146D01*
X0328614Y0024332D01*
X0327110Y0022829D01*
X0326296Y0020863D01*
X0326296Y0018737D01*
X0327110Y0016771D01*
X0328614Y0015267D01*
X0330579Y0014454D01*
X0332706Y0014454D01*
X0334671Y0015267D01*
X0336175Y0016771D01*
X0336989Y0018737D01*
X0336989Y0020863D01*
X0336175Y0022829D01*
X0335692Y0023312D01*
X0336839Y0023312D01*
X0339166Y0024276D01*
X0340946Y0026056D01*
X0341910Y0028383D01*
X0341910Y0030902D01*
X0340946Y0033229D01*
X0339166Y0035009D01*
X0336839Y0035973D01*
X0333848Y0035778D02*
X0309752Y0035778D01*
X0312437Y0034179D02*
X0331163Y0034179D01*
X0329944Y0032581D02*
X0313656Y0032581D01*
X0314318Y0030982D02*
X0329282Y0030982D01*
X0329249Y0029384D02*
X0314351Y0029384D01*
X0314103Y0027785D02*
X0329497Y0027785D01*
X0330159Y0026187D02*
X0313441Y0026187D01*
X0314369Y0024588D02*
X0329231Y0024588D01*
X0327271Y0022990D02*
X0316329Y0022990D01*
X0317085Y0021391D02*
X0326515Y0021391D01*
X0326296Y0019793D02*
X0317304Y0019793D01*
X0317079Y0018194D02*
X0326521Y0018194D01*
X0327286Y0016596D02*
X0316314Y0016596D01*
X0314333Y0014997D02*
X0329267Y0014997D01*
X0334018Y0014997D02*
X0394264Y0014997D01*
X0394264Y0016596D02*
X0335999Y0016596D01*
X0336764Y0018194D02*
X0394264Y0018194D01*
X0394264Y0019793D02*
X0336989Y0019793D01*
X0336770Y0021391D02*
X0394264Y0021391D01*
X0394264Y0022990D02*
X0336014Y0022990D01*
X0339478Y0024588D02*
X0394264Y0024588D01*
X0394264Y0026187D02*
X0341000Y0026187D01*
X0341662Y0027785D02*
X0394264Y0027785D01*
X0394264Y0029384D02*
X0341910Y0029384D01*
X0341877Y0030982D02*
X0394264Y0030982D01*
X0394264Y0032581D02*
X0341215Y0032581D01*
X0339996Y0034179D02*
X0394264Y0034179D01*
X0389151Y0038268D02*
X0389388Y0038679D01*
X0389511Y0039137D01*
X0389511Y0042499D01*
X0384586Y0042499D01*
X0384586Y0037574D01*
X0387948Y0037574D01*
X0388405Y0037696D01*
X0388816Y0037933D01*
X0389151Y0038268D01*
X0389467Y0038975D02*
X0394264Y0038975D01*
X0394264Y0040573D02*
X0389511Y0040573D01*
X0389511Y0042172D02*
X0394264Y0042172D01*
X0394264Y0043770D02*
X0389511Y0043770D01*
X0389511Y0045369D02*
X0394264Y0045369D01*
X0394264Y0046967D02*
X0389388Y0046967D01*
X0384586Y0046967D02*
X0383936Y0046967D01*
X0383936Y0045369D02*
X0384586Y0045369D01*
X0384586Y0043770D02*
X0383936Y0043770D01*
X0383936Y0042172D02*
X0384586Y0042172D01*
X0384586Y0040573D02*
X0383936Y0040573D01*
X0383936Y0038975D02*
X0384586Y0038975D01*
X0394264Y0058157D02*
X0300147Y0058157D01*
X0303034Y0059755D02*
X0394264Y0059755D01*
X0394264Y0061354D02*
X0304942Y0061354D01*
X0303767Y0060178D02*
X0303767Y0060178D01*
X0306541Y0062952D02*
X0394264Y0062952D01*
X0394264Y0064551D02*
X0308139Y0064551D01*
X0309738Y0066149D02*
X0394264Y0066149D01*
X0394264Y0067748D02*
X0322669Y0067748D01*
X0322815Y0069346D02*
X0394264Y0069346D01*
X0394264Y0070945D02*
X0322815Y0070945D01*
X0322815Y0072543D02*
X0394264Y0072543D01*
X0394264Y0074142D02*
X0322815Y0074142D01*
X0321781Y0075740D02*
X0394264Y0075740D01*
X0394264Y0077339D02*
X0292650Y0077339D01*
X0292650Y0078937D02*
X0394264Y0078937D01*
X0394264Y0080536D02*
X0291900Y0080536D01*
X0291479Y0080957D02*
X0277554Y0080957D01*
X0276383Y0079786D01*
X0276383Y0065861D01*
X0277554Y0064690D01*
X0291479Y0064690D01*
X0292650Y0065861D01*
X0292650Y0079786D01*
X0291479Y0080957D01*
X0292650Y0075740D02*
X0309120Y0075740D01*
X0311606Y0075740D02*
X0314693Y0075740D01*
X0306731Y0074142D02*
X0292650Y0074142D01*
X0292650Y0072543D02*
X0305923Y0072543D01*
X0305482Y0070945D02*
X0292650Y0070945D01*
X0292650Y0069346D02*
X0303884Y0069346D01*
X0302285Y0067748D02*
X0292650Y0067748D01*
X0292650Y0066149D02*
X0300687Y0066149D01*
X0298395Y0064551D02*
X0238637Y0064551D01*
X0238669Y0064519D02*
X0237319Y0065869D01*
X0235555Y0066600D01*
X0228045Y0066600D01*
X0226281Y0065869D01*
X0224931Y0064519D01*
X0224200Y0062755D01*
X0224200Y0060845D01*
X0224931Y0059081D01*
X0226281Y0057731D01*
X0228045Y0057000D01*
X0235555Y0057000D01*
X0237319Y0057731D01*
X0238669Y0059081D01*
X0239400Y0060845D01*
X0239400Y0062755D01*
X0238669Y0064519D01*
X0236643Y0066149D02*
X0240950Y0066149D01*
X0240950Y0065861D02*
X0242121Y0064690D01*
X0256046Y0064690D01*
X0257217Y0065861D01*
X0257217Y0079786D01*
X0256046Y0080957D01*
X0242121Y0080957D01*
X0240950Y0079786D01*
X0240950Y0065861D01*
X0237319Y0067731D02*
X0235555Y0067000D01*
X0228045Y0067000D01*
X0226281Y0067731D01*
X0224931Y0069081D01*
X0224200Y0070845D01*
X0224200Y0072755D01*
X0224931Y0074519D01*
X0226281Y0075869D01*
X0228045Y0076600D01*
X0235555Y0076600D01*
X0237319Y0075869D01*
X0238669Y0074519D01*
X0239400Y0072755D01*
X0239400Y0070845D01*
X0238669Y0069081D01*
X0237319Y0067731D01*
X0237336Y0067748D02*
X0240950Y0067748D01*
X0240950Y0069346D02*
X0238779Y0069346D01*
X0239400Y0070945D02*
X0240950Y0070945D01*
X0240950Y0072543D02*
X0239400Y0072543D01*
X0238825Y0074142D02*
X0240950Y0074142D01*
X0240950Y0075740D02*
X0237448Y0075740D01*
X0236373Y0077339D02*
X0240950Y0077339D01*
X0240950Y0078937D02*
X0238526Y0078937D01*
X0238669Y0079081D02*
X0239400Y0080845D01*
X0239400Y0082755D01*
X0238669Y0084519D01*
X0237319Y0085869D01*
X0235555Y0086600D01*
X0228045Y0086600D01*
X0226281Y0085869D01*
X0224931Y0084519D01*
X0224200Y0082755D01*
X0224200Y0080845D01*
X0224931Y0079081D01*
X0226281Y0077731D01*
X0228045Y0077000D01*
X0235555Y0077000D01*
X0237319Y0077731D01*
X0238669Y0079081D01*
X0239272Y0080536D02*
X0241700Y0080536D01*
X0239400Y0082134D02*
X0394264Y0082134D01*
X0394264Y0083733D02*
X0238995Y0083733D01*
X0237857Y0085332D02*
X0394264Y0085332D01*
X0394264Y0086930D02*
X0135000Y0086930D01*
X0135000Y0086388D02*
X0135000Y0105942D01*
X0135094Y0107370D01*
X0135833Y0110130D01*
X0137261Y0112603D01*
X0138205Y0113679D01*
X0141145Y0116620D01*
X0141518Y0116993D01*
X0141595Y0117070D01*
X0143217Y0118539D01*
X0146851Y0120967D01*
X0150888Y0122640D01*
X0155175Y0123493D01*
X0157360Y0123600D01*
X0202658Y0123600D01*
X0203545Y0123542D01*
X0205260Y0123082D01*
X0206797Y0122195D01*
X0207466Y0121608D01*
X0209456Y0119618D01*
X0209906Y0119168D01*
X0210994Y0117928D01*
X0212640Y0115077D01*
X0213492Y0111897D01*
X0213600Y0110251D01*
X0213600Y0099538D01*
X0214580Y0095880D01*
X0216473Y0092601D01*
X0217362Y0091713D01*
X0217362Y0091713D01*
X0217812Y0091263D01*
X0217857Y0091218D01*
X0218262Y0090813D01*
X0218658Y0090416D01*
X0220731Y0089220D01*
X0223043Y0088600D01*
X0225412Y0088600D01*
X0226281Y0087731D01*
X0228045Y0087000D01*
X0235555Y0087000D01*
X0237319Y0087731D01*
X0238669Y0089081D01*
X0239400Y0090845D01*
X0239400Y0092755D01*
X0238669Y0094519D01*
X0237319Y0095869D01*
X0235555Y0096600D01*
X0228045Y0096600D01*
X0226281Y0095869D01*
X0225412Y0095000D01*
X0224240Y0095000D01*
X0223889Y0095023D01*
X0223210Y0095205D01*
X0222602Y0095556D01*
X0222337Y0095788D01*
X0221649Y0096573D01*
X0220607Y0098377D01*
X0220068Y0100389D01*
X0220000Y0101431D01*
X0220000Y0110887D01*
X0220000Y0112754D01*
X0218704Y0117589D01*
X0216202Y0121924D01*
X0214882Y0123244D01*
X0214469Y0123657D01*
X0214432Y0123694D01*
X0213982Y0124144D01*
X0213982Y0124144D01*
X0211542Y0126584D01*
X0211542Y0126584D01*
X0210763Y0127363D01*
X0207753Y0129100D01*
X0207753Y0129100D01*
X0204396Y0130000D01*
X0154534Y0130000D01*
X0148990Y0128897D01*
X0143768Y0126734D01*
X0139068Y0123594D01*
X0137520Y0122045D01*
X0136990Y0121515D01*
X0136620Y0121145D01*
X0133229Y0117755D01*
X0132065Y0116590D01*
X0129782Y0112636D01*
X0128600Y0108225D01*
X0128600Y0090525D01*
X0128028Y0091097D01*
X0127095Y0092031D01*
X0123706Y0093987D01*
X0119926Y0095000D01*
X0090846Y0095000D01*
X0086011Y0093704D01*
X0081676Y0091202D01*
X0080356Y0089882D01*
X0079951Y0089476D01*
X0079906Y0089432D01*
X0079456Y0088982D01*
X0079456Y0088982D01*
X0074367Y0083893D01*
X0072841Y0082367D01*
X0070047Y0077526D01*
X0068600Y0072127D01*
X0068600Y0049652D01*
X0067323Y0048375D01*
X0067323Y0049458D01*
X0066151Y0050630D01*
X0057764Y0050630D01*
X0056592Y0049458D01*
X0056592Y0041071D01*
X0057764Y0039899D01*
X0066151Y0039899D01*
X0067323Y0041071D01*
X0067323Y0042154D01*
X0069578Y0039899D01*
X0074022Y0039899D01*
X0076721Y0042598D01*
X0079420Y0039899D01*
X0083865Y0039899D01*
X0087008Y0043042D01*
X0087008Y0047487D01*
X0083865Y0050630D01*
X0079420Y0050630D01*
X0076721Y0047931D01*
X0075000Y0049652D01*
X0075000Y0069333D01*
X0075127Y0071268D01*
X0076129Y0075007D01*
X0078064Y0078359D01*
X0079343Y0079817D01*
X0083982Y0084456D01*
X0084432Y0084906D01*
X0085672Y0085994D01*
X0088523Y0087640D01*
X0091703Y0088492D01*
X0093349Y0088600D01*
X0117969Y0088600D01*
X0119074Y0088528D01*
X0121208Y0087956D01*
X0123121Y0086851D01*
X0123953Y0086122D01*
X0127000Y0083075D01*
X0127000Y0080812D01*
X0129812Y0078000D01*
X0133788Y0078000D01*
X0136600Y0080812D01*
X0136600Y0084788D01*
X0135000Y0086388D01*
X0136057Y0085332D02*
X0195743Y0085332D01*
X0196281Y0085869D02*
X0194931Y0084519D01*
X0194200Y0082755D01*
X0194200Y0080845D01*
X0194931Y0079081D01*
X0196281Y0077731D01*
X0198045Y0077000D01*
X0205555Y0077000D01*
X0207319Y0077731D01*
X0208669Y0079081D01*
X0209400Y0080845D01*
X0209400Y0082755D01*
X0208669Y0084519D01*
X0207319Y0085869D01*
X0205555Y0086600D01*
X0198045Y0086600D01*
X0196281Y0085869D01*
X0196281Y0087731D02*
X0198045Y0087000D01*
X0205555Y0087000D01*
X0207319Y0087731D01*
X0208669Y0089081D01*
X0209400Y0090845D01*
X0209400Y0092755D01*
X0208669Y0094519D01*
X0207319Y0095869D01*
X0205555Y0096600D01*
X0198045Y0096600D01*
X0196281Y0095869D01*
X0194931Y0094519D01*
X0194200Y0092755D01*
X0194200Y0090845D01*
X0194931Y0089081D01*
X0196281Y0087731D01*
X0195483Y0088529D02*
X0135000Y0088529D01*
X0135000Y0090127D02*
X0194497Y0090127D01*
X0194200Y0091726D02*
X0135000Y0091726D01*
X0135000Y0093324D02*
X0194436Y0093324D01*
X0195334Y0094923D02*
X0135000Y0094923D01*
X0135000Y0096521D02*
X0197855Y0096521D01*
X0198045Y0097000D02*
X0205555Y0097000D01*
X0207319Y0097731D01*
X0208669Y0099081D01*
X0209400Y0100845D01*
X0209400Y0102755D01*
X0208669Y0104519D01*
X0207319Y0105869D01*
X0205555Y0106600D01*
X0198045Y0106600D01*
X0196281Y0105869D01*
X0194931Y0104519D01*
X0194200Y0102755D01*
X0194200Y0100845D01*
X0194931Y0099081D01*
X0196281Y0097731D01*
X0198045Y0097000D01*
X0195892Y0098120D02*
X0135000Y0098120D01*
X0135000Y0099718D02*
X0143594Y0099718D01*
X0144812Y0098500D02*
X0148788Y0098500D01*
X0151600Y0101312D01*
X0151600Y0105288D01*
X0148788Y0108100D01*
X0144812Y0108100D01*
X0142000Y0105288D01*
X0142000Y0101312D01*
X0144812Y0098500D01*
X0142000Y0101317D02*
X0135000Y0101317D01*
X0128600Y0101317D02*
X0111600Y0101317D01*
X0111600Y0101312D02*
X0108788Y0098500D01*
X0104812Y0098500D01*
X0102000Y0101312D01*
X0102000Y0105288D01*
X0104812Y0108100D01*
X0108788Y0108100D01*
X0111600Y0105288D01*
X0111600Y0101312D01*
X0110006Y0099718D02*
X0128600Y0099718D01*
X0128600Y0098120D02*
X0015420Y0098120D01*
X0016175Y0099718D02*
X0103594Y0099718D01*
X0102000Y0101317D02*
X0016980Y0101317D01*
X0018038Y0102915D02*
X0102000Y0102915D01*
X0102000Y0104514D02*
X0019096Y0104514D01*
X0020153Y0106112D02*
X0102824Y0106112D01*
X0104422Y0107711D02*
X0021211Y0107711D01*
X0022526Y0109309D02*
X0128890Y0109309D01*
X0128600Y0107711D02*
X0109178Y0107711D01*
X0110776Y0106112D02*
X0128600Y0106112D01*
X0128600Y0104514D02*
X0111600Y0104514D01*
X0111600Y0102915D02*
X0128600Y0102915D01*
X0135000Y0102915D02*
X0142000Y0102915D01*
X0142000Y0104514D02*
X0135000Y0104514D01*
X0135011Y0106112D02*
X0142824Y0106112D01*
X0144422Y0107711D02*
X0135185Y0107711D01*
X0135613Y0109309D02*
X0213600Y0109309D01*
X0213600Y0107711D02*
X0149178Y0107711D01*
X0150776Y0106112D02*
X0196868Y0106112D01*
X0194929Y0104514D02*
X0151600Y0104514D01*
X0151600Y0102915D02*
X0194266Y0102915D01*
X0194200Y0101317D02*
X0151600Y0101317D01*
X0150006Y0099718D02*
X0194667Y0099718D01*
X0205745Y0096521D02*
X0214408Y0096521D01*
X0214580Y0095880D02*
X0214580Y0095880D01*
X0215133Y0094923D02*
X0208266Y0094923D01*
X0209164Y0093324D02*
X0216056Y0093324D01*
X0216473Y0092601D02*
X0216473Y0092601D01*
X0217349Y0091726D02*
X0209400Y0091726D01*
X0209103Y0090127D02*
X0219159Y0090127D01*
X0218658Y0090416D02*
X0218658Y0090416D01*
X0218262Y0090813D02*
X0218262Y0090813D01*
X0220731Y0089220D02*
X0220731Y0089220D01*
X0225483Y0088529D02*
X0208117Y0088529D01*
X0207857Y0085332D02*
X0225743Y0085332D01*
X0224605Y0083733D02*
X0208995Y0083733D01*
X0209400Y0082134D02*
X0224200Y0082134D01*
X0224328Y0080536D02*
X0209272Y0080536D01*
X0208526Y0078937D02*
X0225074Y0078937D01*
X0227227Y0077339D02*
X0206373Y0077339D01*
X0205555Y0076600D02*
X0207319Y0075869D01*
X0208669Y0074519D01*
X0209400Y0072755D01*
X0209400Y0070845D01*
X0208669Y0069081D01*
X0207319Y0067731D01*
X0205555Y0067000D01*
X0198045Y0067000D01*
X0196281Y0067731D01*
X0194931Y0069081D01*
X0194200Y0070845D01*
X0194200Y0072755D01*
X0194931Y0074519D01*
X0196281Y0075869D01*
X0198045Y0076600D01*
X0205555Y0076600D01*
X0207448Y0075740D02*
X0226152Y0075740D01*
X0224775Y0074142D02*
X0208825Y0074142D01*
X0209400Y0072543D02*
X0224200Y0072543D01*
X0224200Y0070945D02*
X0209400Y0070945D01*
X0208779Y0069346D02*
X0224821Y0069346D01*
X0226264Y0067748D02*
X0207336Y0067748D01*
X0206643Y0066149D02*
X0226957Y0066149D01*
X0224963Y0064551D02*
X0208637Y0064551D01*
X0208669Y0064519D02*
X0207319Y0065869D01*
X0205555Y0066600D01*
X0198045Y0066600D01*
X0196281Y0065869D01*
X0194931Y0064519D01*
X0194200Y0062755D01*
X0194200Y0060845D01*
X0194931Y0059081D01*
X0196281Y0057731D01*
X0198045Y0057000D01*
X0205555Y0057000D01*
X0207319Y0057731D01*
X0208669Y0059081D01*
X0209400Y0060845D01*
X0209400Y0062755D01*
X0208669Y0064519D01*
X0209318Y0062952D02*
X0224282Y0062952D01*
X0224200Y0061354D02*
X0209400Y0061354D01*
X0208949Y0059755D02*
X0224651Y0059755D01*
X0225855Y0058157D02*
X0207745Y0058157D01*
X0207319Y0055869D02*
X0205555Y0056600D01*
X0198045Y0056600D01*
X0196281Y0055869D01*
X0194931Y0054519D01*
X0194200Y0052755D01*
X0194200Y0050845D01*
X0194931Y0049081D01*
X0196281Y0047731D01*
X0198045Y0047000D01*
X0205555Y0047000D01*
X0207319Y0047731D01*
X0208669Y0049081D01*
X0209400Y0050845D01*
X0209400Y0052755D01*
X0208669Y0054519D01*
X0207319Y0055869D01*
X0208228Y0054960D02*
X0225372Y0054960D01*
X0223836Y0053361D02*
X0209149Y0053361D01*
X0209400Y0051763D02*
X0222237Y0051763D01*
X0220639Y0050164D02*
X0209118Y0050164D01*
X0208154Y0048566D02*
X0219040Y0048566D01*
X0217442Y0046967D02*
X0170658Y0046967D01*
X0172257Y0045369D02*
X0196086Y0045369D01*
X0196003Y0045309D02*
X0195491Y0044797D01*
X0195066Y0044211D01*
X0194737Y0043566D01*
X0194513Y0042877D01*
X0194400Y0042162D01*
X0194400Y0041800D01*
X0201800Y0041800D01*
X0201800Y0041800D01*
X0201800Y0046400D01*
X0204962Y0046400D01*
X0205677Y0046287D01*
X0206366Y0046063D01*
X0207011Y0045734D01*
X0207597Y0045309D01*
X0208109Y0044797D01*
X0208534Y0044211D01*
X0208863Y0043566D01*
X0209087Y0042877D01*
X0209200Y0042162D01*
X0209200Y0041800D01*
X0201800Y0041800D01*
X0201800Y0041800D01*
X0201800Y0037200D01*
X0204962Y0037200D01*
X0205677Y0037313D01*
X0206366Y0037537D01*
X0207011Y0037866D01*
X0207597Y0038291D01*
X0208109Y0038803D01*
X0208534Y0039389D01*
X0208863Y0040034D01*
X0209087Y0040723D01*
X0209200Y0041438D01*
X0209200Y0041800D01*
X0201800Y0041800D01*
X0201800Y0041800D01*
X0201800Y0041800D01*
X0201800Y0046400D01*
X0198638Y0046400D01*
X0197923Y0046287D01*
X0197234Y0046063D01*
X0196589Y0045734D01*
X0196003Y0045309D01*
X0194841Y0043770D02*
X0173855Y0043770D01*
X0175454Y0042172D02*
X0194402Y0042172D01*
X0194400Y0041800D02*
X0194400Y0041438D01*
X0194513Y0040723D01*
X0194737Y0040034D01*
X0195066Y0039389D01*
X0195491Y0038803D01*
X0196003Y0038291D01*
X0196589Y0037866D01*
X0197234Y0037537D01*
X0197923Y0037313D01*
X0198638Y0037200D01*
X0201800Y0037200D01*
X0201800Y0041800D01*
X0194400Y0041800D01*
X0194562Y0040573D02*
X0177052Y0040573D01*
X0178651Y0038975D02*
X0195367Y0038975D01*
X0197729Y0037376D02*
X0180597Y0037376D01*
X0183756Y0035778D02*
X0206189Y0035778D01*
X0207058Y0036584D02*
X0207058Y0036584D01*
X0207851Y0037376D02*
X0205871Y0037376D01*
X0208233Y0038975D02*
X0209449Y0038975D01*
X0209038Y0040573D02*
X0211048Y0040573D01*
X0212646Y0042172D02*
X0209198Y0042172D01*
X0208759Y0043770D02*
X0214245Y0043770D01*
X0215843Y0045369D02*
X0207514Y0045369D01*
X0201800Y0045369D02*
X0201800Y0045369D01*
X0201800Y0043770D02*
X0201800Y0043770D01*
X0201800Y0042172D02*
X0201800Y0042172D01*
X0201800Y0040573D02*
X0201800Y0040573D01*
X0201800Y0038975D02*
X0201800Y0038975D01*
X0201800Y0037376D02*
X0201800Y0037376D01*
X0212106Y0032581D02*
X0241006Y0032581D01*
X0240344Y0030982D02*
X0210508Y0030982D01*
X0210684Y0031158D02*
X0210684Y0031158D01*
X0211134Y0031608D02*
X0211134Y0031608D01*
X0210178Y0030652D02*
X0210178Y0030652D01*
X0207980Y0029384D02*
X0240000Y0029384D01*
X0240000Y0027785D02*
X0147600Y0027785D01*
X0147600Y0027447D02*
X0146565Y0024948D01*
X0144652Y0023035D01*
X0142153Y0022000D01*
X0139447Y0022000D01*
X0136948Y0023035D01*
X0135035Y0024948D01*
X0134000Y0027447D01*
X0134000Y0030153D01*
X0135035Y0032652D01*
X0136948Y0034565D01*
X0139447Y0035600D01*
X0142153Y0035600D01*
X0144652Y0034565D01*
X0146565Y0032652D01*
X0147600Y0030153D01*
X0147600Y0027447D01*
X0147078Y0026187D02*
X0240522Y0026187D01*
X0241395Y0024588D02*
X0146205Y0024588D01*
X0144542Y0022990D02*
X0243058Y0022990D01*
X0242563Y0034179D02*
X0213705Y0034179D01*
X0207836Y0029300D02*
X0207836Y0029300D01*
X0182469Y0029384D02*
X0147600Y0029384D01*
X0147256Y0030982D02*
X0178653Y0030982D01*
X0180516Y0029907D02*
X0180516Y0029907D01*
X0176143Y0032431D02*
X0176143Y0032431D01*
X0175994Y0032581D02*
X0146594Y0032581D01*
X0145037Y0034179D02*
X0174395Y0034179D01*
X0174808Y0033767D02*
X0174808Y0033767D01*
X0172797Y0035778D02*
X0021974Y0035778D01*
X0020605Y0037376D02*
X0171198Y0037376D01*
X0169600Y0038975D02*
X0150263Y0038975D01*
X0151600Y0040312D02*
X0148788Y0037500D01*
X0144812Y0037500D01*
X0142000Y0040312D01*
X0142000Y0044288D01*
X0144812Y0047100D01*
X0148788Y0047100D01*
X0151600Y0044288D01*
X0151600Y0040312D01*
X0151600Y0040573D02*
X0168001Y0040573D01*
X0166403Y0042172D02*
X0151600Y0042172D01*
X0151600Y0043770D02*
X0164804Y0043770D01*
X0163206Y0045369D02*
X0150519Y0045369D01*
X0148921Y0046967D02*
X0161607Y0046967D01*
X0160009Y0048566D02*
X0085929Y0048566D01*
X0087008Y0046967D02*
X0144679Y0046967D01*
X0143081Y0045369D02*
X0110237Y0045369D01*
X0111400Y0044205D02*
X0108705Y0046900D01*
X0106800Y0046900D01*
X0106800Y0042300D01*
X0111400Y0042300D01*
X0111400Y0044205D01*
X0111400Y0043770D02*
X0142000Y0043770D01*
X0142000Y0042172D02*
X0111400Y0042172D01*
X0111400Y0042300D02*
X0106800Y0042300D01*
X0106800Y0042300D01*
X0106800Y0042300D01*
X0106800Y0037700D01*
X0108705Y0037700D01*
X0111400Y0040395D01*
X0111400Y0042300D01*
X0111400Y0040573D02*
X0142000Y0040573D01*
X0143337Y0038975D02*
X0109980Y0038975D01*
X0106800Y0038975D02*
X0106800Y0038975D01*
X0106800Y0037700D02*
X0104895Y0037700D01*
X0102200Y0040395D01*
X0102200Y0042300D01*
X0106800Y0042300D01*
X0106800Y0042300D01*
X0106800Y0042300D01*
X0106800Y0046900D01*
X0104895Y0046900D01*
X0102200Y0044205D01*
X0102200Y0042300D01*
X0106800Y0042300D01*
X0106800Y0037700D01*
X0103620Y0038975D02*
X0019577Y0038975D01*
X0018550Y0040573D02*
X0057090Y0040573D01*
X0056592Y0042172D02*
X0017523Y0042172D01*
X0016495Y0043770D02*
X0056592Y0043770D01*
X0056592Y0045369D02*
X0015675Y0045369D01*
X0014945Y0046967D02*
X0056592Y0046967D01*
X0056592Y0048566D02*
X0014215Y0048566D01*
X0013485Y0050164D02*
X0057298Y0050164D01*
X0066617Y0050164D02*
X0068600Y0050164D01*
X0068600Y0051763D02*
X0012755Y0051763D01*
X0012284Y0053361D02*
X0068600Y0053361D01*
X0068600Y0054960D02*
X0011815Y0054960D01*
X0011345Y0056558D02*
X0068600Y0056558D01*
X0068600Y0058157D02*
X0010876Y0058157D01*
X0010415Y0059755D02*
X0068600Y0059755D01*
X0068600Y0061354D02*
X0010185Y0061354D01*
X0009956Y0062952D02*
X0068600Y0062952D01*
X0075000Y0062952D02*
X0107200Y0062952D01*
X0107200Y0062800D02*
X0111800Y0062800D01*
X0111800Y0062800D01*
X0111800Y0067400D01*
X0113705Y0067400D01*
X0116400Y0064705D01*
X0116400Y0062800D01*
X0111800Y0062800D01*
X0111800Y0062800D01*
X0111800Y0062800D01*
X0111800Y0067400D01*
X0109895Y0067400D01*
X0107200Y0064705D01*
X0107200Y0062800D01*
X0107200Y0060895D01*
X0109895Y0058200D01*
X0111800Y0058200D01*
X0113705Y0058200D01*
X0116400Y0060895D01*
X0116400Y0062800D01*
X0111800Y0062800D01*
X0111800Y0058200D01*
X0111800Y0062800D01*
X0111800Y0062800D01*
X0107200Y0062800D01*
X0107200Y0061354D02*
X0075000Y0061354D01*
X0075000Y0059755D02*
X0108339Y0059755D01*
X0111800Y0059755D02*
X0111800Y0059755D01*
X0111800Y0061354D02*
X0111800Y0061354D01*
X0111800Y0062952D02*
X0111800Y0062952D01*
X0116400Y0062952D02*
X0127200Y0062952D01*
X0127200Y0062800D02*
X0131800Y0062800D01*
X0131800Y0062800D01*
X0131800Y0067400D01*
X0133705Y0067400D01*
X0136400Y0064705D01*
X0136400Y0062800D01*
X0131800Y0062800D01*
X0131800Y0062800D01*
X0131800Y0062800D01*
X0131800Y0067400D01*
X0129895Y0067400D01*
X0127200Y0064705D01*
X0127200Y0062800D01*
X0127200Y0060895D01*
X0129895Y0058200D01*
X0131800Y0058200D01*
X0133705Y0058200D01*
X0136400Y0060895D01*
X0136400Y0062800D01*
X0131800Y0062800D01*
X0131800Y0058200D01*
X0131800Y0062800D01*
X0131800Y0062800D01*
X0127200Y0062800D01*
X0127200Y0061354D02*
X0116400Y0061354D01*
X0115261Y0059755D02*
X0128339Y0059755D01*
X0131800Y0059755D02*
X0131800Y0059755D01*
X0131800Y0061354D02*
X0131800Y0061354D01*
X0131800Y0062952D02*
X0131800Y0062952D01*
X0136400Y0062952D02*
X0153502Y0062952D01*
X0153502Y0061354D02*
X0136400Y0061354D01*
X0135261Y0059755D02*
X0153502Y0059755D01*
X0153502Y0058157D02*
X0075000Y0058157D01*
X0075000Y0056558D02*
X0153502Y0056558D01*
X0153999Y0054960D02*
X0075000Y0054960D01*
X0075000Y0053361D02*
X0155213Y0053361D01*
X0155341Y0053234D02*
X0155341Y0053234D01*
X0156812Y0051763D02*
X0075000Y0051763D01*
X0075000Y0050164D02*
X0078954Y0050164D01*
X0077356Y0048566D02*
X0076087Y0048566D01*
X0084331Y0050164D02*
X0158410Y0050164D01*
X0164264Y0053361D02*
X0194451Y0053361D01*
X0194200Y0051763D02*
X0165863Y0051763D01*
X0167461Y0050164D02*
X0194482Y0050164D01*
X0195446Y0048566D02*
X0169060Y0048566D01*
X0162666Y0054960D02*
X0195372Y0054960D01*
X0197945Y0056558D02*
X0161067Y0056558D01*
X0162221Y0058157D02*
X0159902Y0058157D01*
X0159902Y0059755D02*
X0160223Y0059755D01*
X0166182Y0058157D02*
X0177221Y0058157D01*
X0175223Y0059755D02*
X0168180Y0059755D01*
X0168846Y0061354D02*
X0174557Y0061354D01*
X0174502Y0062952D02*
X0168902Y0062952D01*
X0181182Y0058157D02*
X0195855Y0058157D01*
X0194651Y0059755D02*
X0183180Y0059755D01*
X0183846Y0061354D02*
X0194200Y0061354D01*
X0194282Y0062952D02*
X0183902Y0062952D01*
X0183902Y0064551D02*
X0194963Y0064551D01*
X0196957Y0066149D02*
X0183902Y0066149D01*
X0183902Y0067748D02*
X0196264Y0067748D01*
X0194821Y0069346D02*
X0183658Y0069346D01*
X0182727Y0070945D02*
X0194200Y0070945D01*
X0194200Y0072543D02*
X0176402Y0072543D01*
X0176402Y0074142D02*
X0194775Y0074142D01*
X0196152Y0075740D02*
X0175746Y0075740D01*
X0174048Y0077339D02*
X0197227Y0077339D01*
X0195074Y0078937D02*
X0134726Y0078937D01*
X0136324Y0080536D02*
X0194328Y0080536D01*
X0194200Y0082134D02*
X0136600Y0082134D01*
X0136600Y0083733D02*
X0194605Y0083733D01*
X0169355Y0077339D02*
X0159048Y0077339D01*
X0160746Y0075740D02*
X0167657Y0075740D01*
X0167002Y0074142D02*
X0161402Y0074142D01*
X0161402Y0072543D02*
X0167002Y0072543D01*
X0154355Y0077339D02*
X0097650Y0077339D01*
X0097650Y0078937D02*
X0108874Y0078937D01*
X0109812Y0078000D02*
X0113788Y0078000D01*
X0116600Y0080812D01*
X0116600Y0084788D01*
X0113788Y0087600D01*
X0109812Y0087600D01*
X0107000Y0084788D01*
X0107000Y0080812D01*
X0109812Y0078000D01*
X0114726Y0078937D02*
X0128874Y0078937D01*
X0127276Y0080536D02*
X0116324Y0080536D01*
X0116600Y0082134D02*
X0127000Y0082134D01*
X0126341Y0083733D02*
X0116600Y0083733D01*
X0116057Y0085332D02*
X0124743Y0085332D01*
X0122985Y0086930D02*
X0114458Y0086930D01*
X0119060Y0088529D02*
X0092259Y0088529D01*
X0087293Y0086930D02*
X0109142Y0086930D01*
X0107543Y0085332D02*
X0084917Y0085332D01*
X0083982Y0084456D02*
X0083982Y0084456D01*
X0083258Y0083733D02*
X0107000Y0083733D01*
X0107000Y0082134D02*
X0081660Y0082134D01*
X0082554Y0080957D02*
X0081383Y0079786D01*
X0081383Y0065861D01*
X0082554Y0064690D01*
X0096479Y0064690D01*
X0097650Y0065861D01*
X0097650Y0079786D01*
X0096479Y0080957D01*
X0082554Y0080957D01*
X0082133Y0080536D02*
X0080061Y0080536D01*
X0081383Y0078937D02*
X0078571Y0078937D01*
X0077475Y0077339D02*
X0081383Y0077339D01*
X0081383Y0075740D02*
X0076552Y0075740D01*
X0075897Y0074142D02*
X0081383Y0074142D01*
X0081383Y0072543D02*
X0075469Y0072543D01*
X0075106Y0070945D02*
X0081383Y0070945D01*
X0081383Y0069346D02*
X0075001Y0069346D01*
X0075000Y0067748D02*
X0081383Y0067748D01*
X0081383Y0066149D02*
X0075000Y0066149D01*
X0075000Y0064551D02*
X0107200Y0064551D01*
X0108644Y0066149D02*
X0097650Y0066149D01*
X0097650Y0067748D02*
X0152002Y0067748D01*
X0152002Y0069346D02*
X0097650Y0069346D01*
X0097650Y0070945D02*
X0152002Y0070945D01*
X0152002Y0072543D02*
X0097650Y0072543D01*
X0097650Y0074142D02*
X0152002Y0074142D01*
X0152657Y0075740D02*
X0097650Y0075740D01*
X0096900Y0080536D02*
X0107276Y0080536D01*
X0080602Y0090127D02*
X0012168Y0090127D01*
X0012660Y0091726D02*
X0082584Y0091726D01*
X0081676Y0091202D02*
X0081676Y0091202D01*
X0080356Y0089882D02*
X0080356Y0089882D01*
X0079906Y0089432D02*
X0079906Y0089432D01*
X0079003Y0088529D02*
X0011675Y0088529D01*
X0011183Y0086930D02*
X0077405Y0086930D01*
X0075806Y0085332D02*
X0010690Y0085332D01*
X0010413Y0083733D02*
X0074208Y0083733D01*
X0074367Y0083893D02*
X0074367Y0083893D01*
X0072841Y0082367D02*
X0072841Y0082367D01*
X0072707Y0082134D02*
X0010161Y0082134D01*
X0009910Y0080536D02*
X0046700Y0080536D01*
X0047121Y0080957D02*
X0045950Y0079786D01*
X0045950Y0065861D01*
X0047121Y0064690D01*
X0061046Y0064690D01*
X0062217Y0065861D01*
X0062217Y0079786D01*
X0061046Y0080957D01*
X0047121Y0080957D01*
X0045950Y0078937D02*
X0009658Y0078937D01*
X0009407Y0077339D02*
X0045950Y0077339D01*
X0045950Y0075740D02*
X0009261Y0075740D01*
X0009183Y0074142D02*
X0045950Y0074142D01*
X0045950Y0072543D02*
X0009104Y0072543D01*
X0009138Y0070945D02*
X0045950Y0070945D01*
X0045950Y0069346D02*
X0009195Y0069346D01*
X0009266Y0067748D02*
X0045950Y0067748D01*
X0045950Y0066149D02*
X0009496Y0066149D01*
X0009726Y0064551D02*
X0068600Y0064551D01*
X0068600Y0066149D02*
X0062217Y0066149D01*
X0062217Y0067748D02*
X0068600Y0067748D01*
X0068600Y0069346D02*
X0062217Y0069346D01*
X0062217Y0070945D02*
X0068600Y0070945D01*
X0068711Y0072543D02*
X0062217Y0072543D01*
X0062217Y0074142D02*
X0069140Y0074142D01*
X0069568Y0075740D02*
X0062217Y0075740D01*
X0062217Y0077339D02*
X0069996Y0077339D01*
X0070861Y0078937D02*
X0062217Y0078937D01*
X0061467Y0080536D02*
X0071784Y0080536D01*
X0085352Y0093324D02*
X0013153Y0093324D01*
X0013908Y0094923D02*
X0090558Y0094923D01*
X0086011Y0093704D02*
X0086011Y0093704D01*
X0120215Y0094923D02*
X0128600Y0094923D01*
X0128600Y0096521D02*
X0014664Y0096521D01*
X0023948Y0110908D02*
X0129319Y0110908D01*
X0129747Y0112506D02*
X0025371Y0112506D01*
X0026794Y0114105D02*
X0130630Y0114105D01*
X0129782Y0112636D02*
X0129782Y0112636D01*
X0136282Y0110908D02*
X0190256Y0110908D01*
X0189948Y0111035D02*
X0192447Y0110000D01*
X0195153Y0110000D01*
X0197652Y0111035D01*
X0199565Y0112948D01*
X0200600Y0115447D01*
X0200600Y0118153D01*
X0199565Y0120652D01*
X0197652Y0122565D01*
X0195153Y0123600D01*
X0192447Y0123600D01*
X0189948Y0122565D01*
X0188035Y0120652D01*
X0187000Y0118153D01*
X0187000Y0115447D01*
X0188035Y0112948D01*
X0189948Y0111035D01*
X0188477Y0112506D02*
X0137205Y0112506D01*
X0138630Y0114105D02*
X0187556Y0114105D01*
X0187000Y0115703D02*
X0140229Y0115703D01*
X0141851Y0117302D02*
X0187000Y0117302D01*
X0187310Y0118900D02*
X0143757Y0118900D01*
X0146149Y0120499D02*
X0187972Y0120499D01*
X0189481Y0122097D02*
X0149578Y0122097D01*
X0141613Y0125294D02*
X0042559Y0125294D01*
X0039536Y0123696D02*
X0139221Y0123696D01*
X0139068Y0123594D02*
X0139068Y0123594D01*
X0137572Y0122097D02*
X0036975Y0122097D01*
X0034413Y0120499D02*
X0135973Y0120499D01*
X0134375Y0118900D02*
X0032342Y0118900D01*
X0030447Y0117302D02*
X0132776Y0117302D01*
X0133229Y0117755D02*
X0133229Y0117755D01*
X0132065Y0116590D02*
X0132065Y0116590D01*
X0131553Y0115703D02*
X0028552Y0115703D01*
X0046186Y0126893D02*
X0144151Y0126893D01*
X0143768Y0126734D02*
X0143768Y0126734D01*
X0148010Y0128491D02*
X0050393Y0128491D01*
X0056117Y0130090D02*
X0394264Y0130090D01*
X0394264Y0128491D02*
X0334418Y0128491D01*
X0335029Y0128239D02*
X0332934Y0129106D01*
X0330666Y0129106D01*
X0328571Y0128239D01*
X0326968Y0126635D01*
X0326963Y0126624D01*
X0326632Y0127422D01*
X0325029Y0129026D01*
X0322934Y0129894D01*
X0320666Y0129894D01*
X0318571Y0129026D01*
X0316968Y0127422D01*
X0316637Y0126624D01*
X0316632Y0126635D01*
X0315029Y0128239D01*
X0312934Y0129106D01*
X0310666Y0129106D01*
X0308571Y0128239D01*
X0306968Y0126635D01*
X0306100Y0124540D01*
X0306100Y0122272D01*
X0306968Y0120177D01*
X0308571Y0118574D01*
X0310666Y0117706D01*
X0312934Y0117706D01*
X0315029Y0118574D01*
X0316632Y0120177D01*
X0316963Y0120976D01*
X0316968Y0120965D01*
X0318571Y0119361D01*
X0320666Y0118494D01*
X0322934Y0118494D01*
X0325029Y0119361D01*
X0326632Y0120965D01*
X0326637Y0120976D01*
X0326968Y0120177D01*
X0328571Y0118574D01*
X0330666Y0117706D01*
X0332934Y0117706D01*
X0335029Y0118574D01*
X0336632Y0120177D01*
X0337500Y0122272D01*
X0337500Y0124540D01*
X0336632Y0126635D01*
X0335029Y0128239D01*
X0336374Y0126893D02*
X0394264Y0126893D01*
X0394264Y0125294D02*
X0337188Y0125294D01*
X0337500Y0123696D02*
X0394264Y0123696D01*
X0394264Y0122097D02*
X0337427Y0122097D01*
X0336765Y0120499D02*
X0394264Y0120499D01*
X0394264Y0118900D02*
X0335355Y0118900D01*
X0328245Y0118900D02*
X0323915Y0118900D01*
X0326166Y0120499D02*
X0326835Y0120499D01*
X0319685Y0118900D02*
X0315355Y0118900D01*
X0316765Y0120499D02*
X0317434Y0120499D01*
X0308245Y0118900D02*
X0217947Y0118900D01*
X0218704Y0117589D02*
X0218704Y0117589D01*
X0218781Y0117302D02*
X0394264Y0117302D01*
X0394264Y0115703D02*
X0219210Y0115703D01*
X0219638Y0114105D02*
X0394264Y0114105D01*
X0394264Y0112506D02*
X0220000Y0112506D01*
X0220000Y0112754D02*
X0220000Y0112754D01*
X0220000Y0110908D02*
X0394264Y0110908D01*
X0394264Y0109309D02*
X0220000Y0109309D01*
X0220000Y0107711D02*
X0379419Y0107711D01*
X0379982Y0108274D02*
X0378811Y0107102D01*
X0378811Y0098545D01*
X0379982Y0097374D01*
X0388539Y0097374D01*
X0389711Y0098545D01*
X0389711Y0107102D01*
X0388539Y0108274D01*
X0379982Y0108274D01*
X0378811Y0106112D02*
X0303033Y0106112D01*
X0302905Y0106240D02*
X0302495Y0106477D01*
X0302037Y0106600D01*
X0296600Y0106600D01*
X0296600Y0099600D01*
X0303600Y0099600D01*
X0303600Y0105037D01*
X0303477Y0105495D01*
X0303240Y0105905D01*
X0302905Y0106240D01*
X0303600Y0104514D02*
X0378811Y0104514D01*
X0378811Y0102915D02*
X0303600Y0102915D01*
X0303600Y0101317D02*
X0378811Y0101317D01*
X0378811Y0099718D02*
X0303600Y0099718D01*
X0303600Y0098000D02*
X0296600Y0098000D01*
X0296600Y0099600D01*
X0295000Y0099600D01*
X0295000Y0106600D01*
X0289563Y0106600D01*
X0289105Y0106477D01*
X0288695Y0106240D01*
X0288360Y0105905D01*
X0288123Y0105495D01*
X0288000Y0105037D01*
X0288000Y0099600D01*
X0295000Y0099600D01*
X0295000Y0098000D01*
X0296600Y0098000D01*
X0296600Y0091000D01*
X0302037Y0091000D01*
X0302495Y0091123D01*
X0302905Y0091360D01*
X0303240Y0091695D01*
X0303477Y0092105D01*
X0303600Y0092563D01*
X0303600Y0098000D01*
X0303600Y0096521D02*
X0394264Y0096521D01*
X0394264Y0094923D02*
X0303600Y0094923D01*
X0303600Y0093324D02*
X0394264Y0093324D01*
X0394264Y0091726D02*
X0303258Y0091726D01*
X0296600Y0091726D02*
X0295000Y0091726D01*
X0295000Y0091000D02*
X0295000Y0098000D01*
X0288000Y0098000D01*
X0288000Y0092563D01*
X0288123Y0092105D01*
X0288360Y0091695D01*
X0288695Y0091360D01*
X0289105Y0091123D01*
X0289563Y0091000D01*
X0295000Y0091000D01*
X0295000Y0093324D02*
X0296600Y0093324D01*
X0296600Y0094923D02*
X0295000Y0094923D01*
X0295000Y0096521D02*
X0296600Y0096521D01*
X0296600Y0098120D02*
X0379236Y0098120D01*
X0389285Y0098120D02*
X0394264Y0098120D01*
X0394264Y0099718D02*
X0389711Y0099718D01*
X0389711Y0101317D02*
X0394264Y0101317D01*
X0394264Y0102915D02*
X0389711Y0102915D01*
X0389711Y0104514D02*
X0394264Y0104514D01*
X0394264Y0106112D02*
X0389711Y0106112D01*
X0389102Y0107711D02*
X0394264Y0107711D01*
X0394264Y0090127D02*
X0239103Y0090127D01*
X0239400Y0091726D02*
X0288342Y0091726D01*
X0288000Y0093324D02*
X0239164Y0093324D01*
X0238266Y0094923D02*
X0288000Y0094923D01*
X0288000Y0096521D02*
X0235745Y0096521D01*
X0235555Y0097000D02*
X0237319Y0097731D01*
X0238669Y0099081D01*
X0239400Y0100845D01*
X0239400Y0102755D01*
X0238669Y0104519D01*
X0237319Y0105869D01*
X0235555Y0106600D01*
X0228045Y0106600D01*
X0226281Y0105869D01*
X0224931Y0104519D01*
X0224200Y0102755D01*
X0224200Y0100845D01*
X0224931Y0099081D01*
X0226281Y0097731D01*
X0228045Y0097000D01*
X0235555Y0097000D01*
X0237708Y0098120D02*
X0295000Y0098120D01*
X0295000Y0099718D02*
X0296600Y0099718D01*
X0296600Y0101317D02*
X0295000Y0101317D01*
X0288000Y0101317D02*
X0239400Y0101317D01*
X0238933Y0099718D02*
X0288000Y0099718D01*
X0288000Y0102915D02*
X0239334Y0102915D01*
X0238671Y0104514D02*
X0288000Y0104514D01*
X0288567Y0106112D02*
X0236732Y0106112D01*
X0226868Y0106112D02*
X0220000Y0106112D01*
X0220000Y0104514D02*
X0224929Y0104514D01*
X0224266Y0102915D02*
X0220000Y0102915D01*
X0213600Y0102915D02*
X0209334Y0102915D01*
X0208671Y0104514D02*
X0213600Y0104514D01*
X0213600Y0106112D02*
X0206732Y0106112D01*
X0213557Y0110908D02*
X0197344Y0110908D01*
X0199123Y0112506D02*
X0213329Y0112506D01*
X0212900Y0114105D02*
X0200044Y0114105D01*
X0200600Y0115703D02*
X0212278Y0115703D01*
X0211355Y0117302D02*
X0200600Y0117302D01*
X0200290Y0118900D02*
X0210141Y0118900D01*
X0209456Y0119618D02*
X0209456Y0119618D01*
X0208576Y0120499D02*
X0199628Y0120499D01*
X0198119Y0122097D02*
X0206909Y0122097D01*
X0212831Y0125294D02*
X0306412Y0125294D01*
X0306100Y0123696D02*
X0214430Y0123696D01*
X0214432Y0123694D02*
X0214432Y0123694D01*
X0214882Y0123244D02*
X0214882Y0123244D01*
X0216028Y0122097D02*
X0306173Y0122097D01*
X0306835Y0120499D02*
X0217024Y0120499D01*
X0216202Y0121924D02*
X0216202Y0121924D01*
X0211233Y0126893D02*
X0307225Y0126893D01*
X0309182Y0128491D02*
X0208808Y0128491D01*
X0210763Y0127363D02*
X0210763Y0127363D01*
X0148990Y0128897D02*
X0148990Y0128897D01*
X0209400Y0101317D02*
X0213600Y0101317D01*
X0213600Y0099718D02*
X0208933Y0099718D01*
X0207708Y0098120D02*
X0213980Y0098120D01*
X0220248Y0099718D02*
X0224667Y0099718D01*
X0224200Y0101317D02*
X0220007Y0101317D01*
X0220756Y0098120D02*
X0225892Y0098120D01*
X0227855Y0096521D02*
X0221695Y0096521D01*
X0222337Y0095788D02*
X0222337Y0095788D01*
X0238117Y0088529D02*
X0394264Y0088529D01*
X0313805Y0067748D02*
X0313285Y0067748D01*
X0276383Y0067748D02*
X0257217Y0067748D01*
X0257217Y0069346D02*
X0276383Y0069346D01*
X0276383Y0070945D02*
X0257217Y0070945D01*
X0257217Y0072543D02*
X0276383Y0072543D01*
X0276383Y0074142D02*
X0257217Y0074142D01*
X0257217Y0075740D02*
X0276383Y0075740D01*
X0276383Y0077339D02*
X0257217Y0077339D01*
X0257217Y0078937D02*
X0276383Y0078937D01*
X0277133Y0080536D02*
X0256467Y0080536D01*
X0257217Y0066149D02*
X0276383Y0066149D01*
X0246262Y0062952D02*
X0239318Y0062952D01*
X0239400Y0061354D02*
X0242953Y0061354D01*
X0241030Y0059755D02*
X0238949Y0059755D01*
X0239431Y0058157D02*
X0237745Y0058157D01*
X0237833Y0056558D02*
X0235655Y0056558D01*
X0227945Y0056558D02*
X0205655Y0056558D01*
X0153328Y0064551D02*
X0136400Y0064551D01*
X0134956Y0066149D02*
X0152308Y0066149D01*
X0131800Y0066149D02*
X0131800Y0066149D01*
X0131800Y0064551D02*
X0131800Y0064551D01*
X0128644Y0066149D02*
X0114956Y0066149D01*
X0116400Y0064551D02*
X0127200Y0064551D01*
X0111800Y0064551D02*
X0111800Y0064551D01*
X0111800Y0066149D02*
X0111800Y0066149D01*
X0067513Y0048566D02*
X0067323Y0048566D01*
X0076295Y0042172D02*
X0077148Y0042172D01*
X0078746Y0040573D02*
X0074696Y0040573D01*
X0068904Y0040573D02*
X0066825Y0040573D01*
X0084539Y0040573D02*
X0102200Y0040573D01*
X0102200Y0042172D02*
X0086137Y0042172D01*
X0087008Y0043770D02*
X0102200Y0043770D01*
X0103363Y0045369D02*
X0087008Y0045369D01*
X0106800Y0045369D02*
X0106800Y0045369D01*
X0106800Y0043770D02*
X0106800Y0043770D01*
X0106800Y0042172D02*
X0106800Y0042172D01*
X0106800Y0040573D02*
X0106800Y0040573D01*
X0134344Y0030982D02*
X0026152Y0030982D01*
X0024744Y0032581D02*
X0135006Y0032581D01*
X0136563Y0034179D02*
X0023359Y0034179D01*
X0027996Y0029384D02*
X0134000Y0029384D01*
X0134000Y0027785D02*
X0029841Y0027785D01*
X0031686Y0026187D02*
X0134522Y0026187D01*
X0135395Y0024588D02*
X0033958Y0024588D01*
X0036445Y0022990D02*
X0137058Y0022990D01*
X0057664Y0014997D02*
X0309582Y0014997D01*
X0307601Y0016596D02*
X0050707Y0016596D01*
X0261617Y0050164D02*
X0264112Y0050164D01*
X0262513Y0048566D02*
X0262323Y0048566D01*
X0269488Y0050164D02*
X0273954Y0050164D01*
X0272356Y0048566D02*
X0271087Y0048566D01*
X0128600Y0091726D02*
X0127400Y0091726D01*
X0127095Y0092031D02*
X0127095Y0092031D01*
X0128028Y0091097D02*
X0128028Y0091097D01*
X0128600Y0093324D02*
X0124854Y0093324D01*
X0123706Y0093987D02*
X0123706Y0093987D01*
X0295000Y0102915D02*
X0296600Y0102915D01*
X0296600Y0104514D02*
X0295000Y0104514D01*
X0295000Y0106112D02*
X0296600Y0106112D01*
X0316374Y0126893D02*
X0316748Y0126893D01*
X0318037Y0128491D02*
X0314418Y0128491D01*
X0325563Y0128491D02*
X0329182Y0128491D01*
X0327225Y0126893D02*
X0326852Y0126893D01*
D25*
X0220075Y0093526D02*
X0219883Y0093722D01*
X0219696Y0093923D01*
X0219514Y0094129D01*
X0219338Y0094338D01*
X0219166Y0094553D01*
X0219000Y0094771D01*
X0218839Y0094993D01*
X0218684Y0095220D01*
X0218535Y0095450D01*
X0218391Y0095683D01*
X0218252Y0095920D01*
X0218120Y0096161D01*
X0217994Y0096404D01*
X0217873Y0096651D01*
X0217759Y0096900D01*
X0217651Y0097153D01*
X0217549Y0097407D01*
X0217454Y0097665D01*
X0217364Y0097924D01*
X0217281Y0098186D01*
X0217205Y0098449D01*
X0217135Y0098714D01*
X0217072Y0098981D01*
X0217015Y0099250D01*
X0216965Y0099520D01*
X0216921Y0099791D01*
X0216884Y0100062D01*
X0216854Y0100335D01*
X0216830Y0100609D01*
X0216813Y0100882D01*
X0216803Y0101157D01*
X0216800Y0101431D01*
X0216800Y0110251D01*
X0216795Y0110639D01*
X0216781Y0111027D01*
X0216757Y0111414D01*
X0216724Y0111801D01*
X0216681Y0112186D01*
X0216629Y0112571D01*
X0216567Y0112954D01*
X0216496Y0113336D01*
X0216416Y0113715D01*
X0216326Y0114093D01*
X0216227Y0114468D01*
X0216119Y0114841D01*
X0216002Y0115211D01*
X0215876Y0115578D01*
X0215741Y0115941D01*
X0215596Y0116302D01*
X0215444Y0116658D01*
X0215282Y0117011D01*
X0215112Y0117360D01*
X0214933Y0117704D01*
X0214746Y0118044D01*
X0214551Y0118379D01*
X0214347Y0118710D01*
X0214135Y0119035D01*
X0213916Y0119355D01*
X0213689Y0119670D01*
X0213454Y0119978D01*
X0213211Y0120281D01*
X0212961Y0120578D01*
X0212704Y0120869D01*
X0212440Y0121153D01*
X0212169Y0121431D01*
X0209729Y0123871D01*
X0202658Y0126800D02*
X0157360Y0126800D01*
X0139333Y0119333D02*
X0135942Y0115942D01*
X0131800Y0105942D02*
X0131800Y0082800D01*
X0126216Y0088384D01*
X0117969Y0091800D02*
X0093349Y0091800D01*
X0082169Y0087169D02*
X0077080Y0082080D01*
X0082169Y0087169D02*
X0082447Y0087440D01*
X0082731Y0087704D01*
X0083022Y0087961D01*
X0083319Y0088211D01*
X0083622Y0088454D01*
X0083930Y0088689D01*
X0084245Y0088916D01*
X0084565Y0089135D01*
X0084890Y0089347D01*
X0085221Y0089551D01*
X0085556Y0089746D01*
X0085896Y0089933D01*
X0086240Y0090112D01*
X0086589Y0090282D01*
X0086942Y0090444D01*
X0087298Y0090596D01*
X0087659Y0090741D01*
X0088022Y0090876D01*
X0088389Y0091002D01*
X0088759Y0091119D01*
X0089132Y0091227D01*
X0089507Y0091326D01*
X0089885Y0091416D01*
X0090264Y0091496D01*
X0090646Y0091567D01*
X0091029Y0091629D01*
X0091414Y0091681D01*
X0091799Y0091724D01*
X0092186Y0091757D01*
X0092573Y0091781D01*
X0092961Y0091795D01*
X0093349Y0091800D01*
X0117969Y0091800D02*
X0118255Y0091796D01*
X0118541Y0091786D01*
X0118827Y0091768D01*
X0119112Y0091744D01*
X0119397Y0091712D01*
X0119680Y0091674D01*
X0119963Y0091628D01*
X0120244Y0091576D01*
X0120524Y0091517D01*
X0120803Y0091451D01*
X0121079Y0091378D01*
X0121354Y0091298D01*
X0121627Y0091211D01*
X0121898Y0091118D01*
X0122166Y0091019D01*
X0122432Y0090912D01*
X0122695Y0090800D01*
X0122955Y0090680D01*
X0123212Y0090555D01*
X0123466Y0090423D01*
X0123717Y0090285D01*
X0123964Y0090141D01*
X0124208Y0089991D01*
X0124448Y0089835D01*
X0124684Y0089673D01*
X0124916Y0089505D01*
X0125144Y0089332D01*
X0125367Y0089153D01*
X0125586Y0088969D01*
X0125801Y0088779D01*
X0126010Y0088584D01*
X0126215Y0088384D01*
X0139332Y0119333D02*
X0139780Y0119770D01*
X0140239Y0120196D01*
X0140707Y0120610D01*
X0141186Y0121013D01*
X0141675Y0121404D01*
X0142173Y0121783D01*
X0142680Y0122149D01*
X0143196Y0122503D01*
X0143720Y0122845D01*
X0144253Y0123173D01*
X0144794Y0123488D01*
X0145342Y0123790D01*
X0145897Y0124078D01*
X0146459Y0124352D01*
X0147028Y0124613D01*
X0147603Y0124859D01*
X0148184Y0125092D01*
X0148771Y0125310D01*
X0149363Y0125513D01*
X0149959Y0125702D01*
X0150560Y0125876D01*
X0151165Y0126036D01*
X0151774Y0126181D01*
X0152386Y0126310D01*
X0153001Y0126425D01*
X0153619Y0126524D01*
X0154239Y0126608D01*
X0154861Y0126677D01*
X0155484Y0126731D01*
X0156109Y0126769D01*
X0156734Y0126792D01*
X0157360Y0126800D01*
X0202658Y0126800D02*
X0202896Y0126797D01*
X0203134Y0126789D01*
X0203371Y0126775D01*
X0203609Y0126755D01*
X0203845Y0126729D01*
X0204081Y0126698D01*
X0204316Y0126662D01*
X0204551Y0126619D01*
X0204784Y0126571D01*
X0205016Y0126518D01*
X0205246Y0126459D01*
X0205475Y0126395D01*
X0205703Y0126325D01*
X0205929Y0126250D01*
X0206153Y0126169D01*
X0206375Y0126084D01*
X0206595Y0125993D01*
X0206812Y0125896D01*
X0207027Y0125795D01*
X0207240Y0125688D01*
X0207450Y0125577D01*
X0207658Y0125460D01*
X0207863Y0125339D01*
X0208064Y0125213D01*
X0208263Y0125081D01*
X0208459Y0124946D01*
X0208651Y0124805D01*
X0208840Y0124661D01*
X0209025Y0124511D01*
X0209207Y0124357D01*
X0209385Y0124200D01*
X0209559Y0124037D01*
X0209729Y0123871D01*
X0135942Y0115942D02*
X0135707Y0115701D01*
X0135478Y0115455D01*
X0135254Y0115203D01*
X0135037Y0114946D01*
X0134826Y0114684D01*
X0134621Y0114417D01*
X0134422Y0114145D01*
X0134230Y0113869D01*
X0134045Y0113588D01*
X0133866Y0113302D01*
X0133695Y0113013D01*
X0133530Y0112720D01*
X0133372Y0112422D01*
X0133221Y0112121D01*
X0133078Y0111817D01*
X0132942Y0111509D01*
X0132813Y0111198D01*
X0132692Y0110884D01*
X0132578Y0110567D01*
X0132472Y0110248D01*
X0132373Y0109926D01*
X0132282Y0109602D01*
X0132199Y0109276D01*
X0132123Y0108948D01*
X0132056Y0108618D01*
X0131996Y0108287D01*
X0131944Y0107955D01*
X0131900Y0107621D01*
X0131864Y0107286D01*
X0131836Y0106951D01*
X0131816Y0106615D01*
X0131804Y0106279D01*
X0131800Y0105942D01*
X0220074Y0093525D02*
X0220181Y0093421D01*
X0220291Y0093320D01*
X0220403Y0093221D01*
X0220517Y0093125D01*
X0220634Y0093033D01*
X0220753Y0092943D01*
X0220875Y0092856D01*
X0220998Y0092772D01*
X0221124Y0092692D01*
X0221252Y0092614D01*
X0221381Y0092540D01*
X0221512Y0092469D01*
X0221646Y0092402D01*
X0221780Y0092338D01*
X0221917Y0092277D01*
X0222055Y0092220D01*
X0222194Y0092167D01*
X0222335Y0092117D01*
X0222476Y0092070D01*
X0222619Y0092027D01*
X0222763Y0091988D01*
X0222908Y0091952D01*
X0223054Y0091921D01*
X0223201Y0091892D01*
X0223348Y0091868D01*
X0223496Y0091847D01*
X0223644Y0091830D01*
X0223793Y0091817D01*
X0223942Y0091808D01*
X0224091Y0091802D01*
X0224240Y0091800D01*
X0231800Y0091800D01*
X0294614Y0060400D02*
X0294901Y0060404D01*
X0295188Y0060414D01*
X0295475Y0060432D01*
X0295761Y0060456D01*
X0296047Y0060488D01*
X0296332Y0060527D01*
X0296615Y0060572D01*
X0296898Y0060625D01*
X0297179Y0060684D01*
X0297459Y0060751D01*
X0297736Y0060824D01*
X0298012Y0060904D01*
X0298286Y0060991D01*
X0298558Y0061084D01*
X0298827Y0061184D01*
X0299094Y0061291D01*
X0299358Y0061404D01*
X0299619Y0061524D01*
X0299878Y0061650D01*
X0300133Y0061782D01*
X0300384Y0061921D01*
X0300633Y0062066D01*
X0300877Y0062216D01*
X0301118Y0062373D01*
X0301355Y0062536D01*
X0301588Y0062704D01*
X0301817Y0062878D01*
X0302041Y0063057D01*
X0302261Y0063242D01*
X0302476Y0063433D01*
X0302686Y0063628D01*
X0302892Y0063829D01*
X0310363Y0071300D01*
X0294614Y0060400D02*
X0250451Y0060400D01*
X0243194Y0057394D02*
X0237200Y0051400D01*
X0231800Y0051400D01*
X0231800Y0051800D01*
X0231800Y0051400D02*
X0226400Y0051400D01*
X0208871Y0033871D01*
X0203871Y0031800D02*
X0187918Y0031800D01*
X0176621Y0036479D02*
X0157154Y0055946D01*
X0156800Y0056800D02*
X0156702Y0056898D01*
X0156702Y0067824D01*
X0156800Y0056800D02*
X0156802Y0056732D01*
X0156808Y0056665D01*
X0156817Y0056598D01*
X0156830Y0056531D01*
X0156847Y0056466D01*
X0156868Y0056401D01*
X0156892Y0056338D01*
X0156920Y0056276D01*
X0156951Y0056216D01*
X0156985Y0056158D01*
X0157023Y0056102D01*
X0157063Y0056047D01*
X0157107Y0055996D01*
X0157154Y0055947D01*
X0176621Y0036480D02*
X0176893Y0036214D01*
X0177171Y0035955D01*
X0177455Y0035702D01*
X0177746Y0035457D01*
X0178042Y0035218D01*
X0178343Y0034987D01*
X0178650Y0034763D01*
X0178963Y0034546D01*
X0179280Y0034336D01*
X0179602Y0034135D01*
X0179930Y0033941D01*
X0180261Y0033754D01*
X0180597Y0033576D01*
X0180937Y0033406D01*
X0181281Y0033244D01*
X0181629Y0033090D01*
X0181980Y0032944D01*
X0182335Y0032807D01*
X0182692Y0032679D01*
X0183053Y0032559D01*
X0183417Y0032447D01*
X0183783Y0032344D01*
X0184151Y0032250D01*
X0184522Y0032165D01*
X0184894Y0032089D01*
X0185269Y0032021D01*
X0185644Y0031963D01*
X0186021Y0031913D01*
X0186399Y0031872D01*
X0186778Y0031841D01*
X0187158Y0031818D01*
X0187538Y0031805D01*
X0187918Y0031800D01*
X0203871Y0031800D02*
X0204045Y0031802D01*
X0204218Y0031809D01*
X0204391Y0031819D01*
X0204564Y0031834D01*
X0204737Y0031853D01*
X0204909Y0031877D01*
X0205080Y0031904D01*
X0205250Y0031936D01*
X0205420Y0031972D01*
X0205589Y0032012D01*
X0205757Y0032056D01*
X0205924Y0032104D01*
X0206089Y0032157D01*
X0206253Y0032213D01*
X0206416Y0032274D01*
X0206577Y0032338D01*
X0206736Y0032407D01*
X0206894Y0032479D01*
X0207050Y0032555D01*
X0207204Y0032635D01*
X0207356Y0032719D01*
X0207506Y0032806D01*
X0207654Y0032897D01*
X0207799Y0032992D01*
X0207943Y0033090D01*
X0208083Y0033192D01*
X0208221Y0033297D01*
X0208357Y0033405D01*
X0208490Y0033517D01*
X0208620Y0033632D01*
X0208747Y0033750D01*
X0208871Y0033871D01*
X0243194Y0057394D02*
X0243374Y0057570D01*
X0243559Y0057741D01*
X0243747Y0057908D01*
X0243940Y0058070D01*
X0244137Y0058228D01*
X0244337Y0058380D01*
X0244541Y0058528D01*
X0244749Y0058670D01*
X0244960Y0058808D01*
X0245175Y0058940D01*
X0245392Y0059067D01*
X0245613Y0059188D01*
X0245837Y0059304D01*
X0246063Y0059415D01*
X0246292Y0059520D01*
X0246524Y0059619D01*
X0246757Y0059712D01*
X0246993Y0059800D01*
X0247232Y0059882D01*
X0247472Y0059958D01*
X0247714Y0060028D01*
X0247957Y0060092D01*
X0248202Y0060151D01*
X0248449Y0060203D01*
X0248696Y0060249D01*
X0248945Y0060289D01*
X0249195Y0060323D01*
X0249445Y0060351D01*
X0249696Y0060372D01*
X0249947Y0060388D01*
X0250199Y0060397D01*
X0250451Y0060400D01*
X0077080Y0082081D02*
X0076771Y0081764D01*
X0076470Y0081440D01*
X0076177Y0081108D01*
X0075892Y0080770D01*
X0075616Y0080424D01*
X0075348Y0080072D01*
X0075089Y0079714D01*
X0074838Y0079349D01*
X0074597Y0078978D01*
X0074365Y0078601D01*
X0074142Y0078219D01*
X0073929Y0077831D01*
X0073725Y0077439D01*
X0073531Y0077041D01*
X0073347Y0076639D01*
X0073172Y0076232D01*
X0073008Y0075821D01*
X0072854Y0075406D01*
X0072710Y0074988D01*
X0072576Y0074566D01*
X0072453Y0074141D01*
X0072340Y0073713D01*
X0072238Y0073283D01*
X0072146Y0072850D01*
X0072065Y0072415D01*
X0071995Y0071978D01*
X0071936Y0071540D01*
X0071887Y0071100D01*
X0071849Y0070659D01*
X0071822Y0070218D01*
X0071805Y0069775D01*
X0071800Y0069333D01*
X0071800Y0045265D01*
M02*
