G75*
%MOIN*%
%OFA0B0*%
%FSLAX25Y25*%
%IPPOS*%
%LPD*%
%AMOC8*
5,1,8,0,0,1.08239X$1,22.5*
%
%ADD10C,0.00000*%
%ADD11C,0.00300*%
%ADD12C,0.00700*%
%ADD13C,0.00600*%
%ADD14C,0.00400*%
%ADD15C,0.00800*%
%ADD16C,0.00500*%
%ADD17C,0.00100*%
%ADD18C,0.00200*%
%ADD19C,0.00394*%
D10*
X0067008Y0011800D02*
X0396564Y0011800D01*
X0396564Y0133847D01*
X0069822Y0133847D01*
X0189300Y0116800D02*
X0189302Y0116934D01*
X0189308Y0117068D01*
X0189318Y0117201D01*
X0189332Y0117335D01*
X0189350Y0117468D01*
X0189372Y0117600D01*
X0189397Y0117731D01*
X0189427Y0117862D01*
X0189461Y0117992D01*
X0189498Y0118120D01*
X0189539Y0118248D01*
X0189584Y0118374D01*
X0189633Y0118499D01*
X0189685Y0118622D01*
X0189741Y0118744D01*
X0189801Y0118864D01*
X0189864Y0118982D01*
X0189931Y0119098D01*
X0190001Y0119212D01*
X0190075Y0119324D01*
X0190152Y0119434D01*
X0190232Y0119542D01*
X0190315Y0119647D01*
X0190401Y0119749D01*
X0190490Y0119849D01*
X0190583Y0119946D01*
X0190678Y0120041D01*
X0190776Y0120132D01*
X0190876Y0120221D01*
X0190979Y0120306D01*
X0191085Y0120389D01*
X0191193Y0120468D01*
X0191303Y0120544D01*
X0191416Y0120617D01*
X0191531Y0120686D01*
X0191647Y0120752D01*
X0191766Y0120814D01*
X0191886Y0120873D01*
X0192009Y0120928D01*
X0192132Y0120980D01*
X0192257Y0121027D01*
X0192384Y0121071D01*
X0192512Y0121112D01*
X0192641Y0121148D01*
X0192771Y0121181D01*
X0192902Y0121209D01*
X0193033Y0121234D01*
X0193166Y0121255D01*
X0193299Y0121272D01*
X0193432Y0121285D01*
X0193566Y0121294D01*
X0193700Y0121299D01*
X0193834Y0121300D01*
X0193967Y0121297D01*
X0194101Y0121290D01*
X0194235Y0121279D01*
X0194368Y0121264D01*
X0194501Y0121245D01*
X0194633Y0121222D01*
X0194764Y0121196D01*
X0194894Y0121165D01*
X0195024Y0121130D01*
X0195152Y0121092D01*
X0195279Y0121050D01*
X0195405Y0121004D01*
X0195530Y0120954D01*
X0195653Y0120901D01*
X0195774Y0120844D01*
X0195894Y0120783D01*
X0196011Y0120719D01*
X0196127Y0120652D01*
X0196241Y0120581D01*
X0196352Y0120506D01*
X0196461Y0120429D01*
X0196568Y0120348D01*
X0196673Y0120264D01*
X0196774Y0120177D01*
X0196874Y0120087D01*
X0196970Y0119994D01*
X0197064Y0119898D01*
X0197155Y0119799D01*
X0197242Y0119698D01*
X0197327Y0119594D01*
X0197409Y0119488D01*
X0197487Y0119380D01*
X0197562Y0119269D01*
X0197634Y0119156D01*
X0197703Y0119040D01*
X0197768Y0118923D01*
X0197829Y0118804D01*
X0197887Y0118683D01*
X0197941Y0118561D01*
X0197992Y0118437D01*
X0198039Y0118311D01*
X0198082Y0118184D01*
X0198121Y0118056D01*
X0198157Y0117927D01*
X0198188Y0117797D01*
X0198216Y0117666D01*
X0198240Y0117534D01*
X0198260Y0117401D01*
X0198276Y0117268D01*
X0198288Y0117135D01*
X0198296Y0117001D01*
X0198300Y0116867D01*
X0198300Y0116733D01*
X0198296Y0116599D01*
X0198288Y0116465D01*
X0198276Y0116332D01*
X0198260Y0116199D01*
X0198240Y0116066D01*
X0198216Y0115934D01*
X0198188Y0115803D01*
X0198157Y0115673D01*
X0198121Y0115544D01*
X0198082Y0115416D01*
X0198039Y0115289D01*
X0197992Y0115163D01*
X0197941Y0115039D01*
X0197887Y0114917D01*
X0197829Y0114796D01*
X0197768Y0114677D01*
X0197703Y0114560D01*
X0197634Y0114444D01*
X0197562Y0114331D01*
X0197487Y0114220D01*
X0197409Y0114112D01*
X0197327Y0114006D01*
X0197242Y0113902D01*
X0197155Y0113801D01*
X0197064Y0113702D01*
X0196970Y0113606D01*
X0196874Y0113513D01*
X0196774Y0113423D01*
X0196673Y0113336D01*
X0196568Y0113252D01*
X0196461Y0113171D01*
X0196352Y0113094D01*
X0196241Y0113019D01*
X0196127Y0112948D01*
X0196011Y0112881D01*
X0195894Y0112817D01*
X0195774Y0112756D01*
X0195653Y0112699D01*
X0195530Y0112646D01*
X0195405Y0112596D01*
X0195279Y0112550D01*
X0195152Y0112508D01*
X0195024Y0112470D01*
X0194894Y0112435D01*
X0194764Y0112404D01*
X0194633Y0112378D01*
X0194501Y0112355D01*
X0194368Y0112336D01*
X0194235Y0112321D01*
X0194101Y0112310D01*
X0193967Y0112303D01*
X0193834Y0112300D01*
X0193700Y0112301D01*
X0193566Y0112306D01*
X0193432Y0112315D01*
X0193299Y0112328D01*
X0193166Y0112345D01*
X0193033Y0112366D01*
X0192902Y0112391D01*
X0192771Y0112419D01*
X0192641Y0112452D01*
X0192512Y0112488D01*
X0192384Y0112529D01*
X0192257Y0112573D01*
X0192132Y0112620D01*
X0192009Y0112672D01*
X0191886Y0112727D01*
X0191766Y0112786D01*
X0191647Y0112848D01*
X0191531Y0112914D01*
X0191416Y0112983D01*
X0191303Y0113056D01*
X0191193Y0113132D01*
X0191085Y0113211D01*
X0190979Y0113294D01*
X0190876Y0113379D01*
X0190776Y0113468D01*
X0190678Y0113559D01*
X0190583Y0113654D01*
X0190490Y0113751D01*
X0190401Y0113851D01*
X0190315Y0113953D01*
X0190232Y0114058D01*
X0190152Y0114166D01*
X0190075Y0114276D01*
X0190001Y0114388D01*
X0189931Y0114502D01*
X0189864Y0114618D01*
X0189801Y0114736D01*
X0189741Y0114856D01*
X0189685Y0114978D01*
X0189633Y0115101D01*
X0189584Y0115226D01*
X0189539Y0115352D01*
X0189498Y0115480D01*
X0189461Y0115608D01*
X0189427Y0115738D01*
X0189397Y0115869D01*
X0189372Y0116000D01*
X0189350Y0116132D01*
X0189332Y0116265D01*
X0189318Y0116399D01*
X0189308Y0116532D01*
X0189302Y0116666D01*
X0189300Y0116800D01*
X0069822Y0133848D02*
X0068319Y0133849D01*
X0066816Y0133815D01*
X0065314Y0133744D01*
X0063815Y0133637D01*
X0062319Y0133494D01*
X0060827Y0133314D01*
X0059339Y0133099D01*
X0057857Y0132848D01*
X0056381Y0132561D01*
X0054913Y0132238D01*
X0053454Y0131880D01*
X0052003Y0131487D01*
X0050562Y0131059D01*
X0049132Y0130596D01*
X0047713Y0130099D01*
X0046307Y0129568D01*
X0044914Y0129003D01*
X0043536Y0128404D01*
X0042172Y0127772D01*
X0040823Y0127108D01*
X0039492Y0126411D01*
X0038177Y0125682D01*
X0036880Y0124921D01*
X0035603Y0124130D01*
X0034344Y0123308D01*
X0033106Y0122455D01*
X0031889Y0121573D01*
X0030694Y0120662D01*
X0029521Y0119722D01*
X0028371Y0118754D01*
X0027244Y0117759D01*
X0026142Y0116737D01*
X0025065Y0115688D01*
X0024014Y0114614D01*
X0022989Y0113514D01*
X0021991Y0112390D01*
X0021020Y0111243D01*
X0020078Y0110072D01*
X0019164Y0108878D01*
X0018279Y0107663D01*
X0017423Y0106427D01*
X0016598Y0105171D01*
X0015804Y0103895D01*
X0015040Y0102601D01*
X0014308Y0101288D01*
X0013608Y0099958D01*
X0012940Y0098611D01*
X0012305Y0097249D01*
X0011703Y0095871D01*
X0011134Y0094480D01*
X0010600Y0093075D01*
X0010099Y0091658D01*
X0009633Y0090229D01*
X0009201Y0088789D01*
X0008805Y0087339D01*
X0008443Y0085880D01*
X0008117Y0084413D01*
X0007826Y0082938D01*
X0007572Y0081457D01*
X0007353Y0079970D01*
X0007170Y0078478D01*
X0007023Y0076982D01*
X0006912Y0075483D01*
X0006838Y0073981D01*
X0006799Y0072479D01*
X0006800Y0072479D02*
X0006800Y0072008D01*
X0006818Y0070553D01*
X0006870Y0069099D01*
X0006958Y0067647D01*
X0007081Y0066197D01*
X0007239Y0064751D01*
X0007432Y0063309D01*
X0007659Y0061872D01*
X0007922Y0060440D01*
X0008218Y0059016D01*
X0008550Y0057599D01*
X0008915Y0056191D01*
X0009314Y0054792D01*
X0009747Y0053403D01*
X0010213Y0052024D01*
X0010713Y0050658D01*
X0011245Y0049304D01*
X0011810Y0047963D01*
X0012407Y0046636D01*
X0013036Y0045324D01*
X0013696Y0044028D01*
X0014388Y0042748D01*
X0015111Y0041485D01*
X0015863Y0040240D01*
X0016646Y0039013D01*
X0017458Y0037806D01*
X0018299Y0036619D01*
X0019168Y0035452D01*
X0020065Y0034307D01*
X0020990Y0033183D01*
X0021942Y0032083D01*
X0022920Y0031005D01*
X0023923Y0029952D01*
X0024952Y0028923D01*
X0026005Y0027920D01*
X0027083Y0026942D01*
X0028183Y0025990D01*
X0029307Y0025065D01*
X0030452Y0024168D01*
X0031619Y0023299D01*
X0032806Y0022458D01*
X0034013Y0021646D01*
X0035240Y0020863D01*
X0036485Y0020111D01*
X0037748Y0019388D01*
X0039028Y0018696D01*
X0040324Y0018036D01*
X0041636Y0017407D01*
X0042963Y0016810D01*
X0044304Y0016245D01*
X0045658Y0015713D01*
X0047024Y0015213D01*
X0048403Y0014747D01*
X0049792Y0014314D01*
X0051191Y0013915D01*
X0052599Y0013550D01*
X0054016Y0013218D01*
X0055440Y0012922D01*
X0056872Y0012659D01*
X0058309Y0012432D01*
X0059751Y0012239D01*
X0061197Y0012081D01*
X0062647Y0011958D01*
X0064099Y0011870D01*
X0065553Y0011818D01*
X0067008Y0011800D01*
X0136300Y0028800D02*
X0136302Y0028934D01*
X0136308Y0029068D01*
X0136318Y0029201D01*
X0136332Y0029335D01*
X0136350Y0029468D01*
X0136372Y0029600D01*
X0136397Y0029731D01*
X0136427Y0029862D01*
X0136461Y0029992D01*
X0136498Y0030120D01*
X0136539Y0030248D01*
X0136584Y0030374D01*
X0136633Y0030499D01*
X0136685Y0030622D01*
X0136741Y0030744D01*
X0136801Y0030864D01*
X0136864Y0030982D01*
X0136931Y0031098D01*
X0137001Y0031212D01*
X0137075Y0031324D01*
X0137152Y0031434D01*
X0137232Y0031542D01*
X0137315Y0031647D01*
X0137401Y0031749D01*
X0137490Y0031849D01*
X0137583Y0031946D01*
X0137678Y0032041D01*
X0137776Y0032132D01*
X0137876Y0032221D01*
X0137979Y0032306D01*
X0138085Y0032389D01*
X0138193Y0032468D01*
X0138303Y0032544D01*
X0138416Y0032617D01*
X0138531Y0032686D01*
X0138647Y0032752D01*
X0138766Y0032814D01*
X0138886Y0032873D01*
X0139009Y0032928D01*
X0139132Y0032980D01*
X0139257Y0033027D01*
X0139384Y0033071D01*
X0139512Y0033112D01*
X0139641Y0033148D01*
X0139771Y0033181D01*
X0139902Y0033209D01*
X0140033Y0033234D01*
X0140166Y0033255D01*
X0140299Y0033272D01*
X0140432Y0033285D01*
X0140566Y0033294D01*
X0140700Y0033299D01*
X0140834Y0033300D01*
X0140967Y0033297D01*
X0141101Y0033290D01*
X0141235Y0033279D01*
X0141368Y0033264D01*
X0141501Y0033245D01*
X0141633Y0033222D01*
X0141764Y0033196D01*
X0141894Y0033165D01*
X0142024Y0033130D01*
X0142152Y0033092D01*
X0142279Y0033050D01*
X0142405Y0033004D01*
X0142530Y0032954D01*
X0142653Y0032901D01*
X0142774Y0032844D01*
X0142894Y0032783D01*
X0143011Y0032719D01*
X0143127Y0032652D01*
X0143241Y0032581D01*
X0143352Y0032506D01*
X0143461Y0032429D01*
X0143568Y0032348D01*
X0143673Y0032264D01*
X0143774Y0032177D01*
X0143874Y0032087D01*
X0143970Y0031994D01*
X0144064Y0031898D01*
X0144155Y0031799D01*
X0144242Y0031698D01*
X0144327Y0031594D01*
X0144409Y0031488D01*
X0144487Y0031380D01*
X0144562Y0031269D01*
X0144634Y0031156D01*
X0144703Y0031040D01*
X0144768Y0030923D01*
X0144829Y0030804D01*
X0144887Y0030683D01*
X0144941Y0030561D01*
X0144992Y0030437D01*
X0145039Y0030311D01*
X0145082Y0030184D01*
X0145121Y0030056D01*
X0145157Y0029927D01*
X0145188Y0029797D01*
X0145216Y0029666D01*
X0145240Y0029534D01*
X0145260Y0029401D01*
X0145276Y0029268D01*
X0145288Y0029135D01*
X0145296Y0029001D01*
X0145300Y0028867D01*
X0145300Y0028733D01*
X0145296Y0028599D01*
X0145288Y0028465D01*
X0145276Y0028332D01*
X0145260Y0028199D01*
X0145240Y0028066D01*
X0145216Y0027934D01*
X0145188Y0027803D01*
X0145157Y0027673D01*
X0145121Y0027544D01*
X0145082Y0027416D01*
X0145039Y0027289D01*
X0144992Y0027163D01*
X0144941Y0027039D01*
X0144887Y0026917D01*
X0144829Y0026796D01*
X0144768Y0026677D01*
X0144703Y0026560D01*
X0144634Y0026444D01*
X0144562Y0026331D01*
X0144487Y0026220D01*
X0144409Y0026112D01*
X0144327Y0026006D01*
X0144242Y0025902D01*
X0144155Y0025801D01*
X0144064Y0025702D01*
X0143970Y0025606D01*
X0143874Y0025513D01*
X0143774Y0025423D01*
X0143673Y0025336D01*
X0143568Y0025252D01*
X0143461Y0025171D01*
X0143352Y0025094D01*
X0143241Y0025019D01*
X0143127Y0024948D01*
X0143011Y0024881D01*
X0142894Y0024817D01*
X0142774Y0024756D01*
X0142653Y0024699D01*
X0142530Y0024646D01*
X0142405Y0024596D01*
X0142279Y0024550D01*
X0142152Y0024508D01*
X0142024Y0024470D01*
X0141894Y0024435D01*
X0141764Y0024404D01*
X0141633Y0024378D01*
X0141501Y0024355D01*
X0141368Y0024336D01*
X0141235Y0024321D01*
X0141101Y0024310D01*
X0140967Y0024303D01*
X0140834Y0024300D01*
X0140700Y0024301D01*
X0140566Y0024306D01*
X0140432Y0024315D01*
X0140299Y0024328D01*
X0140166Y0024345D01*
X0140033Y0024366D01*
X0139902Y0024391D01*
X0139771Y0024419D01*
X0139641Y0024452D01*
X0139512Y0024488D01*
X0139384Y0024529D01*
X0139257Y0024573D01*
X0139132Y0024620D01*
X0139009Y0024672D01*
X0138886Y0024727D01*
X0138766Y0024786D01*
X0138647Y0024848D01*
X0138531Y0024914D01*
X0138416Y0024983D01*
X0138303Y0025056D01*
X0138193Y0025132D01*
X0138085Y0025211D01*
X0137979Y0025294D01*
X0137876Y0025379D01*
X0137776Y0025468D01*
X0137678Y0025559D01*
X0137583Y0025654D01*
X0137490Y0025751D01*
X0137401Y0025851D01*
X0137315Y0025953D01*
X0137232Y0026058D01*
X0137152Y0026166D01*
X0137075Y0026276D01*
X0137001Y0026388D01*
X0136931Y0026502D01*
X0136864Y0026618D01*
X0136801Y0026736D01*
X0136741Y0026856D01*
X0136685Y0026978D01*
X0136633Y0027101D01*
X0136584Y0027226D01*
X0136539Y0027352D01*
X0136498Y0027480D01*
X0136461Y0027608D01*
X0136427Y0027738D01*
X0136397Y0027869D01*
X0136372Y0028000D01*
X0136350Y0028132D01*
X0136332Y0028265D01*
X0136318Y0028399D01*
X0136308Y0028532D01*
X0136302Y0028666D01*
X0136300Y0028800D01*
X0242300Y0028800D02*
X0242302Y0028934D01*
X0242308Y0029068D01*
X0242318Y0029201D01*
X0242332Y0029335D01*
X0242350Y0029468D01*
X0242372Y0029600D01*
X0242397Y0029731D01*
X0242427Y0029862D01*
X0242461Y0029992D01*
X0242498Y0030120D01*
X0242539Y0030248D01*
X0242584Y0030374D01*
X0242633Y0030499D01*
X0242685Y0030622D01*
X0242741Y0030744D01*
X0242801Y0030864D01*
X0242864Y0030982D01*
X0242931Y0031098D01*
X0243001Y0031212D01*
X0243075Y0031324D01*
X0243152Y0031434D01*
X0243232Y0031542D01*
X0243315Y0031647D01*
X0243401Y0031749D01*
X0243490Y0031849D01*
X0243583Y0031946D01*
X0243678Y0032041D01*
X0243776Y0032132D01*
X0243876Y0032221D01*
X0243979Y0032306D01*
X0244085Y0032389D01*
X0244193Y0032468D01*
X0244303Y0032544D01*
X0244416Y0032617D01*
X0244531Y0032686D01*
X0244647Y0032752D01*
X0244766Y0032814D01*
X0244886Y0032873D01*
X0245009Y0032928D01*
X0245132Y0032980D01*
X0245257Y0033027D01*
X0245384Y0033071D01*
X0245512Y0033112D01*
X0245641Y0033148D01*
X0245771Y0033181D01*
X0245902Y0033209D01*
X0246033Y0033234D01*
X0246166Y0033255D01*
X0246299Y0033272D01*
X0246432Y0033285D01*
X0246566Y0033294D01*
X0246700Y0033299D01*
X0246834Y0033300D01*
X0246967Y0033297D01*
X0247101Y0033290D01*
X0247235Y0033279D01*
X0247368Y0033264D01*
X0247501Y0033245D01*
X0247633Y0033222D01*
X0247764Y0033196D01*
X0247894Y0033165D01*
X0248024Y0033130D01*
X0248152Y0033092D01*
X0248279Y0033050D01*
X0248405Y0033004D01*
X0248530Y0032954D01*
X0248653Y0032901D01*
X0248774Y0032844D01*
X0248894Y0032783D01*
X0249011Y0032719D01*
X0249127Y0032652D01*
X0249241Y0032581D01*
X0249352Y0032506D01*
X0249461Y0032429D01*
X0249568Y0032348D01*
X0249673Y0032264D01*
X0249774Y0032177D01*
X0249874Y0032087D01*
X0249970Y0031994D01*
X0250064Y0031898D01*
X0250155Y0031799D01*
X0250242Y0031698D01*
X0250327Y0031594D01*
X0250409Y0031488D01*
X0250487Y0031380D01*
X0250562Y0031269D01*
X0250634Y0031156D01*
X0250703Y0031040D01*
X0250768Y0030923D01*
X0250829Y0030804D01*
X0250887Y0030683D01*
X0250941Y0030561D01*
X0250992Y0030437D01*
X0251039Y0030311D01*
X0251082Y0030184D01*
X0251121Y0030056D01*
X0251157Y0029927D01*
X0251188Y0029797D01*
X0251216Y0029666D01*
X0251240Y0029534D01*
X0251260Y0029401D01*
X0251276Y0029268D01*
X0251288Y0029135D01*
X0251296Y0029001D01*
X0251300Y0028867D01*
X0251300Y0028733D01*
X0251296Y0028599D01*
X0251288Y0028465D01*
X0251276Y0028332D01*
X0251260Y0028199D01*
X0251240Y0028066D01*
X0251216Y0027934D01*
X0251188Y0027803D01*
X0251157Y0027673D01*
X0251121Y0027544D01*
X0251082Y0027416D01*
X0251039Y0027289D01*
X0250992Y0027163D01*
X0250941Y0027039D01*
X0250887Y0026917D01*
X0250829Y0026796D01*
X0250768Y0026677D01*
X0250703Y0026560D01*
X0250634Y0026444D01*
X0250562Y0026331D01*
X0250487Y0026220D01*
X0250409Y0026112D01*
X0250327Y0026006D01*
X0250242Y0025902D01*
X0250155Y0025801D01*
X0250064Y0025702D01*
X0249970Y0025606D01*
X0249874Y0025513D01*
X0249774Y0025423D01*
X0249673Y0025336D01*
X0249568Y0025252D01*
X0249461Y0025171D01*
X0249352Y0025094D01*
X0249241Y0025019D01*
X0249127Y0024948D01*
X0249011Y0024881D01*
X0248894Y0024817D01*
X0248774Y0024756D01*
X0248653Y0024699D01*
X0248530Y0024646D01*
X0248405Y0024596D01*
X0248279Y0024550D01*
X0248152Y0024508D01*
X0248024Y0024470D01*
X0247894Y0024435D01*
X0247764Y0024404D01*
X0247633Y0024378D01*
X0247501Y0024355D01*
X0247368Y0024336D01*
X0247235Y0024321D01*
X0247101Y0024310D01*
X0246967Y0024303D01*
X0246834Y0024300D01*
X0246700Y0024301D01*
X0246566Y0024306D01*
X0246432Y0024315D01*
X0246299Y0024328D01*
X0246166Y0024345D01*
X0246033Y0024366D01*
X0245902Y0024391D01*
X0245771Y0024419D01*
X0245641Y0024452D01*
X0245512Y0024488D01*
X0245384Y0024529D01*
X0245257Y0024573D01*
X0245132Y0024620D01*
X0245009Y0024672D01*
X0244886Y0024727D01*
X0244766Y0024786D01*
X0244647Y0024848D01*
X0244531Y0024914D01*
X0244416Y0024983D01*
X0244303Y0025056D01*
X0244193Y0025132D01*
X0244085Y0025211D01*
X0243979Y0025294D01*
X0243876Y0025379D01*
X0243776Y0025468D01*
X0243678Y0025559D01*
X0243583Y0025654D01*
X0243490Y0025751D01*
X0243401Y0025851D01*
X0243315Y0025953D01*
X0243232Y0026058D01*
X0243152Y0026166D01*
X0243075Y0026276D01*
X0243001Y0026388D01*
X0242931Y0026502D01*
X0242864Y0026618D01*
X0242801Y0026736D01*
X0242741Y0026856D01*
X0242685Y0026978D01*
X0242633Y0027101D01*
X0242584Y0027226D01*
X0242539Y0027352D01*
X0242498Y0027480D01*
X0242461Y0027608D01*
X0242427Y0027738D01*
X0242397Y0027869D01*
X0242372Y0028000D01*
X0242350Y0028132D01*
X0242332Y0028265D01*
X0242318Y0028399D01*
X0242308Y0028532D01*
X0242302Y0028666D01*
X0242300Y0028800D01*
D11*
X0117074Y0044139D02*
X0115139Y0044139D01*
X0117074Y0046074D01*
X0117074Y0046558D01*
X0116590Y0047041D01*
X0115623Y0047041D01*
X0115139Y0046558D01*
X0114128Y0046558D02*
X0114128Y0045590D01*
X0113644Y0045107D01*
X0112193Y0045107D01*
X0113160Y0045107D02*
X0114128Y0044139D01*
X0112193Y0044139D02*
X0112193Y0047041D01*
X0113644Y0047041D01*
X0114128Y0046558D01*
X0163092Y0072811D02*
X0165561Y0072811D01*
X0159198Y0076950D02*
X0161050Y0079419D01*
X0159198Y0080633D02*
X0159198Y0083102D01*
X0159198Y0084316D02*
X0159198Y0085551D01*
X0157347Y0086785D02*
X0157347Y0084316D01*
X0161050Y0084316D01*
X0162947Y0084316D02*
X0162947Y0086785D01*
X0162947Y0087999D02*
X0166650Y0087999D01*
X0164798Y0087999D02*
X0164181Y0088617D01*
X0164181Y0089851D01*
X0164798Y0090468D01*
X0166650Y0090468D01*
X0166650Y0091683D02*
X0166650Y0092917D01*
X0166650Y0092300D02*
X0164181Y0092300D01*
X0164181Y0091683D01*
X0162947Y0092300D02*
X0162330Y0092300D01*
X0161050Y0092924D02*
X0161050Y0091072D01*
X0160433Y0090455D01*
X0159816Y0091072D01*
X0159816Y0092924D01*
X0159198Y0092924D02*
X0161050Y0092924D01*
X0159198Y0092924D02*
X0158581Y0092306D01*
X0158581Y0091072D01*
X0161050Y0089234D02*
X0161050Y0087999D01*
X0161050Y0088617D02*
X0157347Y0088617D01*
X0157347Y0087999D01*
X0162947Y0085551D02*
X0166650Y0085551D01*
X0157347Y0079419D02*
X0159198Y0076950D01*
X0158581Y0094138D02*
X0158581Y0095372D01*
X0157964Y0094755D02*
X0160433Y0094755D01*
X0161050Y0095372D01*
X0164181Y0094755D02*
X0164181Y0096607D01*
X0165416Y0095990D02*
X0165416Y0094755D01*
X0164798Y0094138D01*
X0164181Y0094755D01*
X0165416Y0095990D02*
X0166033Y0096607D01*
X0166650Y0095990D01*
X0166650Y0094138D01*
X0160433Y0100277D02*
X0161050Y0100894D01*
X0161050Y0102128D01*
X0160433Y0102745D01*
X0159816Y0102745D01*
X0159198Y0102128D01*
X0159198Y0100894D01*
X0158581Y0100277D01*
X0157964Y0100277D01*
X0157347Y0100894D01*
X0157347Y0102128D01*
X0157964Y0102745D01*
X0158581Y0103960D02*
X0158581Y0104577D01*
X0161050Y0104577D01*
X0161050Y0103960D02*
X0161050Y0105194D01*
X0160433Y0106415D02*
X0159198Y0106415D01*
X0158581Y0107032D01*
X0158581Y0108884D01*
X0157347Y0108884D02*
X0161050Y0108884D01*
X0161050Y0107032D01*
X0160433Y0106415D01*
X0162330Y0105805D02*
X0162947Y0105805D01*
X0164181Y0105805D02*
X0166650Y0105805D01*
X0166650Y0106422D02*
X0166650Y0105187D01*
X0166033Y0103973D02*
X0166650Y0103356D01*
X0166650Y0102121D01*
X0166033Y0101504D01*
X0164798Y0102121D02*
X0164798Y0103356D01*
X0165416Y0103973D01*
X0166033Y0103973D01*
X0164181Y0105187D02*
X0164181Y0105805D01*
X0163564Y0103973D02*
X0162947Y0103356D01*
X0162947Y0102121D01*
X0163564Y0101504D01*
X0164181Y0101504D01*
X0164798Y0102121D01*
X0157347Y0104577D02*
X0156730Y0104577D01*
X0164181Y0108260D02*
X0164181Y0110112D01*
X0162947Y0110112D02*
X0166650Y0110112D01*
X0166650Y0108260D01*
X0166033Y0107643D01*
X0164798Y0107643D01*
X0164181Y0108260D01*
X0161050Y0110715D02*
X0160433Y0110098D01*
X0159198Y0110098D01*
X0158581Y0110715D01*
X0158581Y0111950D01*
X0159198Y0112567D01*
X0159816Y0112567D01*
X0159816Y0110098D01*
X0161050Y0110715D02*
X0161050Y0111950D01*
X0164181Y0111943D02*
X0164181Y0113178D01*
X0164798Y0113795D01*
X0165416Y0113795D01*
X0165416Y0111326D01*
X0166033Y0111326D02*
X0164798Y0111326D01*
X0164181Y0111943D01*
X0166033Y0111326D02*
X0166650Y0111943D01*
X0166650Y0113178D01*
X0117074Y0105139D02*
X0115139Y0105139D01*
X0116107Y0105139D02*
X0116107Y0108041D01*
X0115139Y0107074D01*
X0114128Y0106590D02*
X0113644Y0106107D01*
X0112193Y0106107D01*
X0113160Y0106107D02*
X0114128Y0105139D01*
X0114128Y0106590D02*
X0114128Y0107558D01*
X0113644Y0108041D01*
X0112193Y0108041D01*
X0112193Y0105139D01*
X0067287Y0086226D02*
X0066636Y0086877D01*
X0065335Y0086877D01*
X0064685Y0086226D01*
X0063420Y0086226D02*
X0063420Y0084925D01*
X0062769Y0084275D01*
X0060817Y0084275D01*
X0059552Y0084275D02*
X0059552Y0086877D01*
X0060817Y0086877D02*
X0062769Y0086877D01*
X0063420Y0086226D01*
X0060817Y0086877D02*
X0060817Y0082974D01*
X0059552Y0084275D02*
X0058251Y0082974D01*
X0056950Y0084275D01*
X0056950Y0086877D01*
X0062118Y0084275D02*
X0063420Y0082974D01*
X0064685Y0082974D02*
X0067287Y0085576D01*
X0067287Y0086226D01*
X0067287Y0082974D02*
X0064685Y0082974D01*
X0251950Y0084275D02*
X0253251Y0082974D01*
X0254552Y0084275D01*
X0254552Y0086877D01*
X0255817Y0086877D02*
X0257769Y0086877D01*
X0258420Y0086226D01*
X0258420Y0084925D01*
X0257769Y0084275D01*
X0255817Y0084275D01*
X0255817Y0082974D02*
X0255817Y0086877D01*
X0251950Y0086877D02*
X0251950Y0084275D01*
X0257118Y0084275D02*
X0258420Y0082974D01*
X0259685Y0082974D02*
X0262287Y0082974D01*
X0260986Y0082974D02*
X0260986Y0086877D01*
X0259685Y0085576D01*
D12*
X0045337Y0086189D02*
X0044537Y0085389D01*
X0041334Y0088591D01*
X0044537Y0088591D01*
X0045337Y0087791D01*
X0045337Y0086189D01*
X0044537Y0085389D02*
X0041334Y0085389D01*
X0040533Y0086189D01*
X0040533Y0087791D01*
X0041334Y0088591D01*
X0042135Y0090453D02*
X0040533Y0092054D01*
X0045337Y0092054D01*
X0045337Y0090453D02*
X0045337Y0093656D01*
X0044537Y0095517D02*
X0045337Y0096318D01*
X0045337Y0097919D01*
X0044537Y0098720D01*
X0042935Y0098720D01*
X0042135Y0097919D01*
X0042135Y0097119D01*
X0042935Y0095517D01*
X0040533Y0095517D01*
X0040533Y0098720D01*
X0037913Y0097919D02*
X0037112Y0098720D01*
X0035510Y0098720D01*
X0034710Y0097919D01*
X0034710Y0096318D01*
X0035510Y0095517D01*
X0037112Y0095517D01*
X0037913Y0096318D01*
X0037913Y0097919D01*
X0037913Y0100582D02*
X0037913Y0102183D01*
X0037913Y0101382D02*
X0033108Y0101382D01*
X0033108Y0100582D01*
X0030487Y0099186D02*
X0030487Y0097584D01*
X0029687Y0096783D01*
X0028085Y0096783D01*
X0027285Y0097584D01*
X0027285Y0099186D01*
X0028085Y0099986D01*
X0028886Y0099986D01*
X0028886Y0096783D01*
X0023062Y0096783D02*
X0023062Y0098385D01*
X0023062Y0097584D02*
X0018258Y0097584D01*
X0018258Y0096783D02*
X0018258Y0098385D01*
X0019059Y0100160D02*
X0022262Y0100160D01*
X0023062Y0100960D01*
X0023062Y0102562D01*
X0022262Y0103362D01*
X0019059Y0103362D02*
X0018258Y0102562D01*
X0018258Y0100960D01*
X0019059Y0100160D01*
X0026484Y0102648D02*
X0029687Y0102648D01*
X0030487Y0103449D01*
X0027285Y0103449D02*
X0027285Y0101848D01*
X0030487Y0095009D02*
X0030487Y0093407D01*
X0030487Y0094208D02*
X0025683Y0094208D01*
X0025683Y0093407D01*
X0023062Y0093320D02*
X0018258Y0093320D01*
X0018258Y0091719D02*
X0018258Y0094922D01*
X0027285Y0090745D02*
X0028085Y0091546D01*
X0030487Y0091546D01*
X0030487Y0089944D02*
X0028085Y0089944D01*
X0027285Y0090745D01*
X0028085Y0089944D02*
X0027285Y0089144D01*
X0027285Y0088343D01*
X0030487Y0088343D01*
X0030487Y0086481D02*
X0030487Y0084079D01*
X0029687Y0083279D01*
X0028886Y0084079D01*
X0028886Y0086481D01*
X0028085Y0086481D02*
X0030487Y0086481D01*
X0028085Y0086481D02*
X0027285Y0085681D01*
X0027285Y0084079D01*
X0028085Y0081417D02*
X0028085Y0078214D01*
X0030487Y0078214D02*
X0025683Y0078214D01*
X0020660Y0079729D02*
X0020660Y0076526D01*
X0019059Y0074665D02*
X0018258Y0073864D01*
X0018258Y0072263D01*
X0019059Y0071462D01*
X0022262Y0071462D01*
X0023062Y0072263D01*
X0023062Y0073864D01*
X0022262Y0074665D01*
X0019059Y0074665D01*
X0027285Y0070488D02*
X0028085Y0071288D01*
X0030487Y0071288D01*
X0027285Y0070488D02*
X0027285Y0068886D01*
X0028085Y0068086D01*
X0027285Y0066224D02*
X0027285Y0063822D01*
X0028085Y0063021D01*
X0029687Y0063021D01*
X0030487Y0063822D01*
X0030487Y0066224D01*
X0030487Y0068086D02*
X0025683Y0068086D01*
X0020660Y0069600D02*
X0020660Y0066398D01*
X0020660Y0064536D02*
X0021461Y0063735D01*
X0021461Y0061333D01*
X0023062Y0061333D02*
X0018258Y0061333D01*
X0018258Y0063735D01*
X0019059Y0064536D01*
X0020660Y0064536D01*
X0024883Y0060446D02*
X0025683Y0060446D01*
X0027285Y0060446D02*
X0027285Y0059645D01*
X0027285Y0060446D02*
X0030487Y0060446D01*
X0030487Y0061246D02*
X0030487Y0059645D01*
X0029687Y0057784D02*
X0027285Y0057784D01*
X0029687Y0057784D02*
X0030487Y0056983D01*
X0029687Y0056182D01*
X0030487Y0055381D01*
X0029687Y0054581D01*
X0027285Y0054581D01*
X0030487Y0052806D02*
X0030487Y0051205D01*
X0030487Y0052005D02*
X0025683Y0052005D01*
X0025683Y0051205D01*
X0027285Y0049343D02*
X0030487Y0049343D01*
X0030487Y0046941D01*
X0029687Y0046140D01*
X0027285Y0046140D01*
X0023062Y0046140D02*
X0023062Y0049343D01*
X0023062Y0051205D02*
X0018258Y0051205D01*
X0018258Y0054407D01*
X0018258Y0056269D02*
X0023062Y0056269D01*
X0023062Y0059472D01*
X0020660Y0057870D02*
X0020660Y0056269D01*
X0018258Y0056269D02*
X0018258Y0059472D01*
X0023062Y0054407D02*
X0023062Y0051205D01*
X0020660Y0051205D02*
X0020660Y0052806D01*
X0032308Y0058336D02*
X0033108Y0058336D01*
X0034710Y0058336D02*
X0037913Y0058336D01*
X0037913Y0059136D02*
X0037913Y0057535D01*
X0037913Y0055673D02*
X0035510Y0055673D01*
X0034710Y0054873D01*
X0034710Y0052471D01*
X0037913Y0052471D01*
X0042135Y0053985D02*
X0045337Y0053985D01*
X0045337Y0051583D01*
X0044537Y0050783D01*
X0042135Y0050783D01*
X0037913Y0050609D02*
X0034710Y0050609D01*
X0037913Y0050609D02*
X0037913Y0048207D01*
X0037112Y0047406D01*
X0034710Y0047406D01*
X0033108Y0045545D02*
X0033108Y0043943D01*
X0033108Y0044744D02*
X0037112Y0044744D01*
X0037913Y0043943D01*
X0037913Y0043143D01*
X0037112Y0042342D01*
X0040533Y0046519D02*
X0041334Y0045718D01*
X0042135Y0045718D01*
X0042935Y0046519D01*
X0042935Y0048120D01*
X0043736Y0048921D01*
X0044537Y0048921D01*
X0045337Y0048120D01*
X0045337Y0046519D01*
X0044537Y0045718D01*
X0040533Y0046519D02*
X0040533Y0048120D01*
X0041334Y0048921D01*
X0030487Y0043478D02*
X0029687Y0044279D01*
X0026484Y0044279D01*
X0025683Y0043478D01*
X0025683Y0041076D01*
X0030487Y0041076D01*
X0030487Y0043478D01*
X0023062Y0043478D02*
X0023062Y0041076D01*
X0018258Y0041076D01*
X0018258Y0043478D01*
X0019059Y0044279D01*
X0019860Y0044279D01*
X0020660Y0043478D01*
X0020660Y0041076D01*
X0020660Y0043478D02*
X0021461Y0044279D01*
X0022262Y0044279D01*
X0023062Y0043478D01*
X0023062Y0046140D02*
X0018258Y0046140D01*
X0042135Y0055847D02*
X0042135Y0056648D01*
X0042935Y0057448D01*
X0042135Y0058249D01*
X0042935Y0059050D01*
X0045337Y0059050D01*
X0045337Y0057448D02*
X0042935Y0057448D01*
X0042135Y0055847D02*
X0045337Y0055847D01*
X0045337Y0060911D02*
X0042135Y0060911D01*
X0042135Y0061712D01*
X0042935Y0062513D01*
X0042135Y0063313D01*
X0042935Y0064114D01*
X0045337Y0064114D01*
X0045337Y0062513D02*
X0042935Y0062513D01*
X0037913Y0063313D02*
X0037112Y0064114D01*
X0035510Y0064114D01*
X0034710Y0063313D01*
X0034710Y0061712D01*
X0035510Y0060911D01*
X0037112Y0060911D01*
X0037913Y0061712D01*
X0037913Y0063313D01*
X0037913Y0065976D02*
X0034710Y0065976D01*
X0034710Y0067577D02*
X0034710Y0068378D01*
X0034710Y0067577D02*
X0036311Y0065976D01*
X0042135Y0066776D02*
X0042135Y0068378D01*
X0042935Y0069178D01*
X0043736Y0069178D01*
X0043736Y0065976D01*
X0042935Y0065976D02*
X0042135Y0066776D01*
X0042935Y0065976D02*
X0044537Y0065976D01*
X0045337Y0066776D01*
X0045337Y0068378D01*
X0045337Y0071040D02*
X0042135Y0071040D01*
X0043736Y0071040D02*
X0042135Y0072641D01*
X0042135Y0073442D01*
X0037913Y0076061D02*
X0037112Y0075260D01*
X0037913Y0076061D02*
X0037913Y0077662D01*
X0037112Y0078463D01*
X0036311Y0078463D01*
X0035510Y0077662D01*
X0035510Y0076061D01*
X0034710Y0075260D01*
X0033909Y0075260D01*
X0033108Y0076061D01*
X0033108Y0077662D01*
X0033909Y0078463D01*
X0035510Y0080324D02*
X0034710Y0081125D01*
X0034710Y0083527D01*
X0035510Y0085389D02*
X0034710Y0086189D01*
X0034710Y0087791D01*
X0035510Y0088591D01*
X0037913Y0088591D01*
X0037112Y0090453D02*
X0037913Y0091254D01*
X0037913Y0092855D01*
X0037112Y0093656D01*
X0035510Y0093656D01*
X0034710Y0092855D01*
X0034710Y0091254D01*
X0035510Y0090453D01*
X0037112Y0090453D01*
X0037913Y0085389D02*
X0033108Y0085389D01*
X0037913Y0083527D02*
X0037913Y0081125D01*
X0037112Y0080324D01*
X0035510Y0080324D01*
X0040533Y0081125D02*
X0040533Y0082726D01*
X0041334Y0083527D01*
X0042135Y0083527D01*
X0045337Y0080324D01*
X0045337Y0083527D01*
X0041334Y0080324D02*
X0040533Y0081125D01*
X0030487Y0081417D02*
X0025683Y0081417D01*
X0023062Y0081590D02*
X0018258Y0081590D01*
X0019860Y0083192D01*
X0018258Y0084793D01*
X0023062Y0084793D01*
X0023062Y0086655D02*
X0019860Y0086655D01*
X0018258Y0088256D01*
X0019860Y0089858D01*
X0023062Y0089858D01*
X0020660Y0089858D02*
X0020660Y0086655D01*
X0034710Y0058336D02*
X0034710Y0057535D01*
D13*
X0107367Y0062849D02*
X0107369Y0062762D01*
X0107375Y0062675D01*
X0107384Y0062588D01*
X0107397Y0062502D01*
X0107414Y0062416D01*
X0107435Y0062331D01*
X0107460Y0062248D01*
X0107488Y0062165D01*
X0107519Y0062084D01*
X0107554Y0062004D01*
X0107593Y0061926D01*
X0107635Y0061849D01*
X0107680Y0061774D01*
X0107729Y0061702D01*
X0107780Y0061631D01*
X0107835Y0061563D01*
X0107892Y0061498D01*
X0107953Y0061435D01*
X0108016Y0061374D01*
X0108081Y0061317D01*
X0108149Y0061262D01*
X0108220Y0061211D01*
X0108292Y0061162D01*
X0108367Y0061117D01*
X0108444Y0061075D01*
X0108522Y0061036D01*
X0108602Y0061001D01*
X0108683Y0060970D01*
X0108766Y0060942D01*
X0108849Y0060917D01*
X0108934Y0060896D01*
X0109020Y0060879D01*
X0109106Y0060866D01*
X0109193Y0060857D01*
X0109280Y0060851D01*
X0109367Y0060849D01*
X0114098Y0060698D02*
X0114185Y0060700D01*
X0114272Y0060706D01*
X0114359Y0060715D01*
X0114445Y0060728D01*
X0114531Y0060745D01*
X0114616Y0060766D01*
X0114699Y0060791D01*
X0114782Y0060819D01*
X0114863Y0060850D01*
X0114943Y0060885D01*
X0115021Y0060924D01*
X0115098Y0060966D01*
X0115173Y0061011D01*
X0115245Y0061060D01*
X0115316Y0061111D01*
X0115384Y0061166D01*
X0115449Y0061223D01*
X0115512Y0061284D01*
X0115573Y0061347D01*
X0115630Y0061412D01*
X0115685Y0061480D01*
X0115736Y0061551D01*
X0115785Y0061623D01*
X0115830Y0061698D01*
X0115872Y0061775D01*
X0115911Y0061853D01*
X0115946Y0061933D01*
X0115977Y0062014D01*
X0116005Y0062097D01*
X0116030Y0062180D01*
X0116051Y0062265D01*
X0116068Y0062351D01*
X0116081Y0062437D01*
X0116090Y0062524D01*
X0116096Y0062611D01*
X0116098Y0062698D01*
X0127367Y0062849D02*
X0127369Y0062762D01*
X0127375Y0062675D01*
X0127384Y0062588D01*
X0127397Y0062502D01*
X0127414Y0062416D01*
X0127435Y0062331D01*
X0127460Y0062248D01*
X0127488Y0062165D01*
X0127519Y0062084D01*
X0127554Y0062004D01*
X0127593Y0061926D01*
X0127635Y0061849D01*
X0127680Y0061774D01*
X0127729Y0061702D01*
X0127780Y0061631D01*
X0127835Y0061563D01*
X0127892Y0061498D01*
X0127953Y0061435D01*
X0128016Y0061374D01*
X0128081Y0061317D01*
X0128149Y0061262D01*
X0128220Y0061211D01*
X0128292Y0061162D01*
X0128367Y0061117D01*
X0128444Y0061075D01*
X0128522Y0061036D01*
X0128602Y0061001D01*
X0128683Y0060970D01*
X0128766Y0060942D01*
X0128849Y0060917D01*
X0128934Y0060896D01*
X0129020Y0060879D01*
X0129106Y0060866D01*
X0129193Y0060857D01*
X0129280Y0060851D01*
X0129367Y0060849D01*
X0134098Y0060698D02*
X0134185Y0060700D01*
X0134272Y0060706D01*
X0134359Y0060715D01*
X0134445Y0060728D01*
X0134531Y0060745D01*
X0134616Y0060766D01*
X0134699Y0060791D01*
X0134782Y0060819D01*
X0134863Y0060850D01*
X0134943Y0060885D01*
X0135021Y0060924D01*
X0135098Y0060966D01*
X0135173Y0061011D01*
X0135245Y0061060D01*
X0135316Y0061111D01*
X0135384Y0061166D01*
X0135449Y0061223D01*
X0135512Y0061284D01*
X0135573Y0061347D01*
X0135630Y0061412D01*
X0135685Y0061480D01*
X0135736Y0061551D01*
X0135785Y0061623D01*
X0135830Y0061698D01*
X0135872Y0061775D01*
X0135911Y0061853D01*
X0135946Y0061933D01*
X0135977Y0062014D01*
X0136005Y0062097D01*
X0136030Y0062180D01*
X0136051Y0062265D01*
X0136068Y0062351D01*
X0136081Y0062437D01*
X0136090Y0062524D01*
X0136096Y0062611D01*
X0136098Y0062698D01*
X0142631Y0046406D02*
X0142691Y0046404D01*
X0142752Y0046399D01*
X0142811Y0046390D01*
X0142870Y0046377D01*
X0142929Y0046361D01*
X0142986Y0046341D01*
X0143041Y0046318D01*
X0143096Y0046291D01*
X0143148Y0046262D01*
X0143199Y0046229D01*
X0143248Y0046193D01*
X0143294Y0046155D01*
X0143338Y0046113D01*
X0143380Y0046069D01*
X0143418Y0046023D01*
X0143454Y0045974D01*
X0143487Y0045923D01*
X0143516Y0045871D01*
X0143543Y0045816D01*
X0143566Y0045761D01*
X0143586Y0045704D01*
X0143602Y0045645D01*
X0143615Y0045586D01*
X0143624Y0045527D01*
X0143629Y0045466D01*
X0143631Y0045406D01*
X0143631Y0038800D01*
X0143629Y0038740D01*
X0143624Y0038679D01*
X0143615Y0038620D01*
X0143602Y0038561D01*
X0143586Y0038502D01*
X0143566Y0038445D01*
X0143543Y0038390D01*
X0143516Y0038335D01*
X0143487Y0038283D01*
X0143454Y0038232D01*
X0143418Y0038183D01*
X0143380Y0038137D01*
X0143338Y0038093D01*
X0143294Y0038051D01*
X0143248Y0038013D01*
X0143199Y0037977D01*
X0143148Y0037944D01*
X0143096Y0037915D01*
X0143041Y0037888D01*
X0142986Y0037865D01*
X0142929Y0037845D01*
X0142870Y0037829D01*
X0142811Y0037816D01*
X0142752Y0037807D01*
X0142691Y0037802D01*
X0142631Y0037800D01*
X0121826Y0037768D02*
X0119324Y0039436D01*
X0121826Y0041104D01*
X0119324Y0042772D02*
X0119324Y0037768D01*
X0117504Y0037768D02*
X0114168Y0037768D01*
X0117504Y0041104D01*
X0117504Y0041938D01*
X0116670Y0042772D01*
X0115002Y0042772D01*
X0114168Y0041938D01*
X0110225Y0038800D02*
X0110227Y0038740D01*
X0110232Y0038679D01*
X0110241Y0038620D01*
X0110254Y0038561D01*
X0110270Y0038502D01*
X0110290Y0038445D01*
X0110313Y0038390D01*
X0110340Y0038335D01*
X0110369Y0038283D01*
X0110402Y0038232D01*
X0110438Y0038183D01*
X0110476Y0038137D01*
X0110518Y0038093D01*
X0110562Y0038051D01*
X0110608Y0038013D01*
X0110657Y0037977D01*
X0110708Y0037944D01*
X0110760Y0037915D01*
X0110815Y0037888D01*
X0110870Y0037865D01*
X0110927Y0037845D01*
X0110986Y0037829D01*
X0111045Y0037816D01*
X0111104Y0037807D01*
X0111165Y0037802D01*
X0111225Y0037800D01*
X0110225Y0038800D02*
X0110225Y0045800D01*
X0110227Y0045860D01*
X0110232Y0045921D01*
X0110241Y0045980D01*
X0110254Y0046039D01*
X0110270Y0046098D01*
X0110290Y0046155D01*
X0110313Y0046210D01*
X0110340Y0046265D01*
X0110369Y0046317D01*
X0110402Y0046368D01*
X0110438Y0046417D01*
X0110476Y0046463D01*
X0110518Y0046507D01*
X0110562Y0046549D01*
X0110608Y0046587D01*
X0110657Y0046623D01*
X0110708Y0046656D01*
X0110760Y0046685D01*
X0110815Y0046712D01*
X0110870Y0046735D01*
X0110927Y0046755D01*
X0110986Y0046771D01*
X0111045Y0046784D01*
X0111104Y0046793D01*
X0111165Y0046798D01*
X0111225Y0046800D01*
X0107469Y0082868D02*
X0107471Y0082955D01*
X0107477Y0083042D01*
X0107486Y0083129D01*
X0107499Y0083215D01*
X0107516Y0083301D01*
X0107537Y0083386D01*
X0107562Y0083469D01*
X0107590Y0083552D01*
X0107621Y0083633D01*
X0107656Y0083713D01*
X0107695Y0083791D01*
X0107737Y0083868D01*
X0107782Y0083943D01*
X0107831Y0084015D01*
X0107882Y0084086D01*
X0107937Y0084154D01*
X0107994Y0084219D01*
X0108055Y0084282D01*
X0108118Y0084343D01*
X0108183Y0084400D01*
X0108251Y0084455D01*
X0108322Y0084506D01*
X0108394Y0084555D01*
X0108469Y0084600D01*
X0108546Y0084642D01*
X0108624Y0084681D01*
X0108704Y0084716D01*
X0108785Y0084747D01*
X0108868Y0084775D01*
X0108951Y0084800D01*
X0109036Y0084821D01*
X0109122Y0084838D01*
X0109208Y0084851D01*
X0109295Y0084860D01*
X0109382Y0084866D01*
X0109469Y0084868D01*
X0114165Y0084801D02*
X0114252Y0084799D01*
X0114339Y0084793D01*
X0114426Y0084784D01*
X0114512Y0084771D01*
X0114598Y0084754D01*
X0114683Y0084733D01*
X0114766Y0084708D01*
X0114849Y0084680D01*
X0114930Y0084649D01*
X0115010Y0084614D01*
X0115088Y0084575D01*
X0115165Y0084533D01*
X0115240Y0084488D01*
X0115312Y0084439D01*
X0115383Y0084388D01*
X0115451Y0084333D01*
X0115516Y0084276D01*
X0115579Y0084215D01*
X0115640Y0084152D01*
X0115697Y0084087D01*
X0115752Y0084019D01*
X0115803Y0083948D01*
X0115852Y0083876D01*
X0115897Y0083801D01*
X0115939Y0083724D01*
X0115978Y0083646D01*
X0116013Y0083566D01*
X0116044Y0083485D01*
X0116072Y0083402D01*
X0116097Y0083319D01*
X0116118Y0083234D01*
X0116135Y0083148D01*
X0116148Y0083062D01*
X0116157Y0082975D01*
X0116163Y0082888D01*
X0116165Y0082801D01*
X0127469Y0082868D02*
X0127471Y0082955D01*
X0127477Y0083042D01*
X0127486Y0083129D01*
X0127499Y0083215D01*
X0127516Y0083301D01*
X0127537Y0083386D01*
X0127562Y0083469D01*
X0127590Y0083552D01*
X0127621Y0083633D01*
X0127656Y0083713D01*
X0127695Y0083791D01*
X0127737Y0083868D01*
X0127782Y0083943D01*
X0127831Y0084015D01*
X0127882Y0084086D01*
X0127937Y0084154D01*
X0127994Y0084219D01*
X0128055Y0084282D01*
X0128118Y0084343D01*
X0128183Y0084400D01*
X0128251Y0084455D01*
X0128322Y0084506D01*
X0128394Y0084555D01*
X0128469Y0084600D01*
X0128546Y0084642D01*
X0128624Y0084681D01*
X0128704Y0084716D01*
X0128785Y0084747D01*
X0128868Y0084775D01*
X0128951Y0084800D01*
X0129036Y0084821D01*
X0129122Y0084838D01*
X0129208Y0084851D01*
X0129295Y0084860D01*
X0129382Y0084866D01*
X0129469Y0084868D01*
X0134165Y0084801D02*
X0134252Y0084799D01*
X0134339Y0084793D01*
X0134426Y0084784D01*
X0134512Y0084771D01*
X0134598Y0084754D01*
X0134683Y0084733D01*
X0134766Y0084708D01*
X0134849Y0084680D01*
X0134930Y0084649D01*
X0135010Y0084614D01*
X0135088Y0084575D01*
X0135165Y0084533D01*
X0135240Y0084488D01*
X0135312Y0084439D01*
X0135383Y0084388D01*
X0135451Y0084333D01*
X0135516Y0084276D01*
X0135579Y0084215D01*
X0135640Y0084152D01*
X0135697Y0084087D01*
X0135752Y0084019D01*
X0135803Y0083948D01*
X0135852Y0083876D01*
X0135897Y0083801D01*
X0135939Y0083724D01*
X0135978Y0083646D01*
X0136013Y0083566D01*
X0136044Y0083485D01*
X0136072Y0083402D01*
X0136097Y0083319D01*
X0136118Y0083234D01*
X0136135Y0083148D01*
X0136148Y0083062D01*
X0136157Y0082975D01*
X0136163Y0082888D01*
X0136165Y0082801D01*
X0142631Y0098800D02*
X0142691Y0098802D01*
X0142752Y0098807D01*
X0142811Y0098816D01*
X0142870Y0098829D01*
X0142929Y0098845D01*
X0142986Y0098865D01*
X0143041Y0098888D01*
X0143096Y0098915D01*
X0143148Y0098944D01*
X0143199Y0098977D01*
X0143248Y0099013D01*
X0143294Y0099051D01*
X0143338Y0099093D01*
X0143380Y0099137D01*
X0143418Y0099183D01*
X0143454Y0099232D01*
X0143487Y0099283D01*
X0143516Y0099335D01*
X0143543Y0099390D01*
X0143566Y0099445D01*
X0143586Y0099502D01*
X0143602Y0099561D01*
X0143615Y0099620D01*
X0143624Y0099679D01*
X0143629Y0099740D01*
X0143631Y0099800D01*
X0143631Y0106406D01*
X0143629Y0106466D01*
X0143624Y0106527D01*
X0143615Y0106586D01*
X0143602Y0106645D01*
X0143586Y0106704D01*
X0143566Y0106761D01*
X0143543Y0106816D01*
X0143516Y0106871D01*
X0143487Y0106923D01*
X0143454Y0106974D01*
X0143418Y0107023D01*
X0143380Y0107069D01*
X0143338Y0107113D01*
X0143294Y0107155D01*
X0143248Y0107193D01*
X0143199Y0107229D01*
X0143148Y0107262D01*
X0143096Y0107291D01*
X0143041Y0107318D01*
X0142986Y0107341D01*
X0142929Y0107361D01*
X0142870Y0107377D01*
X0142811Y0107390D01*
X0142752Y0107399D01*
X0142691Y0107404D01*
X0142631Y0107406D01*
X0121826Y0102104D02*
X0119324Y0100436D01*
X0121826Y0098768D01*
X0119324Y0098768D02*
X0119324Y0103772D01*
X0115836Y0103772D02*
X0115836Y0098768D01*
X0114168Y0098768D02*
X0117504Y0098768D01*
X0111225Y0098800D02*
X0111165Y0098802D01*
X0111104Y0098807D01*
X0111045Y0098816D01*
X0110986Y0098829D01*
X0110927Y0098845D01*
X0110870Y0098865D01*
X0110815Y0098888D01*
X0110760Y0098915D01*
X0110708Y0098944D01*
X0110657Y0098977D01*
X0110608Y0099013D01*
X0110562Y0099051D01*
X0110518Y0099093D01*
X0110476Y0099137D01*
X0110438Y0099183D01*
X0110402Y0099232D01*
X0110369Y0099283D01*
X0110340Y0099335D01*
X0110313Y0099390D01*
X0110290Y0099445D01*
X0110270Y0099502D01*
X0110254Y0099561D01*
X0110241Y0099620D01*
X0110232Y0099679D01*
X0110227Y0099740D01*
X0110225Y0099800D01*
X0110225Y0106800D01*
X0110227Y0106860D01*
X0110232Y0106921D01*
X0110241Y0106980D01*
X0110254Y0107039D01*
X0110270Y0107098D01*
X0110290Y0107155D01*
X0110313Y0107210D01*
X0110340Y0107265D01*
X0110369Y0107317D01*
X0110402Y0107368D01*
X0110438Y0107417D01*
X0110476Y0107463D01*
X0110518Y0107507D01*
X0110562Y0107549D01*
X0110608Y0107587D01*
X0110657Y0107623D01*
X0110708Y0107656D01*
X0110760Y0107685D01*
X0110815Y0107712D01*
X0110870Y0107735D01*
X0110927Y0107755D01*
X0110986Y0107771D01*
X0111045Y0107784D01*
X0111104Y0107793D01*
X0111165Y0107798D01*
X0111225Y0107800D01*
X0115836Y0103772D02*
X0114168Y0102104D01*
X0302719Y0085036D02*
X0304187Y0086504D01*
X0304187Y0082100D01*
X0302719Y0082100D02*
X0305655Y0082100D01*
X0307323Y0082834D02*
X0310259Y0085770D01*
X0310259Y0082834D01*
X0309525Y0082100D01*
X0308057Y0082100D01*
X0307323Y0082834D01*
X0307323Y0085770D01*
X0308057Y0086504D01*
X0309525Y0086504D01*
X0310259Y0085770D01*
X0311927Y0085036D02*
X0311927Y0082834D01*
X0312661Y0082100D01*
X0314863Y0082100D01*
X0314863Y0085036D01*
X0316531Y0084302D02*
X0317999Y0084302D01*
X0317265Y0085770D02*
X0317265Y0082100D01*
X0316698Y0079004D02*
X0315230Y0079004D01*
X0314496Y0078270D01*
X0312828Y0078270D02*
X0312094Y0079004D01*
X0310626Y0079004D01*
X0309892Y0078270D01*
X0309892Y0075334D01*
X0310626Y0074600D01*
X0312094Y0074600D01*
X0312828Y0075334D01*
X0314496Y0074600D02*
X0317432Y0077536D01*
X0317432Y0078270D01*
X0316698Y0079004D01*
X0317432Y0074600D02*
X0314496Y0074600D01*
X0304457Y0071300D02*
X0304460Y0071542D01*
X0304469Y0071783D01*
X0304484Y0072024D01*
X0304504Y0072265D01*
X0304531Y0072505D01*
X0304564Y0072744D01*
X0304602Y0072983D01*
X0304646Y0073220D01*
X0304696Y0073457D01*
X0304752Y0073692D01*
X0304814Y0073925D01*
X0304881Y0074157D01*
X0304954Y0074388D01*
X0305032Y0074616D01*
X0305117Y0074842D01*
X0305206Y0075067D01*
X0305301Y0075289D01*
X0305402Y0075508D01*
X0305508Y0075726D01*
X0305619Y0075940D01*
X0305736Y0076152D01*
X0305857Y0076360D01*
X0305984Y0076566D01*
X0306116Y0076768D01*
X0306253Y0076968D01*
X0306394Y0077163D01*
X0306540Y0077356D01*
X0306691Y0077544D01*
X0306847Y0077729D01*
X0307007Y0077910D01*
X0307171Y0078087D01*
X0307340Y0078260D01*
X0307513Y0078429D01*
X0307690Y0078593D01*
X0307871Y0078753D01*
X0308056Y0078909D01*
X0308244Y0079060D01*
X0308437Y0079206D01*
X0308632Y0079347D01*
X0308832Y0079484D01*
X0309034Y0079616D01*
X0309240Y0079743D01*
X0309448Y0079864D01*
X0309660Y0079981D01*
X0309874Y0080092D01*
X0310092Y0080198D01*
X0310311Y0080299D01*
X0310533Y0080394D01*
X0310758Y0080483D01*
X0310984Y0080568D01*
X0311212Y0080646D01*
X0311443Y0080719D01*
X0311675Y0080786D01*
X0311908Y0080848D01*
X0312143Y0080904D01*
X0312380Y0080954D01*
X0312617Y0080998D01*
X0312856Y0081036D01*
X0313095Y0081069D01*
X0313335Y0081096D01*
X0313576Y0081116D01*
X0313817Y0081131D01*
X0314058Y0081140D01*
X0314300Y0081143D01*
X0314542Y0081140D01*
X0314783Y0081131D01*
X0315024Y0081116D01*
X0315265Y0081096D01*
X0315505Y0081069D01*
X0315744Y0081036D01*
X0315983Y0080998D01*
X0316220Y0080954D01*
X0316457Y0080904D01*
X0316692Y0080848D01*
X0316925Y0080786D01*
X0317157Y0080719D01*
X0317388Y0080646D01*
X0317616Y0080568D01*
X0317842Y0080483D01*
X0318067Y0080394D01*
X0318289Y0080299D01*
X0318508Y0080198D01*
X0318726Y0080092D01*
X0318940Y0079981D01*
X0319152Y0079864D01*
X0319360Y0079743D01*
X0319566Y0079616D01*
X0319768Y0079484D01*
X0319968Y0079347D01*
X0320163Y0079206D01*
X0320356Y0079060D01*
X0320544Y0078909D01*
X0320729Y0078753D01*
X0320910Y0078593D01*
X0321087Y0078429D01*
X0321260Y0078260D01*
X0321429Y0078087D01*
X0321593Y0077910D01*
X0321753Y0077729D01*
X0321909Y0077544D01*
X0322060Y0077356D01*
X0322206Y0077163D01*
X0322347Y0076968D01*
X0322484Y0076768D01*
X0322616Y0076566D01*
X0322743Y0076360D01*
X0322864Y0076152D01*
X0322981Y0075940D01*
X0323092Y0075726D01*
X0323198Y0075508D01*
X0323299Y0075289D01*
X0323394Y0075067D01*
X0323483Y0074842D01*
X0323568Y0074616D01*
X0323646Y0074388D01*
X0323719Y0074157D01*
X0323786Y0073925D01*
X0323848Y0073692D01*
X0323904Y0073457D01*
X0323954Y0073220D01*
X0323998Y0072983D01*
X0324036Y0072744D01*
X0324069Y0072505D01*
X0324096Y0072265D01*
X0324116Y0072024D01*
X0324131Y0071783D01*
X0324140Y0071542D01*
X0324143Y0071300D01*
X0324140Y0071058D01*
X0324131Y0070817D01*
X0324116Y0070576D01*
X0324096Y0070335D01*
X0324069Y0070095D01*
X0324036Y0069856D01*
X0323998Y0069617D01*
X0323954Y0069380D01*
X0323904Y0069143D01*
X0323848Y0068908D01*
X0323786Y0068675D01*
X0323719Y0068443D01*
X0323646Y0068212D01*
X0323568Y0067984D01*
X0323483Y0067758D01*
X0323394Y0067533D01*
X0323299Y0067311D01*
X0323198Y0067092D01*
X0323092Y0066874D01*
X0322981Y0066660D01*
X0322864Y0066448D01*
X0322743Y0066240D01*
X0322616Y0066034D01*
X0322484Y0065832D01*
X0322347Y0065632D01*
X0322206Y0065437D01*
X0322060Y0065244D01*
X0321909Y0065056D01*
X0321753Y0064871D01*
X0321593Y0064690D01*
X0321429Y0064513D01*
X0321260Y0064340D01*
X0321087Y0064171D01*
X0320910Y0064007D01*
X0320729Y0063847D01*
X0320544Y0063691D01*
X0320356Y0063540D01*
X0320163Y0063394D01*
X0319968Y0063253D01*
X0319768Y0063116D01*
X0319566Y0062984D01*
X0319360Y0062857D01*
X0319152Y0062736D01*
X0318940Y0062619D01*
X0318726Y0062508D01*
X0318508Y0062402D01*
X0318289Y0062301D01*
X0318067Y0062206D01*
X0317842Y0062117D01*
X0317616Y0062032D01*
X0317388Y0061954D01*
X0317157Y0061881D01*
X0316925Y0061814D01*
X0316692Y0061752D01*
X0316457Y0061696D01*
X0316220Y0061646D01*
X0315983Y0061602D01*
X0315744Y0061564D01*
X0315505Y0061531D01*
X0315265Y0061504D01*
X0315024Y0061484D01*
X0314783Y0061469D01*
X0314542Y0061460D01*
X0314300Y0061457D01*
X0314058Y0061460D01*
X0313817Y0061469D01*
X0313576Y0061484D01*
X0313335Y0061504D01*
X0313095Y0061531D01*
X0312856Y0061564D01*
X0312617Y0061602D01*
X0312380Y0061646D01*
X0312143Y0061696D01*
X0311908Y0061752D01*
X0311675Y0061814D01*
X0311443Y0061881D01*
X0311212Y0061954D01*
X0310984Y0062032D01*
X0310758Y0062117D01*
X0310533Y0062206D01*
X0310311Y0062301D01*
X0310092Y0062402D01*
X0309874Y0062508D01*
X0309660Y0062619D01*
X0309448Y0062736D01*
X0309240Y0062857D01*
X0309034Y0062984D01*
X0308832Y0063116D01*
X0308632Y0063253D01*
X0308437Y0063394D01*
X0308244Y0063540D01*
X0308056Y0063691D01*
X0307871Y0063847D01*
X0307690Y0064007D01*
X0307513Y0064171D01*
X0307340Y0064340D01*
X0307171Y0064513D01*
X0307007Y0064690D01*
X0306847Y0064871D01*
X0306691Y0065056D01*
X0306540Y0065244D01*
X0306394Y0065437D01*
X0306253Y0065632D01*
X0306116Y0065832D01*
X0305984Y0066034D01*
X0305857Y0066240D01*
X0305736Y0066448D01*
X0305619Y0066660D01*
X0305508Y0066874D01*
X0305402Y0067092D01*
X0305301Y0067311D01*
X0305206Y0067533D01*
X0305117Y0067758D01*
X0305032Y0067984D01*
X0304954Y0068212D01*
X0304881Y0068443D01*
X0304814Y0068675D01*
X0304752Y0068908D01*
X0304696Y0069143D01*
X0304646Y0069380D01*
X0304602Y0069617D01*
X0304564Y0069856D01*
X0304531Y0070095D01*
X0304504Y0070335D01*
X0304484Y0070576D01*
X0304469Y0070817D01*
X0304460Y0071058D01*
X0304457Y0071300D01*
X0318800Y0067200D02*
X0318800Y0064700D01*
X0317500Y0065900D02*
X0320100Y0065900D01*
X0317265Y0085770D02*
X0317999Y0086504D01*
D14*
X0261208Y0062628D02*
X0261208Y0058024D01*
X0261208Y0059558D02*
X0263510Y0061093D01*
X0261208Y0059558D02*
X0263510Y0058024D01*
X0259673Y0058791D02*
X0258906Y0058024D01*
X0257371Y0058024D01*
X0256604Y0058791D01*
X0259673Y0061860D01*
X0259673Y0058791D01*
X0256604Y0058791D02*
X0256604Y0061860D01*
X0257371Y0062628D01*
X0258906Y0062628D01*
X0259673Y0061860D01*
X0255069Y0062628D02*
X0252000Y0062628D01*
X0252000Y0060326D01*
X0253535Y0061093D01*
X0254302Y0061093D01*
X0255069Y0060326D01*
X0255069Y0058791D01*
X0254302Y0058024D01*
X0252767Y0058024D01*
X0252000Y0058791D01*
X0135628Y0065746D02*
X0135628Y0068148D01*
X0135628Y0066947D02*
X0132025Y0066947D01*
X0133226Y0065746D01*
X0130415Y0066413D02*
X0130415Y0067614D01*
X0129814Y0068215D01*
X0129814Y0069496D02*
X0130415Y0070097D01*
X0130415Y0071298D01*
X0129814Y0071898D01*
X0129214Y0071898D01*
X0128613Y0071298D01*
X0128613Y0070697D01*
X0128613Y0071298D02*
X0128013Y0071898D01*
X0127412Y0071898D01*
X0126812Y0071298D01*
X0126812Y0070097D01*
X0127412Y0069496D01*
X0127412Y0068215D02*
X0126812Y0067614D01*
X0126812Y0066413D01*
X0127412Y0065813D01*
X0129814Y0065813D01*
X0130415Y0066413D01*
X0132625Y0069429D02*
X0132025Y0070029D01*
X0132025Y0071230D01*
X0132625Y0071831D01*
X0135027Y0069429D01*
X0135628Y0070029D01*
X0135628Y0071230D01*
X0135027Y0071831D01*
X0132625Y0071831D01*
X0132625Y0073112D02*
X0132025Y0073712D01*
X0132025Y0074913D01*
X0132625Y0075514D01*
X0135027Y0073112D01*
X0135628Y0073712D01*
X0135628Y0074913D01*
X0135027Y0075514D01*
X0132625Y0075514D01*
X0133226Y0076795D02*
X0133226Y0078597D01*
X0133826Y0079197D01*
X0135628Y0079197D01*
X0135628Y0076795D02*
X0133226Y0076795D01*
X0132625Y0073112D02*
X0135027Y0073112D01*
X0135027Y0069429D02*
X0132625Y0069429D01*
X0115628Y0070029D02*
X0115027Y0069429D01*
X0112625Y0071831D01*
X0115027Y0071831D01*
X0115628Y0071230D01*
X0115628Y0070029D01*
X0115027Y0069429D02*
X0112625Y0069429D01*
X0112025Y0070029D01*
X0112025Y0071230D01*
X0112625Y0071831D01*
X0112625Y0073112D02*
X0112025Y0073712D01*
X0112025Y0074913D01*
X0112625Y0075514D01*
X0115027Y0073112D01*
X0115628Y0073712D01*
X0115628Y0074913D01*
X0115027Y0075514D01*
X0112625Y0075514D01*
X0113226Y0076795D02*
X0113226Y0078597D01*
X0113826Y0079197D01*
X0115628Y0079197D01*
X0115628Y0076795D02*
X0113226Y0076795D01*
X0112625Y0073112D02*
X0115027Y0073112D01*
X0110415Y0071898D02*
X0110415Y0069496D01*
X0110415Y0070697D02*
X0106812Y0070697D01*
X0108013Y0069496D01*
X0107412Y0068215D02*
X0106812Y0067614D01*
X0106812Y0066413D01*
X0107412Y0065813D01*
X0109814Y0065813D01*
X0110415Y0066413D01*
X0110415Y0067614D01*
X0109814Y0068215D01*
X0112025Y0066947D02*
X0115628Y0066947D01*
X0115628Y0065746D02*
X0115628Y0068148D01*
X0113226Y0065746D02*
X0112025Y0066947D01*
X0068510Y0061093D02*
X0066208Y0059558D01*
X0068510Y0058024D01*
X0066208Y0058024D02*
X0066208Y0062628D01*
X0064673Y0061860D02*
X0061604Y0058791D01*
X0062371Y0058024D01*
X0063906Y0058024D01*
X0064673Y0058791D01*
X0064673Y0061860D01*
X0063906Y0062628D01*
X0062371Y0062628D01*
X0061604Y0061860D01*
X0061604Y0058791D01*
X0060069Y0058791D02*
X0059302Y0058024D01*
X0057767Y0058024D01*
X0057000Y0058791D01*
X0057000Y0060326D02*
X0058535Y0061093D01*
X0059302Y0061093D01*
X0060069Y0060326D01*
X0060069Y0058791D01*
X0057000Y0060326D02*
X0057000Y0062628D01*
X0060069Y0062628D01*
D15*
X0053493Y0064359D02*
X0053493Y0051761D01*
X0055658Y0051761D01*
X0055658Y0049595D01*
X0087942Y0049595D01*
X0087942Y0051761D01*
X0090107Y0051761D01*
X0090107Y0064359D01*
X0090107Y0083257D02*
X0090107Y0091918D01*
X0087942Y0091918D01*
X0087942Y0094083D01*
X0055658Y0094083D01*
X0055658Y0091918D01*
X0053493Y0091918D01*
X0053493Y0083257D01*
X0205300Y0085500D02*
X0205300Y0088100D01*
X0205300Y0095500D02*
X0205300Y0098100D01*
X0205300Y0105800D02*
X0205300Y0106800D01*
X0212800Y0106800D01*
X0212802Y0106674D01*
X0212808Y0106549D01*
X0212818Y0106424D01*
X0212832Y0106299D01*
X0212849Y0106174D01*
X0212871Y0106050D01*
X0212896Y0105927D01*
X0212926Y0105805D01*
X0212959Y0105684D01*
X0212996Y0105564D01*
X0213036Y0105445D01*
X0213081Y0105328D01*
X0213129Y0105211D01*
X0213181Y0105097D01*
X0213236Y0104984D01*
X0213295Y0104873D01*
X0213357Y0104764D01*
X0213423Y0104657D01*
X0213492Y0104552D01*
X0213564Y0104449D01*
X0213639Y0104348D01*
X0213718Y0104250D01*
X0213800Y0104155D01*
X0213884Y0104062D01*
X0213972Y0103972D01*
X0214062Y0103884D01*
X0214155Y0103800D01*
X0214250Y0103718D01*
X0214348Y0103639D01*
X0214449Y0103564D01*
X0214552Y0103492D01*
X0214657Y0103423D01*
X0214764Y0103357D01*
X0214873Y0103295D01*
X0214984Y0103236D01*
X0215097Y0103181D01*
X0215211Y0103129D01*
X0215328Y0103081D01*
X0215445Y0103036D01*
X0215564Y0102996D01*
X0215684Y0102959D01*
X0215805Y0102926D01*
X0215927Y0102896D01*
X0216050Y0102871D01*
X0216174Y0102849D01*
X0216299Y0102832D01*
X0216424Y0102818D01*
X0216549Y0102808D01*
X0216674Y0102802D01*
X0216800Y0102800D01*
X0216926Y0102802D01*
X0217051Y0102808D01*
X0217176Y0102818D01*
X0217301Y0102832D01*
X0217426Y0102849D01*
X0217550Y0102871D01*
X0217673Y0102896D01*
X0217795Y0102926D01*
X0217916Y0102959D01*
X0218036Y0102996D01*
X0218155Y0103036D01*
X0218272Y0103081D01*
X0218389Y0103129D01*
X0218503Y0103181D01*
X0218616Y0103236D01*
X0218727Y0103295D01*
X0218836Y0103357D01*
X0218943Y0103423D01*
X0219048Y0103492D01*
X0219151Y0103564D01*
X0219252Y0103639D01*
X0219350Y0103718D01*
X0219445Y0103800D01*
X0219538Y0103884D01*
X0219628Y0103972D01*
X0219716Y0104062D01*
X0219800Y0104155D01*
X0219882Y0104250D01*
X0219961Y0104348D01*
X0220036Y0104449D01*
X0220108Y0104552D01*
X0220177Y0104657D01*
X0220243Y0104764D01*
X0220305Y0104873D01*
X0220364Y0104984D01*
X0220419Y0105097D01*
X0220471Y0105211D01*
X0220519Y0105328D01*
X0220564Y0105445D01*
X0220604Y0105564D01*
X0220641Y0105684D01*
X0220674Y0105805D01*
X0220704Y0105927D01*
X0220729Y0106050D01*
X0220751Y0106174D01*
X0220768Y0106299D01*
X0220782Y0106424D01*
X0220792Y0106549D01*
X0220798Y0106674D01*
X0220800Y0106800D01*
X0228300Y0106800D01*
X0228300Y0105800D01*
X0228300Y0098100D02*
X0228300Y0095500D01*
X0228300Y0088100D02*
X0228300Y0085500D01*
X0228300Y0078100D02*
X0228300Y0075500D01*
X0228300Y0068100D02*
X0228300Y0065500D01*
X0228300Y0058100D02*
X0228300Y0055500D01*
X0228300Y0048100D02*
X0228300Y0045500D01*
X0228300Y0037800D02*
X0228300Y0036800D01*
X0205300Y0036800D01*
X0205300Y0037800D01*
X0205300Y0045500D02*
X0205300Y0048100D01*
X0205300Y0055500D02*
X0205300Y0058100D01*
X0205300Y0065500D02*
X0205300Y0068100D01*
X0205300Y0075500D02*
X0205300Y0078100D01*
X0248493Y0083257D02*
X0248493Y0091918D01*
X0250658Y0091918D01*
X0250658Y0094083D01*
X0282942Y0094083D01*
X0282942Y0091918D01*
X0285107Y0091918D01*
X0285107Y0083257D01*
X0285107Y0064359D02*
X0285107Y0051761D01*
X0282942Y0051761D01*
X0282942Y0049595D01*
X0250658Y0049595D01*
X0250658Y0051761D01*
X0248493Y0051761D01*
X0248493Y0064359D01*
X0313926Y0027674D02*
X0329674Y0027674D01*
X0336170Y0023737D02*
X0336170Y0011926D01*
X0307430Y0011926D01*
X0307430Y0023737D01*
D16*
X0312801Y0035050D02*
X0312050Y0035801D01*
X0312801Y0035050D02*
X0314302Y0035050D01*
X0315053Y0035801D01*
X0315053Y0036551D01*
X0314302Y0037302D01*
X0312801Y0037302D01*
X0312050Y0038053D01*
X0312050Y0038803D01*
X0312801Y0039554D01*
X0314302Y0039554D01*
X0315053Y0038803D01*
X0316654Y0038803D02*
X0317405Y0039554D01*
X0318906Y0039554D01*
X0319656Y0038803D01*
X0319656Y0038053D01*
X0316654Y0035050D01*
X0319656Y0035050D01*
X0224050Y0064426D02*
X0219546Y0064426D01*
X0224050Y0067429D01*
X0219546Y0067429D01*
X0219546Y0069030D02*
X0224050Y0069030D01*
X0224050Y0072033D01*
X0221798Y0070532D02*
X0221798Y0069030D01*
X0219546Y0069030D02*
X0219546Y0072033D01*
X0221798Y0073634D02*
X0221798Y0076637D01*
X0221798Y0078238D02*
X0219546Y0078238D01*
X0219546Y0081241D01*
X0219546Y0082842D02*
X0221798Y0082842D01*
X0221047Y0084343D01*
X0221047Y0085094D01*
X0221798Y0085845D01*
X0223299Y0085845D01*
X0224050Y0085094D01*
X0224050Y0083593D01*
X0223299Y0082842D01*
X0223299Y0081241D02*
X0224050Y0080490D01*
X0224050Y0078989D01*
X0223299Y0078238D01*
X0221798Y0078238D02*
X0221047Y0079739D01*
X0221047Y0080490D01*
X0221798Y0081241D01*
X0223299Y0081241D01*
X0219546Y0082842D02*
X0219546Y0085845D01*
X0221798Y0087446D02*
X0221798Y0089698D01*
X0222549Y0090449D01*
X0223299Y0090449D01*
X0224050Y0089698D01*
X0224050Y0088197D01*
X0223299Y0087446D01*
X0221798Y0087446D01*
X0220297Y0088947D01*
X0219546Y0090449D01*
X0159359Y0071761D02*
X0159459Y0072001D01*
X0159564Y0072239D01*
X0159676Y0072475D01*
X0159793Y0072707D01*
X0159915Y0072936D01*
X0160043Y0073163D01*
X0160177Y0073386D01*
X0160316Y0073606D01*
X0160461Y0073822D01*
X0160611Y0074035D01*
X0160766Y0074244D01*
X0160926Y0074449D01*
X0161091Y0074650D01*
X0161261Y0074847D01*
X0161436Y0075040D01*
X0161615Y0075228D01*
X0161799Y0075412D01*
X0161987Y0075591D01*
X0162180Y0075766D01*
X0162377Y0075936D01*
X0162578Y0076101D01*
X0162784Y0076261D01*
X0162992Y0076416D01*
X0163205Y0076566D01*
X0163422Y0076710D01*
X0163641Y0076850D01*
X0163865Y0076983D01*
X0164091Y0077112D01*
X0164320Y0077234D01*
X0164553Y0077351D01*
X0164788Y0077462D01*
X0165026Y0077568D01*
X0165266Y0077667D01*
X0165509Y0077761D01*
X0165754Y0077849D01*
X0166001Y0077930D01*
X0166250Y0078006D01*
X0166501Y0078075D01*
X0166753Y0078138D01*
X0167007Y0078195D01*
X0167262Y0078246D01*
X0167518Y0078290D01*
X0167776Y0078329D01*
X0168034Y0078360D01*
X0168293Y0078386D01*
X0168552Y0078405D01*
X0168812Y0078418D01*
X0169072Y0078424D01*
X0169333Y0078424D01*
X0169593Y0078418D01*
X0169853Y0078405D01*
X0170112Y0078386D01*
X0170371Y0078360D01*
X0170629Y0078329D01*
X0170886Y0078290D01*
X0171143Y0078246D01*
X0171398Y0078195D01*
X0171652Y0078138D01*
X0171904Y0078075D01*
X0172155Y0078005D01*
X0172404Y0077930D01*
X0172651Y0077848D01*
X0172896Y0077761D01*
X0173139Y0077667D01*
X0173379Y0077567D01*
X0173617Y0077462D01*
X0173852Y0077351D01*
X0174084Y0077234D01*
X0174314Y0077111D01*
X0174540Y0076983D01*
X0174763Y0076849D01*
X0174983Y0076710D01*
X0175200Y0076565D01*
X0175412Y0076415D01*
X0175621Y0076260D01*
X0175826Y0076100D01*
X0176027Y0075935D01*
X0176224Y0075765D01*
X0176417Y0075591D01*
X0176606Y0075411D01*
X0176790Y0075227D01*
X0176969Y0075039D01*
X0177144Y0074846D01*
X0177314Y0074649D01*
X0177479Y0074448D01*
X0177639Y0074243D01*
X0177794Y0074034D01*
X0177944Y0073821D01*
X0178088Y0073605D01*
X0178227Y0073385D01*
X0178361Y0073162D01*
X0178489Y0072935D01*
X0178612Y0072706D01*
X0178729Y0072474D01*
X0178840Y0072238D01*
X0178946Y0072001D01*
X0179045Y0071760D01*
X0179139Y0071517D01*
X0179226Y0071273D01*
X0179308Y0071025D01*
X0179384Y0070777D01*
X0179453Y0070526D01*
X0179516Y0070273D01*
X0179573Y0070020D01*
X0179624Y0069764D01*
X0179668Y0069508D01*
X0179707Y0069251D01*
X0179738Y0068992D01*
X0179764Y0068734D01*
X0179783Y0068474D01*
X0179796Y0068214D01*
X0179802Y0067954D01*
X0179802Y0067694D01*
X0179796Y0067434D01*
X0179783Y0067174D01*
X0179764Y0066914D01*
X0179738Y0066656D01*
X0179707Y0066397D01*
X0179668Y0066140D01*
X0179624Y0065884D01*
X0179573Y0065628D01*
X0179516Y0065375D01*
X0179453Y0065122D01*
X0179384Y0064871D01*
X0179308Y0064623D01*
X0179226Y0064375D01*
X0179139Y0064131D01*
X0179045Y0063888D01*
X0178946Y0063647D01*
X0178840Y0063410D01*
X0178729Y0063174D01*
X0178612Y0062942D01*
X0178489Y0062713D01*
X0178361Y0062486D01*
X0178227Y0062263D01*
X0178088Y0062043D01*
X0177944Y0061827D01*
X0177794Y0061614D01*
X0177639Y0061405D01*
X0177479Y0061200D01*
X0177314Y0060999D01*
X0177144Y0060802D01*
X0176969Y0060609D01*
X0176790Y0060421D01*
X0176606Y0060237D01*
X0176417Y0060057D01*
X0176224Y0059883D01*
X0176027Y0059713D01*
X0175826Y0059548D01*
X0175621Y0059388D01*
X0175412Y0059233D01*
X0175200Y0059083D01*
X0174983Y0058938D01*
X0174763Y0058799D01*
X0174540Y0058665D01*
X0174314Y0058537D01*
X0174084Y0058414D01*
X0173852Y0058297D01*
X0173617Y0058186D01*
X0173379Y0058081D01*
X0173139Y0057981D01*
X0172896Y0057887D01*
X0172651Y0057800D01*
X0172404Y0057718D01*
X0172155Y0057643D01*
X0171904Y0057573D01*
X0171652Y0057510D01*
X0171398Y0057453D01*
X0171143Y0057402D01*
X0170886Y0057358D01*
X0170629Y0057319D01*
X0170371Y0057288D01*
X0170112Y0057262D01*
X0169853Y0057243D01*
X0169593Y0057230D01*
X0169333Y0057224D01*
X0169072Y0057224D01*
X0168812Y0057230D01*
X0168552Y0057243D01*
X0168293Y0057262D01*
X0168034Y0057288D01*
X0167776Y0057319D01*
X0167518Y0057358D01*
X0167262Y0057402D01*
X0167007Y0057453D01*
X0166753Y0057510D01*
X0166501Y0057573D01*
X0166250Y0057642D01*
X0166001Y0057718D01*
X0165754Y0057799D01*
X0165509Y0057887D01*
X0165266Y0057981D01*
X0165026Y0058080D01*
X0164788Y0058186D01*
X0164553Y0058297D01*
X0164320Y0058414D01*
X0164091Y0058536D01*
X0163865Y0058665D01*
X0163641Y0058798D01*
X0163422Y0058938D01*
X0163205Y0059082D01*
X0162992Y0059232D01*
X0162784Y0059387D01*
X0162578Y0059547D01*
X0162377Y0059712D01*
X0162180Y0059882D01*
X0161987Y0060057D01*
X0161799Y0060236D01*
X0161615Y0060420D01*
X0161436Y0060608D01*
X0161261Y0060801D01*
X0161091Y0060998D01*
X0160926Y0061199D01*
X0160766Y0061404D01*
X0160611Y0061613D01*
X0160461Y0061826D01*
X0160316Y0062042D01*
X0160177Y0062262D01*
X0160043Y0062485D01*
X0159915Y0062712D01*
X0159793Y0062941D01*
X0159676Y0063173D01*
X0159564Y0063409D01*
X0159459Y0063647D01*
X0159359Y0063887D01*
X0159359Y0071761D01*
X0326761Y0072824D02*
X0326778Y0074235D01*
X0326830Y0075645D01*
X0326917Y0077054D01*
X0327038Y0078460D01*
X0327193Y0079863D01*
X0327383Y0081261D01*
X0327608Y0082654D01*
X0327866Y0084042D01*
X0328158Y0085422D01*
X0328484Y0086795D01*
X0328844Y0088160D01*
X0329237Y0089515D01*
X0329663Y0090861D01*
X0330122Y0092195D01*
X0330614Y0093518D01*
X0331138Y0094828D01*
X0331694Y0096125D01*
X0332282Y0097408D01*
X0332901Y0098677D01*
X0333551Y0099929D01*
X0334231Y0101166D01*
X0334942Y0102385D01*
X0335682Y0103586D01*
X0336451Y0104769D01*
X0337250Y0105933D01*
X0338077Y0107077D01*
X0338931Y0108200D01*
X0339813Y0109302D01*
X0340721Y0110381D01*
X0341656Y0111439D01*
X0342617Y0112473D01*
X0343602Y0113483D01*
X0344612Y0114468D01*
X0345646Y0115429D01*
X0346704Y0116364D01*
X0347783Y0117272D01*
X0348885Y0118154D01*
X0350008Y0119008D01*
X0351152Y0119835D01*
X0352316Y0120634D01*
X0353499Y0121403D01*
X0354700Y0122143D01*
X0355919Y0122854D01*
X0357156Y0123534D01*
X0358408Y0124184D01*
X0359677Y0124803D01*
X0360960Y0125391D01*
X0362257Y0125947D01*
X0363567Y0126471D01*
X0364890Y0126963D01*
X0366224Y0127422D01*
X0367570Y0127848D01*
X0368925Y0128241D01*
X0370290Y0128601D01*
X0371663Y0128927D01*
X0373043Y0129219D01*
X0374431Y0129477D01*
X0375824Y0129702D01*
X0377222Y0129892D01*
X0378625Y0130047D01*
X0380031Y0130168D01*
X0381440Y0130255D01*
X0382850Y0130307D01*
X0384261Y0130324D01*
X0385672Y0130307D01*
X0387082Y0130255D01*
X0388491Y0130168D01*
X0389897Y0130047D01*
X0391300Y0129892D01*
X0392698Y0129702D01*
X0394091Y0129477D01*
X0395479Y0129219D01*
X0396859Y0128927D01*
X0398232Y0128601D01*
X0399597Y0128241D01*
X0400952Y0127848D01*
X0402298Y0127422D01*
X0403632Y0126963D01*
X0404955Y0126471D01*
X0406265Y0125947D01*
X0407562Y0125391D01*
X0408845Y0124803D01*
X0410114Y0124184D01*
X0411366Y0123534D01*
X0412603Y0122854D01*
X0413822Y0122143D01*
X0415023Y0121403D01*
X0416206Y0120634D01*
X0417370Y0119835D01*
X0418514Y0119008D01*
X0419637Y0118154D01*
X0420739Y0117272D01*
X0421818Y0116364D01*
X0422876Y0115429D01*
X0423910Y0114468D01*
X0424920Y0113483D01*
X0425905Y0112473D01*
X0426866Y0111439D01*
X0427801Y0110381D01*
X0428709Y0109302D01*
X0429591Y0108200D01*
X0430445Y0107077D01*
X0431272Y0105933D01*
X0432071Y0104769D01*
X0432840Y0103586D01*
X0433580Y0102385D01*
X0434291Y0101166D01*
X0434971Y0099929D01*
X0435621Y0098677D01*
X0436240Y0097408D01*
X0436828Y0096125D01*
X0437384Y0094828D01*
X0437908Y0093518D01*
X0438400Y0092195D01*
X0438859Y0090861D01*
X0439285Y0089515D01*
X0439678Y0088160D01*
X0440038Y0086795D01*
X0440364Y0085422D01*
X0440656Y0084042D01*
X0440914Y0082654D01*
X0441139Y0081261D01*
X0441329Y0079863D01*
X0441484Y0078460D01*
X0441605Y0077054D01*
X0441692Y0075645D01*
X0441744Y0074235D01*
X0441761Y0072824D01*
X0441744Y0071413D01*
X0441692Y0070003D01*
X0441605Y0068594D01*
X0441484Y0067188D01*
X0441329Y0065785D01*
X0441139Y0064387D01*
X0440914Y0062994D01*
X0440656Y0061606D01*
X0440364Y0060226D01*
X0440038Y0058853D01*
X0439678Y0057488D01*
X0439285Y0056133D01*
X0438859Y0054787D01*
X0438400Y0053453D01*
X0437908Y0052130D01*
X0437384Y0050820D01*
X0436828Y0049523D01*
X0436240Y0048240D01*
X0435621Y0046971D01*
X0434971Y0045719D01*
X0434291Y0044482D01*
X0433580Y0043263D01*
X0432840Y0042062D01*
X0432071Y0040879D01*
X0431272Y0039715D01*
X0430445Y0038571D01*
X0429591Y0037448D01*
X0428709Y0036346D01*
X0427801Y0035267D01*
X0426866Y0034209D01*
X0425905Y0033175D01*
X0424920Y0032165D01*
X0423910Y0031180D01*
X0422876Y0030219D01*
X0421818Y0029284D01*
X0420739Y0028376D01*
X0419637Y0027494D01*
X0418514Y0026640D01*
X0417370Y0025813D01*
X0416206Y0025014D01*
X0415023Y0024245D01*
X0413822Y0023505D01*
X0412603Y0022794D01*
X0411366Y0022114D01*
X0410114Y0021464D01*
X0408845Y0020845D01*
X0407562Y0020257D01*
X0406265Y0019701D01*
X0404955Y0019177D01*
X0403632Y0018685D01*
X0402298Y0018226D01*
X0400952Y0017800D01*
X0399597Y0017407D01*
X0398232Y0017047D01*
X0396859Y0016721D01*
X0395479Y0016429D01*
X0394091Y0016171D01*
X0392698Y0015946D01*
X0391300Y0015756D01*
X0389897Y0015601D01*
X0388491Y0015480D01*
X0387082Y0015393D01*
X0385672Y0015341D01*
X0384261Y0015324D01*
X0382850Y0015341D01*
X0381440Y0015393D01*
X0380031Y0015480D01*
X0378625Y0015601D01*
X0377222Y0015756D01*
X0375824Y0015946D01*
X0374431Y0016171D01*
X0373043Y0016429D01*
X0371663Y0016721D01*
X0370290Y0017047D01*
X0368925Y0017407D01*
X0367570Y0017800D01*
X0366224Y0018226D01*
X0364890Y0018685D01*
X0363567Y0019177D01*
X0362257Y0019701D01*
X0360960Y0020257D01*
X0359677Y0020845D01*
X0358408Y0021464D01*
X0357156Y0022114D01*
X0355919Y0022794D01*
X0354700Y0023505D01*
X0353499Y0024245D01*
X0352316Y0025014D01*
X0351152Y0025813D01*
X0350008Y0026640D01*
X0348885Y0027494D01*
X0347783Y0028376D01*
X0346704Y0029284D01*
X0345646Y0030219D01*
X0344612Y0031180D01*
X0343602Y0032165D01*
X0342617Y0033175D01*
X0341656Y0034209D01*
X0340721Y0035267D01*
X0339813Y0036346D01*
X0338931Y0037448D01*
X0338077Y0038571D01*
X0337250Y0039715D01*
X0336451Y0040879D01*
X0335682Y0042062D01*
X0334942Y0043263D01*
X0334231Y0044482D01*
X0333551Y0045719D01*
X0332901Y0046971D01*
X0332282Y0048240D01*
X0331694Y0049523D01*
X0331138Y0050820D01*
X0330614Y0052130D01*
X0330122Y0053453D01*
X0329663Y0054787D01*
X0329237Y0056133D01*
X0328844Y0057488D01*
X0328484Y0058853D01*
X0328158Y0060226D01*
X0327866Y0061606D01*
X0327608Y0062994D01*
X0327383Y0064387D01*
X0327193Y0065785D01*
X0327038Y0067188D01*
X0326917Y0068594D01*
X0326830Y0070003D01*
X0326778Y0071413D01*
X0326761Y0072824D01*
D17*
X0379309Y0088704D02*
X0379560Y0088454D01*
X0379810Y0088454D01*
X0380060Y0088704D01*
X0380060Y0089204D01*
X0380310Y0089455D01*
X0380560Y0089455D01*
X0380811Y0089204D01*
X0380811Y0088704D01*
X0380560Y0088454D01*
X0379309Y0088704D02*
X0379309Y0089204D01*
X0379560Y0089455D01*
X0379309Y0089927D02*
X0379309Y0090678D01*
X0379560Y0090928D01*
X0380060Y0090928D01*
X0380310Y0090678D01*
X0380310Y0089927D01*
X0380811Y0089927D02*
X0379309Y0089927D01*
X0379810Y0091400D02*
X0379309Y0091901D01*
X0380811Y0091901D01*
X0380811Y0092401D02*
X0380811Y0091400D01*
X0384309Y0091400D02*
X0384309Y0092401D01*
X0384309Y0091901D02*
X0385811Y0091901D01*
X0385811Y0090928D02*
X0384309Y0090928D01*
X0384309Y0089927D02*
X0385811Y0090928D01*
X0385811Y0089927D02*
X0384309Y0089927D01*
X0384309Y0089455D02*
X0385560Y0089455D01*
X0385811Y0089204D01*
X0385811Y0088704D01*
X0385560Y0088454D01*
X0384309Y0088454D01*
X0384560Y0087981D02*
X0384309Y0087731D01*
X0384309Y0087231D01*
X0384560Y0086981D01*
X0385560Y0086981D01*
X0385811Y0087231D01*
X0385811Y0087731D01*
X0385560Y0087981D01*
X0384560Y0087981D01*
X0384309Y0086508D02*
X0385811Y0086508D01*
X0385811Y0085507D02*
X0384309Y0085507D01*
X0384810Y0086008D01*
X0384309Y0086508D01*
X0386061Y0085035D02*
X0386061Y0084034D01*
X0385560Y0083562D02*
X0385811Y0083311D01*
X0385811Y0082561D01*
X0384309Y0082561D01*
X0384309Y0083311D01*
X0384560Y0083562D01*
X0384810Y0083562D01*
X0385060Y0083311D01*
X0385060Y0082561D01*
X0385560Y0082088D02*
X0385811Y0081838D01*
X0385811Y0081338D01*
X0385560Y0081088D01*
X0384560Y0081088D01*
X0384309Y0081338D01*
X0384309Y0081838D01*
X0384560Y0082088D01*
X0385060Y0083311D02*
X0385310Y0083562D01*
X0385560Y0083562D01*
X0385060Y0080615D02*
X0385310Y0080365D01*
X0385310Y0079614D01*
X0385811Y0079614D02*
X0384309Y0079614D01*
X0384309Y0080365D01*
X0384560Y0080615D01*
X0385060Y0080615D01*
X0385060Y0079142D02*
X0385310Y0078892D01*
X0385310Y0078141D01*
X0385310Y0078641D02*
X0385811Y0079142D01*
X0385060Y0079142D02*
X0384560Y0079142D01*
X0384309Y0078892D01*
X0384309Y0078141D01*
X0385811Y0078141D01*
X0385811Y0077669D02*
X0385811Y0076668D01*
X0384309Y0076668D01*
X0384309Y0077669D01*
X0385060Y0077168D02*
X0385060Y0076668D01*
X0385811Y0076195D02*
X0385060Y0075445D01*
X0385310Y0075194D02*
X0384309Y0076195D01*
X0384309Y0075194D02*
X0385811Y0075194D01*
X0385811Y0074722D02*
X0384810Y0074722D01*
X0384309Y0074222D01*
X0384810Y0073721D01*
X0385811Y0073721D01*
X0385811Y0073249D02*
X0385811Y0072248D01*
X0384309Y0072248D01*
X0384309Y0073249D01*
X0385060Y0073721D02*
X0385060Y0074722D01*
X0385060Y0072748D02*
X0385060Y0072248D01*
X0385060Y0071776D02*
X0385310Y0071525D01*
X0385310Y0070775D01*
X0385310Y0070302D02*
X0385560Y0070302D01*
X0385811Y0070052D01*
X0385811Y0069552D01*
X0385560Y0069301D01*
X0385060Y0069552D02*
X0385060Y0070052D01*
X0385310Y0070302D01*
X0385811Y0070775D02*
X0384309Y0070775D01*
X0384309Y0071525D01*
X0384560Y0071776D01*
X0385060Y0071776D01*
X0384560Y0070302D02*
X0384309Y0070052D01*
X0384309Y0069552D01*
X0384560Y0069301D01*
X0384810Y0069301D01*
X0385060Y0069552D01*
D18*
X0262800Y0072824D02*
X0262802Y0072950D01*
X0262808Y0073076D01*
X0262818Y0073202D01*
X0262832Y0073328D01*
X0262850Y0073453D01*
X0262872Y0073577D01*
X0262897Y0073701D01*
X0262927Y0073824D01*
X0262960Y0073945D01*
X0262998Y0074066D01*
X0263039Y0074185D01*
X0263084Y0074304D01*
X0263132Y0074420D01*
X0263184Y0074535D01*
X0263240Y0074648D01*
X0263300Y0074760D01*
X0263363Y0074869D01*
X0263429Y0074977D01*
X0263498Y0075082D01*
X0263571Y0075185D01*
X0263648Y0075286D01*
X0263727Y0075384D01*
X0263809Y0075480D01*
X0263895Y0075573D01*
X0263983Y0075664D01*
X0264074Y0075751D01*
X0264168Y0075836D01*
X0264264Y0075917D01*
X0264363Y0075996D01*
X0264464Y0076071D01*
X0264568Y0076143D01*
X0264674Y0076212D01*
X0264782Y0076278D01*
X0264892Y0076340D01*
X0265004Y0076398D01*
X0265117Y0076453D01*
X0265233Y0076504D01*
X0265350Y0076552D01*
X0265468Y0076596D01*
X0265588Y0076636D01*
X0265709Y0076672D01*
X0265831Y0076705D01*
X0265954Y0076734D01*
X0266078Y0076758D01*
X0266202Y0076779D01*
X0266327Y0076796D01*
X0266453Y0076809D01*
X0266579Y0076818D01*
X0266705Y0076823D01*
X0266832Y0076824D01*
X0266958Y0076821D01*
X0267084Y0076814D01*
X0267210Y0076803D01*
X0267335Y0076788D01*
X0267460Y0076769D01*
X0267584Y0076746D01*
X0267708Y0076720D01*
X0267830Y0076689D01*
X0267952Y0076655D01*
X0268072Y0076616D01*
X0268191Y0076574D01*
X0268309Y0076529D01*
X0268425Y0076479D01*
X0268540Y0076426D01*
X0268652Y0076369D01*
X0268763Y0076309D01*
X0268872Y0076245D01*
X0268979Y0076178D01*
X0269084Y0076108D01*
X0269187Y0076034D01*
X0269287Y0075957D01*
X0269385Y0075877D01*
X0269480Y0075794D01*
X0269572Y0075708D01*
X0269662Y0075619D01*
X0269749Y0075527D01*
X0269832Y0075433D01*
X0269913Y0075336D01*
X0269991Y0075236D01*
X0270066Y0075134D01*
X0270137Y0075030D01*
X0270205Y0074923D01*
X0270269Y0074815D01*
X0270330Y0074704D01*
X0270388Y0074592D01*
X0270442Y0074478D01*
X0270492Y0074362D01*
X0270539Y0074245D01*
X0270582Y0074126D01*
X0270621Y0074006D01*
X0270657Y0073885D01*
X0270688Y0073762D01*
X0270716Y0073639D01*
X0270740Y0073515D01*
X0270760Y0073390D01*
X0270776Y0073265D01*
X0270788Y0073139D01*
X0270796Y0073013D01*
X0270800Y0072887D01*
X0270800Y0072761D01*
X0270796Y0072635D01*
X0270788Y0072509D01*
X0270776Y0072383D01*
X0270760Y0072258D01*
X0270740Y0072133D01*
X0270716Y0072009D01*
X0270688Y0071886D01*
X0270657Y0071763D01*
X0270621Y0071642D01*
X0270582Y0071522D01*
X0270539Y0071403D01*
X0270492Y0071286D01*
X0270442Y0071170D01*
X0270388Y0071056D01*
X0270330Y0070944D01*
X0270269Y0070833D01*
X0270205Y0070725D01*
X0270137Y0070618D01*
X0270066Y0070514D01*
X0269991Y0070412D01*
X0269913Y0070312D01*
X0269832Y0070215D01*
X0269749Y0070121D01*
X0269662Y0070029D01*
X0269572Y0069940D01*
X0269480Y0069854D01*
X0269385Y0069771D01*
X0269287Y0069691D01*
X0269187Y0069614D01*
X0269084Y0069540D01*
X0268979Y0069470D01*
X0268872Y0069403D01*
X0268763Y0069339D01*
X0268652Y0069279D01*
X0268540Y0069222D01*
X0268425Y0069169D01*
X0268309Y0069119D01*
X0268191Y0069074D01*
X0268072Y0069032D01*
X0267952Y0068993D01*
X0267830Y0068959D01*
X0267708Y0068928D01*
X0267584Y0068902D01*
X0267460Y0068879D01*
X0267335Y0068860D01*
X0267210Y0068845D01*
X0267084Y0068834D01*
X0266958Y0068827D01*
X0266832Y0068824D01*
X0266705Y0068825D01*
X0266579Y0068830D01*
X0266453Y0068839D01*
X0266327Y0068852D01*
X0266202Y0068869D01*
X0266078Y0068890D01*
X0265954Y0068914D01*
X0265831Y0068943D01*
X0265709Y0068976D01*
X0265588Y0069012D01*
X0265468Y0069052D01*
X0265350Y0069096D01*
X0265233Y0069144D01*
X0265117Y0069195D01*
X0265004Y0069250D01*
X0264892Y0069308D01*
X0264782Y0069370D01*
X0264674Y0069436D01*
X0264568Y0069505D01*
X0264464Y0069577D01*
X0264363Y0069652D01*
X0264264Y0069731D01*
X0264168Y0069812D01*
X0264074Y0069897D01*
X0263983Y0069984D01*
X0263895Y0070075D01*
X0263809Y0070168D01*
X0263727Y0070264D01*
X0263648Y0070362D01*
X0263571Y0070463D01*
X0263498Y0070566D01*
X0263429Y0070671D01*
X0263363Y0070779D01*
X0263300Y0070888D01*
X0263240Y0071000D01*
X0263184Y0071113D01*
X0263132Y0071228D01*
X0263084Y0071344D01*
X0263039Y0071463D01*
X0262998Y0071582D01*
X0262960Y0071703D01*
X0262927Y0071824D01*
X0262897Y0071947D01*
X0262872Y0072071D01*
X0262850Y0072195D01*
X0262832Y0072320D01*
X0262818Y0072446D01*
X0262808Y0072572D01*
X0262802Y0072698D01*
X0262800Y0072824D01*
X0261300Y0072824D02*
X0261302Y0072972D01*
X0261308Y0073120D01*
X0261318Y0073268D01*
X0261332Y0073416D01*
X0261350Y0073563D01*
X0261372Y0073710D01*
X0261398Y0073856D01*
X0261427Y0074001D01*
X0261461Y0074146D01*
X0261499Y0074289D01*
X0261540Y0074432D01*
X0261585Y0074573D01*
X0261635Y0074713D01*
X0261687Y0074851D01*
X0261744Y0074989D01*
X0261804Y0075124D01*
X0261868Y0075258D01*
X0261935Y0075390D01*
X0262006Y0075520D01*
X0262081Y0075649D01*
X0262159Y0075775D01*
X0262240Y0075899D01*
X0262324Y0076021D01*
X0262412Y0076140D01*
X0262503Y0076257D01*
X0262597Y0076372D01*
X0262695Y0076484D01*
X0262795Y0076593D01*
X0262898Y0076700D01*
X0263004Y0076804D01*
X0263112Y0076905D01*
X0263224Y0077003D01*
X0263338Y0077098D01*
X0263454Y0077189D01*
X0263573Y0077278D01*
X0263694Y0077363D01*
X0263818Y0077445D01*
X0263944Y0077524D01*
X0264071Y0077599D01*
X0264201Y0077671D01*
X0264333Y0077740D01*
X0264466Y0077804D01*
X0264601Y0077865D01*
X0264738Y0077923D01*
X0264876Y0077977D01*
X0265016Y0078027D01*
X0265157Y0078073D01*
X0265299Y0078115D01*
X0265442Y0078154D01*
X0265586Y0078188D01*
X0265732Y0078219D01*
X0265877Y0078246D01*
X0266024Y0078269D01*
X0266171Y0078288D01*
X0266319Y0078303D01*
X0266466Y0078314D01*
X0266615Y0078321D01*
X0266763Y0078324D01*
X0266911Y0078323D01*
X0267059Y0078318D01*
X0267207Y0078309D01*
X0267355Y0078296D01*
X0267503Y0078279D01*
X0267649Y0078258D01*
X0267796Y0078233D01*
X0267941Y0078204D01*
X0268086Y0078172D01*
X0268229Y0078135D01*
X0268372Y0078095D01*
X0268514Y0078050D01*
X0268654Y0078002D01*
X0268793Y0077950D01*
X0268930Y0077895D01*
X0269066Y0077835D01*
X0269201Y0077772D01*
X0269333Y0077706D01*
X0269464Y0077636D01*
X0269593Y0077562D01*
X0269719Y0077485D01*
X0269844Y0077405D01*
X0269966Y0077321D01*
X0270087Y0077234D01*
X0270204Y0077144D01*
X0270320Y0077050D01*
X0270432Y0076954D01*
X0270542Y0076855D01*
X0270650Y0076752D01*
X0270754Y0076647D01*
X0270856Y0076539D01*
X0270954Y0076428D01*
X0271050Y0076315D01*
X0271143Y0076199D01*
X0271232Y0076081D01*
X0271318Y0075960D01*
X0271401Y0075837D01*
X0271481Y0075712D01*
X0271557Y0075585D01*
X0271630Y0075455D01*
X0271699Y0075324D01*
X0271764Y0075191D01*
X0271827Y0075057D01*
X0271885Y0074920D01*
X0271940Y0074782D01*
X0271990Y0074643D01*
X0272038Y0074502D01*
X0272081Y0074361D01*
X0272121Y0074218D01*
X0272156Y0074074D01*
X0272188Y0073929D01*
X0272216Y0073783D01*
X0272240Y0073637D01*
X0272260Y0073490D01*
X0272276Y0073342D01*
X0272288Y0073195D01*
X0272296Y0073046D01*
X0272300Y0072898D01*
X0272300Y0072750D01*
X0272296Y0072602D01*
X0272288Y0072453D01*
X0272276Y0072306D01*
X0272260Y0072158D01*
X0272240Y0072011D01*
X0272216Y0071865D01*
X0272188Y0071719D01*
X0272156Y0071574D01*
X0272121Y0071430D01*
X0272081Y0071287D01*
X0272038Y0071146D01*
X0271990Y0071005D01*
X0271940Y0070866D01*
X0271885Y0070728D01*
X0271827Y0070591D01*
X0271764Y0070457D01*
X0271699Y0070324D01*
X0271630Y0070193D01*
X0271557Y0070063D01*
X0271481Y0069936D01*
X0271401Y0069811D01*
X0271318Y0069688D01*
X0271232Y0069567D01*
X0271143Y0069449D01*
X0271050Y0069333D01*
X0270954Y0069220D01*
X0270856Y0069109D01*
X0270754Y0069001D01*
X0270650Y0068896D01*
X0270542Y0068793D01*
X0270432Y0068694D01*
X0270320Y0068598D01*
X0270204Y0068504D01*
X0270087Y0068414D01*
X0269966Y0068327D01*
X0269844Y0068243D01*
X0269719Y0068163D01*
X0269593Y0068086D01*
X0269464Y0068012D01*
X0269333Y0067942D01*
X0269201Y0067876D01*
X0269066Y0067813D01*
X0268930Y0067753D01*
X0268793Y0067698D01*
X0268654Y0067646D01*
X0268514Y0067598D01*
X0268372Y0067553D01*
X0268229Y0067513D01*
X0268086Y0067476D01*
X0267941Y0067444D01*
X0267796Y0067415D01*
X0267649Y0067390D01*
X0267503Y0067369D01*
X0267355Y0067352D01*
X0267207Y0067339D01*
X0267059Y0067330D01*
X0266911Y0067325D01*
X0266763Y0067324D01*
X0266615Y0067327D01*
X0266466Y0067334D01*
X0266319Y0067345D01*
X0266171Y0067360D01*
X0266024Y0067379D01*
X0265877Y0067402D01*
X0265732Y0067429D01*
X0265586Y0067460D01*
X0265442Y0067494D01*
X0265299Y0067533D01*
X0265157Y0067575D01*
X0265016Y0067621D01*
X0264876Y0067671D01*
X0264738Y0067725D01*
X0264601Y0067783D01*
X0264466Y0067844D01*
X0264333Y0067908D01*
X0264201Y0067977D01*
X0264071Y0068049D01*
X0263944Y0068124D01*
X0263818Y0068203D01*
X0263694Y0068285D01*
X0263573Y0068370D01*
X0263454Y0068459D01*
X0263338Y0068550D01*
X0263224Y0068645D01*
X0263112Y0068743D01*
X0263004Y0068844D01*
X0262898Y0068948D01*
X0262795Y0069055D01*
X0262695Y0069164D01*
X0262597Y0069276D01*
X0262503Y0069391D01*
X0262412Y0069508D01*
X0262324Y0069627D01*
X0262240Y0069749D01*
X0262159Y0069873D01*
X0262081Y0069999D01*
X0262006Y0070128D01*
X0261935Y0070258D01*
X0261868Y0070390D01*
X0261804Y0070524D01*
X0261744Y0070659D01*
X0261687Y0070797D01*
X0261635Y0070935D01*
X0261585Y0071075D01*
X0261540Y0071216D01*
X0261499Y0071359D01*
X0261461Y0071502D01*
X0261427Y0071647D01*
X0261398Y0071792D01*
X0261372Y0071938D01*
X0261350Y0072085D01*
X0261332Y0072232D01*
X0261318Y0072380D01*
X0261308Y0072528D01*
X0261302Y0072676D01*
X0261300Y0072824D01*
X0067800Y0072824D02*
X0067802Y0072950D01*
X0067808Y0073076D01*
X0067818Y0073202D01*
X0067832Y0073328D01*
X0067850Y0073453D01*
X0067872Y0073577D01*
X0067897Y0073701D01*
X0067927Y0073824D01*
X0067960Y0073945D01*
X0067998Y0074066D01*
X0068039Y0074185D01*
X0068084Y0074304D01*
X0068132Y0074420D01*
X0068184Y0074535D01*
X0068240Y0074648D01*
X0068300Y0074760D01*
X0068363Y0074869D01*
X0068429Y0074977D01*
X0068498Y0075082D01*
X0068571Y0075185D01*
X0068648Y0075286D01*
X0068727Y0075384D01*
X0068809Y0075480D01*
X0068895Y0075573D01*
X0068983Y0075664D01*
X0069074Y0075751D01*
X0069168Y0075836D01*
X0069264Y0075917D01*
X0069363Y0075996D01*
X0069464Y0076071D01*
X0069568Y0076143D01*
X0069674Y0076212D01*
X0069782Y0076278D01*
X0069892Y0076340D01*
X0070004Y0076398D01*
X0070117Y0076453D01*
X0070233Y0076504D01*
X0070350Y0076552D01*
X0070468Y0076596D01*
X0070588Y0076636D01*
X0070709Y0076672D01*
X0070831Y0076705D01*
X0070954Y0076734D01*
X0071078Y0076758D01*
X0071202Y0076779D01*
X0071327Y0076796D01*
X0071453Y0076809D01*
X0071579Y0076818D01*
X0071705Y0076823D01*
X0071832Y0076824D01*
X0071958Y0076821D01*
X0072084Y0076814D01*
X0072210Y0076803D01*
X0072335Y0076788D01*
X0072460Y0076769D01*
X0072584Y0076746D01*
X0072708Y0076720D01*
X0072830Y0076689D01*
X0072952Y0076655D01*
X0073072Y0076616D01*
X0073191Y0076574D01*
X0073309Y0076529D01*
X0073425Y0076479D01*
X0073540Y0076426D01*
X0073652Y0076369D01*
X0073763Y0076309D01*
X0073872Y0076245D01*
X0073979Y0076178D01*
X0074084Y0076108D01*
X0074187Y0076034D01*
X0074287Y0075957D01*
X0074385Y0075877D01*
X0074480Y0075794D01*
X0074572Y0075708D01*
X0074662Y0075619D01*
X0074749Y0075527D01*
X0074832Y0075433D01*
X0074913Y0075336D01*
X0074991Y0075236D01*
X0075066Y0075134D01*
X0075137Y0075030D01*
X0075205Y0074923D01*
X0075269Y0074815D01*
X0075330Y0074704D01*
X0075388Y0074592D01*
X0075442Y0074478D01*
X0075492Y0074362D01*
X0075539Y0074245D01*
X0075582Y0074126D01*
X0075621Y0074006D01*
X0075657Y0073885D01*
X0075688Y0073762D01*
X0075716Y0073639D01*
X0075740Y0073515D01*
X0075760Y0073390D01*
X0075776Y0073265D01*
X0075788Y0073139D01*
X0075796Y0073013D01*
X0075800Y0072887D01*
X0075800Y0072761D01*
X0075796Y0072635D01*
X0075788Y0072509D01*
X0075776Y0072383D01*
X0075760Y0072258D01*
X0075740Y0072133D01*
X0075716Y0072009D01*
X0075688Y0071886D01*
X0075657Y0071763D01*
X0075621Y0071642D01*
X0075582Y0071522D01*
X0075539Y0071403D01*
X0075492Y0071286D01*
X0075442Y0071170D01*
X0075388Y0071056D01*
X0075330Y0070944D01*
X0075269Y0070833D01*
X0075205Y0070725D01*
X0075137Y0070618D01*
X0075066Y0070514D01*
X0074991Y0070412D01*
X0074913Y0070312D01*
X0074832Y0070215D01*
X0074749Y0070121D01*
X0074662Y0070029D01*
X0074572Y0069940D01*
X0074480Y0069854D01*
X0074385Y0069771D01*
X0074287Y0069691D01*
X0074187Y0069614D01*
X0074084Y0069540D01*
X0073979Y0069470D01*
X0073872Y0069403D01*
X0073763Y0069339D01*
X0073652Y0069279D01*
X0073540Y0069222D01*
X0073425Y0069169D01*
X0073309Y0069119D01*
X0073191Y0069074D01*
X0073072Y0069032D01*
X0072952Y0068993D01*
X0072830Y0068959D01*
X0072708Y0068928D01*
X0072584Y0068902D01*
X0072460Y0068879D01*
X0072335Y0068860D01*
X0072210Y0068845D01*
X0072084Y0068834D01*
X0071958Y0068827D01*
X0071832Y0068824D01*
X0071705Y0068825D01*
X0071579Y0068830D01*
X0071453Y0068839D01*
X0071327Y0068852D01*
X0071202Y0068869D01*
X0071078Y0068890D01*
X0070954Y0068914D01*
X0070831Y0068943D01*
X0070709Y0068976D01*
X0070588Y0069012D01*
X0070468Y0069052D01*
X0070350Y0069096D01*
X0070233Y0069144D01*
X0070117Y0069195D01*
X0070004Y0069250D01*
X0069892Y0069308D01*
X0069782Y0069370D01*
X0069674Y0069436D01*
X0069568Y0069505D01*
X0069464Y0069577D01*
X0069363Y0069652D01*
X0069264Y0069731D01*
X0069168Y0069812D01*
X0069074Y0069897D01*
X0068983Y0069984D01*
X0068895Y0070075D01*
X0068809Y0070168D01*
X0068727Y0070264D01*
X0068648Y0070362D01*
X0068571Y0070463D01*
X0068498Y0070566D01*
X0068429Y0070671D01*
X0068363Y0070779D01*
X0068300Y0070888D01*
X0068240Y0071000D01*
X0068184Y0071113D01*
X0068132Y0071228D01*
X0068084Y0071344D01*
X0068039Y0071463D01*
X0067998Y0071582D01*
X0067960Y0071703D01*
X0067927Y0071824D01*
X0067897Y0071947D01*
X0067872Y0072071D01*
X0067850Y0072195D01*
X0067832Y0072320D01*
X0067818Y0072446D01*
X0067808Y0072572D01*
X0067802Y0072698D01*
X0067800Y0072824D01*
X0066300Y0072824D02*
X0066302Y0072972D01*
X0066308Y0073120D01*
X0066318Y0073268D01*
X0066332Y0073416D01*
X0066350Y0073563D01*
X0066372Y0073710D01*
X0066398Y0073856D01*
X0066427Y0074001D01*
X0066461Y0074146D01*
X0066499Y0074289D01*
X0066540Y0074432D01*
X0066585Y0074573D01*
X0066635Y0074713D01*
X0066687Y0074851D01*
X0066744Y0074989D01*
X0066804Y0075124D01*
X0066868Y0075258D01*
X0066935Y0075390D01*
X0067006Y0075520D01*
X0067081Y0075649D01*
X0067159Y0075775D01*
X0067240Y0075899D01*
X0067324Y0076021D01*
X0067412Y0076140D01*
X0067503Y0076257D01*
X0067597Y0076372D01*
X0067695Y0076484D01*
X0067795Y0076593D01*
X0067898Y0076700D01*
X0068004Y0076804D01*
X0068112Y0076905D01*
X0068224Y0077003D01*
X0068338Y0077098D01*
X0068454Y0077189D01*
X0068573Y0077278D01*
X0068694Y0077363D01*
X0068818Y0077445D01*
X0068944Y0077524D01*
X0069071Y0077599D01*
X0069201Y0077671D01*
X0069333Y0077740D01*
X0069466Y0077804D01*
X0069601Y0077865D01*
X0069738Y0077923D01*
X0069876Y0077977D01*
X0070016Y0078027D01*
X0070157Y0078073D01*
X0070299Y0078115D01*
X0070442Y0078154D01*
X0070586Y0078188D01*
X0070732Y0078219D01*
X0070877Y0078246D01*
X0071024Y0078269D01*
X0071171Y0078288D01*
X0071319Y0078303D01*
X0071466Y0078314D01*
X0071615Y0078321D01*
X0071763Y0078324D01*
X0071911Y0078323D01*
X0072059Y0078318D01*
X0072207Y0078309D01*
X0072355Y0078296D01*
X0072503Y0078279D01*
X0072649Y0078258D01*
X0072796Y0078233D01*
X0072941Y0078204D01*
X0073086Y0078172D01*
X0073229Y0078135D01*
X0073372Y0078095D01*
X0073514Y0078050D01*
X0073654Y0078002D01*
X0073793Y0077950D01*
X0073930Y0077895D01*
X0074066Y0077835D01*
X0074201Y0077772D01*
X0074333Y0077706D01*
X0074464Y0077636D01*
X0074593Y0077562D01*
X0074719Y0077485D01*
X0074844Y0077405D01*
X0074966Y0077321D01*
X0075087Y0077234D01*
X0075204Y0077144D01*
X0075320Y0077050D01*
X0075432Y0076954D01*
X0075542Y0076855D01*
X0075650Y0076752D01*
X0075754Y0076647D01*
X0075856Y0076539D01*
X0075954Y0076428D01*
X0076050Y0076315D01*
X0076143Y0076199D01*
X0076232Y0076081D01*
X0076318Y0075960D01*
X0076401Y0075837D01*
X0076481Y0075712D01*
X0076557Y0075585D01*
X0076630Y0075455D01*
X0076699Y0075324D01*
X0076764Y0075191D01*
X0076827Y0075057D01*
X0076885Y0074920D01*
X0076940Y0074782D01*
X0076990Y0074643D01*
X0077038Y0074502D01*
X0077081Y0074361D01*
X0077121Y0074218D01*
X0077156Y0074074D01*
X0077188Y0073929D01*
X0077216Y0073783D01*
X0077240Y0073637D01*
X0077260Y0073490D01*
X0077276Y0073342D01*
X0077288Y0073195D01*
X0077296Y0073046D01*
X0077300Y0072898D01*
X0077300Y0072750D01*
X0077296Y0072602D01*
X0077288Y0072453D01*
X0077276Y0072306D01*
X0077260Y0072158D01*
X0077240Y0072011D01*
X0077216Y0071865D01*
X0077188Y0071719D01*
X0077156Y0071574D01*
X0077121Y0071430D01*
X0077081Y0071287D01*
X0077038Y0071146D01*
X0076990Y0071005D01*
X0076940Y0070866D01*
X0076885Y0070728D01*
X0076827Y0070591D01*
X0076764Y0070457D01*
X0076699Y0070324D01*
X0076630Y0070193D01*
X0076557Y0070063D01*
X0076481Y0069936D01*
X0076401Y0069811D01*
X0076318Y0069688D01*
X0076232Y0069567D01*
X0076143Y0069449D01*
X0076050Y0069333D01*
X0075954Y0069220D01*
X0075856Y0069109D01*
X0075754Y0069001D01*
X0075650Y0068896D01*
X0075542Y0068793D01*
X0075432Y0068694D01*
X0075320Y0068598D01*
X0075204Y0068504D01*
X0075087Y0068414D01*
X0074966Y0068327D01*
X0074844Y0068243D01*
X0074719Y0068163D01*
X0074593Y0068086D01*
X0074464Y0068012D01*
X0074333Y0067942D01*
X0074201Y0067876D01*
X0074066Y0067813D01*
X0073930Y0067753D01*
X0073793Y0067698D01*
X0073654Y0067646D01*
X0073514Y0067598D01*
X0073372Y0067553D01*
X0073229Y0067513D01*
X0073086Y0067476D01*
X0072941Y0067444D01*
X0072796Y0067415D01*
X0072649Y0067390D01*
X0072503Y0067369D01*
X0072355Y0067352D01*
X0072207Y0067339D01*
X0072059Y0067330D01*
X0071911Y0067325D01*
X0071763Y0067324D01*
X0071615Y0067327D01*
X0071466Y0067334D01*
X0071319Y0067345D01*
X0071171Y0067360D01*
X0071024Y0067379D01*
X0070877Y0067402D01*
X0070732Y0067429D01*
X0070586Y0067460D01*
X0070442Y0067494D01*
X0070299Y0067533D01*
X0070157Y0067575D01*
X0070016Y0067621D01*
X0069876Y0067671D01*
X0069738Y0067725D01*
X0069601Y0067783D01*
X0069466Y0067844D01*
X0069333Y0067908D01*
X0069201Y0067977D01*
X0069071Y0068049D01*
X0068944Y0068124D01*
X0068818Y0068203D01*
X0068694Y0068285D01*
X0068573Y0068370D01*
X0068454Y0068459D01*
X0068338Y0068550D01*
X0068224Y0068645D01*
X0068112Y0068743D01*
X0068004Y0068844D01*
X0067898Y0068948D01*
X0067795Y0069055D01*
X0067695Y0069164D01*
X0067597Y0069276D01*
X0067503Y0069391D01*
X0067412Y0069508D01*
X0067324Y0069627D01*
X0067240Y0069749D01*
X0067159Y0069873D01*
X0067081Y0069999D01*
X0067006Y0070128D01*
X0066935Y0070258D01*
X0066868Y0070390D01*
X0066804Y0070524D01*
X0066744Y0070659D01*
X0066687Y0070797D01*
X0066635Y0070935D01*
X0066585Y0071075D01*
X0066540Y0071216D01*
X0066499Y0071359D01*
X0066461Y0071502D01*
X0066427Y0071647D01*
X0066398Y0071792D01*
X0066372Y0071938D01*
X0066350Y0072085D01*
X0066332Y0072232D01*
X0066318Y0072380D01*
X0066308Y0072528D01*
X0066302Y0072676D01*
X0066300Y0072824D01*
D19*
X0305068Y0119863D02*
X0338532Y0119863D01*
X0338532Y0133643D01*
X0305068Y0133643D01*
X0305068Y0119863D01*
M02*
