%
M48
M72
T01C0.02756
T02C0.03000
T03C0.03150
T04C0.03200
T05C0.04331
T06C0.04500
T07C0.04724
T08C0.08000
T09C0.08268
T10C0.09000
%
T01
X310363Y71300
X318237Y71300
T02
X179202Y67824
X171702Y67824
X164202Y67824
X156702Y67824
T03
X311800Y123406
X321800Y124194
X331800Y123406
X311957Y19800
X331643Y19800
T04
X146800Y42300
X106800Y42300
X111800Y62800
X131800Y62800
X131800Y82800
X111800Y82800
X201800Y41800
X201800Y51800
X201800Y61800
X201800Y71800
X201800Y81800
X201800Y91800
X201800Y101800
X231800Y101800
X231800Y91800
X231800Y81800
X231800Y71800
X231800Y61800
X231800Y51800
X231800Y41800
X106800Y103300
X146800Y103300
T05
X81643Y45265
X71800Y45265
X61957Y45265
X256957Y45265
X266800Y45265
X276643Y45265
T06
X384261Y42824
X384261Y102824
T07
X308020Y29643
X335580Y29643
T08
X295800Y98800
X295800Y47800
T09
X249083Y72824
X284517Y72824
X54083Y72824
X89517Y72824
T10
X193800Y116800
X140800Y28800
X246800Y28800
M30
