G75*
%MOIN*%
%OFA0B0*%
%FSLAX25Y25*%
%IPPOS*%
%LPD*%
%AMOC8*
5,1,8,0,0,1.08239X$1,22.5*
%
%ADD10C,0.00000*%
%ADD11C,0.12000*%
%ADD12C,0.05600*%
%ADD13C,0.05156*%
%ADD14C,0.06900*%
%ADD15C,0.06731*%
%ADD16C,0.12268*%
%ADD17C,0.05400*%
%ADD18C,0.08661*%
%ADD19C,0.06693*%
%ADD20C,0.07400*%
%ADD21C,0.02400*%
D10*
X0067008Y0011800D02*
X0396564Y0011800D01*
X0396564Y0133847D01*
X0069822Y0133847D01*
X0189300Y0116800D02*
X0189302Y0116934D01*
X0189308Y0117068D01*
X0189318Y0117201D01*
X0189332Y0117335D01*
X0189350Y0117468D01*
X0189372Y0117600D01*
X0189397Y0117731D01*
X0189427Y0117862D01*
X0189461Y0117992D01*
X0189498Y0118120D01*
X0189539Y0118248D01*
X0189584Y0118374D01*
X0189633Y0118499D01*
X0189685Y0118622D01*
X0189741Y0118744D01*
X0189801Y0118864D01*
X0189864Y0118982D01*
X0189931Y0119098D01*
X0190001Y0119212D01*
X0190075Y0119324D01*
X0190152Y0119434D01*
X0190232Y0119542D01*
X0190315Y0119647D01*
X0190401Y0119749D01*
X0190490Y0119849D01*
X0190583Y0119946D01*
X0190678Y0120041D01*
X0190776Y0120132D01*
X0190876Y0120221D01*
X0190979Y0120306D01*
X0191085Y0120389D01*
X0191193Y0120468D01*
X0191303Y0120544D01*
X0191416Y0120617D01*
X0191531Y0120686D01*
X0191647Y0120752D01*
X0191766Y0120814D01*
X0191886Y0120873D01*
X0192009Y0120928D01*
X0192132Y0120980D01*
X0192257Y0121027D01*
X0192384Y0121071D01*
X0192512Y0121112D01*
X0192641Y0121148D01*
X0192771Y0121181D01*
X0192902Y0121209D01*
X0193033Y0121234D01*
X0193166Y0121255D01*
X0193299Y0121272D01*
X0193432Y0121285D01*
X0193566Y0121294D01*
X0193700Y0121299D01*
X0193834Y0121300D01*
X0193967Y0121297D01*
X0194101Y0121290D01*
X0194235Y0121279D01*
X0194368Y0121264D01*
X0194501Y0121245D01*
X0194633Y0121222D01*
X0194764Y0121196D01*
X0194894Y0121165D01*
X0195024Y0121130D01*
X0195152Y0121092D01*
X0195279Y0121050D01*
X0195405Y0121004D01*
X0195530Y0120954D01*
X0195653Y0120901D01*
X0195774Y0120844D01*
X0195894Y0120783D01*
X0196011Y0120719D01*
X0196127Y0120652D01*
X0196241Y0120581D01*
X0196352Y0120506D01*
X0196461Y0120429D01*
X0196568Y0120348D01*
X0196673Y0120264D01*
X0196774Y0120177D01*
X0196874Y0120087D01*
X0196970Y0119994D01*
X0197064Y0119898D01*
X0197155Y0119799D01*
X0197242Y0119698D01*
X0197327Y0119594D01*
X0197409Y0119488D01*
X0197487Y0119380D01*
X0197562Y0119269D01*
X0197634Y0119156D01*
X0197703Y0119040D01*
X0197768Y0118923D01*
X0197829Y0118804D01*
X0197887Y0118683D01*
X0197941Y0118561D01*
X0197992Y0118437D01*
X0198039Y0118311D01*
X0198082Y0118184D01*
X0198121Y0118056D01*
X0198157Y0117927D01*
X0198188Y0117797D01*
X0198216Y0117666D01*
X0198240Y0117534D01*
X0198260Y0117401D01*
X0198276Y0117268D01*
X0198288Y0117135D01*
X0198296Y0117001D01*
X0198300Y0116867D01*
X0198300Y0116733D01*
X0198296Y0116599D01*
X0198288Y0116465D01*
X0198276Y0116332D01*
X0198260Y0116199D01*
X0198240Y0116066D01*
X0198216Y0115934D01*
X0198188Y0115803D01*
X0198157Y0115673D01*
X0198121Y0115544D01*
X0198082Y0115416D01*
X0198039Y0115289D01*
X0197992Y0115163D01*
X0197941Y0115039D01*
X0197887Y0114917D01*
X0197829Y0114796D01*
X0197768Y0114677D01*
X0197703Y0114560D01*
X0197634Y0114444D01*
X0197562Y0114331D01*
X0197487Y0114220D01*
X0197409Y0114112D01*
X0197327Y0114006D01*
X0197242Y0113902D01*
X0197155Y0113801D01*
X0197064Y0113702D01*
X0196970Y0113606D01*
X0196874Y0113513D01*
X0196774Y0113423D01*
X0196673Y0113336D01*
X0196568Y0113252D01*
X0196461Y0113171D01*
X0196352Y0113094D01*
X0196241Y0113019D01*
X0196127Y0112948D01*
X0196011Y0112881D01*
X0195894Y0112817D01*
X0195774Y0112756D01*
X0195653Y0112699D01*
X0195530Y0112646D01*
X0195405Y0112596D01*
X0195279Y0112550D01*
X0195152Y0112508D01*
X0195024Y0112470D01*
X0194894Y0112435D01*
X0194764Y0112404D01*
X0194633Y0112378D01*
X0194501Y0112355D01*
X0194368Y0112336D01*
X0194235Y0112321D01*
X0194101Y0112310D01*
X0193967Y0112303D01*
X0193834Y0112300D01*
X0193700Y0112301D01*
X0193566Y0112306D01*
X0193432Y0112315D01*
X0193299Y0112328D01*
X0193166Y0112345D01*
X0193033Y0112366D01*
X0192902Y0112391D01*
X0192771Y0112419D01*
X0192641Y0112452D01*
X0192512Y0112488D01*
X0192384Y0112529D01*
X0192257Y0112573D01*
X0192132Y0112620D01*
X0192009Y0112672D01*
X0191886Y0112727D01*
X0191766Y0112786D01*
X0191647Y0112848D01*
X0191531Y0112914D01*
X0191416Y0112983D01*
X0191303Y0113056D01*
X0191193Y0113132D01*
X0191085Y0113211D01*
X0190979Y0113294D01*
X0190876Y0113379D01*
X0190776Y0113468D01*
X0190678Y0113559D01*
X0190583Y0113654D01*
X0190490Y0113751D01*
X0190401Y0113851D01*
X0190315Y0113953D01*
X0190232Y0114058D01*
X0190152Y0114166D01*
X0190075Y0114276D01*
X0190001Y0114388D01*
X0189931Y0114502D01*
X0189864Y0114618D01*
X0189801Y0114736D01*
X0189741Y0114856D01*
X0189685Y0114978D01*
X0189633Y0115101D01*
X0189584Y0115226D01*
X0189539Y0115352D01*
X0189498Y0115480D01*
X0189461Y0115608D01*
X0189427Y0115738D01*
X0189397Y0115869D01*
X0189372Y0116000D01*
X0189350Y0116132D01*
X0189332Y0116265D01*
X0189318Y0116399D01*
X0189308Y0116532D01*
X0189302Y0116666D01*
X0189300Y0116800D01*
X0069822Y0133848D02*
X0068319Y0133849D01*
X0066816Y0133815D01*
X0065314Y0133744D01*
X0063815Y0133637D01*
X0062319Y0133494D01*
X0060827Y0133314D01*
X0059339Y0133099D01*
X0057857Y0132848D01*
X0056381Y0132561D01*
X0054913Y0132238D01*
X0053454Y0131880D01*
X0052003Y0131487D01*
X0050562Y0131059D01*
X0049132Y0130596D01*
X0047713Y0130099D01*
X0046307Y0129568D01*
X0044914Y0129003D01*
X0043536Y0128404D01*
X0042172Y0127772D01*
X0040823Y0127108D01*
X0039492Y0126411D01*
X0038177Y0125682D01*
X0036880Y0124921D01*
X0035603Y0124130D01*
X0034344Y0123308D01*
X0033106Y0122455D01*
X0031889Y0121573D01*
X0030694Y0120662D01*
X0029521Y0119722D01*
X0028371Y0118754D01*
X0027244Y0117759D01*
X0026142Y0116737D01*
X0025065Y0115688D01*
X0024014Y0114614D01*
X0022989Y0113514D01*
X0021991Y0112390D01*
X0021020Y0111243D01*
X0020078Y0110072D01*
X0019164Y0108878D01*
X0018279Y0107663D01*
X0017423Y0106427D01*
X0016598Y0105171D01*
X0015804Y0103895D01*
X0015040Y0102601D01*
X0014308Y0101288D01*
X0013608Y0099958D01*
X0012940Y0098611D01*
X0012305Y0097249D01*
X0011703Y0095871D01*
X0011134Y0094480D01*
X0010600Y0093075D01*
X0010099Y0091658D01*
X0009633Y0090229D01*
X0009201Y0088789D01*
X0008805Y0087339D01*
X0008443Y0085880D01*
X0008117Y0084413D01*
X0007826Y0082938D01*
X0007572Y0081457D01*
X0007353Y0079970D01*
X0007170Y0078478D01*
X0007023Y0076982D01*
X0006912Y0075483D01*
X0006838Y0073981D01*
X0006799Y0072479D01*
X0006800Y0072479D02*
X0006800Y0072008D01*
X0006818Y0070553D01*
X0006870Y0069099D01*
X0006958Y0067647D01*
X0007081Y0066197D01*
X0007239Y0064751D01*
X0007432Y0063309D01*
X0007659Y0061872D01*
X0007922Y0060440D01*
X0008218Y0059016D01*
X0008550Y0057599D01*
X0008915Y0056191D01*
X0009314Y0054792D01*
X0009747Y0053403D01*
X0010213Y0052024D01*
X0010713Y0050658D01*
X0011245Y0049304D01*
X0011810Y0047963D01*
X0012407Y0046636D01*
X0013036Y0045324D01*
X0013696Y0044028D01*
X0014388Y0042748D01*
X0015111Y0041485D01*
X0015863Y0040240D01*
X0016646Y0039013D01*
X0017458Y0037806D01*
X0018299Y0036619D01*
X0019168Y0035452D01*
X0020065Y0034307D01*
X0020990Y0033183D01*
X0021942Y0032083D01*
X0022920Y0031005D01*
X0023923Y0029952D01*
X0024952Y0028923D01*
X0026005Y0027920D01*
X0027083Y0026942D01*
X0028183Y0025990D01*
X0029307Y0025065D01*
X0030452Y0024168D01*
X0031619Y0023299D01*
X0032806Y0022458D01*
X0034013Y0021646D01*
X0035240Y0020863D01*
X0036485Y0020111D01*
X0037748Y0019388D01*
X0039028Y0018696D01*
X0040324Y0018036D01*
X0041636Y0017407D01*
X0042963Y0016810D01*
X0044304Y0016245D01*
X0045658Y0015713D01*
X0047024Y0015213D01*
X0048403Y0014747D01*
X0049792Y0014314D01*
X0051191Y0013915D01*
X0052599Y0013550D01*
X0054016Y0013218D01*
X0055440Y0012922D01*
X0056872Y0012659D01*
X0058309Y0012432D01*
X0059751Y0012239D01*
X0061197Y0012081D01*
X0062647Y0011958D01*
X0064099Y0011870D01*
X0065553Y0011818D01*
X0067008Y0011800D01*
X0136300Y0028800D02*
X0136302Y0028934D01*
X0136308Y0029068D01*
X0136318Y0029201D01*
X0136332Y0029335D01*
X0136350Y0029468D01*
X0136372Y0029600D01*
X0136397Y0029731D01*
X0136427Y0029862D01*
X0136461Y0029992D01*
X0136498Y0030120D01*
X0136539Y0030248D01*
X0136584Y0030374D01*
X0136633Y0030499D01*
X0136685Y0030622D01*
X0136741Y0030744D01*
X0136801Y0030864D01*
X0136864Y0030982D01*
X0136931Y0031098D01*
X0137001Y0031212D01*
X0137075Y0031324D01*
X0137152Y0031434D01*
X0137232Y0031542D01*
X0137315Y0031647D01*
X0137401Y0031749D01*
X0137490Y0031849D01*
X0137583Y0031946D01*
X0137678Y0032041D01*
X0137776Y0032132D01*
X0137876Y0032221D01*
X0137979Y0032306D01*
X0138085Y0032389D01*
X0138193Y0032468D01*
X0138303Y0032544D01*
X0138416Y0032617D01*
X0138531Y0032686D01*
X0138647Y0032752D01*
X0138766Y0032814D01*
X0138886Y0032873D01*
X0139009Y0032928D01*
X0139132Y0032980D01*
X0139257Y0033027D01*
X0139384Y0033071D01*
X0139512Y0033112D01*
X0139641Y0033148D01*
X0139771Y0033181D01*
X0139902Y0033209D01*
X0140033Y0033234D01*
X0140166Y0033255D01*
X0140299Y0033272D01*
X0140432Y0033285D01*
X0140566Y0033294D01*
X0140700Y0033299D01*
X0140834Y0033300D01*
X0140967Y0033297D01*
X0141101Y0033290D01*
X0141235Y0033279D01*
X0141368Y0033264D01*
X0141501Y0033245D01*
X0141633Y0033222D01*
X0141764Y0033196D01*
X0141894Y0033165D01*
X0142024Y0033130D01*
X0142152Y0033092D01*
X0142279Y0033050D01*
X0142405Y0033004D01*
X0142530Y0032954D01*
X0142653Y0032901D01*
X0142774Y0032844D01*
X0142894Y0032783D01*
X0143011Y0032719D01*
X0143127Y0032652D01*
X0143241Y0032581D01*
X0143352Y0032506D01*
X0143461Y0032429D01*
X0143568Y0032348D01*
X0143673Y0032264D01*
X0143774Y0032177D01*
X0143874Y0032087D01*
X0143970Y0031994D01*
X0144064Y0031898D01*
X0144155Y0031799D01*
X0144242Y0031698D01*
X0144327Y0031594D01*
X0144409Y0031488D01*
X0144487Y0031380D01*
X0144562Y0031269D01*
X0144634Y0031156D01*
X0144703Y0031040D01*
X0144768Y0030923D01*
X0144829Y0030804D01*
X0144887Y0030683D01*
X0144941Y0030561D01*
X0144992Y0030437D01*
X0145039Y0030311D01*
X0145082Y0030184D01*
X0145121Y0030056D01*
X0145157Y0029927D01*
X0145188Y0029797D01*
X0145216Y0029666D01*
X0145240Y0029534D01*
X0145260Y0029401D01*
X0145276Y0029268D01*
X0145288Y0029135D01*
X0145296Y0029001D01*
X0145300Y0028867D01*
X0145300Y0028733D01*
X0145296Y0028599D01*
X0145288Y0028465D01*
X0145276Y0028332D01*
X0145260Y0028199D01*
X0145240Y0028066D01*
X0145216Y0027934D01*
X0145188Y0027803D01*
X0145157Y0027673D01*
X0145121Y0027544D01*
X0145082Y0027416D01*
X0145039Y0027289D01*
X0144992Y0027163D01*
X0144941Y0027039D01*
X0144887Y0026917D01*
X0144829Y0026796D01*
X0144768Y0026677D01*
X0144703Y0026560D01*
X0144634Y0026444D01*
X0144562Y0026331D01*
X0144487Y0026220D01*
X0144409Y0026112D01*
X0144327Y0026006D01*
X0144242Y0025902D01*
X0144155Y0025801D01*
X0144064Y0025702D01*
X0143970Y0025606D01*
X0143874Y0025513D01*
X0143774Y0025423D01*
X0143673Y0025336D01*
X0143568Y0025252D01*
X0143461Y0025171D01*
X0143352Y0025094D01*
X0143241Y0025019D01*
X0143127Y0024948D01*
X0143011Y0024881D01*
X0142894Y0024817D01*
X0142774Y0024756D01*
X0142653Y0024699D01*
X0142530Y0024646D01*
X0142405Y0024596D01*
X0142279Y0024550D01*
X0142152Y0024508D01*
X0142024Y0024470D01*
X0141894Y0024435D01*
X0141764Y0024404D01*
X0141633Y0024378D01*
X0141501Y0024355D01*
X0141368Y0024336D01*
X0141235Y0024321D01*
X0141101Y0024310D01*
X0140967Y0024303D01*
X0140834Y0024300D01*
X0140700Y0024301D01*
X0140566Y0024306D01*
X0140432Y0024315D01*
X0140299Y0024328D01*
X0140166Y0024345D01*
X0140033Y0024366D01*
X0139902Y0024391D01*
X0139771Y0024419D01*
X0139641Y0024452D01*
X0139512Y0024488D01*
X0139384Y0024529D01*
X0139257Y0024573D01*
X0139132Y0024620D01*
X0139009Y0024672D01*
X0138886Y0024727D01*
X0138766Y0024786D01*
X0138647Y0024848D01*
X0138531Y0024914D01*
X0138416Y0024983D01*
X0138303Y0025056D01*
X0138193Y0025132D01*
X0138085Y0025211D01*
X0137979Y0025294D01*
X0137876Y0025379D01*
X0137776Y0025468D01*
X0137678Y0025559D01*
X0137583Y0025654D01*
X0137490Y0025751D01*
X0137401Y0025851D01*
X0137315Y0025953D01*
X0137232Y0026058D01*
X0137152Y0026166D01*
X0137075Y0026276D01*
X0137001Y0026388D01*
X0136931Y0026502D01*
X0136864Y0026618D01*
X0136801Y0026736D01*
X0136741Y0026856D01*
X0136685Y0026978D01*
X0136633Y0027101D01*
X0136584Y0027226D01*
X0136539Y0027352D01*
X0136498Y0027480D01*
X0136461Y0027608D01*
X0136427Y0027738D01*
X0136397Y0027869D01*
X0136372Y0028000D01*
X0136350Y0028132D01*
X0136332Y0028265D01*
X0136318Y0028399D01*
X0136308Y0028532D01*
X0136302Y0028666D01*
X0136300Y0028800D01*
X0242300Y0028800D02*
X0242302Y0028934D01*
X0242308Y0029068D01*
X0242318Y0029201D01*
X0242332Y0029335D01*
X0242350Y0029468D01*
X0242372Y0029600D01*
X0242397Y0029731D01*
X0242427Y0029862D01*
X0242461Y0029992D01*
X0242498Y0030120D01*
X0242539Y0030248D01*
X0242584Y0030374D01*
X0242633Y0030499D01*
X0242685Y0030622D01*
X0242741Y0030744D01*
X0242801Y0030864D01*
X0242864Y0030982D01*
X0242931Y0031098D01*
X0243001Y0031212D01*
X0243075Y0031324D01*
X0243152Y0031434D01*
X0243232Y0031542D01*
X0243315Y0031647D01*
X0243401Y0031749D01*
X0243490Y0031849D01*
X0243583Y0031946D01*
X0243678Y0032041D01*
X0243776Y0032132D01*
X0243876Y0032221D01*
X0243979Y0032306D01*
X0244085Y0032389D01*
X0244193Y0032468D01*
X0244303Y0032544D01*
X0244416Y0032617D01*
X0244531Y0032686D01*
X0244647Y0032752D01*
X0244766Y0032814D01*
X0244886Y0032873D01*
X0245009Y0032928D01*
X0245132Y0032980D01*
X0245257Y0033027D01*
X0245384Y0033071D01*
X0245512Y0033112D01*
X0245641Y0033148D01*
X0245771Y0033181D01*
X0245902Y0033209D01*
X0246033Y0033234D01*
X0246166Y0033255D01*
X0246299Y0033272D01*
X0246432Y0033285D01*
X0246566Y0033294D01*
X0246700Y0033299D01*
X0246834Y0033300D01*
X0246967Y0033297D01*
X0247101Y0033290D01*
X0247235Y0033279D01*
X0247368Y0033264D01*
X0247501Y0033245D01*
X0247633Y0033222D01*
X0247764Y0033196D01*
X0247894Y0033165D01*
X0248024Y0033130D01*
X0248152Y0033092D01*
X0248279Y0033050D01*
X0248405Y0033004D01*
X0248530Y0032954D01*
X0248653Y0032901D01*
X0248774Y0032844D01*
X0248894Y0032783D01*
X0249011Y0032719D01*
X0249127Y0032652D01*
X0249241Y0032581D01*
X0249352Y0032506D01*
X0249461Y0032429D01*
X0249568Y0032348D01*
X0249673Y0032264D01*
X0249774Y0032177D01*
X0249874Y0032087D01*
X0249970Y0031994D01*
X0250064Y0031898D01*
X0250155Y0031799D01*
X0250242Y0031698D01*
X0250327Y0031594D01*
X0250409Y0031488D01*
X0250487Y0031380D01*
X0250562Y0031269D01*
X0250634Y0031156D01*
X0250703Y0031040D01*
X0250768Y0030923D01*
X0250829Y0030804D01*
X0250887Y0030683D01*
X0250941Y0030561D01*
X0250992Y0030437D01*
X0251039Y0030311D01*
X0251082Y0030184D01*
X0251121Y0030056D01*
X0251157Y0029927D01*
X0251188Y0029797D01*
X0251216Y0029666D01*
X0251240Y0029534D01*
X0251260Y0029401D01*
X0251276Y0029268D01*
X0251288Y0029135D01*
X0251296Y0029001D01*
X0251300Y0028867D01*
X0251300Y0028733D01*
X0251296Y0028599D01*
X0251288Y0028465D01*
X0251276Y0028332D01*
X0251260Y0028199D01*
X0251240Y0028066D01*
X0251216Y0027934D01*
X0251188Y0027803D01*
X0251157Y0027673D01*
X0251121Y0027544D01*
X0251082Y0027416D01*
X0251039Y0027289D01*
X0250992Y0027163D01*
X0250941Y0027039D01*
X0250887Y0026917D01*
X0250829Y0026796D01*
X0250768Y0026677D01*
X0250703Y0026560D01*
X0250634Y0026444D01*
X0250562Y0026331D01*
X0250487Y0026220D01*
X0250409Y0026112D01*
X0250327Y0026006D01*
X0250242Y0025902D01*
X0250155Y0025801D01*
X0250064Y0025702D01*
X0249970Y0025606D01*
X0249874Y0025513D01*
X0249774Y0025423D01*
X0249673Y0025336D01*
X0249568Y0025252D01*
X0249461Y0025171D01*
X0249352Y0025094D01*
X0249241Y0025019D01*
X0249127Y0024948D01*
X0249011Y0024881D01*
X0248894Y0024817D01*
X0248774Y0024756D01*
X0248653Y0024699D01*
X0248530Y0024646D01*
X0248405Y0024596D01*
X0248279Y0024550D01*
X0248152Y0024508D01*
X0248024Y0024470D01*
X0247894Y0024435D01*
X0247764Y0024404D01*
X0247633Y0024378D01*
X0247501Y0024355D01*
X0247368Y0024336D01*
X0247235Y0024321D01*
X0247101Y0024310D01*
X0246967Y0024303D01*
X0246834Y0024300D01*
X0246700Y0024301D01*
X0246566Y0024306D01*
X0246432Y0024315D01*
X0246299Y0024328D01*
X0246166Y0024345D01*
X0246033Y0024366D01*
X0245902Y0024391D01*
X0245771Y0024419D01*
X0245641Y0024452D01*
X0245512Y0024488D01*
X0245384Y0024529D01*
X0245257Y0024573D01*
X0245132Y0024620D01*
X0245009Y0024672D01*
X0244886Y0024727D01*
X0244766Y0024786D01*
X0244647Y0024848D01*
X0244531Y0024914D01*
X0244416Y0024983D01*
X0244303Y0025056D01*
X0244193Y0025132D01*
X0244085Y0025211D01*
X0243979Y0025294D01*
X0243876Y0025379D01*
X0243776Y0025468D01*
X0243678Y0025559D01*
X0243583Y0025654D01*
X0243490Y0025751D01*
X0243401Y0025851D01*
X0243315Y0025953D01*
X0243232Y0026058D01*
X0243152Y0026166D01*
X0243075Y0026276D01*
X0243001Y0026388D01*
X0242931Y0026502D01*
X0242864Y0026618D01*
X0242801Y0026736D01*
X0242741Y0026856D01*
X0242685Y0026978D01*
X0242633Y0027101D01*
X0242584Y0027226D01*
X0242539Y0027352D01*
X0242498Y0027480D01*
X0242461Y0027608D01*
X0242427Y0027738D01*
X0242397Y0027869D01*
X0242372Y0028000D01*
X0242350Y0028132D01*
X0242332Y0028265D01*
X0242318Y0028399D01*
X0242308Y0028532D01*
X0242302Y0028666D01*
X0242300Y0028800D01*
D11*
X0295800Y0047800D03*
X0295800Y0098800D03*
D12*
X0231800Y0101800D03*
X0231800Y0091800D03*
X0231800Y0081800D03*
X0231800Y0071800D03*
X0231800Y0061800D03*
X0231800Y0051800D03*
X0231800Y0041800D03*
X0201800Y0041800D03*
X0201800Y0051800D03*
X0201800Y0061800D03*
X0201800Y0071800D03*
X0201800Y0081800D03*
X0201800Y0091800D03*
X0201800Y0101800D03*
X0146800Y0103300D03*
X0106800Y0103300D03*
X0111800Y0082800D03*
X0131800Y0082800D03*
X0131800Y0062800D03*
X0111800Y0062800D03*
X0106800Y0042300D03*
X0146800Y0042300D03*
D13*
X0310363Y0071300D03*
X0318237Y0071300D03*
D14*
X0384261Y0042824D03*
X0384261Y0102824D03*
D15*
X0276643Y0045265D03*
X0266800Y0045265D03*
X0256957Y0045265D03*
X0081643Y0045265D03*
X0071800Y0045265D03*
X0061957Y0045265D03*
D16*
X0054083Y0072824D03*
X0089517Y0072824D03*
X0249083Y0072824D03*
X0284517Y0072824D03*
D17*
X0179202Y0067824D03*
X0171702Y0067824D03*
X0164202Y0067824D03*
X0156702Y0067824D03*
D18*
X0308020Y0029643D03*
X0335580Y0029643D03*
D19*
X0331643Y0019800D03*
X0311957Y0019800D03*
D20*
X0311800Y0123406D03*
X0321800Y0124194D03*
X0331800Y0123406D03*
D21*
X0330800Y0125200D01*
X0326511Y0129489D01*
X0323828Y0130600D02*
X0311107Y0130600D01*
X0307851Y0129251D02*
X0282991Y0104391D01*
X0313824Y0083023D02*
X0314276Y0083487D01*
X0314718Y0083961D01*
X0315148Y0084446D01*
X0315567Y0084941D01*
X0315974Y0085446D01*
X0316368Y0085960D01*
X0316750Y0086483D01*
X0317120Y0087016D01*
X0317477Y0087557D01*
X0317821Y0088106D01*
X0318151Y0088664D01*
X0318469Y0089229D01*
X0318773Y0089801D01*
X0319063Y0090381D01*
X0319339Y0090967D01*
X0319601Y0091560D01*
X0319849Y0092159D01*
X0320083Y0092763D01*
X0320302Y0093373D01*
X0320507Y0093988D01*
X0320697Y0094608D01*
X0320872Y0095232D01*
X0321032Y0095860D01*
X0321178Y0096491D01*
X0321308Y0097126D01*
X0321423Y0097764D01*
X0321523Y0098404D01*
X0321607Y0099047D01*
X0321677Y0099691D01*
X0321731Y0100337D01*
X0321769Y0100984D01*
X0321792Y0101632D01*
X0321800Y0102280D01*
X0321800Y0124194D01*
X0323828Y0130600D02*
X0323947Y0130598D01*
X0324066Y0130593D01*
X0324185Y0130583D01*
X0324304Y0130570D01*
X0324422Y0130553D01*
X0324539Y0130533D01*
X0324656Y0130509D01*
X0324772Y0130481D01*
X0324887Y0130449D01*
X0325001Y0130414D01*
X0325114Y0130376D01*
X0325225Y0130334D01*
X0325335Y0130288D01*
X0325444Y0130239D01*
X0325551Y0130186D01*
X0325656Y0130131D01*
X0325760Y0130072D01*
X0325861Y0130009D01*
X0325961Y0129944D01*
X0326059Y0129875D01*
X0326154Y0129804D01*
X0326247Y0129729D01*
X0326338Y0129652D01*
X0326426Y0129571D01*
X0326511Y0129488D01*
X0311107Y0130600D02*
X0310973Y0130598D01*
X0310839Y0130592D01*
X0310706Y0130582D01*
X0310573Y0130569D01*
X0310440Y0130551D01*
X0310308Y0130530D01*
X0310176Y0130505D01*
X0310045Y0130476D01*
X0309915Y0130443D01*
X0309787Y0130407D01*
X0309659Y0130366D01*
X0309532Y0130322D01*
X0309407Y0130275D01*
X0309283Y0130223D01*
X0309161Y0130169D01*
X0309041Y0130110D01*
X0308922Y0130048D01*
X0308805Y0129983D01*
X0308690Y0129915D01*
X0308577Y0129843D01*
X0308466Y0129767D01*
X0308358Y0129689D01*
X0308251Y0129607D01*
X0308148Y0129523D01*
X0308046Y0129435D01*
X0307948Y0129345D01*
X0307851Y0129252D01*
X0260142Y0083415D02*
X0240133Y0106694D01*
X0231800Y0101800D02*
X0201800Y0071800D01*
X0203000Y0071200D01*
X0207499Y0066701D01*
X0201200Y0062200D02*
X0198936Y0064464D01*
X0201200Y0062200D02*
X0201800Y0061800D01*
X0203000Y0060400D01*
X0218237Y0045163D01*
X0224908Y0042400D02*
X0231800Y0042400D01*
X0231800Y0041800D01*
X0242200Y0038800D02*
X0269600Y0038800D01*
X0275000Y0044200D01*
X0276643Y0045265D01*
X0275000Y0046000D01*
X0275000Y0085099D01*
X0275008Y0085769D01*
X0275033Y0086438D01*
X0275074Y0087106D01*
X0275131Y0087773D01*
X0275205Y0088439D01*
X0275295Y0089102D01*
X0275402Y0089764D01*
X0275524Y0090422D01*
X0275663Y0091077D01*
X0275818Y0091728D01*
X0275988Y0092376D01*
X0276175Y0093019D01*
X0276377Y0093657D01*
X0276595Y0094291D01*
X0276828Y0094918D01*
X0277077Y0095540D01*
X0277341Y0096156D01*
X0277620Y0096764D01*
X0277913Y0097366D01*
X0278222Y0097961D01*
X0278545Y0098547D01*
X0278882Y0099126D01*
X0279233Y0099696D01*
X0279598Y0100257D01*
X0279977Y0100809D01*
X0280369Y0101352D01*
X0280775Y0101885D01*
X0281193Y0102408D01*
X0281624Y0102920D01*
X0282068Y0103422D01*
X0282524Y0103912D01*
X0282991Y0104392D01*
X0231800Y0091800D02*
X0231800Y0081800D01*
X0218366Y0062200D02*
X0218000Y0062204D01*
X0217635Y0062217D01*
X0217270Y0062239D01*
X0216905Y0062270D01*
X0216541Y0062309D01*
X0216179Y0062356D01*
X0215817Y0062413D01*
X0215457Y0062478D01*
X0215099Y0062551D01*
X0214743Y0062633D01*
X0214388Y0062724D01*
X0214036Y0062823D01*
X0213686Y0062930D01*
X0213339Y0063045D01*
X0212995Y0063169D01*
X0212654Y0063301D01*
X0212316Y0063441D01*
X0211981Y0063589D01*
X0211651Y0063745D01*
X0211324Y0063908D01*
X0211000Y0064080D01*
X0210682Y0064259D01*
X0210367Y0064446D01*
X0210057Y0064640D01*
X0209752Y0064841D01*
X0209451Y0065050D01*
X0209156Y0065265D01*
X0208866Y0065488D01*
X0208581Y0065718D01*
X0208301Y0065954D01*
X0208028Y0066197D01*
X0207760Y0066446D01*
X0207498Y0066701D01*
X0201800Y0071800D02*
X0201200Y0073000D01*
X0176000Y0073000D01*
X0172400Y0069400D01*
X0171702Y0067824D01*
X0169122Y0091000D02*
X0168599Y0090994D01*
X0168076Y0090974D01*
X0167554Y0090942D01*
X0167033Y0090898D01*
X0166513Y0090840D01*
X0165995Y0090770D01*
X0165479Y0090687D01*
X0164964Y0090592D01*
X0164453Y0090484D01*
X0163944Y0090363D01*
X0163438Y0090230D01*
X0162935Y0090085D01*
X0162436Y0089928D01*
X0161942Y0089758D01*
X0161451Y0089576D01*
X0160965Y0089383D01*
X0160484Y0089177D01*
X0160009Y0088960D01*
X0159538Y0088731D01*
X0159074Y0088491D01*
X0158615Y0088240D01*
X0158163Y0087977D01*
X0157717Y0087704D01*
X0157278Y0087419D01*
X0156846Y0087124D01*
X0156422Y0086818D01*
X0156005Y0086503D01*
X0155596Y0086177D01*
X0155195Y0085841D01*
X0154802Y0085495D01*
X0154418Y0085140D01*
X0154043Y0084776D01*
X0153677Y0084402D01*
X0153320Y0084020D01*
X0152972Y0083629D01*
X0152634Y0083230D01*
X0152306Y0082822D01*
X0151988Y0082407D01*
X0151681Y0081984D01*
X0151384Y0081554D01*
X0151097Y0081116D01*
X0131000Y0049600D01*
X0121205Y0059395D01*
X0118400Y0066167D02*
X0118400Y0071400D01*
X0118400Y0066167D02*
X0118403Y0065939D01*
X0118411Y0065711D01*
X0118424Y0065484D01*
X0118443Y0065257D01*
X0118468Y0065030D01*
X0118497Y0064804D01*
X0118533Y0064579D01*
X0118573Y0064355D01*
X0118619Y0064131D01*
X0118670Y0063909D01*
X0118726Y0063688D01*
X0118788Y0063469D01*
X0118855Y0063251D01*
X0118927Y0063035D01*
X0119004Y0062820D01*
X0119086Y0062608D01*
X0119173Y0062397D01*
X0119265Y0062189D01*
X0119363Y0061982D01*
X0119465Y0061779D01*
X0119571Y0061577D01*
X0119683Y0061378D01*
X0119799Y0061182D01*
X0119920Y0060989D01*
X0120046Y0060799D01*
X0120176Y0060612D01*
X0120310Y0060428D01*
X0120449Y0060247D01*
X0120592Y0060069D01*
X0120739Y0059895D01*
X0120890Y0059725D01*
X0121046Y0059558D01*
X0121205Y0059395D01*
X0131000Y0049600D02*
X0141480Y0038254D01*
X0145488Y0036500D02*
X0148496Y0036500D01*
X0150964Y0037654D02*
X0157574Y0045574D01*
X0147200Y0042400D02*
X0146800Y0042300D01*
X0147200Y0042400D02*
X0161252Y0056452D01*
X0171640Y0051400D02*
X0201200Y0051400D01*
X0201800Y0051800D01*
X0198936Y0064464D02*
X0198754Y0064642D01*
X0198567Y0064816D01*
X0198377Y0064985D01*
X0198182Y0065149D01*
X0197984Y0065309D01*
X0197781Y0065464D01*
X0197576Y0065615D01*
X0197366Y0065760D01*
X0197154Y0065900D01*
X0196938Y0066036D01*
X0196719Y0066166D01*
X0196496Y0066290D01*
X0196271Y0066410D01*
X0196043Y0066524D01*
X0195813Y0066632D01*
X0195580Y0066736D01*
X0195344Y0066833D01*
X0195107Y0066925D01*
X0194867Y0067011D01*
X0194625Y0067092D01*
X0194382Y0067166D01*
X0194136Y0067235D01*
X0193889Y0067298D01*
X0193641Y0067355D01*
X0193391Y0067407D01*
X0193141Y0067452D01*
X0192889Y0067491D01*
X0192636Y0067524D01*
X0192383Y0067552D01*
X0192129Y0067573D01*
X0191874Y0067588D01*
X0191620Y0067597D01*
X0191365Y0067600D01*
X0179600Y0067600D01*
X0179202Y0067824D01*
X0164202Y0067824D02*
X0163400Y0067600D01*
X0163400Y0061638D01*
X0163398Y0061463D01*
X0163392Y0061289D01*
X0163381Y0061115D01*
X0163367Y0060941D01*
X0163348Y0060767D01*
X0163325Y0060594D01*
X0163298Y0060422D01*
X0163267Y0060250D01*
X0163232Y0060079D01*
X0163193Y0059909D01*
X0163150Y0059740D01*
X0163103Y0059571D01*
X0163052Y0059405D01*
X0162997Y0059239D01*
X0162938Y0059075D01*
X0162875Y0058912D01*
X0162808Y0058751D01*
X0162737Y0058591D01*
X0162663Y0058433D01*
X0162585Y0058277D01*
X0162503Y0058123D01*
X0162417Y0057970D01*
X0162328Y0057820D01*
X0162236Y0057672D01*
X0162139Y0057527D01*
X0162040Y0057383D01*
X0161937Y0057242D01*
X0161831Y0057104D01*
X0161721Y0056968D01*
X0161608Y0056835D01*
X0161493Y0056704D01*
X0161374Y0056576D01*
X0161252Y0056451D01*
X0145488Y0036500D02*
X0145343Y0036502D01*
X0145198Y0036508D01*
X0145053Y0036517D01*
X0144908Y0036531D01*
X0144764Y0036548D01*
X0144620Y0036569D01*
X0144477Y0036594D01*
X0144335Y0036623D01*
X0144193Y0036656D01*
X0144053Y0036692D01*
X0143913Y0036732D01*
X0143775Y0036776D01*
X0143637Y0036823D01*
X0143501Y0036874D01*
X0143367Y0036929D01*
X0143234Y0036987D01*
X0143102Y0037049D01*
X0142973Y0037114D01*
X0142845Y0037183D01*
X0142719Y0037255D01*
X0142594Y0037330D01*
X0142472Y0037409D01*
X0142352Y0037491D01*
X0142235Y0037576D01*
X0142119Y0037664D01*
X0142006Y0037755D01*
X0141895Y0037849D01*
X0141787Y0037946D01*
X0141682Y0038046D01*
X0141579Y0038149D01*
X0141479Y0038254D01*
X0148496Y0036500D02*
X0148609Y0036502D01*
X0148721Y0036508D01*
X0148833Y0036518D01*
X0148945Y0036531D01*
X0149056Y0036549D01*
X0149166Y0036571D01*
X0149276Y0036596D01*
X0149384Y0036625D01*
X0149492Y0036658D01*
X0149598Y0036695D01*
X0149703Y0036735D01*
X0149807Y0036779D01*
X0149909Y0036827D01*
X0150009Y0036878D01*
X0150107Y0036933D01*
X0150204Y0036991D01*
X0150298Y0037053D01*
X0150390Y0037117D01*
X0150480Y0037185D01*
X0150567Y0037256D01*
X0150652Y0037330D01*
X0150734Y0037407D01*
X0150813Y0037487D01*
X0150890Y0037569D01*
X0150963Y0037654D01*
X0157574Y0045573D02*
X0157912Y0045904D01*
X0158259Y0046227D01*
X0158613Y0046541D01*
X0158974Y0046847D01*
X0159343Y0047144D01*
X0159719Y0047432D01*
X0160101Y0047711D01*
X0160490Y0047981D01*
X0160885Y0048242D01*
X0161286Y0048493D01*
X0161693Y0048735D01*
X0162106Y0048967D01*
X0162524Y0049189D01*
X0162948Y0049401D01*
X0163376Y0049602D01*
X0163809Y0049794D01*
X0164247Y0049975D01*
X0164688Y0050146D01*
X0165134Y0050306D01*
X0165583Y0050455D01*
X0166035Y0050594D01*
X0166491Y0050722D01*
X0166950Y0050839D01*
X0167411Y0050945D01*
X0167875Y0051041D01*
X0168341Y0051125D01*
X0168809Y0051198D01*
X0169278Y0051259D01*
X0169749Y0051310D01*
X0170221Y0051349D01*
X0170693Y0051377D01*
X0171167Y0051394D01*
X0171640Y0051400D01*
X0126860Y0020800D02*
X0126465Y0020805D01*
X0126071Y0020819D01*
X0125677Y0020844D01*
X0125284Y0020877D01*
X0124892Y0020921D01*
X0124501Y0020974D01*
X0124111Y0021037D01*
X0123723Y0021109D01*
X0123337Y0021191D01*
X0122953Y0021282D01*
X0122571Y0021382D01*
X0122192Y0021492D01*
X0121816Y0021612D01*
X0121443Y0021740D01*
X0121073Y0021877D01*
X0120706Y0022024D01*
X0120344Y0022180D01*
X0119985Y0022344D01*
X0119630Y0022517D01*
X0119280Y0022699D01*
X0118934Y0022889D01*
X0118593Y0023088D01*
X0118257Y0023295D01*
X0117926Y0023510D01*
X0117601Y0023733D01*
X0117281Y0023964D01*
X0116967Y0024203D01*
X0116659Y0024450D01*
X0116357Y0024704D01*
X0116061Y0024966D01*
X0115772Y0025234D01*
X0115490Y0025510D01*
X0105595Y0035405D01*
X0084361Y0044200D02*
X0082400Y0044200D01*
X0081643Y0045265D01*
X0126860Y0020800D02*
X0214629Y0020800D01*
X0222800Y0023617D02*
X0242200Y0038800D01*
X0242200Y0053041D01*
X0242198Y0053151D01*
X0242192Y0053261D01*
X0242183Y0053371D01*
X0242170Y0053480D01*
X0242153Y0053589D01*
X0242133Y0053697D01*
X0242108Y0053804D01*
X0242081Y0053910D01*
X0242049Y0054016D01*
X0242014Y0054120D01*
X0241975Y0054223D01*
X0241933Y0054325D01*
X0241888Y0054425D01*
X0241839Y0054524D01*
X0241787Y0054620D01*
X0241731Y0054715D01*
X0241672Y0054809D01*
X0241611Y0054900D01*
X0241546Y0054988D01*
X0241478Y0055075D01*
X0241407Y0055159D01*
X0241333Y0055241D01*
X0241257Y0055320D01*
X0241178Y0055397D01*
X0241096Y0055470D01*
X0241012Y0055541D01*
X0240925Y0055609D01*
X0240837Y0055674D01*
X0240746Y0055736D01*
X0240653Y0055795D01*
X0240558Y0055851D01*
X0240461Y0055903D01*
X0231800Y0060400D01*
X0231800Y0061800D01*
X0231800Y0062200D01*
X0218366Y0062200D01*
X0260142Y0083415D02*
X0260523Y0082960D01*
X0260893Y0082496D01*
X0261252Y0082023D01*
X0261599Y0081542D01*
X0261934Y0081052D01*
X0262257Y0080554D01*
X0262568Y0080048D01*
X0262866Y0079535D01*
X0263151Y0079015D01*
X0263424Y0078488D01*
X0263684Y0077954D01*
X0263930Y0077414D01*
X0264164Y0076868D01*
X0264384Y0076317D01*
X0264590Y0075761D01*
X0264782Y0075199D01*
X0264961Y0074633D01*
X0265126Y0074063D01*
X0265277Y0073489D01*
X0265414Y0072912D01*
X0265536Y0072331D01*
X0265645Y0071747D01*
X0265739Y0071161D01*
X0265819Y0070573D01*
X0265884Y0069983D01*
X0265935Y0069392D01*
X0265971Y0068800D01*
X0265993Y0068206D01*
X0266000Y0067613D01*
X0266000Y0046000D01*
X0266800Y0045265D01*
X0276643Y0045265D02*
X0276800Y0044200D01*
X0296944Y0024056D01*
X0304804Y0020800D02*
X0311000Y0020800D01*
X0311957Y0019800D01*
X0324654Y0023346D02*
X0300200Y0047800D01*
X0295800Y0047800D01*
X0300200Y0047800D02*
X0300200Y0065231D01*
X0300203Y0065478D01*
X0300212Y0065725D01*
X0300227Y0065972D01*
X0300248Y0066218D01*
X0300276Y0066463D01*
X0300309Y0066708D01*
X0300348Y0066952D01*
X0300393Y0067195D01*
X0300445Y0067436D01*
X0300502Y0067677D01*
X0300565Y0067916D01*
X0300633Y0068153D01*
X0300708Y0068389D01*
X0300788Y0068622D01*
X0300874Y0068854D01*
X0300966Y0069083D01*
X0301064Y0069310D01*
X0301166Y0069535D01*
X0301275Y0069757D01*
X0301389Y0069976D01*
X0301508Y0070193D01*
X0301632Y0070406D01*
X0301762Y0070616D01*
X0301896Y0070823D01*
X0302036Y0071027D01*
X0302181Y0071227D01*
X0302331Y0071424D01*
X0302485Y0071617D01*
X0302644Y0071806D01*
X0302808Y0071991D01*
X0302976Y0072172D01*
X0303148Y0072349D01*
X0303148Y0072348D02*
X0313824Y0083024D01*
X0320000Y0073000D02*
X0318237Y0071300D01*
X0320000Y0073000D02*
X0341988Y0073000D01*
X0362835Y0081635D02*
X0383000Y0101800D01*
X0384261Y0102824D01*
X0362835Y0081635D02*
X0362333Y0081145D01*
X0361819Y0080667D01*
X0361295Y0080201D01*
X0360759Y0079748D01*
X0360213Y0079308D01*
X0359656Y0078880D01*
X0359089Y0078467D01*
X0358513Y0078067D01*
X0357927Y0077680D01*
X0357332Y0077308D01*
X0356729Y0076950D01*
X0356117Y0076606D01*
X0355497Y0076277D01*
X0354870Y0075963D01*
X0354235Y0075664D01*
X0353594Y0075380D01*
X0352945Y0075112D01*
X0352291Y0074859D01*
X0351631Y0074621D01*
X0350965Y0074400D01*
X0350294Y0074194D01*
X0349619Y0074005D01*
X0348939Y0073831D01*
X0348255Y0073674D01*
X0347568Y0073533D01*
X0346877Y0073408D01*
X0346184Y0073300D01*
X0345488Y0073209D01*
X0344790Y0073133D01*
X0344091Y0073075D01*
X0343391Y0073033D01*
X0342690Y0073008D01*
X0341988Y0073000D01*
X0240132Y0106694D02*
X0239882Y0106978D01*
X0239626Y0107255D01*
X0239363Y0107527D01*
X0239093Y0107792D01*
X0238817Y0108051D01*
X0238535Y0108303D01*
X0238247Y0108548D01*
X0237954Y0108786D01*
X0237654Y0109017D01*
X0237350Y0109241D01*
X0237040Y0109458D01*
X0236725Y0109667D01*
X0236405Y0109868D01*
X0236080Y0110062D01*
X0235751Y0110248D01*
X0235417Y0110426D01*
X0235079Y0110596D01*
X0234737Y0110758D01*
X0234392Y0110911D01*
X0234043Y0111057D01*
X0233690Y0111194D01*
X0233335Y0111322D01*
X0232976Y0111442D01*
X0232615Y0111553D01*
X0232251Y0111656D01*
X0231885Y0111750D01*
X0231516Y0111835D01*
X0231146Y0111912D01*
X0230774Y0111979D01*
X0230400Y0112038D01*
X0230025Y0112087D01*
X0229649Y0112128D01*
X0229272Y0112159D01*
X0228895Y0112182D01*
X0228517Y0112195D01*
X0228139Y0112200D01*
X0216522Y0112200D01*
X0204657Y0104992D02*
X0203000Y0101800D01*
X0201800Y0101800D01*
X0147200Y0101800D01*
X0146800Y0103300D01*
X0169122Y0091000D02*
X0201200Y0091000D01*
X0201800Y0091800D01*
X0204657Y0104992D02*
X0204810Y0105278D01*
X0204970Y0105560D01*
X0205137Y0105838D01*
X0205310Y0106112D01*
X0205490Y0106382D01*
X0205676Y0106648D01*
X0205869Y0106909D01*
X0206068Y0107165D01*
X0206274Y0107416D01*
X0206485Y0107662D01*
X0206702Y0107903D01*
X0206925Y0108138D01*
X0207154Y0108369D01*
X0207388Y0108593D01*
X0207627Y0108812D01*
X0207872Y0109025D01*
X0208122Y0109231D01*
X0208377Y0109432D01*
X0208636Y0109627D01*
X0208901Y0109815D01*
X0209169Y0109997D01*
X0209442Y0110172D01*
X0209720Y0110340D01*
X0210001Y0110502D01*
X0210286Y0110656D01*
X0210575Y0110804D01*
X0210867Y0110945D01*
X0211162Y0111079D01*
X0211461Y0111205D01*
X0211763Y0111324D01*
X0212067Y0111436D01*
X0212375Y0111540D01*
X0212684Y0111637D01*
X0212996Y0111727D01*
X0213310Y0111808D01*
X0213626Y0111882D01*
X0213943Y0111949D01*
X0214262Y0112008D01*
X0214583Y0112059D01*
X0214904Y0112102D01*
X0215226Y0112137D01*
X0215550Y0112165D01*
X0215873Y0112184D01*
X0216198Y0112196D01*
X0216522Y0112200D01*
X0114723Y0080277D02*
X0113000Y0082000D01*
X0111800Y0082800D01*
X0111200Y0083800D01*
X0108843Y0086157D01*
X0107600Y0089157D02*
X0107600Y0101800D01*
X0106800Y0103300D01*
X0107600Y0089157D02*
X0107602Y0089029D01*
X0107608Y0088901D01*
X0107617Y0088773D01*
X0107631Y0088646D01*
X0107648Y0088519D01*
X0107670Y0088392D01*
X0107695Y0088266D01*
X0107723Y0088142D01*
X0107756Y0088018D01*
X0107792Y0087895D01*
X0107832Y0087773D01*
X0107876Y0087652D01*
X0107923Y0087533D01*
X0107974Y0087416D01*
X0108028Y0087300D01*
X0108086Y0087185D01*
X0108147Y0087073D01*
X0108212Y0086962D01*
X0108280Y0086853D01*
X0108351Y0086747D01*
X0108425Y0086642D01*
X0108503Y0086540D01*
X0108584Y0086441D01*
X0108667Y0086343D01*
X0108754Y0086249D01*
X0108843Y0086157D01*
X0114723Y0080277D02*
X0114932Y0080063D01*
X0115135Y0079845D01*
X0115334Y0079621D01*
X0115527Y0079393D01*
X0115714Y0079160D01*
X0115896Y0078923D01*
X0116072Y0078682D01*
X0116243Y0078437D01*
X0116407Y0078187D01*
X0116566Y0077934D01*
X0116718Y0077677D01*
X0116864Y0077416D01*
X0117004Y0077153D01*
X0117138Y0076885D01*
X0117266Y0076615D01*
X0117386Y0076342D01*
X0117501Y0076066D01*
X0117608Y0075787D01*
X0117710Y0075506D01*
X0117804Y0075223D01*
X0117891Y0074937D01*
X0117972Y0074649D01*
X0118046Y0074360D01*
X0118113Y0074069D01*
X0118173Y0073776D01*
X0118226Y0073482D01*
X0118272Y0073187D01*
X0118311Y0072890D01*
X0118343Y0072593D01*
X0118368Y0072296D01*
X0118386Y0071997D01*
X0118396Y0071699D01*
X0118400Y0071400D01*
X0214629Y0020800D02*
X0214943Y0020804D01*
X0215258Y0020815D01*
X0215571Y0020834D01*
X0215885Y0020860D01*
X0216197Y0020893D01*
X0216509Y0020934D01*
X0216820Y0020982D01*
X0217129Y0021038D01*
X0217437Y0021101D01*
X0217744Y0021171D01*
X0218048Y0021249D01*
X0218351Y0021333D01*
X0218652Y0021425D01*
X0218950Y0021524D01*
X0219246Y0021630D01*
X0219540Y0021743D01*
X0219830Y0021863D01*
X0220118Y0021990D01*
X0220403Y0022123D01*
X0220684Y0022264D01*
X0220962Y0022410D01*
X0221236Y0022564D01*
X0221507Y0022724D01*
X0221774Y0022890D01*
X0222037Y0023063D01*
X0222295Y0023241D01*
X0222550Y0023426D01*
X0222799Y0023617D01*
X0224908Y0042400D02*
X0224676Y0042403D01*
X0224445Y0042411D01*
X0224214Y0042426D01*
X0223983Y0042445D01*
X0223753Y0042471D01*
X0223524Y0042502D01*
X0223295Y0042539D01*
X0223068Y0042581D01*
X0222841Y0042629D01*
X0222616Y0042683D01*
X0222392Y0042742D01*
X0222169Y0042806D01*
X0221949Y0042876D01*
X0221730Y0042951D01*
X0221513Y0043032D01*
X0221298Y0043118D01*
X0221085Y0043209D01*
X0220874Y0043306D01*
X0220666Y0043407D01*
X0220461Y0043514D01*
X0220258Y0043626D01*
X0220058Y0043742D01*
X0219861Y0043864D01*
X0219667Y0043990D01*
X0219476Y0044121D01*
X0219288Y0044257D01*
X0219104Y0044397D01*
X0218923Y0044541D01*
X0218746Y0044690D01*
X0218573Y0044844D01*
X0218403Y0045001D01*
X0218237Y0045163D01*
X0296944Y0024056D02*
X0297133Y0023871D01*
X0297327Y0023691D01*
X0297525Y0023515D01*
X0297727Y0023344D01*
X0297933Y0023178D01*
X0298142Y0023017D01*
X0298356Y0022861D01*
X0298573Y0022710D01*
X0298794Y0022565D01*
X0299018Y0022424D01*
X0299246Y0022289D01*
X0299477Y0022160D01*
X0299710Y0022036D01*
X0299947Y0021917D01*
X0300186Y0021805D01*
X0300428Y0021698D01*
X0300673Y0021596D01*
X0300919Y0021501D01*
X0301168Y0021411D01*
X0301419Y0021328D01*
X0301672Y0021250D01*
X0301927Y0021179D01*
X0302183Y0021113D01*
X0302441Y0021054D01*
X0302700Y0021001D01*
X0302961Y0020954D01*
X0303222Y0020913D01*
X0303484Y0020879D01*
X0303747Y0020850D01*
X0304011Y0020828D01*
X0304275Y0020813D01*
X0304539Y0020803D01*
X0304804Y0020800D01*
X0330800Y0020800D02*
X0331643Y0019800D01*
X0330800Y0020800D02*
X0330587Y0020803D01*
X0330374Y0020810D01*
X0330161Y0020824D01*
X0329948Y0020842D01*
X0329736Y0020865D01*
X0329525Y0020894D01*
X0329314Y0020928D01*
X0329104Y0020967D01*
X0328896Y0021011D01*
X0328688Y0021060D01*
X0328482Y0021115D01*
X0328277Y0021174D01*
X0328074Y0021239D01*
X0327872Y0021308D01*
X0327672Y0021382D01*
X0327474Y0021462D01*
X0327278Y0021546D01*
X0327084Y0021634D01*
X0326892Y0021728D01*
X0326703Y0021826D01*
X0326516Y0021929D01*
X0326332Y0022036D01*
X0326150Y0022148D01*
X0325972Y0022265D01*
X0325796Y0022385D01*
X0325623Y0022510D01*
X0325453Y0022639D01*
X0325286Y0022773D01*
X0325123Y0022910D01*
X0324963Y0023051D01*
X0324807Y0023197D01*
X0324655Y0023346D01*
X0105595Y0035405D02*
X0105083Y0035904D01*
X0104560Y0036391D01*
X0104026Y0036865D01*
X0103480Y0037327D01*
X0102924Y0037775D01*
X0102357Y0038210D01*
X0101780Y0038632D01*
X0101192Y0039039D01*
X0100596Y0039433D01*
X0099990Y0039812D01*
X0099376Y0040177D01*
X0098752Y0040527D01*
X0098121Y0040862D01*
X0097482Y0041182D01*
X0096836Y0041486D01*
X0096182Y0041775D01*
X0095522Y0042049D01*
X0094855Y0042307D01*
X0094183Y0042548D01*
X0093504Y0042774D01*
X0092821Y0042984D01*
X0092133Y0043177D01*
X0091441Y0043354D01*
X0090744Y0043514D01*
X0090044Y0043657D01*
X0089341Y0043784D01*
X0088635Y0043894D01*
X0087926Y0043988D01*
X0087215Y0044064D01*
X0086503Y0044123D01*
X0085790Y0044166D01*
X0085076Y0044191D01*
X0084361Y0044200D01*
M02*
