G75*
%MOIN*%
%OFA0B0*%
%FSLAX25Y25*%
%IPPOS*%
%LPD*%
%AMOC8*
5,1,8,0,0,1.08239X$1,22.5*
%
%ADD10C,0.00000*%
%ADD11C,0.02400*%
%ADD12C,0.00700*%
%ADD13R,0.12400X0.12400*%
%ADD14C,0.09400*%
%ADD15OC8,0.06000*%
%ADD16R,0.05556X0.05556*%
%ADD17C,0.05556*%
%ADD18C,0.06000*%
%ADD19R,0.07300X0.07300*%
%ADD20R,0.07131X0.07131*%
%ADD21OC8,0.07131*%
%ADD22R,0.12668X0.12668*%
%ADD23C,0.05800*%
%ADD24C,0.09000*%
%ADD25C,0.07000*%
%ADD26R,0.00912X0.00038*%
%ADD27R,0.00608X0.00038*%
%ADD28R,0.01558X0.00038*%
%ADD29R,0.01026X0.00038*%
%ADD30R,0.01976X0.00038*%
%ADD31R,0.01292X0.00038*%
%ADD32R,0.00646X0.00038*%
%ADD33R,0.00684X0.00038*%
%ADD34R,0.02280X0.00038*%
%ADD35R,0.01520X0.00038*%
%ADD36R,0.01102X0.00038*%
%ADD37R,0.01140X0.00038*%
%ADD38R,0.02546X0.00038*%
%ADD39R,0.01710X0.00038*%
%ADD40R,0.01368X0.00038*%
%ADD41R,0.01482X0.00038*%
%ADD42R,0.02774X0.00038*%
%ADD43R,0.01862X0.00038*%
%ADD44R,0.01596X0.00038*%
%ADD45R,0.02508X0.00038*%
%ADD46R,0.02052X0.00038*%
%ADD47R,0.02964X0.00038*%
%ADD48R,0.02014X0.00038*%
%ADD49R,0.02204X0.00038*%
%ADD50R,0.01786X0.00038*%
%ADD51R,0.02242X0.00038*%
%ADD52R,0.02394X0.00038*%
%ADD53R,0.01938X0.00038*%
%ADD54R,0.03154X0.00038*%
%ADD55R,0.02166X0.00038*%
%ADD56R,0.02128X0.00038*%
%ADD57R,0.02470X0.00038*%
%ADD58R,0.03344X0.00038*%
%ADD59R,0.02318X0.00038*%
%ADD60R,0.02090X0.00038*%
%ADD61R,0.03458X0.00038*%
%ADD62R,0.02242X0.00038*%
%ADD63R,0.02432X0.00038*%
%ADD64R,0.02470X0.00038*%
%ADD65R,0.03610X0.00038*%
%ADD66R,0.02356X0.00038*%
%ADD67R,0.03724X0.00038*%
%ADD68R,0.02622X0.00038*%
%ADD69R,0.02698X0.00038*%
%ADD70R,0.03876X0.00038*%
%ADD71R,0.02698X0.00038*%
%ADD72R,0.02204X0.00038*%
%ADD73R,0.03952X0.00038*%
%ADD74R,0.02660X0.00038*%
%ADD75R,0.02926X0.00038*%
%ADD76R,0.04066X0.00038*%
%ADD77R,0.02888X0.00038*%
%ADD78R,0.02736X0.00038*%
%ADD79R,0.03040X0.00038*%
%ADD80R,0.04180X0.00038*%
%ADD81R,0.03116X0.00038*%
%ADD82R,0.04256X0.00038*%
%ADD83R,0.03040X0.00038*%
%ADD84R,0.03230X0.00038*%
%ADD85R,0.04332X0.00038*%
%ADD86R,0.03306X0.00038*%
%ADD87R,0.04408X0.00038*%
%ADD88R,0.03192X0.00038*%
%ADD89R,0.03382X0.00038*%
%ADD90R,0.04484X0.00038*%
%ADD91R,0.04560X0.00038*%
%ADD92R,0.03268X0.00038*%
%ADD93R,0.03572X0.00038*%
%ADD94R,0.04636X0.00038*%
%ADD95R,0.03648X0.00038*%
%ADD96R,0.04712X0.00038*%
%ADD97R,0.03420X0.00038*%
%ADD98R,0.03686X0.00038*%
%ADD99R,0.04788X0.00038*%
%ADD100R,0.03306X0.00038*%
%ADD101R,0.03762X0.00038*%
%ADD102R,0.04864X0.00038*%
%ADD103R,0.03496X0.00038*%
%ADD104R,0.03838X0.00038*%
%ADD105R,0.04902X0.00038*%
%ADD106R,0.03914X0.00038*%
%ADD107R,0.04940X0.00038*%
%ADD108R,0.06384X0.00038*%
%ADD109R,0.05016X0.00038*%
%ADD110R,0.03534X0.00038*%
%ADD111R,0.06422X0.00038*%
%ADD112R,0.05054X0.00038*%
%ADD113R,0.05092X0.00038*%
%ADD114R,0.06460X0.00038*%
%ADD115R,0.05168X0.00038*%
%ADD116R,0.06004X0.00038*%
%ADD117R,0.06498X0.00038*%
%ADD118R,0.05244X0.00038*%
%ADD119R,0.06042X0.00038*%
%ADD120R,0.05282X0.00038*%
%ADD121R,0.06498X0.00038*%
%ADD122R,0.05320X0.00038*%
%ADD123R,0.05358X0.00038*%
%ADD124R,0.06080X0.00038*%
%ADD125R,0.06536X0.00038*%
%ADD126R,0.05396X0.00038*%
%ADD127R,0.02584X0.00038*%
%ADD128R,0.05434X0.00038*%
%ADD129R,0.06574X0.00038*%
%ADD130R,0.05472X0.00038*%
%ADD131R,0.06118X0.00038*%
%ADD132R,0.05548X0.00038*%
%ADD133R,0.06612X0.00038*%
%ADD134R,0.06156X0.00038*%
%ADD135R,0.05586X0.00038*%
%ADD136R,0.05624X0.00038*%
%ADD137R,0.06650X0.00038*%
%ADD138R,0.05700X0.00038*%
%ADD139R,0.06612X0.00038*%
%ADD140R,0.06194X0.00038*%
%ADD141R,0.02964X0.00038*%
%ADD142R,0.03268X0.00038*%
%ADD143R,0.02812X0.00038*%
%ADD144R,0.03154X0.00038*%
%ADD145R,0.02812X0.00038*%
%ADD146R,0.03002X0.00038*%
%ADD147R,0.03078X0.00038*%
%ADD148R,0.02584X0.00038*%
%ADD149R,0.02850X0.00038*%
%ADD150R,0.02356X0.00038*%
%ADD151R,0.01824X0.00038*%
%ADD152R,0.05928X0.00038*%
%ADD153R,0.05890X0.00038*%
%ADD154R,0.05814X0.00038*%
%ADD155R,0.05776X0.00038*%
%ADD156R,0.05738X0.00038*%
%ADD157R,0.01862X0.00038*%
%ADD158R,0.05510X0.00038*%
%ADD159R,0.01900X0.00038*%
%ADD160R,0.05206X0.00038*%
%ADD161R,0.05130X0.00038*%
%ADD162R,0.05054X0.00038*%
%ADD163R,0.04978X0.00038*%
%ADD164R,0.04826X0.00038*%
%ADD165R,0.04750X0.00038*%
%ADD166R,0.04446X0.00038*%
%ADD167R,0.04142X0.00038*%
%ADD168R,0.04028X0.00038*%
%ADD169R,0.03534X0.00038*%
%ADD170R,0.01976X0.00038*%
%ADD171R,0.00114X0.00038*%
%ADD172R,0.00380X0.00038*%
%ADD173R,0.02926X0.00038*%
%ADD174R,0.05662X0.00038*%
%ADD175R,0.05966X0.00038*%
%ADD176R,0.05776X0.00038*%
%ADD177R,0.01748X0.00038*%
%ADD178R,0.05852X0.00038*%
%ADD179R,0.01672X0.00038*%
%ADD180R,0.01634X0.00038*%
%ADD181R,0.05434X0.00038*%
%ADD182R,0.02014X0.00038*%
%ADD183R,0.01444X0.00038*%
%ADD184R,0.01406X0.00038*%
%ADD185R,0.01330X0.00038*%
%ADD186R,0.04674X0.00038*%
%ADD187R,0.01216X0.00038*%
%ADD188R,0.01178X0.00038*%
%ADD189R,0.01140X0.00038*%
%ADD190R,0.04294X0.00038*%
%ADD191R,0.01064X0.00038*%
%ADD192R,0.04218X0.00038*%
%ADD193R,0.01026X0.00038*%
%ADD194R,0.00950X0.00038*%
%ADD195R,0.00836X0.00038*%
%ADD196R,0.00760X0.00038*%
%ADD197R,0.00570X0.00038*%
%ADD198R,0.00456X0.00038*%
%ADD199R,0.00342X0.00038*%
%ADD200R,0.00152X0.00038*%
%ADD201R,0.04256X0.00038*%
%ADD202R,0.01748X0.00038*%
%ADD203R,0.04142X0.00038*%
%ADD204R,0.04104X0.00038*%
%ADD205R,0.00988X0.00038*%
%ADD206R,0.04028X0.00038*%
%ADD207R,0.03990X0.00038*%
%ADD208R,0.04370X0.00038*%
%ADD209R,0.04484X0.00038*%
%ADD210R,0.04598X0.00038*%
%ADD211R,0.03800X0.00038*%
%ADD212R,0.05662X0.00038*%
%ADD213R,0.05890X0.00038*%
%ADD214R,0.00532X0.00038*%
%ADD215R,0.06042X0.00038*%
%ADD216R,0.06156X0.00038*%
%ADD217R,0.03648X0.00038*%
%ADD218R,0.03078X0.00038*%
%ADD219R,0.01254X0.00038*%
%ADD220R,0.00570X0.00038*%
%ADD221R,0.07068X0.00038*%
%ADD222R,0.00912X0.00038*%
%ADD223R,0.01520X0.00038*%
%ADD224R,0.03420X0.00038*%
%ADD225R,0.04522X0.00038*%
%ADD226R,0.04712X0.00038*%
%ADD227R,0.05092X0.00038*%
%ADD228R,0.05320X0.00038*%
%ADD229R,0.05548X0.00038*%
%ADD230R,0.03876X0.00038*%
%ADD231R,0.04370X0.00038*%
%ADD232R,0.03990X0.00038*%
%ADD233R,0.02090X0.00038*%
%ADD234R,0.04826X0.00038*%
%ADD235R,0.04598X0.00038*%
%ADD236C,0.07800*%
D10*
X0067008Y0011800D02*
X0396564Y0011800D01*
X0396564Y0133847D01*
X0069822Y0133847D01*
X0189300Y0116800D02*
X0189302Y0116934D01*
X0189308Y0117068D01*
X0189318Y0117201D01*
X0189332Y0117335D01*
X0189350Y0117468D01*
X0189372Y0117600D01*
X0189397Y0117731D01*
X0189427Y0117862D01*
X0189461Y0117992D01*
X0189498Y0118120D01*
X0189539Y0118248D01*
X0189584Y0118374D01*
X0189633Y0118499D01*
X0189685Y0118622D01*
X0189741Y0118744D01*
X0189801Y0118864D01*
X0189864Y0118982D01*
X0189931Y0119098D01*
X0190001Y0119212D01*
X0190075Y0119324D01*
X0190152Y0119434D01*
X0190232Y0119542D01*
X0190315Y0119647D01*
X0190401Y0119749D01*
X0190490Y0119849D01*
X0190583Y0119946D01*
X0190678Y0120041D01*
X0190776Y0120132D01*
X0190876Y0120221D01*
X0190979Y0120306D01*
X0191085Y0120389D01*
X0191193Y0120468D01*
X0191303Y0120544D01*
X0191416Y0120617D01*
X0191531Y0120686D01*
X0191647Y0120752D01*
X0191766Y0120814D01*
X0191886Y0120873D01*
X0192009Y0120928D01*
X0192132Y0120980D01*
X0192257Y0121027D01*
X0192384Y0121071D01*
X0192512Y0121112D01*
X0192641Y0121148D01*
X0192771Y0121181D01*
X0192902Y0121209D01*
X0193033Y0121234D01*
X0193166Y0121255D01*
X0193299Y0121272D01*
X0193432Y0121285D01*
X0193566Y0121294D01*
X0193700Y0121299D01*
X0193834Y0121300D01*
X0193967Y0121297D01*
X0194101Y0121290D01*
X0194235Y0121279D01*
X0194368Y0121264D01*
X0194501Y0121245D01*
X0194633Y0121222D01*
X0194764Y0121196D01*
X0194894Y0121165D01*
X0195024Y0121130D01*
X0195152Y0121092D01*
X0195279Y0121050D01*
X0195405Y0121004D01*
X0195530Y0120954D01*
X0195653Y0120901D01*
X0195774Y0120844D01*
X0195894Y0120783D01*
X0196011Y0120719D01*
X0196127Y0120652D01*
X0196241Y0120581D01*
X0196352Y0120506D01*
X0196461Y0120429D01*
X0196568Y0120348D01*
X0196673Y0120264D01*
X0196774Y0120177D01*
X0196874Y0120087D01*
X0196970Y0119994D01*
X0197064Y0119898D01*
X0197155Y0119799D01*
X0197242Y0119698D01*
X0197327Y0119594D01*
X0197409Y0119488D01*
X0197487Y0119380D01*
X0197562Y0119269D01*
X0197634Y0119156D01*
X0197703Y0119040D01*
X0197768Y0118923D01*
X0197829Y0118804D01*
X0197887Y0118683D01*
X0197941Y0118561D01*
X0197992Y0118437D01*
X0198039Y0118311D01*
X0198082Y0118184D01*
X0198121Y0118056D01*
X0198157Y0117927D01*
X0198188Y0117797D01*
X0198216Y0117666D01*
X0198240Y0117534D01*
X0198260Y0117401D01*
X0198276Y0117268D01*
X0198288Y0117135D01*
X0198296Y0117001D01*
X0198300Y0116867D01*
X0198300Y0116733D01*
X0198296Y0116599D01*
X0198288Y0116465D01*
X0198276Y0116332D01*
X0198260Y0116199D01*
X0198240Y0116066D01*
X0198216Y0115934D01*
X0198188Y0115803D01*
X0198157Y0115673D01*
X0198121Y0115544D01*
X0198082Y0115416D01*
X0198039Y0115289D01*
X0197992Y0115163D01*
X0197941Y0115039D01*
X0197887Y0114917D01*
X0197829Y0114796D01*
X0197768Y0114677D01*
X0197703Y0114560D01*
X0197634Y0114444D01*
X0197562Y0114331D01*
X0197487Y0114220D01*
X0197409Y0114112D01*
X0197327Y0114006D01*
X0197242Y0113902D01*
X0197155Y0113801D01*
X0197064Y0113702D01*
X0196970Y0113606D01*
X0196874Y0113513D01*
X0196774Y0113423D01*
X0196673Y0113336D01*
X0196568Y0113252D01*
X0196461Y0113171D01*
X0196352Y0113094D01*
X0196241Y0113019D01*
X0196127Y0112948D01*
X0196011Y0112881D01*
X0195894Y0112817D01*
X0195774Y0112756D01*
X0195653Y0112699D01*
X0195530Y0112646D01*
X0195405Y0112596D01*
X0195279Y0112550D01*
X0195152Y0112508D01*
X0195024Y0112470D01*
X0194894Y0112435D01*
X0194764Y0112404D01*
X0194633Y0112378D01*
X0194501Y0112355D01*
X0194368Y0112336D01*
X0194235Y0112321D01*
X0194101Y0112310D01*
X0193967Y0112303D01*
X0193834Y0112300D01*
X0193700Y0112301D01*
X0193566Y0112306D01*
X0193432Y0112315D01*
X0193299Y0112328D01*
X0193166Y0112345D01*
X0193033Y0112366D01*
X0192902Y0112391D01*
X0192771Y0112419D01*
X0192641Y0112452D01*
X0192512Y0112488D01*
X0192384Y0112529D01*
X0192257Y0112573D01*
X0192132Y0112620D01*
X0192009Y0112672D01*
X0191886Y0112727D01*
X0191766Y0112786D01*
X0191647Y0112848D01*
X0191531Y0112914D01*
X0191416Y0112983D01*
X0191303Y0113056D01*
X0191193Y0113132D01*
X0191085Y0113211D01*
X0190979Y0113294D01*
X0190876Y0113379D01*
X0190776Y0113468D01*
X0190678Y0113559D01*
X0190583Y0113654D01*
X0190490Y0113751D01*
X0190401Y0113851D01*
X0190315Y0113953D01*
X0190232Y0114058D01*
X0190152Y0114166D01*
X0190075Y0114276D01*
X0190001Y0114388D01*
X0189931Y0114502D01*
X0189864Y0114618D01*
X0189801Y0114736D01*
X0189741Y0114856D01*
X0189685Y0114978D01*
X0189633Y0115101D01*
X0189584Y0115226D01*
X0189539Y0115352D01*
X0189498Y0115480D01*
X0189461Y0115608D01*
X0189427Y0115738D01*
X0189397Y0115869D01*
X0189372Y0116000D01*
X0189350Y0116132D01*
X0189332Y0116265D01*
X0189318Y0116399D01*
X0189308Y0116532D01*
X0189302Y0116666D01*
X0189300Y0116800D01*
X0069822Y0133848D02*
X0068319Y0133849D01*
X0066816Y0133815D01*
X0065314Y0133744D01*
X0063815Y0133637D01*
X0062319Y0133494D01*
X0060827Y0133314D01*
X0059339Y0133099D01*
X0057857Y0132848D01*
X0056381Y0132561D01*
X0054913Y0132238D01*
X0053454Y0131880D01*
X0052003Y0131487D01*
X0050562Y0131059D01*
X0049132Y0130596D01*
X0047713Y0130099D01*
X0046307Y0129568D01*
X0044914Y0129003D01*
X0043536Y0128404D01*
X0042172Y0127772D01*
X0040823Y0127108D01*
X0039492Y0126411D01*
X0038177Y0125682D01*
X0036880Y0124921D01*
X0035603Y0124130D01*
X0034344Y0123308D01*
X0033106Y0122455D01*
X0031889Y0121573D01*
X0030694Y0120662D01*
X0029521Y0119722D01*
X0028371Y0118754D01*
X0027244Y0117759D01*
X0026142Y0116737D01*
X0025065Y0115688D01*
X0024014Y0114614D01*
X0022989Y0113514D01*
X0021991Y0112390D01*
X0021020Y0111243D01*
X0020078Y0110072D01*
X0019164Y0108878D01*
X0018279Y0107663D01*
X0017423Y0106427D01*
X0016598Y0105171D01*
X0015804Y0103895D01*
X0015040Y0102601D01*
X0014308Y0101288D01*
X0013608Y0099958D01*
X0012940Y0098611D01*
X0012305Y0097249D01*
X0011703Y0095871D01*
X0011134Y0094480D01*
X0010600Y0093075D01*
X0010099Y0091658D01*
X0009633Y0090229D01*
X0009201Y0088789D01*
X0008805Y0087339D01*
X0008443Y0085880D01*
X0008117Y0084413D01*
X0007826Y0082938D01*
X0007572Y0081457D01*
X0007353Y0079970D01*
X0007170Y0078478D01*
X0007023Y0076982D01*
X0006912Y0075483D01*
X0006838Y0073981D01*
X0006799Y0072479D01*
X0006800Y0072479D02*
X0006800Y0072008D01*
X0006818Y0070553D01*
X0006870Y0069099D01*
X0006958Y0067647D01*
X0007081Y0066197D01*
X0007239Y0064751D01*
X0007432Y0063309D01*
X0007659Y0061872D01*
X0007922Y0060440D01*
X0008218Y0059016D01*
X0008550Y0057599D01*
X0008915Y0056191D01*
X0009314Y0054792D01*
X0009747Y0053403D01*
X0010213Y0052024D01*
X0010713Y0050658D01*
X0011245Y0049304D01*
X0011810Y0047963D01*
X0012407Y0046636D01*
X0013036Y0045324D01*
X0013696Y0044028D01*
X0014388Y0042748D01*
X0015111Y0041485D01*
X0015863Y0040240D01*
X0016646Y0039013D01*
X0017458Y0037806D01*
X0018299Y0036619D01*
X0019168Y0035452D01*
X0020065Y0034307D01*
X0020990Y0033183D01*
X0021942Y0032083D01*
X0022920Y0031005D01*
X0023923Y0029952D01*
X0024952Y0028923D01*
X0026005Y0027920D01*
X0027083Y0026942D01*
X0028183Y0025990D01*
X0029307Y0025065D01*
X0030452Y0024168D01*
X0031619Y0023299D01*
X0032806Y0022458D01*
X0034013Y0021646D01*
X0035240Y0020863D01*
X0036485Y0020111D01*
X0037748Y0019388D01*
X0039028Y0018696D01*
X0040324Y0018036D01*
X0041636Y0017407D01*
X0042963Y0016810D01*
X0044304Y0016245D01*
X0045658Y0015713D01*
X0047024Y0015213D01*
X0048403Y0014747D01*
X0049792Y0014314D01*
X0051191Y0013915D01*
X0052599Y0013550D01*
X0054016Y0013218D01*
X0055440Y0012922D01*
X0056872Y0012659D01*
X0058309Y0012432D01*
X0059751Y0012239D01*
X0061197Y0012081D01*
X0062647Y0011958D01*
X0064099Y0011870D01*
X0065553Y0011818D01*
X0067008Y0011800D01*
X0136300Y0028800D02*
X0136302Y0028934D01*
X0136308Y0029068D01*
X0136318Y0029201D01*
X0136332Y0029335D01*
X0136350Y0029468D01*
X0136372Y0029600D01*
X0136397Y0029731D01*
X0136427Y0029862D01*
X0136461Y0029992D01*
X0136498Y0030120D01*
X0136539Y0030248D01*
X0136584Y0030374D01*
X0136633Y0030499D01*
X0136685Y0030622D01*
X0136741Y0030744D01*
X0136801Y0030864D01*
X0136864Y0030982D01*
X0136931Y0031098D01*
X0137001Y0031212D01*
X0137075Y0031324D01*
X0137152Y0031434D01*
X0137232Y0031542D01*
X0137315Y0031647D01*
X0137401Y0031749D01*
X0137490Y0031849D01*
X0137583Y0031946D01*
X0137678Y0032041D01*
X0137776Y0032132D01*
X0137876Y0032221D01*
X0137979Y0032306D01*
X0138085Y0032389D01*
X0138193Y0032468D01*
X0138303Y0032544D01*
X0138416Y0032617D01*
X0138531Y0032686D01*
X0138647Y0032752D01*
X0138766Y0032814D01*
X0138886Y0032873D01*
X0139009Y0032928D01*
X0139132Y0032980D01*
X0139257Y0033027D01*
X0139384Y0033071D01*
X0139512Y0033112D01*
X0139641Y0033148D01*
X0139771Y0033181D01*
X0139902Y0033209D01*
X0140033Y0033234D01*
X0140166Y0033255D01*
X0140299Y0033272D01*
X0140432Y0033285D01*
X0140566Y0033294D01*
X0140700Y0033299D01*
X0140834Y0033300D01*
X0140967Y0033297D01*
X0141101Y0033290D01*
X0141235Y0033279D01*
X0141368Y0033264D01*
X0141501Y0033245D01*
X0141633Y0033222D01*
X0141764Y0033196D01*
X0141894Y0033165D01*
X0142024Y0033130D01*
X0142152Y0033092D01*
X0142279Y0033050D01*
X0142405Y0033004D01*
X0142530Y0032954D01*
X0142653Y0032901D01*
X0142774Y0032844D01*
X0142894Y0032783D01*
X0143011Y0032719D01*
X0143127Y0032652D01*
X0143241Y0032581D01*
X0143352Y0032506D01*
X0143461Y0032429D01*
X0143568Y0032348D01*
X0143673Y0032264D01*
X0143774Y0032177D01*
X0143874Y0032087D01*
X0143970Y0031994D01*
X0144064Y0031898D01*
X0144155Y0031799D01*
X0144242Y0031698D01*
X0144327Y0031594D01*
X0144409Y0031488D01*
X0144487Y0031380D01*
X0144562Y0031269D01*
X0144634Y0031156D01*
X0144703Y0031040D01*
X0144768Y0030923D01*
X0144829Y0030804D01*
X0144887Y0030683D01*
X0144941Y0030561D01*
X0144992Y0030437D01*
X0145039Y0030311D01*
X0145082Y0030184D01*
X0145121Y0030056D01*
X0145157Y0029927D01*
X0145188Y0029797D01*
X0145216Y0029666D01*
X0145240Y0029534D01*
X0145260Y0029401D01*
X0145276Y0029268D01*
X0145288Y0029135D01*
X0145296Y0029001D01*
X0145300Y0028867D01*
X0145300Y0028733D01*
X0145296Y0028599D01*
X0145288Y0028465D01*
X0145276Y0028332D01*
X0145260Y0028199D01*
X0145240Y0028066D01*
X0145216Y0027934D01*
X0145188Y0027803D01*
X0145157Y0027673D01*
X0145121Y0027544D01*
X0145082Y0027416D01*
X0145039Y0027289D01*
X0144992Y0027163D01*
X0144941Y0027039D01*
X0144887Y0026917D01*
X0144829Y0026796D01*
X0144768Y0026677D01*
X0144703Y0026560D01*
X0144634Y0026444D01*
X0144562Y0026331D01*
X0144487Y0026220D01*
X0144409Y0026112D01*
X0144327Y0026006D01*
X0144242Y0025902D01*
X0144155Y0025801D01*
X0144064Y0025702D01*
X0143970Y0025606D01*
X0143874Y0025513D01*
X0143774Y0025423D01*
X0143673Y0025336D01*
X0143568Y0025252D01*
X0143461Y0025171D01*
X0143352Y0025094D01*
X0143241Y0025019D01*
X0143127Y0024948D01*
X0143011Y0024881D01*
X0142894Y0024817D01*
X0142774Y0024756D01*
X0142653Y0024699D01*
X0142530Y0024646D01*
X0142405Y0024596D01*
X0142279Y0024550D01*
X0142152Y0024508D01*
X0142024Y0024470D01*
X0141894Y0024435D01*
X0141764Y0024404D01*
X0141633Y0024378D01*
X0141501Y0024355D01*
X0141368Y0024336D01*
X0141235Y0024321D01*
X0141101Y0024310D01*
X0140967Y0024303D01*
X0140834Y0024300D01*
X0140700Y0024301D01*
X0140566Y0024306D01*
X0140432Y0024315D01*
X0140299Y0024328D01*
X0140166Y0024345D01*
X0140033Y0024366D01*
X0139902Y0024391D01*
X0139771Y0024419D01*
X0139641Y0024452D01*
X0139512Y0024488D01*
X0139384Y0024529D01*
X0139257Y0024573D01*
X0139132Y0024620D01*
X0139009Y0024672D01*
X0138886Y0024727D01*
X0138766Y0024786D01*
X0138647Y0024848D01*
X0138531Y0024914D01*
X0138416Y0024983D01*
X0138303Y0025056D01*
X0138193Y0025132D01*
X0138085Y0025211D01*
X0137979Y0025294D01*
X0137876Y0025379D01*
X0137776Y0025468D01*
X0137678Y0025559D01*
X0137583Y0025654D01*
X0137490Y0025751D01*
X0137401Y0025851D01*
X0137315Y0025953D01*
X0137232Y0026058D01*
X0137152Y0026166D01*
X0137075Y0026276D01*
X0137001Y0026388D01*
X0136931Y0026502D01*
X0136864Y0026618D01*
X0136801Y0026736D01*
X0136741Y0026856D01*
X0136685Y0026978D01*
X0136633Y0027101D01*
X0136584Y0027226D01*
X0136539Y0027352D01*
X0136498Y0027480D01*
X0136461Y0027608D01*
X0136427Y0027738D01*
X0136397Y0027869D01*
X0136372Y0028000D01*
X0136350Y0028132D01*
X0136332Y0028265D01*
X0136318Y0028399D01*
X0136308Y0028532D01*
X0136302Y0028666D01*
X0136300Y0028800D01*
X0242300Y0028800D02*
X0242302Y0028934D01*
X0242308Y0029068D01*
X0242318Y0029201D01*
X0242332Y0029335D01*
X0242350Y0029468D01*
X0242372Y0029600D01*
X0242397Y0029731D01*
X0242427Y0029862D01*
X0242461Y0029992D01*
X0242498Y0030120D01*
X0242539Y0030248D01*
X0242584Y0030374D01*
X0242633Y0030499D01*
X0242685Y0030622D01*
X0242741Y0030744D01*
X0242801Y0030864D01*
X0242864Y0030982D01*
X0242931Y0031098D01*
X0243001Y0031212D01*
X0243075Y0031324D01*
X0243152Y0031434D01*
X0243232Y0031542D01*
X0243315Y0031647D01*
X0243401Y0031749D01*
X0243490Y0031849D01*
X0243583Y0031946D01*
X0243678Y0032041D01*
X0243776Y0032132D01*
X0243876Y0032221D01*
X0243979Y0032306D01*
X0244085Y0032389D01*
X0244193Y0032468D01*
X0244303Y0032544D01*
X0244416Y0032617D01*
X0244531Y0032686D01*
X0244647Y0032752D01*
X0244766Y0032814D01*
X0244886Y0032873D01*
X0245009Y0032928D01*
X0245132Y0032980D01*
X0245257Y0033027D01*
X0245384Y0033071D01*
X0245512Y0033112D01*
X0245641Y0033148D01*
X0245771Y0033181D01*
X0245902Y0033209D01*
X0246033Y0033234D01*
X0246166Y0033255D01*
X0246299Y0033272D01*
X0246432Y0033285D01*
X0246566Y0033294D01*
X0246700Y0033299D01*
X0246834Y0033300D01*
X0246967Y0033297D01*
X0247101Y0033290D01*
X0247235Y0033279D01*
X0247368Y0033264D01*
X0247501Y0033245D01*
X0247633Y0033222D01*
X0247764Y0033196D01*
X0247894Y0033165D01*
X0248024Y0033130D01*
X0248152Y0033092D01*
X0248279Y0033050D01*
X0248405Y0033004D01*
X0248530Y0032954D01*
X0248653Y0032901D01*
X0248774Y0032844D01*
X0248894Y0032783D01*
X0249011Y0032719D01*
X0249127Y0032652D01*
X0249241Y0032581D01*
X0249352Y0032506D01*
X0249461Y0032429D01*
X0249568Y0032348D01*
X0249673Y0032264D01*
X0249774Y0032177D01*
X0249874Y0032087D01*
X0249970Y0031994D01*
X0250064Y0031898D01*
X0250155Y0031799D01*
X0250242Y0031698D01*
X0250327Y0031594D01*
X0250409Y0031488D01*
X0250487Y0031380D01*
X0250562Y0031269D01*
X0250634Y0031156D01*
X0250703Y0031040D01*
X0250768Y0030923D01*
X0250829Y0030804D01*
X0250887Y0030683D01*
X0250941Y0030561D01*
X0250992Y0030437D01*
X0251039Y0030311D01*
X0251082Y0030184D01*
X0251121Y0030056D01*
X0251157Y0029927D01*
X0251188Y0029797D01*
X0251216Y0029666D01*
X0251240Y0029534D01*
X0251260Y0029401D01*
X0251276Y0029268D01*
X0251288Y0029135D01*
X0251296Y0029001D01*
X0251300Y0028867D01*
X0251300Y0028733D01*
X0251296Y0028599D01*
X0251288Y0028465D01*
X0251276Y0028332D01*
X0251260Y0028199D01*
X0251240Y0028066D01*
X0251216Y0027934D01*
X0251188Y0027803D01*
X0251157Y0027673D01*
X0251121Y0027544D01*
X0251082Y0027416D01*
X0251039Y0027289D01*
X0250992Y0027163D01*
X0250941Y0027039D01*
X0250887Y0026917D01*
X0250829Y0026796D01*
X0250768Y0026677D01*
X0250703Y0026560D01*
X0250634Y0026444D01*
X0250562Y0026331D01*
X0250487Y0026220D01*
X0250409Y0026112D01*
X0250327Y0026006D01*
X0250242Y0025902D01*
X0250155Y0025801D01*
X0250064Y0025702D01*
X0249970Y0025606D01*
X0249874Y0025513D01*
X0249774Y0025423D01*
X0249673Y0025336D01*
X0249568Y0025252D01*
X0249461Y0025171D01*
X0249352Y0025094D01*
X0249241Y0025019D01*
X0249127Y0024948D01*
X0249011Y0024881D01*
X0248894Y0024817D01*
X0248774Y0024756D01*
X0248653Y0024699D01*
X0248530Y0024646D01*
X0248405Y0024596D01*
X0248279Y0024550D01*
X0248152Y0024508D01*
X0248024Y0024470D01*
X0247894Y0024435D01*
X0247764Y0024404D01*
X0247633Y0024378D01*
X0247501Y0024355D01*
X0247368Y0024336D01*
X0247235Y0024321D01*
X0247101Y0024310D01*
X0246967Y0024303D01*
X0246834Y0024300D01*
X0246700Y0024301D01*
X0246566Y0024306D01*
X0246432Y0024315D01*
X0246299Y0024328D01*
X0246166Y0024345D01*
X0246033Y0024366D01*
X0245902Y0024391D01*
X0245771Y0024419D01*
X0245641Y0024452D01*
X0245512Y0024488D01*
X0245384Y0024529D01*
X0245257Y0024573D01*
X0245132Y0024620D01*
X0245009Y0024672D01*
X0244886Y0024727D01*
X0244766Y0024786D01*
X0244647Y0024848D01*
X0244531Y0024914D01*
X0244416Y0024983D01*
X0244303Y0025056D01*
X0244193Y0025132D01*
X0244085Y0025211D01*
X0243979Y0025294D01*
X0243876Y0025379D01*
X0243776Y0025468D01*
X0243678Y0025559D01*
X0243583Y0025654D01*
X0243490Y0025751D01*
X0243401Y0025851D01*
X0243315Y0025953D01*
X0243232Y0026058D01*
X0243152Y0026166D01*
X0243075Y0026276D01*
X0243001Y0026388D01*
X0242931Y0026502D01*
X0242864Y0026618D01*
X0242801Y0026736D01*
X0242741Y0026856D01*
X0242685Y0026978D01*
X0242633Y0027101D01*
X0242584Y0027226D01*
X0242539Y0027352D01*
X0242498Y0027480D01*
X0242461Y0027608D01*
X0242427Y0027738D01*
X0242397Y0027869D01*
X0242372Y0028000D01*
X0242350Y0028132D01*
X0242332Y0028265D01*
X0242318Y0028399D01*
X0242308Y0028532D01*
X0242302Y0028666D01*
X0242300Y0028800D01*
D11*
X0331145Y0060101D02*
X0332746Y0058500D01*
X0335949Y0058500D01*
X0337551Y0060101D01*
X0343796Y0060101D02*
X0345397Y0058500D01*
X0346999Y0058500D01*
X0348600Y0060101D01*
X0343796Y0060101D02*
X0343796Y0068108D01*
X0345397Y0068108D02*
X0342195Y0068108D01*
X0337551Y0066507D02*
X0337551Y0064905D01*
X0335949Y0063304D01*
X0332746Y0063304D01*
X0331145Y0061703D01*
X0331145Y0060101D01*
X0331145Y0066507D02*
X0332746Y0068108D01*
X0335949Y0068108D01*
X0337551Y0066507D01*
X0353244Y0068108D02*
X0353244Y0058500D01*
X0359649Y0058500D02*
X0359649Y0068108D01*
X0364293Y0066507D02*
X0365895Y0068108D01*
X0370699Y0068108D01*
X0370699Y0058500D01*
X0365895Y0058500D01*
X0364293Y0060101D01*
X0364293Y0066507D01*
X0359649Y0063304D02*
X0353244Y0063304D01*
X0350922Y0075101D02*
X0350922Y0081507D01*
X0354125Y0078304D02*
X0347719Y0078304D01*
D12*
X0346798Y0047955D02*
X0349450Y0047955D01*
X0349450Y0042650D01*
X0346798Y0042650D01*
X0345914Y0043534D01*
X0345914Y0047070D01*
X0346798Y0047955D01*
X0343925Y0047070D02*
X0343925Y0043534D01*
X0343041Y0042650D01*
X0341273Y0042650D01*
X0340389Y0043534D01*
X0340389Y0047070D01*
X0341273Y0047955D01*
X0343041Y0047955D01*
X0343925Y0047070D01*
X0338401Y0047955D02*
X0334864Y0042650D01*
X0334864Y0047955D01*
X0338401Y0047955D02*
X0338401Y0042650D01*
X0340389Y0038955D02*
X0343925Y0038955D01*
X0343925Y0036302D01*
X0342157Y0037186D01*
X0341273Y0037186D01*
X0340389Y0036302D01*
X0340389Y0034534D01*
X0341273Y0033650D01*
X0343041Y0033650D01*
X0343925Y0034534D01*
X0345914Y0033650D02*
X0349450Y0033650D01*
X0347682Y0033650D02*
X0347682Y0038955D01*
X0349450Y0037186D01*
X0351438Y0038070D02*
X0352322Y0038955D01*
X0354091Y0038955D01*
X0354975Y0038070D01*
X0354975Y0034534D01*
X0351438Y0038070D01*
X0351438Y0034534D01*
X0352322Y0033650D01*
X0354091Y0033650D01*
X0354975Y0034534D01*
X0356963Y0033650D02*
X0360499Y0033650D01*
X0356963Y0037186D01*
X0356963Y0038070D01*
X0357847Y0038955D01*
X0359615Y0038955D01*
X0360499Y0038070D01*
X0359615Y0042650D02*
X0357847Y0042650D01*
X0356963Y0043534D01*
X0356963Y0047070D01*
X0357847Y0047955D01*
X0359615Y0047955D01*
X0360499Y0047070D01*
X0360499Y0043534D01*
X0359615Y0042650D01*
X0362488Y0042650D02*
X0366024Y0042650D01*
X0366024Y0047955D01*
X0354975Y0047955D02*
X0351438Y0042650D01*
X0351438Y0047955D01*
X0354975Y0047955D02*
X0354975Y0042650D01*
D13*
X0295800Y0047800D03*
X0295800Y0098800D03*
D14*
X0193800Y0116800D03*
X0140800Y0028800D03*
X0246800Y0028800D03*
D15*
X0146800Y0042300D03*
X0106800Y0042300D03*
X0111800Y0062800D03*
X0131800Y0062800D03*
X0131800Y0082800D03*
X0111800Y0082800D03*
X0106800Y0103300D03*
X0146800Y0103300D03*
D16*
X0318237Y0071300D03*
D17*
X0310363Y0071300D03*
D18*
X0234600Y0071800D02*
X0229000Y0071800D01*
X0204600Y0071800D02*
X0199000Y0071800D01*
X0199000Y0061800D02*
X0204600Y0061800D01*
X0229000Y0061800D02*
X0234600Y0061800D01*
X0234600Y0051800D02*
X0229000Y0051800D01*
X0204600Y0051800D02*
X0199000Y0051800D01*
X0199000Y0041800D02*
X0204600Y0041800D01*
X0229000Y0041800D02*
X0234600Y0041800D01*
X0234600Y0081800D02*
X0229000Y0081800D01*
X0204600Y0081800D02*
X0199000Y0081800D01*
X0199000Y0091800D02*
X0204600Y0091800D01*
X0229000Y0091800D02*
X0234600Y0091800D01*
X0234600Y0101800D02*
X0229000Y0101800D01*
X0204600Y0101800D02*
X0199000Y0101800D01*
D19*
X0384261Y0102824D03*
X0384261Y0042824D03*
D20*
X0256957Y0045265D03*
X0061957Y0045265D03*
D21*
X0071800Y0045265D03*
X0081643Y0045265D03*
X0266800Y0045265D03*
X0276643Y0045265D03*
D22*
X0284517Y0072824D03*
X0249083Y0072824D03*
X0089517Y0072824D03*
X0054083Y0072824D03*
D23*
X0156702Y0073224D02*
X0156702Y0067824D01*
X0164202Y0067824D02*
X0164202Y0062424D01*
X0179202Y0062424D02*
X0179202Y0067824D01*
X0171702Y0067824D02*
X0171702Y0073224D01*
D24*
X0308020Y0029643D03*
X0335580Y0029643D03*
D25*
X0331643Y0019800D03*
X0311957Y0019800D03*
D26*
X0357303Y0087104D03*
X0357303Y0096110D03*
X0325763Y0095768D03*
X0350349Y0112184D03*
D27*
X0351717Y0087104D03*
D28*
X0357322Y0087142D03*
X0326086Y0095198D03*
X0326086Y0095236D03*
X0340070Y0112222D03*
X0340070Y0121152D03*
D29*
X0351736Y0087142D03*
D30*
X0357303Y0087180D03*
X0364789Y0093298D03*
X0364789Y0093336D03*
X0364751Y0093488D03*
X0364751Y0093526D03*
X0364751Y0093564D03*
X0364751Y0093602D03*
X0364675Y0093868D03*
X0364675Y0093906D03*
X0364675Y0093944D03*
X0364675Y0093982D03*
X0364675Y0094020D03*
X0364637Y0094058D03*
X0364637Y0094096D03*
X0364637Y0094134D03*
X0364637Y0094172D03*
X0364637Y0094210D03*
X0364561Y0094438D03*
X0364561Y0094476D03*
X0364561Y0094514D03*
X0364561Y0094552D03*
X0364523Y0094590D03*
X0364523Y0094628D03*
X0364523Y0094666D03*
X0364523Y0094704D03*
X0364523Y0094742D03*
X0364447Y0094970D03*
X0364447Y0095008D03*
X0364447Y0095046D03*
X0364447Y0095084D03*
X0364447Y0095122D03*
X0364409Y0095160D03*
X0364409Y0095198D03*
X0364409Y0095236D03*
X0364409Y0095274D03*
X0364371Y0095350D03*
X0364371Y0095388D03*
X0364371Y0095426D03*
X0364371Y0095464D03*
X0364333Y0095540D03*
X0364333Y0095578D03*
X0364333Y0095616D03*
X0364333Y0095654D03*
X0364257Y0095882D03*
X0364257Y0095920D03*
X0364257Y0095958D03*
X0364257Y0095996D03*
X0367753Y0095312D03*
X0367791Y0095502D03*
X0367715Y0095122D03*
X0367905Y0096034D03*
X0367411Y0093640D03*
X0367411Y0093602D03*
X0367373Y0093450D03*
X0367373Y0093412D03*
X0367373Y0093374D03*
X0367373Y0093336D03*
X0367373Y0093298D03*
X0367297Y0092994D03*
X0367297Y0092956D03*
X0357303Y0096034D03*
X0360115Y0108384D03*
X0349209Y0108384D03*
X0367297Y0118036D03*
X0367297Y0118074D03*
X0367373Y0118378D03*
X0367373Y0118416D03*
X0367373Y0118454D03*
X0367373Y0118492D03*
X0367373Y0118530D03*
X0367411Y0118682D03*
X0367411Y0118720D03*
X0367715Y0120202D03*
X0367753Y0120392D03*
X0367791Y0120582D03*
X0367905Y0121114D03*
X0364447Y0120202D03*
X0364447Y0120164D03*
X0364447Y0120126D03*
X0364447Y0120088D03*
X0364447Y0120050D03*
X0364409Y0120240D03*
X0364409Y0120278D03*
X0364409Y0120316D03*
X0364409Y0120354D03*
X0364371Y0120430D03*
X0364371Y0120468D03*
X0364371Y0120506D03*
X0364371Y0120544D03*
X0364333Y0120620D03*
X0364333Y0120658D03*
X0364333Y0120696D03*
X0364333Y0120734D03*
X0364257Y0120962D03*
X0364257Y0121000D03*
X0364257Y0121038D03*
X0364257Y0121076D03*
X0364523Y0119822D03*
X0364523Y0119784D03*
X0364523Y0119746D03*
X0364523Y0119708D03*
X0364523Y0119670D03*
X0364561Y0119632D03*
X0364561Y0119594D03*
X0364561Y0119556D03*
X0364561Y0119518D03*
X0364637Y0119290D03*
X0364637Y0119252D03*
X0364637Y0119214D03*
X0364637Y0119176D03*
X0364637Y0119138D03*
X0364675Y0119100D03*
X0364675Y0119062D03*
X0364675Y0119024D03*
X0364675Y0118986D03*
X0364675Y0118948D03*
X0364751Y0118682D03*
X0364751Y0118644D03*
X0364751Y0118606D03*
X0364751Y0118568D03*
X0364789Y0118416D03*
X0364789Y0118378D03*
X0340051Y0121114D03*
D31*
X0325953Y0095502D03*
X0351717Y0087180D03*
D32*
X0345124Y0087180D03*
X0351660Y0096072D03*
X0349190Y0108574D03*
X0358386Y0112260D03*
X0360096Y0108574D03*
D33*
X0325649Y0095882D03*
X0334731Y0087180D03*
D34*
X0334693Y0087408D03*
X0357303Y0087218D03*
X0366081Y0087788D03*
X0366081Y0087826D03*
X0366081Y0087864D03*
X0366081Y0087902D03*
X0366081Y0087940D03*
X0370071Y0095426D03*
X0370071Y0095464D03*
X0370071Y0095502D03*
X0370071Y0095540D03*
X0370071Y0095578D03*
X0370071Y0095616D03*
X0370071Y0095654D03*
X0370071Y0095692D03*
X0370071Y0095730D03*
X0370071Y0095768D03*
X0370071Y0095806D03*
X0370071Y0095844D03*
X0370071Y0095882D03*
X0370071Y0095920D03*
X0370071Y0095958D03*
X0370071Y0095996D03*
X0370071Y0096034D03*
X0362091Y0096034D03*
X0362091Y0095996D03*
X0362091Y0095958D03*
X0362091Y0095920D03*
X0362091Y0095882D03*
X0362091Y0095844D03*
X0362091Y0095806D03*
X0362091Y0095768D03*
X0362091Y0095730D03*
X0362091Y0095692D03*
X0362091Y0095654D03*
X0362091Y0095616D03*
X0362091Y0095578D03*
X0362091Y0095540D03*
X0362091Y0095502D03*
X0362091Y0095464D03*
X0362091Y0095426D03*
X0357303Y0095996D03*
X0351717Y0095768D03*
X0340051Y0112298D03*
X0348487Y0114084D03*
X0348525Y0114046D03*
X0348411Y0114996D03*
X0348411Y0115034D03*
X0352097Y0114198D03*
X0352135Y0114274D03*
X0352097Y0118644D03*
X0352097Y0118682D03*
X0351983Y0119442D03*
X0362091Y0120506D03*
X0362091Y0120544D03*
X0362091Y0120582D03*
X0362091Y0120620D03*
X0362091Y0120658D03*
X0362091Y0120696D03*
X0362091Y0120734D03*
X0362091Y0120772D03*
X0362091Y0120810D03*
X0362091Y0120848D03*
X0362091Y0120886D03*
X0362091Y0120924D03*
X0362091Y0120962D03*
X0362091Y0121000D03*
X0362091Y0121038D03*
X0362091Y0121076D03*
X0362091Y0121114D03*
X0370071Y0121114D03*
X0370071Y0121076D03*
X0370071Y0121038D03*
X0370071Y0121000D03*
X0370071Y0120962D03*
X0370071Y0120924D03*
X0370071Y0120886D03*
X0370071Y0120848D03*
X0370071Y0120810D03*
X0370071Y0120772D03*
X0370071Y0120734D03*
X0370071Y0120696D03*
X0370071Y0120658D03*
X0370071Y0120620D03*
X0370071Y0120582D03*
X0370071Y0120544D03*
X0370071Y0120506D03*
X0366081Y0113020D03*
X0366081Y0112982D03*
X0366081Y0112944D03*
X0366081Y0112906D03*
X0366081Y0112868D03*
X0340051Y0121076D03*
X0338189Y0118454D03*
D35*
X0326067Y0095274D03*
X0351717Y0087218D03*
X0357303Y0096072D03*
D36*
X0345124Y0087218D03*
X0349190Y0108536D03*
X0358386Y0112298D03*
X0360096Y0108536D03*
D37*
X0334731Y0087218D03*
D38*
X0334674Y0087484D03*
X0335662Y0089270D03*
X0335396Y0090790D03*
X0335358Y0090828D03*
X0331520Y0090030D03*
X0331520Y0089992D03*
X0331520Y0089954D03*
X0331520Y0089916D03*
X0331520Y0089878D03*
X0331520Y0089840D03*
X0331520Y0089802D03*
X0331520Y0093298D03*
X0331520Y0093336D03*
X0331558Y0094096D03*
X0331596Y0094134D03*
X0328176Y0092880D03*
X0328176Y0092842D03*
X0328176Y0092804D03*
X0335320Y0094172D03*
X0335358Y0094134D03*
X0341856Y0098656D03*
X0345314Y0098694D03*
X0345314Y0102342D03*
X0345314Y0102380D03*
X0341628Y0102494D03*
X0341628Y0102532D03*
X0341628Y0106180D03*
X0341628Y0106218D03*
X0341628Y0106256D03*
X0345276Y0106408D03*
X0348582Y0106522D03*
X0352230Y0106180D03*
X0352230Y0106142D03*
X0359488Y0106522D03*
X0363136Y0106180D03*
X0363136Y0106142D03*
X0358310Y0112640D03*
X0358994Y0114350D03*
X0355346Y0114692D03*
X0355346Y0114730D03*
X0351888Y0113894D03*
X0348544Y0115262D03*
X0341666Y0114008D03*
X0340070Y0112336D03*
X0338436Y0114008D03*
X0338436Y0119328D03*
X0338474Y0119366D03*
X0340070Y0121038D03*
X0341666Y0119328D03*
X0348772Y0119632D03*
X0351964Y0118340D03*
X0355688Y0094248D03*
X0358918Y0094248D03*
X0352496Y0093716D03*
X0348848Y0093716D03*
X0348848Y0093678D03*
X0348848Y0089498D03*
X0348848Y0089460D03*
X0345732Y0089270D03*
X0345048Y0087560D03*
X0342084Y0089612D03*
X0342084Y0089650D03*
X0351736Y0087484D03*
X0355688Y0088966D03*
X0357322Y0087256D03*
X0358918Y0088966D03*
X0352572Y0089460D03*
X0352572Y0089498D03*
X0352534Y0089422D03*
X0352534Y0089384D03*
D39*
X0351736Y0087256D03*
X0334712Y0087294D03*
X0326162Y0095008D03*
X0326162Y0095046D03*
D40*
X0325991Y0095426D03*
X0345105Y0087256D03*
X0349209Y0108498D03*
X0358367Y0112336D03*
X0360115Y0108498D03*
D41*
X0350254Y0121152D03*
X0326048Y0095312D03*
X0334712Y0087256D03*
D42*
X0334674Y0087560D03*
X0331634Y0089270D03*
X0335130Y0091056D03*
X0328062Y0093222D03*
X0331710Y0094324D03*
X0342198Y0089270D03*
X0345048Y0087674D03*
X0345618Y0089118D03*
X0348962Y0089194D03*
X0351736Y0087598D03*
X0357322Y0087294D03*
X0352344Y0093982D03*
X0348962Y0093944D03*
X0343680Y0097136D03*
X0345162Y0098580D03*
X0345162Y0102114D03*
X0341742Y0102190D03*
X0341742Y0106522D03*
X0344516Y0108080D03*
X0348696Y0106674D03*
X0349266Y0108118D03*
X0352116Y0106522D03*
X0359602Y0106674D03*
X0363022Y0106522D03*
X0358310Y0112754D03*
X0358880Y0114198D03*
X0355460Y0114350D03*
X0348696Y0115414D03*
X0340070Y0112374D03*
D43*
X0365036Y0116934D03*
X0365036Y0116972D03*
X0365036Y0117010D03*
X0365036Y0117048D03*
X0365036Y0117086D03*
X0364998Y0117200D03*
X0364998Y0117238D03*
X0365112Y0116668D03*
X0365112Y0116630D03*
X0365112Y0116592D03*
X0365112Y0116554D03*
X0367050Y0116554D03*
X0367050Y0116592D03*
X0367050Y0116630D03*
X0367050Y0116668D03*
X0367126Y0116972D03*
X0367126Y0117010D03*
X0367126Y0117048D03*
X0367126Y0117086D03*
X0367164Y0117238D03*
X0367164Y0092158D03*
X0367126Y0092006D03*
X0367126Y0091968D03*
X0367126Y0091930D03*
X0367126Y0091892D03*
X0367050Y0091588D03*
X0367050Y0091550D03*
X0367050Y0091512D03*
X0367050Y0091474D03*
X0365112Y0091474D03*
X0365112Y0091512D03*
X0365112Y0091550D03*
X0365112Y0091588D03*
X0365036Y0091854D03*
X0365036Y0091892D03*
X0365036Y0091930D03*
X0365036Y0091968D03*
X0365036Y0092006D03*
X0364998Y0092120D03*
X0364998Y0092158D03*
X0351736Y0087294D03*
D44*
X0345105Y0087294D03*
X0326105Y0095160D03*
X0351717Y0095958D03*
X0349209Y0108460D03*
X0344535Y0108460D03*
X0358367Y0112374D03*
D45*
X0359013Y0114388D03*
X0359051Y0114502D03*
X0362205Y0113096D03*
X0362205Y0113058D03*
X0362205Y0113020D03*
X0362205Y0112982D03*
X0362205Y0112944D03*
X0362205Y0112906D03*
X0362205Y0112868D03*
X0362205Y0112830D03*
X0362205Y0112792D03*
X0362205Y0112754D03*
X0362205Y0112716D03*
X0362205Y0112678D03*
X0362205Y0112640D03*
X0362205Y0112602D03*
X0362205Y0112564D03*
X0362205Y0112526D03*
X0362205Y0112488D03*
X0362205Y0112450D03*
X0362205Y0112412D03*
X0366081Y0113438D03*
X0366081Y0113476D03*
X0366081Y0113514D03*
X0366081Y0113552D03*
X0369957Y0113096D03*
X0369957Y0113058D03*
X0369957Y0113020D03*
X0369957Y0112982D03*
X0369957Y0112944D03*
X0369957Y0112906D03*
X0369957Y0112868D03*
X0369957Y0112830D03*
X0369957Y0112792D03*
X0369957Y0112754D03*
X0369957Y0112716D03*
X0369957Y0112678D03*
X0369957Y0112640D03*
X0369957Y0112602D03*
X0369957Y0112564D03*
X0369957Y0112526D03*
X0369957Y0112488D03*
X0369957Y0112450D03*
X0369957Y0112412D03*
X0355327Y0114768D03*
X0355327Y0114806D03*
X0355327Y0114844D03*
X0350311Y0112336D03*
X0348677Y0113894D03*
X0348525Y0115224D03*
X0341685Y0114046D03*
X0338417Y0114046D03*
X0338379Y0114084D03*
X0351983Y0118378D03*
X0351831Y0119594D03*
X0349247Y0108232D03*
X0348563Y0106484D03*
X0348563Y0106446D03*
X0348525Y0106370D03*
X0345333Y0106332D03*
X0345333Y0106294D03*
X0345295Y0106370D03*
X0344497Y0108194D03*
X0341609Y0106142D03*
X0341609Y0106104D03*
X0341609Y0106066D03*
X0341609Y0106028D03*
X0352249Y0106028D03*
X0352249Y0106066D03*
X0352249Y0106104D03*
X0359431Y0106370D03*
X0359469Y0106446D03*
X0359469Y0106484D03*
X0363155Y0106104D03*
X0363155Y0106066D03*
X0363155Y0106028D03*
X0345371Y0102608D03*
X0345371Y0102570D03*
X0345371Y0102532D03*
X0345333Y0102456D03*
X0345333Y0102418D03*
X0344497Y0100594D03*
X0345333Y0098732D03*
X0341837Y0098694D03*
X0341609Y0102570D03*
X0341609Y0102608D03*
X0341609Y0102646D03*
X0341609Y0102684D03*
X0351717Y0095692D03*
X0355669Y0094210D03*
X0357303Y0095958D03*
X0358937Y0094210D03*
X0352553Y0093526D03*
X0352553Y0093488D03*
X0352515Y0093602D03*
X0352515Y0093640D03*
X0352515Y0093678D03*
X0348829Y0093640D03*
X0348829Y0093602D03*
X0348829Y0089650D03*
X0348829Y0089612D03*
X0348829Y0089574D03*
X0348829Y0089536D03*
X0345789Y0089422D03*
X0345751Y0089308D03*
X0342065Y0089688D03*
X0342065Y0089726D03*
X0342065Y0089764D03*
X0335681Y0089346D03*
X0335681Y0089308D03*
X0335453Y0090714D03*
X0335415Y0090752D03*
X0331501Y0090752D03*
X0331501Y0090790D03*
X0331501Y0090828D03*
X0331501Y0090866D03*
X0331501Y0090904D03*
X0331501Y0090942D03*
X0331501Y0090980D03*
X0331501Y0091018D03*
X0331501Y0091056D03*
X0331501Y0091094D03*
X0331501Y0091132D03*
X0331501Y0091170D03*
X0331501Y0091208D03*
X0331501Y0091246D03*
X0331501Y0091284D03*
X0331501Y0091322D03*
X0331501Y0091360D03*
X0331501Y0091398D03*
X0331501Y0090714D03*
X0331501Y0090676D03*
X0331501Y0090638D03*
X0331501Y0090600D03*
X0331501Y0090562D03*
X0331501Y0090524D03*
X0331501Y0090486D03*
X0331501Y0090448D03*
X0331501Y0090410D03*
X0331501Y0090372D03*
X0331501Y0090334D03*
X0331501Y0090296D03*
X0331501Y0090258D03*
X0331501Y0090220D03*
X0331501Y0090182D03*
X0331501Y0090144D03*
X0331501Y0090106D03*
X0331501Y0090068D03*
X0331197Y0087332D03*
X0331501Y0093374D03*
X0331501Y0093412D03*
X0331501Y0093450D03*
X0331539Y0094020D03*
X0331539Y0094058D03*
X0328195Y0092766D03*
X0328195Y0092728D03*
X0328195Y0092690D03*
X0328195Y0092652D03*
X0335377Y0094096D03*
X0352591Y0089688D03*
X0352591Y0089650D03*
X0352591Y0089612D03*
X0352591Y0089574D03*
X0352591Y0089536D03*
X0358937Y0089004D03*
X0358975Y0089042D03*
X0362205Y0088016D03*
X0362205Y0087978D03*
X0362205Y0087940D03*
X0362205Y0087902D03*
X0362205Y0087864D03*
X0362205Y0087826D03*
X0362205Y0087788D03*
X0362205Y0087750D03*
X0362205Y0087712D03*
X0362205Y0087674D03*
X0362205Y0087636D03*
X0362205Y0087598D03*
X0362205Y0087560D03*
X0362205Y0087522D03*
X0362205Y0087484D03*
X0362205Y0087446D03*
X0362205Y0087408D03*
X0362205Y0087370D03*
X0362205Y0087332D03*
X0366081Y0088358D03*
X0366081Y0088396D03*
X0366081Y0088434D03*
X0366081Y0088472D03*
X0369957Y0088016D03*
X0369957Y0087978D03*
X0369957Y0087940D03*
X0369957Y0087902D03*
X0369957Y0087864D03*
X0369957Y0087826D03*
X0369957Y0087788D03*
X0369957Y0087750D03*
X0369957Y0087712D03*
X0369957Y0087674D03*
X0369957Y0087636D03*
X0369957Y0087598D03*
X0369957Y0087560D03*
X0369957Y0087522D03*
X0369957Y0087484D03*
X0369957Y0087446D03*
X0369957Y0087408D03*
X0369957Y0087370D03*
X0369957Y0087332D03*
D46*
X0366081Y0087332D03*
X0366081Y0087370D03*
X0351717Y0095844D03*
X0344535Y0108346D03*
X0366081Y0112412D03*
X0366081Y0112450D03*
D47*
X0366081Y0114540D03*
X0366081Y0114578D03*
X0366081Y0114616D03*
X0366081Y0114654D03*
X0366081Y0114692D03*
X0358291Y0112830D03*
X0355555Y0114236D03*
X0350311Y0112412D03*
X0351679Y0118036D03*
X0340051Y0120962D03*
X0340051Y0112412D03*
X0341837Y0106598D03*
X0352021Y0106636D03*
X0360153Y0108004D03*
X0362927Y0106636D03*
X0357303Y0095882D03*
X0351717Y0095464D03*
X0342293Y0089156D03*
X0345029Y0087750D03*
X0351717Y0087674D03*
X0357303Y0087332D03*
X0366081Y0089460D03*
X0366081Y0089498D03*
X0366081Y0089536D03*
X0366081Y0089574D03*
X0366081Y0089612D03*
X0331729Y0089080D03*
X0331729Y0092918D03*
X0327967Y0093336D03*
D48*
X0351736Y0087332D03*
X0367392Y0093488D03*
X0367392Y0093526D03*
X0367392Y0093564D03*
X0367430Y0093678D03*
X0367430Y0093716D03*
X0367430Y0093754D03*
X0367430Y0093792D03*
X0367430Y0093830D03*
X0367468Y0093868D03*
X0367468Y0093906D03*
X0367468Y0093944D03*
X0367468Y0093982D03*
X0367468Y0094020D03*
X0367506Y0094058D03*
X0367506Y0094096D03*
X0367506Y0094134D03*
X0367506Y0094172D03*
X0367506Y0094210D03*
X0367544Y0094248D03*
X0367544Y0094286D03*
X0367544Y0094324D03*
X0367544Y0094362D03*
X0367582Y0094400D03*
X0367582Y0094438D03*
X0367582Y0094476D03*
X0367582Y0094514D03*
X0367582Y0094552D03*
X0367620Y0094590D03*
X0367620Y0094628D03*
X0367620Y0094666D03*
X0367620Y0094704D03*
X0367620Y0094742D03*
X0367658Y0094780D03*
X0367658Y0094818D03*
X0367658Y0094856D03*
X0367658Y0094894D03*
X0367658Y0094932D03*
X0367696Y0094970D03*
X0367696Y0095008D03*
X0367696Y0095046D03*
X0367696Y0095084D03*
X0367734Y0095160D03*
X0367734Y0095198D03*
X0367734Y0095236D03*
X0367734Y0095274D03*
X0367810Y0095540D03*
X0367810Y0095578D03*
X0367810Y0095616D03*
X0367810Y0095654D03*
X0367848Y0095692D03*
X0367848Y0095730D03*
X0367848Y0095768D03*
X0367848Y0095806D03*
X0367886Y0095882D03*
X0367886Y0095920D03*
X0367886Y0095958D03*
X0367886Y0095996D03*
X0364580Y0094400D03*
X0367392Y0118568D03*
X0367392Y0118606D03*
X0367392Y0118644D03*
X0367430Y0118758D03*
X0367430Y0118796D03*
X0367430Y0118834D03*
X0367430Y0118872D03*
X0367430Y0118910D03*
X0367468Y0118948D03*
X0367468Y0118986D03*
X0367468Y0119024D03*
X0367468Y0119062D03*
X0367468Y0119100D03*
X0367506Y0119138D03*
X0367506Y0119176D03*
X0367506Y0119214D03*
X0367506Y0119252D03*
X0367506Y0119290D03*
X0367544Y0119328D03*
X0367544Y0119366D03*
X0367544Y0119404D03*
X0367544Y0119442D03*
X0367582Y0119480D03*
X0367582Y0119518D03*
X0367582Y0119556D03*
X0367582Y0119594D03*
X0367582Y0119632D03*
X0367620Y0119670D03*
X0367620Y0119708D03*
X0367620Y0119746D03*
X0367620Y0119784D03*
X0367620Y0119822D03*
X0367658Y0119860D03*
X0367658Y0119898D03*
X0367658Y0119936D03*
X0367658Y0119974D03*
X0367658Y0120012D03*
X0367696Y0120050D03*
X0367696Y0120088D03*
X0367696Y0120126D03*
X0367696Y0120164D03*
X0367734Y0120240D03*
X0367734Y0120278D03*
X0367734Y0120316D03*
X0367734Y0120354D03*
X0367810Y0120620D03*
X0367810Y0120658D03*
X0367810Y0120696D03*
X0367810Y0120734D03*
X0367848Y0120772D03*
X0367848Y0120810D03*
X0367848Y0120848D03*
X0367848Y0120886D03*
X0367886Y0120962D03*
X0367886Y0121000D03*
X0367886Y0121038D03*
X0367886Y0121076D03*
X0364580Y0119480D03*
D49*
X0352135Y0118986D03*
X0352135Y0118948D03*
X0352135Y0118910D03*
X0352135Y0118872D03*
X0352135Y0118834D03*
X0352097Y0119138D03*
X0352097Y0119176D03*
X0352097Y0119214D03*
X0352059Y0119252D03*
X0352059Y0119290D03*
X0350273Y0121076D03*
X0348525Y0119366D03*
X0348373Y0114882D03*
X0348373Y0114844D03*
X0348373Y0114806D03*
X0348411Y0114274D03*
X0352173Y0114426D03*
X0352173Y0114464D03*
X0352173Y0114502D03*
X0352211Y0114540D03*
X0352211Y0114578D03*
X0352211Y0114616D03*
X0352211Y0114654D03*
X0351717Y0095806D03*
X0333439Y0096034D03*
X0328347Y0095882D03*
X0328347Y0095844D03*
X0328347Y0095806D03*
X0328347Y0095768D03*
X0328347Y0095730D03*
X0328347Y0095692D03*
X0328347Y0095654D03*
X0328347Y0095616D03*
X0328347Y0095578D03*
X0328347Y0095540D03*
X0328347Y0095502D03*
X0328347Y0095464D03*
X0328347Y0095426D03*
X0328347Y0095388D03*
X0328347Y0095350D03*
X0328347Y0095312D03*
X0328347Y0095274D03*
X0328347Y0095236D03*
X0328347Y0095198D03*
X0328347Y0095160D03*
X0328347Y0095122D03*
X0328347Y0095084D03*
X0328347Y0095046D03*
X0328347Y0095008D03*
X0328347Y0094970D03*
X0328347Y0094932D03*
X0328347Y0094894D03*
X0328347Y0094856D03*
X0328347Y0094818D03*
X0328347Y0094780D03*
X0328347Y0094742D03*
X0348677Y0088244D03*
X0348677Y0088206D03*
X0348677Y0088168D03*
X0348677Y0088130D03*
X0348677Y0088092D03*
X0348677Y0088054D03*
X0348677Y0088016D03*
X0348677Y0087978D03*
X0348677Y0087940D03*
X0348677Y0087902D03*
X0348677Y0087864D03*
X0348677Y0087826D03*
X0348677Y0087788D03*
X0348677Y0087750D03*
X0348677Y0087712D03*
X0348677Y0087674D03*
X0348677Y0087636D03*
X0348677Y0087598D03*
X0348677Y0087560D03*
X0348677Y0087522D03*
X0348677Y0087484D03*
X0348677Y0087446D03*
X0348677Y0087408D03*
X0348677Y0087370D03*
X0348677Y0087332D03*
D50*
X0345086Y0087332D03*
X0326200Y0094932D03*
X0344516Y0100366D03*
X0344516Y0108422D03*
X0358348Y0112412D03*
D51*
X0358348Y0112526D03*
X0355194Y0112526D03*
X0355194Y0112564D03*
X0355194Y0112602D03*
X0355194Y0112640D03*
X0355194Y0112678D03*
X0355194Y0112716D03*
X0355194Y0112754D03*
X0355194Y0112792D03*
X0355194Y0112830D03*
X0355194Y0112868D03*
X0355194Y0112906D03*
X0355194Y0112944D03*
X0355194Y0112982D03*
X0355194Y0113020D03*
X0355194Y0113058D03*
X0355194Y0113096D03*
X0355194Y0113134D03*
X0355194Y0113172D03*
X0355194Y0113210D03*
X0355194Y0113248D03*
X0355194Y0113286D03*
X0355194Y0113324D03*
X0355194Y0113362D03*
X0355194Y0113400D03*
X0355194Y0112488D03*
X0355194Y0112450D03*
X0355194Y0112412D03*
X0352116Y0114236D03*
X0350330Y0112298D03*
X0348468Y0114122D03*
X0348392Y0114920D03*
X0348392Y0114958D03*
X0348544Y0119404D03*
X0348582Y0119480D03*
X0352002Y0119404D03*
X0352116Y0118796D03*
X0352116Y0118758D03*
X0352116Y0118720D03*
X0352382Y0108422D03*
X0352382Y0108384D03*
X0352382Y0108346D03*
X0352382Y0108308D03*
X0352382Y0108270D03*
X0352382Y0108232D03*
X0352382Y0108194D03*
X0352382Y0108156D03*
X0352382Y0108118D03*
X0352382Y0108080D03*
X0352382Y0108042D03*
X0352382Y0108004D03*
X0352382Y0107966D03*
X0352382Y0107928D03*
X0352382Y0107890D03*
X0352382Y0107852D03*
X0352382Y0107814D03*
X0352382Y0107776D03*
X0352382Y0107738D03*
X0352382Y0107700D03*
X0352382Y0107662D03*
X0352382Y0107624D03*
X0352382Y0107586D03*
X0352382Y0107548D03*
X0352382Y0107510D03*
X0352382Y0107472D03*
X0349228Y0108308D03*
X0360134Y0108308D03*
X0341932Y0088320D03*
X0341932Y0088282D03*
X0341932Y0088244D03*
X0341932Y0088206D03*
X0341932Y0088168D03*
X0341932Y0088130D03*
X0341932Y0088092D03*
X0341932Y0088054D03*
X0341932Y0088016D03*
X0341932Y0087978D03*
X0341932Y0087940D03*
X0341932Y0087902D03*
X0341932Y0087864D03*
X0341932Y0087826D03*
X0341932Y0087788D03*
X0341932Y0087750D03*
X0341932Y0087712D03*
X0341932Y0087674D03*
X0341932Y0087636D03*
X0341932Y0087598D03*
X0341932Y0087560D03*
X0341932Y0087522D03*
X0341932Y0087484D03*
X0341932Y0087446D03*
X0341932Y0087408D03*
X0341932Y0087370D03*
X0341932Y0087332D03*
D52*
X0338664Y0087332D03*
X0338664Y0087370D03*
X0338664Y0087408D03*
X0338664Y0087446D03*
X0338664Y0087484D03*
X0338664Y0087522D03*
X0338664Y0087560D03*
X0338664Y0087598D03*
X0338664Y0087636D03*
X0338664Y0087674D03*
X0338664Y0087712D03*
X0338664Y0087750D03*
X0338664Y0087788D03*
X0338664Y0087826D03*
X0338664Y0087864D03*
X0338664Y0087902D03*
X0338664Y0087940D03*
X0338664Y0087978D03*
X0338664Y0088016D03*
X0338664Y0088054D03*
X0338664Y0088092D03*
X0338664Y0088130D03*
X0338664Y0088168D03*
X0338664Y0088206D03*
X0338664Y0088244D03*
X0338664Y0088282D03*
X0338664Y0088320D03*
X0338664Y0088358D03*
X0338664Y0088396D03*
X0338664Y0088434D03*
X0338664Y0088472D03*
X0338664Y0088510D03*
X0338664Y0088548D03*
X0338664Y0088586D03*
X0338664Y0088624D03*
X0338664Y0088662D03*
X0338664Y0088700D03*
X0338664Y0088738D03*
X0338664Y0088776D03*
X0338664Y0088814D03*
X0338664Y0088852D03*
X0338664Y0088890D03*
X0338664Y0088928D03*
X0338664Y0088966D03*
X0338664Y0089004D03*
X0338664Y0089042D03*
X0338664Y0089080D03*
X0338664Y0089118D03*
X0338664Y0089156D03*
X0338664Y0089194D03*
X0338664Y0089232D03*
X0338664Y0089270D03*
X0338664Y0089308D03*
X0338664Y0089346D03*
X0338664Y0089384D03*
X0338664Y0089422D03*
X0338664Y0089460D03*
X0338664Y0089498D03*
X0338664Y0089536D03*
X0338664Y0089574D03*
X0338664Y0089612D03*
X0338664Y0089650D03*
X0338664Y0089688D03*
X0338664Y0089726D03*
X0338664Y0089764D03*
X0338664Y0089802D03*
X0338664Y0089840D03*
X0338664Y0089878D03*
X0338664Y0089916D03*
X0338664Y0089954D03*
X0338664Y0089992D03*
X0338664Y0090030D03*
X0338664Y0090068D03*
X0338664Y0090106D03*
X0338664Y0090144D03*
X0338664Y0090182D03*
X0338664Y0090220D03*
X0338664Y0090258D03*
X0338664Y0090296D03*
X0338664Y0090334D03*
X0338664Y0090372D03*
X0338664Y0090410D03*
X0338664Y0090448D03*
X0338664Y0090486D03*
X0338664Y0090524D03*
X0338664Y0090562D03*
X0338664Y0090600D03*
X0338664Y0090638D03*
X0338664Y0090676D03*
X0338664Y0090714D03*
X0338664Y0090752D03*
X0338664Y0090790D03*
X0338664Y0090828D03*
X0338664Y0090866D03*
X0338664Y0090904D03*
X0338664Y0090942D03*
X0338664Y0090980D03*
X0338664Y0091018D03*
X0338664Y0091056D03*
X0338664Y0091094D03*
X0338664Y0091132D03*
X0338664Y0091170D03*
X0338664Y0091208D03*
X0338664Y0091246D03*
X0338664Y0091284D03*
X0338664Y0091322D03*
X0338664Y0091360D03*
X0338664Y0091398D03*
X0338664Y0091436D03*
X0338664Y0091474D03*
X0338664Y0091512D03*
X0338664Y0091550D03*
X0338664Y0091588D03*
X0338664Y0091626D03*
X0338664Y0091664D03*
X0338664Y0091702D03*
X0338664Y0091740D03*
X0338664Y0091778D03*
X0338664Y0091816D03*
X0338664Y0091854D03*
X0338664Y0091892D03*
X0338664Y0091930D03*
X0338664Y0091968D03*
X0338664Y0092006D03*
X0338664Y0092044D03*
X0338664Y0092082D03*
X0338664Y0092120D03*
X0338664Y0092158D03*
X0338664Y0092196D03*
X0338664Y0092234D03*
X0338664Y0092272D03*
X0338664Y0092310D03*
X0338664Y0092348D03*
X0338664Y0092386D03*
X0338664Y0092424D03*
X0338664Y0092462D03*
X0338664Y0092500D03*
X0338664Y0092538D03*
X0338664Y0092576D03*
X0338664Y0092614D03*
X0338664Y0092652D03*
X0338664Y0092690D03*
X0338664Y0092728D03*
X0338664Y0092766D03*
X0338664Y0092804D03*
X0338664Y0092842D03*
X0338664Y0092880D03*
X0338664Y0092918D03*
X0338664Y0092956D03*
X0338664Y0092994D03*
X0338664Y0093032D03*
X0338664Y0093070D03*
X0338664Y0093108D03*
X0338664Y0093146D03*
X0338664Y0093184D03*
X0338664Y0093222D03*
X0338664Y0093260D03*
X0338664Y0093298D03*
X0338664Y0093336D03*
X0338664Y0093374D03*
X0338664Y0093412D03*
X0338664Y0093450D03*
X0338664Y0093488D03*
X0338664Y0093526D03*
X0338664Y0093564D03*
X0338664Y0093602D03*
X0338664Y0093640D03*
X0338664Y0093678D03*
X0338664Y0093716D03*
X0338664Y0093754D03*
X0338664Y0093792D03*
X0338664Y0093830D03*
X0338664Y0093868D03*
X0338664Y0093906D03*
X0338664Y0093944D03*
X0338664Y0093982D03*
X0338664Y0094020D03*
X0338664Y0094058D03*
X0338664Y0094096D03*
X0338664Y0094134D03*
X0338664Y0094172D03*
X0338664Y0094210D03*
X0338664Y0094248D03*
X0338664Y0094286D03*
X0338664Y0094324D03*
X0338664Y0094362D03*
X0338664Y0094400D03*
X0338664Y0094438D03*
X0338664Y0094476D03*
X0338664Y0094514D03*
X0338664Y0094552D03*
X0338664Y0094590D03*
X0338664Y0094628D03*
X0338664Y0094666D03*
X0338664Y0094704D03*
X0338664Y0094742D03*
X0338664Y0094780D03*
X0338664Y0094818D03*
X0338664Y0094856D03*
X0338664Y0094894D03*
X0338664Y0094932D03*
X0338664Y0094970D03*
X0338664Y0095008D03*
X0338664Y0095046D03*
X0338664Y0095084D03*
X0338664Y0095122D03*
X0338664Y0095160D03*
X0338664Y0095198D03*
X0338664Y0095236D03*
X0338664Y0095274D03*
X0338664Y0095312D03*
X0338664Y0095350D03*
X0338664Y0095388D03*
X0338664Y0095426D03*
X0338664Y0095464D03*
X0338664Y0095502D03*
X0338664Y0095540D03*
X0338664Y0095578D03*
X0338664Y0095616D03*
X0338664Y0095654D03*
X0338664Y0095692D03*
X0338664Y0095730D03*
X0338664Y0095768D03*
X0338664Y0095806D03*
X0338664Y0095844D03*
X0338664Y0095882D03*
X0338664Y0095920D03*
X0338664Y0095958D03*
X0338664Y0095996D03*
X0338664Y0096034D03*
X0338664Y0096072D03*
X0338664Y0096110D03*
X0338664Y0096148D03*
X0338664Y0096186D03*
X0338664Y0096224D03*
X0338664Y0096262D03*
X0338664Y0096300D03*
X0338664Y0096338D03*
X0338664Y0096376D03*
X0338664Y0096414D03*
X0338664Y0096452D03*
X0338664Y0096490D03*
X0338664Y0096528D03*
X0338664Y0096566D03*
X0338664Y0096604D03*
X0338664Y0096642D03*
X0338664Y0096680D03*
X0338664Y0096718D03*
X0338664Y0096756D03*
X0338664Y0096794D03*
X0338664Y0096832D03*
X0338664Y0096870D03*
X0338664Y0096908D03*
X0338664Y0096946D03*
X0338664Y0096984D03*
X0338664Y0097022D03*
X0338664Y0097060D03*
X0338664Y0097098D03*
X0338664Y0097136D03*
X0338664Y0097174D03*
X0338664Y0097212D03*
X0338664Y0097250D03*
X0338664Y0097288D03*
X0338664Y0097326D03*
X0338664Y0097364D03*
X0338664Y0097402D03*
X0338664Y0097440D03*
X0338664Y0097478D03*
X0338664Y0097516D03*
X0338664Y0097554D03*
X0338664Y0097592D03*
X0338664Y0097630D03*
X0338664Y0097668D03*
X0338664Y0097706D03*
X0338664Y0097744D03*
X0338664Y0097782D03*
X0338664Y0097820D03*
X0338664Y0097858D03*
X0338664Y0097896D03*
X0338664Y0097934D03*
X0338664Y0097972D03*
X0338664Y0098010D03*
X0338664Y0098048D03*
X0338664Y0098086D03*
X0338664Y0098124D03*
X0338664Y0098162D03*
X0338664Y0098200D03*
X0338664Y0098238D03*
X0338664Y0098276D03*
X0338664Y0098314D03*
X0338664Y0098352D03*
X0338664Y0098390D03*
X0338664Y0098428D03*
X0338664Y0098466D03*
X0338664Y0098504D03*
X0338664Y0098542D03*
X0338664Y0098580D03*
X0338664Y0098618D03*
X0338664Y0098656D03*
X0338664Y0098694D03*
X0338664Y0098732D03*
X0341628Y0099188D03*
X0341666Y0099036D03*
X0341666Y0098998D03*
X0341704Y0098922D03*
X0341704Y0098884D03*
X0341590Y0099454D03*
X0341552Y0099948D03*
X0341552Y0099986D03*
X0341552Y0100024D03*
X0341552Y0100062D03*
X0341552Y0100100D03*
X0341552Y0100138D03*
X0341552Y0100176D03*
X0341552Y0100214D03*
X0341552Y0100252D03*
X0341552Y0100290D03*
X0341552Y0100328D03*
X0341552Y0100366D03*
X0341552Y0100404D03*
X0341552Y0100442D03*
X0341552Y0100480D03*
X0341552Y0100518D03*
X0341552Y0100556D03*
X0341552Y0100594D03*
X0341552Y0100632D03*
X0341552Y0100670D03*
X0341552Y0100708D03*
X0341552Y0100746D03*
X0341552Y0100784D03*
X0341552Y0100822D03*
X0341552Y0100860D03*
X0341552Y0100898D03*
X0341552Y0100936D03*
X0345466Y0099150D03*
X0345466Y0099112D03*
X0345428Y0098998D03*
X0345428Y0098960D03*
X0345428Y0098922D03*
X0348468Y0099872D03*
X0348468Y0099910D03*
X0348468Y0099948D03*
X0348468Y0099986D03*
X0348468Y0100024D03*
X0348468Y0100062D03*
X0348468Y0100100D03*
X0348468Y0100138D03*
X0348468Y0100176D03*
X0348468Y0100214D03*
X0348468Y0100252D03*
X0348468Y0100290D03*
X0348468Y0100328D03*
X0348468Y0100366D03*
X0348468Y0100404D03*
X0348468Y0100442D03*
X0348468Y0100480D03*
X0348468Y0100518D03*
X0348468Y0100556D03*
X0348468Y0100594D03*
X0348468Y0100632D03*
X0348468Y0100670D03*
X0348468Y0100708D03*
X0348468Y0100746D03*
X0348468Y0100784D03*
X0348468Y0100822D03*
X0348468Y0100860D03*
X0348468Y0100898D03*
X0348468Y0100936D03*
X0348468Y0100974D03*
X0348468Y0101012D03*
X0348468Y0101050D03*
X0348468Y0101088D03*
X0348468Y0101126D03*
X0348468Y0101164D03*
X0348468Y0101202D03*
X0348468Y0101240D03*
X0348468Y0101278D03*
X0348468Y0101316D03*
X0348468Y0101354D03*
X0348468Y0101392D03*
X0348468Y0101430D03*
X0348468Y0101468D03*
X0348468Y0101506D03*
X0348468Y0101544D03*
X0348468Y0101582D03*
X0348468Y0101620D03*
X0348468Y0101658D03*
X0348468Y0101696D03*
X0348468Y0101734D03*
X0348468Y0101772D03*
X0348468Y0101810D03*
X0348468Y0101848D03*
X0348468Y0101886D03*
X0348468Y0101924D03*
X0348468Y0101962D03*
X0348468Y0102000D03*
X0348468Y0102038D03*
X0348468Y0102076D03*
X0348468Y0102114D03*
X0348468Y0102152D03*
X0348468Y0102190D03*
X0348468Y0102228D03*
X0348468Y0102266D03*
X0348468Y0102304D03*
X0348468Y0102342D03*
X0348468Y0102380D03*
X0348468Y0102418D03*
X0348468Y0102456D03*
X0348468Y0102494D03*
X0348468Y0102532D03*
X0348468Y0102570D03*
X0348468Y0102608D03*
X0348468Y0102646D03*
X0348468Y0102684D03*
X0348468Y0102722D03*
X0348468Y0102760D03*
X0348468Y0102798D03*
X0348468Y0102836D03*
X0348468Y0102874D03*
X0348468Y0102912D03*
X0348468Y0102950D03*
X0348468Y0102988D03*
X0348468Y0103026D03*
X0348468Y0103064D03*
X0348468Y0103102D03*
X0348468Y0103140D03*
X0348468Y0103178D03*
X0348468Y0103216D03*
X0348468Y0103254D03*
X0348468Y0103292D03*
X0348468Y0103330D03*
X0348468Y0103368D03*
X0348468Y0103406D03*
X0348468Y0103444D03*
X0348468Y0103482D03*
X0348468Y0103520D03*
X0348468Y0103558D03*
X0348468Y0103596D03*
X0348468Y0103634D03*
X0348468Y0103672D03*
X0348468Y0103710D03*
X0348468Y0103748D03*
X0348468Y0103786D03*
X0348468Y0103824D03*
X0348468Y0103862D03*
X0348468Y0103900D03*
X0348468Y0103938D03*
X0348468Y0103976D03*
X0348468Y0104014D03*
X0348468Y0104052D03*
X0348468Y0104090D03*
X0348468Y0104128D03*
X0348468Y0104166D03*
X0348468Y0104204D03*
X0348468Y0104242D03*
X0348468Y0104280D03*
X0348468Y0104318D03*
X0348468Y0104356D03*
X0348468Y0104394D03*
X0348468Y0104432D03*
X0348468Y0104470D03*
X0348468Y0104508D03*
X0348468Y0104546D03*
X0348468Y0104584D03*
X0348468Y0104622D03*
X0348468Y0104660D03*
X0348468Y0104698D03*
X0348468Y0104736D03*
X0348468Y0104774D03*
X0348468Y0104812D03*
X0348468Y0104850D03*
X0348468Y0104888D03*
X0348468Y0104926D03*
X0348468Y0104964D03*
X0348468Y0105002D03*
X0348468Y0105040D03*
X0348468Y0105078D03*
X0348468Y0105116D03*
X0348468Y0105154D03*
X0348468Y0105192D03*
X0348468Y0105230D03*
X0348468Y0105268D03*
X0348468Y0105306D03*
X0348468Y0105344D03*
X0348468Y0105382D03*
X0348468Y0105420D03*
X0348468Y0105458D03*
X0348468Y0105496D03*
X0348468Y0105534D03*
X0348468Y0105572D03*
X0348468Y0105610D03*
X0348468Y0105648D03*
X0348468Y0105686D03*
X0348468Y0105724D03*
X0348468Y0105762D03*
X0348468Y0105800D03*
X0345428Y0105800D03*
X0345428Y0105838D03*
X0345428Y0105876D03*
X0345390Y0105952D03*
X0345390Y0105990D03*
X0345390Y0106028D03*
X0345390Y0106066D03*
X0345428Y0105762D03*
X0345428Y0105724D03*
X0345428Y0105686D03*
X0345466Y0105154D03*
X0345466Y0105116D03*
X0345466Y0105078D03*
X0345466Y0105040D03*
X0345466Y0105002D03*
X0345466Y0104964D03*
X0345466Y0104926D03*
X0345466Y0104888D03*
X0345466Y0104850D03*
X0345466Y0104812D03*
X0345466Y0104774D03*
X0345466Y0104736D03*
X0345466Y0104698D03*
X0345466Y0104660D03*
X0345466Y0104622D03*
X0345466Y0104584D03*
X0345466Y0104546D03*
X0345466Y0104508D03*
X0345466Y0104470D03*
X0345466Y0104432D03*
X0345466Y0104394D03*
X0345466Y0104356D03*
X0345466Y0104318D03*
X0345466Y0104280D03*
X0345466Y0104242D03*
X0345466Y0104204D03*
X0345466Y0104166D03*
X0345466Y0104128D03*
X0345466Y0104090D03*
X0345466Y0104052D03*
X0345466Y0104014D03*
X0345466Y0103976D03*
X0345466Y0103938D03*
X0345466Y0103900D03*
X0345466Y0103862D03*
X0345466Y0103824D03*
X0345466Y0103786D03*
X0345466Y0103748D03*
X0345466Y0103710D03*
X0345466Y0103672D03*
X0345466Y0103634D03*
X0341552Y0103634D03*
X0341552Y0103672D03*
X0341552Y0103710D03*
X0341552Y0103748D03*
X0341552Y0103786D03*
X0341552Y0103824D03*
X0341552Y0103862D03*
X0341552Y0103900D03*
X0341552Y0103938D03*
X0341552Y0103976D03*
X0341552Y0104014D03*
X0341552Y0104052D03*
X0341552Y0104090D03*
X0341552Y0104128D03*
X0341552Y0104166D03*
X0341552Y0104204D03*
X0341552Y0104242D03*
X0341552Y0104280D03*
X0341552Y0104318D03*
X0341552Y0104356D03*
X0341552Y0104394D03*
X0341552Y0104432D03*
X0341552Y0104470D03*
X0341552Y0104508D03*
X0341552Y0104546D03*
X0341552Y0104584D03*
X0341552Y0104622D03*
X0341552Y0104660D03*
X0341552Y0104698D03*
X0341552Y0104736D03*
X0341552Y0104774D03*
X0341552Y0104812D03*
X0341552Y0104850D03*
X0341552Y0104888D03*
X0341552Y0104926D03*
X0341552Y0104964D03*
X0341552Y0105002D03*
X0341552Y0105040D03*
X0341552Y0105078D03*
X0341552Y0105116D03*
X0341552Y0105154D03*
X0341552Y0105192D03*
X0341552Y0105230D03*
X0341552Y0105268D03*
X0341552Y0105306D03*
X0341552Y0103596D03*
X0341552Y0103558D03*
X0341552Y0103520D03*
X0341552Y0103482D03*
X0341552Y0103444D03*
X0341552Y0103406D03*
X0352306Y0103406D03*
X0352306Y0103444D03*
X0352306Y0103482D03*
X0352306Y0103520D03*
X0352306Y0103558D03*
X0352306Y0103596D03*
X0352306Y0103634D03*
X0352306Y0103672D03*
X0352306Y0103710D03*
X0352306Y0103748D03*
X0352306Y0103786D03*
X0352306Y0103824D03*
X0352306Y0103862D03*
X0352306Y0103900D03*
X0352306Y0103938D03*
X0352306Y0103976D03*
X0352306Y0104014D03*
X0352306Y0104052D03*
X0352306Y0104090D03*
X0352306Y0104128D03*
X0352306Y0104166D03*
X0352306Y0104204D03*
X0352306Y0104242D03*
X0352306Y0104280D03*
X0352306Y0104318D03*
X0352306Y0104356D03*
X0352306Y0104394D03*
X0352306Y0104432D03*
X0352306Y0104470D03*
X0352306Y0104508D03*
X0352306Y0104546D03*
X0352306Y0104584D03*
X0352306Y0104622D03*
X0352306Y0104660D03*
X0352306Y0104698D03*
X0352306Y0104736D03*
X0352306Y0104774D03*
X0352306Y0104812D03*
X0352306Y0104850D03*
X0352306Y0104888D03*
X0352306Y0104926D03*
X0352306Y0104964D03*
X0352306Y0105002D03*
X0352306Y0105040D03*
X0352306Y0105078D03*
X0352306Y0105116D03*
X0352306Y0105154D03*
X0352306Y0105192D03*
X0352306Y0105230D03*
X0352306Y0105268D03*
X0352306Y0105306D03*
X0352306Y0105344D03*
X0352306Y0105382D03*
X0352306Y0105420D03*
X0352306Y0105458D03*
X0352306Y0105496D03*
X0352306Y0105534D03*
X0352306Y0105572D03*
X0352306Y0103368D03*
X0352306Y0103330D03*
X0352306Y0103292D03*
X0352306Y0103254D03*
X0352306Y0103216D03*
X0352306Y0103178D03*
X0352306Y0103140D03*
X0352306Y0103102D03*
X0352306Y0103064D03*
X0352306Y0103026D03*
X0352306Y0102988D03*
X0352306Y0102950D03*
X0352306Y0102912D03*
X0352306Y0102874D03*
X0352306Y0102836D03*
X0352306Y0102798D03*
X0352306Y0102760D03*
X0352306Y0102722D03*
X0352306Y0102684D03*
X0352306Y0102646D03*
X0352306Y0102608D03*
X0352306Y0102570D03*
X0352306Y0102532D03*
X0352306Y0102494D03*
X0352306Y0102456D03*
X0352306Y0102418D03*
X0352306Y0102380D03*
X0352306Y0102342D03*
X0352306Y0102304D03*
X0352306Y0102266D03*
X0352306Y0102228D03*
X0352306Y0102190D03*
X0352306Y0102152D03*
X0352306Y0102114D03*
X0352306Y0102076D03*
X0352306Y0102038D03*
X0352306Y0102000D03*
X0352306Y0101962D03*
X0352306Y0101924D03*
X0352306Y0101886D03*
X0352306Y0101848D03*
X0352306Y0101810D03*
X0352306Y0101772D03*
X0352306Y0101734D03*
X0352306Y0101696D03*
X0352306Y0101658D03*
X0352306Y0101620D03*
X0352306Y0101582D03*
X0352306Y0101544D03*
X0352306Y0101506D03*
X0352306Y0101468D03*
X0352306Y0101430D03*
X0352306Y0101392D03*
X0352306Y0101354D03*
X0352306Y0101316D03*
X0352306Y0101278D03*
X0352306Y0101240D03*
X0352306Y0101202D03*
X0352306Y0101164D03*
X0352306Y0101126D03*
X0352306Y0101088D03*
X0352306Y0101050D03*
X0352306Y0101012D03*
X0352306Y0100974D03*
X0352306Y0100936D03*
X0352306Y0100898D03*
X0352306Y0100860D03*
X0352306Y0100822D03*
X0352306Y0100784D03*
X0352306Y0100746D03*
X0352306Y0100708D03*
X0352306Y0100670D03*
X0352306Y0100632D03*
X0352306Y0100594D03*
X0352306Y0100556D03*
X0352306Y0100518D03*
X0352306Y0100480D03*
X0352306Y0100442D03*
X0352306Y0100404D03*
X0352306Y0100366D03*
X0352306Y0100328D03*
X0352306Y0100290D03*
X0352306Y0100252D03*
X0352306Y0100214D03*
X0352306Y0100176D03*
X0352306Y0100138D03*
X0352306Y0100100D03*
X0352306Y0100062D03*
X0352306Y0100024D03*
X0352306Y0099986D03*
X0352306Y0099948D03*
X0352306Y0099910D03*
X0352306Y0099872D03*
X0355916Y0099872D03*
X0355916Y0099910D03*
X0355916Y0099948D03*
X0355916Y0099986D03*
X0355916Y0100024D03*
X0355916Y0100062D03*
X0355916Y0100100D03*
X0355916Y0100138D03*
X0355916Y0100176D03*
X0355916Y0100214D03*
X0355916Y0100252D03*
X0355916Y0100290D03*
X0355916Y0100328D03*
X0355916Y0100366D03*
X0355916Y0100404D03*
X0355916Y0100442D03*
X0355916Y0100480D03*
X0355916Y0100518D03*
X0355916Y0100556D03*
X0355916Y0100594D03*
X0355916Y0100632D03*
X0355916Y0100670D03*
X0355916Y0100708D03*
X0355916Y0100746D03*
X0355916Y0100784D03*
X0355916Y0100822D03*
X0355916Y0100860D03*
X0355916Y0100898D03*
X0355916Y0100936D03*
X0355916Y0100974D03*
X0355916Y0101012D03*
X0355916Y0101050D03*
X0355916Y0101088D03*
X0355916Y0101126D03*
X0355916Y0101164D03*
X0355916Y0101202D03*
X0355916Y0101240D03*
X0355916Y0101278D03*
X0355916Y0101316D03*
X0355916Y0101354D03*
X0355916Y0101392D03*
X0355916Y0101430D03*
X0355916Y0101468D03*
X0355916Y0101506D03*
X0355916Y0101544D03*
X0355916Y0101582D03*
X0355916Y0101620D03*
X0355916Y0101658D03*
X0355916Y0101696D03*
X0355916Y0101734D03*
X0355916Y0101772D03*
X0355916Y0101810D03*
X0355916Y0101848D03*
X0355916Y0101886D03*
X0355916Y0101924D03*
X0355916Y0101962D03*
X0355916Y0102000D03*
X0355916Y0102038D03*
X0355916Y0102076D03*
X0355916Y0102114D03*
X0355916Y0102152D03*
X0355916Y0102190D03*
X0355916Y0102228D03*
X0355916Y0102266D03*
X0355916Y0102304D03*
X0355916Y0102342D03*
X0355916Y0102380D03*
X0355916Y0102418D03*
X0355916Y0102456D03*
X0355916Y0102494D03*
X0355916Y0102532D03*
X0355916Y0102570D03*
X0355916Y0102608D03*
X0355916Y0102646D03*
X0355916Y0102684D03*
X0355916Y0102722D03*
X0355916Y0102760D03*
X0355916Y0102798D03*
X0355916Y0102836D03*
X0355916Y0102874D03*
X0355916Y0102912D03*
X0355916Y0102950D03*
X0355916Y0102988D03*
X0355916Y0103026D03*
X0355916Y0103064D03*
X0355916Y0103102D03*
X0355916Y0103140D03*
X0355916Y0103178D03*
X0355916Y0103216D03*
X0355916Y0103254D03*
X0355916Y0103292D03*
X0355916Y0103330D03*
X0355916Y0103368D03*
X0355916Y0103406D03*
X0355916Y0103444D03*
X0355916Y0103482D03*
X0355916Y0103520D03*
X0355916Y0103558D03*
X0355916Y0103596D03*
X0355916Y0103634D03*
X0355916Y0103672D03*
X0355916Y0103710D03*
X0355916Y0103748D03*
X0355916Y0103786D03*
X0355916Y0103824D03*
X0355916Y0103862D03*
X0355916Y0103900D03*
X0355916Y0103938D03*
X0355916Y0103976D03*
X0355916Y0104014D03*
X0355916Y0104052D03*
X0355916Y0104090D03*
X0355916Y0104128D03*
X0355916Y0104166D03*
X0355916Y0104204D03*
X0355916Y0104242D03*
X0355916Y0104280D03*
X0355916Y0104318D03*
X0355916Y0104356D03*
X0355916Y0104394D03*
X0355916Y0104432D03*
X0355916Y0104470D03*
X0355916Y0104508D03*
X0355916Y0104546D03*
X0355916Y0104584D03*
X0355916Y0104622D03*
X0355916Y0104660D03*
X0355916Y0104698D03*
X0355916Y0104736D03*
X0355916Y0104774D03*
X0355916Y0104812D03*
X0355916Y0104850D03*
X0355916Y0104888D03*
X0355916Y0104926D03*
X0355916Y0104964D03*
X0355916Y0105002D03*
X0355916Y0105040D03*
X0355916Y0105078D03*
X0355916Y0105116D03*
X0355916Y0105154D03*
X0355916Y0105192D03*
X0355916Y0105230D03*
X0355916Y0105268D03*
X0355916Y0105306D03*
X0355916Y0105344D03*
X0355916Y0105382D03*
X0355916Y0105420D03*
X0355916Y0105458D03*
X0355916Y0105496D03*
X0355916Y0105534D03*
X0355916Y0105572D03*
X0355916Y0105610D03*
X0355916Y0105648D03*
X0355916Y0105686D03*
X0355916Y0105724D03*
X0355916Y0105762D03*
X0355916Y0105800D03*
X0355916Y0105838D03*
X0355916Y0105876D03*
X0355916Y0105914D03*
X0355916Y0105952D03*
X0355916Y0105990D03*
X0355916Y0106028D03*
X0355916Y0106066D03*
X0355916Y0106104D03*
X0355916Y0106142D03*
X0355916Y0106180D03*
X0355916Y0106218D03*
X0355916Y0106256D03*
X0355916Y0106294D03*
X0355916Y0106332D03*
X0355916Y0106370D03*
X0355916Y0106408D03*
X0355916Y0106446D03*
X0355916Y0106484D03*
X0355916Y0106522D03*
X0355916Y0106560D03*
X0355916Y0106598D03*
X0355916Y0106636D03*
X0355916Y0106674D03*
X0355916Y0106712D03*
X0355916Y0106750D03*
X0355916Y0106788D03*
X0355916Y0106826D03*
X0355916Y0106864D03*
X0355916Y0106902D03*
X0355916Y0106940D03*
X0355916Y0106978D03*
X0355916Y0107016D03*
X0355916Y0107054D03*
X0355916Y0107092D03*
X0355916Y0107130D03*
X0355916Y0107168D03*
X0355916Y0107206D03*
X0355916Y0107244D03*
X0355916Y0107282D03*
X0355916Y0107320D03*
X0355916Y0107358D03*
X0355916Y0107396D03*
X0355916Y0107434D03*
X0355916Y0107472D03*
X0355916Y0107510D03*
X0355916Y0107548D03*
X0355916Y0107586D03*
X0355916Y0107624D03*
X0355916Y0107662D03*
X0355916Y0107700D03*
X0355916Y0107738D03*
X0355916Y0107776D03*
X0355916Y0107814D03*
X0355916Y0107852D03*
X0355916Y0107890D03*
X0355916Y0107928D03*
X0355916Y0107966D03*
X0355916Y0108004D03*
X0355916Y0108042D03*
X0355916Y0108080D03*
X0355916Y0108118D03*
X0355916Y0108156D03*
X0355916Y0108194D03*
X0355916Y0108232D03*
X0355916Y0108270D03*
X0355916Y0108308D03*
X0355916Y0108346D03*
X0355916Y0108384D03*
X0355916Y0108422D03*
X0355916Y0109296D03*
X0355916Y0109334D03*
X0355916Y0109372D03*
X0355916Y0109410D03*
X0355916Y0109448D03*
X0355916Y0109486D03*
X0355916Y0109524D03*
X0355916Y0109562D03*
X0355916Y0109600D03*
X0355916Y0109638D03*
X0355916Y0109676D03*
X0355916Y0109714D03*
X0355916Y0109752D03*
X0355916Y0109790D03*
X0355916Y0109828D03*
X0355916Y0109866D03*
X0355916Y0109904D03*
X0355916Y0109942D03*
X0355916Y0109980D03*
X0355916Y0110018D03*
X0355916Y0110056D03*
X0355916Y0110094D03*
X0355916Y0110132D03*
X0355916Y0110170D03*
X0355916Y0110208D03*
X0355916Y0110246D03*
X0355916Y0110284D03*
X0355916Y0110322D03*
X0355916Y0110360D03*
X0355916Y0110398D03*
X0355916Y0110436D03*
X0355916Y0110474D03*
X0355916Y0110512D03*
X0355916Y0110550D03*
X0355916Y0110588D03*
X0355916Y0110626D03*
X0355916Y0110664D03*
X0355916Y0110702D03*
X0355916Y0110740D03*
X0355916Y0110778D03*
X0355916Y0110816D03*
X0355916Y0110854D03*
X0355916Y0110892D03*
X0355916Y0110930D03*
X0355916Y0110968D03*
X0355916Y0111006D03*
X0355916Y0111044D03*
X0355916Y0111082D03*
X0355916Y0111120D03*
X0355916Y0111158D03*
X0355916Y0111196D03*
X0355916Y0111234D03*
X0355916Y0111272D03*
X0355916Y0111310D03*
X0355916Y0111348D03*
X0363212Y0111272D03*
X0363212Y0111234D03*
X0363212Y0111196D03*
X0363212Y0111158D03*
X0363212Y0111120D03*
X0363212Y0111082D03*
X0363212Y0111044D03*
X0363212Y0111006D03*
X0363212Y0110968D03*
X0363212Y0110930D03*
X0363212Y0110892D03*
X0363212Y0110854D03*
X0363212Y0110816D03*
X0363212Y0110778D03*
X0363212Y0110740D03*
X0363212Y0110702D03*
X0363212Y0110664D03*
X0363212Y0110626D03*
X0363212Y0110588D03*
X0363212Y0110550D03*
X0363212Y0110512D03*
X0363212Y0110474D03*
X0363212Y0110436D03*
X0363212Y0110398D03*
X0363212Y0110360D03*
X0363212Y0110322D03*
X0363212Y0110284D03*
X0363212Y0110246D03*
X0363212Y0110208D03*
X0363212Y0110170D03*
X0363212Y0110132D03*
X0363212Y0110094D03*
X0363212Y0110056D03*
X0363212Y0110018D03*
X0363212Y0109980D03*
X0363212Y0109942D03*
X0363212Y0109904D03*
X0363212Y0109866D03*
X0363212Y0109828D03*
X0363212Y0109790D03*
X0363212Y0109752D03*
X0363212Y0109714D03*
X0363212Y0109676D03*
X0363212Y0109638D03*
X0363212Y0109600D03*
X0363212Y0109562D03*
X0363212Y0109524D03*
X0363212Y0109486D03*
X0363212Y0109448D03*
X0363212Y0109410D03*
X0363212Y0109372D03*
X0363212Y0109334D03*
X0363212Y0109296D03*
X0363212Y0109258D03*
X0363212Y0109220D03*
X0363212Y0109182D03*
X0363212Y0109144D03*
X0363212Y0109106D03*
X0363212Y0109068D03*
X0363212Y0109030D03*
X0363212Y0108992D03*
X0363212Y0108954D03*
X0363212Y0108916D03*
X0363212Y0108878D03*
X0363212Y0108840D03*
X0363212Y0108802D03*
X0363212Y0108764D03*
X0363212Y0108726D03*
X0363212Y0108688D03*
X0363212Y0108650D03*
X0363212Y0108612D03*
X0363212Y0108574D03*
X0363212Y0108536D03*
X0363212Y0108498D03*
X0363212Y0108460D03*
X0363212Y0108422D03*
X0363212Y0108384D03*
X0363212Y0108346D03*
X0363212Y0108308D03*
X0363212Y0108270D03*
X0363212Y0108232D03*
X0363212Y0108194D03*
X0363212Y0108156D03*
X0363212Y0108118D03*
X0363212Y0108080D03*
X0363212Y0108042D03*
X0363212Y0108004D03*
X0363212Y0107966D03*
X0363212Y0107928D03*
X0363212Y0107890D03*
X0363212Y0107852D03*
X0363212Y0107814D03*
X0363212Y0107776D03*
X0363212Y0107738D03*
X0363212Y0107700D03*
X0363212Y0107662D03*
X0363212Y0107624D03*
X0363212Y0107586D03*
X0363212Y0105572D03*
X0363212Y0105534D03*
X0363212Y0105496D03*
X0363212Y0105458D03*
X0363212Y0105420D03*
X0363212Y0105382D03*
X0363212Y0105344D03*
X0363212Y0105306D03*
X0363212Y0105268D03*
X0363212Y0105230D03*
X0363212Y0105192D03*
X0363212Y0105154D03*
X0363212Y0105116D03*
X0363212Y0105078D03*
X0363212Y0105040D03*
X0363212Y0105002D03*
X0363212Y0104964D03*
X0363212Y0104926D03*
X0363212Y0104888D03*
X0363212Y0104850D03*
X0363212Y0104812D03*
X0363212Y0104774D03*
X0363212Y0104736D03*
X0363212Y0104698D03*
X0363212Y0104660D03*
X0363212Y0104622D03*
X0363212Y0104584D03*
X0363212Y0104546D03*
X0363212Y0104508D03*
X0363212Y0104470D03*
X0363212Y0104432D03*
X0363212Y0104394D03*
X0363212Y0104356D03*
X0363212Y0104318D03*
X0363212Y0104280D03*
X0363212Y0104242D03*
X0363212Y0104204D03*
X0363212Y0104166D03*
X0363212Y0104128D03*
X0363212Y0104090D03*
X0363212Y0104052D03*
X0363212Y0104014D03*
X0363212Y0103976D03*
X0363212Y0103938D03*
X0363212Y0103900D03*
X0363212Y0103862D03*
X0363212Y0103824D03*
X0363212Y0103786D03*
X0363212Y0103748D03*
X0363212Y0103710D03*
X0363212Y0103672D03*
X0363212Y0103634D03*
X0363212Y0103596D03*
X0363212Y0103558D03*
X0363212Y0103520D03*
X0363212Y0103482D03*
X0363212Y0103444D03*
X0363212Y0103406D03*
X0363212Y0103368D03*
X0363212Y0103330D03*
X0363212Y0103292D03*
X0363212Y0103254D03*
X0363212Y0103216D03*
X0363212Y0103178D03*
X0363212Y0103140D03*
X0363212Y0103102D03*
X0363212Y0103064D03*
X0363212Y0103026D03*
X0363212Y0102988D03*
X0363212Y0102950D03*
X0363212Y0102912D03*
X0363212Y0102874D03*
X0363212Y0102836D03*
X0363212Y0102798D03*
X0363212Y0102760D03*
X0363212Y0102722D03*
X0363212Y0102684D03*
X0363212Y0102646D03*
X0363212Y0102608D03*
X0363212Y0102570D03*
X0363212Y0102532D03*
X0363212Y0102494D03*
X0363212Y0102456D03*
X0363212Y0102418D03*
X0363212Y0102380D03*
X0363212Y0102342D03*
X0363212Y0102304D03*
X0363212Y0102266D03*
X0363212Y0102228D03*
X0363212Y0102190D03*
X0363212Y0102152D03*
X0363212Y0102114D03*
X0363212Y0102076D03*
X0363212Y0102038D03*
X0363212Y0102000D03*
X0363212Y0101962D03*
X0363212Y0101924D03*
X0363212Y0101886D03*
X0363212Y0101848D03*
X0363212Y0101810D03*
X0363212Y0101772D03*
X0363212Y0101734D03*
X0363212Y0101696D03*
X0363212Y0101658D03*
X0363212Y0101620D03*
X0363212Y0101582D03*
X0363212Y0101544D03*
X0363212Y0101506D03*
X0363212Y0101468D03*
X0363212Y0101430D03*
X0363212Y0101392D03*
X0363212Y0101354D03*
X0363212Y0101316D03*
X0363212Y0101278D03*
X0363212Y0101240D03*
X0363212Y0101202D03*
X0363212Y0101164D03*
X0363212Y0101126D03*
X0363212Y0101088D03*
X0363212Y0101050D03*
X0363212Y0101012D03*
X0363212Y0100974D03*
X0363212Y0100936D03*
X0363212Y0100898D03*
X0363212Y0100860D03*
X0363212Y0100822D03*
X0363212Y0100784D03*
X0363212Y0100746D03*
X0363212Y0100708D03*
X0363212Y0100670D03*
X0363212Y0100632D03*
X0363212Y0100594D03*
X0363212Y0100556D03*
X0363212Y0100518D03*
X0363212Y0100480D03*
X0363212Y0100442D03*
X0363212Y0100404D03*
X0363212Y0100366D03*
X0363212Y0100328D03*
X0363212Y0100290D03*
X0363212Y0100252D03*
X0363212Y0100214D03*
X0363212Y0100176D03*
X0363212Y0100138D03*
X0363212Y0100100D03*
X0363212Y0100062D03*
X0363212Y0100024D03*
X0363212Y0099986D03*
X0363212Y0099948D03*
X0363212Y0099910D03*
X0363212Y0099872D03*
X0359374Y0099872D03*
X0359374Y0099910D03*
X0359374Y0099948D03*
X0359374Y0099986D03*
X0359374Y0100024D03*
X0359374Y0100062D03*
X0359374Y0100100D03*
X0359374Y0100138D03*
X0359374Y0100176D03*
X0359374Y0100214D03*
X0359374Y0100252D03*
X0359374Y0100290D03*
X0359374Y0100328D03*
X0359374Y0100366D03*
X0359374Y0100404D03*
X0359374Y0100442D03*
X0359374Y0100480D03*
X0359374Y0100518D03*
X0359374Y0100556D03*
X0359374Y0100594D03*
X0359374Y0100632D03*
X0359374Y0100670D03*
X0359374Y0100708D03*
X0359374Y0100746D03*
X0359374Y0100784D03*
X0359374Y0100822D03*
X0359374Y0100860D03*
X0359374Y0100898D03*
X0359374Y0100936D03*
X0359374Y0100974D03*
X0359374Y0101012D03*
X0359374Y0101050D03*
X0359374Y0101088D03*
X0359374Y0101126D03*
X0359374Y0101164D03*
X0359374Y0101202D03*
X0359374Y0101240D03*
X0359374Y0101278D03*
X0359374Y0101316D03*
X0359374Y0101354D03*
X0359374Y0101392D03*
X0359374Y0101430D03*
X0359374Y0101468D03*
X0359374Y0101506D03*
X0359374Y0101544D03*
X0359374Y0101582D03*
X0359374Y0101620D03*
X0359374Y0101658D03*
X0359374Y0101696D03*
X0359374Y0101734D03*
X0359374Y0101772D03*
X0359374Y0101810D03*
X0359374Y0101848D03*
X0359374Y0101886D03*
X0359374Y0101924D03*
X0359374Y0101962D03*
X0359374Y0102000D03*
X0359374Y0102038D03*
X0359374Y0102076D03*
X0359374Y0102114D03*
X0359374Y0102152D03*
X0359374Y0102190D03*
X0359374Y0102228D03*
X0359374Y0102266D03*
X0359374Y0102304D03*
X0359374Y0102342D03*
X0359374Y0102380D03*
X0359374Y0102418D03*
X0359374Y0102456D03*
X0359374Y0102494D03*
X0359374Y0102532D03*
X0359374Y0102570D03*
X0359374Y0102608D03*
X0359374Y0102646D03*
X0359374Y0102684D03*
X0359374Y0102722D03*
X0359374Y0102760D03*
X0359374Y0102798D03*
X0359374Y0102836D03*
X0359374Y0102874D03*
X0359374Y0102912D03*
X0359374Y0102950D03*
X0359374Y0102988D03*
X0359374Y0103026D03*
X0359374Y0103064D03*
X0359374Y0103102D03*
X0359374Y0103140D03*
X0359374Y0103178D03*
X0359374Y0103216D03*
X0359374Y0103254D03*
X0359374Y0103292D03*
X0359374Y0103330D03*
X0359374Y0103368D03*
X0359374Y0103406D03*
X0359374Y0103444D03*
X0359374Y0103482D03*
X0359374Y0103520D03*
X0359374Y0103558D03*
X0359374Y0103596D03*
X0359374Y0103634D03*
X0359374Y0103672D03*
X0359374Y0103710D03*
X0359374Y0103748D03*
X0359374Y0103786D03*
X0359374Y0103824D03*
X0359374Y0103862D03*
X0359374Y0103900D03*
X0359374Y0103938D03*
X0359374Y0103976D03*
X0359374Y0104014D03*
X0359374Y0104052D03*
X0359374Y0104090D03*
X0359374Y0104128D03*
X0359374Y0104166D03*
X0359374Y0104204D03*
X0359374Y0104242D03*
X0359374Y0104280D03*
X0359374Y0104318D03*
X0359374Y0104356D03*
X0359374Y0104394D03*
X0359374Y0104432D03*
X0359374Y0104470D03*
X0359374Y0104508D03*
X0359374Y0104546D03*
X0359374Y0104584D03*
X0359374Y0104622D03*
X0359374Y0104660D03*
X0359374Y0104698D03*
X0359374Y0104736D03*
X0359374Y0104774D03*
X0359374Y0104812D03*
X0359374Y0104850D03*
X0359374Y0104888D03*
X0359374Y0104926D03*
X0359374Y0104964D03*
X0359374Y0105002D03*
X0359374Y0105040D03*
X0359374Y0105078D03*
X0359374Y0105116D03*
X0359374Y0105154D03*
X0359374Y0105192D03*
X0359374Y0105230D03*
X0359374Y0105268D03*
X0359374Y0105306D03*
X0359374Y0105344D03*
X0359374Y0105382D03*
X0359374Y0105420D03*
X0359374Y0105458D03*
X0359374Y0105496D03*
X0359374Y0105534D03*
X0359374Y0105572D03*
X0359374Y0105610D03*
X0359374Y0105648D03*
X0359374Y0105686D03*
X0359374Y0105724D03*
X0359374Y0105762D03*
X0359374Y0105800D03*
X0348772Y0098732D03*
X0348772Y0098694D03*
X0348772Y0098656D03*
X0348772Y0098618D03*
X0348772Y0098580D03*
X0348772Y0098542D03*
X0348772Y0098504D03*
X0348772Y0098466D03*
X0348772Y0098428D03*
X0348772Y0098390D03*
X0348772Y0098352D03*
X0348772Y0098314D03*
X0348772Y0098276D03*
X0348772Y0098238D03*
X0348772Y0098200D03*
X0348772Y0098162D03*
X0348772Y0098124D03*
X0348772Y0098086D03*
X0348772Y0098048D03*
X0348772Y0098010D03*
X0348772Y0097972D03*
X0348772Y0097934D03*
X0348772Y0097896D03*
X0348772Y0097858D03*
X0348772Y0097820D03*
X0348772Y0097782D03*
X0348772Y0097744D03*
X0348772Y0097706D03*
X0348772Y0097668D03*
X0348772Y0097630D03*
X0348772Y0097592D03*
X0348772Y0097554D03*
X0348772Y0097516D03*
X0348772Y0097478D03*
X0348772Y0097440D03*
X0348772Y0097402D03*
X0348772Y0097364D03*
X0348772Y0097326D03*
X0348772Y0097288D03*
X0348772Y0097250D03*
X0348772Y0097212D03*
X0348772Y0097174D03*
X0348772Y0097136D03*
X0348772Y0097098D03*
X0348772Y0097060D03*
X0348772Y0097022D03*
X0348772Y0096984D03*
X0348772Y0096946D03*
X0348772Y0096908D03*
X0348772Y0096870D03*
X0348772Y0096832D03*
X0348772Y0096794D03*
X0348772Y0096756D03*
X0348772Y0096718D03*
X0348772Y0096680D03*
X0348772Y0096642D03*
X0348772Y0096604D03*
X0348772Y0096566D03*
X0348772Y0096528D03*
X0348772Y0096490D03*
X0348772Y0096452D03*
X0348772Y0096414D03*
X0348772Y0096376D03*
X0348772Y0096338D03*
X0348772Y0096300D03*
X0348772Y0096262D03*
X0348772Y0096224D03*
X0348772Y0096186D03*
X0348772Y0096148D03*
X0348772Y0096110D03*
X0348772Y0096072D03*
X0348772Y0096034D03*
X0348772Y0095996D03*
X0348772Y0095958D03*
X0348772Y0095920D03*
X0348772Y0095882D03*
X0348772Y0095844D03*
X0348772Y0095806D03*
X0348772Y0095768D03*
X0348772Y0095730D03*
X0348772Y0095692D03*
X0348772Y0095654D03*
X0348772Y0095616D03*
X0348772Y0095578D03*
X0348772Y0095540D03*
X0348772Y0095502D03*
X0348772Y0095464D03*
X0348772Y0095426D03*
X0348772Y0095388D03*
X0348772Y0095350D03*
X0348772Y0095312D03*
X0348772Y0095274D03*
X0348772Y0095236D03*
X0348772Y0095198D03*
X0348772Y0095160D03*
X0348772Y0093222D03*
X0348772Y0093184D03*
X0348772Y0093146D03*
X0348772Y0093108D03*
X0348772Y0093070D03*
X0348772Y0093032D03*
X0348772Y0092994D03*
X0348772Y0090638D03*
X0348772Y0090600D03*
X0348772Y0090562D03*
X0348772Y0090524D03*
X0348772Y0090486D03*
X0348772Y0090448D03*
X0348772Y0090410D03*
X0348772Y0090372D03*
X0348772Y0090334D03*
X0348772Y0090296D03*
X0348772Y0090258D03*
X0348772Y0090220D03*
X0348772Y0090182D03*
X0348772Y0090144D03*
X0345846Y0090144D03*
X0345846Y0090182D03*
X0345846Y0090220D03*
X0345846Y0090258D03*
X0345846Y0090296D03*
X0345846Y0090334D03*
X0345846Y0090372D03*
X0345846Y0090410D03*
X0345846Y0090448D03*
X0345846Y0090486D03*
X0345846Y0090524D03*
X0345846Y0090562D03*
X0345846Y0090600D03*
X0345846Y0090638D03*
X0345846Y0090676D03*
X0345846Y0090714D03*
X0345846Y0090752D03*
X0345846Y0090790D03*
X0345846Y0090828D03*
X0345846Y0090866D03*
X0345846Y0090904D03*
X0345846Y0090942D03*
X0345846Y0090980D03*
X0345846Y0091018D03*
X0345846Y0091056D03*
X0345846Y0091094D03*
X0345846Y0091132D03*
X0345846Y0091170D03*
X0345846Y0091208D03*
X0345846Y0091246D03*
X0345846Y0091284D03*
X0345846Y0091322D03*
X0345846Y0091360D03*
X0345846Y0091398D03*
X0345846Y0091436D03*
X0345846Y0091474D03*
X0345846Y0091512D03*
X0345846Y0091550D03*
X0345846Y0091588D03*
X0345846Y0091626D03*
X0345846Y0091664D03*
X0345846Y0091702D03*
X0345846Y0091740D03*
X0345846Y0091778D03*
X0345846Y0091816D03*
X0345846Y0091854D03*
X0345846Y0091892D03*
X0345846Y0091930D03*
X0345846Y0091968D03*
X0345846Y0092006D03*
X0345846Y0092044D03*
X0345846Y0092082D03*
X0345846Y0092120D03*
X0345846Y0092158D03*
X0345846Y0092196D03*
X0345846Y0092234D03*
X0345846Y0092272D03*
X0345846Y0092310D03*
X0345846Y0092348D03*
X0345846Y0092386D03*
X0345846Y0092424D03*
X0345846Y0092462D03*
X0345846Y0092500D03*
X0345846Y0092538D03*
X0345846Y0092576D03*
X0345846Y0092614D03*
X0345846Y0092652D03*
X0345846Y0092690D03*
X0345846Y0092728D03*
X0345846Y0092766D03*
X0345846Y0092804D03*
X0345846Y0092842D03*
X0345846Y0092880D03*
X0345846Y0092918D03*
X0345846Y0092956D03*
X0345846Y0092994D03*
X0345846Y0093032D03*
X0345846Y0093070D03*
X0345846Y0093108D03*
X0345846Y0093146D03*
X0345846Y0093184D03*
X0345846Y0093222D03*
X0345846Y0093260D03*
X0345846Y0093298D03*
X0345846Y0093336D03*
X0345846Y0093374D03*
X0345846Y0093412D03*
X0345846Y0093450D03*
X0345846Y0093488D03*
X0345846Y0093526D03*
X0345846Y0093564D03*
X0345846Y0093602D03*
X0345846Y0093640D03*
X0345846Y0093678D03*
X0345846Y0093716D03*
X0345846Y0093754D03*
X0345846Y0093792D03*
X0345846Y0093830D03*
X0345846Y0093868D03*
X0345846Y0093906D03*
X0345846Y0093944D03*
X0345846Y0093982D03*
X0345846Y0094020D03*
X0345846Y0094058D03*
X0345846Y0094096D03*
X0345846Y0094134D03*
X0345846Y0094172D03*
X0345846Y0094210D03*
X0345846Y0094248D03*
X0345846Y0094286D03*
X0345846Y0094324D03*
X0345846Y0094362D03*
X0345846Y0094400D03*
X0345846Y0094438D03*
X0345846Y0094476D03*
X0345846Y0094514D03*
X0345846Y0094552D03*
X0345846Y0094590D03*
X0345846Y0094628D03*
X0345846Y0094666D03*
X0345846Y0094704D03*
X0345846Y0094742D03*
X0345846Y0094780D03*
X0345846Y0094818D03*
X0345846Y0094856D03*
X0345846Y0094894D03*
X0345846Y0094932D03*
X0345846Y0094970D03*
X0345846Y0095008D03*
X0345846Y0095046D03*
X0345846Y0095084D03*
X0345846Y0095122D03*
X0345846Y0095160D03*
X0345846Y0095198D03*
X0345846Y0095236D03*
X0345846Y0095274D03*
X0345846Y0095312D03*
X0345846Y0095350D03*
X0345846Y0095388D03*
X0345846Y0095426D03*
X0345846Y0095464D03*
X0345846Y0095502D03*
X0345846Y0095540D03*
X0345846Y0095578D03*
X0345846Y0095616D03*
X0345846Y0095654D03*
X0345846Y0095692D03*
X0345846Y0095730D03*
X0345846Y0095768D03*
X0345846Y0095806D03*
X0345846Y0095844D03*
X0345846Y0095882D03*
X0342008Y0095882D03*
X0342008Y0095844D03*
X0342008Y0095806D03*
X0342008Y0095768D03*
X0342008Y0095730D03*
X0342008Y0095692D03*
X0342008Y0095654D03*
X0342008Y0095616D03*
X0342008Y0095578D03*
X0342008Y0095540D03*
X0342008Y0095502D03*
X0342008Y0095464D03*
X0342008Y0095426D03*
X0342008Y0095388D03*
X0342008Y0095350D03*
X0342008Y0095312D03*
X0342008Y0095274D03*
X0342008Y0095236D03*
X0342008Y0095198D03*
X0342008Y0095160D03*
X0342008Y0095122D03*
X0342008Y0095084D03*
X0342008Y0095046D03*
X0342008Y0095008D03*
X0342008Y0094970D03*
X0342008Y0094932D03*
X0342008Y0094894D03*
X0342008Y0094856D03*
X0342008Y0094818D03*
X0342008Y0094780D03*
X0342008Y0094742D03*
X0342008Y0094704D03*
X0342008Y0094666D03*
X0342008Y0094628D03*
X0342008Y0094590D03*
X0342008Y0094552D03*
X0342008Y0094514D03*
X0342008Y0094476D03*
X0342008Y0094438D03*
X0342008Y0094400D03*
X0342008Y0094362D03*
X0342008Y0094324D03*
X0342008Y0094286D03*
X0342008Y0094248D03*
X0342008Y0094210D03*
X0342008Y0094172D03*
X0342008Y0094134D03*
X0342008Y0094096D03*
X0342008Y0094058D03*
X0342008Y0094020D03*
X0342008Y0093982D03*
X0342008Y0093944D03*
X0342008Y0093906D03*
X0342008Y0093868D03*
X0342008Y0093830D03*
X0342008Y0093792D03*
X0342008Y0093754D03*
X0342008Y0093716D03*
X0342008Y0093678D03*
X0342008Y0093640D03*
X0342008Y0093602D03*
X0342008Y0093564D03*
X0342008Y0093526D03*
X0342008Y0093488D03*
X0342008Y0093450D03*
X0342008Y0093412D03*
X0342008Y0093374D03*
X0342008Y0093336D03*
X0342008Y0093298D03*
X0342008Y0093260D03*
X0342008Y0093222D03*
X0342008Y0093184D03*
X0342008Y0093146D03*
X0342008Y0093108D03*
X0342008Y0093070D03*
X0342008Y0093032D03*
X0342008Y0092994D03*
X0342008Y0092956D03*
X0342008Y0092918D03*
X0342008Y0092880D03*
X0342008Y0092842D03*
X0342008Y0092804D03*
X0342008Y0092766D03*
X0342008Y0092728D03*
X0342008Y0092690D03*
X0342008Y0092652D03*
X0342008Y0092614D03*
X0342008Y0092576D03*
X0342008Y0092538D03*
X0342008Y0092500D03*
X0342008Y0092462D03*
X0342008Y0092424D03*
X0342008Y0092386D03*
X0342008Y0092348D03*
X0342008Y0092310D03*
X0342008Y0092272D03*
X0342008Y0092234D03*
X0342008Y0092196D03*
X0342008Y0092158D03*
X0342008Y0092120D03*
X0342008Y0092082D03*
X0342008Y0092044D03*
X0342008Y0092006D03*
X0342008Y0091968D03*
X0342008Y0091930D03*
X0342008Y0091892D03*
X0342008Y0091854D03*
X0342008Y0091816D03*
X0342008Y0091778D03*
X0342008Y0091740D03*
X0342008Y0091702D03*
X0342008Y0091664D03*
X0342008Y0091626D03*
X0342008Y0091588D03*
X0342008Y0091550D03*
X0342008Y0091512D03*
X0342008Y0091474D03*
X0342008Y0091436D03*
X0342008Y0091398D03*
X0342008Y0091360D03*
X0342008Y0091322D03*
X0342008Y0091284D03*
X0342008Y0091246D03*
X0342008Y0091208D03*
X0342008Y0091170D03*
X0342008Y0091132D03*
X0342008Y0091094D03*
X0342008Y0091056D03*
X0342008Y0091018D03*
X0342008Y0090980D03*
X0342008Y0090942D03*
X0342008Y0090904D03*
X0342008Y0090866D03*
X0342008Y0090828D03*
X0342008Y0090790D03*
X0342008Y0090752D03*
X0342008Y0090714D03*
X0342008Y0090676D03*
X0342008Y0090638D03*
X0342008Y0090600D03*
X0342008Y0090562D03*
X0342008Y0090524D03*
X0342008Y0090486D03*
X0342008Y0090448D03*
X0342008Y0090410D03*
X0342008Y0090372D03*
X0342008Y0090334D03*
X0342008Y0090296D03*
X0342008Y0090258D03*
X0342008Y0090220D03*
X0345846Y0090106D03*
X0345846Y0090068D03*
X0345846Y0090030D03*
X0345846Y0089992D03*
X0345846Y0089954D03*
X0351736Y0087446D03*
X0355536Y0089232D03*
X0355536Y0089270D03*
X0355498Y0089346D03*
X0355498Y0089384D03*
X0355460Y0089536D03*
X0355460Y0089574D03*
X0355422Y0089726D03*
X0355422Y0089764D03*
X0355422Y0089802D03*
X0355422Y0089840D03*
X0355422Y0089878D03*
X0355384Y0089992D03*
X0355384Y0090030D03*
X0355384Y0090068D03*
X0355384Y0090106D03*
X0355384Y0090144D03*
X0355384Y0090182D03*
X0355384Y0090220D03*
X0355384Y0090258D03*
X0355384Y0090296D03*
X0355346Y0090524D03*
X0355346Y0090562D03*
X0355346Y0090600D03*
X0355346Y0090638D03*
X0355346Y0090676D03*
X0355346Y0090714D03*
X0355346Y0090752D03*
X0355346Y0090790D03*
X0355346Y0090828D03*
X0355346Y0092386D03*
X0355346Y0092424D03*
X0355346Y0092462D03*
X0355346Y0092500D03*
X0355346Y0092538D03*
X0355346Y0092576D03*
X0355346Y0092614D03*
X0355346Y0092652D03*
X0355346Y0092690D03*
X0355384Y0092918D03*
X0355384Y0092956D03*
X0355384Y0092994D03*
X0355384Y0093032D03*
X0355384Y0093070D03*
X0355384Y0093108D03*
X0355384Y0093146D03*
X0355384Y0093184D03*
X0355384Y0093222D03*
X0355422Y0093336D03*
X0355422Y0093374D03*
X0355422Y0093412D03*
X0355422Y0093450D03*
X0355422Y0093488D03*
X0355460Y0093640D03*
X0355460Y0093678D03*
X0355498Y0093830D03*
X0355498Y0093868D03*
X0355536Y0093944D03*
X0355536Y0093982D03*
X0355574Y0094058D03*
X0352648Y0092462D03*
X0351736Y0095730D03*
X0359032Y0094058D03*
X0359070Y0093982D03*
X0359070Y0093944D03*
X0359108Y0093830D03*
X0359108Y0093792D03*
X0359146Y0093678D03*
X0359146Y0093640D03*
X0359146Y0093602D03*
X0359184Y0093450D03*
X0359184Y0093412D03*
X0359184Y0093374D03*
X0359184Y0093336D03*
X0359184Y0093298D03*
X0359222Y0093222D03*
X0359222Y0093184D03*
X0359222Y0093146D03*
X0359222Y0093108D03*
X0359222Y0093070D03*
X0359222Y0093032D03*
X0359222Y0092994D03*
X0359222Y0092956D03*
X0359222Y0092918D03*
X0359260Y0092652D03*
X0359260Y0092614D03*
X0359260Y0092576D03*
X0359260Y0092538D03*
X0359260Y0092500D03*
X0359260Y0092462D03*
X0359260Y0092424D03*
X0359260Y0092386D03*
X0359260Y0090790D03*
X0359260Y0090752D03*
X0359260Y0090714D03*
X0359260Y0090676D03*
X0359260Y0090638D03*
X0359260Y0090600D03*
X0359260Y0090562D03*
X0359260Y0090524D03*
X0359222Y0090296D03*
X0359222Y0090258D03*
X0359222Y0090220D03*
X0359222Y0090182D03*
X0359222Y0090144D03*
X0359222Y0090106D03*
X0359222Y0090068D03*
X0359222Y0090030D03*
X0359222Y0089992D03*
X0359184Y0089916D03*
X0359184Y0089878D03*
X0359184Y0089840D03*
X0359184Y0089802D03*
X0359184Y0089764D03*
X0359184Y0089726D03*
X0359146Y0089574D03*
X0359146Y0089536D03*
X0359108Y0089384D03*
X0359108Y0089346D03*
X0359070Y0089270D03*
X0359070Y0089232D03*
X0359032Y0089156D03*
X0355574Y0089156D03*
X0362148Y0091018D03*
X0362148Y0091056D03*
X0362148Y0091094D03*
X0362148Y0091132D03*
X0362148Y0091170D03*
X0362148Y0091208D03*
X0362148Y0091246D03*
X0362148Y0091284D03*
X0362148Y0091322D03*
X0362148Y0091360D03*
X0362148Y0091398D03*
X0362148Y0091436D03*
X0362148Y0091474D03*
X0362148Y0091512D03*
X0362148Y0091550D03*
X0362148Y0091588D03*
X0362148Y0091626D03*
X0362148Y0091664D03*
X0362148Y0091702D03*
X0362148Y0091740D03*
X0362148Y0091778D03*
X0362148Y0091816D03*
X0362148Y0091854D03*
X0362148Y0091892D03*
X0362148Y0091930D03*
X0362148Y0091968D03*
X0362148Y0092006D03*
X0362148Y0092044D03*
X0362148Y0092082D03*
X0362148Y0092120D03*
X0362148Y0092158D03*
X0362148Y0092196D03*
X0362148Y0092234D03*
X0362148Y0092272D03*
X0362148Y0092310D03*
X0362148Y0092348D03*
X0362148Y0092386D03*
X0362148Y0092424D03*
X0370014Y0092424D03*
X0370014Y0092386D03*
X0370014Y0092348D03*
X0370014Y0092310D03*
X0370014Y0092272D03*
X0370014Y0092234D03*
X0370014Y0092196D03*
X0370014Y0092158D03*
X0370014Y0092120D03*
X0370014Y0092082D03*
X0370014Y0092044D03*
X0370014Y0092006D03*
X0370014Y0091968D03*
X0370014Y0091930D03*
X0370014Y0091892D03*
X0370014Y0091854D03*
X0370014Y0091816D03*
X0370014Y0091778D03*
X0370014Y0091740D03*
X0370014Y0091702D03*
X0370014Y0091664D03*
X0370014Y0091626D03*
X0370014Y0091588D03*
X0370014Y0091550D03*
X0370014Y0091512D03*
X0370014Y0091474D03*
X0370014Y0091436D03*
X0370014Y0091398D03*
X0370014Y0091360D03*
X0370014Y0091322D03*
X0370014Y0091284D03*
X0370014Y0091246D03*
X0370014Y0091208D03*
X0370014Y0091170D03*
X0370014Y0091132D03*
X0370014Y0091094D03*
X0370014Y0091056D03*
X0370014Y0091018D03*
X0335738Y0089916D03*
X0335738Y0089878D03*
X0335738Y0089840D03*
X0335738Y0089802D03*
X0335738Y0089764D03*
X0335738Y0089726D03*
X0335738Y0089688D03*
X0335738Y0089650D03*
X0335738Y0089612D03*
X0335700Y0090106D03*
X0335700Y0090144D03*
X0335662Y0090258D03*
X0335662Y0090296D03*
X0335662Y0090334D03*
X0335624Y0090372D03*
X0335624Y0090410D03*
X0331368Y0088054D03*
X0331368Y0088016D03*
X0331330Y0087826D03*
X0328252Y0087826D03*
X0328252Y0087864D03*
X0328252Y0087902D03*
X0328252Y0087940D03*
X0328252Y0087978D03*
X0328252Y0088016D03*
X0328252Y0088054D03*
X0328252Y0088092D03*
X0328252Y0088130D03*
X0328252Y0088168D03*
X0328252Y0088206D03*
X0328252Y0088244D03*
X0328252Y0088282D03*
X0328252Y0088320D03*
X0328252Y0088358D03*
X0328252Y0088396D03*
X0328252Y0088434D03*
X0328252Y0088472D03*
X0328252Y0088510D03*
X0328252Y0088548D03*
X0328252Y0088586D03*
X0328252Y0088624D03*
X0328252Y0088662D03*
X0328252Y0088700D03*
X0328252Y0088738D03*
X0328252Y0088776D03*
X0328252Y0088814D03*
X0328252Y0088852D03*
X0328252Y0088890D03*
X0328252Y0088928D03*
X0328252Y0088966D03*
X0328252Y0089004D03*
X0328252Y0089042D03*
X0328252Y0089080D03*
X0328252Y0089118D03*
X0328252Y0089156D03*
X0328252Y0089194D03*
X0328252Y0089232D03*
X0328252Y0089270D03*
X0328252Y0089308D03*
X0328252Y0089346D03*
X0328252Y0089384D03*
X0328252Y0089422D03*
X0328252Y0089460D03*
X0328252Y0089498D03*
X0328252Y0089536D03*
X0328252Y0089574D03*
X0328252Y0089612D03*
X0328252Y0089650D03*
X0328252Y0089688D03*
X0328252Y0089726D03*
X0328252Y0089764D03*
X0328252Y0089802D03*
X0328252Y0089840D03*
X0328252Y0089878D03*
X0328252Y0089916D03*
X0328252Y0089954D03*
X0328252Y0089992D03*
X0328252Y0090030D03*
X0328252Y0090068D03*
X0328252Y0090106D03*
X0328252Y0090144D03*
X0328252Y0090182D03*
X0328252Y0090220D03*
X0328252Y0090258D03*
X0328252Y0090296D03*
X0328252Y0090334D03*
X0328252Y0090372D03*
X0328252Y0090410D03*
X0328252Y0090448D03*
X0328252Y0090486D03*
X0328252Y0090524D03*
X0328252Y0090562D03*
X0328252Y0090600D03*
X0328252Y0090638D03*
X0328252Y0090676D03*
X0328252Y0090714D03*
X0328252Y0090752D03*
X0328252Y0090790D03*
X0328252Y0090828D03*
X0328252Y0090866D03*
X0328252Y0090904D03*
X0328252Y0090942D03*
X0328252Y0090980D03*
X0328252Y0091018D03*
X0328252Y0091056D03*
X0328252Y0091094D03*
X0328252Y0091132D03*
X0328252Y0091170D03*
X0328252Y0091208D03*
X0328252Y0091246D03*
X0328252Y0091284D03*
X0328252Y0091322D03*
X0328252Y0091360D03*
X0328252Y0091398D03*
X0328252Y0091436D03*
X0328252Y0091474D03*
X0328252Y0091512D03*
X0328252Y0091550D03*
X0328252Y0091588D03*
X0328252Y0091626D03*
X0328252Y0091664D03*
X0328252Y0091702D03*
X0328252Y0091740D03*
X0328252Y0091778D03*
X0328252Y0091816D03*
X0328252Y0091854D03*
X0328252Y0091892D03*
X0328252Y0091930D03*
X0328252Y0091968D03*
X0328252Y0092006D03*
X0328252Y0092044D03*
X0335510Y0093260D03*
X0335510Y0093298D03*
X0335510Y0093336D03*
X0335510Y0093374D03*
X0335510Y0093412D03*
X0335510Y0093450D03*
X0335510Y0093488D03*
X0335510Y0093526D03*
X0335510Y0093564D03*
X0335510Y0093602D03*
X0335472Y0093678D03*
X0335472Y0093716D03*
X0335472Y0093754D03*
X0335472Y0093792D03*
X0328252Y0087788D03*
X0328252Y0087750D03*
X0328252Y0087712D03*
X0328252Y0087674D03*
X0328252Y0087636D03*
X0328252Y0087598D03*
X0328252Y0087560D03*
X0328252Y0087522D03*
X0328252Y0087484D03*
X0328252Y0087446D03*
X0328252Y0087408D03*
X0328252Y0087370D03*
X0328252Y0087332D03*
X0344516Y0108232D03*
X0345390Y0112412D03*
X0345390Y0112450D03*
X0345390Y0112488D03*
X0345390Y0112526D03*
X0345390Y0112564D03*
X0345390Y0112602D03*
X0345390Y0112640D03*
X0345390Y0112678D03*
X0345390Y0112716D03*
X0345390Y0112754D03*
X0345390Y0112792D03*
X0345390Y0112830D03*
X0345390Y0112868D03*
X0345390Y0112906D03*
X0345390Y0112944D03*
X0345390Y0112982D03*
X0345390Y0113020D03*
X0345390Y0113058D03*
X0345390Y0113096D03*
X0345390Y0113134D03*
X0345390Y0113172D03*
X0345390Y0113210D03*
X0345390Y0113248D03*
X0345390Y0113286D03*
X0345390Y0113324D03*
X0345390Y0113362D03*
X0345390Y0113400D03*
X0345390Y0113438D03*
X0345390Y0113476D03*
X0345390Y0113514D03*
X0345390Y0113552D03*
X0345390Y0113590D03*
X0345390Y0113628D03*
X0345390Y0113666D03*
X0345390Y0113704D03*
X0345390Y0113742D03*
X0345390Y0113780D03*
X0345390Y0113818D03*
X0345390Y0113856D03*
X0345390Y0113894D03*
X0345390Y0113932D03*
X0345390Y0113970D03*
X0345390Y0114008D03*
X0345390Y0114046D03*
X0345390Y0114084D03*
X0345390Y0114122D03*
X0345390Y0114160D03*
X0345390Y0114198D03*
X0345390Y0114236D03*
X0345390Y0114274D03*
X0345390Y0114312D03*
X0345390Y0114350D03*
X0345390Y0114388D03*
X0345390Y0114426D03*
X0345390Y0114464D03*
X0345390Y0114502D03*
X0345390Y0114540D03*
X0345390Y0114578D03*
X0345390Y0114616D03*
X0345390Y0114654D03*
X0345390Y0114692D03*
X0345390Y0114730D03*
X0345390Y0114768D03*
X0345390Y0114806D03*
X0345390Y0114844D03*
X0345390Y0114882D03*
X0345390Y0114920D03*
X0345390Y0114958D03*
X0345390Y0114996D03*
X0345390Y0115034D03*
X0345390Y0115072D03*
X0345390Y0115110D03*
X0345390Y0115148D03*
X0345390Y0115186D03*
X0345390Y0115224D03*
X0345390Y0115262D03*
X0345390Y0115300D03*
X0345390Y0115338D03*
X0345390Y0115376D03*
X0345390Y0115414D03*
X0345390Y0115452D03*
X0345390Y0115490D03*
X0345390Y0115528D03*
X0345390Y0115566D03*
X0345390Y0115604D03*
X0345390Y0115642D03*
X0345390Y0115680D03*
X0345390Y0115718D03*
X0345390Y0115756D03*
X0345390Y0115794D03*
X0345390Y0115832D03*
X0345390Y0115870D03*
X0345390Y0115908D03*
X0345390Y0115946D03*
X0345390Y0115984D03*
X0345390Y0116022D03*
X0345390Y0116060D03*
X0345390Y0116098D03*
X0345390Y0116136D03*
X0345390Y0116174D03*
X0345390Y0116212D03*
X0345390Y0116250D03*
X0345390Y0116288D03*
X0345390Y0116326D03*
X0345390Y0116364D03*
X0345390Y0116402D03*
X0345390Y0116440D03*
X0345390Y0116478D03*
X0345390Y0116516D03*
X0345390Y0116554D03*
X0345390Y0116592D03*
X0345390Y0116630D03*
X0345390Y0116668D03*
X0345390Y0116706D03*
X0345390Y0116744D03*
X0345390Y0116782D03*
X0345390Y0116820D03*
X0345390Y0116858D03*
X0345390Y0116896D03*
X0345390Y0116934D03*
X0345390Y0116972D03*
X0345390Y0117010D03*
X0345390Y0117048D03*
X0345390Y0117086D03*
X0345390Y0117124D03*
X0345390Y0117162D03*
X0345390Y0117200D03*
X0345390Y0117238D03*
X0345390Y0117276D03*
X0345390Y0117314D03*
X0345390Y0117352D03*
X0345390Y0117390D03*
X0345390Y0117428D03*
X0345390Y0117466D03*
X0345390Y0117504D03*
X0345390Y0117542D03*
X0345390Y0117580D03*
X0345390Y0117618D03*
X0345390Y0117656D03*
X0345390Y0117694D03*
X0345390Y0117732D03*
X0345390Y0117770D03*
X0345390Y0117808D03*
X0345390Y0117846D03*
X0345390Y0117884D03*
X0345390Y0117922D03*
X0345390Y0117960D03*
X0345390Y0117998D03*
X0345390Y0118036D03*
X0345390Y0118074D03*
X0345390Y0118112D03*
X0345390Y0118150D03*
X0345390Y0118188D03*
X0345390Y0118226D03*
X0345390Y0118264D03*
X0345390Y0118302D03*
X0345390Y0118340D03*
X0345390Y0118378D03*
X0345390Y0118416D03*
X0345390Y0118454D03*
X0345390Y0118492D03*
X0345390Y0118530D03*
X0345390Y0118568D03*
X0345390Y0118606D03*
X0345390Y0118644D03*
X0345390Y0118682D03*
X0345390Y0118720D03*
X0345390Y0118758D03*
X0345390Y0118796D03*
X0345390Y0118834D03*
X0345390Y0118872D03*
X0345390Y0118910D03*
X0345390Y0118948D03*
X0345390Y0118986D03*
X0345390Y0119024D03*
X0345390Y0119062D03*
X0345390Y0119100D03*
X0345390Y0119138D03*
X0345390Y0119176D03*
X0345390Y0119214D03*
X0345390Y0119252D03*
X0345390Y0119290D03*
X0345390Y0119328D03*
X0345390Y0119366D03*
X0345390Y0119404D03*
X0345390Y0119442D03*
X0345390Y0119480D03*
X0345390Y0119518D03*
X0345390Y0119556D03*
X0345390Y0119594D03*
X0345390Y0119632D03*
X0345390Y0119670D03*
X0345390Y0119708D03*
X0345390Y0119746D03*
X0345390Y0119784D03*
X0345390Y0119822D03*
X0345390Y0119860D03*
X0345390Y0119898D03*
X0345390Y0119936D03*
X0345390Y0119974D03*
X0345390Y0120012D03*
X0345390Y0120050D03*
X0345390Y0120088D03*
X0345390Y0120126D03*
X0345390Y0120164D03*
X0345390Y0120202D03*
X0345390Y0120240D03*
X0345390Y0120278D03*
X0345390Y0120316D03*
X0345390Y0120354D03*
X0345390Y0120392D03*
X0345390Y0120430D03*
X0345390Y0120468D03*
X0345390Y0120506D03*
X0345390Y0120544D03*
X0345390Y0120582D03*
X0345390Y0120620D03*
X0345390Y0120658D03*
X0345390Y0120696D03*
X0345390Y0120734D03*
X0345390Y0120772D03*
X0345390Y0120810D03*
X0345390Y0120848D03*
X0345390Y0120886D03*
X0345390Y0120924D03*
X0345390Y0120962D03*
X0345390Y0121836D03*
X0345390Y0121874D03*
X0345390Y0121912D03*
X0345390Y0121950D03*
X0345390Y0121988D03*
X0345390Y0122026D03*
X0345390Y0122064D03*
X0345390Y0122102D03*
X0345390Y0122140D03*
X0345390Y0122178D03*
X0345390Y0122216D03*
X0345390Y0122254D03*
X0345390Y0122292D03*
X0345390Y0122330D03*
X0345390Y0122368D03*
X0345390Y0122406D03*
X0345390Y0122444D03*
X0345390Y0122482D03*
X0345390Y0122520D03*
X0345390Y0122558D03*
X0345390Y0122596D03*
X0345390Y0122634D03*
X0345390Y0122672D03*
X0345390Y0122710D03*
X0345390Y0122748D03*
X0345390Y0122786D03*
X0345390Y0122824D03*
X0345390Y0122862D03*
X0345390Y0122900D03*
X0345390Y0122938D03*
X0345390Y0122976D03*
X0345390Y0123014D03*
X0345390Y0123052D03*
X0345390Y0123090D03*
X0345390Y0123128D03*
X0345390Y0123166D03*
X0345390Y0123204D03*
X0345390Y0123242D03*
X0345390Y0123280D03*
X0345390Y0123318D03*
X0345390Y0123356D03*
X0345390Y0123394D03*
X0345390Y0123432D03*
X0345390Y0123470D03*
X0345390Y0123508D03*
X0345390Y0123546D03*
X0345390Y0123584D03*
X0345390Y0123622D03*
X0345390Y0123660D03*
X0345390Y0123698D03*
X0345390Y0123736D03*
X0345390Y0123774D03*
X0345390Y0123812D03*
X0345390Y0123850D03*
X0345390Y0123888D03*
X0348696Y0119594D03*
X0351926Y0119518D03*
X0352040Y0118492D03*
X0355270Y0118492D03*
X0355270Y0118530D03*
X0355270Y0118568D03*
X0355270Y0118606D03*
X0355270Y0118644D03*
X0355270Y0118682D03*
X0355270Y0118720D03*
X0355270Y0118758D03*
X0355270Y0118796D03*
X0355270Y0118834D03*
X0355270Y0118872D03*
X0355270Y0118910D03*
X0355270Y0118948D03*
X0355270Y0118986D03*
X0355270Y0119024D03*
X0355270Y0119062D03*
X0355270Y0119100D03*
X0355270Y0119138D03*
X0355270Y0119176D03*
X0355270Y0119214D03*
X0355270Y0119252D03*
X0355270Y0119290D03*
X0355270Y0119328D03*
X0355270Y0119366D03*
X0355270Y0119404D03*
X0355270Y0119442D03*
X0355270Y0119480D03*
X0355270Y0119518D03*
X0355270Y0119556D03*
X0355270Y0119594D03*
X0355270Y0119632D03*
X0355270Y0119670D03*
X0355270Y0119708D03*
X0355270Y0119746D03*
X0355270Y0119784D03*
X0355270Y0119822D03*
X0355270Y0119860D03*
X0355270Y0119898D03*
X0355270Y0119936D03*
X0355270Y0119974D03*
X0355270Y0120012D03*
X0355270Y0120050D03*
X0355270Y0120088D03*
X0355270Y0120126D03*
X0355270Y0120164D03*
X0355270Y0120202D03*
X0355270Y0120240D03*
X0355270Y0120278D03*
X0355270Y0120316D03*
X0355270Y0120354D03*
X0355270Y0120392D03*
X0355270Y0120430D03*
X0355270Y0120468D03*
X0355270Y0120506D03*
X0355270Y0120544D03*
X0355270Y0120582D03*
X0355270Y0120620D03*
X0355270Y0120658D03*
X0355270Y0120696D03*
X0355270Y0120734D03*
X0355270Y0120772D03*
X0355270Y0120810D03*
X0355270Y0120848D03*
X0355270Y0120886D03*
X0355270Y0120924D03*
X0355270Y0120962D03*
X0355270Y0118454D03*
X0355270Y0118416D03*
X0355270Y0118378D03*
X0355270Y0118340D03*
X0355270Y0118302D03*
X0355270Y0118264D03*
X0355270Y0118226D03*
X0355270Y0118188D03*
X0355270Y0118150D03*
X0355270Y0118112D03*
X0355270Y0118074D03*
X0355270Y0118036D03*
X0355270Y0117998D03*
X0355270Y0117960D03*
X0355270Y0117922D03*
X0355270Y0117884D03*
X0355270Y0117846D03*
X0355270Y0117808D03*
X0355270Y0117770D03*
X0355270Y0117732D03*
X0355270Y0117694D03*
X0355270Y0117656D03*
X0355270Y0117618D03*
X0355270Y0117580D03*
X0355270Y0117542D03*
X0355270Y0117504D03*
X0355270Y0117466D03*
X0355270Y0117428D03*
X0355270Y0117390D03*
X0355270Y0117352D03*
X0355270Y0117314D03*
X0355270Y0117276D03*
X0355270Y0117238D03*
X0355270Y0117200D03*
X0355270Y0117162D03*
X0355270Y0117124D03*
X0355270Y0117086D03*
X0355270Y0117048D03*
X0355270Y0117010D03*
X0355270Y0116972D03*
X0355270Y0116934D03*
X0355270Y0116896D03*
X0355270Y0116858D03*
X0355270Y0116820D03*
X0355270Y0116782D03*
X0355270Y0116744D03*
X0355270Y0116706D03*
X0355270Y0116668D03*
X0355270Y0116630D03*
X0355270Y0116592D03*
X0355270Y0116554D03*
X0355270Y0116516D03*
X0355270Y0116478D03*
X0355270Y0116440D03*
X0355270Y0116402D03*
X0355270Y0116364D03*
X0355270Y0116326D03*
X0355270Y0116288D03*
X0355270Y0116250D03*
X0355270Y0116212D03*
X0355270Y0116174D03*
X0355270Y0116136D03*
X0355270Y0116098D03*
X0355270Y0116060D03*
X0355270Y0116022D03*
X0355270Y0115984D03*
X0355270Y0115946D03*
X0355270Y0115908D03*
X0355270Y0115870D03*
X0355270Y0115832D03*
X0355270Y0115794D03*
X0355270Y0115756D03*
X0355270Y0115718D03*
X0355270Y0115680D03*
X0355270Y0115642D03*
X0355270Y0115604D03*
X0355270Y0115566D03*
X0355270Y0115528D03*
X0355270Y0115490D03*
X0355270Y0115452D03*
X0355270Y0115414D03*
X0355270Y0115376D03*
X0355270Y0115338D03*
X0355270Y0115300D03*
X0352002Y0114008D03*
X0348620Y0113932D03*
X0348582Y0113970D03*
X0348468Y0115148D03*
X0342008Y0115642D03*
X0342008Y0115680D03*
X0342008Y0115718D03*
X0342008Y0115756D03*
X0342008Y0115794D03*
X0342008Y0115832D03*
X0342008Y0115870D03*
X0341970Y0115376D03*
X0341970Y0115338D03*
X0341970Y0115300D03*
X0341970Y0115262D03*
X0341970Y0115224D03*
X0341970Y0115186D03*
X0341970Y0115148D03*
X0341970Y0115110D03*
X0341970Y0115072D03*
X0341932Y0114996D03*
X0341932Y0114958D03*
X0341932Y0114920D03*
X0341932Y0114882D03*
X0341932Y0114844D03*
X0341932Y0114806D03*
X0341894Y0114654D03*
X0341894Y0114616D03*
X0341856Y0114464D03*
X0341856Y0114426D03*
X0341818Y0114350D03*
X0341818Y0114312D03*
X0341780Y0114236D03*
X0338284Y0114274D03*
X0338284Y0114312D03*
X0338284Y0114350D03*
X0338246Y0114388D03*
X0338246Y0114426D03*
X0338246Y0114464D03*
X0338208Y0114616D03*
X0342008Y0117504D03*
X0342008Y0117542D03*
X0342008Y0117580D03*
X0342008Y0117618D03*
X0342008Y0117656D03*
X0342008Y0117694D03*
X0342008Y0117732D03*
X0342008Y0117770D03*
X0341970Y0117998D03*
X0341970Y0118036D03*
X0341970Y0118074D03*
X0341970Y0118112D03*
X0341970Y0118150D03*
X0341970Y0118188D03*
X0341970Y0118226D03*
X0341970Y0118264D03*
X0341970Y0118302D03*
X0341932Y0118416D03*
X0341932Y0118454D03*
X0341932Y0118492D03*
X0341932Y0118530D03*
X0341932Y0118568D03*
X0341894Y0118720D03*
X0341894Y0118758D03*
X0341856Y0118910D03*
X0341856Y0118948D03*
X0341818Y0119024D03*
X0341818Y0119062D03*
X0341780Y0119138D03*
X0338360Y0119214D03*
X0338322Y0119138D03*
X0359108Y0119138D03*
X0359108Y0119176D03*
X0359108Y0119214D03*
X0359108Y0119252D03*
X0359108Y0119290D03*
X0359108Y0119328D03*
X0359108Y0119366D03*
X0359108Y0119404D03*
X0359108Y0119442D03*
X0359108Y0119480D03*
X0359108Y0119518D03*
X0359108Y0119556D03*
X0359108Y0119594D03*
X0359108Y0119632D03*
X0359108Y0119670D03*
X0359108Y0119708D03*
X0359108Y0119746D03*
X0359108Y0119784D03*
X0359108Y0119822D03*
X0359108Y0119860D03*
X0359108Y0119898D03*
X0359108Y0119936D03*
X0359108Y0119974D03*
X0359108Y0120012D03*
X0359108Y0120050D03*
X0359108Y0120088D03*
X0359108Y0120126D03*
X0359108Y0120164D03*
X0359108Y0120202D03*
X0359108Y0120240D03*
X0359108Y0120278D03*
X0359108Y0120316D03*
X0359108Y0120354D03*
X0359108Y0120392D03*
X0359108Y0120430D03*
X0359108Y0120468D03*
X0359108Y0120506D03*
X0359108Y0120544D03*
X0359108Y0120582D03*
X0359108Y0120620D03*
X0359108Y0120658D03*
X0359108Y0120696D03*
X0359108Y0120734D03*
X0359108Y0120772D03*
X0359108Y0120810D03*
X0359108Y0120848D03*
X0359108Y0120886D03*
X0359108Y0120924D03*
X0359108Y0120962D03*
X0359108Y0119100D03*
X0359108Y0119062D03*
X0359108Y0119024D03*
X0359108Y0118986D03*
X0359108Y0118948D03*
X0359108Y0118910D03*
X0359108Y0118872D03*
X0359108Y0118834D03*
X0359108Y0118796D03*
X0359108Y0118758D03*
X0359108Y0118720D03*
X0359108Y0118682D03*
X0359108Y0118644D03*
X0359108Y0118606D03*
X0359108Y0118568D03*
X0359108Y0118530D03*
X0359108Y0118492D03*
X0359108Y0118454D03*
X0359108Y0118416D03*
X0359108Y0118378D03*
X0359108Y0118340D03*
X0359108Y0118302D03*
X0359108Y0118264D03*
X0359108Y0118226D03*
X0359108Y0118188D03*
X0359108Y0118150D03*
X0359108Y0118112D03*
X0359108Y0118074D03*
X0359108Y0118036D03*
X0359108Y0117998D03*
X0359108Y0117960D03*
X0359108Y0117922D03*
X0359108Y0117884D03*
X0359108Y0117846D03*
X0359108Y0117808D03*
X0359108Y0117770D03*
X0359108Y0117732D03*
X0359108Y0117694D03*
X0359108Y0117656D03*
X0359108Y0117618D03*
X0359108Y0117580D03*
X0359108Y0117542D03*
X0359108Y0117504D03*
X0359108Y0117466D03*
X0359108Y0117428D03*
X0359108Y0117390D03*
X0359108Y0117352D03*
X0359108Y0117314D03*
X0359108Y0117276D03*
X0359108Y0117238D03*
X0359108Y0117200D03*
X0359108Y0117162D03*
X0359108Y0117124D03*
X0359108Y0117086D03*
X0359108Y0117048D03*
X0359108Y0117010D03*
X0359108Y0116972D03*
X0359108Y0116934D03*
X0359108Y0116896D03*
X0359108Y0116858D03*
X0359108Y0116820D03*
X0359108Y0116782D03*
X0359108Y0116744D03*
X0359108Y0116706D03*
X0359108Y0116668D03*
X0359108Y0116630D03*
X0359108Y0116592D03*
X0359108Y0116554D03*
X0359108Y0116516D03*
X0359108Y0116478D03*
X0359108Y0116440D03*
X0359108Y0116402D03*
X0359108Y0116364D03*
X0359108Y0116326D03*
X0359108Y0116288D03*
X0359108Y0116250D03*
X0359108Y0116212D03*
X0359108Y0116174D03*
X0359108Y0116136D03*
X0359108Y0116098D03*
X0359108Y0116060D03*
X0359108Y0116022D03*
X0359108Y0115984D03*
X0359108Y0115946D03*
X0359108Y0115908D03*
X0359108Y0115870D03*
X0359108Y0115832D03*
X0359108Y0115794D03*
X0359108Y0115756D03*
X0359108Y0115718D03*
X0359108Y0115680D03*
X0359108Y0115642D03*
X0359108Y0115604D03*
X0359108Y0115566D03*
X0359108Y0115528D03*
X0359108Y0115490D03*
X0359108Y0115452D03*
X0359108Y0115414D03*
X0359108Y0115376D03*
X0359108Y0115338D03*
X0359108Y0115300D03*
X0359108Y0115262D03*
X0359108Y0115224D03*
X0359108Y0115186D03*
X0359108Y0115148D03*
X0359108Y0115110D03*
X0359108Y0115072D03*
X0359108Y0115034D03*
X0362148Y0116098D03*
X0362148Y0116136D03*
X0362148Y0116174D03*
X0362148Y0116212D03*
X0362148Y0116250D03*
X0362148Y0116288D03*
X0362148Y0116326D03*
X0362148Y0116364D03*
X0362148Y0116402D03*
X0362148Y0116440D03*
X0362148Y0116478D03*
X0362148Y0116516D03*
X0362148Y0116554D03*
X0362148Y0116592D03*
X0362148Y0116630D03*
X0362148Y0116668D03*
X0362148Y0116706D03*
X0362148Y0116744D03*
X0362148Y0116782D03*
X0362148Y0116820D03*
X0362148Y0116858D03*
X0362148Y0116896D03*
X0362148Y0116934D03*
X0362148Y0116972D03*
X0362148Y0117010D03*
X0362148Y0117048D03*
X0362148Y0117086D03*
X0362148Y0117124D03*
X0362148Y0117162D03*
X0362148Y0117200D03*
X0362148Y0117238D03*
X0362148Y0117276D03*
X0362148Y0117314D03*
X0362148Y0117352D03*
X0362148Y0117390D03*
X0362148Y0117428D03*
X0362148Y0117466D03*
X0362148Y0117504D03*
X0370014Y0117504D03*
X0370014Y0117466D03*
X0370014Y0117428D03*
X0370014Y0117390D03*
X0370014Y0117352D03*
X0370014Y0117314D03*
X0370014Y0117276D03*
X0370014Y0117238D03*
X0370014Y0117200D03*
X0370014Y0117162D03*
X0370014Y0117124D03*
X0370014Y0117086D03*
X0370014Y0117048D03*
X0370014Y0117010D03*
X0370014Y0116972D03*
X0370014Y0116934D03*
X0370014Y0116896D03*
X0370014Y0116858D03*
X0370014Y0116820D03*
X0370014Y0116782D03*
X0370014Y0116744D03*
X0370014Y0116706D03*
X0370014Y0116668D03*
X0370014Y0116630D03*
X0370014Y0116592D03*
X0370014Y0116554D03*
X0370014Y0116516D03*
X0370014Y0116478D03*
X0370014Y0116440D03*
X0370014Y0116402D03*
X0370014Y0116364D03*
X0370014Y0116326D03*
X0370014Y0116288D03*
X0370014Y0116250D03*
X0370014Y0116212D03*
X0370014Y0116174D03*
X0370014Y0116136D03*
X0370014Y0116098D03*
D53*
X0367202Y0117466D03*
X0367202Y0117504D03*
X0367240Y0117656D03*
X0367240Y0117694D03*
X0367240Y0117732D03*
X0367240Y0117770D03*
X0367278Y0117846D03*
X0367278Y0117884D03*
X0367278Y0117922D03*
X0367278Y0117960D03*
X0367278Y0117998D03*
X0367316Y0118112D03*
X0367316Y0118150D03*
X0367316Y0118188D03*
X0364884Y0117922D03*
X0364884Y0117884D03*
X0364884Y0117846D03*
X0364846Y0118036D03*
X0364846Y0118074D03*
X0364846Y0118112D03*
X0364846Y0118150D03*
X0364846Y0118188D03*
X0364808Y0118226D03*
X0364808Y0118264D03*
X0364808Y0118302D03*
X0364808Y0118340D03*
X0364770Y0118454D03*
X0364770Y0118492D03*
X0364770Y0118530D03*
X0364732Y0118720D03*
X0364922Y0117656D03*
X0364390Y0120392D03*
X0364352Y0120582D03*
X0364276Y0120924D03*
X0364238Y0121114D03*
X0358348Y0112450D03*
X0350330Y0112260D03*
X0344516Y0108384D03*
X0340070Y0112260D03*
X0344516Y0100404D03*
X0364238Y0096034D03*
X0364276Y0095844D03*
X0364352Y0095502D03*
X0364390Y0095312D03*
X0364732Y0093640D03*
X0364770Y0093450D03*
X0364770Y0093412D03*
X0364770Y0093374D03*
X0364808Y0093260D03*
X0364808Y0093222D03*
X0364808Y0093184D03*
X0364808Y0093146D03*
X0364846Y0093108D03*
X0364846Y0093070D03*
X0364846Y0093032D03*
X0364846Y0092994D03*
X0364846Y0092956D03*
X0364884Y0092842D03*
X0364884Y0092804D03*
X0364884Y0092766D03*
X0364922Y0092576D03*
X0367202Y0092424D03*
X0367202Y0092386D03*
X0367240Y0092576D03*
X0367240Y0092614D03*
X0367240Y0092652D03*
X0367240Y0092690D03*
X0367278Y0092766D03*
X0367278Y0092804D03*
X0367278Y0092842D03*
X0367278Y0092880D03*
X0367278Y0092918D03*
X0367316Y0093032D03*
X0367316Y0093070D03*
X0367316Y0093108D03*
X0345086Y0087370D03*
X0334712Y0087332D03*
D54*
X0345010Y0087864D03*
X0334712Y0091322D03*
X0357322Y0087370D03*
X0360172Y0107890D03*
X0358272Y0112944D03*
X0344478Y0107890D03*
X0340070Y0112450D03*
X0340070Y0120924D03*
D55*
X0348468Y0119252D03*
X0348468Y0119214D03*
X0348468Y0119176D03*
X0348506Y0119290D03*
X0348506Y0119328D03*
X0352116Y0119100D03*
X0352116Y0119062D03*
X0352116Y0119024D03*
X0352230Y0114882D03*
X0352230Y0114844D03*
X0352230Y0114806D03*
X0352230Y0114768D03*
X0352230Y0114730D03*
X0352230Y0114692D03*
X0348430Y0114236D03*
X0348392Y0114312D03*
X0348392Y0114350D03*
X0348392Y0114388D03*
X0348354Y0114540D03*
X0348354Y0114578D03*
X0348354Y0114616D03*
X0348354Y0114654D03*
X0348354Y0114692D03*
X0348354Y0114730D03*
X0348354Y0114768D03*
X0344516Y0108308D03*
X0341438Y0108308D03*
X0341438Y0108346D03*
X0341438Y0108384D03*
X0341438Y0108422D03*
X0341438Y0108270D03*
X0341438Y0108232D03*
X0341438Y0108194D03*
X0341438Y0108156D03*
X0341438Y0108118D03*
X0341438Y0108080D03*
X0341438Y0108042D03*
X0341438Y0108004D03*
X0341438Y0107966D03*
X0341438Y0107928D03*
X0341438Y0107890D03*
X0341438Y0107852D03*
X0341438Y0107814D03*
X0341438Y0107776D03*
X0341438Y0107738D03*
X0341438Y0107700D03*
X0341438Y0107662D03*
X0341438Y0107624D03*
X0341438Y0107586D03*
X0341438Y0107548D03*
X0341438Y0107510D03*
X0344516Y0100480D03*
X0351736Y0087370D03*
D56*
X0366081Y0087408D03*
X0366081Y0087446D03*
X0366081Y0087484D03*
X0366081Y0087522D03*
X0366081Y0087560D03*
X0343699Y0097060D03*
X0334693Y0087370D03*
X0366081Y0112488D03*
X0366081Y0112526D03*
X0366081Y0112564D03*
X0366081Y0112602D03*
X0366081Y0112640D03*
X0352249Y0114920D03*
X0352249Y0114958D03*
X0352249Y0114996D03*
X0352249Y0115034D03*
X0352249Y0115072D03*
X0352249Y0115110D03*
X0348373Y0114502D03*
X0348373Y0114464D03*
X0348373Y0114426D03*
X0348411Y0118796D03*
X0348411Y0118834D03*
X0348411Y0118872D03*
X0348411Y0118910D03*
X0348411Y0118948D03*
X0348411Y0118986D03*
X0348449Y0119024D03*
X0348449Y0119062D03*
X0348449Y0119100D03*
X0348449Y0119138D03*
D57*
X0352002Y0118416D03*
X0341742Y0119252D03*
X0338398Y0119290D03*
X0338360Y0114122D03*
X0341742Y0114122D03*
X0351964Y0113970D03*
X0359032Y0114426D03*
X0359032Y0114464D03*
X0359070Y0114540D03*
X0359070Y0114578D03*
X0359070Y0114616D03*
X0359070Y0114654D03*
X0360134Y0108232D03*
X0363174Y0105990D03*
X0363174Y0105952D03*
X0363174Y0105914D03*
X0363174Y0105876D03*
X0348506Y0106180D03*
X0348506Y0106218D03*
X0348506Y0106256D03*
X0348506Y0106294D03*
X0348506Y0106332D03*
X0345352Y0106256D03*
X0345352Y0106218D03*
X0345352Y0102494D03*
X0345352Y0098770D03*
X0343680Y0097098D03*
X0341780Y0098732D03*
X0335396Y0094058D03*
X0335396Y0094020D03*
X0335434Y0093944D03*
X0331520Y0093944D03*
X0331520Y0093982D03*
X0331520Y0093906D03*
X0331520Y0093868D03*
X0331482Y0093678D03*
X0331482Y0093640D03*
X0331482Y0093602D03*
X0331482Y0093564D03*
X0331482Y0093526D03*
X0331482Y0093488D03*
X0328214Y0092614D03*
X0328214Y0092576D03*
X0328214Y0092538D03*
X0328214Y0092500D03*
X0328214Y0092462D03*
X0335510Y0090638D03*
X0335510Y0090600D03*
X0335548Y0090562D03*
X0331292Y0087636D03*
X0331216Y0087408D03*
X0331216Y0087370D03*
X0342046Y0089802D03*
X0342046Y0089840D03*
X0342046Y0089878D03*
X0342046Y0089916D03*
X0345770Y0089384D03*
X0345770Y0089346D03*
X0348810Y0089688D03*
X0348810Y0089726D03*
X0348810Y0089764D03*
X0348810Y0089802D03*
X0348810Y0089840D03*
X0352610Y0089840D03*
X0352610Y0089878D03*
X0352610Y0089916D03*
X0352610Y0089954D03*
X0352610Y0089802D03*
X0352610Y0089764D03*
X0352610Y0089726D03*
X0352648Y0090144D03*
X0352648Y0090182D03*
X0352648Y0090220D03*
X0352648Y0090258D03*
X0352648Y0090296D03*
X0352648Y0090334D03*
X0352648Y0090372D03*
X0352648Y0090410D03*
X0352648Y0090448D03*
X0352648Y0090486D03*
X0352610Y0093032D03*
X0352610Y0093070D03*
X0352610Y0093108D03*
X0352534Y0093564D03*
X0348810Y0093564D03*
X0348810Y0093526D03*
X0348810Y0093488D03*
X0348810Y0093450D03*
X0358956Y0094172D03*
D58*
X0351717Y0095198D03*
X0366081Y0090524D03*
X0366081Y0090486D03*
X0366081Y0090448D03*
X0366081Y0090410D03*
X0366081Y0090372D03*
X0357303Y0087408D03*
X0351717Y0087902D03*
X0334541Y0091398D03*
X0333439Y0095882D03*
X0349323Y0107776D03*
X0360191Y0107738D03*
X0366081Y0115452D03*
X0366081Y0115490D03*
X0366081Y0115528D03*
X0366081Y0115566D03*
X0366081Y0115604D03*
X0351451Y0117846D03*
X0349057Y0115718D03*
D59*
X0348430Y0115072D03*
X0348544Y0114008D03*
X0352078Y0114122D03*
X0352078Y0114160D03*
X0352078Y0118606D03*
X0351964Y0119480D03*
X0348620Y0119518D03*
X0338284Y0119024D03*
X0338246Y0118910D03*
X0338246Y0118872D03*
X0338246Y0118834D03*
X0338246Y0118796D03*
X0338208Y0118720D03*
X0338208Y0118682D03*
X0338208Y0118644D03*
X0338208Y0118606D03*
X0338208Y0118568D03*
X0338208Y0118530D03*
X0338208Y0118492D03*
X0338170Y0118416D03*
X0338170Y0118378D03*
X0338170Y0118340D03*
X0338170Y0118302D03*
X0338170Y0118264D03*
X0338170Y0118226D03*
X0338170Y0118188D03*
X0338170Y0118150D03*
X0338170Y0118112D03*
X0338170Y0118074D03*
X0338170Y0118036D03*
X0338170Y0117998D03*
X0338170Y0117960D03*
X0338170Y0117922D03*
X0338170Y0117884D03*
X0338170Y0117846D03*
X0338170Y0117808D03*
X0338170Y0117770D03*
X0338170Y0114920D03*
X0344516Y0108270D03*
X0344516Y0100518D03*
X0362110Y0095388D03*
X0362110Y0095350D03*
X0362110Y0095312D03*
X0362110Y0095274D03*
X0362110Y0095236D03*
X0362110Y0095198D03*
X0362110Y0095160D03*
X0362110Y0095122D03*
X0362110Y0095084D03*
X0362110Y0095046D03*
X0362110Y0095008D03*
X0362110Y0094970D03*
X0362110Y0094932D03*
X0362110Y0094894D03*
X0362110Y0094856D03*
X0362110Y0094818D03*
X0362110Y0094780D03*
X0362110Y0094742D03*
X0362110Y0094704D03*
X0362110Y0094666D03*
X0362110Y0094628D03*
X0362110Y0094590D03*
X0362110Y0094552D03*
X0362110Y0094514D03*
X0362110Y0094476D03*
X0362110Y0094438D03*
X0362110Y0094400D03*
X0362110Y0094362D03*
X0362110Y0094324D03*
X0362110Y0094286D03*
X0362110Y0094248D03*
X0362110Y0094210D03*
X0362110Y0094172D03*
X0362110Y0094134D03*
X0362110Y0094096D03*
X0362110Y0094058D03*
X0362110Y0094020D03*
X0362110Y0093982D03*
X0362110Y0093944D03*
X0370052Y0093944D03*
X0370052Y0093982D03*
X0370052Y0094020D03*
X0370052Y0094058D03*
X0370052Y0094096D03*
X0370052Y0094134D03*
X0370052Y0094172D03*
X0370052Y0094210D03*
X0370052Y0094248D03*
X0370052Y0094286D03*
X0370052Y0094324D03*
X0370052Y0094362D03*
X0370052Y0094400D03*
X0370052Y0094438D03*
X0370052Y0094476D03*
X0370052Y0094514D03*
X0370052Y0094552D03*
X0370052Y0094590D03*
X0370052Y0094628D03*
X0370052Y0094666D03*
X0370052Y0094704D03*
X0370052Y0094742D03*
X0370052Y0094780D03*
X0370052Y0094818D03*
X0370052Y0094856D03*
X0370052Y0094894D03*
X0370052Y0094932D03*
X0370052Y0094970D03*
X0370052Y0095008D03*
X0370052Y0095046D03*
X0370052Y0095084D03*
X0370052Y0095122D03*
X0370052Y0095160D03*
X0370052Y0095198D03*
X0370052Y0095236D03*
X0370052Y0095274D03*
X0370052Y0095312D03*
X0370052Y0095350D03*
X0370052Y0095388D03*
X0351736Y0087408D03*
X0362110Y0119024D03*
X0362110Y0119062D03*
X0362110Y0119100D03*
X0362110Y0119138D03*
X0362110Y0119176D03*
X0362110Y0119214D03*
X0362110Y0119252D03*
X0362110Y0119290D03*
X0362110Y0119328D03*
X0362110Y0119366D03*
X0362110Y0119404D03*
X0362110Y0119442D03*
X0362110Y0119480D03*
X0362110Y0119518D03*
X0362110Y0119556D03*
X0362110Y0119594D03*
X0362110Y0119632D03*
X0362110Y0119670D03*
X0362110Y0119708D03*
X0362110Y0119746D03*
X0362110Y0119784D03*
X0362110Y0119822D03*
X0362110Y0119860D03*
X0362110Y0119898D03*
X0362110Y0119936D03*
X0362110Y0119974D03*
X0362110Y0120012D03*
X0362110Y0120050D03*
X0362110Y0120088D03*
X0362110Y0120126D03*
X0362110Y0120164D03*
X0362110Y0120202D03*
X0362110Y0120240D03*
X0362110Y0120278D03*
X0362110Y0120316D03*
X0362110Y0120354D03*
X0362110Y0120392D03*
X0362110Y0120430D03*
X0362110Y0120468D03*
X0370052Y0120468D03*
X0370052Y0120430D03*
X0370052Y0120392D03*
X0370052Y0120354D03*
X0370052Y0120316D03*
X0370052Y0120278D03*
X0370052Y0120240D03*
X0370052Y0120202D03*
X0370052Y0120164D03*
X0370052Y0120126D03*
X0370052Y0120088D03*
X0370052Y0120050D03*
X0370052Y0120012D03*
X0370052Y0119974D03*
X0370052Y0119936D03*
X0370052Y0119898D03*
X0370052Y0119860D03*
X0370052Y0119822D03*
X0370052Y0119784D03*
X0370052Y0119746D03*
X0370052Y0119708D03*
X0370052Y0119670D03*
X0370052Y0119632D03*
X0370052Y0119594D03*
X0370052Y0119556D03*
X0370052Y0119518D03*
X0370052Y0119480D03*
X0370052Y0119442D03*
X0370052Y0119404D03*
X0370052Y0119366D03*
X0370052Y0119328D03*
X0370052Y0119290D03*
X0370052Y0119252D03*
X0370052Y0119214D03*
X0370052Y0119176D03*
X0370052Y0119138D03*
X0370052Y0119100D03*
X0370052Y0119062D03*
X0370052Y0119024D03*
D60*
X0358348Y0112488D03*
X0360134Y0108346D03*
X0349228Y0108346D03*
X0344516Y0100442D03*
X0345086Y0087408D03*
D61*
X0351698Y0087978D03*
X0357322Y0087446D03*
X0334636Y0087826D03*
X0331976Y0092652D03*
X0357284Y0095768D03*
X0360210Y0107624D03*
X0360210Y0107662D03*
X0349342Y0107700D03*
X0340070Y0112526D03*
X0340070Y0120848D03*
D62*
X0352040Y0119366D03*
X0352040Y0119328D03*
X0352154Y0114388D03*
X0352154Y0114350D03*
X0352154Y0114312D03*
X0345086Y0087446D03*
D63*
X0345067Y0087522D03*
X0345827Y0089612D03*
X0345827Y0089650D03*
X0345827Y0089688D03*
X0345827Y0089726D03*
X0345827Y0089764D03*
X0345827Y0089802D03*
X0345827Y0089840D03*
X0345827Y0089878D03*
X0345827Y0089916D03*
X0348791Y0089916D03*
X0348791Y0089954D03*
X0348791Y0089992D03*
X0348791Y0090030D03*
X0348791Y0090068D03*
X0348791Y0090106D03*
X0348791Y0089878D03*
X0352629Y0089992D03*
X0352629Y0090030D03*
X0352629Y0090068D03*
X0352629Y0090106D03*
X0352667Y0090524D03*
X0352667Y0090562D03*
X0352667Y0090600D03*
X0352667Y0090638D03*
X0352667Y0090676D03*
X0352667Y0090714D03*
X0352667Y0090752D03*
X0352667Y0090790D03*
X0352667Y0090828D03*
X0352667Y0090866D03*
X0352667Y0090904D03*
X0352667Y0090942D03*
X0352667Y0090980D03*
X0352667Y0091018D03*
X0352667Y0091056D03*
X0352667Y0091094D03*
X0352667Y0091132D03*
X0352667Y0091170D03*
X0352667Y0091208D03*
X0352667Y0091246D03*
X0352667Y0091284D03*
X0352667Y0091322D03*
X0352667Y0091360D03*
X0352667Y0091398D03*
X0352667Y0091436D03*
X0352667Y0091474D03*
X0352667Y0091512D03*
X0352667Y0091550D03*
X0352667Y0091588D03*
X0352667Y0091626D03*
X0352667Y0091664D03*
X0352667Y0091702D03*
X0352667Y0091740D03*
X0352667Y0091778D03*
X0352667Y0091816D03*
X0352667Y0091854D03*
X0352667Y0091892D03*
X0352667Y0091930D03*
X0352667Y0091968D03*
X0352667Y0092006D03*
X0352667Y0092044D03*
X0352667Y0092082D03*
X0352667Y0092120D03*
X0352667Y0092158D03*
X0352667Y0092196D03*
X0352667Y0092234D03*
X0352667Y0092272D03*
X0352667Y0092310D03*
X0352667Y0092348D03*
X0352667Y0092386D03*
X0352667Y0092424D03*
X0352629Y0092500D03*
X0352629Y0092538D03*
X0352629Y0092576D03*
X0352629Y0092614D03*
X0352629Y0092652D03*
X0352629Y0092690D03*
X0352629Y0092728D03*
X0352629Y0092766D03*
X0352629Y0092804D03*
X0352629Y0092842D03*
X0352629Y0092880D03*
X0352629Y0092918D03*
X0352629Y0092956D03*
X0352629Y0092994D03*
X0352591Y0093146D03*
X0352591Y0093184D03*
X0352591Y0093222D03*
X0352591Y0093260D03*
X0355365Y0092880D03*
X0355365Y0092842D03*
X0355365Y0092804D03*
X0355365Y0092766D03*
X0355365Y0092728D03*
X0355327Y0092348D03*
X0355327Y0092310D03*
X0355327Y0092272D03*
X0355327Y0092234D03*
X0355327Y0092196D03*
X0355327Y0092158D03*
X0355327Y0092120D03*
X0355327Y0092082D03*
X0355327Y0092044D03*
X0355327Y0092006D03*
X0355327Y0091968D03*
X0355327Y0091930D03*
X0355327Y0091892D03*
X0355327Y0091854D03*
X0355327Y0091816D03*
X0355327Y0091778D03*
X0355327Y0091740D03*
X0355327Y0091702D03*
X0355327Y0091664D03*
X0355327Y0091626D03*
X0355327Y0091588D03*
X0355327Y0091550D03*
X0355327Y0091512D03*
X0355327Y0091474D03*
X0355327Y0091436D03*
X0355327Y0091398D03*
X0355327Y0091360D03*
X0355327Y0091322D03*
X0355327Y0091284D03*
X0355327Y0091246D03*
X0355327Y0091208D03*
X0355327Y0091170D03*
X0355327Y0091132D03*
X0355327Y0091094D03*
X0355327Y0091056D03*
X0355327Y0091018D03*
X0355327Y0090980D03*
X0355327Y0090942D03*
X0355327Y0090904D03*
X0355327Y0090866D03*
X0355365Y0090486D03*
X0355365Y0090448D03*
X0355365Y0090410D03*
X0355365Y0090372D03*
X0355365Y0090334D03*
X0355555Y0089194D03*
X0355593Y0089118D03*
X0355631Y0089042D03*
X0359013Y0089118D03*
X0359051Y0089194D03*
X0359241Y0090334D03*
X0359241Y0090372D03*
X0359241Y0090410D03*
X0359241Y0090448D03*
X0359241Y0090486D03*
X0359279Y0090828D03*
X0359279Y0090866D03*
X0359279Y0090904D03*
X0359279Y0090942D03*
X0359279Y0090980D03*
X0359279Y0091018D03*
X0359279Y0091056D03*
X0359279Y0091094D03*
X0359279Y0091132D03*
X0359279Y0091170D03*
X0359279Y0091208D03*
X0359279Y0091246D03*
X0359279Y0091284D03*
X0359279Y0091322D03*
X0359279Y0091360D03*
X0359279Y0091398D03*
X0359279Y0091436D03*
X0359279Y0091474D03*
X0359279Y0091512D03*
X0359279Y0091550D03*
X0359279Y0091588D03*
X0359279Y0091626D03*
X0359279Y0091664D03*
X0359279Y0091702D03*
X0359279Y0091740D03*
X0359279Y0091778D03*
X0359279Y0091816D03*
X0359279Y0091854D03*
X0359279Y0091892D03*
X0359279Y0091930D03*
X0359279Y0091968D03*
X0359279Y0092006D03*
X0359279Y0092044D03*
X0359279Y0092082D03*
X0359279Y0092120D03*
X0359279Y0092158D03*
X0359279Y0092196D03*
X0359279Y0092234D03*
X0359279Y0092272D03*
X0359279Y0092310D03*
X0359279Y0092348D03*
X0359241Y0092690D03*
X0359241Y0092728D03*
X0359241Y0092766D03*
X0359241Y0092804D03*
X0359241Y0092842D03*
X0359241Y0092880D03*
X0359051Y0094020D03*
X0359013Y0094096D03*
X0355593Y0094096D03*
X0355555Y0094020D03*
X0348791Y0093412D03*
X0348791Y0093374D03*
X0348791Y0093336D03*
X0348791Y0093298D03*
X0348791Y0093260D03*
X0342027Y0090182D03*
X0342027Y0090144D03*
X0342027Y0090106D03*
X0342027Y0090068D03*
X0342027Y0090030D03*
X0342027Y0089992D03*
X0342027Y0089954D03*
X0335719Y0089574D03*
X0335719Y0089536D03*
X0335719Y0089498D03*
X0335605Y0090448D03*
X0335567Y0090486D03*
X0335567Y0090524D03*
X0331349Y0087978D03*
X0331349Y0087940D03*
X0331349Y0087902D03*
X0331349Y0087864D03*
X0331311Y0087788D03*
X0331311Y0087750D03*
X0331311Y0087712D03*
X0331311Y0087674D03*
X0331273Y0087598D03*
X0331273Y0087560D03*
X0334693Y0087446D03*
X0328233Y0092082D03*
X0328233Y0092120D03*
X0328233Y0092158D03*
X0328233Y0092196D03*
X0328233Y0092234D03*
X0328233Y0092272D03*
X0328233Y0092310D03*
X0328233Y0092348D03*
X0328233Y0092386D03*
X0328233Y0092424D03*
X0331501Y0093716D03*
X0331501Y0093754D03*
X0331501Y0093792D03*
X0331501Y0093830D03*
X0335415Y0093982D03*
X0335453Y0093906D03*
X0335453Y0093868D03*
X0335453Y0093830D03*
X0335491Y0093640D03*
X0341761Y0098770D03*
X0341761Y0098808D03*
X0341723Y0098846D03*
X0344497Y0100556D03*
X0345409Y0098884D03*
X0345409Y0098846D03*
X0345371Y0098808D03*
X0345409Y0102798D03*
X0345409Y0102836D03*
X0345409Y0102874D03*
X0345409Y0102912D03*
X0345409Y0102950D03*
X0345409Y0102988D03*
X0345409Y0103026D03*
X0345409Y0103064D03*
X0345447Y0103102D03*
X0345447Y0103140D03*
X0345447Y0103178D03*
X0345447Y0103216D03*
X0345447Y0103254D03*
X0345447Y0103292D03*
X0345447Y0103330D03*
X0345447Y0103368D03*
X0345447Y0103406D03*
X0345447Y0103444D03*
X0345447Y0103482D03*
X0345447Y0103520D03*
X0345447Y0103558D03*
X0345447Y0103596D03*
X0348487Y0105838D03*
X0348487Y0105876D03*
X0348487Y0105914D03*
X0348487Y0105952D03*
X0348487Y0105990D03*
X0348487Y0106028D03*
X0348487Y0106066D03*
X0348487Y0106104D03*
X0348487Y0106142D03*
X0345371Y0106142D03*
X0345371Y0106180D03*
X0345371Y0106104D03*
X0341571Y0105762D03*
X0341571Y0105724D03*
X0341571Y0105686D03*
X0341571Y0105648D03*
X0341571Y0105610D03*
X0341571Y0105572D03*
X0341571Y0105534D03*
X0341571Y0105496D03*
X0341571Y0105458D03*
X0341571Y0105420D03*
X0341571Y0105382D03*
X0341571Y0105344D03*
X0341571Y0103368D03*
X0341571Y0103330D03*
X0341571Y0103292D03*
X0341571Y0103254D03*
X0341571Y0103216D03*
X0341571Y0103178D03*
X0341571Y0103140D03*
X0341571Y0103102D03*
X0341571Y0103064D03*
X0341571Y0103026D03*
X0341571Y0102988D03*
X0352287Y0105610D03*
X0352287Y0105648D03*
X0352287Y0105686D03*
X0352287Y0105724D03*
X0352287Y0105762D03*
X0352287Y0105800D03*
X0352287Y0105838D03*
X0359393Y0105838D03*
X0359393Y0105876D03*
X0359393Y0105914D03*
X0359393Y0105952D03*
X0359393Y0105990D03*
X0359393Y0106028D03*
X0359393Y0106066D03*
X0359393Y0106104D03*
X0359393Y0106142D03*
X0363193Y0105838D03*
X0363193Y0105800D03*
X0363193Y0105762D03*
X0363193Y0105724D03*
X0363193Y0105686D03*
X0363193Y0105648D03*
X0363193Y0105610D03*
X0366081Y0113248D03*
X0366081Y0113286D03*
X0366081Y0113324D03*
X0366081Y0113362D03*
X0366081Y0113400D03*
X0369995Y0114616D03*
X0369995Y0114654D03*
X0369995Y0114692D03*
X0369995Y0114730D03*
X0369995Y0114768D03*
X0369995Y0114806D03*
X0369995Y0114844D03*
X0369995Y0114882D03*
X0369995Y0114920D03*
X0369995Y0114958D03*
X0369995Y0114996D03*
X0369995Y0115034D03*
X0369995Y0115072D03*
X0369995Y0115110D03*
X0369995Y0115148D03*
X0369995Y0115186D03*
X0369995Y0115224D03*
X0369995Y0115262D03*
X0369995Y0115300D03*
X0369995Y0115338D03*
X0369995Y0115376D03*
X0369995Y0115414D03*
X0369995Y0115452D03*
X0369995Y0115490D03*
X0369995Y0115528D03*
X0369995Y0115566D03*
X0369995Y0115604D03*
X0369995Y0115642D03*
X0369995Y0115680D03*
X0369995Y0115718D03*
X0369995Y0115756D03*
X0369995Y0115794D03*
X0369995Y0115832D03*
X0369995Y0115870D03*
X0369995Y0115908D03*
X0369995Y0115946D03*
X0369995Y0115984D03*
X0369995Y0116022D03*
X0369995Y0116060D03*
X0362167Y0116060D03*
X0362167Y0116022D03*
X0362167Y0115984D03*
X0362167Y0115946D03*
X0362167Y0115908D03*
X0362167Y0115870D03*
X0362167Y0115832D03*
X0362167Y0115794D03*
X0362167Y0115756D03*
X0362167Y0115718D03*
X0362167Y0115680D03*
X0362167Y0115642D03*
X0362167Y0115604D03*
X0362167Y0115566D03*
X0362167Y0115528D03*
X0362167Y0115490D03*
X0362167Y0115452D03*
X0362167Y0115414D03*
X0362167Y0115376D03*
X0362167Y0115338D03*
X0362167Y0115300D03*
X0362167Y0115262D03*
X0362167Y0115224D03*
X0362167Y0115186D03*
X0362167Y0115148D03*
X0362167Y0115110D03*
X0362167Y0115072D03*
X0362167Y0115034D03*
X0362167Y0114996D03*
X0362167Y0114958D03*
X0362167Y0114920D03*
X0362167Y0114882D03*
X0362167Y0114844D03*
X0362167Y0114806D03*
X0362167Y0114768D03*
X0362167Y0114730D03*
X0362167Y0114692D03*
X0362167Y0114654D03*
X0362167Y0114616D03*
X0359089Y0114692D03*
X0359089Y0114730D03*
X0359089Y0114768D03*
X0359089Y0114806D03*
X0359089Y0114844D03*
X0359089Y0114882D03*
X0359089Y0114920D03*
X0359089Y0114958D03*
X0359089Y0114996D03*
X0358329Y0112602D03*
X0355289Y0115034D03*
X0355289Y0115072D03*
X0355289Y0115110D03*
X0355289Y0115148D03*
X0355289Y0115186D03*
X0355289Y0115224D03*
X0355289Y0115262D03*
X0352021Y0118454D03*
X0351869Y0119556D03*
X0341989Y0117960D03*
X0341989Y0117922D03*
X0341989Y0117884D03*
X0341989Y0117846D03*
X0341989Y0117808D03*
X0342027Y0117466D03*
X0342027Y0117428D03*
X0342027Y0117390D03*
X0342027Y0117352D03*
X0342027Y0117314D03*
X0342027Y0117276D03*
X0342027Y0117238D03*
X0342027Y0117200D03*
X0342027Y0117162D03*
X0342027Y0117124D03*
X0342027Y0117086D03*
X0342027Y0117048D03*
X0342027Y0117010D03*
X0342027Y0116972D03*
X0342027Y0116934D03*
X0342027Y0116896D03*
X0342027Y0116858D03*
X0342027Y0116820D03*
X0342027Y0116782D03*
X0342027Y0116744D03*
X0342027Y0116706D03*
X0342027Y0116668D03*
X0342027Y0116630D03*
X0342027Y0116592D03*
X0342027Y0116554D03*
X0342027Y0116516D03*
X0342027Y0116478D03*
X0342027Y0116440D03*
X0342027Y0116402D03*
X0342027Y0116364D03*
X0342027Y0116326D03*
X0342027Y0116288D03*
X0342027Y0116250D03*
X0342027Y0116212D03*
X0342027Y0116174D03*
X0342027Y0116136D03*
X0342027Y0116098D03*
X0342027Y0116060D03*
X0342027Y0116022D03*
X0342027Y0115984D03*
X0342027Y0115946D03*
X0342027Y0115908D03*
X0341989Y0115604D03*
X0341989Y0115566D03*
X0341989Y0115528D03*
X0341989Y0115490D03*
X0341989Y0115452D03*
X0341989Y0115414D03*
X0341799Y0114274D03*
X0341761Y0114198D03*
X0341761Y0114160D03*
X0338341Y0114160D03*
X0338341Y0114198D03*
X0338303Y0114236D03*
X0348487Y0115186D03*
X0341799Y0119100D03*
X0341761Y0119176D03*
X0341761Y0119214D03*
X0338379Y0119252D03*
X0338341Y0119176D03*
X0362167Y0090980D03*
X0362167Y0090942D03*
X0362167Y0090904D03*
X0362167Y0090866D03*
X0362167Y0090828D03*
X0362167Y0090790D03*
X0362167Y0090752D03*
X0362167Y0090714D03*
X0362167Y0090676D03*
X0362167Y0090638D03*
X0362167Y0090600D03*
X0362167Y0090562D03*
X0362167Y0090524D03*
X0362167Y0090486D03*
X0362167Y0090448D03*
X0362167Y0090410D03*
X0362167Y0090372D03*
X0362167Y0090334D03*
X0362167Y0090296D03*
X0362167Y0090258D03*
X0362167Y0090220D03*
X0362167Y0090182D03*
X0362167Y0090144D03*
X0362167Y0090106D03*
X0362167Y0090068D03*
X0362167Y0090030D03*
X0362167Y0089992D03*
X0362167Y0089954D03*
X0362167Y0089916D03*
X0362167Y0089878D03*
X0362167Y0089840D03*
X0362167Y0089802D03*
X0362167Y0089764D03*
X0362167Y0089726D03*
X0362167Y0089688D03*
X0362167Y0089650D03*
X0362167Y0089612D03*
X0362167Y0089574D03*
X0362167Y0089536D03*
X0366081Y0088320D03*
X0366081Y0088282D03*
X0366081Y0088244D03*
X0366081Y0088206D03*
X0366081Y0088168D03*
X0369995Y0089536D03*
X0369995Y0089574D03*
X0369995Y0089612D03*
X0369995Y0089650D03*
X0369995Y0089688D03*
X0369995Y0089726D03*
X0369995Y0089764D03*
X0369995Y0089802D03*
X0369995Y0089840D03*
X0369995Y0089878D03*
X0369995Y0089916D03*
X0369995Y0089954D03*
X0369995Y0089992D03*
X0369995Y0090030D03*
X0369995Y0090068D03*
X0369995Y0090106D03*
X0369995Y0090144D03*
X0369995Y0090182D03*
X0369995Y0090220D03*
X0369995Y0090258D03*
X0369995Y0090296D03*
X0369995Y0090334D03*
X0369995Y0090372D03*
X0369995Y0090410D03*
X0369995Y0090448D03*
X0369995Y0090486D03*
X0369995Y0090524D03*
X0369995Y0090562D03*
X0369995Y0090600D03*
X0369995Y0090638D03*
X0369995Y0090676D03*
X0369995Y0090714D03*
X0369995Y0090752D03*
X0369995Y0090790D03*
X0369995Y0090828D03*
X0369995Y0090866D03*
X0369995Y0090904D03*
X0369995Y0090942D03*
X0369995Y0090980D03*
D64*
X0369976Y0089498D03*
X0369976Y0089460D03*
X0369976Y0089422D03*
X0369976Y0089384D03*
X0369976Y0089346D03*
X0369976Y0089308D03*
X0369976Y0089270D03*
X0369976Y0089232D03*
X0369976Y0089194D03*
X0369976Y0089156D03*
X0369976Y0089118D03*
X0369976Y0089080D03*
X0369976Y0089042D03*
X0369976Y0089004D03*
X0369976Y0088966D03*
X0369976Y0088928D03*
X0369976Y0088890D03*
X0369976Y0088852D03*
X0369976Y0088814D03*
X0369976Y0088776D03*
X0369976Y0088738D03*
X0369976Y0088700D03*
X0369976Y0088662D03*
X0369976Y0088624D03*
X0369976Y0088586D03*
X0369976Y0088548D03*
X0369976Y0088510D03*
X0369976Y0088472D03*
X0369976Y0088434D03*
X0369976Y0088396D03*
X0369976Y0088358D03*
X0369976Y0088320D03*
X0369976Y0088282D03*
X0369976Y0088244D03*
X0369976Y0088206D03*
X0369976Y0088168D03*
X0369976Y0088130D03*
X0369976Y0088092D03*
X0369976Y0088054D03*
X0362186Y0088054D03*
X0362186Y0088092D03*
X0362186Y0088130D03*
X0362186Y0088168D03*
X0362186Y0088206D03*
X0362186Y0088244D03*
X0362186Y0088282D03*
X0362186Y0088320D03*
X0362186Y0088358D03*
X0362186Y0088396D03*
X0362186Y0088434D03*
X0362186Y0088472D03*
X0362186Y0088510D03*
X0362186Y0088548D03*
X0362186Y0088586D03*
X0362186Y0088624D03*
X0362186Y0088662D03*
X0362186Y0088700D03*
X0362186Y0088738D03*
X0362186Y0088776D03*
X0362186Y0088814D03*
X0362186Y0088852D03*
X0362186Y0088890D03*
X0362186Y0088928D03*
X0362186Y0088966D03*
X0362186Y0089004D03*
X0362186Y0089042D03*
X0362186Y0089080D03*
X0362186Y0089118D03*
X0362186Y0089156D03*
X0362186Y0089194D03*
X0362186Y0089232D03*
X0362186Y0089270D03*
X0362186Y0089308D03*
X0362186Y0089346D03*
X0362186Y0089384D03*
X0362186Y0089422D03*
X0362186Y0089460D03*
X0362186Y0089498D03*
X0358994Y0089080D03*
X0355650Y0089004D03*
X0355612Y0089080D03*
X0345808Y0089460D03*
X0345808Y0089498D03*
X0345808Y0089536D03*
X0345808Y0089574D03*
X0352572Y0093298D03*
X0352572Y0093336D03*
X0352572Y0093374D03*
X0352572Y0093412D03*
X0352572Y0093450D03*
X0355612Y0094134D03*
X0355612Y0094172D03*
X0358994Y0094134D03*
X0345390Y0102646D03*
X0345390Y0102684D03*
X0345390Y0102722D03*
X0345390Y0102760D03*
X0341590Y0102760D03*
X0341590Y0102798D03*
X0341590Y0102836D03*
X0341590Y0102874D03*
X0341590Y0102912D03*
X0341590Y0102950D03*
X0341590Y0102722D03*
X0341590Y0105800D03*
X0341590Y0105838D03*
X0341590Y0105876D03*
X0341590Y0105914D03*
X0341590Y0105952D03*
X0341590Y0105990D03*
X0348544Y0106408D03*
X0352268Y0105990D03*
X0352268Y0105952D03*
X0352268Y0105914D03*
X0352268Y0105876D03*
X0359412Y0106180D03*
X0359412Y0106218D03*
X0359412Y0106256D03*
X0359412Y0106294D03*
X0359412Y0106332D03*
X0359450Y0106408D03*
X0362186Y0113134D03*
X0362186Y0113172D03*
X0362186Y0113210D03*
X0362186Y0113248D03*
X0362186Y0113286D03*
X0362186Y0113324D03*
X0362186Y0113362D03*
X0362186Y0113400D03*
X0362186Y0113438D03*
X0362186Y0113476D03*
X0362186Y0113514D03*
X0362186Y0113552D03*
X0362186Y0113590D03*
X0362186Y0113628D03*
X0362186Y0113666D03*
X0362186Y0113704D03*
X0362186Y0113742D03*
X0362186Y0113780D03*
X0362186Y0113818D03*
X0362186Y0113856D03*
X0362186Y0113894D03*
X0362186Y0113932D03*
X0362186Y0113970D03*
X0362186Y0114008D03*
X0362186Y0114046D03*
X0362186Y0114084D03*
X0362186Y0114122D03*
X0362186Y0114160D03*
X0362186Y0114198D03*
X0362186Y0114236D03*
X0362186Y0114274D03*
X0362186Y0114312D03*
X0362186Y0114350D03*
X0362186Y0114388D03*
X0362186Y0114426D03*
X0362186Y0114464D03*
X0362186Y0114502D03*
X0362186Y0114540D03*
X0362186Y0114578D03*
X0355308Y0114882D03*
X0355308Y0114920D03*
X0355308Y0114958D03*
X0355308Y0114996D03*
X0351926Y0113932D03*
X0341704Y0114084D03*
X0341704Y0119290D03*
X0350254Y0121038D03*
X0369976Y0114578D03*
X0369976Y0114540D03*
X0369976Y0114502D03*
X0369976Y0114464D03*
X0369976Y0114426D03*
X0369976Y0114388D03*
X0369976Y0114350D03*
X0369976Y0114312D03*
X0369976Y0114274D03*
X0369976Y0114236D03*
X0369976Y0114198D03*
X0369976Y0114160D03*
X0369976Y0114122D03*
X0369976Y0114084D03*
X0369976Y0114046D03*
X0369976Y0114008D03*
X0369976Y0113970D03*
X0369976Y0113932D03*
X0369976Y0113894D03*
X0369976Y0113856D03*
X0369976Y0113818D03*
X0369976Y0113780D03*
X0369976Y0113742D03*
X0369976Y0113704D03*
X0369976Y0113666D03*
X0369976Y0113628D03*
X0369976Y0113590D03*
X0369976Y0113552D03*
X0369976Y0113514D03*
X0369976Y0113476D03*
X0369976Y0113438D03*
X0369976Y0113400D03*
X0369976Y0113362D03*
X0369976Y0113324D03*
X0369976Y0113286D03*
X0369976Y0113248D03*
X0369976Y0113210D03*
X0369976Y0113172D03*
X0369976Y0113134D03*
X0335472Y0090676D03*
X0335700Y0089460D03*
X0335700Y0089422D03*
X0335700Y0089384D03*
X0331254Y0087522D03*
X0331254Y0087484D03*
X0331254Y0087446D03*
D65*
X0344972Y0088206D03*
X0351698Y0088092D03*
X0357322Y0087484D03*
X0332052Y0092576D03*
X0349342Y0107586D03*
X0340070Y0112564D03*
X0349228Y0115870D03*
X0351242Y0117694D03*
X0358234Y0113286D03*
D66*
X0352059Y0114084D03*
X0352021Y0114046D03*
X0348449Y0115110D03*
X0341913Y0114768D03*
X0341913Y0114730D03*
X0341913Y0114692D03*
X0341875Y0114578D03*
X0341875Y0114540D03*
X0341875Y0114502D03*
X0341837Y0114388D03*
X0338227Y0114502D03*
X0338227Y0114540D03*
X0338227Y0114578D03*
X0338189Y0114654D03*
X0338189Y0114692D03*
X0338189Y0114730D03*
X0338189Y0114768D03*
X0338189Y0114806D03*
X0338189Y0114844D03*
X0338189Y0114882D03*
X0338227Y0118758D03*
X0338303Y0119062D03*
X0338303Y0119100D03*
X0341837Y0118986D03*
X0341875Y0118872D03*
X0341875Y0118834D03*
X0341875Y0118796D03*
X0341913Y0118682D03*
X0341913Y0118644D03*
X0341913Y0118606D03*
X0348639Y0119556D03*
X0352059Y0118568D03*
X0352059Y0118530D03*
X0366081Y0113210D03*
X0366081Y0113172D03*
X0366081Y0113134D03*
X0366081Y0113096D03*
X0366081Y0113058D03*
X0360153Y0108270D03*
X0345409Y0105914D03*
X0341571Y0099910D03*
X0341571Y0099872D03*
X0341571Y0099834D03*
X0341571Y0099796D03*
X0341571Y0099758D03*
X0341571Y0099720D03*
X0341571Y0099682D03*
X0341571Y0099644D03*
X0341571Y0099606D03*
X0341571Y0099568D03*
X0341571Y0099530D03*
X0341571Y0099492D03*
X0341609Y0099416D03*
X0341609Y0099378D03*
X0341609Y0099340D03*
X0341609Y0099302D03*
X0341609Y0099264D03*
X0341609Y0099226D03*
X0341685Y0098960D03*
X0345485Y0099188D03*
X0345485Y0099226D03*
X0345485Y0099264D03*
X0345485Y0099302D03*
X0345485Y0099340D03*
X0345485Y0099378D03*
X0345485Y0099416D03*
X0345485Y0099454D03*
X0355517Y0093906D03*
X0355441Y0093602D03*
X0355441Y0093564D03*
X0355441Y0093526D03*
X0355403Y0093298D03*
X0355403Y0093260D03*
X0359089Y0093868D03*
X0359089Y0093906D03*
X0359127Y0093754D03*
X0359127Y0093716D03*
X0359203Y0093260D03*
X0359203Y0089954D03*
X0359127Y0089498D03*
X0359127Y0089460D03*
X0359127Y0089422D03*
X0359089Y0089308D03*
X0355517Y0089308D03*
X0355441Y0089612D03*
X0355441Y0089650D03*
X0355441Y0089688D03*
X0355403Y0089916D03*
X0355403Y0089954D03*
X0348753Y0090676D03*
X0348753Y0090714D03*
X0348753Y0090752D03*
X0348753Y0090790D03*
X0348753Y0090828D03*
X0348753Y0090866D03*
X0348753Y0090904D03*
X0348753Y0090942D03*
X0348753Y0090980D03*
X0348753Y0091018D03*
X0348753Y0091056D03*
X0348753Y0091094D03*
X0348753Y0091132D03*
X0348753Y0091170D03*
X0348753Y0091208D03*
X0348753Y0091246D03*
X0348753Y0091284D03*
X0348753Y0091322D03*
X0348753Y0091360D03*
X0348753Y0091398D03*
X0348753Y0091436D03*
X0348753Y0091474D03*
X0348753Y0091512D03*
X0348753Y0091550D03*
X0348753Y0091588D03*
X0348753Y0091626D03*
X0348753Y0091664D03*
X0348753Y0091702D03*
X0348753Y0091740D03*
X0348753Y0091778D03*
X0348753Y0091816D03*
X0348753Y0091854D03*
X0348753Y0091892D03*
X0348753Y0091930D03*
X0348753Y0091968D03*
X0348753Y0092006D03*
X0348753Y0092044D03*
X0348753Y0092082D03*
X0348753Y0092120D03*
X0348753Y0092158D03*
X0348753Y0092196D03*
X0348753Y0092234D03*
X0348753Y0092272D03*
X0348753Y0092310D03*
X0348753Y0092348D03*
X0348753Y0092386D03*
X0348753Y0092424D03*
X0348753Y0092462D03*
X0348753Y0092500D03*
X0348753Y0092538D03*
X0348753Y0092576D03*
X0348753Y0092614D03*
X0348753Y0092652D03*
X0348753Y0092690D03*
X0348753Y0092728D03*
X0348753Y0092766D03*
X0348753Y0092804D03*
X0348753Y0092842D03*
X0348753Y0092880D03*
X0348753Y0092918D03*
X0348753Y0092956D03*
X0335681Y0090220D03*
X0335681Y0090182D03*
X0345067Y0087484D03*
X0366081Y0087978D03*
X0366081Y0088016D03*
X0366081Y0088054D03*
X0366081Y0088092D03*
X0366081Y0088130D03*
D67*
X0366081Y0091284D03*
X0366081Y0091322D03*
X0357303Y0087522D03*
X0351679Y0088206D03*
X0344953Y0088320D03*
X0332109Y0092538D03*
X0333439Y0095806D03*
X0343661Y0097326D03*
X0357303Y0095692D03*
X0362813Y0098580D03*
X0362813Y0098618D03*
X0362813Y0098656D03*
X0362813Y0098694D03*
X0369349Y0098732D03*
X0349361Y0107472D03*
X0350311Y0112602D03*
X0358215Y0113400D03*
X0366081Y0116364D03*
X0366081Y0116402D03*
X0362813Y0123660D03*
X0362813Y0123698D03*
X0362813Y0123736D03*
X0362813Y0123774D03*
X0369349Y0123812D03*
X0340051Y0120772D03*
X0340051Y0112602D03*
D68*
X0338474Y0113970D03*
X0348620Y0115338D03*
X0348734Y0113856D03*
X0351888Y0118264D03*
X0355384Y0114578D03*
X0355384Y0114540D03*
X0358956Y0114274D03*
X0344516Y0108156D03*
X0345238Y0106484D03*
X0348620Y0106598D03*
X0352192Y0106332D03*
X0352192Y0106294D03*
X0359526Y0106598D03*
X0363098Y0106332D03*
X0363098Y0106294D03*
X0345276Y0102266D03*
X0341666Y0102342D03*
X0341894Y0098618D03*
X0345238Y0098618D03*
X0348886Y0093830D03*
X0352420Y0093868D03*
X0352458Y0093830D03*
X0355726Y0094286D03*
X0358880Y0094286D03*
X0352496Y0089270D03*
X0355726Y0088928D03*
X0358880Y0088928D03*
X0351736Y0087522D03*
X0348886Y0089346D03*
X0345694Y0089194D03*
X0342122Y0089460D03*
X0342122Y0089498D03*
X0335624Y0089194D03*
X0335586Y0089118D03*
X0335282Y0090904D03*
X0331558Y0089612D03*
X0331558Y0089574D03*
X0331558Y0089536D03*
X0331558Y0093184D03*
X0331558Y0093222D03*
X0331634Y0094210D03*
X0335282Y0094248D03*
X0328138Y0093032D03*
X0328138Y0092994D03*
X0341666Y0106370D03*
X0341628Y0119366D03*
D69*
X0341552Y0119404D03*
X0341552Y0113932D03*
X0344516Y0108118D03*
X0363060Y0106446D03*
X0363060Y0106408D03*
X0368456Y0106408D03*
X0368456Y0106446D03*
X0368456Y0106484D03*
X0368456Y0106522D03*
X0368456Y0106560D03*
X0368456Y0106598D03*
X0368456Y0106636D03*
X0368456Y0106674D03*
X0368456Y0106712D03*
X0368456Y0106750D03*
X0368456Y0106788D03*
X0368456Y0106826D03*
X0368456Y0106864D03*
X0368456Y0106902D03*
X0368456Y0106940D03*
X0368456Y0106978D03*
X0368456Y0107016D03*
X0368456Y0107054D03*
X0368456Y0107092D03*
X0368456Y0107130D03*
X0368456Y0107168D03*
X0368456Y0107206D03*
X0368456Y0107244D03*
X0368456Y0107282D03*
X0368456Y0107320D03*
X0368456Y0107358D03*
X0368456Y0107396D03*
X0368456Y0107434D03*
X0368456Y0107472D03*
X0368456Y0107510D03*
X0368456Y0107548D03*
X0368456Y0107586D03*
X0368456Y0107624D03*
X0368456Y0107662D03*
X0368456Y0107700D03*
X0368456Y0107738D03*
X0368456Y0107776D03*
X0368456Y0107814D03*
X0368456Y0107852D03*
X0368456Y0107890D03*
X0368456Y0107928D03*
X0368456Y0107966D03*
X0368456Y0108004D03*
X0368456Y0108042D03*
X0368456Y0108080D03*
X0368456Y0108118D03*
X0368456Y0108156D03*
X0368456Y0108194D03*
X0368456Y0108232D03*
X0368456Y0108270D03*
X0368456Y0108308D03*
X0368456Y0108346D03*
X0368456Y0108384D03*
X0368456Y0108422D03*
X0368456Y0108460D03*
X0368456Y0108498D03*
X0368456Y0108536D03*
X0368456Y0108574D03*
X0368456Y0108612D03*
X0368456Y0108650D03*
X0368456Y0108688D03*
X0368456Y0108726D03*
X0368456Y0108764D03*
X0368456Y0108802D03*
X0368456Y0108840D03*
X0368456Y0108878D03*
X0368456Y0108916D03*
X0368456Y0108954D03*
X0368456Y0108992D03*
X0368456Y0109030D03*
X0368456Y0109068D03*
X0368456Y0106370D03*
X0368456Y0106332D03*
X0368456Y0106294D03*
X0368456Y0106256D03*
X0368456Y0106218D03*
X0368456Y0106180D03*
X0368456Y0106142D03*
X0368456Y0106104D03*
X0368456Y0106066D03*
X0368456Y0106028D03*
X0368456Y0105990D03*
X0368456Y0105952D03*
X0368456Y0105914D03*
X0368456Y0105876D03*
X0368456Y0105838D03*
X0368456Y0105800D03*
X0368456Y0105762D03*
X0368456Y0105724D03*
X0368456Y0105686D03*
X0368456Y0105648D03*
X0368456Y0105610D03*
X0368456Y0105572D03*
X0368456Y0105534D03*
X0368456Y0105496D03*
X0368456Y0105458D03*
X0368456Y0105420D03*
X0368456Y0105382D03*
X0368456Y0105344D03*
X0368456Y0105306D03*
X0368456Y0105268D03*
X0368456Y0105230D03*
X0368456Y0105192D03*
X0368456Y0105154D03*
X0368456Y0105116D03*
X0368456Y0105078D03*
X0368456Y0105040D03*
X0368456Y0105002D03*
X0368456Y0104964D03*
X0368456Y0104926D03*
X0368456Y0104888D03*
X0368456Y0104850D03*
X0368456Y0104812D03*
X0368456Y0104774D03*
X0368456Y0104736D03*
X0368456Y0104698D03*
X0368456Y0104660D03*
X0368456Y0104622D03*
X0368456Y0104584D03*
X0368456Y0104546D03*
X0368456Y0104508D03*
X0368456Y0104470D03*
X0368456Y0104432D03*
X0368456Y0104394D03*
X0368456Y0104356D03*
X0368456Y0104318D03*
X0368456Y0104280D03*
X0368456Y0104242D03*
X0368456Y0104204D03*
X0368456Y0104166D03*
X0368456Y0104128D03*
X0368456Y0104090D03*
X0368456Y0104052D03*
X0368456Y0104014D03*
X0368456Y0103976D03*
X0368456Y0103938D03*
X0368456Y0103900D03*
X0368456Y0103862D03*
X0368456Y0103824D03*
X0368456Y0103786D03*
X0368456Y0103748D03*
X0368456Y0103710D03*
X0368456Y0103672D03*
X0368456Y0103634D03*
X0368456Y0103596D03*
X0368456Y0103558D03*
X0368456Y0103520D03*
X0368456Y0103482D03*
X0368456Y0103444D03*
X0368456Y0103406D03*
X0368456Y0103368D03*
X0368456Y0103330D03*
X0368456Y0103292D03*
X0368456Y0103254D03*
X0368456Y0103216D03*
X0368456Y0103178D03*
X0368456Y0103140D03*
X0368456Y0103102D03*
X0368456Y0103064D03*
X0368456Y0103026D03*
X0368456Y0102988D03*
X0368456Y0102950D03*
X0368456Y0102912D03*
X0368456Y0102874D03*
X0368456Y0102836D03*
X0368456Y0102798D03*
X0368456Y0102760D03*
X0368456Y0102722D03*
X0368456Y0102684D03*
X0368456Y0102646D03*
X0368456Y0102608D03*
X0368456Y0102570D03*
X0368456Y0102532D03*
X0368456Y0102494D03*
X0368456Y0102456D03*
X0368456Y0102418D03*
X0368456Y0102380D03*
X0368456Y0102342D03*
X0368456Y0102304D03*
X0368456Y0102266D03*
X0368456Y0102228D03*
X0368456Y0102190D03*
X0368456Y0102152D03*
X0368456Y0102114D03*
X0368456Y0102076D03*
X0368456Y0102038D03*
X0368456Y0102000D03*
X0368456Y0101962D03*
X0368456Y0101924D03*
X0368456Y0101886D03*
X0368456Y0101848D03*
X0368456Y0101810D03*
X0368456Y0101772D03*
X0368456Y0101734D03*
X0368456Y0101696D03*
X0368456Y0101658D03*
X0368456Y0101620D03*
X0368456Y0101582D03*
X0368456Y0101544D03*
X0368456Y0101506D03*
X0368456Y0101468D03*
X0368456Y0101430D03*
X0368456Y0101392D03*
X0368456Y0101354D03*
X0368456Y0101316D03*
X0368456Y0101278D03*
X0368456Y0101240D03*
X0368456Y0101202D03*
X0368456Y0101164D03*
X0368456Y0101126D03*
X0368456Y0101088D03*
X0368456Y0101050D03*
X0368456Y0101012D03*
X0368456Y0100974D03*
X0368456Y0100936D03*
X0368456Y0100898D03*
X0368456Y0100860D03*
X0368456Y0100822D03*
X0368456Y0100784D03*
X0368456Y0100746D03*
X0368456Y0100708D03*
X0368456Y0100670D03*
X0368456Y0100632D03*
X0368456Y0100594D03*
X0368456Y0100556D03*
X0368456Y0100518D03*
X0368456Y0100480D03*
X0368456Y0100442D03*
X0368456Y0100404D03*
X0368456Y0100366D03*
X0368456Y0100328D03*
X0368456Y0100290D03*
X0368456Y0100252D03*
X0368456Y0100214D03*
X0368456Y0100176D03*
X0368456Y0100138D03*
X0368456Y0100100D03*
X0368456Y0100062D03*
X0368456Y0100024D03*
X0368456Y0099986D03*
X0368456Y0099948D03*
X0368456Y0099910D03*
X0368456Y0099872D03*
X0355802Y0094324D03*
X0348924Y0093906D03*
X0348924Y0089270D03*
X0348924Y0089232D03*
X0345656Y0089156D03*
X0342160Y0089346D03*
X0342160Y0089384D03*
X0335206Y0090980D03*
X0331596Y0089384D03*
X0334674Y0087522D03*
X0331596Y0093108D03*
X0355802Y0088890D03*
D70*
X0357303Y0087560D03*
X0362889Y0097858D03*
X0362889Y0097896D03*
X0362889Y0097934D03*
X0362889Y0097972D03*
X0369273Y0098010D03*
X0369273Y0098048D03*
X0369273Y0098086D03*
X0369273Y0098124D03*
X0369273Y0098162D03*
X0343661Y0097364D03*
X0349437Y0116060D03*
X0351071Y0117542D03*
X0362889Y0122938D03*
X0362889Y0122976D03*
X0362889Y0123014D03*
X0362889Y0123052D03*
X0369273Y0123090D03*
X0369273Y0123128D03*
X0369273Y0123166D03*
X0369273Y0123204D03*
X0369273Y0123242D03*
D71*
X0350254Y0121000D03*
X0348658Y0115376D03*
X0351812Y0113856D03*
X0355422Y0114426D03*
X0355422Y0114464D03*
X0358918Y0114236D03*
X0359564Y0106636D03*
X0352154Y0106446D03*
X0352154Y0106408D03*
X0348658Y0106636D03*
X0341704Y0106446D03*
X0341704Y0102266D03*
X0341704Y0102228D03*
X0345200Y0102152D03*
X0352382Y0093944D03*
X0358804Y0094324D03*
X0352458Y0089194D03*
X0351736Y0087560D03*
X0358804Y0088890D03*
X0335548Y0089080D03*
X0335168Y0091018D03*
X0328100Y0093146D03*
X0331672Y0094286D03*
X0335244Y0094286D03*
X0338550Y0113932D03*
D72*
X0348449Y0114160D03*
X0348449Y0114198D03*
X0348563Y0119442D03*
X0366081Y0112830D03*
X0366081Y0112792D03*
X0366081Y0112754D03*
X0366081Y0112716D03*
X0366081Y0112678D03*
X0366081Y0087750D03*
X0366081Y0087712D03*
X0366081Y0087674D03*
X0366081Y0087636D03*
X0366081Y0087598D03*
D73*
X0357303Y0087598D03*
X0357303Y0095616D03*
X0362927Y0097478D03*
X0362927Y0097516D03*
X0362927Y0097554D03*
X0362927Y0097592D03*
X0362927Y0097630D03*
X0369235Y0097668D03*
X0369235Y0097706D03*
X0369235Y0097744D03*
X0369235Y0097782D03*
X0369235Y0097820D03*
X0350311Y0112678D03*
X0349475Y0116098D03*
X0350995Y0117466D03*
X0340051Y0120696D03*
X0340051Y0112678D03*
X0362927Y0122558D03*
X0362927Y0122596D03*
X0362927Y0122634D03*
X0362927Y0122672D03*
X0362927Y0122710D03*
X0369235Y0122748D03*
X0369235Y0122786D03*
X0369235Y0122824D03*
X0369235Y0122862D03*
X0369235Y0122900D03*
D74*
X0351869Y0118226D03*
X0355403Y0114502D03*
X0358329Y0112678D03*
X0366081Y0113780D03*
X0366081Y0113818D03*
X0366081Y0113856D03*
X0366081Y0113894D03*
X0366081Y0113932D03*
X0360153Y0108156D03*
X0363079Y0106370D03*
X0352173Y0106370D03*
X0349247Y0108156D03*
X0345219Y0106522D03*
X0341685Y0106408D03*
X0341685Y0102304D03*
X0344497Y0100632D03*
X0345219Y0102190D03*
X0345257Y0102228D03*
X0351717Y0095616D03*
X0352401Y0093906D03*
X0348905Y0093868D03*
X0348905Y0089308D03*
X0352477Y0089232D03*
X0345067Y0087598D03*
X0342141Y0089422D03*
X0335263Y0090942D03*
X0331577Y0089498D03*
X0331577Y0089460D03*
X0331577Y0089422D03*
X0331577Y0093146D03*
X0331653Y0094248D03*
X0328119Y0093108D03*
X0328119Y0093070D03*
X0366081Y0088852D03*
X0366081Y0088814D03*
X0366081Y0088776D03*
X0366081Y0088738D03*
X0366081Y0088700D03*
X0338531Y0119404D03*
D75*
X0349038Y0094020D03*
X0334674Y0087598D03*
X0331710Y0089118D03*
D76*
X0333420Y0095730D03*
X0357322Y0087636D03*
X0362984Y0096946D03*
X0362984Y0096984D03*
X0362984Y0097022D03*
X0362984Y0097060D03*
X0362984Y0097098D03*
X0369178Y0097136D03*
X0369178Y0097174D03*
X0369178Y0097212D03*
X0369178Y0097250D03*
X0350292Y0112716D03*
X0349570Y0116174D03*
X0350900Y0117390D03*
X0340070Y0120658D03*
X0340070Y0112716D03*
X0362984Y0122026D03*
X0362984Y0122064D03*
X0362984Y0122102D03*
X0362984Y0122140D03*
X0362984Y0122178D03*
X0369178Y0122216D03*
X0369178Y0122254D03*
X0369178Y0122292D03*
X0369178Y0122330D03*
D77*
X0351717Y0118074D03*
X0355517Y0114274D03*
X0358291Y0112792D03*
X0366081Y0114350D03*
X0366081Y0114388D03*
X0366081Y0114426D03*
X0366081Y0114464D03*
X0366081Y0114502D03*
X0360153Y0108042D03*
X0362965Y0106598D03*
X0352059Y0106598D03*
X0341799Y0102114D03*
X0351717Y0095502D03*
X0352287Y0094020D03*
X0349019Y0089118D03*
X0351717Y0087636D03*
X0352363Y0089080D03*
X0345029Y0087712D03*
X0342255Y0089194D03*
X0334959Y0091170D03*
X0331691Y0092956D03*
X0335111Y0094362D03*
X0328005Y0093298D03*
X0331691Y0089156D03*
X0366081Y0089270D03*
X0366081Y0089308D03*
X0366081Y0089346D03*
X0366081Y0089384D03*
X0366081Y0089422D03*
D78*
X0366081Y0089042D03*
X0366081Y0089004D03*
X0366081Y0088966D03*
X0366081Y0088928D03*
X0366081Y0088890D03*
X0352439Y0089156D03*
X0345067Y0087636D03*
X0342179Y0089308D03*
X0335529Y0089042D03*
X0331615Y0089308D03*
X0331615Y0089346D03*
X0331615Y0093070D03*
X0328081Y0093184D03*
X0335187Y0094324D03*
X0341989Y0098580D03*
X0344497Y0100670D03*
X0351717Y0095578D03*
X0357303Y0095920D03*
X0352135Y0106484D03*
X0345181Y0106560D03*
X0341723Y0106484D03*
X0350311Y0112374D03*
X0355441Y0114388D03*
X0358329Y0112716D03*
X0366081Y0113970D03*
X0366081Y0114008D03*
X0366081Y0114046D03*
X0366081Y0114084D03*
X0366081Y0114122D03*
X0351831Y0118188D03*
X0340051Y0121000D03*
X0360153Y0108118D03*
X0363041Y0106484D03*
D79*
X0349285Y0107966D03*
X0344497Y0107966D03*
X0358291Y0112868D03*
X0351641Y0117998D03*
X0344459Y0100822D03*
X0327929Y0093374D03*
X0334655Y0087636D03*
X0345029Y0087788D03*
D80*
X0357303Y0087674D03*
X0357303Y0095540D03*
X0363041Y0096414D03*
X0363041Y0096452D03*
X0363041Y0096490D03*
X0363041Y0096528D03*
X0369121Y0096566D03*
X0369121Y0096604D03*
X0369121Y0096642D03*
X0369121Y0096680D03*
X0369121Y0096718D03*
X0343661Y0097440D03*
X0349703Y0116288D03*
X0350767Y0117276D03*
X0363041Y0121494D03*
X0363041Y0121532D03*
X0363041Y0121570D03*
X0363041Y0121608D03*
X0369121Y0121646D03*
X0369121Y0121684D03*
X0369121Y0121722D03*
X0369121Y0121760D03*
X0369121Y0121798D03*
D81*
X0351603Y0117960D03*
X0348905Y0115604D03*
X0350311Y0112450D03*
X0358291Y0112906D03*
X0366081Y0114882D03*
X0366081Y0114920D03*
X0366081Y0114958D03*
X0366081Y0114996D03*
X0366081Y0115034D03*
X0349285Y0107928D03*
X0344497Y0107928D03*
X0344459Y0100860D03*
X0351717Y0095350D03*
X0357303Y0095844D03*
X0366081Y0089954D03*
X0366081Y0089916D03*
X0366081Y0089878D03*
X0366081Y0089840D03*
X0366081Y0089802D03*
X0351717Y0087750D03*
X0345029Y0087826D03*
X0334655Y0087674D03*
X0334769Y0091284D03*
X0333439Y0095920D03*
D82*
X0332375Y0092348D03*
X0357303Y0095502D03*
X0357303Y0087712D03*
D83*
X0351717Y0087712D03*
X0366081Y0089650D03*
X0366081Y0089688D03*
X0366081Y0089726D03*
X0366081Y0089764D03*
X0351717Y0095426D03*
X0334845Y0091246D03*
X0331767Y0089042D03*
X0366081Y0114730D03*
X0366081Y0114768D03*
X0366081Y0114806D03*
X0366081Y0114844D03*
X0348867Y0115566D03*
D84*
X0358272Y0112982D03*
X0349304Y0107852D03*
X0344478Y0107852D03*
X0343680Y0097212D03*
X0334636Y0091360D03*
X0334636Y0087712D03*
X0345010Y0087902D03*
X0351736Y0087826D03*
X0350254Y0120886D03*
D85*
X0350539Y0117086D03*
X0349893Y0116478D03*
X0349855Y0116440D03*
X0350311Y0112830D03*
X0340051Y0112830D03*
X0340051Y0120544D03*
X0357303Y0095464D03*
X0357303Y0087750D03*
X0332413Y0092310D03*
D86*
X0334636Y0087750D03*
X0344440Y0100936D03*
X0349304Y0107814D03*
X0358272Y0113058D03*
D87*
X0350007Y0116592D03*
X0349969Y0116554D03*
X0350349Y0116896D03*
X0350387Y0116934D03*
X0350425Y0116972D03*
X0350463Y0117010D03*
X0340051Y0120506D03*
X0340051Y0112868D03*
X0357303Y0095426D03*
X0357303Y0087788D03*
D88*
X0351717Y0087788D03*
X0366081Y0089992D03*
X0366081Y0090030D03*
X0366081Y0090068D03*
X0366081Y0090106D03*
X0366081Y0090144D03*
X0351717Y0095312D03*
X0344459Y0100898D03*
X0349285Y0107890D03*
X0360191Y0107852D03*
X0366081Y0115072D03*
X0366081Y0115110D03*
X0366081Y0115148D03*
X0366081Y0115186D03*
X0366081Y0115224D03*
X0351527Y0117922D03*
X0348943Y0115642D03*
X0331843Y0092766D03*
X0327853Y0093412D03*
D89*
X0331938Y0092690D03*
X0334636Y0087788D03*
X0345010Y0088016D03*
X0351698Y0095160D03*
X0343680Y0097250D03*
X0344478Y0107776D03*
X0358272Y0113096D03*
X0360210Y0107700D03*
X0351394Y0117808D03*
X0350254Y0120848D03*
D90*
X0357303Y0095388D03*
X0357303Y0087826D03*
D91*
X0357303Y0087864D03*
X0357303Y0095350D03*
X0333401Y0095578D03*
X0332527Y0092234D03*
X0340051Y0112944D03*
X0340051Y0120430D03*
D92*
X0351489Y0117884D03*
X0350311Y0112488D03*
X0358291Y0113020D03*
X0360191Y0107814D03*
X0351717Y0095274D03*
X0351717Y0087864D03*
X0345029Y0087940D03*
D93*
X0344991Y0088168D03*
X0351717Y0088054D03*
X0366081Y0090904D03*
X0366081Y0090942D03*
X0366081Y0090980D03*
X0366081Y0091018D03*
X0366081Y0091056D03*
X0357303Y0095730D03*
X0343661Y0097288D03*
X0334617Y0087864D03*
X0344459Y0107624D03*
X0350311Y0112564D03*
X0358253Y0113248D03*
X0366081Y0115984D03*
X0366081Y0116022D03*
X0366081Y0116060D03*
X0366081Y0116098D03*
X0366081Y0116136D03*
X0351299Y0117732D03*
X0349171Y0115832D03*
X0340051Y0120810D03*
D94*
X0340051Y0120392D03*
X0340051Y0112982D03*
X0357303Y0095312D03*
X0357303Y0087902D03*
X0332565Y0092196D03*
D95*
X0334617Y0087902D03*
X0344953Y0088244D03*
X0366081Y0091094D03*
X0366081Y0091132D03*
X0366081Y0091170D03*
X0366081Y0091208D03*
X0366081Y0091246D03*
X0344459Y0107586D03*
X0366081Y0116174D03*
X0366081Y0116212D03*
X0366081Y0116250D03*
X0366081Y0116288D03*
X0366081Y0116326D03*
D96*
X0357303Y0095274D03*
X0357303Y0087940D03*
D97*
X0351717Y0087940D03*
X0344991Y0088054D03*
X0366081Y0090562D03*
X0366081Y0090600D03*
X0366081Y0090638D03*
X0366081Y0090676D03*
X0366081Y0090714D03*
X0349323Y0107738D03*
X0344459Y0107738D03*
X0358253Y0113134D03*
X0366081Y0115642D03*
X0366081Y0115680D03*
X0366081Y0115718D03*
X0366081Y0115756D03*
X0366081Y0115794D03*
X0349095Y0115756D03*
D98*
X0349266Y0115908D03*
X0351204Y0117656D03*
X0350254Y0120772D03*
X0362794Y0123812D03*
X0358234Y0113362D03*
X0344440Y0107548D03*
X0349342Y0107510D03*
X0362794Y0098732D03*
X0351698Y0088168D03*
X0351698Y0088130D03*
X0344972Y0088282D03*
X0334598Y0087940D03*
D99*
X0357303Y0087978D03*
X0357303Y0095236D03*
X0340051Y0113058D03*
X0340051Y0120316D03*
D100*
X0340070Y0120886D03*
X0340070Y0112488D03*
X0344478Y0107814D03*
X0360210Y0107776D03*
X0357284Y0095806D03*
X0351698Y0095236D03*
X0345010Y0087978D03*
D101*
X0351698Y0088244D03*
X0334598Y0087978D03*
X0362832Y0098390D03*
X0362832Y0098428D03*
X0362832Y0098466D03*
X0362832Y0098504D03*
X0362832Y0098542D03*
X0369330Y0098580D03*
X0369330Y0098618D03*
X0369330Y0098656D03*
X0369330Y0098694D03*
X0344440Y0107510D03*
X0349304Y0115946D03*
X0351166Y0117618D03*
X0350254Y0120734D03*
X0362832Y0123470D03*
X0362832Y0123508D03*
X0362832Y0123546D03*
X0362832Y0123584D03*
X0362832Y0123622D03*
X0369330Y0123660D03*
X0369330Y0123698D03*
X0369330Y0123736D03*
X0369330Y0123774D03*
D102*
X0350273Y0120240D03*
X0340051Y0120240D03*
X0340051Y0113096D03*
X0333401Y0095464D03*
X0357303Y0095198D03*
X0357303Y0095160D03*
X0357303Y0088016D03*
D103*
X0351717Y0088016D03*
X0344991Y0088092D03*
X0366081Y0090752D03*
X0366081Y0090790D03*
X0366081Y0090828D03*
X0366081Y0090866D03*
X0349323Y0107662D03*
X0344459Y0107700D03*
X0358253Y0113172D03*
X0366081Y0115832D03*
X0366081Y0115870D03*
X0366081Y0115908D03*
X0366081Y0115946D03*
X0351337Y0117770D03*
X0349133Y0115794D03*
D104*
X0350292Y0112640D03*
X0340070Y0112640D03*
X0340070Y0120734D03*
X0362870Y0123090D03*
X0362870Y0123128D03*
X0362870Y0123166D03*
X0362870Y0123204D03*
X0362870Y0123242D03*
X0369292Y0123280D03*
X0369292Y0123318D03*
X0369292Y0123356D03*
X0369292Y0123394D03*
X0369292Y0123432D03*
X0369292Y0098352D03*
X0369292Y0098314D03*
X0369292Y0098276D03*
X0369292Y0098238D03*
X0369292Y0098200D03*
X0362870Y0098162D03*
X0362870Y0098124D03*
X0362870Y0098086D03*
X0362870Y0098048D03*
X0362870Y0098010D03*
X0357284Y0095654D03*
X0334598Y0088016D03*
X0332166Y0092500D03*
D105*
X0332698Y0092082D03*
X0343642Y0097744D03*
X0357322Y0088054D03*
X0350292Y0113096D03*
X0340070Y0113134D03*
D106*
X0351014Y0117504D03*
X0350254Y0120696D03*
X0362908Y0122748D03*
X0362908Y0122786D03*
X0362908Y0122824D03*
X0362908Y0122862D03*
X0362908Y0122900D03*
X0369254Y0122938D03*
X0369254Y0122976D03*
X0369254Y0123014D03*
X0369254Y0123052D03*
X0369254Y0097972D03*
X0369254Y0097934D03*
X0369254Y0097896D03*
X0369254Y0097858D03*
X0362908Y0097820D03*
X0362908Y0097782D03*
X0362908Y0097744D03*
X0362908Y0097706D03*
X0362908Y0097668D03*
X0333420Y0095768D03*
X0332204Y0092462D03*
X0334598Y0088054D03*
D107*
X0333401Y0095426D03*
X0357303Y0095122D03*
X0357303Y0088092D03*
X0350311Y0113134D03*
X0340051Y0113172D03*
X0340051Y0120202D03*
X0350273Y0120202D03*
D108*
X0333363Y0088092D03*
D109*
X0357303Y0088130D03*
X0357303Y0095084D03*
X0340051Y0113210D03*
X0340051Y0120164D03*
X0350273Y0120164D03*
D110*
X0350254Y0120810D03*
X0344972Y0088130D03*
D111*
X0333382Y0088130D03*
X0333382Y0088168D03*
D112*
X0333420Y0095388D03*
X0343642Y0097820D03*
X0357284Y0095046D03*
X0357322Y0088168D03*
X0350292Y0113210D03*
X0350254Y0120126D03*
X0340070Y0120126D03*
D113*
X0350273Y0120088D03*
X0357303Y0095008D03*
X0357303Y0088206D03*
D114*
X0333439Y0088320D03*
X0333401Y0088244D03*
X0333401Y0088206D03*
D115*
X0357303Y0088244D03*
X0357303Y0088282D03*
X0357303Y0094932D03*
X0357303Y0094970D03*
X0343623Y0097896D03*
X0340051Y0113324D03*
X0340051Y0120012D03*
X0340051Y0120050D03*
X0350273Y0120050D03*
X0350273Y0120012D03*
D116*
X0350501Y0107434D03*
X0343357Y0107434D03*
X0343357Y0107396D03*
X0343357Y0107358D03*
X0343357Y0101430D03*
X0343357Y0101392D03*
X0361407Y0107434D03*
X0361407Y0107472D03*
X0361407Y0107510D03*
X0350577Y0094742D03*
X0350577Y0094704D03*
X0350577Y0094666D03*
X0350577Y0088282D03*
X0333439Y0094704D03*
D117*
X0333420Y0088282D03*
D118*
X0357303Y0088320D03*
X0357303Y0094856D03*
X0357303Y0094894D03*
X0343623Y0097934D03*
X0340051Y0113362D03*
X0340051Y0113400D03*
X0340051Y0119974D03*
X0350273Y0119974D03*
D119*
X0357094Y0113552D03*
X0357094Y0113514D03*
X0357094Y0113476D03*
X0357094Y0113438D03*
X0361388Y0107396D03*
X0361388Y0107358D03*
X0361388Y0107320D03*
X0350482Y0107320D03*
X0350482Y0107358D03*
X0350482Y0107396D03*
X0350596Y0094628D03*
X0350596Y0094590D03*
X0350596Y0094552D03*
X0350596Y0094514D03*
X0350596Y0088396D03*
X0350596Y0088358D03*
X0350596Y0088320D03*
X0343832Y0088358D03*
X0343832Y0088396D03*
X0343832Y0088434D03*
X0343832Y0088472D03*
X0333420Y0094666D03*
D120*
X0333420Y0095274D03*
X0332888Y0091892D03*
X0357322Y0088358D03*
X0350292Y0113362D03*
X0350292Y0113400D03*
X0350292Y0119936D03*
X0340070Y0119936D03*
D121*
X0333458Y0088396D03*
X0333458Y0088358D03*
D122*
X0357303Y0088396D03*
X0357303Y0094780D03*
X0357303Y0094818D03*
X0343623Y0097972D03*
X0350273Y0119898D03*
D123*
X0350292Y0119860D03*
X0340070Y0119860D03*
X0350292Y0113438D03*
X0333420Y0095236D03*
X0332926Y0091854D03*
X0357322Y0088434D03*
D124*
X0350615Y0088434D03*
X0350615Y0088472D03*
X0350615Y0088510D03*
X0343851Y0088510D03*
X0343851Y0088548D03*
X0343851Y0088586D03*
X0350615Y0094324D03*
X0350615Y0094362D03*
X0350615Y0094400D03*
X0350615Y0094438D03*
X0350615Y0094476D03*
X0333439Y0094552D03*
X0333439Y0094590D03*
X0333439Y0094628D03*
X0343395Y0101544D03*
X0343395Y0101582D03*
X0343395Y0101620D03*
X0343395Y0107130D03*
X0343395Y0107168D03*
X0343395Y0107206D03*
X0350463Y0107206D03*
X0350463Y0107244D03*
X0350463Y0107282D03*
X0350463Y0107168D03*
X0361369Y0107168D03*
X0361369Y0107206D03*
X0361369Y0107244D03*
X0361369Y0107282D03*
X0357113Y0113590D03*
X0357113Y0113628D03*
X0357113Y0113666D03*
D125*
X0333477Y0088472D03*
X0333477Y0088434D03*
D126*
X0332945Y0091816D03*
X0333401Y0095198D03*
X0343623Y0098010D03*
X0357303Y0094742D03*
X0357303Y0094704D03*
X0357303Y0088472D03*
X0350311Y0113476D03*
X0340051Y0113514D03*
X0340051Y0113552D03*
X0340051Y0119784D03*
X0340051Y0119822D03*
X0350273Y0119822D03*
D127*
X0341609Y0113970D03*
X0360153Y0108194D03*
X0363117Y0106256D03*
X0363117Y0106218D03*
X0366081Y0113590D03*
X0366081Y0113628D03*
X0366081Y0113666D03*
X0366081Y0113704D03*
X0366081Y0113742D03*
X0345295Y0102304D03*
X0345295Y0098656D03*
X0351717Y0095654D03*
X0352477Y0093792D03*
X0352477Y0093754D03*
X0348867Y0093754D03*
X0348867Y0093792D03*
X0348867Y0089422D03*
X0348867Y0089384D03*
X0345713Y0089232D03*
X0342103Y0089536D03*
X0342103Y0089574D03*
X0335339Y0090866D03*
X0331539Y0089764D03*
X0331539Y0089726D03*
X0331539Y0089688D03*
X0331539Y0089650D03*
X0331539Y0093260D03*
X0333439Y0095996D03*
X0366081Y0088662D03*
X0366081Y0088624D03*
X0366081Y0088586D03*
X0366081Y0088548D03*
X0366081Y0088510D03*
D128*
X0357322Y0088510D03*
X0343604Y0098048D03*
D129*
X0333496Y0088586D03*
X0333496Y0088548D03*
X0333496Y0088510D03*
D130*
X0332983Y0091778D03*
X0343623Y0098086D03*
X0357303Y0094666D03*
X0357303Y0094628D03*
X0357303Y0088586D03*
X0357303Y0088548D03*
X0340051Y0113590D03*
X0340051Y0113628D03*
X0340051Y0119708D03*
X0340051Y0119746D03*
X0350273Y0119746D03*
D131*
X0357132Y0113856D03*
X0357132Y0113818D03*
X0357132Y0113780D03*
X0357132Y0113742D03*
X0357132Y0113704D03*
X0361350Y0107130D03*
X0361350Y0107092D03*
X0361350Y0107054D03*
X0361350Y0107016D03*
X0350444Y0107016D03*
X0350444Y0107054D03*
X0350444Y0107092D03*
X0350444Y0107130D03*
X0343414Y0107092D03*
X0343414Y0107054D03*
X0343414Y0107016D03*
X0343414Y0106978D03*
X0343414Y0106940D03*
X0343414Y0101772D03*
X0343414Y0101734D03*
X0343414Y0101696D03*
X0343414Y0101658D03*
X0350634Y0094286D03*
X0350634Y0094248D03*
X0350634Y0094210D03*
X0350634Y0094172D03*
X0350634Y0094134D03*
X0350634Y0088624D03*
X0350634Y0088586D03*
X0350634Y0088548D03*
X0343870Y0088624D03*
X0343870Y0088662D03*
X0343870Y0088700D03*
X0343870Y0088738D03*
X0343870Y0088776D03*
D132*
X0357303Y0088662D03*
X0357303Y0088624D03*
X0357303Y0094552D03*
X0357303Y0094590D03*
D133*
X0333515Y0088738D03*
X0333515Y0088700D03*
X0333515Y0088662D03*
X0333515Y0088624D03*
D134*
X0343889Y0088814D03*
X0343889Y0088852D03*
X0343889Y0088890D03*
X0343889Y0088928D03*
X0343889Y0088966D03*
X0343889Y0089004D03*
X0350653Y0088814D03*
X0350653Y0088776D03*
X0350653Y0088738D03*
X0350653Y0088700D03*
X0350653Y0088662D03*
X0350653Y0094058D03*
X0350653Y0094096D03*
X0333439Y0094438D03*
X0333439Y0094476D03*
X0333439Y0094514D03*
X0350425Y0106788D03*
X0350425Y0106826D03*
X0350425Y0106864D03*
X0350425Y0106902D03*
X0350425Y0106940D03*
X0350425Y0106978D03*
X0361331Y0106978D03*
X0361331Y0106940D03*
X0361331Y0106902D03*
X0361331Y0106864D03*
X0361331Y0106826D03*
X0361331Y0106788D03*
D135*
X0350292Y0113666D03*
X0350292Y0113704D03*
X0340032Y0113742D03*
X0340070Y0119594D03*
X0343604Y0098200D03*
X0343604Y0098162D03*
X0333420Y0095084D03*
X0333040Y0091702D03*
X0357284Y0094514D03*
X0357322Y0088700D03*
D136*
X0357303Y0088738D03*
X0357303Y0088776D03*
X0357303Y0094438D03*
X0357303Y0094476D03*
X0333401Y0095046D03*
X0333059Y0091664D03*
X0340051Y0113780D03*
X0340051Y0113818D03*
X0340051Y0119518D03*
X0340051Y0119556D03*
D137*
X0333572Y0088928D03*
X0333534Y0088776D03*
D138*
X0333097Y0091626D03*
X0343585Y0098276D03*
X0357303Y0094362D03*
X0357303Y0088852D03*
X0357303Y0088814D03*
X0340051Y0113894D03*
X0340051Y0119442D03*
D139*
X0333553Y0088890D03*
X0333553Y0088852D03*
X0333553Y0088814D03*
D140*
X0343908Y0089042D03*
X0343908Y0089080D03*
X0350672Y0089042D03*
X0350672Y0089004D03*
X0350672Y0088966D03*
X0350672Y0088928D03*
X0350672Y0088890D03*
X0350672Y0088852D03*
X0333458Y0094400D03*
X0343452Y0102000D03*
X0343452Y0102038D03*
X0343452Y0106636D03*
X0350406Y0106712D03*
X0350406Y0106750D03*
X0361312Y0106750D03*
X0361312Y0106712D03*
X0357170Y0114122D03*
X0357170Y0114160D03*
D141*
X0344497Y0108004D03*
X0335415Y0088966D03*
D142*
X0331881Y0088966D03*
X0331881Y0092728D03*
X0366081Y0090334D03*
X0366081Y0090296D03*
X0366081Y0090258D03*
X0366081Y0090220D03*
X0366081Y0090182D03*
X0366081Y0115262D03*
X0366081Y0115300D03*
X0366081Y0115338D03*
X0366081Y0115376D03*
X0366081Y0115414D03*
X0348981Y0115680D03*
D143*
X0351793Y0118150D03*
X0355479Y0114312D03*
X0341761Y0102152D03*
X0344497Y0100708D03*
X0328043Y0093260D03*
X0335073Y0091094D03*
X0335491Y0089004D03*
X0352401Y0089118D03*
D144*
X0331824Y0089004D03*
X0331824Y0092804D03*
D145*
X0331653Y0093032D03*
X0331653Y0089232D03*
X0342217Y0089232D03*
X0348981Y0089156D03*
X0348981Y0093982D03*
X0351717Y0095540D03*
X0366081Y0089232D03*
X0366081Y0089194D03*
X0366081Y0089156D03*
X0366081Y0089118D03*
X0366081Y0089080D03*
X0360153Y0108080D03*
X0366081Y0114160D03*
X0366081Y0114198D03*
X0366081Y0114236D03*
X0366081Y0114274D03*
X0366081Y0114312D03*
D146*
X0360172Y0107966D03*
X0349266Y0108004D03*
X0341856Y0102076D03*
X0344478Y0100784D03*
X0343680Y0097174D03*
X0331748Y0092880D03*
X0334902Y0091208D03*
X0349076Y0089080D03*
X0348810Y0115528D03*
D147*
X0355612Y0114198D03*
X0351964Y0106674D03*
X0362870Y0106674D03*
X0351736Y0095388D03*
X0342350Y0089118D03*
X0331786Y0092842D03*
D148*
X0331615Y0094172D03*
X0328157Y0092956D03*
X0328157Y0092918D03*
X0335301Y0094210D03*
X0335643Y0089232D03*
X0335605Y0089156D03*
X0352515Y0089308D03*
X0352515Y0089346D03*
X0341647Y0102380D03*
X0341647Y0102418D03*
X0341647Y0102456D03*
X0341647Y0106294D03*
X0341647Y0106332D03*
X0345257Y0106446D03*
X0348601Y0106560D03*
X0349247Y0108194D03*
X0352211Y0106256D03*
X0352211Y0106218D03*
X0359507Y0106560D03*
X0358975Y0114312D03*
X0355365Y0114616D03*
X0355365Y0114654D03*
X0348601Y0115300D03*
X0351907Y0118302D03*
X0351755Y0119632D03*
D149*
X0351774Y0118112D03*
X0348734Y0115452D03*
X0349266Y0108080D03*
X0352078Y0106560D03*
X0345124Y0106598D03*
X0344516Y0108042D03*
X0341780Y0106560D03*
X0345124Y0102076D03*
X0333420Y0095958D03*
X0331672Y0092994D03*
X0335016Y0091132D03*
X0331672Y0089194D03*
X0362984Y0106560D03*
D150*
X0349247Y0108270D03*
X0345447Y0105648D03*
X0345447Y0105610D03*
X0345447Y0105572D03*
X0345447Y0105534D03*
X0345447Y0105496D03*
X0345447Y0105458D03*
X0345447Y0105420D03*
X0345447Y0105382D03*
X0345447Y0105344D03*
X0345447Y0105306D03*
X0345447Y0105268D03*
X0345447Y0105230D03*
X0345447Y0105192D03*
X0345447Y0099074D03*
X0345447Y0099036D03*
X0341647Y0099074D03*
X0341647Y0099112D03*
X0341647Y0099150D03*
X0355479Y0093792D03*
X0355479Y0093754D03*
X0355479Y0093716D03*
X0359165Y0093564D03*
X0359165Y0093526D03*
X0359165Y0093488D03*
X0362129Y0093488D03*
X0362129Y0093526D03*
X0362129Y0093564D03*
X0362129Y0093602D03*
X0362129Y0093640D03*
X0362129Y0093678D03*
X0362129Y0093716D03*
X0362129Y0093754D03*
X0362129Y0093792D03*
X0362129Y0093830D03*
X0362129Y0093868D03*
X0362129Y0093906D03*
X0362129Y0093450D03*
X0362129Y0093412D03*
X0362129Y0093374D03*
X0362129Y0093336D03*
X0362129Y0093298D03*
X0362129Y0093260D03*
X0362129Y0093222D03*
X0362129Y0093184D03*
X0362129Y0093146D03*
X0362129Y0093108D03*
X0362129Y0093070D03*
X0362129Y0093032D03*
X0362129Y0092994D03*
X0362129Y0092956D03*
X0362129Y0092918D03*
X0362129Y0092880D03*
X0362129Y0092842D03*
X0362129Y0092804D03*
X0362129Y0092766D03*
X0362129Y0092728D03*
X0362129Y0092690D03*
X0362129Y0092652D03*
X0362129Y0092614D03*
X0362129Y0092576D03*
X0362129Y0092538D03*
X0362129Y0092500D03*
X0362129Y0092462D03*
X0359165Y0089688D03*
X0359165Y0089650D03*
X0359165Y0089612D03*
X0355479Y0089498D03*
X0355479Y0089460D03*
X0355479Y0089422D03*
X0370033Y0092462D03*
X0370033Y0092500D03*
X0370033Y0092538D03*
X0370033Y0092576D03*
X0370033Y0092614D03*
X0370033Y0092652D03*
X0370033Y0092690D03*
X0370033Y0092728D03*
X0370033Y0092766D03*
X0370033Y0092804D03*
X0370033Y0092842D03*
X0370033Y0092880D03*
X0370033Y0092918D03*
X0370033Y0092956D03*
X0370033Y0092994D03*
X0370033Y0093032D03*
X0370033Y0093070D03*
X0370033Y0093108D03*
X0370033Y0093146D03*
X0370033Y0093184D03*
X0370033Y0093222D03*
X0370033Y0093260D03*
X0370033Y0093298D03*
X0370033Y0093336D03*
X0370033Y0093374D03*
X0370033Y0093412D03*
X0370033Y0093450D03*
X0370033Y0093488D03*
X0370033Y0093526D03*
X0370033Y0093564D03*
X0370033Y0093602D03*
X0370033Y0093640D03*
X0370033Y0093678D03*
X0370033Y0093716D03*
X0370033Y0093754D03*
X0370033Y0093792D03*
X0370033Y0093830D03*
X0370033Y0093868D03*
X0370033Y0093906D03*
X0335719Y0090068D03*
X0335719Y0090030D03*
X0335719Y0089992D03*
X0335719Y0089954D03*
X0358329Y0112564D03*
X0362129Y0117542D03*
X0362129Y0117580D03*
X0362129Y0117618D03*
X0362129Y0117656D03*
X0362129Y0117694D03*
X0362129Y0117732D03*
X0362129Y0117770D03*
X0362129Y0117808D03*
X0362129Y0117846D03*
X0362129Y0117884D03*
X0362129Y0117922D03*
X0362129Y0117960D03*
X0362129Y0117998D03*
X0362129Y0118036D03*
X0362129Y0118074D03*
X0362129Y0118112D03*
X0362129Y0118150D03*
X0362129Y0118188D03*
X0362129Y0118226D03*
X0362129Y0118264D03*
X0362129Y0118302D03*
X0362129Y0118340D03*
X0362129Y0118378D03*
X0362129Y0118416D03*
X0362129Y0118454D03*
X0362129Y0118492D03*
X0362129Y0118530D03*
X0362129Y0118568D03*
X0362129Y0118606D03*
X0362129Y0118644D03*
X0362129Y0118682D03*
X0362129Y0118720D03*
X0362129Y0118758D03*
X0362129Y0118796D03*
X0362129Y0118834D03*
X0362129Y0118872D03*
X0362129Y0118910D03*
X0362129Y0118948D03*
X0362129Y0118986D03*
X0370033Y0118986D03*
X0370033Y0118948D03*
X0370033Y0118910D03*
X0370033Y0118872D03*
X0370033Y0118834D03*
X0370033Y0118796D03*
X0370033Y0118758D03*
X0370033Y0118720D03*
X0370033Y0118682D03*
X0370033Y0118644D03*
X0370033Y0118606D03*
X0370033Y0118568D03*
X0370033Y0118530D03*
X0370033Y0118492D03*
X0370033Y0118454D03*
X0370033Y0118416D03*
X0370033Y0118378D03*
X0370033Y0118340D03*
X0370033Y0118302D03*
X0370033Y0118264D03*
X0370033Y0118226D03*
X0370033Y0118188D03*
X0370033Y0118150D03*
X0370033Y0118112D03*
X0370033Y0118074D03*
X0370033Y0118036D03*
X0370033Y0117998D03*
X0370033Y0117960D03*
X0370033Y0117922D03*
X0370033Y0117884D03*
X0370033Y0117846D03*
X0370033Y0117808D03*
X0370033Y0117770D03*
X0370033Y0117732D03*
X0370033Y0117694D03*
X0370033Y0117656D03*
X0370033Y0117618D03*
X0370033Y0117580D03*
X0370033Y0117542D03*
X0341951Y0118340D03*
X0341951Y0118378D03*
X0338265Y0118948D03*
X0338265Y0118986D03*
X0338151Y0115756D03*
X0338151Y0115718D03*
X0338151Y0115680D03*
X0338151Y0115642D03*
X0338151Y0115604D03*
X0338151Y0115566D03*
X0338151Y0115528D03*
X0338151Y0115490D03*
X0338151Y0115452D03*
X0338151Y0115414D03*
X0338151Y0115376D03*
X0338151Y0115338D03*
X0338151Y0115300D03*
X0338151Y0115262D03*
X0338151Y0115224D03*
X0338151Y0115186D03*
X0338151Y0115148D03*
X0338151Y0115110D03*
X0338151Y0115072D03*
X0338151Y0115034D03*
X0338151Y0114996D03*
X0338151Y0114958D03*
X0341951Y0115034D03*
D151*
X0349209Y0108422D03*
X0360115Y0108422D03*
X0365131Y0116440D03*
X0365131Y0116478D03*
X0365131Y0116516D03*
X0365093Y0116706D03*
X0367031Y0116516D03*
X0367031Y0116478D03*
X0367031Y0116440D03*
X0367069Y0116706D03*
X0326219Y0094894D03*
X0326219Y0094856D03*
X0365093Y0091626D03*
X0365131Y0091436D03*
X0365131Y0091398D03*
X0365131Y0091360D03*
X0367031Y0091360D03*
X0367031Y0091398D03*
X0367031Y0091436D03*
X0367069Y0091626D03*
D152*
X0350539Y0094894D03*
X0350539Y0094932D03*
X0350539Y0094970D03*
X0343585Y0098542D03*
X0343319Y0101240D03*
X0343319Y0101278D03*
X0333439Y0094780D03*
X0333211Y0091436D03*
D153*
X0333192Y0091474D03*
X0333420Y0094818D03*
X0333420Y0094856D03*
X0350520Y0095008D03*
X0350520Y0095046D03*
D154*
X0343262Y0101050D03*
X0333420Y0094894D03*
X0333154Y0091512D03*
D155*
X0333135Y0091550D03*
X0343585Y0098352D03*
X0343585Y0098390D03*
D156*
X0343604Y0098314D03*
X0333420Y0094970D03*
X0333116Y0091588D03*
D157*
X0326238Y0094818D03*
X0365074Y0091816D03*
X0365074Y0091778D03*
X0365074Y0091740D03*
X0365074Y0091702D03*
X0365074Y0091664D03*
X0367088Y0091664D03*
X0367088Y0091702D03*
X0367088Y0091740D03*
X0367088Y0091778D03*
X0367088Y0091816D03*
X0367088Y0116744D03*
X0367088Y0116782D03*
X0367088Y0116820D03*
X0367088Y0116858D03*
X0367088Y0116896D03*
X0365074Y0116896D03*
X0365074Y0116858D03*
X0365074Y0116820D03*
X0365074Y0116782D03*
X0365074Y0116744D03*
D158*
X0350292Y0119708D03*
X0340070Y0119670D03*
X0340032Y0113666D03*
X0350292Y0113628D03*
X0350292Y0113590D03*
X0350292Y0113552D03*
X0343604Y0098124D03*
X0333420Y0095122D03*
X0333002Y0091740D03*
D159*
X0326257Y0094742D03*
X0326257Y0094780D03*
X0351717Y0095882D03*
X0364865Y0092918D03*
X0364865Y0092880D03*
X0364903Y0092728D03*
X0364903Y0092690D03*
X0364903Y0092652D03*
X0364903Y0092614D03*
X0364941Y0092538D03*
X0364941Y0092500D03*
X0364941Y0092462D03*
X0364941Y0092424D03*
X0364941Y0092386D03*
X0364979Y0092348D03*
X0364979Y0092310D03*
X0364979Y0092272D03*
X0364979Y0092234D03*
X0364979Y0092196D03*
X0365017Y0092082D03*
X0365017Y0092044D03*
X0367107Y0091854D03*
X0367145Y0092044D03*
X0367145Y0092082D03*
X0367145Y0092120D03*
X0367183Y0092196D03*
X0367183Y0092234D03*
X0367183Y0092272D03*
X0367183Y0092310D03*
X0367183Y0092348D03*
X0367221Y0092462D03*
X0367221Y0092500D03*
X0367221Y0092538D03*
X0367259Y0092728D03*
X0367107Y0116934D03*
X0367145Y0117124D03*
X0367145Y0117162D03*
X0367145Y0117200D03*
X0367183Y0117276D03*
X0367183Y0117314D03*
X0367183Y0117352D03*
X0367183Y0117390D03*
X0367183Y0117428D03*
X0367221Y0117542D03*
X0367221Y0117580D03*
X0367221Y0117618D03*
X0367259Y0117808D03*
X0364979Y0117428D03*
X0364979Y0117390D03*
X0364979Y0117352D03*
X0364979Y0117314D03*
X0364979Y0117276D03*
X0365017Y0117162D03*
X0365017Y0117124D03*
X0364941Y0117466D03*
X0364941Y0117504D03*
X0364941Y0117542D03*
X0364941Y0117580D03*
X0364941Y0117618D03*
X0364903Y0117694D03*
X0364903Y0117732D03*
X0364903Y0117770D03*
X0364903Y0117808D03*
X0364865Y0117960D03*
X0364865Y0117998D03*
X0350273Y0121114D03*
D160*
X0350292Y0113324D03*
X0333420Y0095312D03*
X0332850Y0091930D03*
D161*
X0332812Y0091968D03*
X0333420Y0095350D03*
X0343642Y0097858D03*
X0350292Y0113248D03*
X0350292Y0113286D03*
D162*
X0332774Y0092006D03*
D163*
X0332736Y0092044D03*
X0343642Y0097782D03*
X0350292Y0113172D03*
D164*
X0350292Y0113058D03*
X0340070Y0120278D03*
X0343642Y0097706D03*
X0332660Y0092120D03*
D165*
X0332622Y0092158D03*
X0333420Y0095502D03*
X0343642Y0097668D03*
X0350292Y0113020D03*
X0350254Y0120316D03*
D166*
X0350254Y0120468D03*
X0350292Y0116858D03*
X0350254Y0116820D03*
X0350216Y0116782D03*
X0350178Y0116744D03*
X0350140Y0116706D03*
X0350102Y0116668D03*
X0350064Y0116630D03*
X0350292Y0112868D03*
X0333420Y0095616D03*
X0332470Y0092272D03*
D167*
X0332318Y0092386D03*
X0327378Y0093450D03*
X0327378Y0093488D03*
X0327378Y0093526D03*
X0327378Y0093564D03*
X0327378Y0093602D03*
X0327378Y0093640D03*
X0327378Y0093678D03*
X0327378Y0093716D03*
X0327378Y0093754D03*
X0327378Y0093792D03*
X0327378Y0093830D03*
X0327378Y0093868D03*
X0327378Y0093906D03*
X0327378Y0093944D03*
X0327378Y0093982D03*
X0327378Y0094020D03*
X0327378Y0094058D03*
X0327378Y0094096D03*
X0327378Y0094134D03*
X0327378Y0094172D03*
X0327378Y0094210D03*
X0327378Y0094248D03*
X0327378Y0094286D03*
X0327378Y0094324D03*
X0327378Y0094362D03*
X0327378Y0094400D03*
X0327378Y0094438D03*
X0327378Y0094476D03*
X0327378Y0094514D03*
X0327378Y0094552D03*
X0327378Y0094590D03*
X0327378Y0094628D03*
X0327378Y0094666D03*
X0327378Y0094704D03*
X0340070Y0112754D03*
X0349646Y0116250D03*
X0350292Y0112754D03*
X0340070Y0120620D03*
D168*
X0343661Y0097402D03*
X0332261Y0092424D03*
X0357303Y0095578D03*
D169*
X0333420Y0095844D03*
X0332014Y0092614D03*
X0344478Y0107662D03*
X0349342Y0107624D03*
X0358234Y0113210D03*
X0360210Y0107586D03*
D170*
X0367335Y0118226D03*
X0367335Y0118264D03*
X0367335Y0118302D03*
X0367335Y0118340D03*
X0367867Y0120924D03*
X0364485Y0120012D03*
X0364485Y0119974D03*
X0364485Y0119936D03*
X0364485Y0119898D03*
X0364485Y0119860D03*
X0364599Y0119442D03*
X0364599Y0119404D03*
X0364599Y0119366D03*
X0364599Y0119328D03*
X0364713Y0118910D03*
X0364713Y0118872D03*
X0364713Y0118834D03*
X0364713Y0118796D03*
X0364713Y0118758D03*
X0364295Y0120772D03*
X0364295Y0120810D03*
X0364295Y0120848D03*
X0364295Y0120886D03*
X0364295Y0095806D03*
X0364295Y0095768D03*
X0364295Y0095730D03*
X0364295Y0095692D03*
X0364485Y0094932D03*
X0364485Y0094894D03*
X0364485Y0094856D03*
X0364485Y0094818D03*
X0364485Y0094780D03*
X0364599Y0094362D03*
X0364599Y0094324D03*
X0364599Y0094286D03*
X0364599Y0094248D03*
X0364713Y0093830D03*
X0364713Y0093792D03*
X0364713Y0093754D03*
X0364713Y0093716D03*
X0364713Y0093678D03*
X0367335Y0093260D03*
X0367335Y0093222D03*
X0367335Y0093184D03*
X0367335Y0093146D03*
X0367867Y0095844D03*
D171*
X0325364Y0093374D03*
D172*
X0325497Y0093412D03*
D173*
X0331786Y0094362D03*
X0344478Y0100746D03*
X0349266Y0108042D03*
X0348772Y0115490D03*
X0350254Y0120962D03*
D174*
X0340070Y0119480D03*
X0350292Y0113818D03*
X0350292Y0113780D03*
X0350292Y0113742D03*
X0357284Y0094400D03*
X0333420Y0095008D03*
D175*
X0333420Y0094742D03*
X0343338Y0101316D03*
X0343338Y0101354D03*
X0343338Y0107472D03*
X0361426Y0107548D03*
X0350558Y0094856D03*
X0350558Y0094818D03*
X0350558Y0094780D03*
D176*
X0343243Y0100974D03*
X0343243Y0101012D03*
X0333401Y0094932D03*
D177*
X0326181Y0094970D03*
X0351717Y0095920D03*
D178*
X0350501Y0095122D03*
X0350501Y0095084D03*
X0343585Y0098428D03*
X0343585Y0098466D03*
X0343281Y0101088D03*
X0343281Y0101126D03*
D179*
X0343699Y0097022D03*
X0326143Y0095084D03*
D180*
X0326124Y0095122D03*
X0344516Y0100328D03*
X0360134Y0108460D03*
D181*
X0350292Y0113514D03*
X0350292Y0119784D03*
X0333420Y0095160D03*
D182*
X0367772Y0095350D03*
X0367772Y0095388D03*
X0367772Y0095426D03*
X0367772Y0095464D03*
X0367772Y0120430D03*
X0367772Y0120468D03*
X0367772Y0120506D03*
X0367772Y0120544D03*
D183*
X0344535Y0108498D03*
X0344535Y0100290D03*
X0326029Y0095350D03*
D184*
X0326010Y0095388D03*
D185*
X0325972Y0095464D03*
X0351698Y0095996D03*
D186*
X0343642Y0097630D03*
X0333420Y0095540D03*
X0350292Y0112982D03*
X0350254Y0120354D03*
D187*
X0344535Y0100252D03*
X0325915Y0095540D03*
D188*
X0325896Y0095578D03*
D189*
X0325877Y0095616D03*
D190*
X0333420Y0095654D03*
X0369064Y0096072D03*
X0369064Y0096110D03*
X0369064Y0096148D03*
X0369064Y0096186D03*
X0349798Y0116402D03*
X0350596Y0117124D03*
X0350634Y0117162D03*
X0350254Y0120544D03*
X0369064Y0121152D03*
X0369064Y0121190D03*
X0369064Y0121228D03*
X0369064Y0121266D03*
D191*
X0351679Y0096034D03*
X0333439Y0096110D03*
X0325839Y0095654D03*
D192*
X0333420Y0095692D03*
X0363060Y0096224D03*
X0363060Y0096262D03*
X0363060Y0096300D03*
X0363060Y0096338D03*
X0363060Y0096376D03*
X0369102Y0096414D03*
X0369102Y0096452D03*
X0369102Y0096490D03*
X0369102Y0096528D03*
X0349722Y0116326D03*
X0350672Y0117200D03*
X0350710Y0117238D03*
X0350254Y0120582D03*
X0363060Y0121304D03*
X0363060Y0121342D03*
X0363060Y0121380D03*
X0363060Y0121418D03*
X0363060Y0121456D03*
X0369102Y0121494D03*
X0369102Y0121532D03*
X0369102Y0121570D03*
X0369102Y0121608D03*
D193*
X0325820Y0095692D03*
D194*
X0325782Y0095730D03*
X0344554Y0108574D03*
D195*
X0325725Y0095806D03*
D196*
X0325687Y0095844D03*
D197*
X0325592Y0095920D03*
D198*
X0325535Y0095958D03*
D199*
X0325478Y0095996D03*
D200*
X0325383Y0096034D03*
D201*
X0343661Y0097478D03*
X0363079Y0096186D03*
X0363079Y0096148D03*
X0363079Y0096110D03*
X0363079Y0096072D03*
X0369083Y0096224D03*
X0369083Y0096262D03*
X0369083Y0096300D03*
X0369083Y0096338D03*
X0369083Y0096376D03*
X0350311Y0112792D03*
X0349779Y0116364D03*
X0340051Y0112792D03*
X0340051Y0120582D03*
X0363079Y0121152D03*
X0363079Y0121190D03*
X0363079Y0121228D03*
X0363079Y0121266D03*
X0369083Y0121304D03*
X0369083Y0121342D03*
X0369083Y0121380D03*
X0369083Y0121418D03*
X0369083Y0121456D03*
D202*
X0333439Y0096072D03*
D203*
X0363022Y0096566D03*
X0363022Y0096604D03*
X0363022Y0096642D03*
X0363022Y0096680D03*
X0363022Y0096718D03*
X0369140Y0096756D03*
X0369140Y0096794D03*
X0369140Y0096832D03*
X0369140Y0096870D03*
X0369140Y0096908D03*
X0350786Y0117314D03*
X0363022Y0121646D03*
X0363022Y0121684D03*
X0363022Y0121722D03*
X0363022Y0121760D03*
X0363022Y0121798D03*
X0369140Y0121836D03*
X0369140Y0121874D03*
X0369140Y0121912D03*
X0369140Y0121950D03*
X0369140Y0121988D03*
D204*
X0369159Y0122026D03*
X0369159Y0122064D03*
X0369159Y0122102D03*
X0369159Y0122140D03*
X0369159Y0122178D03*
X0363003Y0121988D03*
X0363003Y0121950D03*
X0363003Y0121912D03*
X0363003Y0121874D03*
X0363003Y0121836D03*
X0350273Y0120620D03*
X0350843Y0117352D03*
X0349627Y0116212D03*
X0363003Y0096908D03*
X0363003Y0096870D03*
X0363003Y0096832D03*
X0363003Y0096794D03*
X0363003Y0096756D03*
X0369159Y0096946D03*
X0369159Y0096984D03*
X0369159Y0097022D03*
X0369159Y0097060D03*
X0369159Y0097098D03*
D205*
X0344535Y0100214D03*
X0343699Y0096984D03*
D206*
X0362965Y0097136D03*
X0362965Y0097174D03*
X0362965Y0097212D03*
X0362965Y0097250D03*
X0369197Y0097288D03*
X0369197Y0097326D03*
X0369197Y0097364D03*
X0369197Y0097402D03*
X0369197Y0097440D03*
X0369197Y0122368D03*
X0369197Y0122406D03*
X0369197Y0122444D03*
X0369197Y0122482D03*
X0369197Y0122520D03*
X0362965Y0122330D03*
X0362965Y0122292D03*
X0362965Y0122254D03*
X0362965Y0122216D03*
D207*
X0362946Y0122368D03*
X0362946Y0122406D03*
X0362946Y0122444D03*
X0362946Y0122482D03*
X0362946Y0122520D03*
X0369216Y0122558D03*
X0369216Y0122596D03*
X0369216Y0122634D03*
X0369216Y0122672D03*
X0369216Y0122710D03*
X0350254Y0120658D03*
X0349532Y0116136D03*
X0362946Y0097440D03*
X0362946Y0097402D03*
X0362946Y0097364D03*
X0362946Y0097326D03*
X0362946Y0097288D03*
X0369216Y0097478D03*
X0369216Y0097516D03*
X0369216Y0097554D03*
X0369216Y0097592D03*
X0369216Y0097630D03*
D208*
X0343642Y0097516D03*
X0350520Y0117048D03*
D209*
X0340051Y0120468D03*
X0340051Y0112906D03*
X0343661Y0097554D03*
D210*
X0343642Y0097592D03*
X0350292Y0112944D03*
D211*
X0349361Y0115984D03*
X0351109Y0117580D03*
X0362851Y0123280D03*
X0362851Y0123318D03*
X0362851Y0123356D03*
X0362851Y0123394D03*
X0362851Y0123432D03*
X0369311Y0123470D03*
X0369311Y0123508D03*
X0369311Y0123546D03*
X0369311Y0123584D03*
X0369311Y0123622D03*
X0369311Y0098542D03*
X0369311Y0098504D03*
X0369311Y0098466D03*
X0369311Y0098428D03*
X0369311Y0098390D03*
X0362851Y0098352D03*
X0362851Y0098314D03*
X0362851Y0098276D03*
X0362851Y0098238D03*
X0362851Y0098200D03*
D212*
X0343604Y0098238D03*
X0340032Y0113856D03*
D213*
X0343300Y0101202D03*
X0343300Y0101164D03*
X0343566Y0098504D03*
D214*
X0344535Y0100176D03*
D215*
X0343376Y0101468D03*
X0343376Y0101506D03*
X0343376Y0107244D03*
X0343376Y0107282D03*
X0343376Y0107320D03*
D216*
X0343433Y0106902D03*
X0343433Y0106864D03*
X0343433Y0106826D03*
X0343433Y0106788D03*
X0343433Y0106750D03*
X0343433Y0106712D03*
X0343433Y0106674D03*
X0343433Y0101962D03*
X0343433Y0101924D03*
X0343433Y0101886D03*
X0343433Y0101848D03*
X0343433Y0101810D03*
X0357151Y0113894D03*
X0357151Y0113932D03*
X0357151Y0113970D03*
X0357151Y0114008D03*
X0357151Y0114046D03*
X0357151Y0114084D03*
D217*
X0358215Y0113324D03*
X0349361Y0107548D03*
D218*
X0360172Y0107928D03*
X0350254Y0120924D03*
D219*
X0344554Y0108536D03*
D220*
X0344554Y0108612D03*
D221*
X0368399Y0109106D03*
X0368399Y0109144D03*
X0368399Y0109182D03*
X0368399Y0109220D03*
X0368399Y0109258D03*
X0368399Y0109296D03*
X0368399Y0109334D03*
X0368399Y0109372D03*
X0368399Y0109410D03*
X0368399Y0109448D03*
X0368399Y0109486D03*
X0368399Y0109524D03*
X0368399Y0109562D03*
X0368399Y0109600D03*
X0368399Y0109638D03*
X0368399Y0109676D03*
X0368399Y0109714D03*
X0368399Y0109752D03*
X0368399Y0109790D03*
X0368399Y0109828D03*
X0368399Y0109866D03*
X0368399Y0109904D03*
X0368399Y0109942D03*
X0368399Y0109980D03*
X0368399Y0110018D03*
X0368399Y0110056D03*
X0368399Y0110094D03*
X0368399Y0110132D03*
X0368399Y0110170D03*
X0368399Y0110208D03*
X0368399Y0110246D03*
X0368399Y0110284D03*
X0368399Y0110322D03*
X0368399Y0110360D03*
X0368399Y0110398D03*
X0368399Y0110436D03*
X0368399Y0110474D03*
X0368399Y0110512D03*
X0368399Y0110550D03*
X0368399Y0110588D03*
X0368399Y0110626D03*
X0368399Y0110664D03*
X0368399Y0110702D03*
X0368399Y0110740D03*
X0368399Y0110778D03*
X0368399Y0110816D03*
X0368399Y0110854D03*
X0368399Y0110892D03*
X0368399Y0110930D03*
X0368399Y0110968D03*
X0368399Y0111006D03*
X0368399Y0111044D03*
X0368399Y0111082D03*
X0368399Y0111120D03*
X0368399Y0111158D03*
X0368399Y0111196D03*
X0368399Y0111234D03*
X0368399Y0111272D03*
D222*
X0350273Y0121190D03*
X0340051Y0121190D03*
X0340051Y0112184D03*
D223*
X0350311Y0112222D03*
D224*
X0350311Y0112526D03*
D225*
X0350292Y0112906D03*
X0350254Y0120430D03*
D226*
X0340051Y0120354D03*
X0340051Y0113020D03*
D227*
X0340051Y0113248D03*
X0340051Y0113286D03*
X0340051Y0120088D03*
D228*
X0340051Y0119898D03*
X0340051Y0113476D03*
X0340051Y0113438D03*
D229*
X0340051Y0113704D03*
X0340051Y0119632D03*
X0350273Y0119670D03*
D230*
X0349399Y0116022D03*
D231*
X0349950Y0116516D03*
X0350254Y0120506D03*
D232*
X0350938Y0117428D03*
D233*
X0348392Y0118492D03*
X0348392Y0118530D03*
X0348392Y0118568D03*
X0348392Y0118606D03*
X0348392Y0118644D03*
X0348392Y0118682D03*
X0348392Y0118720D03*
X0348392Y0118758D03*
D234*
X0350254Y0120278D03*
D235*
X0350254Y0120392D03*
D236*
X0331800Y0123406D03*
X0321800Y0124194D03*
X0311800Y0123406D03*
M02*
