G75*
%MOIN*%
%OFA0B0*%
%FSLAX25Y25*%
%IPPOS*%
%LPD*%
%AMOC8*
5,1,8,0,0,1.08239X$1,22.5*
%
%ADD10C,0.00000*%
%ADD11C,0.12400*%
%ADD12C,0.09400*%
%ADD13C,0.06000*%
%ADD14C,0.05556*%
%ADD15C,0.07300*%
%ADD16C,0.07131*%
%ADD17C,0.12668*%
%ADD18C,0.05800*%
%ADD19C,0.03500*%
%ADD20C,0.05000*%
%ADD21C,0.07800*%
D10*
X0067008Y0011800D02*
X0396564Y0011800D01*
X0396564Y0133847D01*
X0069822Y0133847D01*
X0189300Y0116800D02*
X0189302Y0116934D01*
X0189308Y0117068D01*
X0189318Y0117201D01*
X0189332Y0117335D01*
X0189350Y0117468D01*
X0189372Y0117600D01*
X0189397Y0117731D01*
X0189427Y0117862D01*
X0189461Y0117992D01*
X0189498Y0118120D01*
X0189539Y0118248D01*
X0189584Y0118374D01*
X0189633Y0118499D01*
X0189685Y0118622D01*
X0189741Y0118744D01*
X0189801Y0118864D01*
X0189864Y0118982D01*
X0189931Y0119098D01*
X0190001Y0119212D01*
X0190075Y0119324D01*
X0190152Y0119434D01*
X0190232Y0119542D01*
X0190315Y0119647D01*
X0190401Y0119749D01*
X0190490Y0119849D01*
X0190583Y0119946D01*
X0190678Y0120041D01*
X0190776Y0120132D01*
X0190876Y0120221D01*
X0190979Y0120306D01*
X0191085Y0120389D01*
X0191193Y0120468D01*
X0191303Y0120544D01*
X0191416Y0120617D01*
X0191531Y0120686D01*
X0191647Y0120752D01*
X0191766Y0120814D01*
X0191886Y0120873D01*
X0192009Y0120928D01*
X0192132Y0120980D01*
X0192257Y0121027D01*
X0192384Y0121071D01*
X0192512Y0121112D01*
X0192641Y0121148D01*
X0192771Y0121181D01*
X0192902Y0121209D01*
X0193033Y0121234D01*
X0193166Y0121255D01*
X0193299Y0121272D01*
X0193432Y0121285D01*
X0193566Y0121294D01*
X0193700Y0121299D01*
X0193834Y0121300D01*
X0193967Y0121297D01*
X0194101Y0121290D01*
X0194235Y0121279D01*
X0194368Y0121264D01*
X0194501Y0121245D01*
X0194633Y0121222D01*
X0194764Y0121196D01*
X0194894Y0121165D01*
X0195024Y0121130D01*
X0195152Y0121092D01*
X0195279Y0121050D01*
X0195405Y0121004D01*
X0195530Y0120954D01*
X0195653Y0120901D01*
X0195774Y0120844D01*
X0195894Y0120783D01*
X0196011Y0120719D01*
X0196127Y0120652D01*
X0196241Y0120581D01*
X0196352Y0120506D01*
X0196461Y0120429D01*
X0196568Y0120348D01*
X0196673Y0120264D01*
X0196774Y0120177D01*
X0196874Y0120087D01*
X0196970Y0119994D01*
X0197064Y0119898D01*
X0197155Y0119799D01*
X0197242Y0119698D01*
X0197327Y0119594D01*
X0197409Y0119488D01*
X0197487Y0119380D01*
X0197562Y0119269D01*
X0197634Y0119156D01*
X0197703Y0119040D01*
X0197768Y0118923D01*
X0197829Y0118804D01*
X0197887Y0118683D01*
X0197941Y0118561D01*
X0197992Y0118437D01*
X0198039Y0118311D01*
X0198082Y0118184D01*
X0198121Y0118056D01*
X0198157Y0117927D01*
X0198188Y0117797D01*
X0198216Y0117666D01*
X0198240Y0117534D01*
X0198260Y0117401D01*
X0198276Y0117268D01*
X0198288Y0117135D01*
X0198296Y0117001D01*
X0198300Y0116867D01*
X0198300Y0116733D01*
X0198296Y0116599D01*
X0198288Y0116465D01*
X0198276Y0116332D01*
X0198260Y0116199D01*
X0198240Y0116066D01*
X0198216Y0115934D01*
X0198188Y0115803D01*
X0198157Y0115673D01*
X0198121Y0115544D01*
X0198082Y0115416D01*
X0198039Y0115289D01*
X0197992Y0115163D01*
X0197941Y0115039D01*
X0197887Y0114917D01*
X0197829Y0114796D01*
X0197768Y0114677D01*
X0197703Y0114560D01*
X0197634Y0114444D01*
X0197562Y0114331D01*
X0197487Y0114220D01*
X0197409Y0114112D01*
X0197327Y0114006D01*
X0197242Y0113902D01*
X0197155Y0113801D01*
X0197064Y0113702D01*
X0196970Y0113606D01*
X0196874Y0113513D01*
X0196774Y0113423D01*
X0196673Y0113336D01*
X0196568Y0113252D01*
X0196461Y0113171D01*
X0196352Y0113094D01*
X0196241Y0113019D01*
X0196127Y0112948D01*
X0196011Y0112881D01*
X0195894Y0112817D01*
X0195774Y0112756D01*
X0195653Y0112699D01*
X0195530Y0112646D01*
X0195405Y0112596D01*
X0195279Y0112550D01*
X0195152Y0112508D01*
X0195024Y0112470D01*
X0194894Y0112435D01*
X0194764Y0112404D01*
X0194633Y0112378D01*
X0194501Y0112355D01*
X0194368Y0112336D01*
X0194235Y0112321D01*
X0194101Y0112310D01*
X0193967Y0112303D01*
X0193834Y0112300D01*
X0193700Y0112301D01*
X0193566Y0112306D01*
X0193432Y0112315D01*
X0193299Y0112328D01*
X0193166Y0112345D01*
X0193033Y0112366D01*
X0192902Y0112391D01*
X0192771Y0112419D01*
X0192641Y0112452D01*
X0192512Y0112488D01*
X0192384Y0112529D01*
X0192257Y0112573D01*
X0192132Y0112620D01*
X0192009Y0112672D01*
X0191886Y0112727D01*
X0191766Y0112786D01*
X0191647Y0112848D01*
X0191531Y0112914D01*
X0191416Y0112983D01*
X0191303Y0113056D01*
X0191193Y0113132D01*
X0191085Y0113211D01*
X0190979Y0113294D01*
X0190876Y0113379D01*
X0190776Y0113468D01*
X0190678Y0113559D01*
X0190583Y0113654D01*
X0190490Y0113751D01*
X0190401Y0113851D01*
X0190315Y0113953D01*
X0190232Y0114058D01*
X0190152Y0114166D01*
X0190075Y0114276D01*
X0190001Y0114388D01*
X0189931Y0114502D01*
X0189864Y0114618D01*
X0189801Y0114736D01*
X0189741Y0114856D01*
X0189685Y0114978D01*
X0189633Y0115101D01*
X0189584Y0115226D01*
X0189539Y0115352D01*
X0189498Y0115480D01*
X0189461Y0115608D01*
X0189427Y0115738D01*
X0189397Y0115869D01*
X0189372Y0116000D01*
X0189350Y0116132D01*
X0189332Y0116265D01*
X0189318Y0116399D01*
X0189308Y0116532D01*
X0189302Y0116666D01*
X0189300Y0116800D01*
X0069822Y0133848D02*
X0068319Y0133849D01*
X0066816Y0133815D01*
X0065314Y0133744D01*
X0063815Y0133637D01*
X0062319Y0133494D01*
X0060827Y0133314D01*
X0059339Y0133099D01*
X0057857Y0132848D01*
X0056381Y0132561D01*
X0054913Y0132238D01*
X0053454Y0131880D01*
X0052003Y0131487D01*
X0050562Y0131059D01*
X0049132Y0130596D01*
X0047713Y0130099D01*
X0046307Y0129568D01*
X0044914Y0129003D01*
X0043536Y0128404D01*
X0042172Y0127772D01*
X0040823Y0127108D01*
X0039492Y0126411D01*
X0038177Y0125682D01*
X0036880Y0124921D01*
X0035603Y0124130D01*
X0034344Y0123308D01*
X0033106Y0122455D01*
X0031889Y0121573D01*
X0030694Y0120662D01*
X0029521Y0119722D01*
X0028371Y0118754D01*
X0027244Y0117759D01*
X0026142Y0116737D01*
X0025065Y0115688D01*
X0024014Y0114614D01*
X0022989Y0113514D01*
X0021991Y0112390D01*
X0021020Y0111243D01*
X0020078Y0110072D01*
X0019164Y0108878D01*
X0018279Y0107663D01*
X0017423Y0106427D01*
X0016598Y0105171D01*
X0015804Y0103895D01*
X0015040Y0102601D01*
X0014308Y0101288D01*
X0013608Y0099958D01*
X0012940Y0098611D01*
X0012305Y0097249D01*
X0011703Y0095871D01*
X0011134Y0094480D01*
X0010600Y0093075D01*
X0010099Y0091658D01*
X0009633Y0090229D01*
X0009201Y0088789D01*
X0008805Y0087339D01*
X0008443Y0085880D01*
X0008117Y0084413D01*
X0007826Y0082938D01*
X0007572Y0081457D01*
X0007353Y0079970D01*
X0007170Y0078478D01*
X0007023Y0076982D01*
X0006912Y0075483D01*
X0006838Y0073981D01*
X0006799Y0072479D01*
X0006800Y0072479D02*
X0006800Y0072008D01*
X0006818Y0070553D01*
X0006870Y0069099D01*
X0006958Y0067647D01*
X0007081Y0066197D01*
X0007239Y0064751D01*
X0007432Y0063309D01*
X0007659Y0061872D01*
X0007922Y0060440D01*
X0008218Y0059016D01*
X0008550Y0057599D01*
X0008915Y0056191D01*
X0009314Y0054792D01*
X0009747Y0053403D01*
X0010213Y0052024D01*
X0010713Y0050658D01*
X0011245Y0049304D01*
X0011810Y0047963D01*
X0012407Y0046636D01*
X0013036Y0045324D01*
X0013696Y0044028D01*
X0014388Y0042748D01*
X0015111Y0041485D01*
X0015863Y0040240D01*
X0016646Y0039013D01*
X0017458Y0037806D01*
X0018299Y0036619D01*
X0019168Y0035452D01*
X0020065Y0034307D01*
X0020990Y0033183D01*
X0021942Y0032083D01*
X0022920Y0031005D01*
X0023923Y0029952D01*
X0024952Y0028923D01*
X0026005Y0027920D01*
X0027083Y0026942D01*
X0028183Y0025990D01*
X0029307Y0025065D01*
X0030452Y0024168D01*
X0031619Y0023299D01*
X0032806Y0022458D01*
X0034013Y0021646D01*
X0035240Y0020863D01*
X0036485Y0020111D01*
X0037748Y0019388D01*
X0039028Y0018696D01*
X0040324Y0018036D01*
X0041636Y0017407D01*
X0042963Y0016810D01*
X0044304Y0016245D01*
X0045658Y0015713D01*
X0047024Y0015213D01*
X0048403Y0014747D01*
X0049792Y0014314D01*
X0051191Y0013915D01*
X0052599Y0013550D01*
X0054016Y0013218D01*
X0055440Y0012922D01*
X0056872Y0012659D01*
X0058309Y0012432D01*
X0059751Y0012239D01*
X0061197Y0012081D01*
X0062647Y0011958D01*
X0064099Y0011870D01*
X0065553Y0011818D01*
X0067008Y0011800D01*
X0136300Y0028800D02*
X0136302Y0028934D01*
X0136308Y0029068D01*
X0136318Y0029201D01*
X0136332Y0029335D01*
X0136350Y0029468D01*
X0136372Y0029600D01*
X0136397Y0029731D01*
X0136427Y0029862D01*
X0136461Y0029992D01*
X0136498Y0030120D01*
X0136539Y0030248D01*
X0136584Y0030374D01*
X0136633Y0030499D01*
X0136685Y0030622D01*
X0136741Y0030744D01*
X0136801Y0030864D01*
X0136864Y0030982D01*
X0136931Y0031098D01*
X0137001Y0031212D01*
X0137075Y0031324D01*
X0137152Y0031434D01*
X0137232Y0031542D01*
X0137315Y0031647D01*
X0137401Y0031749D01*
X0137490Y0031849D01*
X0137583Y0031946D01*
X0137678Y0032041D01*
X0137776Y0032132D01*
X0137876Y0032221D01*
X0137979Y0032306D01*
X0138085Y0032389D01*
X0138193Y0032468D01*
X0138303Y0032544D01*
X0138416Y0032617D01*
X0138531Y0032686D01*
X0138647Y0032752D01*
X0138766Y0032814D01*
X0138886Y0032873D01*
X0139009Y0032928D01*
X0139132Y0032980D01*
X0139257Y0033027D01*
X0139384Y0033071D01*
X0139512Y0033112D01*
X0139641Y0033148D01*
X0139771Y0033181D01*
X0139902Y0033209D01*
X0140033Y0033234D01*
X0140166Y0033255D01*
X0140299Y0033272D01*
X0140432Y0033285D01*
X0140566Y0033294D01*
X0140700Y0033299D01*
X0140834Y0033300D01*
X0140967Y0033297D01*
X0141101Y0033290D01*
X0141235Y0033279D01*
X0141368Y0033264D01*
X0141501Y0033245D01*
X0141633Y0033222D01*
X0141764Y0033196D01*
X0141894Y0033165D01*
X0142024Y0033130D01*
X0142152Y0033092D01*
X0142279Y0033050D01*
X0142405Y0033004D01*
X0142530Y0032954D01*
X0142653Y0032901D01*
X0142774Y0032844D01*
X0142894Y0032783D01*
X0143011Y0032719D01*
X0143127Y0032652D01*
X0143241Y0032581D01*
X0143352Y0032506D01*
X0143461Y0032429D01*
X0143568Y0032348D01*
X0143673Y0032264D01*
X0143774Y0032177D01*
X0143874Y0032087D01*
X0143970Y0031994D01*
X0144064Y0031898D01*
X0144155Y0031799D01*
X0144242Y0031698D01*
X0144327Y0031594D01*
X0144409Y0031488D01*
X0144487Y0031380D01*
X0144562Y0031269D01*
X0144634Y0031156D01*
X0144703Y0031040D01*
X0144768Y0030923D01*
X0144829Y0030804D01*
X0144887Y0030683D01*
X0144941Y0030561D01*
X0144992Y0030437D01*
X0145039Y0030311D01*
X0145082Y0030184D01*
X0145121Y0030056D01*
X0145157Y0029927D01*
X0145188Y0029797D01*
X0145216Y0029666D01*
X0145240Y0029534D01*
X0145260Y0029401D01*
X0145276Y0029268D01*
X0145288Y0029135D01*
X0145296Y0029001D01*
X0145300Y0028867D01*
X0145300Y0028733D01*
X0145296Y0028599D01*
X0145288Y0028465D01*
X0145276Y0028332D01*
X0145260Y0028199D01*
X0145240Y0028066D01*
X0145216Y0027934D01*
X0145188Y0027803D01*
X0145157Y0027673D01*
X0145121Y0027544D01*
X0145082Y0027416D01*
X0145039Y0027289D01*
X0144992Y0027163D01*
X0144941Y0027039D01*
X0144887Y0026917D01*
X0144829Y0026796D01*
X0144768Y0026677D01*
X0144703Y0026560D01*
X0144634Y0026444D01*
X0144562Y0026331D01*
X0144487Y0026220D01*
X0144409Y0026112D01*
X0144327Y0026006D01*
X0144242Y0025902D01*
X0144155Y0025801D01*
X0144064Y0025702D01*
X0143970Y0025606D01*
X0143874Y0025513D01*
X0143774Y0025423D01*
X0143673Y0025336D01*
X0143568Y0025252D01*
X0143461Y0025171D01*
X0143352Y0025094D01*
X0143241Y0025019D01*
X0143127Y0024948D01*
X0143011Y0024881D01*
X0142894Y0024817D01*
X0142774Y0024756D01*
X0142653Y0024699D01*
X0142530Y0024646D01*
X0142405Y0024596D01*
X0142279Y0024550D01*
X0142152Y0024508D01*
X0142024Y0024470D01*
X0141894Y0024435D01*
X0141764Y0024404D01*
X0141633Y0024378D01*
X0141501Y0024355D01*
X0141368Y0024336D01*
X0141235Y0024321D01*
X0141101Y0024310D01*
X0140967Y0024303D01*
X0140834Y0024300D01*
X0140700Y0024301D01*
X0140566Y0024306D01*
X0140432Y0024315D01*
X0140299Y0024328D01*
X0140166Y0024345D01*
X0140033Y0024366D01*
X0139902Y0024391D01*
X0139771Y0024419D01*
X0139641Y0024452D01*
X0139512Y0024488D01*
X0139384Y0024529D01*
X0139257Y0024573D01*
X0139132Y0024620D01*
X0139009Y0024672D01*
X0138886Y0024727D01*
X0138766Y0024786D01*
X0138647Y0024848D01*
X0138531Y0024914D01*
X0138416Y0024983D01*
X0138303Y0025056D01*
X0138193Y0025132D01*
X0138085Y0025211D01*
X0137979Y0025294D01*
X0137876Y0025379D01*
X0137776Y0025468D01*
X0137678Y0025559D01*
X0137583Y0025654D01*
X0137490Y0025751D01*
X0137401Y0025851D01*
X0137315Y0025953D01*
X0137232Y0026058D01*
X0137152Y0026166D01*
X0137075Y0026276D01*
X0137001Y0026388D01*
X0136931Y0026502D01*
X0136864Y0026618D01*
X0136801Y0026736D01*
X0136741Y0026856D01*
X0136685Y0026978D01*
X0136633Y0027101D01*
X0136584Y0027226D01*
X0136539Y0027352D01*
X0136498Y0027480D01*
X0136461Y0027608D01*
X0136427Y0027738D01*
X0136397Y0027869D01*
X0136372Y0028000D01*
X0136350Y0028132D01*
X0136332Y0028265D01*
X0136318Y0028399D01*
X0136308Y0028532D01*
X0136302Y0028666D01*
X0136300Y0028800D01*
X0242300Y0028800D02*
X0242302Y0028934D01*
X0242308Y0029068D01*
X0242318Y0029201D01*
X0242332Y0029335D01*
X0242350Y0029468D01*
X0242372Y0029600D01*
X0242397Y0029731D01*
X0242427Y0029862D01*
X0242461Y0029992D01*
X0242498Y0030120D01*
X0242539Y0030248D01*
X0242584Y0030374D01*
X0242633Y0030499D01*
X0242685Y0030622D01*
X0242741Y0030744D01*
X0242801Y0030864D01*
X0242864Y0030982D01*
X0242931Y0031098D01*
X0243001Y0031212D01*
X0243075Y0031324D01*
X0243152Y0031434D01*
X0243232Y0031542D01*
X0243315Y0031647D01*
X0243401Y0031749D01*
X0243490Y0031849D01*
X0243583Y0031946D01*
X0243678Y0032041D01*
X0243776Y0032132D01*
X0243876Y0032221D01*
X0243979Y0032306D01*
X0244085Y0032389D01*
X0244193Y0032468D01*
X0244303Y0032544D01*
X0244416Y0032617D01*
X0244531Y0032686D01*
X0244647Y0032752D01*
X0244766Y0032814D01*
X0244886Y0032873D01*
X0245009Y0032928D01*
X0245132Y0032980D01*
X0245257Y0033027D01*
X0245384Y0033071D01*
X0245512Y0033112D01*
X0245641Y0033148D01*
X0245771Y0033181D01*
X0245902Y0033209D01*
X0246033Y0033234D01*
X0246166Y0033255D01*
X0246299Y0033272D01*
X0246432Y0033285D01*
X0246566Y0033294D01*
X0246700Y0033299D01*
X0246834Y0033300D01*
X0246967Y0033297D01*
X0247101Y0033290D01*
X0247235Y0033279D01*
X0247368Y0033264D01*
X0247501Y0033245D01*
X0247633Y0033222D01*
X0247764Y0033196D01*
X0247894Y0033165D01*
X0248024Y0033130D01*
X0248152Y0033092D01*
X0248279Y0033050D01*
X0248405Y0033004D01*
X0248530Y0032954D01*
X0248653Y0032901D01*
X0248774Y0032844D01*
X0248894Y0032783D01*
X0249011Y0032719D01*
X0249127Y0032652D01*
X0249241Y0032581D01*
X0249352Y0032506D01*
X0249461Y0032429D01*
X0249568Y0032348D01*
X0249673Y0032264D01*
X0249774Y0032177D01*
X0249874Y0032087D01*
X0249970Y0031994D01*
X0250064Y0031898D01*
X0250155Y0031799D01*
X0250242Y0031698D01*
X0250327Y0031594D01*
X0250409Y0031488D01*
X0250487Y0031380D01*
X0250562Y0031269D01*
X0250634Y0031156D01*
X0250703Y0031040D01*
X0250768Y0030923D01*
X0250829Y0030804D01*
X0250887Y0030683D01*
X0250941Y0030561D01*
X0250992Y0030437D01*
X0251039Y0030311D01*
X0251082Y0030184D01*
X0251121Y0030056D01*
X0251157Y0029927D01*
X0251188Y0029797D01*
X0251216Y0029666D01*
X0251240Y0029534D01*
X0251260Y0029401D01*
X0251276Y0029268D01*
X0251288Y0029135D01*
X0251296Y0029001D01*
X0251300Y0028867D01*
X0251300Y0028733D01*
X0251296Y0028599D01*
X0251288Y0028465D01*
X0251276Y0028332D01*
X0251260Y0028199D01*
X0251240Y0028066D01*
X0251216Y0027934D01*
X0251188Y0027803D01*
X0251157Y0027673D01*
X0251121Y0027544D01*
X0251082Y0027416D01*
X0251039Y0027289D01*
X0250992Y0027163D01*
X0250941Y0027039D01*
X0250887Y0026917D01*
X0250829Y0026796D01*
X0250768Y0026677D01*
X0250703Y0026560D01*
X0250634Y0026444D01*
X0250562Y0026331D01*
X0250487Y0026220D01*
X0250409Y0026112D01*
X0250327Y0026006D01*
X0250242Y0025902D01*
X0250155Y0025801D01*
X0250064Y0025702D01*
X0249970Y0025606D01*
X0249874Y0025513D01*
X0249774Y0025423D01*
X0249673Y0025336D01*
X0249568Y0025252D01*
X0249461Y0025171D01*
X0249352Y0025094D01*
X0249241Y0025019D01*
X0249127Y0024948D01*
X0249011Y0024881D01*
X0248894Y0024817D01*
X0248774Y0024756D01*
X0248653Y0024699D01*
X0248530Y0024646D01*
X0248405Y0024596D01*
X0248279Y0024550D01*
X0248152Y0024508D01*
X0248024Y0024470D01*
X0247894Y0024435D01*
X0247764Y0024404D01*
X0247633Y0024378D01*
X0247501Y0024355D01*
X0247368Y0024336D01*
X0247235Y0024321D01*
X0247101Y0024310D01*
X0246967Y0024303D01*
X0246834Y0024300D01*
X0246700Y0024301D01*
X0246566Y0024306D01*
X0246432Y0024315D01*
X0246299Y0024328D01*
X0246166Y0024345D01*
X0246033Y0024366D01*
X0245902Y0024391D01*
X0245771Y0024419D01*
X0245641Y0024452D01*
X0245512Y0024488D01*
X0245384Y0024529D01*
X0245257Y0024573D01*
X0245132Y0024620D01*
X0245009Y0024672D01*
X0244886Y0024727D01*
X0244766Y0024786D01*
X0244647Y0024848D01*
X0244531Y0024914D01*
X0244416Y0024983D01*
X0244303Y0025056D01*
X0244193Y0025132D01*
X0244085Y0025211D01*
X0243979Y0025294D01*
X0243876Y0025379D01*
X0243776Y0025468D01*
X0243678Y0025559D01*
X0243583Y0025654D01*
X0243490Y0025751D01*
X0243401Y0025851D01*
X0243315Y0025953D01*
X0243232Y0026058D01*
X0243152Y0026166D01*
X0243075Y0026276D01*
X0243001Y0026388D01*
X0242931Y0026502D01*
X0242864Y0026618D01*
X0242801Y0026736D01*
X0242741Y0026856D01*
X0242685Y0026978D01*
X0242633Y0027101D01*
X0242584Y0027226D01*
X0242539Y0027352D01*
X0242498Y0027480D01*
X0242461Y0027608D01*
X0242427Y0027738D01*
X0242397Y0027869D01*
X0242372Y0028000D01*
X0242350Y0028132D01*
X0242332Y0028265D01*
X0242318Y0028399D01*
X0242308Y0028532D01*
X0242302Y0028666D01*
X0242300Y0028800D01*
D11*
X0295800Y0047800D03*
X0295800Y0098800D03*
D12*
X0193800Y0116800D03*
X0140800Y0028800D03*
X0246800Y0028800D03*
D13*
X0231800Y0041800D03*
X0231800Y0051800D03*
X0231800Y0061800D03*
X0231800Y0071800D03*
X0231800Y0081800D03*
X0231800Y0091800D03*
X0231800Y0101800D03*
X0201800Y0101800D03*
X0201800Y0091800D03*
X0201800Y0081800D03*
X0201800Y0071800D03*
X0201800Y0061800D03*
X0201800Y0051800D03*
X0201800Y0041800D03*
X0146800Y0042300D03*
X0106800Y0042300D03*
X0111800Y0062800D03*
X0131800Y0062800D03*
X0131800Y0082800D03*
X0111800Y0082800D03*
X0106800Y0103300D03*
X0146800Y0103300D03*
D14*
X0310363Y0071300D03*
X0318237Y0071300D03*
D15*
X0384261Y0042824D03*
X0384261Y0102824D03*
D16*
X0276643Y0045265D03*
X0266800Y0045265D03*
X0256957Y0045265D03*
X0081643Y0045265D03*
X0071800Y0045265D03*
X0061957Y0045265D03*
D17*
X0054083Y0072824D03*
X0089517Y0072824D03*
X0249083Y0072824D03*
X0284517Y0072824D03*
D18*
X0179202Y0067824D03*
X0171702Y0067824D03*
X0164202Y0067824D03*
X0156702Y0067824D03*
D19*
X0311957Y0019800D03*
X0331643Y0019800D03*
D20*
X0335580Y0029643D03*
X0308020Y0029643D03*
D21*
X0311800Y0123406D03*
X0321800Y0124194D03*
X0331800Y0123406D03*
M02*
